/* XPM */
static char *ZXpnaWYuY29tLWdpZi1tYWtlci0z_49[] = {
/* columns rows colors chars-per-pixel */
"59 75 128 2 ",
"   c #0E120C",
".  c #14110F",
"X  c #151210",
"o  c #191614",
"O  c #171915",
"+  c #1A1916",
"@  c #1D1C1A",
"#  c #221D1B",
"$  c #1E221D",
"%  c #24211E",
"&  c #1C1F22",
"*  c #1D2125",
"=  c #1D242A",
"-  c #1F282E",
";  c #1E2731",
":  c #1F2A33",
">  c #242422",
",  c #2B2522",
"<  c #262A25",
"1  c #2D2A25",
"2  c #20282F",
"3  c #2C2C2B",
"4  c #312A27",
"5  c #342D29",
"6  c #2D322B",
"7  c #34322D",
"8  c #39312E",
"9  c #31382F",
"0  c #222B33",
"q  c #23313F",
"w  c #323432",
"e  c #3C3532",
"r  c #343A32",
"t  c #3D3934",
"y  c #3B3D3A",
"u  c #413B37",
"i  c #423C38",
"p  c #3A4237",
"a  c #3E413D",
"s  c #3D4A3B",
"d  c #243544",
"f  c #273B4D",
"g  c #283C4E",
"h  c #263C51",
"j  c #2C465D",
"k  c #2D4760",
"l  c #2E4B64",
"z  c #2F4E69",
"x  c #304F6A",
"c  c #2F506C",
"v  c #30516D",
"b  c #2F5471",
"n  c #325573",
"m  c #335877",
"M  c #345B7B",
"N  c #395E7D",
"B  c #434443",
"V  c #4B4B4B",
"C  c gray33",
"Z  c gray35",
"A  c #365F80",
"S  c #376285",
"D  c #3A6484",
"F  c #376489",
"G  c #37688E",
"H  c #3A688E",
"J  c #3A6C94",
"K  c #3B6F98",
"L  c #3D7097",
"P  c #3D729B",
"I  c #3D75A1",
"U  c #3E79A6",
"Y  c #3F7BA9",
"T  c #3D7AA8",
"R  c #406D8F",
"E  c #416E90",
"W  c #437295",
"Q  c #447396",
"!  c #427193",
"~  c #41749B",
"^  c #45769A",
"/  c #42769F",
"(  c #44779E",
")  c #45789E",
"_  c #4077A0",
"`  c #447AA3",
"'  c #447AA3",
"]  c #497FA7",
"[  c #407DAC",
"{  c #427FAE",
"}  c #437DA9",
"|  c #487FA9",
" . c #4280AE",
".. c #4480AD",
"X. c #4683AF",
"o. c #4C81A8",
"O. c #4B85AF",
"+. c #4A83AC",
"@. c #4583B1",
"#. c #4785B3",
"$. c #4B86B0",
"%. c #4886B3",
"&. c #4A86B2",
"*. c #4B88B4",
"=. c #4C89B5",
"-. c #4E89B4",
";. c #4B8BB9",
":. c #4E8BB8",
">. c #4C8CBA",
",. c #508CB7",
"<. c #508DB9",
"1. c #4F90BE",
"2. c #5392BF",
"3. c #5291BE",
"4. c #5495C2",
"5. c #5394C2",
"6. c #5798C6",
"7. c #599AC6",
"8. c #579AC8",
"9. c #5B9DCB",
"0. c #5DA0CE",
"q. c #62A1CA",
"w. c #64A6D0",
"e. c #68A9D2",
"r. c None",
"t. c black",
"y. c black",
"u. c black",
/* pixels */
"r.r.r.r.r.r.r.r.r.r.r.r.r.r.r.r.r.r.r.r.r.r.r.r.r.r.r.r.r.r.r.r.r.r.r.r.r.r.r.r.r.r.r.r.r.r.r.r.r.r.r.r.r.r.r.r.r.r.r.",
"r.r.r.r.r.r.r.r.r.r.r.r.r.r.r.r.r.r.r.r.r.r.r.r.r.r.l l l l l l r.r.r.r.r.r.r.r.r.r.r.r.r.r.r.r.r.r.r.r.r.r.r.r.r.r.r.",
"r.r.r.r.r.r.r.r.r.r.r.r.r.r.r.r.r.r.r.r.r.r.r.j k l M J M M J J m l j j r.r.r.r.r.r.r.r.r.r.r.r.r.r.r.r.r.r.r.r.r.r.r.",
"r.r.r.r.r.r.r.r.r.r.r.r.r.r.r.r.r.r.r.r.r.l z l n J P T F S { T P J n l z z r.r.r.r.r.r.r.r.r.r.r.r.r.r.r.r.r.r.r.r.r.",
"r.r.r.r.r.r.r.r.r.r.r.r.r.r.r.r.r.r.r.j z J P P I T  . .F ! >. . .T P P P J z j r.r.r.r.r.r.r.r.r.r.r.r.r.r.r.r.r.r.r.",
"r.r.r.r.r.r.r.r.r.r.r.r.r.r.r.r.r.r.j z J U  .@.@.#.<.4.^ R 2.<.<.&.@.@. .T J z j r.r.r.r.r.r.r.r.r.r.r.r.r.r.r.r.r.r.",
"r.r.r.r.r.r.r.r.r.r.r.r.r.r.r.r.j z z F  .#.:.<.<.&.J ` ! n H J K &.<.<.>.#. .F v v j r.r.r.r.r.r.r.r.r.r.r.r.r.r.r.r.",
"r.r.r.r.r.r.r.r.r.r.r.r.r.r.j l m G M J :.=.L J J H S S M l m S S H J J L =.:.J R ) m l j r.r.r.r.r.r.r.r.r.r.r.r.r.r.",
"r.r.r.r.r.r.r.r.r.r.r.r.j v M F U  .( W K H H H S A m m M n x m m A S H H H K Q o.;.U F M l r.r.r.r.r.r.r.r.r.r.r.r.r.",
"r.r.r.r.r.r.r.r.r.r.r.j l S U T X.*.O.H m A S A m m m m m x x m m m m A S A m H O.*. .T U S l j r.r.r.r.r.r.r.r.r.r.r.",
"r.r.r.r.r.r.r.r.r.r.j l S U { >.=./ H S n z n m m m n z z l l z n m m m n z n S H / *.>. .U S l j r.r.r.r.r.r.r.r.r.r.",
"r.r.r.r.r.r.r.r.r.j l S U { =.| / S M m m v z n z l l g : : : f l l z n x v m m M S / | =. .U S l j r.r.r.r.r.r.r.r.r.",
"r.r.r.r.r.r.r.r.r.l S U { =./ H S m m v l l j j 0 - - * @ @ @ * - - : j j l l x m m S H / =.{ U S l r.r.r.r.r.r.r.r.r.",
"r.r.r.r.r.r.r.r.l F U { =./ F M m m x q = = = = # # # # , 4 , # # # # * = = = q z m m M F / =.{ U F l r.r.r.r.r.r.r.r.",
"r.r.r.r.r.r.r.l l J  .=./ H S m n l q @ , % , % 1 4 5 4 5 5 5 4 5 4 , % , % , # q l n m S H / =.{ J l j r.r.r.r.r.r.r.",
"r.r.r.r.r.r.j j E X.=./ F m m v d * > , 5 5 e 5 , 5 e e e e e e e 8 , 5 e 5 5 , % * d v m M F ^ *.X.E j j r.r.r.r.r.r.",
"r.r.r.r.r.r.z z v ) ^ S S m x d > , 4 5 8 8 e 8 , 4 + o + + + o + 4 , 8 e 8 8 5 4 , > d x m S S K H v z l r.r.r.r.r.r.",
"r.r.r.r.r.v F I S v S F m v d > 8 5 , 5 8 8 # o o o X X X X X X X o o o # 8 8 5 1 5 8 > d x m F S x S I F z r.r.r.r.r.",
"r.r.r.r.j M U  .&.D M S n d @ , 5 5 % o o o X X X X X X X X X X X X X X X o o o % 5 8 , @ d n S m D &. .U M r.r.r.r.r.",
"r.r.r.r.n F U >.' S v x g @ , 5 8 % X X X X X X X X X X X X X X X X X X X X X X X % 8 5 , & g x v S ' >.T H c r.r.r.r.",
"r.r.r.j M P ` =.~ M m j & , 5 8 % X X X X X X X X X X X X X X X X X X X X X X X X X % 8 5 , & j m M ~ =.X.U M r.r.r.r.",
"r.r.r.j m J O.| H M x d @ 5 8 % . X X X X X X X X X X X X X X X X X X X X X X X X X X % 8 5 @ d z M F ' >.U M r.r.r.r.",
"r.O.l j n S ] | S m j & @ 5 4 o o X X X X X X X X X X X X X X X X X X X X X X X X X X X 4 5 # & j M A ' >.U M j v 3.r.",
"0.4.) M z m ' | M m j * # , , + + X X X X X X X X X X X X X X X X X X X X X X X X X o o , , # & j m M | >.J v M ) 4.r.",
"D H | &.A v ' | S m j * 5 5 , w + + X X X X X X X X X X X X X X X X X X X X X X X X o w 3 5 5 * j m F | >.A A &.o.H r.",
"j z H ..^ z ' | A m j * 8 8 + > $ @ X X X X X X X X X X X X X X X X X X X X X X X O + < 3 e 5 * j m A | | v ^ ..H l r.",
"j v J H H n ! ' m n j * 4 4 o % % $ + X X X X X X X X X X X X X X X X X X X X X + $ w 6 6 8 4 * j n M ' ! n H H J v r.",
"r.l z v v v n m v c j * 5 8 o $ $ $ + X X X X X X X X X X X X X X X X X X X X X + > a r 9 t 4 * j l l n v c n n n l r.",
"r.j x S J P J J J J l * 5 8 o O O $ + X X X X X X X X X X X X X X X X X X X X X @ + y r 6 t 5 * j n m S H P P P J r.r.",
"r.j z A S M m m m n j * 1 1 o $ > @ O X X . X X X X X X X X X X X X X X X X X X . O a r 6 8 , * j v n n n M S S v r.r.",
"r.r.l l l l l l l l j * % , o w B o . X . X X X X X X X X X X X X X X X X X X X o t C w 6 7 # & j l l l l l l l k r.r.",
"r.r.r.j l m m m l v j & % , o 3 V < o X X X X X X X X X X X X X X X X X X X X o > B C 3 6 7 # & j v l m m m x r.r.r.r.",
"r.r.r.j v A m m l v j * , , @ B V 3 > o X X X X X X X X X X X X X X X X X X X @ 3 B C 3 6 8 , & j v l m M S n r.r.r.r.",
"r.r.r.j n H F A x v j * , % % C V 3 3 @ X X X X X X X X X X X X X X X X X X X @ 3 y C 3 3 1 , & j v c S H / N r.r.r.r.",
"r.r.r.j m J H ` N m l * 4 1 > Z V 3 > @ X X X X X X X X X X X X X X X X X X o @ 3 w B 3 6 8 4 * l m n H J =.H r.r.r.r.",
"r.r.r.j M U J $.D M l * 8 8 > Z V 3 > @ X X X X X X X X X X X X X X X X X X X @ 3 w B w 6 i 8 * l M n H P >.H r.r.r.r.",
"r.r.r.j M T P &.D n l * , 8 > C V 3 > @ X X X X X X X X X X X X X X X X X X X @ 3 w B w 3 t , & j n m K P >.H r.r.r.r.",
"r.r.r.j M U U =.D v j * 4 8 > V r 3 > @ X X X X X X X X X X X X X X X X X X + > 3 B C r < t 4 & j v M U U { M r.r.r.r.",
"r.r.r.j n P U } M v j * 5 8 > B w 3 > @ X X X X X X X X X X X X X X X X X X @ > 3 B C V r e 4 * j v M U U U M r.r.r.r.",
"r.r.r.j n K P P M v j * , , , V w 3 > @ X X X X X X X X X X X X X X X X X X + > 3 w B Z y 5 % & j v M P P T M r.r.r.r.",
"r.r.r.j n P L P M v j * 4 1 , V w 3 > @ X X X X X X X X X X X X X X X X X X o @ , 3 3 V y 5 1 * j v M P P T M r.r.r.r.",
"r.r.r.j n P P P m v j * 5 8 , V 3 > > @ X X X X X X X X X X X X X X X X X X o o @ > 3 V a t 5 * j v m P P T M r.r.r.r.",
"r.r.r.j n P { P v n j * 1 4 , V > O @ X X X X X X X X X X X X X X X X X X X X X .   > B a e 1 & j n n P T U M r.r.r.r.",
"r.r.r.j n P >.| n M l * 1 , > V >   . X X X X X X X X X X X X X X X X X X X X X @ @ > 6 r 5 1 * l M n P T U M r.r.r.r.",
"r.r.r.j n P >.' n M l * e 8 # r 3 O X X X X X X X X X X X X X X X X X X X X o + w y w 6 r i 8 * l M n K T U M r.r.r.r.",
"r.r.r.j n P >.' n M l * 5 8 @ w w > + X X X X X X X X X X X X X X X X X X X o @ 3 B V w r i 5 * l M n K T U M r.r.r.r.",
"r.r.r.j n K @./ v m l * 4 4 > C y 3 @ X X X X X X X X X X X X X X X X X X X o @ 3 B C y r e 4 * k m v P T U M r.r.r.r.",
"r.r.r.j n P J A x v j * 4 5 > C V > o o X X X X X X X X X X X X X X X X X X X o , B y < r t 4 * j v z A J T M r.r.r.r.",
"r.r.r.j m I H M v v j * 5 8 @ a V > o o X X X X X X X X X X X X X X X X X X X o > 3 % < r u 5 * j v v M H U M r.r.r.r.",
"r.r.r.j m J S m z m l * 5 8 + w B > o o X X X X X X X X X X X X X X X X X X o o > @ $ < 9 u 5 * l M z m S J m r.r.r.r.",
"r.r.j j v A m n l l j * 4 1 + w B 3 @ o X X X X X X X X X X X X X X X X X X o + > > % 3 r 8 4 * j l l n m A v j r.r.r.",
"r.r.j l z v z z l n n = 4 , @ 6 3 3 @ o X X X X X X X X X X X X X X X X X X o + > y y 3 r 7 4 = n m z z z v z z l r.r.",
"r.r.j m ` } } } J _ P 0 1 , + < $ @ @ o X X X X X X X X X X X X X X X X X X o o @ y r > 9 8 , 2 P } } } } } } ` n r.r.",
"r.r.j N <.2.5.2.<.<.O.0 % , + < $ O @ o X X X X X X X X X X X X X X X X X X o o @ $ @ > 9 7 % 0 ] ,.<.<.<.<.<.-.m r.r.",
"r.D D z M F J S A A m = # % + < $ @ % X X X X X X X X X X X X X X X X X X X o o @ > % < 9 1 # * l m A A A A A m l r.r.",
"r.H $.M M m m M M m n = % , o > $ @ % X X X X X X X X X X X X X X X X X X X X o + < < > 6 5 % * b M M M M M M M D r.r.",
"T ;.6.:.;.&.&.;.;.;...0 5 8 + % $ @ + X X X X X X X X X X X X X X X X X X X X X X $ > $ 9 i 4 0 | ;.;.;.;.;.;.;.6.#.T ",
"T U ^ o.+.&.>.>.>.>.+.0 5 8 + $ $ @ o X X X X X X X X X X X X X X X X X X X X X o @ @ $ 9 i 4 0 ) &.:.>.>.>.&.*.) U T ",
":.L v F J I T P K K G 0 5 8 + @ > $ + X X X X X X X X X X X X X X X X X X X X X X @ 6 < 6 i 5 = S J P I K K J J n L :.",
"6.P v F J K K J H S m = 5 8 @ < > $ + X X X X X X X X X X X X X X X X X X X X X o @ r < 6 i 5 = m S J J H H H H v P 6.",
"6.P v F F F F S m m v = , 1 @ 6 $ $ + X X X X X X X X X X X X X X X X X X X X X o @ 6 s p 8 , * x m m A H H H F v P 6.",
"6.I z v v v v z z z l * % , # 6 $ $ + X X X X X X X X X X X X X X X X X X X X X o @ > r r 5 % * l z z z v v v v z I 6.",
"9.2.` P P P P P P I J ; # , @ 6 $ + + X X X X X X X X X X X X X X X X X X X X X o + O 3 6 5 % - J P P P P P P P ` 2.9.",
"2.4.5.5.5.5.5.5.5.5.$.0 # , + @ o o o X X X X X X X X X X X X X X X X X X X X X o o o > 6 1 # 0 $.5.5.5.5.5.2.2.2.4.3.",
"n I } } } { } [ U L F - # # @ > o X X X X X X X X X X X X X X X X X X X X X X X X o o o % % # = D L U [ } } I L K L n ",
"l H I T T T U J H F S - + + o o X X . . . . . . . . . . . . . . . . . . . . . . . X X X o + + = S F H J U U U U J F l ",
"l F J P I I K H F m M : = - = - - - = = = = = = = = = = = = = = = = = = = = = = = - - - - - = ; M m F H J J P I J F l ",
"l F H S S S S S m m n h l z v v l l l l l l l l v l l l l l l l l l l l l l l l l l l l l l l h n m m S S S S S H F l ",
"l m m x x x x x x x z l m S P J A A A v v m M S J S A A A A A A A A A A A M v l m A A A A m n l z x x x x x x x m m l ",
"k z x v m m m m m m m M S P T U P P P M n A J P U P P P P P P P P P P P P H m m S J P P J S A m x v m m m m m m m m l ",
"l m S H P P P P P P P P I T T T T T T F M K } >.>.>.>.1.#.T %.1.>.>.>.>.} L S A H P T T I P P J S F H H H H H H H F l ",
"l A L >.5.5.5.5.@.Y >.5.5.2.5.5.5.%.T F J U { 6.9.9.9.9.6.2.6.9.9.9.9.9.5.;.J M J #.5.2.5.5.2.<.&.I I I I I I P J F l ",
"l H | 9.9.9.9.w.q.4.9.w.0.9.9.9.9.8.#.F J Y >.9.9.9.9.9.9.9.9.9.9.w.e.e.w.9.O.J X.4.9.9.9.w.0.0.w.q.q.7.5.5.5.#.U P z ",
"c P X.4.6.6.6.7.9.7.7.7.7.6.6.6.6.7.%.J P U { X.X. .*.6.6.6.6.6.6.7.9.9.9.7.=.K } X.X.X.5.9.q.7.9.9.9.9.7.7.7.5.2.=.n ",
"S J J L L L L L L L L L L L L L L L K J J J J J J J J L L L L L L L L L L L K J J J J J L L ^ ~ L L L L L L L ~ ~ L F "
};
