/* XPM */
static char *ZXpnaWYuY29tLWdpZi1tYWtlci0z_3[] = {
/* columns rows colors chars-per-pixel */
"59 75 256 2 ",
"   c #0B0F09",
".  c #0D110B",
"X  c #11140F",
"o  c #131512",
"O  c #161916",
"+  c #191A17",
"@  c #1B1D1A",
"#  c #221E1B",
"$  c #1E211D",
"%  c #22221E",
"&  c #28221F",
"*  c #1D1F21",
"=  c #1D2126",
"-  c #1E252C",
";  c #1F282E",
":  c #1F2A33",
">  c #222521",
",  c #2B2522",
"<  c #252A24",
"1  c #2B2B26",
"2  c #21272C",
"3  c #2A2D29",
"4  c #312A27",
"5  c #342D2A",
"6  c #283027",
"7  c #2C322A",
"8  c #2F392E",
"9  c #35312E",
"0  c #39312E",
"q  c #31392F",
"w  c #202B33",
"e  c #222F3A",
"r  c #24313A",
"t  c #333532",
"y  c #3C3431",
"u  c #343C33",
"i  c #383A37",
"p  c #3A3B3A",
"a  c #364235",
"s  c #384236",
"d  c #3D443C",
"f  c #3E4B3C",
"g  c #41413F",
"h  c #414D3E",
"j  c #243442",
"k  c #253847",
"l  c #26394B",
"z  c #263C51",
"x  c #283E50",
"c  c #2A4157",
"v  c #2B455C",
"b  c #2C4760",
"n  c #2E4A64",
"m  c #2F4E69",
"M  c #304F6A",
"N  c #2F506C",
"B  c #30516D",
"V  c #325674",
"C  c #335877",
"Z  c #345B7B",
"A  c #385E7E",
"S  c #434443",
"D  c #454C44",
"F  c #484B47",
"G  c #4C4C4B",
"H  c #445242",
"J  c #485846",
"K  c #4E514D",
"L  c #50504F",
"P  c #535353",
"I  c #555954",
"U  c #585957",
"Y  c #5B5C5B",
"T  c #605F5F",
"R  c #5D635C",
"E  c gray39",
"W  c #666965",
"Q  c #6C6C6C",
"!  c #6D786B",
"~  c gray45",
"^  c #787977",
"/  c #7C7C7C",
"(  c #365F80",
")  c #376285",
"_  c #3A6384",
"`  c #37658A",
"'  c #38668B",
"]  c #37688F",
"[  c #3A698E",
"{  c #3A6C93",
"}  c #3B6F98",
"|  c #3F7096",
" . c #3D729B",
".. c #3D76A1",
"X. c #3E79A6",
"o. c #3E7AA8",
"O. c #406E8F",
"+. c #427093",
"@. c #427295",
"#. c #447397",
"$. c #447398",
"%. c #41749B",
"&. c #42759D",
"*. c #42779E",
"=. c #41759D",
"-. c #4378A1",
";. c #447BA4",
":. c #487EA5",
">. c #427FAD",
",. c #427DAA",
"<. c #487FA8",
"1. c #4380AE",
"2. c #4480AE",
"3. c #4D84AB",
"4. c #4B85AF",
"5. c #4982AC",
"6. c #4583B1",
"7. c #4683B0",
"8. c #4785B3",
"9. c #4A86B2",
"0. c #4B88B4",
"q. c #4D89B6",
"w. c #4C89B4",
"e. c #4E8BB8",
"r. c #4D8CBA",
"t. c #4D8CBA",
"y. c #508CB7",
"u. c #508FBB",
"i. c #508DB9",
"p. c #4F90BE",
"a. c #5291BE",
"s. c #5394C2",
"d. c #5798C6",
"f. c #599AC7",
"g. c #579AC8",
"h. c #5B9DCB",
"j. c #5DA1CE",
"k. c #61A1CA",
"l. c #64A6D1",
"z. c #68A9D2",
"x. c #848484",
"c. c gray54",
"v. c #939393",
"b. c #9B9B9B",
"n. c gray64",
"m. c #ACACAC",
"M. c #B0B0AF",
"N. c #B2B2B2",
"B. c #BCBCBC",
"V. c gray76",
"C. c gray80",
"Z. c None",
"A. c black",
"S. c black",
"D. c black",
"F. c black",
"G. c black",
"H. c black",
"J. c black",
"K. c black",
"L. c black",
"P. c black",
"I. c black",
"U. c black",
"Y. c black",
"T. c black",
"R. c black",
"E. c black",
"W. c black",
"Q. c black",
"!. c black",
"~. c black",
"^. c black",
"/. c black",
"(. c black",
"). c black",
"_. c black",
"`. c black",
"'. c black",
"]. c black",
"[. c black",
"{. c black",
"}. c black",
"|. c black",
" X c black",
".X c black",
"XX c black",
"oX c black",
"OX c black",
"+X c black",
"@X c black",
"#X c black",
"$X c black",
"%X c black",
"&X c black",
"*X c black",
"=X c black",
"-X c black",
";X c black",
":X c black",
">X c black",
",X c black",
"<X c black",
"1X c black",
"2X c black",
"3X c black",
"4X c black",
"5X c black",
"6X c black",
"7X c black",
"8X c black",
"9X c black",
"0X c black",
"qX c black",
"wX c black",
"eX c black",
"rX c black",
"tX c black",
"yX c black",
"uX c black",
"iX c black",
"pX c black",
"aX c black",
"sX c black",
"dX c black",
"fX c black",
"gX c black",
"hX c black",
"jX c black",
"kX c black",
"lX c black",
"zX c black",
"xX c black",
"cX c black",
"vX c black",
"bX c black",
"nX c black",
"mX c black",
"MX c black",
"NX c black",
"BX c black",
"VX c black",
"CX c black",
"ZX c black",
"AX c black",
"SX c black",
"DX c black",
"FX c black",
"GX c black",
"HX c black",
"JX c black",
"KX c black",
"LX c black",
"PX c black",
"IX c black",
"UX c black",
/* pixels */
"Z.Z.Z.Z.Z.Z.Z.Z.Z.Z.Z.Z.Z.Z.Z.Z.Z.Z.Z.Z.Z.Z.Z.Z.Z.Z.Z.Z.Z.Z.Z.Z.Z.Z.Z.Z.Z.Z.Z.Z.Z.Z.Z.Z.Z.Z.Z.Z.Z.Z.Z.Z.Z.Z.Z.Z.Z.Z.Z.",
"Z.Z.Z.Z.Z.Z.Z.Z.Z.Z.Z.Z.Z.Z.Z.Z.Z.Z.Z.Z.Z.Z.Z.Z.Z.Z.Z.n n n n n Z.Z.Z.Z.Z.Z.Z.Z.Z.Z.Z.Z.Z.Z.Z.Z.Z.Z.Z.Z.Z.Z.Z.Z.Z.Z.Z.",
"Z.Z.Z.Z.Z.Z.Z.Z.Z.Z.Z.Z.Z.Z.Z.Z.Z.Z.Z.Z.Z.Z.Z.v b n C { C Z { { V n v v Z.Z.Z.Z.Z.Z.Z.Z.Z.Z.Z.Z.Z.Z.Z.Z.Z.Z.Z.Z.Z.Z.Z.",
"Z.Z.Z.Z.Z.Z.Z.Z.Z.Z.Z.Z.Z.Z.Z.Z.Z.Z.Z.Z.Z.m m n V {  .o.) ` >.o. .{ B m m m Z.Z.Z.Z.Z.Z.Z.Z.Z.Z.Z.Z.Z.Z.Z.Z.Z.Z.Z.Z.Z.",
"Z.Z.Z.Z.Z.Z.Z.Z.Z.Z.Z.Z.Z.Z.Z.Z.Z.Z.Z.v m {  . ...o.1.1.) $.t.1.1.o... . .{ m v Z.Z.Z.Z.Z.Z.Z.Z.Z.Z.Z.Z.Z.Z.Z.Z.Z.Z.Z.",
"Z.Z.Z.Z.Z.Z.Z.Z.Z.Z.Z.Z.Z.Z.Z.Z.Z.Z.v m { o.1.7.7.8.i.s.@.+.a.i.i.8.7.7.1.o.' m v Z.Z.Z.Z.Z.Z.Z.Z.Z.Z.Z.Z.Z.Z.Z.Z.Z.Z.",
"Z.Z.Z.Z.Z.Z.Z.Z.Z.Z.Z.Z.Z.Z.Z.Z.v m m ' 1.8.t.i.i.4.{ ;.[ V [ { } 9.i.i.e.8.1.) B B v Z.Z.Z.Z.Z.Z.Z.Z.Z.Z.Z.Z.Z.Z.Z.Z.",
"Z.Z.Z.Z.Z.Z.Z.Z.Z.Z.Z.Z.Z.Z.v m V ] Z | e.w.} { { [ ) ` C m C ) ) [ { { | q.e.[ +.%.V n v Z.Z.Z.Z.Z.Z.Z.Z.Z.Z.Z.Z.Z.Z.",
"Z.Z.Z.Z.Z.Z.Z.Z.Z.Z.Z.Z.Z.m C ' o.6.=.#.} [ [ ' ) ( V V Z B B V C ( ) ' [ [ | @.3.0.o.) C m Z.Z.Z.Z.Z.Z.Z.Z.Z.Z.Z.Z.Z.",
"Z.Z.Z.Z.Z.Z.Z.Z.Z.Z.Z.v n ` o.o.6.0.4.` V ( ) ( C V V V C M B C V V C ( ) ( V [ 9.0.1.o.o.) n v Z.Z.Z.Z.Z.Z.Z.Z.Z.Z.Z.",
"Z.Z.Z.Z.Z.Z.Z.Z.Z.Z.v n ` o.1.t.0.=.' ) V m V V V V V m m n n M V V V V V m V ) ' =.q.t.>.o.) n v Z.Z.Z.Z.Z.Z.Z.Z.Z.Z.",
"Z.Z.Z.Z.Z.Z.Z.Z.Z.v n ` o.1.q.<.%.) Z C V B M V m m n l : : w x m m m V m B V C Z ) =.<.q.>.o.) n v Z.Z.Z.Z.Z.Z.Z.Z.Z.",
"Z.Z.Z.Z.Z.Z.Z.Z.Z.n ` o.>.q.=.' ) C V M n n v v : ; ; = + + + = ; ; w v v n n B V C ` [ -.q.>.o.) n Z.Z.Z.Z.Z.Z.Z.Z.Z.",
"Z.Z.Z.Z.Z.Z.Z.Z.n ` o.>.q.=.` Z C V m e = = - = # # # # , 4 , # # # # = - = = j B V C Z ` -.e.>.X.) b Z.Z.Z.Z.Z.Z.Z.Z.",
"Z.Z.Z.Z.Z.Z.Z.v m  .>.q.%.' ) V V m e # , & , & 1 4 5 4 5 5 5 4 5 4 1 & , & , @ j m V C ) ' -.e.>.{ m v Z.Z.Z.Z.Z.Z.Z.",
"Z.Z.Z.Z.Z.Z.v v @.7.q.%.` C C M j = % , 5 5 y 5 , 0 y y y y y y y 5 , 5 y 5 5 , > = l B C C ` =.0.2.[ v Z.Z.Z.Z.Z.Z.Z.",
"Z.Z.Z.Z.Z.Z.m m B ;.%.( ) C M j > , 4 5 0 0 y 5 , 5 # + # @ + # # 5 , 0 y 0 0 5 4 , > l B C ) ) } ' B m m Z.Z.Z.Z.Z.Z.",
"Z.Z.Z.Z.Z.B ' ..) B ) ` C M j > 0 5 , 5 0 5 & @ + % 3 < u 3 % 3 3 # + # > 0 0 5 , 5 5 > k B C ` ) M ` ..` m Z.Z.Z.Z.Z.",
"Z.Z.Z.Z.Z.( o.1.9.A Z ) V j @ , 0 5 & + + % u u 8 7 3 6 a < $ < < 8 q u u % @ + & 5 5 , @ l V ) C ) 9.1.o.C Z.Z.Z.Z.Z.",
"Z.Z.Z.Z.B ` X.r.;.) B m l @ , 5 0 # o $ t F K d 6 $ o o + O o o o 6 u d I F 7 + o , 0 5 , * x M B ) <.t.o.` N Z.Z.Z.Z.",
"Z.Z.Z.Z.Z  .;.q.| C V c @ , 5 0 & + % u R ~ I 8 O O O + @ O o O O o O u W ^ F 3 % + , 0 5 , * v V Z =.q.1.o.C Z.Z.Z.Z.",
"Z.Z.Z.Z.C { 9.;.' C m e @ 5 0 & + 1 K W ~ E t O @ $ $ $ $ + O @ $ @ o + S ~ ~ R D < + , 0 5 @ j M Z ` :.e.o.C Z.Z.Z.Z.",
"Z.w.n v V ) 5.;.) C v @ # 5 4 + 3 u W / Q F @ @ $ $ $ $ % @ O $ > < $ o > Y ~ x.R u < + 5 5 @ = n C ( :.e.o.V v M a.Z.",
"Z.s.&.Z B C :.;.Z V v * # , , % u S W W d 1 $ % < < > $ % @ O $ > > $ @ + 7 G ~ E d 8 + , , # = n V Z 5.e.{ B ( ;.d.Z.",
"Z.[ 5.4.Z B :.;.) C v = 5 5 % 6 u F Y i O o @ $ > > % $ % @ O $ $ $ $ $ o o @ S Y D 8 @ @ 5 5 = b C ) 5.t.Z ) 9.;.' Z.",
"Z.m { 4.@.m :.;.( V v = 0 0 $ q u 7 > + @ < @ $ > < < < < @ @ < < > $ @ @ 3 o + 1 u u 3 @ y 5 = n C ) 4.;.B *.<.' n Z.",
"Z.B { [ [ V $.=.C V v * 4 1 > u 6 @ @ 1 P S @ @ % > > > > @ + % > % $ + > I G o O 7 u u $ 4 4 = b V C ;.O.V [ [ { m Z.",
"Z.n m B B N V V B N v * 5 5 > u 3 $ @ t Q Q t @ < < < $ > @ + $ < < > @ S 3.Y O + 6 s u % 0 4 = v n m V B B V V V n Z.",
"Z.Z.m ) {  .{ { { { n * 5 5 > s 8 $ O S Q U > @ o @ < < < @ @ < < + o @ 3 ~ Q i O > H f % 0 4 = b V C ) [  . . .{ Z.Z.",
"Z.Z.m ) ) Z V V V V v * 1 , > D f $ O p P 7 F Y @ . . O % + @ + . . $ Y 3 t T t + $ f d $ 1 , = v B V V V Z ) ) B Z.Z.",
"Z.Z.b n n m n n n n c @ & , > H f @ o @ 7 p / / S @ .     X X . X @ F x.Q > 9 o o $ u s $ , & = v n n n n m n n b Z.Z.",
"Z.Z.Z.Z.m V V V n B v @ & , > f a O 3 < O p ^ b.v.Q K t t 1 O 3 G Q c.v.Y %   , 1 @ H f $ , # = n B m V V C m Z.Z.Z.Z.",
"Z.Z.Z.Z.B ( C V m B v * , , > u 7 O E E < S ~ b.B.V.M.b.v.Y i x.n.B.m.c.I 3 3 / I O H f $ 1 , = n B m C ( ) B Z.Z.Z.Z.",
"Z.Z.Z.Z.V [ ) ( m B v * , & > u 6 O P x.P 9 E c.m.V.C.C.B.Y I m.B.B.b.^ Y 3 v.m.S O H f @ , , = n B B ` [ =.C Z.Z.Z.Z.",
"Z.Z.Z.Z.C { [ ;.C V v * 5 1 > f u @ 1 ~ c.~ / c.v.m.C.C.N.Y I m.B.n.c.x.c./ N.~ > @ H f $ 4 4 = n V V [ { t._ Z.Z.Z.Z.",
"Z.Z.Z.Z.Z X.{ w._ Z v = 0 0 > H f $ O S x.b.c.c.c.v.N.B.M.Y G v.b.v.c.c.v.b.~ 1 o $ u s % y 5 = m Z V [  .r._ Z.Z.Z.Z.",
"Z.Z.Z.Z.Z o. .w.) V v @ , 0 > H f $ $ < Y x.c.c.c.c.c.v.b.P S x.c.x.c.x.c.x.S o $ < q 8 % y , = n V C }  .r.` Z.Z.Z.Z.",
"Z.Z.Z.Z.Z o.o.t.) B v * 4 0 > D W S $ + 7 W c.v.v.c.x.x.c.P S / x.c.v.v.c.W @ O $ G K 7 1 y 1 = n M C o.o.>.C Z.Z.Z.Z.",
"Z.Z.Z.Z.V  .o.,.C B v * 5 0 > h ! K @ O 3 Q v.b.b.v.c.c.c.P S / c.v.n.b.v.I o O $ Y I 6 > y 4 = n B C o.o.o.C Z.Z.Z.Z.",
"Z.Z.Z.Z.V  . . .V B v * , , > D R Q u @ F Q v.b.m.V.B.n.v.P S c.N.V.V.m.c.Y i X F Q F 7 @ 1 & = n B C  . .o.C Z.Z.Z.Z.",
"Z.Z.Z.Z.V  . . .V B v * 4 1 > H I I 7 $ G Y Q x.c.v.m.B.n.P G n.B.N.b.x.E Y d   u Y d 7 @ 4 1 = n B Z  .| o.C Z.Z.Z.Z.",
"Z.Z.Z.Z.V  . . .V B v * 5 0 > H s i 7 1 Y E G t 3 t Y c.v.G F c.E t 3 i P Q P o t d 8 8 @ y 4 = n B C  . .o.C Z.Z.Z.Z.",
"Z.Z.Z.Z.V  .1.| B V v * 1 4 > H a 7 < S ~ / G > .   O S ~ S i d O . . 1 E c.Q i 3 3 8 s $ 5 , = n V V  .o.o.C Z.Z.Z.Z.",
"Z.Z.Z.Z.V  .r.;.B ( b * 1 , > f q $ @ S ^ v.x.g . . < I Q g 9 G <   . K n.v.Q i @ $ f f $ , , = m Z V  .o.o.C Z.Z.Z.Z.",
"Z.Z.Z.Z.V  .r.;.B Z b = y 0 > u < $ @ S ~ c.b.x.P P E ^ x.F p ~ E K E n.B.x.Q i @ $ f f % y 0 = m Z V  .o.o.C Z.Z.Z.Z.",
"Z.Z.Z.Z.V  .r.;.B Z b * 5 0 > d 8 $ < u T ~ x.x.c.x./ v.n.P G ~ / c.b.n.v.~ P 1 < $ f f % y 5 = m Z V  .o.o.C Z.Z.Z.Z.",
"Z.Z.Z.Z.V  .7. .B V v * 5 4 > H a $ 6 3 G W Q Q Q Q x.m.v.i G c.^ Q Q Q Q E p O 6 $ f f $ 5 4 = n V V  .o.o.C Z.Z.Z.Z.",
"Z.Z.Z.Z.V | { ( m B v * 5 5 > H a $ 6 $ > i Y E W ~ x.^ L 1 1 Q / Q E E P 1 @ + 6 $ u s % 5 4 = b B M )  .o.C Z.Z.Z.Z.",
"Z.Z.Z.Z.C X.` Z B B v * 5 0 > H a $ 6 < $ O 7 S F ~ ^ I t 1 o I / Q S d % o $ < 6 $ 3 u % y 4 = n B B Z { o.V Z.Z.Z.Z.",
"Z.Z.Z.v V { ) C m C v * 5 0 $ u 6 $ < < 1 $ o @ u ~ / Q G 3 3 Q x.Q t O X < 1 > > @ 3 u % y 4 = n V m C ) { V Z.Z.Z.Z.",
"Z.Z.Z.v V ( V V n m v * 4 1 @ 8 < $ 3 < 1 < X O d Q ~ ~ ~ p i Q ~ Q i X O 6 3 3 3 @ 3 u $ 4 4 = v n n V V ( B v Z.Z.Z.",
"Z.Z.Z.n m B m m n V B = 4 , @ 8 < $ 6 6 6 3 > u Q Q ~ ~ ^ g i Q ~ Q Q t 1 6 6 6 3 $ 7 u $ 1 4 ; V V m m m B m m n Z.Z.",
"Z.Z.Z.C ,.,.,.,.{ -. .- 1 , @ u 3 + < 3 3 1 < 7 G I ^ Q ~ S i E ^ K G 9 3 3 3 3 < + f f $ 1 , e ;.,.,.,.,.,.,.;.B Z.Z.",
"Z.Z.Z.) i.a.s.a.i.i.5.- & , @ f a O % > > < > O O d Q Q Q S i W Q u o O 1 > > > > @ s d $ , # r 3.y.i.i.i.i.i.w.V Z.Z.",
"Z.Z.[ M Z ` { ) ( ( V = # , @ s u O < 1 3 6 3 % O 7 Q x.~ g t ^ W < O < 6 6 3 < < @ 6 u $ , # - B V ( ( ( ( ( V n Z.Z.",
"Z._ 9.Z C V V C C C B = , , % u < + $ $ < 1 3 < < K x.~ ^ S i Q x.S > 1 3 < < $ $ O 6 u $ , & ; V C C C C C C C ` Z.Z.",
"o.0.d.t.t.9.9.t.t.t.;.2 5 0 > d 7 O $ $ $ % > $ < G Y i Y u < 3 Y F > % > $ $ $ $ O 3 u % y 4 r 9.t.t.t.t.t.t.t.d.8.o.",
"o...$.5.4.9.t.t.t.t.<.2 5 0 > H a O $ @ @ $ $ $ > t t < s 6 @ @ i t $ $ $ O @ $ $ O u s % y 4 e ;.9.e.t.t.t.9.0.&.o.o.",
"e.} B ` { ..o. .} } ` - 5 0 > H a O @ 8 u < < < > @ + 6 h 6 > < O $ < < 1 s 7 O @ O f f % y 4 w ) {  ...} } { { B  .t.",
"d.| B ' { } } { ' ) V = 5 0 > H a o 8 f q < > > > $ @ 6 h 6 % > @ % > > < s h 7 O o f f % y 4 ; C ) { { [ [ [ ` B ..g.",
"d. .B ` ` ` ` ( C V M = , 1 $ u 7 7 H u > $ $ $ $ $ @ 6 h 6 % > @ $ $ $ $ < s h H 6 f f $ 4 & - B C C ) ' ' ' ` B ..d.",
"d. .m B B B B m m m b * & , @ 8 f H s 1 $ $ $ > 8 8 $ 8 h 6 % < $ u 6 % $ % 6 s f u s q @ , # = n m m m B B B B N ;.g.",
"h.u... . . . . . ...{ = & , @ 8 s s u $ + > < < < u H H h 6 > f H 8 @ % < $ $ u u u u 7 @ , # w | .. . . . . . .;.s.h.",
"a.d.s.s.s.s.s.s.s.s.4.- # , @ 6 8 u 6 @ $ $ $ $ $ 6 s s h 6 % u s 1 $ $ $ $ $ 6 u u u 7 @ , # r q.s.s.s.s.s.a.a.a.d.a.",
"V ..,.,.,.,.,.,.o.| ) = # # @ 6 6 q f f H J J J H s 6 u f 6 @ 3 q f J H s J J f u 8 6 3 @ # # : [ | o.,.>.>. .| } | B ",
"m { ..o.o.o.X.{ [ ' ( = + + + < < < < < < 1 1 1 < < < 3 q < + > < < 3 3 3 1 1 < < < < > + + + : ) ` [ { o.X.o.o.{ ` n ",
"m ` { ......{ [ ` Z C ; ; ; ; ; - - ; ; ; ; ; ; ; ; ; ; ; ; - ; ; ; ; w w ; ; ; ; ; ; ; ; ; = : C C ` [ } { | ..{ ) n ",
"m ' ' ) ) ) ) ) C V V l n m V B m m m n n m m m B m m m m m m m m m m m m m n n m m m m m m b z V V C ) ) ) ) ) ' ` n ",
"n V V M M M M M M M m n V )  .{ ( ( ( M B C Z ) { ) ( ( ( ( ( ( ( ( ( ( ( Z B m C ( ( ( ( C V n m M M M M M M M V V n ",
"n m m B V V V V V V V C )  .o.o. . . .C V ( }  .X. . . . . . . . . . . .} ' C V ` {  .| { ) ( V M B V C C C C C C V n ",
"n C ) [  . . . . . . . ...o.o.o.o.o.o.) (  .,.t.r.r.r.p.8.o.8.p.r.r.r.t.o. .) ( [  .o.o... . .[ ) ` [ [ [ [ [ [ [ ` n ",
"m ) %.t.s.s.s.s.7.,.t.s.s.a.s.s.a.9.o.) { o.>.g.h.h.h.h.d.a.d.h.h.h.h.h.s.0.{ ( { 9.s.a.s.s.a.i.9............. .{ ` n ",
"m { 2.h.h.h.h.l.k.d.h.l.h.h.h.h.h.d.8.`  .o.r.h.h.h.h.h.h.h.h.h.h.l.z.z.l.h.4.{ 8.d.h.h.h.l.j.j.l.k.k.g.s.s.s.7.o.| m ",
"B  .7.d.d.d.d.g.h.g.g.g.g.d.d.d.d.g.9.{  .o.>.2.2.1.0.d.d.d.d.d.d.f.h.h.g.g.9.} ,.2.2.2.s.h.k.g.h.h.h.h.g.g.d.s.a.w.B ",
"` { { | | | | | | | | | | | | | | | } { { { { { { { { | | | | | | | | | | | } { { { { { | %.%.%.| | | | | | | %.%.| ` "
};
