/* XPM */
static char *ZXpnaWYuY29tLWdpZi1tYWtlci0z_29[] = {
/* columns rows colors chars-per-pixel */
"59 75 256 2 ",
"   c #0E120D",
".  c #14120F",
"X  c #151311",
"o  c #191614",
"O  c #161915",
"+  c #1B1916",
"@  c #1C1C1A",
"#  c #211E1B",
"$  c #1E221D",
"%  c #23221F",
"&  c #28231F",
"*  c #1E1F20",
"=  c #1E2124",
"-  c #1D242B",
";  c #1E2831",
":  c #232421",
">  c #2B2522",
",  c #252924",
"<  c #2D2925",
"1  c #2C2C2B",
"2  c #312A27",
"3  c #332D29",
"4  c #2D332C",
"5  c #2F382D",
"6  c #31332E",
"7  c #39312E",
"8  c #31382F",
"9  c #202B36",
"0  c #212E39",
"q  c #22313C",
"w  c #333433",
"e  c #3D3532",
"r  c #353B34",
"t  c #393937",
"y  c #3B3C3B",
"u  c #403835",
"i  c #364135",
"p  c #384336",
"a  c #3C433B",
"s  c #3E4A3C",
"d  c #41503F",
"f  c #233543",
"g  c #273C4E",
"h  c #273D50",
"j  c #283E52",
"k  c #2A4153",
"l  c #2C465E",
"z  c #2C4760",
"x  c #2E4B64",
"c  c #2F4E69",
"v  c #304D66",
"b  c #304F6A",
"n  c #2F506C",
"m  c #30516E",
"M  c #325573",
"N  c #345877",
"B  c #345B7B",
"V  c #395E7C",
"C  c #444443",
"Z  c #474847",
"A  c #484846",
"S  c #4C4C4B",
"D  c #445342",
"F  c #485845",
"G  c #50514F",
"H  c #535453",
"J  c #565856",
"K  c #5B5B5B",
"L  c #636463",
"P  c #365F80",
"I  c #366184",
"U  c #3A6384",
"Y  c #376589",
"T  c #38668B",
"R  c #3A698E",
"E  c #3A6C93",
"W  c #3B6F98",
"Q  c #3F7094",
"!  c #3D729B",
"~  c #3D75A2",
"^  c #3E79A6",
"/  c #3E7AA9",
"(  c #406C8F",
")  c #427296",
"_  c #41749A",
"`  c #45799F",
"'  c #4176A0",
"]  c #467AA0",
"[  c #437AA4",
"{  c #477EA7",
"}  c #457CA5",
"|  c #427AA5",
" . c #487CA2",
".. c #497EA5",
"X. c #407DAB",
"o. c #477EA8",
"O. c #427FAD",
"+. c #4A80A7",
"@. c #4680AB",
"#. c #4380AE",
"$. c #4480AD",
"%. c #4A82AC",
"&. c #4B85AF",
"*. c #4982AB",
"=. c #4482B0",
"-. c #4583B1",
";. c #4684B2",
":. c #4B87B3",
">. c #4C86B1",
",. c #4C87B3",
"<. c #4987B5",
"1. c #4A88B5",
"2. c #4C88B4",
"3. c #4B8AB8",
"4. c #4D8BB8",
"5. c #4F8CB9",
"6. c #4D8DBB",
"7. c #518BB5",
"8. c #508CB6",
"9. c #508DB9",
"0. c #518FBC",
"q. c #4F90BE",
"w. c #5291BE",
"e. c #5191BE",
"r. c #5595C3",
"t. c #5394C2",
"y. c #5798C6",
"u. c #5999C6",
"i. c #579AC8",
"p. c #5B9DCB",
"a. c #609FC9",
"s. c #5DA0CD",
"d. c #62A3CD",
"f. c #64A6D0",
"g. c #67A8D1",
"h. c #68A9D2",
"j. c None",
"k. c black",
"l. c black",
"z. c black",
"x. c black",
"c. c black",
"v. c black",
"b. c black",
"n. c black",
"m. c black",
"M. c black",
"N. c black",
"B. c black",
"V. c black",
"C. c black",
"Z. c black",
"A. c black",
"S. c black",
"D. c black",
"F. c black",
"G. c black",
"H. c black",
"J. c black",
"K. c black",
"L. c black",
"P. c black",
"I. c black",
"U. c black",
"Y. c black",
"T. c black",
"R. c black",
"E. c black",
"W. c black",
"Q. c black",
"!. c black",
"~. c black",
"^. c black",
"/. c black",
"(. c black",
"). c black",
"_. c black",
"`. c black",
"'. c black",
"]. c black",
"[. c black",
"{. c black",
"}. c black",
"|. c black",
" X c black",
".X c black",
"XX c black",
"oX c black",
"OX c black",
"+X c black",
"@X c black",
"#X c black",
"$X c black",
"%X c black",
"&X c black",
"*X c black",
"=X c black",
"-X c black",
";X c black",
":X c black",
">X c black",
",X c black",
"<X c black",
"1X c black",
"2X c black",
"3X c black",
"4X c black",
"5X c black",
"6X c black",
"7X c black",
"8X c black",
"9X c black",
"0X c black",
"qX c black",
"wX c black",
"eX c black",
"rX c black",
"tX c black",
"yX c black",
"uX c black",
"iX c black",
"pX c black",
"aX c black",
"sX c black",
"dX c black",
"fX c black",
"gX c black",
"hX c black",
"jX c black",
"kX c black",
"lX c black",
"zX c black",
"xX c black",
"cX c black",
"vX c black",
"bX c black",
"nX c black",
"mX c black",
"MX c black",
"NX c black",
"BX c black",
"VX c black",
"CX c black",
"ZX c black",
"AX c black",
"SX c black",
"DX c black",
"FX c black",
"GX c black",
"HX c black",
"JX c black",
"KX c black",
"LX c black",
"PX c black",
"IX c black",
"UX c black",
/* pixels */
"j.j.j.j.j.j.j.j.j.j.j.j.j.j.j.j.j.j.j.j.j.j.j.j.j.j.j.j.j.j.j.j.j.j.j.j.j.j.j.j.j.j.j.j.j.j.j.j.j.j.j.j.j.j.j.j.j.j.j.",
"j.j.j.j.j.j.j.j.j.j.j.j.j.j.j.j.j.j.j.j.j.j.j.j.j.j.x x x x x x j.j.j.j.j.j.j.j.j.j.j.j.j.j.j.j.j.j.j.j.j.j.j.j.j.j.j.",
"j.j.j.j.j.j.j.j.j.j.j.j.j.j.j.j.j.j.j.j.j.j.j.l x x P E M I E E m x l l j.j.j.j.j.j.j.j.j.j.j.j.j.j.j.j.j.j.j.j.j.j.j.",
"j.j.j.j.j.j.j.j.j.j.j.j.j.j.j.j.j.j.j.j.j.c c x B ! ~ / B E / ^ ! R c x c x j.j.j.j.j.j.j.j.j.j.j.j.j.j.j.j.j.j.j.j.j.",
"j.j.j.j.j.j.j.j.j.j.j.j.j.j.j.j.j.j.j.l M ! ! ! ~ X.#.O.B +.<.#.#.^ ! ! ! Y x l j.j.j.j.j.j.j.j.j.j.j.j.j.j.j.j.j.j.j.",
"j.j.j.j.j.j.j.j.j.j.j.j.j.j.j.j.j.j.l M ! / -.-.-.1.0.r.U  .e.0.6.-.-.-.O.^ I x l j.j.j.j.j.j.j.j.j.j.j.j.j.j.j.j.j.j.",
"j.j.j.j.j.j.j.j.j.j.j.j.j.j.j.j.l c c E -.<.6.9.9.O.E *.U B E E Q 2.9.9.2.;.X.B M v l j.j.j.j.j.j.j.j.j.j.j.j.j.j.j.j.",
"j.j.j.j.j.j.j.j.j.j.j.j.j.j.l c N E M [ 6.&.E E E T I I N x B I Y E E R ' 2.1.P  .R M x l j.j.j.j.j.j.j.j.j.j.j.j.j.j.",
"j.j.j.j.j.j.j.j.j.j.j.j.l M B E / -.) _ E R R Y I B M M B b M M B I I R R R _ ) 7.;.~ P B x j.j.j.j.j.j.j.j.j.j.j.j.j.",
"j.j.j.j.j.j.j.j.j.j.j.l c E / / ;.,.%.P B I I B M M M M M x M M M M B I I B M _ ,.1.X./ ~ B l l j.j.j.j.j.j.j.j.j.j.j.",
"j.j.j.j.j.j.j.j.j.j.l c E / -.6.:.W T P m m M M M M m c c x x b M M M M M c N Y R { 4.3.X.~ B l l j.j.j.j.j.j.j.j.j.j.",
"j.j.j.j.j.j.j.j.j.l c E / -.:.{ W I B N M m m M c c x f ; ; 0 k x x m M c m M B P Y ] *.1.X.~ B l l j.j.j.j.j.j.j.j.j.",
"j.j.j.j.j.j.j.j.j.c E / -.:.Q T I N M x x x l j ; - ; = @ @ @ - - - q x z x x m M B Y R { 1.X.~ B x j.j.j.j.j.j.j.j.j.",
"j.j.j.j.j.j.j.j.c E / -.2.Q I B B M x 9 - - - = # # # # > < & # # # # - - - - g m M B B R { 1./ ~ B l j.j.j.j.j.j.j.j.",
"j.j.j.j.j.j.j.l m ~ -.2.W T P M M x 9 # > & > & 2 2 3 3 3 3 3 3 2 2 > & > & & * g m M B Y R { 1.O.Y x l j.j.j.j.j.j.j.",
"j.j.j.j.j.j.l x ] ;.2.W I B N x 0 = % < 3 3 e 2 > 7 e e e e e e e 3 > 7 e 3 3 > = - h M B B R { <.@.U l j.j.j.j.j.j.j.",
"j.j.j.j.j.j.c c N +.E P I M x 0 & > 2 3 7 7 e 3 > < o + + + + o # 3 > e e 7 7 3 < > : h M B I I Q I b c x j.j.j.j.j.j.",
"j.j.j.j.j.m E ! B m Y I N x 0 : 7 2 < 7 e 3 o o o X X X X X X X X o X o & 7 7 3 > 7 3 = h M B R B m R ~ P x j.j.j.j.j.",
"j.j.j.j.l T / -.*.N P I c 0 # < 7 < # o X X X X X X X X X X X X X X X X X o o + > 3 3 & = h B I M R 1.O.~ M j.j.j.j.j.",
"j.j.j.j.M E / e.Q P b x f # < 7 3 # X o X X X X X X X X X X X X X X X X X X o o X < 7 3 & = l b M Y ,.<.^ P c j.j.j.j.",
"j.j.j.l Y ! O.:.E B M g @ < 7 3 < @ + @ + X X X X X X X X X X X X X X X X + @ + X X < 7 3 & - x M P } 1.O.~ m j.j.j.j.",
"j.j.j.l I E 9._ Y N x ; # 7 3 3 A 1 @ @ X X X X X X X X X X X X X X X X X X + @ @ t 1 < 7 < * g m I Y ,.<.~ m j.j.j.j.",
"j...l l B Y 2._ P M g @ & 7 > t J w % @ X X X X X X X X X X X X X X X X X X o @ t L a @ 3 2 + ; c B I ,.<.~ m l N y.j.",
"p.w.) M M B >._ B M g @ & < & t J r : @ o X X X X X X X X X X X X X X X X X + % w K S # < > # ; c M I 2.;.T c Y +.u.j.",
"U R :.{ M M >._ I M g # 7 < : C y : $ $ o X X X X X X X X X X X X X X X X + @ $ @ w S , & 7 < ; x B Y 2.-.M R 2.` U j.",
"l M W :.Y m >._ B M g # e 2 : 4 w , $ $ O X X X X X X X X X X X X X X X X + $ $ 1 $ 1 4 % e < ; c B I 2.) m *.[ I z j.",
"l M E E Y m ..W M M g @ 3 > + @ y 1 : : o X X X X X X X X X X X X X X X X + % @ w : $ 5 @ 3 > ; x M P %.U B E R T x j.",
"l x c m m c N M m c g @ 7 < + @ y 1 : , o X X X X X X X X X X X X X X X X @ , @ H w : 8 : e > ; x x c M m m m M M x j.",
"j.l M Y E ! E E W R j @ 7 < @ @ w 4 : : O X X X X X X X X X X X X X X X X @ $ , J H 8 d : e > ; x M B I E ! ! ! E j.j.",
"j.l m I I B M M M M g @ 2 & @ @ O t : . @ X X X X X X X X X X X X X X . o +   S t w 5 s % 2 > ; x M M M M P I P c j.j.",
"j.j.x x x x x x x x g @ > & @ @   : $ O @ + X X . X X X X X X X X X X X + @ O : O O % r % < # ; x x x x x x x x l j.j.",
"j.j.j.l m M M M x M h @ > & @ w 4 1 1 1 , : @ + X X X X X X X X X X X + @ % , C w O $ D % < # ; c c b M M B x j.j.j.j.",
"j.j.j.l M P B M x m g @ < & + L J y w 1 w 1 # @ + o X X X X X X X X + @ : < w L K r , D : 2 & ; x b b B P I c j.j.j.j.",
"j.j.j.l B R I B x m g @ > # + H S S y 1 1 1 % @ + + o X X X X X X X @ # : 1 1 H G J 5 d % > & ; c c M Y E _ m j.j.j.j.",
"j.j.j.l I E E ] M B j @ 3 > @ 1 Z K C w 1 < % # + + X X X X X X X X @ # : 3 C J K K 4 d : 3 < ; m M B R Q 9.N j.j.j.j.",
"j.j.j.l Y ~ W 7.B P j % e 2 @ @ t J y w 6 < @ @ @ o X X X X X X X X + @ : w S K H t , r : u 2 ; M M B R ~ 9.N j.j.j.j.",
"j.j.j.l Y / Q 2.N M j @ 3 2 @ : a H t w 6 < @ + + o X X X X X X X o + # < w S J H : $ 5 : e & ; m m I E ~ 6.N j.j.j.j.",
"j.j.j.l Y / ^ 5.N m g @ 7 2 y K H H w w 6 < @ @ @ o X X X X X X X o + : w w S J H , $ 8 1 e > ; c c I ^ ^ X.M j.j.j.j.",
"j.j.j.l B ~ / | m m g @ 7 < S J Z H w w w 1 # @ + + o X X X X X X o @ : w A K J H : @ 5 : e > ; c c I / / ~ m j.j.j.j.",
"j.j.j.l B ~ ! ! m m g @ < & t r C J y w w 1 & # @ @ o X X X X X X + @ , w S K J H 1 S r @ 2 # ; c c Y ! ~ ~ m j.j.j.j.",
"j.j.j.l B ~ E ! m m g @ 3 > 6 1 y J S t w 1 # # # @ o X X X X X X @ # : w w Z S S 1 J y @ 3 > ; c c Y ! ~ ~ m j.j.j.j.",
"j.j.j.l B ~ ! W m m g @ 7 2 + O y H w 1 , : o o @ @ o X X X X X X + @ @ , , 1 w S w J y % e > ; c c I Q ~ ~ m j.j.j.j.",
"j.j.j.l B ~ #.E c M j @ 3 > o O t y @ @ @ @ X X o @ o X X X X X X o X + @ O O C J J J a % 3 > ; m m B ! / ~ m j.j.j.j.",
"j.j.j.l B ~ e.Q n P h @ 2 & o O t y : , < X X X o @ o X X X X X X o X . @ 1 , Z J H a D % < > ; M M B ~ / ~ m j.j.j.j.",
"j.j.j.l B ~ e.Q n P j : u 2 X X t S w w w : + o o + o X X X X X X + + @ 1 y t S K J a D : e 3 ; M M B ~ / ~ m j.j.j.j.",
"j.j.j.l B ~ e.Q n P j @ 7 2 X @ a J S w w w @ + + o X X X X X X X o @ : w t C H L C r D : e > ; M M B ~ / ~ m j.j.j.j.",
"j.j.j.l B ~ ;.E c N j @ 3 > o : Z J Z w w 1 @ @ + o . X X X X X X X + # 1 w S K K , 4 D : 7 > ; m m B ~ / ~ m j.j.j.j.",
"j.j.j.l B ~ E B x m g @ 7 < o : , Z Z w w 1 @ + o o X X X X X X X X + : 6 w t S r O 1 i % 7 > ; c c M I ! ~ m j.j.j.j.",
"j.j.j.l I ^ I B c M g @ 7 2 o : $ 1 r 1 1 # @ o o + o X X X X X X o @ # 1 1 1 w @ $ 4 8 : e > ; c b M B W ~ m j.j.j.j.",
"j.j.j.l B E B N c B j @ 7 2 X $ $ + , 1 1 X @ @ + @ o X X X X X X + @ @ : 1 1 : $ : , 5 % e > ; m M m B Y E b j.j.j.j.",
"j.j.l l N B M M x x j @ 3 > X $ : O , 1 , o @ @ + + o X X X X X X + @ @ : 1 Z 6 % 1 4 8 @ 3 > ; x x c M M P x l j.j.j.",
"j.j.l x n m c c x N x # 3 : X : : O : 1 1 @ @ @ + + o X X X X X X + @ @ : 1 S 4 % 4 4 r @ 2 > 0 B M c c c m c x x j.j.",
"j.j.l I X.X.X.| R X.Y * 2 & X $ : O O , , @ o + + + o X X X X X X + @ @ @ y w O $ , 4 D % 2 & g X.X.X.X.X.X.X.! c j.j.",
"j.j.l ( e.t.t.0.9.e.) @ > & o $ $ O . , + X X @ + + o X X X X X X o @ + + y 4   $ : 4 s % < # k 2.9.9.9.9.9.9.*.b j.j.",
"j.T V m P T E I P I x @ & # o $ % $ O , @ X X # @ + o X X X X X X X + o . w 4 O , , 1 8 @ > # 0 m B P P P P B m l j.j.",
"j.) ..B B M B B B B x @ > & X @ $ $ O @ O X X @ @ o X X X X X X X X + @ . , : O : $ : 5 @ < # 0 B B B B B B B B U j.j.",
"/ 6.r.3.3.:.1.3.3.6.E : 7 2 X @ $ $ O O O X X X + o X X X X X X X X o @ X X X @ $ $ : 5 : e > k 3.3.3.3.3.3.3.6.i.=./ ",
"/ ' ` %.%.1.6.6.6.6.Q * 7 2 o $ $ $ $ O O X X X X X X X X X X X X X X o X X @ $ @ $ , p : e > g %.:.6.6.6.4.:.:._ ^ / ",
"1.Y M T E ^ / ! W ! B * 7 2 o @ @ $ $ O o X X X X X X X X X X X X X X X X X @ : 5 $ , D : e > f T E ~ ! W E E T M X.6.",
"t.T M R E W W E Y P x @ 7 2 X 4 , $ $ O O X X X X X X X X X X X X X X X X X @ , 5 i 4 D : e > q B I E E R R R I M $.p.",
"e.T M T Y Y Y B B M l @ < > O 5 4 $ $ O O X X X X X X X X X X X X X X X X X @ $ : p D F : 3 # 0 M N B I T T T I M O.p.",
"t.E c m m m m c c c k @ > & 4 s 1 % $ O O X o X X X X X X X X X X X X X X X @ $ : r s i @ < # ; c c c m m m m n M $.p.",
"p.2.! ! ! ! ! ! ! ~ P @ > & 1 i 4 : @ @ O X X o X X X X X X X X X X X X X + @ % 1 5 r 8 @ < # g ! ! ! ! ! ! ! ! | y.p.",
"w.y.t.t.t.t.t.t.t.t.) @ > & : , @ @ O @ o X X o X X X X X X X X X X X X X + $ @ @ : 4 5 @ > # k e.t.t.t.t.t.e.e.t.r.w.",
"B | X.X.X.X.X.| ^ Q N @ # @ % , $ $ $ @ + X o X X X X X X X X X X X X X X + $ % % p i 1 @ # @ f E ! | X.X.X.! Q Q E b ",
"M E ^ / / / ~ E R T M @ # o @ $ @ + X X X X X . . . . . . . . . . . . . . . X X o % , : + @ + f Y Y E ! ^ ^ ^ ^ E P l ",
"M T E ~ ~ ~ E R I B n = - - - - - - - - - - - - - - - - - - - - - - - - - - - - - - - - - - - f P B Y R ! E ! ! E P z ",
"M R Y I I I I I B N c h x c M c x x x z x x x c m x x x x x x x x x x x x x x x x x x x x x l k M M B I I I I I R I z ",
"c B M b b b b b b b x x B Y ! T P P B x M N B Y E P P P P P P P P P P P B B c m B P P P B N m x b b b b b b b m M M l ",
"x c c M N M M M M M M B Y ~ / ~ ! ! W M M I ! ~ ~ ! ! ! ! ! ! ! ! ! ! ! E Y M B Y ! ! ! R I B M b M N N N N N N N M l ",
"x B I E ! ! ! ! ! ! ! ! ~ / / / / / ^ P I ! O.6.6.6.6.6.-./ 3.6.6.6.q.1.^ E P I E ~ / ^ ! ! Q T I Y R R R R R R E I z ",
"m Y [ 0.t.t.t.e.O.O.e.t.t.e.t.t.e.-.^ I ! / ;.p.p.p.p.p.y.t.u.p.p.p.p.u.t.:.Y I ! 4.t.e.t.t.e.8.%.~ ~ ~ ~ ~ ~ ! E P z ",
"M E <.p.p.p.p.f.a.y.s.f.p.p.p.p.p.y.X.I ~ O.t.u.u.u.p.p.p.p.p.p.p.g.h.h.f.i.[ E 1.i.p.p.s.f.p.d.d.a.a.u.t.t.t.O.^ E x ",
"B ~ <.y.y.y.y.p.p.u.u.u.y.y.y.y.y.y.O.E ~ / $.$.$.#.6.y.y.y.y.y.u.p.p.p.u.u.O.! O.$.#.-.y.p.d.u.p.p.p.u.u.u.y.t.t.o.x ",
"Y E W Q Q Q Q Q Q Q Q Q Q Q Q Q Q Q E E E E E E E E W Q Q Q Q Q Q Q Q Q Q Q W E E E E E Q _ _ Q Q Q Q Q Q Q Q _ _ W I "
};
