/* XPM */
static char *ZXpnaWYuY29tLWdpZi1tYWtlci0z_24[] = {
/* columns rows colors chars-per-pixel */
"59 75 256 2 ",
"   c #0E0F0B",
".  c #0F100C",
"X  c #14120F",
"o  c #151310",
"O  c #191715",
"+  c #161815",
"@  c #191916",
"#  c #1C1D1A",
"$  c #211D1B",
"%  c #1E211C",
"&  c #22221E",
"*  c #28231F",
"=  c #1C1E20",
"-  c #1E2022",
";  c #1D252C",
":  c #1F2932",
">  c #222421",
",  c #2B2522",
"<  c #252A24",
"1  c #2B2A26",
"2  c #2B2C29",
"3  c #312A27",
"4  c #332D2A",
"5  c #293027",
"6  c #2D332B",
"7  c #32332E",
"8  c #39312E",
"9  c #31392F",
"0  c #202B35",
"q  c #222E3A",
"w  c #22303C",
"e  c #343432",
"r  c #3D3532",
"t  c #343B32",
"y  c #393A37",
"u  c #3D3C3B",
"i  c #403F3E",
"p  c #374135",
"a  c #394337",
"s  c #3D423C",
"d  c #3E4A3C",
"f  c #40403F",
"g  c #404C3E",
"h  c #243543",
"j  c #283947",
"k  c #263A4C",
"l  c #293C4C",
"z  c #273E51",
"x  c #283E52",
"c  c #294155",
"v  c #2C465E",
"b  c #2C4760",
"n  c #2E4B65",
"m  c #2F4E69",
"M  c #304E67",
"N  c #304F6A",
"B  c #2F506C",
"V  c #31516E",
"C  c #325573",
"Z  c #335877",
"A  c #345B7B",
"S  c #444443",
"D  c #454845",
"F  c #484947",
"G  c #4C4C4B",
"H  c #504F4E",
"J  c #435042",
"K  c #4D514D",
"L  c #4B5C48",
"P  c #50504E",
"I  c #545453",
"U  c #585656",
"Y  c #575857",
"T  c #595857",
"R  c gray36",
"E  c #615F5F",
"W  c #5F675E",
"Q  c #615F60",
"!  c #636262",
"~  c #686666",
"^  c #636B63",
"/  c gray42",
"(  c #706F70",
")  c #747474",
"_  c #7B7B7B",
"`  c #365F80",
"'  c #366185",
"]  c #3A6384",
"[  c #376489",
"{  c #38668B",
"}  c #3A698E",
"|  c #3A6C93",
" . c #3B6F98",
".. c #3E7097",
"X. c #3D729C",
"o. c #3D76A2",
"O. c #3E79A6",
"+. c #3E7AA9",
"@. c #427296",
"#. c #41749B",
"$. c #45789E",
"%. c #487A9F",
"&. c #4277A0",
"*. c #4379A1",
"=. c #447BA3",
"-. c #457BA4",
";. c #457CA5",
":. c #437AA4",
">. c #497EA5",
",. c #407DAB",
"<. c #427EAB",
"1. c #477EA8",
"2. c #4280AE",
"3. c #4480AD",
"4. c #4881AA",
"5. c #4A83AD",
"6. c #4482B0",
"7. c #4481B0",
"8. c #4684B3",
"9. c #4C86B1",
"0. c #4A86B2",
"q. c #4B88B3",
"w. c #4C88B3",
"e. c #4A88B6",
"r. c #4C88B4",
"t. c #4C8AB8",
"y. c #4E8BB8",
"u. c #4E8DBA",
"i. c #4D8CBA",
"p. c #508AB3",
"a. c #508CB7",
"s. c #508DB9",
"d. c #518FBC",
"f. c #4F90BE",
"g. c #5191BE",
"h. c #5596C3",
"j. c #5394C2",
"k. c #599AC7",
"l. c #5799C8",
"z. c #5B9DCB",
"x. c #5FA2CE",
"c. c #61A1CB",
"v. c #64A6D1",
"b. c #68A9D2",
"n. c gray52",
"m. c None",
"M. c black",
"N. c black",
"B. c black",
"V. c black",
"C. c black",
"Z. c black",
"A. c black",
"S. c black",
"D. c black",
"F. c black",
"G. c black",
"H. c black",
"J. c black",
"K. c black",
"L. c black",
"P. c black",
"I. c black",
"U. c black",
"Y. c black",
"T. c black",
"R. c black",
"E. c black",
"W. c black",
"Q. c black",
"!. c black",
"~. c black",
"^. c black",
"/. c black",
"(. c black",
"). c black",
"_. c black",
"`. c black",
"'. c black",
"]. c black",
"[. c black",
"{. c black",
"}. c black",
"|. c black",
" X c black",
".X c black",
"XX c black",
"oX c black",
"OX c black",
"+X c black",
"@X c black",
"#X c black",
"$X c black",
"%X c black",
"&X c black",
"*X c black",
"=X c black",
"-X c black",
";X c black",
":X c black",
">X c black",
",X c black",
"<X c black",
"1X c black",
"2X c black",
"3X c black",
"4X c black",
"5X c black",
"6X c black",
"7X c black",
"8X c black",
"9X c black",
"0X c black",
"qX c black",
"wX c black",
"eX c black",
"rX c black",
"tX c black",
"yX c black",
"uX c black",
"iX c black",
"pX c black",
"aX c black",
"sX c black",
"dX c black",
"fX c black",
"gX c black",
"hX c black",
"jX c black",
"kX c black",
"lX c black",
"zX c black",
"xX c black",
"cX c black",
"vX c black",
"bX c black",
"nX c black",
"mX c black",
"MX c black",
"NX c black",
"BX c black",
"VX c black",
"CX c black",
"ZX c black",
"AX c black",
"SX c black",
"DX c black",
"FX c black",
"GX c black",
"HX c black",
"JX c black",
"KX c black",
"LX c black",
"PX c black",
"IX c black",
"UX c black",
/* pixels */
"m.m.m.m.m.m.m.m.m.m.m.m.m.m.m.m.m.m.m.m.m.m.m.m.m.m.m.m.m.m.m.m.m.m.m.m.m.m.m.m.m.m.m.m.m.m.m.m.m.m.m.m.m.m.m.m.m.m.m.",
"m.m.m.m.m.m.m.m.m.m.m.m.m.m.m.m.m.m.m.m.m.m.m.m.m.m.m.n n n n n m.m.m.m.m.m.m.m.m.m.m.m.m.m.m.m.m.m.m.m.m.m.m.m.m.m.m.",
"m.m.m.m.m.m.m.m.m.m.m.m.m.m.m.m.m.m.m.m.m.m.m.v n n ` | C ' | | V n v v m.m.m.m.m.m.m.m.m.m.m.m.m.m.m.m.m.m.m.m.m.m.m.",
"m.m.m.m.m.m.m.m.m.m.m.m.m.m.m.m.m.m.m.m.m.m m n A X.o.+.A | ,.+.X.| m n m n m.m.m.m.m.m.m.m.m.m.m.m.m.m.m.m.m.m.m.m.m.",
"m.m.m.m.m.m.m.m.m.m.m.m.m.m.m.m.m.m.m.v V X.X.X.o.,.2.<.A >.e.2.2.+.X.X.X.{ n v m.m.m.m.m.m.m.m.m.m.m.m.m.m.m.m.m.m.m.",
"m.m.m.m.m.m.m.m.m.m.m.m.m.m.m.m.m.m.v V X.+.6.6.6.0.s.h.} =.g.d.i.8.6.6.2.+.' n v m.m.m.m.m.m.m.m.m.m.m.m.m.m.m.m.m.m.",
"m.m.m.m.m.m.m.m.m.m.m.m.m.m.m.m.v m n | 6.0.i.s.s.1.| 1.' Z } | ..r.s.s.r.8.,.A V M v m.m.m.m.m.m.m.m.m.m.m.m.m.m.m.m.",
"m.m.m.m.m.m.m.m.m.m.m.m.m.m.v m C | C *.y.9.| | | { ' [ A n A ' [ | | } #.r.r.' %.} C n m.m.m.m.m.m.m.m.m.m.m.m.m.m.m.",
"m.m.m.m.m.m.m.m.m.m.m.m.m.V A | +.6.@.#.| } } [ ' A C C A N V C A ' ' } } } @.@.p.8.o.` A n m.m.m.m.m.m.m.m.m.m.m.m.m.",
"m.m.m.m.m.m.m.m.m.m.m.v m } +.+.6.w.5.' Z ' ' A C C C C Z n V C C C A ' ' A C @.9.e.<.+.o.A b m.m.m.m.m.m.m.m.m.m.m.m.",
"m.m.m.m.m.m.m.m.m.m.v m } +.6.i.q...{ ` V N C C C C C m m n n N C C C C C m C [ } =.y.t.,.o.A b m.m.m.m.m.m.m.m.m.m.m.",
"m.m.m.m.m.m.m.m.m.v n } +.6.q.1...' A Z C V N C m n n j : : 0 c n n V C m V C A ` [ *.4.e.,.o.A v m.m.m.m.m.m.m.m.m.m.",
"m.m.m.m.m.m.m.m.m.m } +.6.0...{ ' Z C n n n v c : ; : - # # # ; ; ; w n b n n V C A { } ;.r.,.o.A n m.m.m.m.m.m.m.m.m.",
"m.m.m.m.m.m.m.m.n | +.6.r...' A A C n 0 ; ; ; - $ $ $ $ , 3 * $ $ $ $ ; ; ; ; j V C A A } ;.y.,.o.A m.m.m.m.m.m.m.m.m.",
"m.m.m.m.m.m.m.b V o.6.r...{ ' C C n 0 $ , & , & 1 3 4 4 4 4 4 4 3 3 , & , & * = j m C A [ } -.r.<.[ n m.m.m.m.m.m.m.m.",
"m.m.m.m.m.m.v n $.6.r...[ A Z n q - & 1 4 4 r 3 , 8 r r r r r r r 4 , 8 r 4 4 , - ; z C A A } =.e.3.' v m.m.m.m.m.m.m.",
"m.m.m.m.m.m.m m C >.| ` ' C n q > , 3 4 8 8 r 4 , 1 O @ @ @ @ O $ 4 , r r 8 8 4 1 , > l V A ' [ ..' V m n m.m.m.m.m.m.",
"m.m.m.m.m.V | o.A V [ [ Z n q > 8 3 1 8 8 4 @ O O o o o o o o o o O o O & 8 8 4 , 8 4 > l C A { A V } o.` n m.m.m.m.m.",
"m.m.m.m.v { +.6.5.Z A ' V q $ 1 8 3 $ O o O o o o o o o o o o o o o o o o o O # & 4 4 , - z A ' Z } e.<.o.C m.m.m.m.m.",
"m.m.m.m.C | +.g.@.` V m h $ 1 8 4 & @ > & o o o o o o o o o o o o o o X O & 2 < O , 8 4 * - c N C [ 9.e.+.' m m.m.m.m.",
"m.m.m.v [ X.1.q.| A C k # , 8 4 , < y P 7 + o o o o o o o o o o o o o o # e G u % @ 1 8 4 & ; n C ` =.e.<.o.C m.m.m.m.",
"m.m.m.v ` | r.#.[ A n 0 $ 8 4 1 t f G G # + @ @ o o o o o o o o o o @ @ o # y D f u > 1 8 1 = j V ` [ 5.0.o.C m.m.m.m.",
"m.>.b v A [ w.#.` C x @ & 8 , 2 D K P u # @ @ @ @ @ o o o o o o o o # % @ o , G ! R 7 @ 4 3 # ; n A ` 5.0.o.V v C h.m.",
"m.g.@.C C A 5.#.A C x # & 1 & 2 K K t < # % % @ @ @ o o o o o o o o # # # o # u Y R s # 1 , $ ; n C ' w.0.} m [ >.k.m.",
"m.} q.1.Z C 5.#.' C x > 8 3 > y S e @ + @ # # @ @ @ o o o o o o o o @ @ @ @ + > y F s & & 8 3 ; n A [ w.8.C [ e.=.] m.",
"m.V | q.} V 5.#.A C x > r 4 > t 7 % @ < # @ % % % @ o o o o o o o o % % @ @ > > > < 6 2 $ r 3 ; n A ' w.#.V 4.-.[ n m.",
"m.C | } [ V >...C C x # 4 , % > 2 % u u @ @ # # # @ o o o o o o o o # # @ + 2 < & # < 7 $ 4 , ; n C A 4.' Z | } } n m.",
"m.n m V V B C C V B x # 8 3 % > 2 > G I # # % @ @ @ o o o o o o o o # & @ # S e 6 < 6 t > r 1 ; n n m C V V V C C n m.",
"m.v C [ | X.| |  .| c # 8 3 & < < y G G < o o # @ @ o o o o o o o o # @ + # 7 G u e d d > r , ; n C A ' | X.X.X.| m.m.",
"m.m.V ' ' A C C C C x # 3 , < 6 @ y D > G & . X @ o o o o o o o o o X . 2 F @ u 7 < a d & 3 , ; n C C C C ` ' ` m m.m.",
"m.m.n n n n n n n n x # , , < 6 + # 2 # I u # @ X X o o o o o o o o X o e ! t @ o + 6 t # 1 $ ; b n n n n n n n v m.m.",
"m.m.m.v N C C C n V x # , , < t > % # 2 R / G e & @ X o o o o o o o > e G Y u 2 e # t d & 1 $ ; n N N C C A n m.m.m.m.",
"m.m.m.v C ` A C n V x # , , % D e s 2 7 R ) E i u e # o o o o o o @ y G ! I u Y ) u t d & 1 & ; n N N A ` ' m m.m.m.m.",
"m.m.m.v A } ' A n V x # , $ % u 6 R I < G / ! G u i 2 X o o o o o # i U R I u / _ S a d % , & ; n N C [ } #.C m.m.m.m.",
"m.m.m.v ` | | =.C A c - 4 , < 7 6 ! ) I R ! ! R i y & o o o o o o > S ! R E ! ) R y a d & 4 1 ; V C Z } ..s.A m.m.m.m.",
"m.m.m.v [ o.| r.A ` c > r 4 < 6 2 S R / ! R G F i 7 O o o o o o o > u H R ! ) ! e < 6 t > r 3 ; C A Z } o.d.A m.m.m.m.",
"m.m.m.v [ +...r.Z C x # 4 4 < 9 6 e D ! ! Y i u u e O o o o o o o > u D R ! ( I 6 > < 6 > r & ; N V ` | o.i.A m.m.m.m.",
"m.m.m.v ' +.+.i.Z V x # 8 3 t W G 6 1 D ! ! S u u e @ o o o o o o > u G ! ! / K e > < 6 2 r , ; n N ' +.+.,.C m.m.m.m.",
"m.m.m.v A o.+.:.C V x # 8 3 s ^ G 2 > D / / Y S u u , o o o o X O e S ! / ) ) F e & < 6 > r , ; n N ' +.+.o.C m.m.m.m.",
"m.m.m.v A X.X.X.V V x # , , t K I S u G / / ~ Y S u 2 o o o o X O y G / ) ) / S 7 S F 7 # 3 $ ; n N ' X.o.O.C m.m.m.m.",
"m.m.m.v A X. .X.V V x # 4 , e D G s G G R Q Y R I i 2 X o o o X O i R ! / Y I u 2 u G e # 4 , ; n m ' X.X.O.V m.m.m.m.",
"m.m.m.v A X.X.X.V V x # 8 3 < 5 u S G G e 1 > e D i 2 X o o o X O u D 1 2 e D u 2 u G t & r 1 ; n m ' ..o.O.V m.m.m.m.",
"m.m.m.v A o.2.| m C x # 3 1 < < e G G Y 2 o o # 2 i 2 o o o o X O e o X @ 2 G R u S K a & 4 , ; m V A X.+.O.V m.m.m.m.",
"m.m.m.v A o.g.@.B ` c = 3 > > > 2 D G ! D o . @ 2 i 2 X o o o X O e %   & I / ! u t J d # 1 , ; C Z Z X.+.O.V m.m.m.m.",
"m.m.m.v A o.g.@.V ` x > r 4 # @ 2 G I ! / S e < e u 2 X o o o X O y u e I n._ ! s t J d > r 4 ; C A Z X.+.O.V m.m.m.m.",
"m.m.m.v A o.g.@.B ` c # 8 4 > < 6 S I I ! R S e u e $ o o o o o O 1 f I ! ) / I s e d d > r 1 ; C A Z X.+.O.V m.m.m.m.",
"m.m.m.v A o.8.| m Z x # 4 1 < 6 7 e D G I G e u u 2 X o o o o o o @ y S G I R F u 2 d d & 8 1 ; m V Z X.+.O.C m.m.m.m.",
"m.m.m.v A X.| A n V x # 8 1 < 6 > 2 e 2 D G D y 2 2 X o o o o o X # u D G G f 6 2 > t p & 8 1 ; n m V ' X.+.V m.m.m.m.",
"m.m.m.v ' +.' A m C x # 8 4 < 6 % 2 2 & y 2 S e > y > X o o o o O 4 f G G y & > > < 7 t > r 1 ; n V C A | +.V m.m.m.m.",
"m.m.m.v A | A A m A x # 8 3 % < % & < 2 > @ S u y u 2 o o o o X @ y S G u & > > & > 6 9 & r , ; V C V A [ | V m.m.m.m.",
"m.m.m.v C A C C n n x # 4 , # > & % < 2 @ % D D u u 2 X o o o X O y F G y @ 7 6 < < 6 t $ 4 , ; n n m C C ` n v m.m.m.",
"m.m.v n B V m m n Z n - 4 , # > > & < 2 > D S i u u 2 o o o o X O u G G e > t 6 < 6 t t # 3 , 0 A C m m m V m n n m.m.",
"m.m.v ' ,.,.,.:.} :.} - 3 > % < % % % < % u > y u u 2 o o o o X O y H G @ < 6 % < < a d & 3 , j ,.,.,.,.,.,.,.X.N m.m.",
"m.m.c } g.g.j.g.s.g.#.- , , < 6 @ % @ > + X # S u i 2 o o o o o O e S u o 2 2 @ % > p a & 1 $ l w.a.s.s.s.s.s.4.V m.m.",
"m.m.A V ` [ | ' ` ` B # & & > 6 % > & < > o > T S y > o o o o o o # y < + 6 6 > < < 6 t # , $ 0 V Z ` ` ` ` A V v m.m.",
"m.@.4.A A C Z A A A n # , > # & @ % % > % % # D F 2 o o o o o o o O y G o < < % & % 6 9 # 1 $ 0 A A A A A A A A ] m.m.",
"+.u.h.t.t.q.e.t.t.i.@.> 8 4 > < @ % % @ @ # o @ e 2 X o o o o o o o , G @ # % % % % 6 9 > r , l e.t.t.t.t.t.t.u.l.7.+.",
"+.o.$.5.5.e.i.i.i.i.#.> 8 3 < 6 @ % @ @ @ @ @ o % & o o o o o o o o # 7 @ @ @ % % % t a > r , j 4.q.i.i.i.y.q.q.#.+.+.",
"e.{ C { | O.+.X. .X.A > 8 3 < 6 @ 6 6 % % % @ + @ O o o o o o o o o o @ % # > < > % a d > r , w { | o.X. . .| } C :.u.",
"j.} C } |  . .| { ` m - 8 3 < t % 6 6 % @ # @ + @ @ o o o o o o o o o @ # @ > 9 5 < a d > r , 0 A ' | | } } } { C 1.z.",
"j.} C { [ [ [ A A C n # 1 , & 6 6 6 > @ @ @ @ o @ @ o o o o o o o o o @ @ @ @ 6 t d L g & 4 & 0 C Z A ' { { { ' V ,.z.",
"j.| m V V V V m m m c # * > < d p < % @ @ % 5 @ @ @ o o o o o o o o o @ @ @ % < 9 a d t # 1 $ : m m m V V V V V C 3.z.",
"z.y.o.X.X.X.X.X.X.o.' = , , < a t > + % % % & 6 # @ o o o o o o o o @ @ @ & > < 6 t t 6 # 1 $ h X.X.X.X.X.X.X.X.:.h.z.",
"g.h.j.j.j.j.j.j.j.j.$.= * & & 6 6 % @ % @ + # > @ @ o o o o o o o o @ @ o @ % % < 2 7 6 @ , $ l g.j.j.j.j.j.g.g.j.h.g.",
"A +.,.,.,.,.,.:.+...A # $ # % < < 2 t t 9 # < @ @ + o o o o o o o o @ @ @ % 6 p 6 t 9 < @ $ # w | X.:.,.,.,.X.....| N ",
"V | O.+.+.+.o.| } { C # $ @ @ > & % & & % o o o o o X X X X X X X X X X X o @ & & > < > @ # @ w [ [ | ..+.+.+.O.| ' b ",
"V { | o.o.o.| } ' A C ; ; ; ; ; ; ; ; ; ; ; ; ; ; ; ; ; ; ; ; ; ; ; ; ; ; ; ; ; ; ; ; ; ; ; ; h A A [ } X.| X.X.| ' n ",
"V { [ ' ' ' ' ' A Z V z n m C N n n n n n n n m V n n n n n n n n n n n n n n n n n n n n n v x C C A [ ' ' ' ' } ' n ",
"n A C N N N N N N N n n A [ X.{ ` ` A n C Z A { | ` ` ` ` ` ` ` ` ` ` ` ` A m N A ' ` ` A Z V n N N N N N N N V C C b ",
"n m m C Z C C C C C C A [ o.+.o.X.X.X.Z C ' X.X.O.X.X.X.X.X.X.X.X.X.X.X.| [ C A [ X.X.X.} ' A C N V Z Z Z Z Z Z Z C b ",
"n A ' | X.X.X.X.X.X.X.X.o.+.+.+.+.+.+.' ' X.<.u.u.u.u.u.6.+.t.u.u.u.f.e.+. .' ' | o.+.+.X.X...{ ' [ } } } } } } } ' b ",
"m ' &.d.j.j.j.g.2.<.u.j.j.g.g.j.g.6.+.' X.+.6.z.z.z.z.z.h.g.z.z.z.z.z.z.j.q.[ ' ..e.j.g.j.j.g.s.5.o.o.o.o.o.o.X.| ' b ",
"V | q.z.z.z.z.v.c.h.x.v.z.z.z.z.z.h.<.' X.<.j.z.z.z.z.z.z.z.z.z.z.v.b.b.v.z.-.| e.l.z.z.x.v.z.x.c.c.c.k.j.j.j.2.+.| n ",
"Z o.0.l.l.l.l.z.z.k.k.k.l.l.l.l.l.l.3.| o.+.2.3.3.2.i.l.l.l.l.l.k.z.z.z.k.k.4.X.,.3.2.6.h.z.c.k.z.z.z.k.k.k.l.j.j.4.n ",
"[ | | ..............................| | | | | | | | | ......................| | | | | | ..@.#.................@.@.| ' "
};
