/* XPM */
static char *ZXpnaWYuY29tLWdpZi1tYWtlci0z_12[] = {
/* columns rows colors chars-per-pixel */
"59 75 256 2 ",
"   c #0C0F0A",
".  c #0E110C",
"X  c #13100E",
"o  c #141412",
"O  c #191614",
"+  c #161915",
"@  c #1A1916",
"#  c #1B1D1A",
"$  c #221E1B",
"%  c #1E211D",
"&  c #22221F",
"*  c #28221F",
"=  c #1D1F21",
"-  c #201F20",
";  c #1E2124",
":  c #1D252B",
">  c #1F282F",
",  c #1E2730",
"<  c #1F2933",
"1  c #222521",
"2  c #2B2522",
"3  c #252A24",
"4  c #2B2B26",
"5  c #212629",
"6  c #2A2D29",
"7  c #302A26",
"8  c #352E2B",
"9  c #2D322B",
"0  c #2F392D",
"q  c #32332E",
"w  c #39312D",
"e  c #31392F",
"r  c #202B34",
"t  c #212E39",
"y  c #24323E",
"u  c #333532",
"i  c #3C3532",
"p  c #343C32",
"a  c #393B37",
"s  c #3C3D3B",
"d  c #374135",
"f  c #384236",
"g  c #3C443B",
"h  c #3D493B",
"j  c #41433F",
"k  c #414E3E",
"l  c #253543",
"z  c #263846",
"x  c #263A4C",
"c  c #273D52",
"v  c #293F53",
"b  c #2A4157",
"n  c #2B455D",
"m  c #2D4760",
"M  c #2E4A64",
"N  c #2F4E69",
"B  c #304F6A",
"V  c #2F506C",
"C  c #30516D",
"Z  c #325674",
"A  c #335877",
"S  c #345B7B",
"D  c #385E7C",
"F  c #3A607F",
"G  c #444443",
"H  c #484746",
"J  c #444A42",
"K  c #484A47",
"L  c #484748",
"P  c #4B4C4A",
"I  c #435241",
"U  c #485546",
"Y  c #485846",
"T  c #4F524E",
"R  c #4B5949",
"E  c #50514F",
"W  c #545453",
"Q  c #555A54",
"!  c #585857",
"~  c gray36",
"^  c #5E625E",
"/  c #60605F",
"(  c #636463",
")  c #676867",
"_  c #676868",
"`  c gray42",
"'  c #706F6F",
"]  c #687067",
"[  c #6E716E",
"{  c gray45",
"}  c #787777",
"|  c #7C7C7C",
" . c #365F80",
".. c #376285",
"X. c #3A6486",
"o. c #37658A",
"O. c #38668B",
"+. c #3A688E",
"@. c #3A6C93",
"#. c #3B6F98",
"$. c #3E7097",
"%. c #3D729C",
"&. c #3D76A2",
"*. c #3E79A6",
"=. c #3E7AA8",
"-. c #406B8D",
";. c #406E92",
":. c #437296",
">. c #40739A",
",. c #40749C",
"<. c #42759C",
"1. c #46789D",
"2. c #4377A0",
"3. c #4378A1",
"4. c #4379A2",
"5. c #437AA4",
"6. c #497EA5",
"7. c #407DAC",
"8. c #427DAA",
"9. c #487EA8",
"0. c #4380AF",
"q. c #4A83AD",
"w. c #4685B3",
"e. c #4683B1",
"r. c #4C86B1",
"t. c #4A86B2",
"y. c #4D88B3",
"u. c #4A88B5",
"i. c #4D89B5",
"p. c #4C8BB8",
"a. c #4E8BB8",
"s. c #4D8CBA",
"d. c #4D8CBA",
"f. c #508CB7",
"g. c #508EBB",
"h. c #508DB9",
"j. c #4F90BE",
"k. c #5291BE",
"l. c #5394C2",
"z. c #5798C6",
"x. c #599AC6",
"c. c #579AC8",
"v. c #5B9DCB",
"b. c #5EA1CE",
"n. c #61A0CA",
"m. c #65A6D1",
"M. c #68A9D2",
"N. c #838383",
"B. c #8C8C8B",
"V. c #939393",
"C. c #9C9B9B",
"Z. c #A4A4A4",
"A. c gray67",
"S. c #B4B4B4",
"D. c None",
"F. c black",
"G. c black",
"H. c black",
"J. c black",
"K. c black",
"L. c black",
"P. c black",
"I. c black",
"U. c black",
"Y. c black",
"T. c black",
"R. c black",
"E. c black",
"W. c black",
"Q. c black",
"!. c black",
"~. c black",
"^. c black",
"/. c black",
"(. c black",
"). c black",
"_. c black",
"`. c black",
"'. c black",
"]. c black",
"[. c black",
"{. c black",
"}. c black",
"|. c black",
" X c black",
".X c black",
"XX c black",
"oX c black",
"OX c black",
"+X c black",
"@X c black",
"#X c black",
"$X c black",
"%X c black",
"&X c black",
"*X c black",
"=X c black",
"-X c black",
";X c black",
":X c black",
">X c black",
",X c black",
"<X c black",
"1X c black",
"2X c black",
"3X c black",
"4X c black",
"5X c black",
"6X c black",
"7X c black",
"8X c black",
"9X c black",
"0X c black",
"qX c black",
"wX c black",
"eX c black",
"rX c black",
"tX c black",
"yX c black",
"uX c black",
"iX c black",
"pX c black",
"aX c black",
"sX c black",
"dX c black",
"fX c black",
"gX c black",
"hX c black",
"jX c black",
"kX c black",
"lX c black",
"zX c black",
"xX c black",
"cX c black",
"vX c black",
"bX c black",
"nX c black",
"mX c black",
"MX c black",
"NX c black",
"BX c black",
"VX c black",
"CX c black",
"ZX c black",
"AX c black",
"SX c black",
"DX c black",
"FX c black",
"GX c black",
"HX c black",
"JX c black",
"KX c black",
"LX c black",
"PX c black",
"IX c black",
"UX c black",
/* pixels */
"D.D.D.D.D.D.D.D.D.D.D.D.D.D.D.D.D.D.D.D.D.D.D.D.D.D.D.D.D.D.D.D.D.D.D.D.D.D.D.D.D.D.D.D.D.D.D.D.D.D.D.D.D.D.D.D.D.D.D.",
"D.D.D.D.D.D.D.D.D.D.D.D.D.D.D.D.D.D.D.D.D.D.D.D.D.D.D.m m m m m D.D.D.D.D.D.D.D.D.D.D.D.D.D.D.D.D.D.D.D.D.D.D.D.D.D.D.",
"D.D.D.D.D.D.D.D.D.D.D.D.D.D.D.D.D.D.D.D.D.D.D.n m M S @.S S @.@.Z m n n D.D.D.D.D.D.D.D.D.D.D.D.D.D.D.D.D.D.D.D.D.D.D.",
"D.D.D.D.D.D.D.D.D.D.D.D.D.D.D.D.D.D.D.D.D.N N M Z #.&.=. .+.7.=.%.@.V M N M D.D.D.D.D.D.D.D.D.D.D.D.D.D.D.D.D.D.D.D.D.",
"D.D.D.D.D.D.D.D.D.D.D.D.D.D.D.D.D.D.D.n V @.%.%.&.=.0.0...1.p.0.0.=.%.%.%.+.M n D.D.D.D.D.D.D.D.D.D.D.D.D.D.D.D.D.D.D.",
"D.D.D.D.D.D.D.D.D.D.D.D.D.D.D.D.D.D.n N @.=.e.e.e.t.h.l.-.:.k.h.h.w.e.e.0.*.O.M n D.D.D.D.D.D.D.D.D.D.D.D.D.D.D.D.D.D.",
"D.D.D.D.D.D.D.D.D.D.D.D.D.D.D.D.n N M @.e.w.d.h.h.q.@.9.+.Z +.@.#.y.h.h.i.w.7. .C C n D.D.D.D.D.D.D.D.D.D.D.D.D.D.D.D.",
"D.D.D.D.D.D.D.D.D.D.D.D.D.D.n N Z @.S %.a.r.#.@.@.+...X.S M S ....+.@.@.,.i.a.o.:.:.Z M D.D.D.D.D.D.D.D.D.D.D.D.D.D.D.",
"D.D.D.D.D.D.D.D.D.D.D.D.D.V S +.*.e.<.:.@.+.+.+...S Z Z S C C Z A ....+.+.+.:.:.q.u.*...S M D.D.D.D.D.D.D.D.D.D.D.D.D.",
"D.D.D.D.D.D.D.D.D.D.D.n M O.=.=.e.i.q.X.Z  ... .Z Z Z Z A N C Z Z Z A ....S Z @.r.u.7.=.*. .m D.D.D.D.D.D.D.D.D.D.D.D.",
"D.D.D.D.D.D.D.D.D.D.n M O.*.0.d.u.>.+...C B Z Z Z Z Z N N m M B Z Z Z Z Z N Z ..+.4.i.d.7.*. .m D.D.D.D.D.D.D.D.D.D.D.",
"D.D.D.D.D.D.D.D.D.n M O.*.0.i.9.>...S S Z C B Z N M M x < < r v M M N Z N C Z S S o.,.q.i.7.&. .m D.D.D.D.D.D.D.D.D.D.",
"D.D.D.D.D.D.D.D.D.M O.*.0.i.,.+...S Z N M M n b < > > ; @ @ @ : > > t n n M M C Z S O.+.4.i.7.*. .m D.D.D.D.D.D.D.D.D.",
"D.D.D.D.D.D.D.D.M O.*.0.i.,...S S Z M t : : : ; $ $ $ $ 2 7 2 $ $ $ $ : : : : l C Z S S +.3.a.7.&...D.D.D.D.D.D.D.D.D.",
"D.D.D.D.D.D.D.m B %.0.i.>.+...Z Z m t $ 2 * 2 * 4 7 8 7 8 8 8 7 7 7 2 * 2 * 2 # l N Z A ..+.3.a.7.@.M D.D.D.D.D.D.D.D.",
"D.D.D.D.D.D.n m <.e.i.>.o.S A N y ; $ 2 8 8 i 8 2 w i i i i i i i 8 2 8 i 8 8 2 - ; x C S S +.3.u.0.+.n D.D.D.D.D.D.D.",
"D.D.D.D.D.D.N N Z 6.$. ...Z N y 1 2 7 8 w w i 8 2 7 @ O @ @ O O @ 8 2 w i w w 8 7 2 1 x C S ....$.o.C N N D.D.D.D.D.D.",
"D.D.D.D.D.C @.&.S C O.o.S N y 1 w 8 4 w w 8 $ @ @ # O o o o o o o O O # 1 w w 8 2 8 8 1 x C S +. .C o.&...N D.D.D.D.D.",
"D.D.D.D.n ..=.0.q.D S ..C y $ 2 w 7 $ @ @ 1 9 4 3 3 % + + o o o o + 1 e 9 # @ @ * 8 8 2 = x A ..S X.u.7.*.Z D.D.D.D.D.",
"D.D.D.D.C +.*.k.,...C N z # 2 8 w $ O 4 g K a 4 & o o + @ o o o o @ 9 q L j 9 # o 2 w 8 2 ; b B Z ..q.a.*...N D.D.D.D.",
"D.D.D.D...%.5.t.#.S Z v # 2 8 w * # 6 W [ W p + + + + # @ o o o + + o # Q [ T u & @ 2 w 8 * ; m Z S ,.u.0.*.Z D.D.D.D.",
"D.D.D.D.S @.y.3.+.S M t # 8 w * # e Q { ( a @ # % # # # @ o o o # # @ # s ( ` ^ K 6 @ 2 w 7 # l C S ..q.p.*.Z D.D.D.D.",
"D.q.m n Z ..q.3...Z b # $ 8 2 # 9 g ` { P % # % % % # # @ o o o # 1 1 # 3 W ` | ( a 3 @ 8 7 @ ; m S  .q.p.*.Z n C k.D.",
"D.k.<.S C S q.3.S Z b # * 2 * & a P ( G 6 % % 3 3 1 # # @ o o + # % 1 % # 6 G ` ( J 9 @ 2 2 $ : M Z  .q.u.@.C ..6.x.D.",
"D.+.q.0.S C q.4...A b ; w 8 & 9 f K P 1 o # % 1 1 & # # O o o # % % % % + o # b ~ K 9 # $ w 8 : m S O.q.u.S ..t.9.X.D.",
"D.N @.q.;.N q.4.S Z b ; w 8 % e p 3 1 % 6 # % & 3 1 1 & O o o % 1 1 & % # 3 + # 3 u p 3 # i 8 : m A ..q.4.C 9.9.o.M D.",
"D.Z @.+.+.C 1.<.A Z b = 8 4 1 p 3 # 3 W G % # % 1 & % % O o o # % % & % 1 L G + + 6 p p % 8 4 : m Z S 9.+.Z @.+.@.M D.",
"D.m N C C V Z Z C N b = 8 8 1 p 3 % 6 ) ` a # 1 3 1 % % O o o # % 1 3 3 j ` ~ 1 + 4 d p & i 4 : n M N Z C C Z Z Z m D.",
"D.D.C O.@.%.@.@.@.@.n = 8 8 1 d 9 3 6 ~ ( 1 % + + 1 1 & @ o + & 1 % + o 4 ( / s # & I g & i 7 : m Z S ..+.%.%.%.@.D.D.",
"D.D.B ....S Z Z Z Z b = 7 2 3 J p 1 3 L s u ^ % . . o # + o o # o . . @ 4 j W 9 # % k g % 7 2 : m C Z Z Z S ....B D.D.",
"D.D.m m m M M M m M b # * 2 3 I d # # 6 u { | G + o     X o o .   + % W ^ s u o + % a a % 2 $ : n m m M M M m m m D.D.",
"D.D.D.D.N Z Z Z M C b # * 2 3 h 0 + 6 & s } V.B.( L u a 1 X o # 6 P _ N.( u # 3 6 # I h % 2 $ : M C N Z Z S N D.D.D.D.",
"D.D.D.D.C  .S Z M C b = 2 2 1 p 3 % ~ a G } B.A.S.C.B.| G X + G ` V.A.B.( a u } ~ & I h % 4 * : m C N S  ...C D.D.D.D.",
"D.D.D.D.Z +...S N C b = 2 * 1 p 3 3 ~ W q ( N.V.A.S.A.B.s X + W } Z.Z.B.( s B.Z.W % I h # 2 * : m C C o.+.2.A D.D.D.D.",
"D.D.D.D.S @.+.4.A A b ; 8 2 1 h 9 6 G } } | B.B.V.S.S.V.s X + W } C.B.B.B.N.Z.{ 6 # I h % 7 4 : N Z Z +.@.d.F D.D.D.D.",
"D.D.D.D...*.@.i.D S n ; i 8 3 I d 1 6 } C.B.N.N.N.C.C.| s X + W { N.N.N.V.V.} u + % d a & i 8 : V S Z +.%.s.F D.D.D.D.",
"D.D.D.D...=.%.i.D Z b # 4 8 3 I d % 3 ~ N.N.N.| | N.| { s X + W { { | N.B.N.W % # 1 e 9 & i 2 : M Z S #.%.s.F D.D.D.D.",
"D.D.D.D. .=.*.d.D C b = 8 8 3 R ^ a % 9 ( N.B.B.N.} { { s X + W { } N.B.B.` q 1 # H J 9 4 i 2 : m B  .*.*.7.A D.D.D.D.",
"D.D.D.D.S &.=.8.Z C b = 8 8 3 R ] s # 3 ( V.C.V.B.N.} { s X + W { N.V.C.V.( 4 % # E P 9 1 i 4 : m C  .=.*.*.Z D.D.D.D.",
"D.D.D.D.Z %.%.%.Z C b # 2 2 3 U ^ ^ u G ` V.C.C.A.A.C.} s X + W N.A.S.S.B.` G + g ( J 9 # 7 * : m C  .%.%.*.Z D.D.D.D.",
"D.D.D.D.Z %.#.%.Z C b = 7 2 3 U Q P 9 L ( ` N.B.B.V.A.B.s X + ~ C.Z.Z.B.` ( G o u W g 9 # 7 2 : M C  .$.%.*.Z D.D.D.D.",
"D.D.D.D.Z %.%.%.Z C b = 8 8 3 I f s u W ( L u u u L } | G X + ! | G a u P ( W # 9 s p 9 $ i 7 : M B S $.%.*.Z D.D.D.D.",
"D.D.D.D.Z %.0.$.C Z b = 7 4 3 I p a u ~ | L 3 o + # 9 ( H X + W 6 + . + W } ` g 6 6 p a & 8 2 : M Z Z %.=.*.Z D.D.D.D.",
"D.D.D.D.Z %.s.,.C  .n = 4 2 3 h 9 3 6 / B.| G o o 3 G ( H X + W G # . 3 B.B.} G % % I h # 2 2 : V S Z %.=.*.Z D.D.D.D.",
"D.D.D.D.Z %.s.2.C  .n 1 i w 1 p 1 3 4 ~ B.B.N.P P ~ ` { H X + W ( W W { A.B.} g % % I h & i 8 : V S Z %.=.*.Z D.D.D.D.",
"D.D.D.D.Z %.j.2.C  .n = 8 w 1 g 9 1 9 W } N.N.| N.{ { B.G X + W ( } N.C.V.} ~ 9 1 % I h & i 4 : V S Z %.=.*.Z D.D.D.D.",
"D.D.D.D.Z %.e.$.C Z b = 8 4 3 I e % e W ( ` ` ` ( ` B.C.G X + ~ { ( ( ` ` ( G % 4 % I h & 8 4 : N Z Z %.=.*.Z D.D.D.D.",
"D.D.D.D.Z %.@. .N C b = 8 7 3 I e % 4 4 u ~ ( ~ ( { ` W a X o u ` ( ( ( W u 1 # 4 % p d & w 4 : m C C ..%.*.Z D.D.D.D.",
"D.D.D.D.S *.o.S N C b = w 8 3 k 0 & 3 % % 6 P s ~ } ~ 6 6 X o @ ` ` ( a 6 % % 1 6 % 9 p & i 7 : M C Z S @.*.Z D.D.D.D.",
"D.D.D.n S @. .S N S b = w 8 1 p 3 & 3 3 1 + 3 6 ( } ` L 8 X o a { { ~ 1 % 1 1 1 1 # 9 p & i 7 : N Z C S ..@.C D.D.D.D.",
"D.D.D.n Z S Z Z M M b = 8 4 % 9 1 1 4 4 3 + % a ` ` ` ` G X + K ( ` ( 9 1 3 3 4 4 % 9 p & 8 4 : m M M Z Z  .N n D.D.D.",
"D.D.D.m N C N N M Z V ; 7 2 % 9 1 1 9 6 3 u 9 _ ( ` ( ' H X + L / ` ` ) 9 3 9 9 6 % e p # 7 4 > Z Z N N N C N M m D.D.",
"D.D.D.S 8.8.8.5.+.5.$.5 7 2 & e 3 # 3 3 3 9 1 W G } ~ ` H X + K ~ } G ~ 4 3 4 4 3 # k h # 7 2 y 5.8.8.8.8.8.8.3.C D.D.",
"D.D.D.X.h.k.l.k.d.g.6.; * 2 1 h 0 # 1 1 & 1 # % u ` ~ ( H X + G ~ ( 4 1 1 1 1 1 1 # h g $ 2 $ y q.f.h.h.h.h.h.q.C D.D.",
"D.D.X.C  .o.@... . .Z = * * 1 f 9 # 3 9 9 3 3 6 3 ~ { ` H X + G { G % % 3 9 4 3 3 % 9 p # 2 $ > C A  . . . .S Z m D.D.",
"D.-.q.S S Z Z S S S V ; 2 2 1 9 1 # & 3 3 4 3 9 g } ~ { H X + L / ` 6 a 3 3 3 % % # 9 p # 2 * , Z S S S S S S S X.D.D.",
"=.p.z.p.p.t.t.p.p.p.3.5 8 8 1 g 4 # % % % 1 % % g ( 1 W s X + 6 3 ( 6 u 1 % % % % # 9 p & i 4 l t.p.p.p.p.p.p.d.c.w.=.",
"=.&.1.q.q.t.d.d.d.d.4.5 8 8 3 I 0 # % # % % % # 6 s @ p 9 X o # # a 1 3 % @ # % % # d f & i 4 y 6.t.d.d.d.a.t.t.,.*.=.",
"p.@.C +.@.&.=.%.#.%...; w 8 3 I 0 % & 9 3 1 1 1 % + % h 9 X + 3 # + 1 1 3 p 9 # # # I h & i 4 r O.@.%.&.#.#.@.@.C &.d.",
"l.@.Z +.@.#.#.@.+. .C ; w 8 3 k 0 # p p 1 1 1 % % # % h 9 X + 3 # # % & 3 p h 9 @ + k h & i 4 r S ..@.@.+.+.+.o.C 5.c.",
"l.@.C o.o.o.o. .S Z M = 2 4 1 p 9 e g 3 % % % % % # % h 9 X + 3 # # % % % 1 p h I 9 I h % 7 * > Z A S ..+.+.+.o.C 5.c.",
"l.#.N C C C C N N N n # * 2 % p h h p 1 % & 3 3 p # & h 9 X + 3 % % p & % & 4 d h d f 9 # 2 $ : M N N V C C C C V 8.c.",
"v.d.&.%.%.%.%.%.%.&.+.; * 2 % e f p 9 % 1 3 3 3 3 h f h 9 X + 4 g g & # 1 % 1 p p a a 9 # 4 $ t $.%.%.%.%.%.%.%.5.l.v.",
"k.z.l.l.l.l.l.l.l.l.6.; * 2 # 9 e e 3 % % % % 1 1 p e g 9 X + 3 e e % # # % % 9 e p p 9 # 2 $ l h.l.l.l.l.l.k.k.k.l.k.",
"A *.8.8.8.8.8.8.*.$...; $ $ % 9 9 e k Y Y k I h f 4 3 f 9 X o 1 3 9 h g p h I k p 9 9 6 # $ $ t +.$.5.8.7.8.%.$.#.$.C ",
"N @.&.=.=.=.*.@.+.+.S = @ @ # 3 1 3 3 3 3 3 3 1 1 & & 9 3 X o # & 1 1 1 3 1 3 3 3 3 3 1 @ @ @ < o.o.+.#.*.*.*.*.@...m ",
"N o.@.&.&.&.@.+...S Z > > > > > : : > > > > > > > > > > : : : > > > > > r > > > > > > > > > : t S S o.+.%.@.$.%.@...m ",
"N +.+...........S Z C x m N Z C M M M m M M M N C M M M M M M M M M M M M M m m M M M M M M n c Z Z S ..........+...m ",
"M Z Z B B B B B B B N m Z O.%.+. . .S N C A S ..@. . . . . . . . . . . . .S C N S  . . .S A Z m B B B B B B B B Z Z m ",
"m N N Z Z Z Z Z Z Z Z S O.%.=.&.%.%.%.S Z ..#.%.*.%.%.%.%.%.%.%.%.%.%.%.#.o.S Z o.@.%.$.@... .Z B C A A A A A A A Z m ",
"M S ..@.%.%.%.%.%.%.%.%.&.=.=.=.=.=.=.....%.8.d.s.s.s.s.w.=.u.j.s.s.s.p.*.%... .+.%.=.=.&.%.%.+...o.+.+.+.+.@.+.+...m ",
"M ..,.h.l.l.l.k.0.8.s.l.l.k.l.l.k.w.*...@.*.0.c.v.v.v.v.z.k.c.v.v.v.v.c.l.u.+. .%.t.l.k.l.l.k.h.t.&.&.&.&.&.&.%.@...m ",
"N @.0.v.v.v.v.m.n.z.v.m.v.v.v.v.v.z.e...%.7.k.c.c.c.v.v.v.v.v.v.v.m.M.M.m.v.9.@.t.z.v.v.v.m.b.b.m.n.n.x.l.l.l.0.*.@.M ",
"Z %.w.z.z.z.z.x.v.x.x.x.x.z.z.z.z.z.e.@.%.*.7.0.0.0.u.z.z.z.z.z.x.v.v.v.x.x.q.%.8.0.0.e.l.v.n.x.v.v.v.x.x.x.z.l.l.q.C ",
"O.@.#.$.$.$.$.$.$.$.$.$.$.$.$.$.$.$.#.@.@.@.@.@.@.@.#.$.$.$.$.$.$.$.$.$.$.$.#.@.@.@.@.@.$.>.<.$.$.$.$.$.$.$.$.>.>.$.X."
};
