/* XPM */
static char *ZXpnaWYuY29tLWdpZi1tYWtlci0z_34[] = {
/* columns rows colors chars-per-pixel */
"59 75 256 2 ",
"   c #14110F",
".  c #151210",
"X  c #191614",
"o  c #171915",
"O  c #191916",
"+  c #1C1C1A",
"@  c #211E1C",
"#  c #1E211D",
"$  c #24221E",
"%  c #28221F",
"&  c #1C1F22",
"*  c #201F20",
"=  c #1E2125",
"-  c #1D242B",
";  c #1F2933",
":  c #242422",
">  c #2A2522",
",  c #252A24",
"<  c #2C2A26",
"1  c #2C2C2A",
"2  c #302A27",
"3  c #342D2A",
"4  c #2D322B",
"5  c #2F392E",
"6  c #32322E",
"7  c #39322E",
"8  c #31382F",
"9  c #212B35",
"0  c #212F3A",
"q  c #22323E",
"w  c #343433",
"e  c #3D3532",
"r  c #353A34",
"t  c #383937",
"y  c #3C3C3B",
"u  c #413936",
"i  c #403F3E",
"p  c #364134",
"a  c #394337",
"s  c #3C443B",
"d  c #3E493C",
"f  c #414F3F",
"g  c #243644",
"h  c #253947",
"j  c #273B4D",
"k  c #263B50",
"l  c #293F53",
"z  c #2A4253",
"x  c #2C465E",
"c  c #2C485F",
"v  c #2C4760",
"b  c #2E4B64",
"n  c #2F4E69",
"m  c #304D66",
"M  c #304F6A",
"N  c #2F506C",
"B  c #30516D",
"V  c #325573",
"C  c #335877",
"Z  c #345B7B",
"A  c #395F7E",
"S  c #434443",
"D  c #464945",
"F  c #484946",
"G  c #4B4B4B",
"H  c #465543",
"J  c #4F504F",
"K  c gray33",
"L  c gray35",
"P  c gray38",
"I  c #365F80",
"U  c #366184",
"Y  c #3A6485",
"T  c #37658A",
"R  c #38668B",
"E  c #37688F",
"W  c #39698F",
"Q  c #3B6C93",
"!  c #3B6F98",
"~  c #3F7097",
"^  c #3D729B",
"/  c #3D75A1",
"(  c #3E79A6",
")  c #3E7AA9",
"_  c #416F92",
"`  c #417194",
"'  c #42749A",
"]  c #447599",
"[  c #42749B",
"{  c #467A9F",
"}  c #4378A1",
"|  c #467BA1",
" . c #457CA6",
".. c #477EA7",
"X. c #437AA4",
"o. c #497DA3",
"O. c #4A7FA6",
"+. c #407CAA",
"@. c #407DAC",
"#. c #4680AB",
"$. c #4380AE",
"%. c #4A81AA",
"&. c #4B84AE",
"*. c #4982AC",
"=. c #4583B1",
"-. c #4684B2",
";. c #4B87B2",
":. c #4C87B3",
">. c #4887B5",
",. c #4C88B3",
"<. c #4B88B5",
"1. c #4F8BB7",
"2. c #4B8AB8",
"3. c #4D8BB8",
"4. c #4D8DBB",
"5. c #518CB6",
"6. c #508DB9",
"7. c #518FBC",
"8. c #4F90BE",
"9. c #5291BE",
"0. c #5191BE",
"q. c #5595C3",
"w. c #5394C2",
"e. c #5798C6",
"r. c #579AC8",
"t. c #5B9DCB",
"y. c #609FC9",
"u. c #5DA0CD",
"i. c #62A3CD",
"p. c #64A6D0",
"a. c #67A8D1",
"s. c #68A9D2",
"d. c None",
"f. c black",
"g. c black",
"h. c black",
"j. c black",
"k. c black",
"l. c black",
"z. c black",
"x. c black",
"c. c black",
"v. c black",
"b. c black",
"n. c black",
"m. c black",
"M. c black",
"N. c black",
"B. c black",
"V. c black",
"C. c black",
"Z. c black",
"A. c black",
"S. c black",
"D. c black",
"F. c black",
"G. c black",
"H. c black",
"J. c black",
"K. c black",
"L. c black",
"P. c black",
"I. c black",
"U. c black",
"Y. c black",
"T. c black",
"R. c black",
"E. c black",
"W. c black",
"Q. c black",
"!. c black",
"~. c black",
"^. c black",
"/. c black",
"(. c black",
"). c black",
"_. c black",
"`. c black",
"'. c black",
"]. c black",
"[. c black",
"{. c black",
"}. c black",
"|. c black",
" X c black",
".X c black",
"XX c black",
"oX c black",
"OX c black",
"+X c black",
"@X c black",
"#X c black",
"$X c black",
"%X c black",
"&X c black",
"*X c black",
"=X c black",
"-X c black",
";X c black",
":X c black",
">X c black",
",X c black",
"<X c black",
"1X c black",
"2X c black",
"3X c black",
"4X c black",
"5X c black",
"6X c black",
"7X c black",
"8X c black",
"9X c black",
"0X c black",
"qX c black",
"wX c black",
"eX c black",
"rX c black",
"tX c black",
"yX c black",
"uX c black",
"iX c black",
"pX c black",
"aX c black",
"sX c black",
"dX c black",
"fX c black",
"gX c black",
"hX c black",
"jX c black",
"kX c black",
"lX c black",
"zX c black",
"xX c black",
"cX c black",
"vX c black",
"bX c black",
"nX c black",
"mX c black",
"MX c black",
"NX c black",
"BX c black",
"VX c black",
"CX c black",
"ZX c black",
"AX c black",
"SX c black",
"DX c black",
"FX c black",
"GX c black",
"HX c black",
"JX c black",
"KX c black",
"LX c black",
"PX c black",
"IX c black",
"UX c black",
/* pixels */
"d.d.d.d.d.d.d.d.d.d.d.d.d.d.d.d.d.d.d.d.d.d.d.d.d.d.d.d.d.d.d.d.d.d.d.d.d.d.d.d.d.d.d.d.d.d.d.d.d.d.d.d.d.d.d.d.d.d.d.",
"d.d.d.d.d.d.d.d.d.d.d.d.d.d.d.d.d.d.d.d.d.d.d.d.d.d.b v v v v v d.d.d.d.d.d.d.d.d.d.d.d.d.d.d.d.d.d.d.d.d.d.d.d.d.d.d.",
"d.d.d.d.d.d.d.d.d.d.d.d.d.d.d.d.d.d.d.d.d.d.d.x v b U Q V U Q Q B v x x d.d.d.d.d.d.d.d.d.d.d.d.d.d.d.d.d.d.d.d.d.d.d.",
"d.d.d.d.d.d.d.d.d.d.d.d.d.d.d.d.d.d.d.d.d.n n b Z ^ / ) Z ! ) ( ^ R n b n b d.d.d.d.d.d.d.d.d.d.d.d.d.d.d.d.d.d.d.d.d.",
"d.d.d.d.d.d.d.d.d.d.d.d.d.d.d.d.d.d.d.x V ^ ^ ^ / @.$.@.Z %.>.$.$.( ^ ^ ^ U v x d.d.d.d.d.d.d.d.d.d.d.d.d.d.d.d.d.d.d.",
"d.d.d.d.d.d.d.d.d.d.d.d.d.d.d.d.d.d.x V ^ ) =.=.=.<.7.q.U O.0.7.4.=.=.=.@.( U b x d.d.d.d.d.d.d.d.d.d.d.d.d.d.d.d.d.d.",
"d.d.d.d.d.d.d.d.d.d.d.d.d.d.d.d.x n n ^ =.>.4.6.6...Q %.A Z Q Q ^ 1.6.6.1.-.+.Z V m x d.d.d.d.d.d.d.d.d.d.d.d.d.d.d.d.",
"d.d.d.d.d.d.d.d.d.d.d.d.d.d.x N Z Q V  .4.&.Q Q Q R U U V b Z U T Q Q Q } 1.<.Z o.W V v d.d.d.d.d.d.d.d.d.d.d.d.d.d.d.",
"d.d.d.d.d.d.d.d.d.d.d.d.d.V Z Q ) =.` ] Q W W T U Z V V Z M V C Z U T W W W ' ` 5.=./ I Z v d.d.d.d.d.d.d.d.d.d.d.d.d.",
"d.d.d.d.d.d.d.d.d.d.d.x n Q ) ) -.:.%.Z Z U U Z V V V V V b V V V V Z U U Z V ' :.<.+.) / Z x d.d.d.d.d.d.d.d.d.d.d.d.",
"d.d.d.d.d.d.d.d.d.d.x n Q ) =.4.;.! R I B B V V V V B n n v b M V V V V B n C T W ..3.2.+./ Z x d.d.d.d.d.d.d.d.d.d.d.",
"d.d.d.d.d.d.d.d.d.x n Q ) =.;...! U Z C V M B V b b v g ; ; 9 x b b B B n V V Z I R | %.<.+./ Z x d.d.d.d.d.d.d.d.d.d.",
"d.d.d.d.d.d.d.d.d.n Q ) =.;.~ R U C V b b v x l - - ; = + + + - - - q v v b b B V Z T Q ..<.+./ Z x d.d.d.d.d.d.d.d.d.",
"d.d.d.d.d.d.d.d.n Q ) =.;.~ U Z Z V v 9 - - - = @ @ @ @ > < % @ @ @ @ - - - - j B V Z Z W ..<.) / Z d.d.d.d.d.d.d.d.d.",
"d.d.d.d.d.d.d.x V / =.,.! R I V B x 9 @ > % > % 2 2 3 3 3 3 3 3 3 2 > % > % % & j B V Z T W ..<.@.U v d.d.d.d.d.d.d.d.",
"d.d.d.d.d.d.x b | -.,.! U Z C b 9 = $ < 3 3 e 2 < 7 e e e e e e e 3 > 7 7 3 3 > = - l V Z Z W ..>.#.A x d.d.d.d.d.d.d.",
"d.d.d.d.d.d.n n C %.Q I U V v 9 % > 2 3 7 7 e 3 > > X O O O O X @ 3 > e e 7 7 3 < > : l V Z U U ^ U M n b d.d.d.d.d.d.",
"d.d.d.d.d.V Q ^ Z V T U C b 9 > 7 2 2 7 e 3 X X X . . . . . . . . X . X > 7 7 3 > 7 2 : l V Z W Z B Q / Z d.d.d.d.d.d.",
"d.d.d.d.v E ) =.%.C I U b 9 @ 2 7 < @ X . . . . . . . . . . . . . . . . . X X O > 3 3 % = z Z U V _ <.+./ B d.d.d.d.d.",
"d.d.d.d.V Q ) 0.~ Z M b q @ < 7 3 + . . . . . . . . . . . . . . . . . . . . . . . > 7 3 % - x M V T ,.>.( I b d.d.d.d.",
"d.d.d.x R ^ #.;.Q C V h + < 7 3 > O . . . . . . . . . . . . . . . . . . . . . . . . > 7 3 % - b V U ..<.@./ B d.d.d.d.",
"d.d.d.x U Q 6.^ T V v ; @ 7 3 > w $   . . . . . . . . . . . . . . . . . . . . . . 1 : < 7 > & j B U T :.-./ B d.d.d.d.",
"d.{ x x Z T 1.^ I V j + % 7 % 1 y : o . . . . . . . . . . . . . . . . . . . . . : F 6 O 3 < O ; n Z U ,.-./ M x Z r.d.",
"t.6.` V V Z ,.^ Z V j + % < @ 1 y : O O . . . . . . . . . . . . . . . . . . . O : S F @ < > @ ; n V U 1.-.T n T %.t.d.",
"Y Q ;...V V ,.^ U V j $ e < < t 1 # + O . . . . . . . . . . . . . . . . . . O + o : S 6 : 7 < ; n Z R 1.#.V W 1.{ Y d.",
"x V ! ;.Y V ,.^ Z V j @ e < $ , 1 , + O . . . . . . . . . . . . . . . . . . + + , + $ 4 , e < ; n Z T 1._ B *.} U v d.",
"x Z Q Q T B O.Q V B j @ 3 > O 4 y , + + . . . . . . . . . . . . . . . . . o + + 1 + + 1 , 7 > ; n V I *.A Z Q W R v d.",
"d.b n B B N C V B M j @ 7 < O w y : + + . . . . . . . . . . . . . . . . . X + o S t # 4 1 e > ; v b n V B B B V V v d.",
"d.x V T Q ^ Q Q ! R j @ 7 < O 4 t : + O . . . . . . . . . . . . . . . . . O o # S S r a 1 e > ; n V Z U Q ^ ^ ^ Q d.d.",
"d.x V U U Z V V V V j + 3 % O 4 4 1 +   . . . . . . . . . . . . . . . . .     t 4 4 w p < 3 > ; b V V V V I U Z n d.d.",
"d.d.v v b b b b v b j + > % O : < , o . . . . . . . . . . . . . . . . . .     + O , # 4 < < @ ; v v v b b b v v x d.d.",
"d.d.d.x B V V V b B j + > % o , t w , : O . . . . . . . . . . . . . . . . . + w y 1 + r < < @ ; M n M V V Z b d.d.d.d.",
"d.d.d.x V I Z V b B j + < % o S K y 1 , @ X . . . . . . . . . . . . . . . + : K K S < r < 2 % ; n M B Z I U b d.d.d.d.",
"d.d.d.x Z W U Z b B j + > @ o G K S t < : + . . . . . . . . . . . . . . X @ : G J L y p , > % ; n n V T Q [ B d.d.d.d.",
"d.d.d.x U Q Q | V Z j @ 3 % O S L G w < : + . . . . . . . . . . . . . . X @ w G L P y p < 3 > ; V B Z W ^ 6.V d.d.d.d.",
"d.d.d.x R / ! 1.C I j $ e 2 O r J K t < : + . . . . . . . . . . . . . . X @ t G K F < 4 1 u < ; V V Z W ( 6.V d.d.d.d.",
"d.d.d.x R ) ^ 1.C V j + 3 2 + 6 G L t < : + . . . . . . . . . . . . . . + : t F K r # , < e % ; B B U Q / 4.V d.d.d.d.",
"d.d.d.x T ) ( 1.V B j + 7 < 6 S G L t < : + . . . . . . . . . . . . . X @ , y G K y # 1 4 e > ; n n T ( ( +.B d.d.d.d.",
"d.d.d.x I / ) X.B B j @ 7 > t y S L t < : + . . . . . . . . . . . . . X @ w S G K r + , < e > ; n n T ) ) / B d.d.d.d.",
"d.d.d.x Z / ^ ^ B B j + < % i S S G t 1 > + . . . . . . . . . . . . . X @ w S G G w s F , 2 @ ; n n T ^ / / B d.d.d.d.",
"d.d.d.x Z / Q ^ B B j @ 3 % t y y G S w < + . . . . . . . . . . . . . X @ > y S S w S S : 3 > ; n n T ! / / B d.d.d.d.",
"d.d.d.x Z / ^ ! B B j @ e < : 4 y S 1 , : + . . . . . . . . . . . . . X + $ , 6 y w F S < e > ; n n U ^ / / B d.d.d.d.",
"d.d.d.x Z / $.Q n V j + 3 > $ 1 y 1 . . o O . . . . . . . . . . . . . X + . . 1 y S K D < 3 % ; B B Z / ) / N d.d.d.d.",
"d.d.d.x Z / 0.! N I j + 2 @ O , y 1 + O + . . . . . . . . . . . . . . . O + O w S S S d < 2 > ; V V Z / ) / B d.d.d.d.",
"d.d.d.x Z / 0.! B I j : u 2 O , S S 1 : : O . . . . . . . . . . . . . . + : < y G J S d 1 u 3 ; V V Z / ) / B d.d.d.d.",
"d.d.d.x Z / 0.! N I j @ e 2 O 1 G G y , : @ . . . . . . . . . . . . . X @ : w S L G r d 1 e > ; V V Z / ) / B d.d.d.d.",
"d.d.d.x Z / -.Q n C j + 3 > O w J G y < : @ . . . . . . . . . . . . . X @ , y G L r , s 1 7 > ; B B Z / ) / B d.d.d.d.",
"d.d.d.x Z / W Z b B j + 7 > O , r S y 1 : @ . . . . . . . . . . . . . X : : 1 S S 4 , r 1 7 > ; n n V U / / B d.d.d.d.",
"d.d.d.x U / U Z n V j @ 7 2 O : 4 y t 1 : X . . . . . . . . . . . . . . + : < w 4 : , 4 1 e > ; n M V Z ^ / B d.d.d.d.",
"d.d.d.x I Q Z C n Z j @ 7 < O # $ : < 1 : . . . . . . . . . . . . . . . + : < 4 w $ : 4 1 e > ; V V B Z T Q n d.d.d.d.",
"d.d.x x Z Z V B v b j @ 3 > O # # : 1 1 : . . . . . . . . . . . . . . . + : y y r , , 4 < 3 > 9 b v n V C I b x d.d.d.",
"d.d.x b N N n n b C c $ 3 % O : # , < 1 : . . . . . . . . . . . . . . . O : y y w 4 4 8 < 3 > q Z V n n n B n b v d.d.",
"d.d.x T +.+.+.X.W +.U + 3 % o # # + + < @ . . . . . . . . . . . . . .   O 1 1 : $ , , p < 3 % z @.+.+.+.+.+.+.^ b d.d.",
"d.d.x _ 0.w.w.7.6.0.` + > % . # # o O , o . . . . . . . . . . . . . . . X 1 < + + : , p < < @ z 1.6.6.6.6.6.6.O.m d.d.",
"d.d.Z V I R Q U I U b + % @ . # # O + @ o . . . . . . . . . . . . . . .   < 1 # # , , 4 , > @ 0 B Z I I I I Z B x d.d.",
"d.] ..Z Z V C Z Z Z v + > @ . + # O + + . . . . . . . . . . . . . . . .   $ $ # # : : 1 , < @ q Z Z Z Z Z Z Z Z Y d.d.",
") 0.w.2.2.&.<.2.2.4.W * 7 2 . + # + + . . . . . . . . . . . . . . . . . . . . + # # $ 1 1 e > z 2.2.2.2.2.2.2.4.r.@.) ",
") [ | *.*.<.4.4.4.4.Q * 7 2 O + # # + . . . . . . . . . . . . . . . . . . . o + + # $ 8 1 e > z *.;.4.4.4.3.;.;.' ( ) ",
">.T V R Q ( ( ^ ! ^ C @ e 2 + + # # # . . . . . . . . . . . . . . . . . . . o $ 4 # # p 1 e > g R Q / ^ ! Q Q R V +.4.",
"0.T V W Q ! ! Q T I v @ 7 2 . , , # # . . . . . . . . . . . . . . . . . . . o # 1 5 4 p 1 e > q Z U Q Q W W W U V #.t.",
"8.T V R T T T Z Z V x + < > O 4 , # # . . . . . . . . . . . . . . . . . . . o # # 4 f H 1 3 @ 0 V C Z U R R R U V #.t.",
"w.R n B B B B n n n l + > % 4 r , # # o . . . . . . . . . . . . . . . . . . o # # 4 a a , < @ 9 n n n B B B B N V -.t.",
"t.<.^ ^ ^ ^ ^ ^ ^ / Z + > % < 8 , # + O . . . . . . . . . . . . . . . . . . o # $ 4 r 8 : < @ j / ^ ^ ^ ^ ^ ^ ^ +.e.t.",
"w.q.w.w.w.w.w.w.w.w.` + > @ $ , o o o O . . . . . . . . . . . . . . . . . o + + + # 1 4 $ > + x 0.w.w.w.w.w.0.0.w.q.9.",
"I +.+.+.+.+.+.X.( ^ V + @ O : , + O O . . . . . . . . . . . . . . . . . . . O O + r a 4 $ % + h Q ^ X.+.+.+.^ ! ^ Q M ",
"V Q ( ) ) ) / Q W R B + @ X # # O . . . .                                       . + $ # + + O g R R Q ^ ( ( ( / Q I x ",
"V W ! / / / Q W U Z N = - - - - - - - - - - - - - - - - - - - - - - - - - - - - - - - - - - = h Z Z T W ^ Q ^ ^ Q I v ",
"V W T U U U U U Z C n k b M V n b b b v b b b n B b b b b b b b b b b b b b v v b b b b b b x x C V Z U U U U U W I v ",
"n Z V M M M M M M M b b Z R ^ T I I Z b V Z Z T Q I I I I I I I I I I I I Z b B Z I I I Z C B v M M M M M M M B V V x ",
"v n n V C V V V V V V Z T / ) / ^ ^ ! V V U ^ / / ^ ^ ^ ^ ^ ^ ^ ^ ^ ^ ^ Q T V Z T ^ ^ ^ W U Z V M V C C C C C C C V x ",
"b Z U Q ^ ^ ^ ^ ^ ^ ^ ^ / ) ( ) ) ) ( I U ^ $.4.4.4.4.4.=.) 2.4.4.4.8.<.( Q Z U Q / ) ( ^ ^ ^ R U T W W W W W W Q I x ",
"B T | 0.w.w.w.0.@.@.0.w.w.0.0.0.0.=.( U ^ ) -.t.t.t.t.t.q.w.t.t.t.t.t.t.w.=.U U ^ 3.w.0.w.w.0.5.*./ / / / / / ^ Q I x ",
"V Q 1.t.t.t.t.p.y.q.u.p.t.t.t.t.t.q.+.U / @.w.t.t.t.t.t.t.t.t.t.t.a.s.s.p.e.} Q 3.r.t.t.u.p.t.i.i.y.y.r.w.w.0.+.( W x ",
"Z / <.e.e.e.r.t.t.r.r.r.r.e.r.r.e.e.+.Q / ( #.#.#.$.4.e.e.e.e.e.r.t.t.t.r.r...^ @.#.$.=.q.t.i.r.t.t.t.r.r.r.r.0.0.O.b ",
"T Q ! ^ ^ ^ ^ ^ ^ ^ ^ ^ ^ ^ ^ ^ ^ ^ Q Q Q Q Q Q Q Q ! ^ ^ ^ ^ ^ ^ ^ ^ ^ ' ^ Q Q Q Q Q Q ^ ' ' ^ ^ ^ ^ ^ ^ ^ ^ ' ' Q U "
};
