/* XPM */
static char *ZXpnaWYuY29tLWdpZi1tYWtlci0z_40[] = {
/* columns rows colors chars-per-pixel */
"59 75 256 2 ",
"   c #0E120C",
".  c #15110F",
"X  c #151210",
"o  c #191513",
"O  c #161915",
"+  c #1A1A16",
"@  c #1C1C1A",
"#  c #221E1C",
"$  c #1E211D",
"%  c #24211E",
"&  c #28221F",
"*  c #1D1F22",
"=  c #1D2024",
"-  c #1D242B",
";  c #1D2730",
":  c #1F2A35",
">  c #232422",
",  c #2A2522",
"<  c #252A23",
"1  c #2D2925",
"2  c #212429",
"3  c #2B2C2B",
"4  c #312A26",
"5  c #342D29",
"6  c #2D322C",
"7  c #33332D",
"8  c #39322E",
"9  c #212B35",
"0  c #222E39",
"q  c #22313E",
"w  c #343433",
"e  c #3D3531",
"r  c #343A31",
"t  c #393C34",
"y  c gray23",
"u  c #403734",
"i  c #413935",
"p  c #3D433C",
"a  c #3D493A",
"s  c #404E3E",
"d  c #233442",
"f  c #263A4B",
"g  c #283D4F",
"h  c #273E51",
"j  c #283E51",
"k  c #2A4255",
"l  c #2C465E",
"z  c #304A5E",
"x  c #2D4760",
"c  c #2E4B64",
"v  c #2F4E6A",
"b  c #304D67",
"n  c #304F6A",
"m  c #2F506C",
"M  c #31516E",
"N  c #325573",
"B  c #335877",
"V  c #345B7C",
"C  c #385D7B",
"Z  c #434443",
"A  c #464845",
"S  c #4B4C4B",
"D  c #4F504E",
"F  c #50514F",
"G  c #535353",
"H  c #575857",
"J  c #5A5B5A",
"K  c #5E605E",
"L  c #656765",
"P  c #6D6D6D",
"I  c gray44",
"U  c #365F80",
"Y  c #366184",
"T  c #396384",
"R  c #37658A",
"E  c #38668B",
"W  c #39698E",
"Q  c #3B6C93",
"!  c #3B6F98",
"~  c #3E7097",
"^  c #3D729C",
"/  c #3D75A1",
"(  c #3E79A6",
")  c #3E7BA9",
"_  c #416D8E",
"`  c #426F92",
"'  c #417194",
"]  c #42759B",
"[  c #47789D",
"{  c #4277A0",
"}  c #457AA3",
"|  c #477CA3",
" . c #457CA5",
".. c #477EA7",
"X. c #437AA4",
"o. c #4A7FA5",
"O. c #487CA3",
"+. c #407CA9",
"@. c #407CAA",
"#. c #457EA8",
"$. c #417FAD",
"%. c #427EAC",
"&. c #4A80A7",
"*. c #4680AB",
"=. c #4381AF",
"-. c #4480AE",
";. c #4980AA",
":. c #4B83AD",
">. c #4A84AF",
",. c #4682B0",
"<. c #4684B2",
"1. c #4786B4",
"2. c #4B86B1",
"3. c #4C87B2",
"4. c #4887B4",
"5. c #4B89B6",
"6. c #4F8CB7",
"7. c #4D8AB5",
"8. c #4A89B8",
"9. c #4D8DBB",
"0. c #518CB7",
"q. c #508DB9",
"w. c #518FBC",
"e. c #4F90BE",
"r. c #5291BE",
"t. c #5190BC",
"y. c #5595C2",
"u. c #5394C1",
"i. c #5798C6",
"p. c #5B9DCB",
"a. c #609FC9",
"s. c #5EA1CD",
"d. c #62A3CD",
"f. c #64A5D0",
"g. c #67A8D2",
"h. c #68A9D2",
"j. c None",
"k. c black",
"l. c black",
"z. c black",
"x. c black",
"c. c black",
"v. c black",
"b. c black",
"n. c black",
"m. c black",
"M. c black",
"N. c black",
"B. c black",
"V. c black",
"C. c black",
"Z. c black",
"A. c black",
"S. c black",
"D. c black",
"F. c black",
"G. c black",
"H. c black",
"J. c black",
"K. c black",
"L. c black",
"P. c black",
"I. c black",
"U. c black",
"Y. c black",
"T. c black",
"R. c black",
"E. c black",
"W. c black",
"Q. c black",
"!. c black",
"~. c black",
"^. c black",
"/. c black",
"(. c black",
"). c black",
"_. c black",
"`. c black",
"'. c black",
"]. c black",
"[. c black",
"{. c black",
"}. c black",
"|. c black",
" X c black",
".X c black",
"XX c black",
"oX c black",
"OX c black",
"+X c black",
"@X c black",
"#X c black",
"$X c black",
"%X c black",
"&X c black",
"*X c black",
"=X c black",
"-X c black",
";X c black",
":X c black",
">X c black",
",X c black",
"<X c black",
"1X c black",
"2X c black",
"3X c black",
"4X c black",
"5X c black",
"6X c black",
"7X c black",
"8X c black",
"9X c black",
"0X c black",
"qX c black",
"wX c black",
"eX c black",
"rX c black",
"tX c black",
"yX c black",
"uX c black",
"iX c black",
"pX c black",
"aX c black",
"sX c black",
"dX c black",
"fX c black",
"gX c black",
"hX c black",
"jX c black",
"kX c black",
"lX c black",
"zX c black",
"xX c black",
"cX c black",
"vX c black",
"bX c black",
"nX c black",
"mX c black",
"MX c black",
"NX c black",
"BX c black",
"VX c black",
"CX c black",
"ZX c black",
"AX c black",
"SX c black",
"DX c black",
"FX c black",
"GX c black",
"HX c black",
"JX c black",
"KX c black",
"LX c black",
"PX c black",
"IX c black",
"UX c black",
/* pixels */
"j.j.j.j.j.j.j.j.j.j.j.j.j.j.j.j.j.j.j.j.j.j.j.j.j.j.j.j.j.j.j.j.j.j.j.j.j.j.j.j.j.j.j.j.j.j.j.j.j.j.j.j.j.j.j.j.j.j.j.",
"j.j.j.j.j.j.j.j.j.j.j.j.j.j.j.j.j.j.j.j.j.j.j.j.j.j.j.c c c c c j.j.j.j.j.j.j.j.j.j.j.j.j.j.j.j.j.j.j.j.j.j.j.j.j.j.j.",
"j.j.j.j.j.j.j.j.j.j.j.j.j.j.j.j.j.j.j.j.j.j.j.l c c Y Q N R Q Q v c l l j.j.j.j.j.j.j.j.j.j.j.j.j.j.j.j.j.j.j.j.j.j.j.",
"j.j.j.j.j.j.j.j.j.j.j.j.j.j.j.j.j.j.j.j.j.v v c V ^ / ( N ~ ) ( ^ R c c v j.j.j.j.j.j.j.j.j.j.j.j.j.j.j.j.j.j.j.j.j.j.",
"j.j.j.j.j.j.j.j.j.j.j.j.j.j.j.j.j.j.j.l N ^ ^ ^ / $.=.$.V :.1.=.$.( ^ ^ ^ Y c j.j.j.j.j.j.j.j.j.j.j.j.j.j.j.j.j.j.j.j.",
"j.j.j.j.j.j.j.j.j.j.j.j.j.j.j.j.j.j.x N ^ ) ,.,.,.5.r.y.T &.r.w.9.,.,.,.$.( U c j.j.j.j.j.j.j.j.j.j.j.j.j.j.j.j.j.j.j.",
"j.j.j.j.j.j.j.j.j.j.j.j.j.j.j.j.l v v ^ ,.4.q.q.q...Q ;.C V Q Q ] 6.q.q.5.<.@.N N c j.j.j.j.j.j.j.j.j.j.j.j.j.j.j.j.j.",
"j.j.j.j.j.j.j.j.j.j.j.j.j.j.l M V Q N #.9.:.Q Q Q E Y T N c V Y E Q Q Q } 7.5.C o.E N x j.j.j.j.j.j.j.j.j.j.j.j.j.j.j.",
"j.j.j.j.j.j.j.j.j.j.j.j.j.N V Q ) ,.' ] Q W W E Y V N N V n N B V Y R W W W ] ` q.,./ V N j.j.j.j.j.j.j.j.j.j.j.j.j.j.",
"j.j.j.j.j.j.j.j.j.j.j.l v Q ) ) <.3.;.V V Y Y V N N N N B c N B N N V Y Y V N ] 3.5.@.) / B l j.j.j.j.j.j.j.j.j.j.j.j.",
"j.j.j.j.j.j.j.j.j.j.l v Q ) <.9.>.! E U M M N N N N M v v c c M N N N N M v V E W ..9.8.) ^ B l j.j.j.j.j.j.j.j.j.j.j.",
"j.j.j.j.j.j.j.j.j.l v Q ) <.2...! Y V B N n M N c c c d : : 0 l c c M M v N N V U E } :.5.) ^ V l j.j.j.j.j.j.j.j.j.j.",
"j.j.j.j.j.j.j.j.j.v Q ) <.2.! E Y B N c c c x g - - - * @ @ @ - - - q c x c c M N V E Q #.5.) ^ B j.j.j.j.j.j.j.j.j.j.",
"j.j.j.j.j.j.j.j.v Q ) <.2.! Y V B N l : - - - = # # # # , 1 % # # # @ - - - - g N B V V Q #.5.) ^ V j.j.j.j.j.j.j.j.j.",
"j.j.j.j.j.j.j.c N ( <.2.! E V N M l - # , % , % 4 4 5 5 5 5 5 5 4 4 , % , & % = g M N V E W #.5.) Y c j.j.j.j.j.j.j.j.",
"j.j.j.j.j.j.l b | <.2.! Y V B c 9 = % 4 5 5 e 1 1 8 e e e e e e e 5 , 8 8 5 5 & = - k N V V W ..4.*.C l j.j.j.j.j.j.j.",
"j.j.j.j.j.j.v v V ;.Q U U N c 9 > , 4 8 8 8 e 4 , , o O O O + + # 5 , e e 8 8 5 1 , 2 k N V Y T ~ U n v j.j.j.j.j.j.j.",
"j.j.j.j.j.N ! ^ V N E Y N c 9 , 8 1 4 8 e 4 o o o o X X X X X X X o o o , 8 8 5 , 8 4 2 k N V W V M Q / V j.j.j.j.j.j.",
"j.j.j.j.c Q ) <.;.B U Y c 9 # 4 8 1 # o o o X X X X X X X X X X X X X X X o o + , 8 5 % = k V Y N ' 4.@./ M j.j.j.j.j.",
"j.j.j.j.N Q @.r.! V n c 0 # 1 8 5 + X X X X X X X X X X X X X X X X X X X X X X o 1 8 5 % - l n N E 7.<.( V j.j.j.j.j.",
"j.j.j.x W ! -.>.W B N d @ 1 8 5 @ X X X X X X X X X X X X X X X X X X X X X X X X o 1 8 5 % - v N Y ..5.$.^ v j.j.j.j.",
"j.j.j.l Y ! q.~ E N l ; # 8 5 @ X X X X X X X X X X X X X X X X X X X X X X X X X X o 1 8 , * j N Y E 7.<.^ v j.j.j.j.",
"j.] l l V E 0.~ U N f @ % 8 % X X X X X X X X X X X X X X X X X X X X X X X X X X X X + 8 1 O : n V Y 7.<./ v l C j.j.",
"j.0.! N N V 7.! B N f @ % 1 # X X X X X X X X X X X X X X X X X X X X X X X X X X O y # 1 , @ : n N Y 9.,.R v E ;.p.j.",
"j.Q 2.X.N B 7.~ Y N f > e , 7 < O @ o X X X X X X X X X X X X X X X X X X X X X O O 6 y , 8 , 9 n V E 9.%.N Q 7.] T j.",
"j.N ~ 2.T N 7.~ V N f > e , @ @ @ $ o X X X X X X X X X X X X X X X X X X X X O $ O O 3 3 i , : n V E 6.Q N >.{ U l j.",
"j.V Q Q T M ;.Q N M f # 5 & O D w @ @ o X X X X X X X X X X X X X X X X X X X @ $ + X % r 8 , : v N Y >.C V Q W R c j.",
"j.c v M M m B N M v f # 8 , O K w @ $ o X X X X X X X X X X X X X X X X X X X @ < 6 > > t e , 9 c c v N M M M N M c j.",
"j.l N E Q ! Q Q ! R f # 8 , O G t @ $ o X X X X X X X X X X X X X X X X X X X @ $ @ Z 3 t e , : v N V Y Q ^ ^ ^ Q j.j.",
"j.j.N Y Y V N N N N f # 5 % O F J $ O o X X X X X X X X X X X X X X X X X X X O @ > y 3 t 5 % : c N N N N Y Y V v j.j.",
"j.j.c c c c c c c c f @ , % O w G 3   . X X X X X X X X X X X X X X X X X X X   @ A > $ t 4 @ 9 c c c c c c c c x j.j.",
"j.j.j.l M N N N c M f @ , % X . Z Z @ X X X X X X X X X X X X X X X X X X X X @ p G @ @ 7 4 @ : n v M N N V c j.j.j.j.",
"j.j.j.l N U B N c M f @ 1 % X   Z y 3 @ X X X X X X X X X X X X X X X X X X X y J G w @ 7 5 # : n v M V U Y c j.j.j.j.",
"j.j.j.l V W Y V c M f @ , # X y J y 3 > @ X X X X X X X X X X X X X X X X X @ A J J G > 7 , # : n v N E Q ] M j.j.j.j.",
"j.j.j.l Y Q Q } M V f % 5 % o P I w 3 < > X X X X X X X X X X X X X X X X X > y G J G > r 8 , : N M V W ^ 0.N j.j.j.j.",
"j.j.j.l W / ! 7.B U f > u 1 O L P A w < > X X X X X X X X X X X X X X X X X # 3 S G w > t i 1 : B N V Q ( q.N j.j.j.j.",
"j.j.j.l W ) ~ 7.N N f @ 5 1 O S J H w < > X X X X X X X X X X X X X X X X O > 3 S G $ $ 7 e # : M M Y Q ( 9.N j.j.j.j.",
"j.j.j.l W ) ( 7.M M f @ 8 1 O % A H w < % X X X X X X X X X X X X X X X X @ 3 3 S G $ $ 7 e % : n v R ( ) X.M j.j.j.j.",
"j.j.j.l U / ) X.M M f # 8 , O O A G w < > X X X X X X X X X X X X X X X X @ 3 3 S G @ $ 6 e , : n v R ) ) ^ v j.j.j.j.",
"j.j.j.l V / ^ ^ v M f @ 1 % A J G y 3 3 > X X X X X X X X X X X X X X X X @ 3 3 w S < J w 5 # : n v R ^ / / v j.j.j.j.",
"j.j.j.l V / Q ^ v M f # 5 % y J y 3 3 3 > X X X X X X X X X X X X X X X X @ 3 3 5 Z > S 7 5 , : n v R ! / / v j.j.j.j.",
"j.j.j.l V / ^ Q v M f # e , y J y < < < @ X X X X X X X X X X X X X X X X @ 3 3 , 3 3 S t e , : n v R ^ / / v j.j.j.j.",
"j.j.j.l V / -.W v N f @ 5 , w G y X   @ o X X X X X X X X X X X X X X X X X @ O X 3 G S t 8 % : M M V / ) / v j.j.j.j.",
"j.j.j.l V ( r.Q M U f # 4 # % A y @ O o X X X X X X X X X X X X X X X X X X O @ @ 3 S r t 4 > : B N V / ) / v j.j.j.j.",
"j.j.j.l V ( r.Q M U f > i 1 % A A w 3 o X X X X X X X X X X X X X X X X X X > 3 3 y G r t i 1 : B N V / ) / v j.j.j.j.",
"j.j.j.l V ( u.Q M U f # e 1 % A J y 3 o X X X X X X X X X X X X X X X X X o > 3 y G y 6 t i , : B N V / ) / v j.j.j.j.",
"j.j.j.l V / <.W v B f # 8 , % A J y 3 > o X X X X X X X X X X X X X X X X @ > 3 S G @ 3 t 8 , : N M V / ) / v j.j.j.j.",
"j.j.j.l V / W V c M f # 8 , % 3 A y 3 3 o X X X X X X X X X X X X X X X X o % 3 S G $ 3 t e , : n v N Y / / v j.j.j.j.",
"j.j.j.l R / U V c N f # e 1 % < A S w 3 o X X X X X X X X X X X X X X X X X > 3 S 7 > 6 t i , : n v N V ^ / v j.j.j.j.",
"j.j.j.l Y Q V B v V f # e , % < > w w 3 o X X X X X X X X X X X X X X X X X > A G $ $ < t e , : N M N V E W c j.j.j.j.",
"j.j.j.l V V N M c c f # 5 % % > X y w 3 o X X X X X X X X X X X X X X X X X > S H % < 6 t 8 , 9 c c n N B U c l j.j.j.",
"j.j.l c m m v v c V l % 5 % $ > O Z w 3 o X X X X X X X X X X X X X X X X X > S D 6 3 6 t 5 , d V M v v v M v c c j.j.",
"j.j.l E @.@.@.X.W @.Y # 5 % @ $ O > 3 3 o X X X X X X X X X X X X X X X X X > A > < < < t 5 % k $.@.@.@.@.@.@.~ c j.j.",
"j.j.l ' r.u.u.w.q.r._ @ , % O $ $ X < < o X X X X X X X X X X X X X X X X X > 3 O < < < t 4 + l 7.q.q.q.q.q.q.O.c j.j.",
"j.j.B N U E Q Y U Y c @ , # O $ $ X > o X X X X X X X X X X X X X X X X X X > 3 O < < 3 r , @ q N V U U V U V M l j.j.",
"j.[ } V V N V V V V l @ , # O $ $ X > o X X X X X X X X X X X X X X X X X X @ 3 O < % < r 4 # d V V V V V V V V E j.j.",
"j.u.u.8.8.:.5.8.8.9.W % e 1 O $ $ O @ o X X X X X X X X X X X X X X X X X X X @ O % $ < t e & l 8.8.8.8.8.8.8.9.i.j.j.",
") ] } :.:.5.9.9.9.9.W % e 1 % $ @ $ @ X X X X X X X X X X X X X X X X X X X X O $ $ $ > t e , k :.5.9.9.9.8.2.2.] ( ) ",
"4.Y N W Q ( ( ^ ! ^ N # e , < < $ $ $ o X X X X X X X X X X X X X X X X X X X @ $ $ @ > t i , f W Q / ^ ! Q Q R N $.9.",
"9.Y N W Q ! ! Q E U c # e 1 @ $ $ $ $ o X X X X X X X X X X X X X X X X X X X @ $ > r > t i , d V Y Q Q W W Q Y N <.p.",
"9.Y N E E E E V V N k @ 4 & % < $ $ $ o X X X X X X X X X X X X X X X X X X X @ $ > a s t 5 # q N B V Y E E E U N ,.p.",
"e.R v M M M M v v v j @ , # < 3 $ $ $ o X X X X X X X X X X X X X X X X X X X @ $ > t a 7 1 @ 0 v v v M M M M v N 2.p.",
"p.5.^ ^ ^ ^ ^ ^ ^ / V @ , % < < $ O @ o X X X X X X X X X X X X X X X X X X X @ @ < 7 r 6 1 + h / ^ ^ ^ ^ ^ ^ ^ #.i.p.",
"u.y.u.u.u.u.u.u.u.u._ @ , # @ > O o @ o X X X X X X X X X X X X X X X X X X X @ @ @ > 6 3 1 + z r.u.u.u.u.u.r.r.u.y.t.",
"Y +.@.@.@.@.@.X./ ! M @ % + < < @ o X X X X X X X X X X X X X X X X X X X X X X o 3 a 7 3 % + f ! ^ X.@.@.@.~ ! ~ Q n ",
"N Q ( ) ) ) / Q W E m @ # o % $ X X X . . . . . . . . . . . . . . . . . . . . X . o o O % # + f E E Q ^ ( / ( / Q V l ",
"N W ! / / ^ Q W Y V v = - - - - - - - - - - - - - - - - - - - - - - - - - - - - - - - - - - = f V V E Q ~ Q ^ ^ Q V l ",
"N W E Y Y Y Y Y V B c h c n N v c c c x c c c v M c c c c c c c c c c c c c c c c c c c c c l l B N V Y Y Y Y Y W V l ",
"v V N n n n n n n n c c V E ^ E U U V c N V V E W U U U U U U U U U U U U V c M V U U U V N M c n n n n n n n M B M l ",
"c v n N B N N N N N N V E / ) / ^ ^ Q N N R ^ / / ^ ^ ^ ^ ^ ^ ^ ^ ^ ^ ^ Q R N V E ^ ^ ^ E Y V N n N B B B B B B B M l ",
"v V Y Q ^ ^ ^ ^ ^ ^ ^ ^ / ) ) ) ) ) / V Y ^ =.9.9.9.9.9.=.) 9.9.9.9.e.4.( Q V Y Q / ) ( ^ ^ ^ E Y E W W W W Q W Q V l ",
"M E  .r.u.u.u.9.$.=.r.u.u.r.r.r.r.=./ Y ^ ) 4.p.p.p.p.p.u.u.p.p.p.p.p.i.u.-.Y Y ^ 9.u.r.u.u.w.0.-./ / / / / / ^ Q V l ",
"N Q 8.p.p.p.p.f.p.y.s.f.p.p.p.p.p.u.X.Y / =.u.p.p.p.p.p.p.p.p.p.s.g.h.h.f.i.] ! 8.p.p.p.s.f.p.d.d.a.a.y.u.u.r.@.( E l ",
"V / 5.i.i.i.i.p.p.i.i.i.i.i.i.i.i.y.@.Q / ) -.-.-.=.9.i.i.i.i.i.i.p.p.p.i.i...^ $.-.=.<.y.p.d.i.p.p.p.i.i.i.i.r.u.} c ",
"E Q ! ~ ~ ~ ~ ~ ~ ~ ~ ~ ] ] ] ] ~ ~ Q Q Q Q Q Q Q Q ! ~ ~ ~ ~ ~ ~ ~ ~ ~ ~ ~ Q Q Q Q Q Q ~ ] ] ~ ~ ~ ~ ~ ] ] ~ ] ] Q Y "
};
