/* XPM */
static char *ZXpnaWYuY29tLWdpZi1tYWtlci0z_44[] = {
/* columns rows colors chars-per-pixel */
"59 75 129 2 ",
"   c #0F120C",
".  c #15110F",
"X  c #151210",
"o  c #191614",
"O  c #161915",
"+  c #1A1916",
"@  c #1C1D1A",
"#  c #211D1B",
"$  c #1E221D",
"%  c #23211E",
"&  c #28221F",
"*  c #1D1F21",
"=  c #1F2122",
"-  c #1D252B",
";  c #1F282F",
":  c #1F2A34",
">  c #232422",
",  c #2B2522",
"<  c #252A24",
"1  c #2D2925",
"2  c #222629",
"3  c #2B2C2A",
"4  c #312A27",
"5  c #332D29",
"6  c #2E322C",
"7  c #34322D",
"8  c #39312E",
"9  c #32382F",
"0  c #202B35",
"q  c #222F3B",
"w  c #23313D",
"e  c #343433",
"r  c #3D3532",
"t  c #353A32",
"y  c #3C3935",
"u  c #3C3D3B",
"i  c #413A36",
"p  c #384237",
"a  c #3F403E",
"s  c #3F4C3D",
"d  c #243542",
"f  c #273845",
"g  c #293A47",
"h  c #253748",
"j  c #273A4C",
"k  c #283B4B",
"l  c #273D51",
"z  c #283F53",
"x  c #294156",
"c  c #2C465E",
"v  c #2D4760",
"b  c #2E4B64",
"n  c #2F4E69",
"m  c #304F6A",
"M  c #2F506C",
"N  c #30516E",
"B  c #325573",
"V  c #335877",
"C  c #345B7B",
"Z  c #395E7C",
"A  c #434443",
"S  c #474847",
"D  c #4C4C4C",
"F  c #535353",
"G  c #5B5C5B",
"H  c #626262",
"J  c #365F80",
"K  c #366184",
"L  c #3A6486",
"P  c #376489",
"I  c #38668B",
"U  c #37688E",
"Y  c #3A698E",
"T  c #3A6C93",
"R  c #3B6F98",
"E  c #3D729C",
"W  c #3D76A2",
"Q  c #3E79A6",
"!  c #3E7AA8",
"~  c #447497",
"^  c #427195",
"/  c #40729A",
"(  c #46779B",
")  c #41769E",
"_  c #42759C",
"`  c #46799E",
"'  c #4177A0",
"]  c #4378A0",
"[  c #477BA1",
"{  c #457BA4",
"}  c #477EA7",
"|  c #437BA4",
" . c #487EA5",
".. c #407DAB",
"X. c #477EA8",
"o. c #427FAD",
"O. c #427DAA",
"+. c #4280AE",
"@. c #4581AF",
"#. c #4880AA",
"$. c #4A82AC",
"%. c #4A83AC",
"&. c #4482B0",
"*. c #4684B2",
"=. c #4786B4",
"-. c #4B87B2",
";. c #4C87B3",
":. c #4987B4",
">. c #4F88B1",
",. c #4A88B6",
"<. c #4C89B4",
"1. c #4B8BB9",
"2. c #4D8DBB",
"3. c #4D8CBA",
"4. c #508CB7",
"5. c #508DB9",
"6. c #518FBC",
"7. c #4F90BE",
"8. c #5291BE",
"9. c #5595C2",
"0. c #5394C2",
"q. c #5798C6",
"w. c #599AC6",
"e. c #5A9DCA",
"r. c #5DA0CE",
"t. c #62A2CC",
"y. c #64A6D1",
"u. c #68A9D2",
"i. c black",
/* pixels */
"i.i.i.i.i.i.i.i.i.i.i.i.i.i.i.i.i.i.i.i.i.i.i.i.i.i.i.i.i.i.i.i.i.i.i.i.i.i.i.i.i.i.i.i.i.i.i.i.i.i.i.i.i.i.i.i.i.i.i.",
"i.i.i.i.i.i.i.i.i.i.i.i.i.i.i.i.i.i.i.i.i.i.i.i.i.i.b b b b b b i.i.i.i.i.i.i.i.i.i.i.i.i.i.i.i.i.i.i.i.i.i.i.i.i.i.i.",
"i.i.i.i.i.i.i.i.i.i.i.i.i.i.i.i.i.i.i.i.i.i.i.c b b C R B J R T B b c c i.i.i.i.i.i.i.i.i.i.i.i.i.i.i.i.i.i.i.i.i.i.i.",
"i.i.i.i.i.i.i.i.i.i.i.i.i.i.i.i.i.i.i.i.i.n n b V R W ! C T ..Q E T n n n n i.i.i.i.i.i.i.i.i.i.i.i.i.i.i.i.i.i.i.i.i.",
"i.i.i.i.i.i.i.i.i.i.i.i.i.i.i.i.i.i.i.c B R E E W ..+.o.K [ ,.+.o.! E E E P b c i.i.i.i.i.i.i.i.i.i.i.i.i.i.i.i.i.i.i.",
"i.i.i.i.i.i.i.i.i.i.i.i.i.i.i.i.i.i.c N R ! &.&.&.:.5.9.Y ` 8.5.3.*.&.&.+.Q P b c i.i.i.i.i.i.i.i.i.i.i.i.i.i.i.i.i.i.",
"i.i.i.i.i.i.i.i.i.i.i.i.i.i.i.i.c n n T &.:.3.5.5.#.T } P V U T E <.5.5.<.*...C N m c i.i.i.i.i.i.i.i.i.i.i.i.i.i.i.i.",
"i.i.i.i.i.i.i.i.i.i.i.i.i.i.c n C T C ) 3.;.T T T I K K C n C K L U T T ) <.,.L ( T B b i.i.i.i.i.i.i.i.i.i.i.i.i.i.i.",
"i.i.i.i.i.i.i.i.i.i.i.i.i.N C T Q @./ ~ T U U I K C B B C N N B V K K U U U ^ ^ >.=.W K C b i.i.i.i.i.i.i.i.i.i.i.i.i.",
"i.i.i.i.i.i.i.i.i.i.i.c n U ! ! &.;.$.K V J K C B B B B B n N B B B C K K C B ^ ;.,.o.! W C b i.i.i.i.i.i.i.i.i.i.i.i.",
"i.i.i.i.i.i.i.i.i.i.c n U Q &.3.-.E I K N m B B B B B n n b n m B B B B B n B P U [ <.1.o.W C b i.i.i.i.i.i.i.i.i.i.i.",
"i.i.i.i.i.i.i.i.i.c n U Q &.-.X.E K C V B N m B n n b h : : 0 z n n m B n N B C C P ] #.,.o.W C v i.i.i.i.i.i.i.i.i.i.",
"i.i.i.i.i.i.i.i.i.n U Q &.-./ I K C B n b b v x : ; ; = @ @ @ - ; ; q c c b b N B C P U { ,.o.W C b i.i.i.i.i.i.i.i.i.",
"i.i.i.i.i.i.i.i.n U Q &.<.E K C V B b 0 - - - = # # # # , 4 & # # # @ - - - - h N V C C I { <...W J i.i.i.i.i.i.i.i.i.",
"i.i.i.i.i.i.i.b N E &.<.E I K B B b 0 # , & , & 1 4 5 5 5 5 5 4 4 4 , & , & & * h n B C P U [ ,.o.I b i.i.i.i.i.i.i.i.",
"i.i.i.i.i.i.c b ( *.<.E P C V n w = % 1 5 5 r 4 , 8 r r r r r r r 5 , 8 r 5 5 , > - j N C C U [ :.@.L c i.i.i.i.i.i.i.",
"i.i.i.i.i.i.n n B } T K K B n w > , 4 5 8 8 r 5 , 1 + + + + + o # 5 , 8 r 8 8 5 1 , > j N C K K E K N n n i.i.i.i.i.i.",
"i.i.i.i.i.B T E C N P P V n q > 8 4 1 8 r 5 + o o X X X X X X X X o X o # 8 8 5 1 8 5 > j N C I C N I W K n i.i.i.i.i.",
"i.i.i.i.c P ! &.$.C C K N w # , 8 4 # o o X X X X X X X X X X X X X X X X o o + & 5 5 , = j V K C Y -.o.W B i.i.i.i.i.",
"i.i.i.i.B U Q 6.) J N n d # , 8 5 # X X X X X X X X X X X X X X X X X X X X X X X , 8 5 , = x m B P %.,.Q K n i.i.i.i.",
"i.i.i.c K E X.-.T C B j @ , 8 5 # X X X X X X X X X X X X X X X X X X X X X X X X X , 8 5 & - b B J ] ,.+.W B i.i.i.i.",
"i.i.i.c C R <.' P C b : # 5 5 # . X X X X X X X X X X X X X X X X X X X X X X X X X X , 8 1 * h N J P #.,.W B i.i.i.i.",
"i. .b c C P %.) J B z @ % 5 , X X X X X X X X X X X X X X X X X X X X X X X X X X X X o 5 4 @ - b C K #.,.W B c B 9.i.",
"r.8./ B B C %.) C B z @ & 1 & X X X X X X X X X X X X X X X X X X X X X X X X X X O 3 @ , , # ; b B K ;.:.U N K  .w.i.",
"i.Y %.X.C B %.) K B z > 8 4 3 3 + + X X X X X X X X X X X X X X X X X X X X X X O O > e 1 8 4 ; b C P ;.*.C P ,.[ L i.",
"i.N T %.Y N %.) C B z > r 5 @ $ @ @ X X X X X X X X X X X X X X X X X X X X X o + O O < 3 y 4 ; b C K ;._ N } { P b i.",
"c B T U P B ` / V B z > 5 , + u 3 $ @ X X X X X X X X X X X X X X X X X X X X + @ @ > < 9 8 , ; b B C #.L B Y U I n i.",
"i.b n N N M B B N M z > 8 4 + A 3 @ @ X X X X X X X X X X X X X X X X X X X X + % 3 6 3 t y 1 ; c b n B N N N B B b i.",
"i.c N P T R R R R T x = 8 4 + y 3 $ @ X X X X X X X X X X X X X X X X X X X X + $ @ u 6 t y 1 ; b B C K T E E E T i.i.",
"i.c N K K C B B B B z * 4 , + u A $ O X X X X X X X X X X X X X X X X X X X X O O @ u 6 9 5 , ; b N B B B J K J n i.i.",
"i.i.b b b n b b v b z @ , & o e D %   . X X X X X X X X X X X X X X X X X X X . O a y < 9 5 # ; c b b n b b b b v i.i.",
"i.i.i.c m B B B b N z @ & & X @ A e + X X X X X X X X X X X X X X X X X X X X + e D e > 6 5 # ; b m m B B C n i.i.i.i.",
"i.i.i.c B J C B n N z * , , + > A e 3 + X X X X X X X X X X X X X X X X X X X 3 A F A > 9 5 & ; b m n C J K M i.i.i.i.",
"i.i.i.c C U K C n N z * , # + S F e 3 % o X X X X X X X X X X X X X X X X X o e A D F < 6 1 & ; b m B P T ) B i.i.i.i.",
"i.i.i.c J R T [ V V x > 5 , @ H H e 3 > @ X X X X X X X X X X X X X X X X X @ 3 A D D < 9 8 1 ; n B B U E <.Z i.i.i.i.",
"i.i.i.c K W R >.Z C x > r 5 @ H G u 3 % @ X X X X X X X X X X X X X X X X X @ > u A y < t i 5 ; N C B U W 3.Z i.i.i.i.",
"i.i.i.c K ! E >.C B x @ 4 4 @ F F A 3 % @ X X X X X X X X X X X X X X X X o @ > u A 3 < 6 r & ; n N J R W 3.Z i.i.i.i.",
"i.i.i.c K ! Q <.C N z * 5 5 @ e A A 3 % @ X X X X X X X X X X X X X X X X + > 3 u D e < 3 r , ; b n K Q Q ..B i.i.i.i.",
"i.i.i.c C W ! | B N z = 5 4 @ 3 u A 3 > @ X X X X X X X X X X X X X X X X + > 3 u D e e 9 r 1 ; b m K Q ! W B i.i.i.i.",
"i.i.i.c C E E E B N z @ , , y F A e 3 > @ X X X X X X X X X X X X X X X X + > 3 7 A e G t 5 & ; b m K E W W B i.i.i.i.",
"i.i.i.c C E R E B N z * 5 , e F y 3 3 > @ X X X X X X X X X X X X X X X X + % > 3 y 1 D t 5 , ; b m K E E W B i.i.i.i.",
"i.i.i.c C E E R B N z = 8 4 e F e > > % + X X X X X X X X X X X X X X X X o # % > 3 3 D y r 1 ; b n J E W W B i.i.i.i.",
"i.i.i.c C E +.T N B x * 4 , 3 F e O X o X X X X X X X X X X X X X X X X X X + o . $ u S u 8 , ; n N V E ! W B i.i.i.i.",
"i.i.i.c C E 2._ N C x * 1 & % D e O X X X X X X X X X X X X X X X X X X X X o + @ > y e t 5 , ; N C B E ! W B i.i.i.i.",
"i.i.i.c C E 8._ N C x > r 5 % A u > % X X X X X X X X X X X X X X X X X X X @ > 3 u A 6 t i 5 ; N C B E ! W B i.i.i.i.",
"i.i.i.c C E 8._ N C x > 8 5 # a A 6 > X X X X X X X X X X X X X X X X X X X @ > e D A 9 t i 1 ; N C B E ! W B i.i.i.i.",
"i.i.i.c C E &.T N B x = 5 , > D D e > @ X X X X X X X X X X X X X X X X X + @ > A D e e t 8 1 ; n B V E ! W B i.i.i.i.",
"i.i.i.c C E T C n N z = 5 1 > u D e > % X X X X X X X X X X X X X X X X X X @ > u D 3 3 t r , ; b m N K E W B i.i.i.i.",
"i.i.i.c J W K C n N z = 8 5 $ 9 S u > % X X X X X X X X X X X X X X X X X X @ > y 3 % 3 t i 1 ; b N B C R W B i.i.i.i.",
"i.i.i.c C T C V n C x > 8 4 @ 3 e 3 > % X X X X X X X X X X X X X X X X X X @ e u @ $ < t y 1 ; n B N C P T N i.i.i.i.",
"i.i.i.c B C B B b n z > 5 , @ 3 < e 3 % X X X X X X X X X X X X X X X X X X @ e a > > 6 t 8 , ; b b n B B J n c i.i.i.",
"i.i.c b M M n n n B n > 4 , @ < $ e 3 % X X X X X X X X X X X X X X X X X X @ e u t 9 6 t 5 , 0 B B n n n N n n b i.i.",
"i.i.c K ......| T | U 2 4 , + > @ % > % X X X X X X X X X X X X X X X X X X @ 7 > 6 6 > 9 5 , f | ............E N i.i.",
"i.i.c Y 5.8.0.8.5.6.( - , & + % $ O > @ X X X X X X X X X X X X X X X X X X @ > + % $ < 9 5 # g %.4.5.5.5.5.5.#.N i.i.",
"i.i.Z N J P T K J K N * & # + > $ O > o X X X X X X X X X X X X X X X X X X @ > + > < 3 9 1 # : N V J J J J C B v i.i.",
"i.^ #.C C B B C C C n = , & + $ $ O > X X X X X X X X X X X X X X X X X X X + % + < > > 9 4 & : B C C C C C C C L i.i.",
"! 2.9.1.1.-.:.1.1.1./ 2 8 5 + $ $ + @ X X X X X X X X X X X X X X X X X X X X + O $ % % t i , g -.1.1.1.1.1.1.2.q.&.! ",
"! ' ` $.$.,.3.3.3.3._ 2 8 5 @ $ $ $ + X X X X X X X X X X X X X X X X X X X X X + @ $ $ t i , f  .-.3.3.3.1.-.-.) Q ! ",
",.U B I R W Q E R E C > 8 5 % > $ $ @ X X X X X X X X X X X X X X X X X X X X + @ $ > < t i 1 w P T W E R R T U B | 3.",
"0.T B U R R R T P K n > 8 5 + > $ $ @ X X X X X X X X X X X X X X X X X X X X + @ $ t < t i 1 0 C K T T U U U K B ..w.",
"0.T B P P P P C C V b = , , % < $ $ @ X X X X X X X X X X X X X X X X X X X X + @ $ t s y 8 & 0 N V C K I I I K B ..w.",
"0.R n N N N N n n n c @ & & > 6 $ $ @ X X X X X X X X X X X X X X X X X X X X + @ $ 6 p 9 4 # : b n n n N N N M B X.w.",
"e.3.W E E E E E E W K = & & % 3 $ O @ X X X X X X X X X X X X X X X X X X X X + + $ < 6 6 1 # d E E E E E E E E | 9.e.",
"8.9.0.0.0.0.0.0.0.0.` - & & @ $ O X + X X X X X X X X X X X X X X X X X X X X o + + @ < 3 1 # k 5.0.0.0.0.0.8.8.8.9.8.",
"C Q ..........O.Q E C = # @ % < + X X X X X X . . . X X X . . . X X X . . . X X X % 6 < < & # w U E | ......E E E R N ",
"N T W ! ! ! W R U P B * @ + @ + X X . . . . . . . . . . . . . . . . . . . . . . . X X X @ # + q K P T E Q Q Q W T K b ",
"N I R W W E R U K C B ; ; ; ; ; ; ; ; - - - - - - - - - - - - - - - - - - - - - - - - - ; ; - w C C P U E R E E T K b ",
"N I P K K K K K C V N l b m N n n n b v b n n n N n n n n n n n n n n n n n b b n n n n n n c z B B C K K K K K U K b ",
"n B B m m m m m m m n b V P E I J J C n B V C P T J J J J J J C J J J J J C m m C J J J C V N b m m m m m m m m B B v ",
"b n m B B B B B B B B C P W ! W E E R V B K E W W E E E E E E E E E E E R P V V P R E E U K C B m N V V V V V V B B v ",
"n C K T E E E E E E E E W ! Q ! ! ! Q K K E o.2.2.2.2.7.&.! ,.2.2.2.2.,.Q R K K U E ! Q W E E I K P U U U U U U U K b ",
"m K ) 5.0.0.0.8.+.o.2.0.0.8.8.8.8.*.Q K R Q &.w.e.e.e.e.9.8.w.e.e.e.e.w.0.-.I K E ,.8.8.0.0.8.4.%.W W W W W W E T K b ",
"N T -.e.e.e.e.y.t.9.e.y.e.e.e.e.e.9.@.K E o.8.w.w.w.e.e.e.e.e.e.e.y.u.u.y.w.} R :.q.e.e.r.y.r.r.t.t.t.w.0.0.0.@.Q T b ",
"B E -.q.q.q.w.w.e.w.w.w.w.q.q.w.q.q.@.T E ! +.@.@.+.1.w.q.q.q.q.w.e.e.e.w.w.$.E ..@.@.&.9.e.t.w.e.e.e.w.w.w.w.8.8.#.m ",
"P T T E E E E E E E E E E E E E E E T T T T T T T T T E E E E E E E E E / E T T T T T T E / _ E E E E E E E E / / T L "
};
