/* XPM */
static char *ZXpnaWYuY29tLWdpZi1tYWtlci0z_37[] = {
/* columns rows colors chars-per-pixel */
"59 75 256 2 ",
"   c #14110F",
".  c #151210",
"X  c #191614",
"o  c #161915",
"O  c #1A1916",
"+  c #1C1C1A",
"@  c #211E1C",
"#  c #1E211D",
"$  c #24211E",
"%  c #28221F",
"&  c #1D1F22",
"*  c #1D2024",
"=  c #1D242B",
"-  c #1F2A33",
";  c #232422",
":  c #2A2522",
">  c #252A24",
",  c #2D2926",
"<  c #212428",
"1  c #2C2D2B",
"2  c #312A26",
"3  c #332D29",
"4  c #283027",
"5  c #2D322B",
"6  c #33332E",
"7  c #39322E",
"8  c #30392F",
"9  c #212B35",
"0  c #212E39",
"q  c #2F3030",
"w  c #23313D",
"e  c #333433",
"r  c #3D3532",
"t  c #353934",
"y  c #383837",
"u  c gray23",
"i  c #403734",
"p  c #413936",
"a  c #374035",
"s  c #384137",
"d  c #3D423C",
"f  c #3F4C3C",
"g  c #40413F",
"h  c #233341",
"j  c #243847",
"k  c #253748",
"l  c #263A4C",
"z  c #283C4E",
"x  c #273C50",
"c  c #283F52",
"v  c #2A4254",
"b  c #2C465E",
"n  c #2D485D",
"m  c #2D4760",
"M  c #2E4B64",
"N  c #2F4E69",
"B  c #304C66",
"V  c #304F6A",
"C  c #2F506B",
"Z  c #30516E",
"A  c #325573",
"S  c #335877",
"D  c #345B7B",
"F  c #385E7C",
"G  c #444544",
"H  c #484746",
"J  c #474946",
"K  c #484A47",
"L  c #4B4C4B",
"P  c #435241",
"I  c #4E504E",
"U  c #535453",
"Y  c #575857",
"T  c #5B5B5B",
"R  c #656565",
"E  c #365F80",
"W  c #366184",
"Q  c #3A6384",
"!  c #37658A",
"~  c #38668B",
"^  c #39698F",
"/  c #3A6C93",
"(  c #3B6F98",
")  c #3E7096",
"_  c #3D729B",
"`  c #3D75A1",
"'  c #3E79A6",
"]  c #3E7BA9",
"[  c #416E8E",
"{  c #426F92",
"}  c #417093",
"|  c #42749B",
" . c #46799E",
".. c #4277A0",
"X. c #477BA2",
"o. c #447AA2",
"O. c #477EA7",
"+. c #447DA7",
"@. c #437AA4",
"#. c #497FA6",
"$. c #407CA9",
"%. c #417EAC",
"&. c #4A80A7",
"*. c #4680AB",
"=. c #4381AF",
"-. c #4A81AB",
";. c #4A84AE",
":. c #4583B1",
">. c #4482B1",
",. c #4684B2",
"<. c #4786B5",
"1. c #4B86B1",
"2. c #4C87B2",
"3. c #4887B4",
"4. c #4B89B6",
"5. c #4F8CB7",
"6. c #4D8AB5",
"7. c #4A89B8",
"8. c #4D8CB9",
"9. c #4D8DBB",
"0. c #518CB7",
"q. c #508DB9",
"w. c #518FBC",
"e. c #4F90BE",
"r. c #5291BE",
"t. c #5190BC",
"y. c #5595C2",
"u. c #5394C1",
"i. c #5798C6",
"p. c #589AC6",
"a. c #5B9DCB",
"s. c #609FC9",
"d. c #5DA0CD",
"f. c #62A3CD",
"g. c #64A5D0",
"h. c #67A8D2",
"j. c #68A9D2",
"k. c None",
"l. c black",
"z. c black",
"x. c black",
"c. c black",
"v. c black",
"b. c black",
"n. c black",
"m. c black",
"M. c black",
"N. c black",
"B. c black",
"V. c black",
"C. c black",
"Z. c black",
"A. c black",
"S. c black",
"D. c black",
"F. c black",
"G. c black",
"H. c black",
"J. c black",
"K. c black",
"L. c black",
"P. c black",
"I. c black",
"U. c black",
"Y. c black",
"T. c black",
"R. c black",
"E. c black",
"W. c black",
"Q. c black",
"!. c black",
"~. c black",
"^. c black",
"/. c black",
"(. c black",
"). c black",
"_. c black",
"`. c black",
"'. c black",
"]. c black",
"[. c black",
"{. c black",
"}. c black",
"|. c black",
" X c black",
".X c black",
"XX c black",
"oX c black",
"OX c black",
"+X c black",
"@X c black",
"#X c black",
"$X c black",
"%X c black",
"&X c black",
"*X c black",
"=X c black",
"-X c black",
";X c black",
":X c black",
">X c black",
",X c black",
"<X c black",
"1X c black",
"2X c black",
"3X c black",
"4X c black",
"5X c black",
"6X c black",
"7X c black",
"8X c black",
"9X c black",
"0X c black",
"qX c black",
"wX c black",
"eX c black",
"rX c black",
"tX c black",
"yX c black",
"uX c black",
"iX c black",
"pX c black",
"aX c black",
"sX c black",
"dX c black",
"fX c black",
"gX c black",
"hX c black",
"jX c black",
"kX c black",
"lX c black",
"zX c black",
"xX c black",
"cX c black",
"vX c black",
"bX c black",
"nX c black",
"mX c black",
"MX c black",
"NX c black",
"BX c black",
"VX c black",
"CX c black",
"ZX c black",
"AX c black",
"SX c black",
"DX c black",
"FX c black",
"GX c black",
"HX c black",
"JX c black",
"KX c black",
"LX c black",
"PX c black",
"IX c black",
"UX c black",
/* pixels */
"k.k.k.k.k.k.k.k.k.k.k.k.k.k.k.k.k.k.k.k.k.k.k.k.k.k.k.k.k.k.k.k.k.k.k.k.k.k.k.k.k.k.k.k.k.k.k.k.k.k.k.k.k.k.k.k.k.k.k.",
"k.k.k.k.k.k.k.k.k.k.k.k.k.k.k.k.k.k.k.k.k.k.k.k.k.k.m m m m m m k.k.k.k.k.k.k.k.k.k.k.k.k.k.k.k.k.k.k.k.k.k.k.k.k.k.k.",
"k.k.k.k.k.k.k.k.k.k.k.k.k.k.k.k.k.k.k.k.k.k.k.b m M W / A ! / / N m b b k.k.k.k.k.k.k.k.k.k.k.k.k.k.k.k.k.k.k.k.k.k.k.",
"k.k.k.k.k.k.k.k.k.k.k.k.k.k.k.k.k.k.k.k.k.N N M D _ ` ] S _ ] ' _ ~ N M N M k.k.k.k.k.k.k.k.k.k.k.k.k.k.k.k.k.k.k.k.k.",
"k.k.k.k.k.k.k.k.k.k.k.k.k.k.k.k.k.k.k.b A _ _ _ ` %.=.%.D -.<.=.%.' _ _ _ W m b k.k.k.k.k.k.k.k.k.k.k.k.k.k.k.k.k.k.k.",
"k.k.k.k.k.k.k.k.k.k.k.k.k.k.k.k.k.k.b A _ ] :.:.:.4.r.y.Q #.r.w.9.:.:.:.%.' W m b k.k.k.k.k.k.k.k.k.k.k.k.k.k.k.k.k.k.",
"k.k.k.k.k.k.k.k.k.k.k.k.k.k.k.k.b N N _ :.3.q.q.q.O./ -.F D / / | 5.q.q.4.,.$.A A M b k.k.k.k.k.k.k.k.k.k.k.k.k.k.k.k.",
"k.k.k.k.k.k.k.k.k.k.k.k.k.k.b Z D / A O.9.;./ / / ~ W Q A M D W ! / / / o.5.4.D #.~ A m k.k.k.k.k.k.k.k.k.k.k.k.k.k.k.",
"k.k.k.k.k.k.k.k.k.k.k.k.b A D / ] :.} | / ^ ^ ! W D A A D V A S D W ! ^ ^ ^ | { 0.:.` E A m k.k.k.k.k.k.k.k.k.k.k.k.k.",
"k.k.k.k.k.k.k.k.k.k.k.b N / ] ] ,.2.-.D D W W D A A A A A M A A A A D W W D A | 2.4.$.] ` D b k.k.k.k.k.k.k.k.k.k.k.k.",
"k.k.k.k.k.k.k.k.k.k.b N / ] ,.9.1.( ~ E Z Z A A A A Z N N m M Z A A A A Z N S ! ^ O.9.7.] ` D b k.k.k.k.k.k.k.k.k.k.k.",
"k.k.k.k.k.k.k.k.k.b N / ] ,.1.O.( W D S A V Z A M M m h - - 9 b M M Z Z N A A D E ~ o.;.4.] ` D b k.k.k.k.k.k.k.k.k.k.",
"k.k.k.k.k.k.k.k.k.N / ] ,.1.) ~ W S A M M m m c = = - * + + + = = = w m m M M Z A D ! / O.4.] _ D b k.k.k.k.k.k.k.k.k.",
"k.k.k.k.k.k.k.k.N / ] :.1.( W D S A m 9 = = = * @ @ @ @ : , % @ @ @ + = = = = z A S D D ^ O.4.] ` D k.k.k.k.k.k.k.k.k.",
"k.k.k.k.k.k.k.m A ` :.1.( ~ E A Z b = @ : % : % 2 2 3 3 3 3 3 3 3 2 : % : % % * l Z A D ! ^ O.4.] W m k.k.k.k.k.k.k.k.",
"k.k.k.k.k.k.b B X.,.1.( W D S M 9 * $ 2 3 3 r , , 7 r r r r r r r 3 : 7 7 3 3 % * = v A D D ^ O.3.*.F b k.k.k.k.k.k.k.",
"k.k.k.k.k.k.N N D -./ E E A m 9 ; : 2 7 7 7 r 3 , : X O O O O X @ 3 : r r 7 7 3 , : < v A D W Q _ W V N M k.k.k.k.k.k.",
"k.k.k.k.k.A / _ D A ~ W A m 9 : 7 2 2 7 r 3 X X X . . . . . . . . X . X : 7 7 3 : 7 2 < c A D ^ D Z / ` D M k.k.k.k.k.",
"k.k.k.k.m / ] ,.-.S E W M 9 @ 2 7 , @ X . . . . . . . . . . . . . . . . . X X O : 3 3 % * v D W A { 3.$.` Z k.k.k.k.k.",
"k.k.k.k.A / $.r.) D V M w @ , 7 3 O . . . . . . . . . . . . . . . . . . . . . . . , 7 3 % = b V A ! 5.<.' E M k.k.k.k.",
"k.k.k.b ~ ( *.1.^ S A k + , 7 3 @ . . . . . . . . . . . . . . . . . . . . . . . . . , 7 3 % = N A W O.4.%.` C k.k.k.k.",
"k.k.k.b W ( q._ ! A b - @ 7 3 % ; O . . . . . . . . . . . . . . . . . . . . . . . @ + , 7 , & z Z W ! 6.,.` C k.k.k.k.",
"k. .b b D ! 5._ E A l O % 7 % @ , + . . . . . . . . . . . . . . . . . . . . . . + 1 $ O 7 , O - V D W 6.,.` N b D p.k.",
"a.q.) A A D 6.) S A l + % , @ @ , + . . . . . . . . . . . . . . . . . . . . . . + 1 G @ , : + - V A W 5.:.! N ! -.a.k.",
"Q / 1.@.A A 6._ W A l ; r , 1 5 ; + O X . . . . . . . . . . . . . . . . . . . X O + y y : 7 , - V D ~ 5.*.A / 5.| Q k.",
"b A ) 1.Q A 5._ D A l ; r , # ; ; ; O X . . . . . . . . . . . . . . . . . . X + ; o + 1 , r , - V D ! 5./ Z ;...W b k.",
"b D / / Q Z &./ A Z l @ 3 : O d y # + O . . . . . . . . . . . . . . . . . . X + > + o > 5 7 : - N A E ;.F D / ^ ! m k.",
"b M N Z Z C S A Z N l @ 7 , O K y # # O . . . . . . . . . . . . . . . . . . X O t e ; > 6 r : - m M N A Z Z Z A Z m k.",
"k.b A ! / ( / / ( ~ l @ 7 , O G y # # X . . . . . . . . . . . . . . . . . . . + e 5 u 8 6 r : - N A D W / _ _ _ / k.k.",
"k.b A W W D A A A A l + 3 % O d G > O   . . . . . . . . . . . . . . . . . .   , ; , y 5 5 3 % - M A A A A W W D N k.k.",
"k.k.m m M M M M m M l O : % O 1 u > . . . . . . . . . . . . . . . . . . .     o O y $ > 5 2 @ - m m m M M M m m m k.k.",
"k.k.k.b Z A A A M Z l O : % . + u y ; O X . . . . . . . . . . . . . . . . . O , u d + > 5 2 + - V N Z A A D M k.k.k.k.",
"k.k.k.b A E S A M Z l + , % . 1 K y 1 ; O . . . . . . . . . . . . . . . . X + H Y L 5 > 5 3 % - V N Z D E W M k.k.k.k.",
"k.k.k.b D ^ W D M Z l + : @ . G U u e : + X . . . . . . . . . . . . . . . O $ K U T J 5 1 : % - V N A ! / | Z k.k.k.k.",
"k.k.k.b W / / o.A D l $ 3 % o T R G 1 , ; X . . . . . . . . . . . . . . . O , G U T G 5 5 3 , - A Z D ^ _ q.A k.k.k.k.",
"k.k.k.b ~ ` ( 5.S E l ; i , O L T I e , ; X . . . . . . . . . . . . . . . O 1 y U I 1 > 6 p , - A A D / ' q.A k.k.k.k.",
"k.k.k.b ^ ] _ 5.A A l + 3 , O d U T y , ; X . . . . . . . . . . . . . . X + 1 y U G # ; 1 r @ - Z Z W / ' 9.A k.k.k.k.",
"k.k.k.b ~ ] ' 5.A Z l + 7 , : e L T y , ; X . . . . . . . . . . . . . . O ; e y U G # ; 5 r % - V N ! ' ] @.Z k.k.k.k.",
"k.k.k.b E ` ] @.Z Z l @ 7 , , 1 G U y , ; X . . . . . . . . . . . . . . O , y y U G + ; 1 r : - V N ! ] ] ` N k.k.k.k.",
"k.k.k.b D ` _ _ Z Z l + , % G U K G e 1 : X . . . . . . . . . . . . . . O , y y g g e I 1 3 @ - V N ! _ ` ` C k.k.k.k.",
"k.k.k.b D ` / _ C Z l @ 3 % y L u u y 1 : O . . . . . . . . . . . . . . O ; e y y u e K 1 3 : - V N ! ( ` ` C k.k.k.k.",
"k.k.k.b D ` _ ( N Z l @ r , 3 G y e , : $ O . . . . . . . . . . . . . . O + > 1 e 1 y J 6 r : - V N W _ ` ` C k.k.k.k.",
"k.k.k.b D ` *.^ N A l + 3 : , G y #   O . X . . . . . . . . . . . . . . X . O ; , y U J 6 7 % - Z Z D ` ] ` C k.k.k.k.",
"k.k.k.b D ' r./ Z E l + 2 @ + y y : O X O . . . . . . . . . . . . . . . X X O , 1 y J s 5 2 ; - A A D ` ] ` C k.k.k.k.",
"k.k.k.b D ' r./ Z E l ; p , + y G y 1 + O X . . . . . . . . . . . . . . X + : y u G L s 6 p 3 - A A D ` ] ` C k.k.k.k.",
"k.k.k.b D ' u./ Z E l @ r , + u U G e + + O . . . . . . . . . . . . . . O + , y K L y t e p : - A A D ` ] ` C k.k.k.k.",
"k.k.k.b D ` ,.^ N S l @ 7 : + u U G e : + O . . . . . . . . . . . . . . O ; 1 u U G # t 6 7 : - A Z D ` ] ` C k.k.k.k.",
"k.k.k.b D ` ^ D M Z l @ 7 : + > g u y 1 + O . . . . . . . . . . . . . . + + , y K G $ 5 6 r : - V N A W ` ` C k.k.k.k.",
"k.k.k.b ! ` E D M A l @ r , + ; u G e 1 + . . . . . . . . . . . . . . . X + : e u 1 > 5 6 i : - V N A D _ ` V k.k.k.k.",
"k.k.k.b E / D S N D l @ 7 , + ; ; 1 1 , + . . . . . . . . . . . . . . . X + : y G $ # > 6 r : - A A Z D ! ^ N k.k.k.k.",
"k.k.b b D D A Z m M l @ 3 % + ; o e e , + . . . . . . . . . . . . . . . X O 3 G J ; > 5 5 7 : 9 M m V A S E M b k.k.k.",
"k.k.b M C C N N M D b $ 3 % + ; + e q , + . . . . . . . . . . . . . . . X + 3 G G 5 5 5 5 3 : w D Z N N N Z N M m k.k.",
"k.k.b ! $.$.$.@.^ $.W @ 3 % O # O # : , + . . . . . . . . . . . . . . . X $ , e ; > > 5 5 3 % v %.$.$.$.$.$.$._ M k.k.",
"k.k.b } r.u.u.w.q.r.[ + : % o # # . # : . . . . . . . . . . . . . . . . . $ : ; O ; > 5 5 , O v 5.q.q.q.q.q.q.#.M k.k.",
"k.k.D A E ~ / W E W m O : @ o # # o # + . . . . . . . . . . . . . . . . . + > > + > > 5 5 : + w A D E E E E D Z b k.k.",
"k.| o.D D A D D D D b + : @ o # # o # O . . . . . . . . . . . . . . . . . O $ : + ; $ > 5 , @ h D D D D D D D D ~ k.k.",
"] u.u.7.7.;.4.7.7.9.^ $ r , o # # + + . . . . . . . . . . . . . . . . . . . . + + $ # > 6 r : b 7.7.7.7.7.7.7.9.i.%.] ",
"] | o.;.;.4.9.9.9.9.^ $ r , + # # # + . . . . . . . . . . . . . . . . . . . . O + # # 5 6 r : v ;.4.9.9.9.8.1.1.| ' ] ",
"3.W A ^ / ' ' _ ( _ A @ 7 , $ ; # # # . . . . . . . . . . . . . . . . . . . . # > # # 5 6 r : j ^ / ` _ ( / / ! A $.9.",
"e.! A ^ / ( ( / ! E m @ 7 , O ; ; # # . . . . . . . . . . . . . . . . . . . . # ; 4 8 5 6 r : h D W / / ^ ^ ^ W A :.a.",
"e.W A ~ ! ! ! D D A b + 2 % + > ; # # . . . . . . . . . . . . . . . . . . . . + # > f P 6 3 @ w A S D W ~ ~ ~ W A :.a.",
"r.~ N Z Z Z Z N N N c O : % > 5 ; # # . . . . . . . . . . . . . . . . . . . . + # > a s 1 , @ 0 N N N Z Z Z Z C A ,.a.",
"a.4._ _ _ _ _ _ _ ` D + : % > 5 $ + + X . . . . . . . . . . . . . . . . . . . + # > t t , , O z ` _ _ _ _ _ _ _ +.i.a.",
"u.y.u.u.u.u.u.u.u.u.} + : @ # ; O X O X . . . . . . . . . . . . . . . . . . X O + # > 5 , , O n r.u.u.u.u.u.r.r.u.y.t.",
"E $.$.$.$.$.$.@.' ( A + % O : > + o X . . . . . . . . . . . . . . . . . . . . X O 5 s 5 : % O l / _ @.$.$.$._ ( _ / V ",
"A / ' ] ] ] ` / ^ ~ C O @ X $ # X . . . .                                     .   O + + # @ O j ~ ~ / _ ' ' ' ` / E b ",
"A ^ ( ` ` ` / ^ W D N * = = = = = = = = = = = = = = = = = = = = = = = = = = = = = = = = = = * l D D ~ / _ / _ _ / D b ",
"A ^ ! W W W W W D S N x M V A N M M M m M M M N Z M M M M M M M M M M M M M m m M M M M M M b b S A D W W W W W ^ E b ",
"N D A V V V V V V V M M D ~ _ ! E E D M A D D ! ^ E E E E E E E E E E E E D M Z D E E E D A Z m V V V V V V V Z S A b ",
"m N V A S A A A A A A D ~ ` ] ` _ _ ( A A W _ ` ` _ _ _ _ _ _ _ _ _ _ _ / ! A D ~ _ _ _ ~ W D A V A S S S S S S S Z b ",
"N D W / _ _ _ _ _ _ _ _ ` ] ' ] ] ] ' E W _ =.9.9.9.9.9.=.] 9.9.9.9.e.4.' / D W / ` ] ' _ _ _ ! W ! ^ ^ ^ ^ ^ ^ / E b ",
"Z ! @.r.u.u.u.9.%.=.r.u.u.r.r.r.r.>.' W _ ] ,.a.a.a.a.a.u.u.a.a.a.a.a.p.u.:.W W _ 9.u.r.u.u.w.0.*.` ` ` ` ` ` _ / E b ",
"A / 5.a.a.a.a.g.s.y.d.g.a.a.a.a.a.u.$.W ` =.u.p.p.p.a.a.a.a.a.a.d.h.j.j.g.i.../ 8.p.a.a.d.g.a.f.f.s.s.y.u.u.r.$.' ^ b ",
"D ` 4.i.i.i.i.a.a.i.i.i.i.i.i.i.i.y.$./ ` ] *.*.*.=.9.i.i.i.i.i.i.a.a.a.i.i.O._ %.*.=.,.y.a.f.i.a.a.a.i.i.i.i.r.r.o.M ",
"! / ( _ _ _ _ _ _ _ _ _ _ _ _ _ _ _ / / / / / / / / ( _ _ _ _ _ _ _ _ _ _ _ / / / / / / _ | | _ _ _ _ _ | | _ | | / W "
};
