/* XPM */
static char *ZXpnaWYuY29tLWdpZi1tYWtlci0z_23[] = {
/* columns rows colors chars-per-pixel */
"59 75 256 2 ",
"   c #0D0F0A",
".  c #0E100C",
"X  c #14110F",
"o  c #151310",
"O  c #191614",
"+  c #161815",
"@  c #1A1916",
"#  c #1C1D1B",
"$  c #211D1B",
"%  c #1E211D",
"&  c #22221E",
"*  c #28231F",
"=  c #1C1E20",
"-  c #1E2022",
";  c #1D252C",
":  c #1E282F",
">  c #1F2933",
",  c #232421",
"<  c #2B2522",
"1  c #262A25",
"2  c #2B2B26",
"3  c #2A2D29",
"4  c #312A27",
"5  c #332D2A",
"6  c #2C332B",
"7  c #2F392D",
"8  c #32332E",
"9  c #39312E",
"0  c #30392F",
"q  c #202B34",
"w  c #222F3A",
"e  c #22303D",
"r  c #343432",
"t  c #3D3532",
"y  c #343B32",
"u  c #393A37",
"i  c #3C3C3B",
"p  c #403F3E",
"a  c #374235",
"s  c #394236",
"d  c #3C433B",
"f  c #3D493B",
"g  c #40413F",
"h  c #243544",
"j  c #273845",
"k  c #293A47",
"l  c #283C4D",
"z  c #273E52",
"x  c #283F52",
"c  c #294155",
"v  c #2C465E",
"b  c #2C4760",
"n  c #2E4B64",
"m  c #2F4E69",
"M  c #304E67",
"N  c #304F6A",
"B  c #2F506C",
"V  c #31516E",
"C  c #325573",
"Z  c #335877",
"A  c #345B7B",
"S  c #39607F",
"D  c #454443",
"F  c #484746",
"G  c #464A45",
"H  c #484947",
"J  c #4C4C4B",
"K  c #504F4E",
"L  c #445142",
"P  c #4D504C",
"I  c #4C5D49",
"U  c #50514E",
"Y  c #50584F",
"T  c #535353",
"R  c #585756",
"E  c #575B56",
"W  c #5B5B5B",
"Q  c #605F5F",
"!  c #5F605F",
"~  c #60695F",
"^  c #656464",
"/  c #686767",
"(  c #666F66",
")  c #686867",
"_  c #6C6B6B",
"`  c #706F6F",
"'  c #6F706E",
"]  c #71706F",
"[  c #747473",
"{  c #787877",
"}  c #7B7B7B",
"|  c #365F80",
" . c #366285",
".. c #3A6384",
"X. c #376589",
"o. c #38668B",
"O. c #39698E",
"+. c #3A6C93",
"@. c #3B6F98",
"#. c #3E7097",
"$. c #3D729C",
"%. c #3D76A2",
"&. c #3E7AA9",
"*. c #427196",
"=. c #41749B",
"-. c #46799E",
";. c #48799E",
":. c #4277A0",
">. c #4279A1",
",. c #457CA5",
"<. c #437AA4",
"1. c #497EA4",
"2. c #407DAB",
"3. c #407DAC",
"4. c #427DAA",
"5. c #487FA9",
"6. c #4780A9",
"7. c #4280AE",
"8. c #4480AD",
"9. c #4A83AC",
"0. c #4482B0",
"q. c #4684B3",
"w. c #4C86B1",
"e. c #4987B4",
"r. c #4B88B3",
"t. c #4C88B3",
"y. c #4C89B5",
"u. c #4C8AB8",
"i. c #4E8BB8",
"p. c #4E8DBA",
"a. c #4D8CBA",
"s. c #508AB3",
"d. c #508CB7",
"f. c #508DB9",
"g. c #518EBB",
"h. c #4F90BE",
"j. c #5191BE",
"k. c #5394C2",
"l. c #599AC7",
"z. c #5799C8",
"x. c #5B9DCB",
"c. c #5FA2CE",
"v. c #61A1CB",
"b. c #64A6D1",
"n. c #68A9D2",
"m. c #838382",
"M. c #888888",
"N. c gray58",
"B. c None",
"V. c black",
"C. c black",
"Z. c black",
"A. c black",
"S. c black",
"D. c black",
"F. c black",
"G. c black",
"H. c black",
"J. c black",
"K. c black",
"L. c black",
"P. c black",
"I. c black",
"U. c black",
"Y. c black",
"T. c black",
"R. c black",
"E. c black",
"W. c black",
"Q. c black",
"!. c black",
"~. c black",
"^. c black",
"/. c black",
"(. c black",
"). c black",
"_. c black",
"`. c black",
"'. c black",
"]. c black",
"[. c black",
"{. c black",
"}. c black",
"|. c black",
" X c black",
".X c black",
"XX c black",
"oX c black",
"OX c black",
"+X c black",
"@X c black",
"#X c black",
"$X c black",
"%X c black",
"&X c black",
"*X c black",
"=X c black",
"-X c black",
";X c black",
":X c black",
">X c black",
",X c black",
"<X c black",
"1X c black",
"2X c black",
"3X c black",
"4X c black",
"5X c black",
"6X c black",
"7X c black",
"8X c black",
"9X c black",
"0X c black",
"qX c black",
"wX c black",
"eX c black",
"rX c black",
"tX c black",
"yX c black",
"uX c black",
"iX c black",
"pX c black",
"aX c black",
"sX c black",
"dX c black",
"fX c black",
"gX c black",
"hX c black",
"jX c black",
"kX c black",
"lX c black",
"zX c black",
"xX c black",
"cX c black",
"vX c black",
"bX c black",
"nX c black",
"mX c black",
"MX c black",
"NX c black",
"BX c black",
"VX c black",
"CX c black",
"ZX c black",
"AX c black",
"SX c black",
"DX c black",
"FX c black",
"GX c black",
"HX c black",
"JX c black",
"KX c black",
"LX c black",
"PX c black",
"IX c black",
"UX c black",
/* pixels */
"B.B.B.B.B.B.B.B.B.B.B.B.B.B.B.B.B.B.B.B.B.B.B.B.B.B.B.B.B.B.B.B.B.B.B.B.B.B.B.B.B.B.B.B.B.B.B.B.B.B.B.B.B.B.B.B.B.B.B.",
"B.B.B.B.B.B.B.B.B.B.B.B.B.B.B.B.B.B.B.B.B.B.B.B.B.B.B.n n n n n B.B.B.B.B.B.B.B.B.B.B.B.B.B.B.B.B.B.B.B.B.B.B.B.B.B.B.",
"B.B.B.B.B.B.B.B.B.B.B.B.B.B.B.B.B.B.B.B.B.B.B.v n n A +.C  .+.+.V n v v B.B.B.B.B.B.B.B.B.B.B.B.B.B.B.B.B.B.B.B.B.B.B.",
"B.B.B.B.B.B.B.B.B.B.B.B.B.B.B.B.B.B.B.B.B.m m n Z #.%.&.A +.&.&.$.+.m n m m B.B.B.B.B.B.B.B.B.B.B.B.B.B.B.B.B.B.B.B.B.",
"B.B.B.B.B.B.B.B.B.B.B.B.B.B.B.B.B.B.B.v V @.$.$.%.2.7.7.A 1.t.7.7.&.$.$.$.X.n v B.B.B.B.B.B.B.B.B.B.B.B.B.B.B.B.B.B.B.",
"B.B.B.B.B.B.B.B.B.B.B.B.B.B.B.B.B.B.v V #.&.0.0.0.e.f.k.O.-.j.g.a.q.0.0.7.&. .n v B.B.B.B.B.B.B.B.B.B.B.B.B.B.B.B.B.B.",
"B.B.B.B.B.B.B.B.B.B.B.B.B.B.B.B.v m n +.0.e.a.f.f.6.+.5...Z O.+.#.y.f.f.y.q.2.A V M v B.B.B.B.B.B.B.B.B.B.B.B.B.B.B.B.",
"B.B.B.B.B.B.B.B.B.B.B.B.B.B.v m C +.C >.i.w.+.+.+.o. .X.A n A  . .+.+.O.=.y.y. .;.+.C n B.B.B.B.B.B.B.B.B.B.B.B.B.B.B.",
"B.B.B.B.B.B.B.B.B.B.B.B.B.V A +.&.0.=.=.+.O.O.o. .A C C A N V C Z  . .O.O.O.*.*.s.q.%.| A n B.B.B.B.B.B.B.B.B.B.B.B.B.",
"B.B.B.B.B.B.B.B.B.B.B.v m O.&.&.0.t.9. .Z |  .A C C C C Z n V C C C A  . .A C *.w.t.3.&.%.A b B.B.B.B.B.B.B.B.B.B.B.B.",
"B.B.B.B.B.B.B.B.B.B.v m O.&.0.a.r.#.o. .V N C C C C C m m n n N C C C C C m C X.O.<.i.i.2.%.A b B.B.B.B.B.B.B.B.B.B.B.",
"B.B.B.B.B.B.B.B.B.v n O.&.0.r.5.#. .A Z C V N C m n n j > > q c n n V C m V C A | X.>.6.t.2.%.A v B.B.B.B.B.B.B.B.B.B.",
"B.B.B.B.B.B.B.B.B.m O.&.0.t.#.o. .Z C n n n v c > : > - # # # ; : : e v v n n V C A X.O.,.y.2.%.A n B.B.B.B.B.B.B.B.B.",
"B.B.B.B.B.B.B.B.n +.&.0.y.#. .A A C n q ; ; ; - $ $ $ $ < 4 * $ $ $ $ ; ; ; ; k V C A A O.,.i.2.%.A B.B.B.B.B.B.B.B.B.",
"B.B.B.B.B.B.B.b V %.0.y.#.o. .C C n q $ < & < & 2 4 5 5 5 5 5 5 4 4 < & < & * = k m C Z X.O.,.i.3.X.n B.B.B.B.B.B.B.B.",
"B.B.B.B.B.B.v n -.0.y.#.X.A Z n w - & 2 5 5 t 4 < 9 t t t t t t t 5 < 9 t 5 5 < - ; l C A A O.<.t.8...v B.B.B.B.B.B.B.",
"B.B.B.B.B.B.m m C 1.+.|  .C n w , < 4 5 9 9 t 5 < < + @ @ @ @ + $ 5 < t t 9 9 5 2 < , l V A  .X.#. .V m n B.B.B.B.B.B.",
"B.B.B.B.B.V +.%.A V X.X.Z n w , 9 4 2 9 9 5 @ O O O o o o o o o o O O O $ 9 9 5 < 9 5 , l V A o.A V O.%.| B.B.B.B.B.B.",
"B.B.B.B.v X.&.0.9.A A  .N w $ 2 9 4 $ O o O o o o o o o o o o o o o o o o o + # & 5 5 < - z A  .A O.t.3.%.C B.B.B.B.B.",
"B.B.B.B.C +.&.j.=.| V m h $ 2 9 5 & # 2 , O o o o o o o o o o o o o o X @ & 8 2 O < 9 5 * - c N C X.9.t.&. .m B.B.B.B.",
"B.B.B.v  .#.5.r.+.A C l # < 9 5 < 1 d R y + O O o o o o o o o o o o O O # u R D & # < 9 5 & ; n C | <.t.3.%.C B.B.B.B.",
"B.B.B.v | +.y.=.X.A n q $ 5 5 < r D R T # + # @ + O o o o o o o o O # # O # D J G d & < 9 2 = k V | X.9.t.%.C B.B.B.B.",
"B.1.b v A X.t.=.| C x # & 9 < 2 d T R D % # # # # @ o o o o o o o O % & # o 3 T _ E 6 @ 5 4 # ; n A | 9.t.%.V v C k.B.",
"B.j.=.C C A 9.=.A C x # & 2 & 3 J T i 2 % & & # # @ o o o o o o o O % % # + # D ! W i # < < $ : n C  .t.e.O.m  .1.l.B.",
"B.O.r.5.A C 9.=. .C x , 9 2 , y G u # + # % % # # @ o o o o o o o O # # # @ + , i J i % $ 9 4 : n A X.t.q.A X.t.<...B.",
"B.V +.r.O.V 9.=.A C x , t 5 , y 6 # # 1 % # & & % @ o o o o o o o O % % # @ , - , 1 7 3 $ t 4 : n A  .t.=.V 6.,.X.n B.",
"B.C +.O.X.V 1.#.C C x # 5 < & 1 1 # D D # # % % # @ o o o o o o o O # % @ + 3 1 # # 6 0 & 5 < : n C A 6...Z +.O.O.n B.",
"B.n m V V B C C V B x # 9 4 % 1 1 , T W % # % # # @ o o o o o o X O # & # # G i 3 , 6 y & t < : b n m C V V V C C n B.",
"B.v C X.+.#.+.+.@.+.c # 9 4 , 1 1 i T R 3 X O % # @ o o o o o o o + % # + # r P i 6 f d , t < : n C A  .+.#.$.#.+.B.B.",
"B.B.V  . .A C C C C x # 4 < 3 0 # i J 1 T & . X @ O o o o o o o o o X   3 U # i 3 , d d $ 4 < : n C C C C |  .| m B.B.",
"B.B.n n n n n n n n x # < < 6 0 + # 3 # W D & @ . X o o o o o o o o X O u ' i + O + 7 y # 2 $ : b n n n n n n n v B.B.",
"B.B.B.v N C C C n V x # < < 1 y % # # 3 _ { R i , # X o o o o o o O , i R / d 1 8 % a f & 2 $ : n N N C C A n B.B.B.B.",
"B.B.B.v C | A C n V x # < < & d 3 d 3 r / m._ D D i $ o o o o o X # p T ` W D R { i a f & 2 & : n N N A |  .m B.B.B.B.",
"B.B.B.v A O. .A n V x # < $ % u 3 ^ W , R { ` R D D 5 X o o o o o $ D ^ / R i _ m.d d f # < & : n N C X.O.=.C B.B.B.B.",
"B.B.B.v | +.+.<.C A c - 5 < 1 0 3 ^ } W / _ _ / D i , o o o o o o , J ] / _ _ { W r d f & 5 2 : V C C O.#.f.A B.B.B.B.",
"B.B.B.v  .%.+.y.A | c , t 5 6 0 1 d / { _ / T T D u @ o o o o o o , D R / _ } / r , 0 y , t 5 : C A C O.%.g.A B.B.B.B.",
"B.B.B.v  .&.#.y.Z C x # 4 5 6 y 3 3 D _ _ / F D D u @ o o o o o o , D J ) _ { J 3 & 6 6 & t & : m V | +.%.p.A B.B.B.B.",
"B.B.B.v  .&.&.a.Z V x # 9 4 u ~ G 1 , H [ _ J D D u # o o o o o o , D T _ _ { J 3 & 3 6 3 t < : n N  .&.&.2.C B.B.B.B.",
"B.B.B.v A %.&.4.C V x # 9 4 u ( H 1 % H [ { / H D D 2 X o o o X + i J _ { } { D 3 % 3 6 , t < : n N  .&.&.%.C B.B.B.B.",
"B.B.B.v A $.#.$.V V x # < < y Y W d i T [ { { / H D 5 o o o o X @ p R { } m.[ i 3 G G 6 # 4 $ : n N  .$.%.%.C B.B.B.B.",
"B.B.B.v A $.@.$.C V x # 5 < 0 G J i H T / _ / ) Q D 3 o o o o X + F _ ` { ^ R i , i H 7 # 5 < : n N  .#.$.%.C B.B.B.B.",
"B.B.B.v A $.#.#.V V x = 9 4 3 6 i g J R u 3 , u K D 5 o o o o o + D K 3 3 u J i , i H 7 & t < : n N  .#.%.%.C B.B.B.B.",
"B.B.B.v A %.7.+.m C x # 4 < 3 6 u J T / 8 o X # r D 5 X o o o o @ u O X @ 3 R / u D P y & 5 < : m V A $.&.%.C B.B.B.B.",
"B.B.B.v A %.j.=.m | c = 4 , 1 1 3 D R _ H O   @ 3 D 5 X o o o o @ i &   & W } _ u r L f # 2 < : C A C $.&.%.C B.B.B.B.",
"B.B.B.v A %.j.=.V | c , t 5 % % 3 H R _ [ G u 3 u D 5 X o o o X @ p D i R N.M./ i r L f , t 5 : C A Z $.&.%.C B.B.B.B.",
"B.B.B.v A %.j.=.B | c # 9 5 , 1 3 d T W _ _ J i D i & o o o o o O 3 F Q [ } [ T i 7 G f , t < : C A C $.&.%.C B.B.B.B.",
"B.B.B.v A $.q.+.m Z x # 5 < 3 0 3 3 D T R R i D D 5 X o o o o o X # g F R R W D r 3 f f & 9 < : m V Z $.&.%.C B.B.B.B.",
"B.B.B.v A $.+.A n V x # 9 2 3 0 , 1 3 3 H T J i r 8 X o o o o o X # D J J T D 3 1 1 y y & 9 < : n m V  .$.&.C B.B.B.B.",
"B.B.B.v  .&. .A m C x # 9 5 3 7 % 1 1 % i 8 J i , p , o o o o o + r F T T i % % 1 1 0 y , t < : n V C A +.&.V B.B.B.B.",
"B.B.B.v A +.A A m A c # 9 4 , 1 % , 1 1 & # J D i D 5 o o o o X @ p H R D % % , , , 6 y & t < : V C V A X.+.V B.B.B.B.",
"B.B.B.v C A C C n n x # 5 < % , % % 1 3 @ & J J D D 5 o o o o X + g T R i + 3 6 1 3 0 y $ 5 < : n n m C C | m v B.B.B.",
"B.B.v n B V m m n C n - 5 < % 1 % 1 1 3 , J J D D D 5 o o o o X + D R R u % r 6 1 3 y y # 4 < q A C m m m V m n n B.B.",
"B.B.v  .2.2.2.<.O.<.O., 4 , & 1 # % & 1 % D , D D D 5 o o o o X + g R R + 1 6 & 1 1 f d & 4 < j 2.2.2.2.2.2.2.$.N B.B.",
"B.B.B.O.j.j.k.j.f.j.=.- < < 3 6 # % % , + X # H D D 5 o o o o o + u J D o 1 3 % & , d d & 2 $ k t.d.f.f.f.f.f.6.V B.B.",
"B.B.S V | X.+. .| | B # & & 1 6 # , , 3 , O , ^ H p , o o o o o o # i 3 + 6 6 , 1 1 7 y # < $ q V Z | | | | A V v B.B.",
"B.*.6.A A C Z A A A n # < , % , # % % , , % # J T r o o o o o o o + g T + 3 1 % % % 6 0 # < $ q A A A A A A A A ..B.B.",
"&.p.k.u.u.r.t.u.u.u.=., 9 5 , 1 # % % # # % O # i 8 X o o o o o o o 3 R @ # % % % % 6 0 , t < k t.u.u.u.u.u.u.p.z.0.&.",
"&.%.-.9.9.t.a.a.a.p.=., 9 4 3 7 # # # # # # @ o % , o o o o o o o o # r # # # # % % y s , t < j 6.r.a.a.a.i.r.r.=.&.&.",
"u.O.C o.+.%.&.$.@.#.A , 9 4 3 6 # 6 0 & % % @ + # @ o o o o o o o o O @ & % 1 1 % % f f , t < w o.+.%.$.@.@.+.O.C <.p.",
"k.O.C O.+.@.@.+.o.| m - 9 4 3 y # 6 0 % % % @ + # @ o o o o o o o o O # % % 1 y 1 , f f , t < q A  .+.+.O.O.O.X.C 5.x.",
"k.O.C o.X.X.X.A A C n # 2 < , 6 7 y , # # # # + # @ o o o o o o o o O # # # % 6 a f I f & 5 & q C Z A  .o.o.o. .V 2.x.",
"k.+.m V V V V m m m c # * , 1 f d 3 % % # & 6 # # @ o o o o o o o o O # # # % 1 y d f 0 # 2 $ : m m m V V V V V C 8.x.",
"x.i.%.$.$.$.$.$.$.%. .= * < 1 s y , + % & % , 0 # @ o o o o o o o O @ @ @ & , 3 0 y y 6 # 2 $ h $.$.$.$.$.$.$.$.<.k.x.",
"j.k.k.k.k.k.k.k.k.k.-.- * & % 6 6 % @ % # + # 1 # @ o o o o o o o O # @ O @ % % 1 6 0 6 # < $ l j.k.k.k.k.k.j.j.k.k.j.",
"A &.2.2.2.2.2.<.&.#.A # $ # % 3 6 6 y s y % 6 @ @ + o o o o o o o O @ @ @ % 0 d y y 0 3 # $ $ e +.$.<.2.2.2.$.#.#.+.N ",
"V +.%.&.&.&.%.+.O.o.C # $ @ # , & & & & % O O o o X X X X X X X X X X X X o @ & & 1 1 , @ # @ w X.X.+.#.&.%.&.%.+. .n ",
"V o.+.%.%.%.+.O. .A C ; : : : : : : : : : : : : : ; ; ; ; ; ; ; ; ; ; ; ; ; ; : : : : : : : ; e A A X.O.#.+.$.$.+. .n ",
"V o.X. . . . . .A Z V z n m C N n n n b n n n m V n n n n n n n n n n n n n n n n n n n n n v x C C A  . . . . .O. .n ",
"n A C N N N N N N N n n Z X.#.O.| | A n C Z A X.+.| | | | | | | | | | | | A m N A | | | A Z V n N N N N N N N V C C v ",
"n m m C Z C C C C C C A X.%.&.%.$.$.#.C C  .#.%.%.$.$.$.$.$.$.$.$.$.$.$.+.X.Z A X.@.$.#.O. .A C N V Z Z Z Z Z Z Z C v ",
"n A  .+.$.$.$.$.$.$.$.$.%.&.&.&.&.&.&. . .$.3.p.p.p.p.p.0.&.u.h.p.p.h.t.&.@. . .O.%.&.&.$.$.#.o. .X.O.O.O.O.O.O.O. .b ",
"m  .:.g.k.k.k.j.7.3.p.k.k.j.k.k.j.0.&. .#.&.0.x.x.x.x.x.k.j.x.x.x.x.x.x.k.r.X. .#.t.k.j.k.k.j.f.9.%.%.%.%.%.%.$.+. .n ",
"V +.r.x.x.x.x.b.v.k.c.b.x.x.x.x.x.k.3. .$.3.k.x.x.x.x.x.x.x.x.x.x.b.n.n.b.x.,.+.t.z.x.x.c.b.x.c.v.v.v.l.k.k.k.7.&.+.n ",
"C $.e.z.z.z.z.l.x.l.l.l.z.z.z.z.z.z.8.+.%.&.7.8.8.7.a.z.z.z.z.z.l.x.x.x.l.l.6.#.2.8.7.0.k.x.v.l.x.x.x.l.l.l.z.k.k.6.m ",
"X.+.+.#.#.#.#.#.#.#.#.#.#.#.#.#.#.#.+.+.+.+.+.+.+.+.+.#.#.#.#.#.#.#.#.#.#.#.+.+.+.+.+.+.#.=.=.#.#.#.#.#.#.#.#.=.=.+. ."
};
