/* XPM */
static char *ZXpnaWYuY29tLWdpZi1tYWtlci0z_16[] = {
/* columns rows colors chars-per-pixel */
"59 75 256 2 ",
"   c #0D120C",
".  c #13110F",
"X  c #151311",
"o  c #191714",
"O  c #161915",
"+  c #191A16",
"@  c #1C1D1A",
"#  c #211D1B",
"$  c #1E221D",
"%  c #22221E",
"&  c #28231F",
"*  c #1E1F20",
"=  c #1E2124",
"-  c #1D242B",
";  c #1F282E",
":  c #1F2932",
">  c #222521",
",  c #2B2522",
"<  c #252A24",
"1  c #2B2A26",
"2  c #212528",
"3  c #2C2D2A",
"4  c #312A27",
"5  c #342D2A",
"6  c #293027",
"7  c #2C322B",
"8  c #2F382D",
"9  c #34322D",
"0  c #38312D",
"q  c #31392F",
"w  c #202B34",
"e  c #212E39",
"r  c #23313E",
"t  c #333432",
"y  c #3D3532",
"u  c #343B32",
"i  c #393937",
"p  c #3B3C3A",
"a  c #413F3E",
"s  c #374235",
"d  c #384236",
"f  c #3C443A",
"g  c #3D493B",
"h  c #41413F",
"j  c #404E3E",
"k  c #253644",
"l  c #263A4C",
"z  c #283B4D",
"x  c #273E53",
"c  c #283F53",
"v  c #294156",
"b  c #2C455D",
"n  c #2D4760",
"m  c #2E4B64",
"M  c #2F4E6A",
"N  c #304F6A",
"B  c #2F506C",
"V  c #30516E",
"C  c #325674",
"Z  c #335877",
"A  c #345B7B",
"S  c #395E7D",
"D  c #444442",
"F  c #494746",
"G  c #454944",
"H  c #484947",
"J  c #4C4D4B",
"K  c #504F4E",
"L  c #445342",
"P  c #495946",
"I  c #4F524E",
"U  c #4D594B",
"Y  c #51524F",
"T  c #535453",
"R  c #585757",
"E  c #555B53",
"W  c #585857",
"Q  c #5B5C5B",
"!  c #576355",
"~  c #5D605D",
"^  c #5E6A5C",
"/  c #60615F",
"(  c #5F6060",
")  c gray39",
"_  c #656865",
"`  c #6C6C6C",
"'  c #6F706F",
"]  c #70706F",
"[  c gray45",
"{  c #7B7B7B",
"}  c #365F80",
"|  c #366285",
" . c #3B6586",
".. c #376589",
"X. c #38668B",
"o. c #3A698E",
"O. c #3A6C93",
"+. c #3B6F98",
"@. c #3E7097",
"#. c #3D729C",
"$. c #3D76A2",
"%. c #3E79A6",
"&. c #3E7AA8",
"*. c #416D8E",
"=. c #406F93",
"-. c #427195",
";. c #41739A",
":. c #45759A",
">. c #40759D",
",. c #45799F",
"<. c #4377A0",
"1. c #4479A2",
"2. c #447AA3",
"3. c #437AA3",
"4. c #487EA4",
"5. c #477EA8",
"6. c #417EAC",
"7. c #427DAA",
"8. c #497FA9",
"9. c #4280AE",
"0. c #4481AF",
"q. c #4580AC",
"w. c #4881AB",
"e. c #4A83AC",
"r. c #4482B0",
"t. c #4684B3",
"y. c #4B87B3",
"u. c #4D87B1",
"i. c #4886B4",
"p. c #4C88B3",
"a. c #4C89B5",
"s. c #4C8BB8",
"d. c #4E8BB8",
"f. c #4E8DBA",
"g. c #508CB7",
"h. c #508DB9",
"j. c #508EBB",
"k. c #4F90BE",
"l. c #5191BE",
"z. c #5394C2",
"x. c #5798C6",
"c. c #599AC6",
"v. c #5799C8",
"b. c #5A9DCB",
"n. c #5FA2CE",
"m. c #62A1CB",
"M. c #64A6D1",
"N. c #68A9D2",
"B. c #848484",
"V. c #8B8C8B",
"C. c #939393",
"Z. c #9A9A9A",
"A. c gray66",
"S. c None",
"D. c black",
"F. c black",
"G. c black",
"H. c black",
"J. c black",
"K. c black",
"L. c black",
"P. c black",
"I. c black",
"U. c black",
"Y. c black",
"T. c black",
"R. c black",
"E. c black",
"W. c black",
"Q. c black",
"!. c black",
"~. c black",
"^. c black",
"/. c black",
"(. c black",
"). c black",
"_. c black",
"`. c black",
"'. c black",
"]. c black",
"[. c black",
"{. c black",
"}. c black",
"|. c black",
" X c black",
".X c black",
"XX c black",
"oX c black",
"OX c black",
"+X c black",
"@X c black",
"#X c black",
"$X c black",
"%X c black",
"&X c black",
"*X c black",
"=X c black",
"-X c black",
";X c black",
":X c black",
">X c black",
",X c black",
"<X c black",
"1X c black",
"2X c black",
"3X c black",
"4X c black",
"5X c black",
"6X c black",
"7X c black",
"8X c black",
"9X c black",
"0X c black",
"qX c black",
"wX c black",
"eX c black",
"rX c black",
"tX c black",
"yX c black",
"uX c black",
"iX c black",
"pX c black",
"aX c black",
"sX c black",
"dX c black",
"fX c black",
"gX c black",
"hX c black",
"jX c black",
"kX c black",
"lX c black",
"zX c black",
"xX c black",
"cX c black",
"vX c black",
"bX c black",
"nX c black",
"mX c black",
"MX c black",
"NX c black",
"BX c black",
"VX c black",
"CX c black",
"ZX c black",
"AX c black",
"SX c black",
"DX c black",
"FX c black",
"GX c black",
"HX c black",
"JX c black",
"KX c black",
"LX c black",
"PX c black",
"IX c black",
"UX c black",
/* pixels */
"S.S.S.S.S.S.S.S.S.S.S.S.S.S.S.S.S.S.S.S.S.S.S.S.S.S.S.S.S.S.S.S.S.S.S.S.S.S.S.S.S.S.S.S.S.S.S.S.S.S.S.S.S.S.S.S.S.S.S.",
"S.S.S.S.S.S.S.S.S.S.S.S.S.S.S.S.S.S.S.S.S.S.S.S.S.S.S.n n n n m S.S.S.S.S.S.S.S.S.S.S.S.S.S.S.S.S.S.S.S.S.S.S.S.S.S.S.",
"S.S.S.S.S.S.S.S.S.S.S.S.S.S.S.S.S.S.S.S.S.S.S.b n m A O.Z } O.O.C n b b S.S.S.S.S.S.S.S.S.S.S.S.S.S.S.S.S.S.S.S.S.S.S.",
"S.S.S.S.S.S.S.S.S.S.S.S.S.S.S.S.S.S.S.S.S.M M m C #.$.&.A o.7.&.#.O.B m M M S.S.S.S.S.S.S.S.S.S.S.S.S.S.S.S.S.S.S.S.S.",
"S.S.S.S.S.S.S.S.S.S.S.S.S.S.S.S.S.S.S.b V O.#.#.$.7.9.9.} ,.s.9.9.&.#.#.#.X.m b S.S.S.S.S.S.S.S.S.S.S.S.S.S.S.S.S.S.S.",
"S.S.S.S.S.S.S.S.S.S.S.S.S.S.S.S.S.S.b B O.&.r.r.r.i.h.z.o.:.l.j.f.t.r.r.9.&...m b S.S.S.S.S.S.S.S.S.S.S.S.S.S.S.S.S.S.",
"S.S.S.S.S.S.S.S.S.S.S.S.S.S.S.S.b M m O.r.i.f.h.h.w.O.5. .C o.O.@.a.h.h.a.t.6.A V N b S.S.S.S.S.S.S.S.S.S.S.S.S.S.S.S.",
"S.S.S.S.S.S.S.S.S.S.S.S.S.S.b M C O.Z >.d.u.O.O.O.o.| | A m A | | o.O.O.>.a.a...:.=.C n b S.S.S.S.S.S.S.S.S.S.S.S.S.S.",
"S.S.S.S.S.S.S.S.S.S.S.S.S.V A o.&.r.;.:.O.o.o.X.| A C C A V V Z Z | | o.o.o.-.-.u.i.%.| A m S.S.S.S.S.S.S.S.S.S.S.S.S.",
"S.S.S.S.S.S.S.S.S.S.S.b m X.&.&.r.p.e.| Z } | A C C C C Z M V Z C C A | | A C O.u.p.6.&.%.A n b S.S.S.S.S.S.S.S.S.S.S.",
"S.S.S.S.S.S.S.S.S.S.b m X.&.r.f.y.;.X.| V N C C C C C M N n m N C C C C C M C ..o.1.d.d.7.$.A n b S.S.S.S.S.S.S.S.S.S.",
"S.S.S.S.S.S.S.S.S.b m X.&.r.p.5.#.| A Z C V N C M m n l : : w x m m N C M V C A A ..<.w.p.7.$.A n b S.S.S.S.S.S.S.S.S.",
"S.S.S.S.S.S.S.S.S.m X.&.9.a.;.X.| A C M m m b v : ; ; = + + + - ; ; e b b m m V C A ..o.1.a.6.$.A n S.S.S.S.S.S.S.S.S.",
"S.S.S.S.S.S.S.S.m o.&.0.a.#.| A A C m w - - - = # # # # , 4 & # # # # - - - - k V C A A X.1.d.6.$.} b S.S.S.S.S.S.S.S.",
"S.S.S.S.S.S.S.n V #.r.a.#.X.| C C n w # , & , & 1 4 5 4 5 5 5 5 4 4 , & , & & @ k M C Z ..o.1.d.6.o.m b S.S.S.S.S.S.S.",
"S.S.S.S.S.S.b n :.r.a.;...A Z M r = % 1 5 5 y 4 , 0 y y y y y y y 5 , 0 y 5 5 , = = z V A A o.1.p.0. .b S.S.S.S.S.S.S.",
"S.S.S.S.S.S.M M C 4.@.} | C m r > , 4 5 0 0 y 5 , 1 o o o o o o + 5 , y y 0 0 5 1 , > z V A | | #...V M m S.S.S.S.S.S.",
"S.S.S.S.S.V O.$.A V ....Z M r > 0 4 1 0 0 5 # o o o X X X X X X X o X o & 0 0 5 , 5 5 > z V A X.A V ..$.| M S.S.S.S.S.",
"S.S.S.S.b | &.r.e.A A | V r # , 0 4 # o o @ % $ @ @ o X X X X X X X @ % % o + + & 5 5 , = z Z | A  .p.6.%.C S.S.S.S.S.",
"S.S.S.S.C o.&.l.>.} V M k # , 0 0 & + 3 u 9 < @ o X X X X X X X X X % % 9 u i 1 X , 0 5 , = v N C ..e.s.&.| M S.S.S.S.",
"S.S.S.b | #.7.y.O.A C x @ , 0 0 & < f _ ~ i < O X X X o X X X X X X X + p ~ / G > @ , 0 5 & = n C A <.p.9.&.C S.S.S.S.",
"S.S.S.b A O.a.<.X.A m e @ 5 0 > > f _ [ D < @ @ @ + o o X X X X o o @ @ 3 D / ) T u + , 0 4 @ k V A ..w.p.&.C S.S.S.S.",
"S.e.n b C ..u.<.} C v @ # 0 , $ q Y [ _ i $ @ $ $ @ o o X X X X O @ > $ > t J [ [ G < o 5 4 + - m A } w.p.%.C b V l.S.",
"S.l.;.Z V A e.>.A C v @ & 1 & > f R T i < > > > > $ o o X X X X O @ > % $ > t ) ` I 7 + , , # - m C } y.p.O.M | 4.c.S.",
"S.o.e.q.A V e.<.| Z v > 0 4 > 7 D D t @ O $ % % % $ o o X X X o o + $ $ @ O O t T T t @ # 0 5 - m A ..e.i.A ..p.1. .S.",
"S.V O.e.O.V e.<.A C v > 0 5 > u 7 $ @ < < $ > < < $ @ o X X X o @ $ > % $ $ @ $ > 7 u < @ y 5 - m Z | y.,.V 3.3...n S.",
"S.C O.o...V ,.;.Z C v * 5 1 > 7 % o p T t $ $ % > $ o o X X X o o @ % $ $ 7 i > X > u u $ 5 , - n C A w. .C O.o.O.m S.",
"S.n M V V B C C V M v * 5 5 > 7 > $ H [ H 7 $ > > $ o o X X X o o @ > < 7 G Q t O > u u % y 1 - b m M C V V C C C n S.",
"S.b V ..O.#.O.O.O.O.b * 0 5 < u < t H _ J @ + @ $ $ @ o X X X o @ @ $ + > f T T > $ L f % y 1 - n C A | O.#.#.#.O.S.S.",
"S.S.V | | A C C C C v @ 4 , 7 g 6 7 D p T 7 i O O X X X X X X o X .   . t T p t > $ j d @ 4 , - n C C C C } | | M S.S.",
"S.S.n n n m m m n m c @ , , 7 j 3 + < < R _ T 9 X . . . . X X . . X O t T ` D . X @ u u @ 1 # - b n n m m m n n b S.S.",
"S.S.S.b N C C C m V v @ & , 3 f < O $ > ) V.B.` G t > > + X X o % t H _ ` ~ t $ 3 % L f @ 1 # - m V N C C A m S.S.S.S.",
"S.S.S.b V } A C m V v @ , , > 7 $ 7 h i ) C.C.B.B.[ Q H 3 X X 1 a Q B.{ { W f _ [ 7 L f $ 1 & - m N N A } | B S.S.S.S.",
"S.S.S.b C o.| A m V v * , & > 7 $ H ) p J { V.B.B.V.[ J , X X t D ) { V.[ T _ V.{ 1 L f @ , & - m N V ..o.<.Z S.S.S.S.",
"S.S.S.b A O.o.1.Z A v = 5 , < s < H ` [ { B.C.V.{ B.` T , X X t G _ { C.V.B.C.{ G @ L f @ 4 1 - M C C o.O.f.S S.S.S.S.",
"S.S.S.b | $.O.a.S } b > y 5 7 j 7 3 T B.C.V.{ [ [ ] Q F , X X t D T ` { V.C.B.J @ @ d u > y 5 - V A C o.#.f.S S.S.S.S.",
"S.S.S.b | &.#.a.A C v @ 4 5 7 j 7 @ p ' B.B.` ` ` ) J D , . X t D Y ` [ V.B.` t O > q 7 % y & - M V A O.#.f.S S.S.S.S.",
"S.S.S.b | &.&.f.A V v @ 5 5 7 ! I > $ D { V.{ [ ` ) F D , . X t D T ` { V.{ Q t @ t d 7 1 y , - m N } &.&.6.Z S.S.S.S.",
"S.S.S.b A $.&.7.C V v * 5 5 7 ^ Q < O f { Z.C.{ [ ` T h , . X t F _ { C.C.{ Q 3 @ i f 7 > y 1 - m N } &.&.%.C S.S.S.S.",
"S.S.S.b C #.#.#.C V v @ , , 7 E _ H i T { C.Z.C.B.B.` D , . X t Y { C.A.Z.B.Q > 3 Q G 3 @ 4 & - m N } #.#.&.C S.S.S.S.",
"S.S.S.b C #.+.#.C V v * 5 , 7 U R p p T [ { B.V.B.{ [ K 1 . X t Q B.Z.V.B.` T % $ J h 7 @ 5 , - m N } #.#.&.C S.S.S.S.",
"S.S.S.b C #.#.#.V V v * 0 5 7 g p i G Q J i t p T T W F 3 . X t J Y T t p T T 7 % f p 7 # y 1 - m N A #.$.&.C S.S.S.S.",
"S.S.S.b C #.9.O.M C v * 4 1 7 g u G J [ Q 3 @ @ 1 p t p 3 . X t > 7 . . t Q ` Q 3 t f u % 5 , - m V C #.&.&.C S.S.S.S.",
"S.S.S.b C #.l.>.M } v * 4 > 3 d < p J [ [ H 1 o < D p p 3 . X t 3 t @ o T B.V.Q > $ L f @ , , - V A C #.&.&.C S.S.S.S.",
"S.S.S.b C #.k.>.V } v > y 5 > 7 > i H [ V.[ _ D H Q T D 3 . X t h T T / V.A.C.Q > $ L f % y 5 - V A C #.&.&.C S.S.S.S.",
"S.S.S.b C #.l.>.V } v * 0 5 < u < 3 D ) { B.[ _ ` ( J Y 3 . X t p T [ V.C.V.[ f < > L f % y 1 - V A C #.&.&.C S.S.S.S.",
"S.S.S.b A #.t.#.V Z v * 5 1 7 g 3 @ p Q ` ` Q ) ) T J T 3 . X i D h Q ) ` ` T 3 < < L f % 5 1 - M C C #.&.&.C S.S.S.S.",
"S.S.S.b A #.O.A m V v * 5 4 7 g < @ > 3 G Q _ T K W a t > . X > a D Q ) Q H t + < < d d % 0 1 - m N V | #.&.C S.S.S.S.",
"S.S.S.b A &.| A M V v * 0 5 7 g < < < @ 7 9 Q D G _ G % # X X o h Q ) T H 7 @ $ 3 < q u % y 1 - m V C A O.&.C S.S.S.S.",
"S.S.S.b A O.} A M A v * 0 5 < 7 < < < < $ + G D Q ` T 3 % . X > G ) ( J p $ $ < > $ 7 u % y 1 - M C V A ..O.V S.S.S.S.",
"S.S.S.b C A C C m m v * 5 , > 3 > > < 3 @ $ D J ) _ T p 3 . X 3 h ) _ I i + < 3 < < q u % 5 , - n m m C C } M b S.S.S.",
"S.S.b n M V M M m C M = 5 , > 3 > < 7 3 > J J ) ( _ J h 3 . X 3 p ) ` ` p $ 3 7 7 < u u @ 4 , w Z C M M M V M m n S.S.",
"S.S.b A 7.7.7.7.o.7.O.2 4 , > 7 $ % < < % D 1 T J ` H a 3 . X 3 i _ Q ` $ $ 3 3 < $ L f @ 4 , r 7.7.7.7.7.7.7.$.V S.S.",
"S.S.v  .l.l.z.l.h.l.2.= & , 3 d < $ > > @ + $ h G _ J p 3 . X 3 p T G f @ $ < > > $ g f @ 1 # k u.g.h.h.h.h.h.e.V S.S.",
"S.S. .V } ..O.| } } V * & & < u < $ < 7 3 $ 3 W G R T p 3 . X 3 D t i 1 $ 7 3 < < > q u @ , # ; V Z } } } } A C b S.S.",
"S.*.e.A A C Z A A A M * , > > 7 $ $ > < < < < J T Q i D 3 . X 5 i D f T $ < < % $ @ 7 u @ , & : Z A A A A A A A  .S.S.",
"&.f.x.s.s.y.y.s.s.s.,.2 0 5 < u % $ $ $ $ > @ $ H Y + t 1 . X % @ i 7 T $ $ % $ $ $ 7 u % y 1 k i.s.s.s.s.s.s.f.v.r.&.",
"&.$.,.e.e.p.f.f.f.f.<.2 0 5 7 g < @ @ @ $ $ $ O < t X < % . X o o < > t $ @ @ $ $ $ d s > y 1 r 8.y.f.f.f.d.y.y.>.&.&.",
"s.O.V X.O.$.&.#.+.#.| = 0 5 7 g < < 7 6 < < $ $ $ o o 3 % . X @ o o @ $ < 7 7 > o @ L f % y 1 w ..O.#.#.+.+.O.O.V %.f.",
"z.O.C o.O.+.+.O.X.} V = 0 5 7 g < < u 7 > > $ @ $ @ o 3 % . X @ o O @ % < 7 u u $ O L f % y 1 w A | O.O.o.o.o...V 7.b.",
"z.O.V ........} A C m * , , < 7 7 u 8 > $ $ $ @ $ + o 3 % . X @ o O @ $ $ > 3 d L d P f % 5 & ; C Z A | X.X.X.| V 7.v.",
"z.O.M V V V V M M M b @ & , > s j u 3 > $ < 8 % 6 @ o 3 % X X @ o O < $ $ $ < q f f f 7 @ 1 # ; m M M B V V V V V 7.v.",
"b.f.$.#.#.#.#.#.#.$...= & , > u s 7 % $ < < < q < 7 < 3 % X X $ 3 < $ @ $ > < 7 u u u 7 @ 1 # e #.#.#.#.#.#.#.#.7.z.b.",
"l.x.z.z.z.z.z.z.z.z.4.= & > $ 7 u 7 $ $ $ @ % 3 % < % 3 % . X @ > > $ @ O @ $ < q q u 7 @ , # k h.z.z.z.z.z.l.l.l.z.l.",
"A &.7.7.7.7.7.7.&.#.} = # # $ 7 7 u j P L q g 7 7 % @ < % . X @ @ > 7 7 < q g L s q 7 3 + # # w O.#.7.7.7.7.#.#.#.+.V ",
"N O.$.&.&.&.%.O.o.X.A * # + @ < < < < < < $ @ @ @ + o % @ . . o o o @ @ @ @ % < < < < > o + + w ....o.#.&.%.&.&.O.| n ",
"V X.O.$.$.$.O.o.| A C - ; ; ; - - ; ; ; ; ; ; ; ; ; - - - - - - ; ; ; ; ; - ; ; ; ; ; ; ; ; - e A A ..o.#.O.#.#.O.| n ",
"V X.X.| | | | | A Z V z n M C N m m m n m m m M V m m m m m m m m m m m m m n n m m m m m m b x C C A | | | | | o.| n ",
"m Z C N N N N N N N m m Z ..#.o.} } A M C Z A | O.} } } } } } } } } } } } A N N A } } } A Z C n N N N N N N N N C C n ",
"n M M C C C C C C C C A ..#.&.$.#.#.#.A C | +.#.%.#.#.#.#.#.#.#.#.#.#.#.O...Z Z ..+.#.#.o.| } C N V Z Z Z Z Z Z Z C n ",
"m A | O.#.#.#.#.#.#.#.#.$.&.&.&.&.&.&.| | #.7.f.f.f.f.f.r.&.s.k.f.f.f.s.&.#.| | o.$.&.&.#.#.#.X.| ..o.o.o.o.o.o.o.| n ",
"M | >.h.z.z.z.l.9.6.f.z.z.l.l.l.l.t.&.| O.&.9.v.b.b.b.b.x.l.v.b.b.b.b.v.z.i.o.| #.p.z.l.z.z.l.h.y.$.$.$.$.$.$.#.O.| n ",
"V O.y.b.b.b.b.M.m.x.b.M.b.b.b.b.b.v.0.| #.7.l.v.v.v.b.b.b.b.b.b.b.M.N.N.M.v.3.O.i.v.b.b.b.M.b.n.m.m.m.c.z.z.z.0.&.O.n ",
"C #.t.v.v.v.v.c.b.c.c.c.c.v.v.c.v.v.0.O.#.&.9.0.0.9.d.v.v.v.v.v.c.b.b.b.c.c.e.#.7.0.9.0.z.b.m.c.b.b.b.c.c.c.v.l.l.e.N ",
"..O.O.#.#.#.#.#.#.#.#.#.#.#.#.#.#.#.O.o.O.O.O.O.O.O.O.#.#.#.#.#.#.#.#.#.;.#.O.O.O.O.O.O.#.;.;.#.#.#.#.#.#.#.#.;.;.O.| "
};
