/* XPM */
static char *ZXpnaWYuY29tLWdpZi1tYWtlci0z_11[] = {
/* columns rows colors chars-per-pixel */
"59 75 256 2 ",
"   c #090D07",
".  c #0B0F09",
"X  c #120F0D",
"o  c #0D110B",
"O  c #13110F",
"+  c #141412",
"@  c #191614",
"#  c #161915",
"$  c #191A16",
"%  c #1B1D1A",
"&  c #221D1B",
"*  c #1E211D",
"=  c #22221E",
"-  c #28221F",
";  c #1D1F21",
":  c #201F20",
">  c #1E2124",
",  c #1D242B",
"<  c #1F282F",
"1  c #1F2933",
"2  c #232621",
"3  c #2B2522",
"4  c #252A24",
"5  c #2B2B26",
"6  c #212529",
"7  c #2A2E2A",
"8  c #302A26",
"9  c #342E2A",
"0  c #283027",
"q  c #2C322B",
"w  c #2F392E",
"e  c #33332E",
"r  c #39312D",
"t  c #31382E",
"y  c #202B34",
"u  c #212E39",
"i  c #24323D",
"p  c #333532",
"a  c #3C3532",
"s  c #343C32",
"d  c #383B37",
"f  c #3B3C3A",
"g  c #364135",
"h  c #384236",
"j  c #3D453B",
"k  c #3E493B",
"l  c #41453F",
"z  c #414E3E",
"x  c #41503F",
"c  c #243442",
"v  c #263846",
"b  c #263A4B",
"n  c #293F53",
"m  c #273D52",
"M  c #294156",
"N  c #2B445B",
"B  c #2D4760",
"V  c #2E4A64",
"C  c #2F4E69",
"Z  c #304F6A",
"A  c #2F506C",
"S  c #30516D",
"D  c #325674",
"F  c #335877",
"G  c #345B7B",
"H  c #385E7C",
"J  c #444443",
"K  c #484747",
"L  c #464A44",
"P  c #494947",
"I  c #4C4C4B",
"U  c #445342",
"Y  c #485646",
"T  c #485846",
"R  c #4E514D",
"E  c #50504F",
"W  c #535453",
"Q  c #555A54",
"!  c #5C5C5B",
"~  c #5E645D",
"^  c #60605F",
"/  c #646463",
"(  c #686767",
")  c #676867",
"_  c #6C6C6B",
"`  c #6D726D",
"'  c #70706F",
"]  c #6F7070",
"[  c gray45",
"{  c #777877",
"}  c #787877",
"|  c #7D7C7C",
" . c #80807F",
".. c #355F80",
"X. c #376285",
"o. c #3A6485",
"O. c #376589",
"+. c #38668B",
"@. c #3A698E",
"#. c #3A6C93",
"$. c #3B6F98",
"%. c #3D7097",
"&. c #3D729C",
"*. c #3D76A2",
"=. c #3E79A6",
"-. c #3E7AA8",
";. c #406E91",
":. c #427296",
">. c #40739A",
",. c #42759B",
"<. c #4377A0",
"1. c #4378A1",
"2. c #437AA4",
"3. c #487EA5",
"4. c #417EAC",
"5. c #427DAA",
"6. c #497FA8",
"7. c #4A80A7",
"8. c #4380AF",
"9. c #4B84AD",
"0. c #4685B3",
"q. c #4683B2",
"w. c #4A86B2",
"e. c #4A88B5",
"r. c #4D89B5",
"t. c #4C89B5",
"y. c #4D8BB8",
"u. c #4D8CBA",
"i. c #4D8CBA",
"p. c #508CB7",
"a. c #508EBB",
"s. c #508DB9",
"d. c #4F90BE",
"f. c #5291BE",
"g. c #5394C2",
"h. c #5798C6",
"j. c #599AC6",
"k. c #579AC8",
"l. c #5B9DCB",
"z. c #5EA1CE",
"x. c #61A0CA",
"c. c #65A6D1",
"v. c #68A9D2",
"b. c #838383",
"n. c #8B8B8B",
"m. c #939393",
"M. c #9B9B9B",
"N. c #A4A4A4",
"B. c gray67",
"V. c #B4B4B4",
"C. c #BCBCBC",
"Z. c gray76",
"A. c None",
"S. c black",
"D. c black",
"F. c black",
"G. c black",
"H. c black",
"J. c black",
"K. c black",
"L. c black",
"P. c black",
"I. c black",
"U. c black",
"Y. c black",
"T. c black",
"R. c black",
"E. c black",
"W. c black",
"Q. c black",
"!. c black",
"~. c black",
"^. c black",
"/. c black",
"(. c black",
"). c black",
"_. c black",
"`. c black",
"'. c black",
"]. c black",
"[. c black",
"{. c black",
"}. c black",
"|. c black",
" X c black",
".X c black",
"XX c black",
"oX c black",
"OX c black",
"+X c black",
"@X c black",
"#X c black",
"$X c black",
"%X c black",
"&X c black",
"*X c black",
"=X c black",
"-X c black",
";X c black",
":X c black",
">X c black",
",X c black",
"<X c black",
"1X c black",
"2X c black",
"3X c black",
"4X c black",
"5X c black",
"6X c black",
"7X c black",
"8X c black",
"9X c black",
"0X c black",
"qX c black",
"wX c black",
"eX c black",
"rX c black",
"tX c black",
"yX c black",
"uX c black",
"iX c black",
"pX c black",
"aX c black",
"sX c black",
"dX c black",
"fX c black",
"gX c black",
"hX c black",
"jX c black",
"kX c black",
"lX c black",
"zX c black",
"xX c black",
"cX c black",
"vX c black",
"bX c black",
"nX c black",
"mX c black",
"MX c black",
"NX c black",
"BX c black",
"VX c black",
"CX c black",
"ZX c black",
"AX c black",
"SX c black",
"DX c black",
"FX c black",
"GX c black",
"HX c black",
"JX c black",
"KX c black",
"LX c black",
"PX c black",
"IX c black",
"UX c black",
/* pixels */
"A.A.A.A.A.A.A.A.A.A.A.A.A.A.A.A.A.A.A.A.A.A.A.A.A.A.A.A.A.A.A.A.A.A.A.A.A.A.A.A.A.A.A.A.A.A.A.A.A.A.A.A.A.A.A.A.A.A.A.",
"A.A.A.A.A.A.A.A.A.A.A.A.A.A.A.A.A.A.A.A.A.A.A.A.A.A.A.B B B B B A.A.A.A.A.A.A.A.A.A.A.A.A.A.A.A.A.A.A.A.A.A.A.A.A.A.A.",
"A.A.A.A.A.A.A.A.A.A.A.A.A.A.A.A.A.A.A.A.A.A.A.N B V G #.G G #.#.D B N N A.A.A.A.A.A.A.A.A.A.A.A.A.A.A.A.A.A.A.A.A.A.A.",
"A.A.A.A.A.A.A.A.A.A.A.A.A.A.A.A.A.A.A.A.A.C C V D $.*.-...@.4.-.&.#.A V C V A.A.A.A.A.A.A.A.A.A.A.A.A.A.A.A.A.A.A.A.A.",
"A.A.A.A.A.A.A.A.A.A.A.A.A.A.A.A.A.A.A.N A #.&.&.*.-.8.8.X.,.y.8.8.-.&.&.&.@.V N A.A.A.A.A.A.A.A.A.A.A.A.A.A.A.A.A.A.A.",
"A.A.A.A.A.A.A.A.A.A.A.A.A.A.A.A.A.A.N C #.-.q.q.q.0.s.g.;.:.f.s.s.0.q.q.8.=.+.V N A.A.A.A.A.A.A.A.A.A.A.A.A.A.A.A.A.A.",
"A.A.A.A.A.A.A.A.A.A.A.A.A.A.A.A.N C V @.q.0.i.s.s.9.#.3.@.D @.#.$.r.s.s.t.0.4...S S N A.A.A.A.A.A.A.A.A.A.A.A.A.A.A.A.",
"A.A.A.A.A.A.A.A.A.A.A.A.A.A.N C D #.G %.y.w.$.#.#.@.X.X.G V G X.X.@.#.#.>.t.y.O.:.:.D V A.A.A.A.A.A.A.A.A.A.A.A.A.A.A.",
"A.A.A.A.A.A.A.A.A.A.A.A.A.A G @.=.q.,.:.$.@.@.@.X.G D D G S S D F X.X.@.@.@.:.:.9.e.=.X.G V A.A.A.A.A.A.A.A.A.A.A.A.A.",
"A.A.A.A.A.A.A.A.A.A.A.N V +.-.-.q.t.9.o.D ..X...D D D D D V S D D D F X.X.G D #.w.e.4.-.=...B A.A.A.A.A.A.A.A.A.A.A.A.",
"A.A.A.A.A.A.A.A.A.A.N V +.=.8.i.e.>.@.X.S Z D D D D D C C B V Z D D D D D C D O.@.1.t.i.4.=...B A.A.A.A.A.A.A.A.A.A.A.",
"A.A.A.A.A.A.A.A.A.N V +.=.8.t.6.>.X.G G D S Z D C V V b 1 1 y n V V C D C S D G G O.>.7.t.4.=...B A.A.A.A.A.A.A.A.A.A.",
"A.A.A.A.A.A.A.A.A.V +.=.8.t.>.@.X.G D C V V N M 1 < < > % % % , < < u N N V V S D G +.@.1.t.4.=...B A.A.A.A.A.A.A.A.A.",
"A.A.A.A.A.A.A.A.V +.=.8.t.>.X.G G D V u , , , > & & & & 3 8 3 & & & & , , , , c S D G G O.1.y.4.*.X.A.A.A.A.A.A.A.A.A.",
"A.A.A.A.A.A.A.B Z &.8.t.>.@.X.D D V u & 3 - 3 - 5 8 9 8 9 9 9 8 8 8 3 - 3 - 3 % c C D F X.@.1.y.4.#.V A.A.A.A.A.A.A.A.",
"A.A.A.A.A.A.N B ,.q.t.>.O.G F C c > & 3 9 9 a 9 3 r a a a a a a a 9 3 9 a 9 9 3 : > b S G G @.1.e.8.@.N A.A.A.A.A.A.A.",
"A.A.A.A.A.A.C C D 3.%...X.D C c 2 3 8 9 r r a 9 3 8 $ @ $ $ @ @ % 9 3 r a r r 9 8 3 2 b S G X.X.%.O.S C C A.A.A.A.A.A.",
"A.A.A.A.A.S #.*.X.S +.O.G C i 2 r 9 5 r r 9 = % $ % @ + + + + + + @ @ % 2 r r 9 3 9 9 2 b S G @...S O.*.X.C A.A.A.A.A.",
"A.A.A.A.A.X.-.8.w.G G X.S i % 3 r 8 & % % 3 e q 7 7 = + + + + + + + 4 s e & % $ - 9 9 3 ; b F X.G o.e.4.=.G A.A.A.A.A.",
"A.A.A.A.S @.=.f.>.X.S C v % 3 9 r & + 4 l I j 7 2 + + # $ + + + + $ t p R L q % + 3 r 9 3 ; n Z D X.7.y.=.O.C A.A.A.A.",
"A.A.A.A...&.2.w.$.G D n % 3 9 r - % 4 R { ! s # # # # % $ + + + # # + = ! [ R q = % 3 r 9 - > B D G >.e.8.=.D A.A.A.A.",
"A.A.A.A.G #.r.1.@.G V u % 9 r - % q W [ ( f $ $ * * * * $ + + + % % $ % J _ _ ~ L 4 $ 3 r 8 % c S G X.7.y.=.D A.A.A.A.",
"A.9.B N D X.9.1.X.D M % & 9 3 % 7 d _ { W * $ * * * * * $ + + + % 2 2 $ 4 ! _ b.~ s 4 $ 9 8 % > B G ..7.y.=.D N S f.A.",
"A.f.,.G S G 7.1.G D M % - 3 - = s L ) P 7 * * 4 4 2 * * $ + + # % 2 2 * % 7 P [ / l q % 3 3 & , B D ..9.y.#.S X.1.j.A.",
"A.@.9.8.G S 7.1.X.F M > r 9 = q h P W 4 + $ * 2 2 2 * * $ + + % * * * * + + % J ! L q % & r 9 , B G +.9.e.G X.0.3.o.A.",
"A.C #.9.;.C 7.1.G D M > r r * t s 7 2 * 7 % * = 4 4 4 2 $ + + = 4 2 = % % 7 # % 4 s s 4 % a 9 , B F X.9.1.S 3.3.O.V A.",
"A.D #.@.@.S ,.>.F D M ; 9 5 2 s 7 % 2 W P * # * 2 2 * * $ + + % * = = * 4 W J + # q s s * 9 5 , B D G 3.@.D #.@.#.C A.",
"A.B C S S A D D S A M ; 9 9 2 s 7 * 2 ) [ f $ 2 4 4 * * $ + + % * 4 4 4 J { ! % # q g s = a 8 , N V C D S S D D D B A.",
"A.A.S +.#.&.#.#.#.#.N ; 9 9 2 h q 2 * Q ( 2 * + # 2 2 2 $ + + 2 2 2 + O 7 ( / d % 2 U j = a 8 , B D G X.@.&.&.&.#.A.A.",
"A.A.Z X.X.G D D D D M ; 8 3 2 U g = * P p p ( * o o + % # + + * + o o % 4 f ! 7 % * z j * 8 3 , B S D D D G X.X.Z A.A.",
"A.A.B B B V V V B V M % 3 3 2 U h % # q 7 { n.P $ + . . O + + o . # * ! / q p + # * s g * 3 & , N B B V V V B B B A.A.",
"A.A.A.A.C D D D V S M % - 3 2 k s # 7 * e [ M.M.( E f f 2 O + % p W ] n.! 7 + 4 7 % U j * 3 & , B S C D D G C A.A.A.A.",
"A.A.A.A.S ..G D V S M ; 3 3 2 s 7 % / f d [ n.V.C.N.M.n.P X + J { N.C.n.! e p | W % U k * 5 - , B S C G ..X.S A.A.A.A.",
"A.A.A.A.D @.X.G C S M ; 3 - 2 s 7 * W ! 7 ! b.M.V.Z.C.M.J O # ! b.V.B.m.^ d m.N.P % U k % 3 - , B S S O.@.<.F A.A.A.A.",
"A.A.A.A.G #.@.1.F F N > 9 3 2 k t 2 p | { | n.n.M.Z.Z.N.J O # ! b.B.m.n.n.b.B.[ 4 % U k * 8 8 , C D D @.#.i.X.A.A.A.A.",
"A.A.A.A.X.=.#.t.H G N > a r 2 U h * 2 _ M.m.b.b.n.N.B.n.J O # ! | n.b.b.m.M.[ 7 # * g h = a 9 , A G D @.&.u.X.A.A.A.A.",
"A.A.A.A...-.&.t.H D M % 5 9 2 U h * 2 W b.b.b.b.b.b.n.| J O + ! | | b.b.n.b.P % % 4 s q = a 3 , V D G $.&.u.X.A.A.A.A.",
"A.A.A.A...-.=.i.H S M ; 9 r 2 Y ~ f * 4 ! b.m.n.b.b.| | J X # ! | | b.n.n.) 4 % * P L q 5 a 3 , B Z ..=.=.4.F A.A.A.A.",
"A.A.A.A.G *.-.5.D S M ; 9 9 2 Y ` J % * ! m.M.M.m.n.b.| J O + !  .n.M.M.m.! % % % W R q 2 a 5 , B S G -.=.=.D A.A.A.A.",
"A.A.A.A.D &.&.&.D S M % 3 3 2 Y ~ ) p f ) n.M.N.V.V.N.b.J O + ^ m.V.C.V.n./ f + J ) L q % 8 - , B S ..&.&.=.D A.A.A.A.",
"A.A.A.A.D &.$.&.D S M ; 8 3 2 U Q W 7 L / ( b.n.n.M.V.M.J O + / B.B.B.n.) ! l o p W j q % 8 3 , V S ..%.&.=.D A.A.A.A.",
"A.A.A.A.D &.&.&.D S M ; 9 9 2 U g f 7 W ) I p 7 e P | n.I O # / n.J p p R ( I # p f s q % a 8 , V Z G %.&.=.D A.A.A.A.",
"A.A.A.A.D &.8.%.S D M ; 8 5 2 U s p 7 ! b.W 4 O O + 7 [ I O # ! 7 O o $ ! b.( d 7 7 s s = 9 3 , V D D &.-.=.D A.A.A.A.",
"A.A.A.A.D &.u.1.S ..N ; 5 3 2 k q 2 2 ! n.n.I O o * J ' I O # ! J #   7 M.n._ f * * L k % 3 3 , C G D &.-.=.D A.A.A.A.",
"A.A.A.A.D &.u.1.S ..N > a r 2 s 2 2 = ! n.M.n.W I ! _ | I X # ! _ W E { V.n.[ d * * x k = a r , C G D &.-.=.D A.A.A.A.",
"A.A.A.A.D &.d.1.S ..N ; 9 r 2 j q 2 4 W [ b.b.b.b.{ | M.I X # ! _ | n.M.m.[ W 7 2 * x k = a 8 , A G D &.-.=.D A.A.A.A.",
"A.A.A.A.D &.q.%.S D N ; 9 8 2 U s * q R ) _ _ ( ) [ M.B.I X # ) | ( ) _ _ / f * q * x k = 9 5 , V D D &.-.=.D A.A.A.A.",
"A.A.A.A.D &.#.G C S M ; 9 9 2 U s * 7 5 q ! / / ) { { ! f O + d } _ ) / W q * % 7 * s g = r 5 , B S S X.&.=.D A.A.A.A.",
"A.A.A.A.G =.+.G C S M ; 9 r 2 U s * 7 = # 5 P d ) | / p e O + % [ { / e 2 $ * 4 7 * q s = a 8 , B S D G #.=.D A.A.A.A.",
"A.A.A.N G #...G C G N ; 9 9 = s 4 * 4 7 2 + * 4 ) | { I p O + f | { ! % $ 2 4 2 2 % q s = a 8 , C D S G X.#.S A.A.A.A.",
"A.A.A.N D G D D V V M ; 9 5 * q 2 * 7 7 4 # + q ( [ _ { K O + I _ _ / 4 * 4 7 7 7 * q s = 9 3 , B V V D D ..C N A.A.A.",
"A.A.A.B C S C C V D A > 8 3 * q 2 * q q 7 q 7 ( ) [ ( | I X + E ( _ ( ) q 7 q q 7 * q s * 8 3 < D D C C C S C V B A.A.",
"A.A.A.G 5.5.5.2.@.2.%.6 8 3 * s 4 % 4 4 4 7 2 W J | ! { I X # I / | f ! q 4 7 7 4 % k j * 5 3 i 2.5.5.5.5.5.5.1.S A.A.",
"A.A.A.o.s.f.g.f.s.a.3., - 3 * k s % 2 2 2 4 $ # q ` / [ I X + I ) ) = * 4 2 2 2 2 % k j * 5 & i 9.p.s.s.s.s.s.9.S A.A.",
"A.A.o.S ..O.#.X.....D ; - 2 * h q % 4 q q 7 4 * * ! { [ I X + P | L $ % 4 q 7 4 4 % q s * 3 & < S F ........G D B A.A.",
"A.@.9.G G D D G G G A > 3 3 = s 2 % * 2 4 7 4 7 d b.) | I X + W ( { 4 q 4 4 2 * * # q s * 3 - < D G G G G G G G o.A.A.",
"A.y.h.y.y.w.w.y.y.y.1.6 9 r 2 j q % * * * 2 * * f ( 4 ! l O + p 7 _ 7 q 2 * * * * # q s = a 8 c w.y.y.y.y.y.y.i.k.0.A.",
"-.*.,.9.9.0.i.i.i.i.1.6 9 r 2 U s $ * % * * * * q f % h e O + * % j 4 2 * $ % * * % g h = a 8 i 3.w.i.i.i.y.w.w.>.=.-.",
"y.#.S @.#.*.-.&.$.&.X.> 9 r 2 U s % * q 4 2 4 2 * # * z e O + 7 % # 2 2 4 g q # % % U k = a 8 y +.#.&.*.$.$.#.#.S *.i.",
"h.#.D @.#.$.$.#.@...S > 9 r 2 U s # t g 2 2 2 2 * % * z e O + 7 % % 2 2 4 g k q # # z k = a 8 y G X.#.#.@.@.@.O.S 2.k.",
"g.#.S O.O.O.O...G D V ; 3 5 = s q w k 4 * * * * = % * z e O + 7 % % * * * 4 g k U q x j * 8 - < D F G X.@.@.@.O.S 2.k.",
"h.%.C S S S S C C C N ; - 3 * e k z s 4 * = 2 4 g % 2 z e O + 7 * * g = * = q h k s h e % 3 & , V C C A S S S S A 5.k.",
"l.i.*.&.&.&.&.&.&.*.@.> - 3 * q h s q * 2 4 4 4 0 U k z e O + q z k = $ 2 * 2 s s s s q % 5 & u %.*.&.&.&.&.&.&.2.g.l.",
"f.h.g.g.g.g.g.g.g.g.7., - 3 % q t s 4 * * * * * 2 s s z e O + q s s * % % * * q s s s q % 3 & i s.g.g.g.g.g.f.f.f.g.f.",
"D =.5.5.5.5.5.5.=.%.X.> & & * q q e z T Y U Y U k 7 7 k t O + 2 7 s x k s U Y k s q q 7 % & & u @.%.2.5.5.5.&.%.$.%.S ",
"C #.*.-.-.-.=.#.@.O.G ; % % % 4 2 4 4 4 4 4 4 4 4 2 2 t 7 O + * 2 2 4 4 4 4 4 4 4 4 4 2 % % $ 1 O.O.@.$.=.=.=.=.#.X.B ",
"C O.#.*.*.*.#.@.O.G D < < < < < , , < < < < < < < < < < , , , < < < < < y < < < < < < < < < , u G G O.@.&.#.%.&.#.X.B ",
"C @.@.X.X.X.X.X.G D S m B C D S V V V B V V V C S V V V V V V V V V V V V V B B V V V V V V N m D D G X.X.X.X.X.@.X.B ",
"V D D Z Z Z Z Z Z Z C B D O.&.@.....G C S F G X.#.........................G S C G ......G F D B Z Z Z Z Z Z Z Z D D B ",
"B C C D D D D D D D D G X.&.-.*.&.&.&.G D X.$.&.=.&.&.&.&.&.&.&.&.&.&.&.$.O.G D O.#.&.%.#.X...D Z S F F F F F F F D B ",
"B G X.#.&.&.&.&.&.&.&.&.*.-.-.-.-.-.-.X.X.&.5.i.u.u.u.u.0.-.e.d.u.u.u.y.=.&.X...@.&.-.-.*.&.&.@.X.O.@.@.@.@.#.@.@.X.B ",
"V X.>.s.g.g.g.f.8.5.u.g.g.f.g.g.f.0.=.X.#.=.8.k.l.l.l.l.h.f.k.l.l.l.l.k.g.e.@...&.0.g.f.g.g.f.s.w.*.*.*.*.*.*.&.#.X.B ",
"C #.8.l.l.l.l.c.x.h.l.c.l.l.l.l.l.h.q.X.&.5.f.k.k.k.l.l.l.l.l.l.l.c.v.v.c.l.7.#.w.h.l.l.l.c.z.z.c.x.x.j.g.g.g.8.=.$.V ",
"D &.q.h.h.h.h.j.l.j.j.j.j.h.h.h.h.h.0.#.&.=.4.8.8.8.e.h.h.h.h.h.j.l.l.l.j.j.9.&.5.8.8.8.g.l.x.j.l.l.l.j.j.j.h.g.g.w.S ",
"+.#.$.%.%.%.%.%.%.%.%.%.%.%.%.%.%.%.$.#.#.#.#.#.#.#.$.%.%.%.%.%.%.%.%.%.%.%.$.#.#.#.#.#.%.>.,.%.%.%.%.%.%.%.%.>.>.%.X."
};
