/* XPM */
static char *ZXpnaWYuY29tLWdpZi1tYWtlci0z_27[] = {
/* columns rows colors chars-per-pixel */
"59 75 256 2 ",
"   c #14110F",
".  c #151311",
"X  c #181714",
"o  c #161915",
"O  c #191916",
"+  c #1C1D1B",
"@  c #211E1C",
"#  c #1E221D",
"$  c #23221E",
"%  c #28231F",
"&  c #1D1E21",
"*  c #1F2123",
"=  c #1D252C",
"-  c #1F2933",
";  c #242421",
":  c #2A2523",
">  c #252A24",
",  c #2B2926",
"<  c #2C2C2A",
"1  c #302A27",
"2  c #332D2A",
"3  c #293027",
"4  c #2D332C",
"5  c #2F392E",
"6  c #32322E",
"7  c #39312E",
"8  c #31382F",
"9  c #202B35",
"0  c #212E39",
"q  c #22323E",
"w  c #343533",
"e  c #3C3532",
"r  c #343B33",
"t  c #393A37",
"y  c #3C3C3B",
"u  c #403835",
"i  c #403F3E",
"p  c #374135",
"a  c #384236",
"s  c #3E433D",
"d  c #3E4A3C",
"f  c #40413F",
"g  c #404E3E",
"h  c #243543",
"j  c #263A4C",
"k  c #293E4D",
"l  c #273D50",
"z  c #283E51",
"x  c #294155",
"c  c #2C465E",
"v  c #2C485E",
"b  c #2C4760",
"n  c #2E4B65",
"m  c #2F4E69",
"M  c #304D67",
"N  c #304F6A",
"B  c #2F506C",
"V  c #30516E",
"C  c #325573",
"Z  c #345877",
"A  c #345B7B",
"S  c #395F7D",
"D  c #444443",
"F  c #484746",
"G  c #464846",
"H  c #484B47",
"J  c #4B4C4B",
"K  c #435141",
"L  c #485845",
"P  c #4F514F",
"I  c #535453",
"U  c #555854",
"Y  c #5C5C5B",
"T  c #5E605E",
"R  c #636362",
"E  c #365F81",
"W  c #366184",
"Q  c #3A6384",
"!  c #376489",
"~  c #38668B",
"^  c #3A698E",
"/  c #3A6C93",
"(  c #3B6F98",
")  c #3E7096",
"_  c #3D729C",
"`  c #3D76A2",
"'  c #3E7AA9",
"]  c #417297",
"[  c #427295",
"{  c #417298",
"}  c #447599",
"|  c #42769F",
" . c #41749B",
".. c #46799F",
"X. c #4076A0",
"o. c #4279A3",
"O. c #477BA1",
"+. c #457BA4",
"@. c #477EA7",
"#. c #437AA4",
"$. c #487BA0",
"%. c #497FA5",
"&. c #407DAB",
"*. c #427FAD",
"=. c #427DAA",
"-. c #487FA9",
";. c #4380AE",
":. c #4480AD",
">. c #4881AA",
",. c #4A82AC",
"<. c #4A83AC",
"1. c #4482B0",
"2. c #4582B0",
"3. c #4684B2",
"4. c #4B87B3",
"5. c #4C86B1",
"6. c #4886B4",
"7. c #4A88B5",
"8. c #4C88B4",
"9. c #4B8AB8",
"0. c #4D8BB8",
"q. c #4D8DBB",
"w. c #508BB6",
"e. c #508DB9",
"r. c #518FBC",
"t. c #4F90BE",
"y. c #5291BE",
"u. c #5191BE",
"i. c #5595C3",
"p. c #5394C2",
"a. c #5798C6",
"s. c #599AC6",
"d. c #579AC8",
"f. c #5A9DCB",
"g. c #609FC9",
"h. c #5DA0CD",
"j. c #62A3CD",
"k. c #64A6D0",
"l. c #67A8D1",
"z. c #68A9D2",
"x. c None",
"c. c black",
"v. c black",
"b. c black",
"n. c black",
"m. c black",
"M. c black",
"N. c black",
"B. c black",
"V. c black",
"C. c black",
"Z. c black",
"A. c black",
"S. c black",
"D. c black",
"F. c black",
"G. c black",
"H. c black",
"J. c black",
"K. c black",
"L. c black",
"P. c black",
"I. c black",
"U. c black",
"Y. c black",
"T. c black",
"R. c black",
"E. c black",
"W. c black",
"Q. c black",
"!. c black",
"~. c black",
"^. c black",
"/. c black",
"(. c black",
"). c black",
"_. c black",
"`. c black",
"'. c black",
"]. c black",
"[. c black",
"{. c black",
"}. c black",
"|. c black",
" X c black",
".X c black",
"XX c black",
"oX c black",
"OX c black",
"+X c black",
"@X c black",
"#X c black",
"$X c black",
"%X c black",
"&X c black",
"*X c black",
"=X c black",
"-X c black",
";X c black",
":X c black",
">X c black",
",X c black",
"<X c black",
"1X c black",
"2X c black",
"3X c black",
"4X c black",
"5X c black",
"6X c black",
"7X c black",
"8X c black",
"9X c black",
"0X c black",
"qX c black",
"wX c black",
"eX c black",
"rX c black",
"tX c black",
"yX c black",
"uX c black",
"iX c black",
"pX c black",
"aX c black",
"sX c black",
"dX c black",
"fX c black",
"gX c black",
"hX c black",
"jX c black",
"kX c black",
"lX c black",
"zX c black",
"xX c black",
"cX c black",
"vX c black",
"bX c black",
"nX c black",
"mX c black",
"MX c black",
"NX c black",
"BX c black",
"VX c black",
"CX c black",
"ZX c black",
"AX c black",
"SX c black",
"DX c black",
"FX c black",
"GX c black",
"HX c black",
"JX c black",
"KX c black",
"LX c black",
"PX c black",
"IX c black",
"UX c black",
/* pixels */
"x.x.x.x.x.x.x.x.x.x.x.x.x.x.x.x.x.x.x.x.x.x.x.x.x.x.x.x.x.x.x.x.x.x.x.x.x.x.x.x.x.x.x.x.x.x.x.x.x.x.x.x.x.x.x.x.x.x.x.",
"x.x.x.x.x.x.x.x.x.x.x.x.x.x.x.x.x.x.x.x.x.x.x.x.x.x.n n n n n n x.x.x.x.x.x.x.x.x.x.x.x.x.x.x.x.x.x.x.x.x.x.x.x.x.x.x.",
"x.x.x.x.x.x.x.x.x.x.x.x.x.x.x.x.x.x.x.x.x.x.x.c n n E / C W / / V n c c x.x.x.x.x.x.x.x.x.x.x.x.x.x.x.x.x.x.x.x.x.x.x.",
"x.x.x.x.x.x.x.x.x.x.x.x.x.x.x.x.x.x.x.x.x.m m n A _ ` ' A / ' ' _ ^ m m m m x.x.x.x.x.x.x.x.x.x.x.x.x.x.x.x.x.x.x.x.x.",
"x.x.x.x.x.x.x.x.x.x.x.x.x.x.x.x.x.x.x.c C _ _ _ ` &.;.*.A %.7.;.;.' _ _ _ ! n c x.x.x.x.x.x.x.x.x.x.x.x.x.x.x.x.x.x.x.",
"x.x.x.x.x.x.x.x.x.x.x.x.x.x.x.x.x.x.c V _ ' 2.2.2.7.e.i.~ O.u.r.q.2.2.2.*.' W n c x.x.x.x.x.x.x.x.x.x.x.x.x.x.x.x.x.x.",
"x.x.x.x.x.x.x.x.x.x.x.x.x.x.x.x.c m m / 2.6.q.e.e.=./ >.Q A / / ) 8.e.e.8.3.&.A C M c x.x.x.x.x.x.x.x.x.x.x.x.x.x.x.x.",
"x.x.x.x.x.x.x.x.x.x.x.x.x.x.c m Z / C o.q.<./ / / ~ W W Z n A W ! / / ^ | 8.7.W $.^ C n c x.x.x.x.x.x.x.x.x.x.x.x.x.x.",
"x.x.x.x.x.x.x.x.x.x.x.x.c V A / ' 2.] } / ^ ^ ! W A C C A N V Z A W W ^ ^ ^ ] [ w.3.` E A n x.x.x.x.x.x.x.x.x.x.x.x.x.",
"x.x.x.x.x.x.x.x.x.x.x.c m / ' ' 2.5.,.W A W W A C C C C C m V Z C C A W W A C ] 5.7.&.' ` A b c x.x.x.x.x.x.x.x.x.x.x.",
"x.x.x.x.x.x.x.x.x.x.c m / ' 2.q.4.( ~ E V V C C C C V m m n m N C C C C C m C ! ^ +.0.9.&.` A c c x.x.x.x.x.x.x.x.x.x.",
"x.x.x.x.x.x.x.x.x.c m / ' 2.4.@.( W A Z C V V C m m n h - - 9 x m m V C m V C A E ! O.>.7.&.` A c c x.x.x.x.x.x.x.x.x.",
"x.x.x.x.x.x.x.x.x.m / ' 2.4.) ~ W Z C m n n c x - = - * + + + = = = q v b n n V C A ! ^ @.7.&.` A n x.x.x.x.x.x.x.x.x.",
"x.x.x.x.x.x.x.x.m / ' 2.8.) W A A C n 9 = = = * @ @ @ @ : 1 % @ @ @ @ = = = = j V C A A ^ @.7.' ` A c x.x.x.x.x.x.x.x.",
"x.x.x.x.x.x.x.c V ` 2.8.) ~ E C C n 9 @ : % : % 1 1 1 1 2 2 1 1 1 1 : % : % % & j V C A ! ^ @.7.*.! n c x.x.x.x.x.x.x.",
"x.x.x.x.x.x.c n ..3.8.( W A Z m 0 * $ , 1 2 e 1 : 7 e e e e e e e 2 : 7 e 1 1 : * = z C A A ^ O.6.>.Q c x.x.x.x.x.x.x.",
"x.x.x.x.x.x.m m Z %./ E W C n 0 % : 1 2 7 7 e 2 : , X O O O O X @ 1 : e e 7 7 2 , : ; z C A W W ) W N m n x.x.x.x.x.x.",
"x.x.x.x.x.V / _ A V ! W Z m 0 ; 7 1 , 7 e 2 O X X . . . . . . . . X . X % 7 7 2 : 7 1 * z C A ^ A V ^ ` E m x.x.x.x.x.",
"x.x.x.x.c ~ ' 2.,.Z A W m 0 @ , 7 1 @ X . . . . . . . . . . . . . . . . . . X + : 2 2 % * z A W C ^ 7.*.` C x.x.x.x.x.",
"x.x.x.x.C / ' u.{ E N m h @ , 7 2 @ X + O . . . . . . . . . . . . . . . . O @ + . , 7 2 % * x N C ! 5.6.' W m x.x.x.x.",
"x.x.x.c ! _ =.4./ A C j + , 7 2 , $ ; 6 $ . . . . . . . . . . . . . . . X ; 2 , O X , 7 1 % = n C E O.7.*.` V x.x.x.x.",
"x.x.x.c E / w.| ! Z n - @ 7 2 < f w 2 2 X . X X . . . . . . . . . . X X . X : < , y , , 7 , & j V W ! <.6.` V x.x.x.x.",
"x.%.c c A ! 8.| E C z + % 7 : w P y w , O X X X X . . . . . . . . . O O X . + < H R t O 2 1 + = m A W <.6.` V c Z i.x.",
"f.y.{ C C A 5. .A C z + % , % w I s < $ O O O X X . . . . . . . . . O O O . O < D Y G + , : @ = m C W 8.3.^ m ! %.s.x.",
"Q ^ 4.=.Z C 5.| W C l ; 7 , ; s s < # + o O O X X . . . . . . . . . X X X O + # > t G > $ 7 1 - m A ! 8.3.C ~ 8.O.~ x.",
"x V ( 4.~ V 5.| A C l @ e 1 ; 4 w > + ; O X O O O . . . . . . . . . O O X O # # > ; < 4 @ e 1 = m A W 8.{ V >.o.W b x.",
"c C / / ! V %.) C V k + 2 : + # w > < < o X O O O . . . . . . . . . X O . O ; # < ; ; 4 + 2 : = m C A >.Q A / ^ ~ n x.",
"x.n m V V m Z C V m k + 7 1 + # w > w t + O O O X . . . . . . . . . O O X + 6 > D 4 > w ; e , = n n m C V V V C C n x.",
"x.c C ! / _ / / ( ^ l + 7 , + # 4 w w w + . . O X . . . . . . . . . O O . + > w J G r d ; e : = m C A W / _ _ _ / x.x.",
"x.c V W W A C C C C z + 1 : $ ; o t w O < O   . . . . . . . . . . .     @ < . G w 6 r d $ 1 : = m C C C C E W E m x.x.",
"x.x.n n n m n n n n k + : % $ ; . $ ; O w , O .     . . . . . . . .   . ; t ; + o . > r $ , @ = b n n m n n n n c x.x.",
"x.x.x.c N C C C n C z + : ; # w < > > < y y 2 ; O X . . . . . . . . + ; 6 t 4 t w + > g $ , @ = m m N C C A n x.x.x.x.",
"x.x.x.c C E A C n V z + , ; + U H y < < D F t , : ; X . . . . . . X > < y y w Y R t 3 g $ , % = m N N A E W m x.x.x.x.",
"x.x.x.c A ^ W A m V z + : @ + H s U F < t G y 2 , , @   . . . . . O , w y y w Y R P w g # : % = m m C ! / | C x.x.x.x.",
"x.x.x.c E / / O.C A z @ 2 : # 4 y Y U D D D y t , ; O . . . . . . + < y y D J R Y P w d $ 2 , = V C A ^ ) e.Z x.x.x.x.",
"x.x.x.c ! ` ( 8.A E z $ e 1 $ ; w J J J G y 2 < , ; . . . . . . . + , 6 y G Y T G w < r ; u 1 = C Z A ^ ` r.Z x.x.x.x.",
"x.x.x.c ! ' ) 8.Z C z + 1 1 $ > r G y G D y < : , ; . . . . . . . + : 2 i G Y U D ; ; 4 ; e % = N V E / ` q.Z x.x.x.x.",
"x.x.x.c ! ' ' q.Z V z + 7 1 y T J D w t G D < : , ; X . . . . . . + : w D H Y U G ; ; 4 < e : = m m W ' ' &.C x.x.x.x.",
"x.x.x.c A ` ' #.V V z + 7 1 D Y H D < t F G t < : : + . . . . . . ; < y H Y R I G ; $ 4 ; e : = m m W ' ' ` V x.x.x.x.",
"x.x.x.c A ` _ _ V V k + , : t s H J y y H F y t < , @ . . . . . . : 2 D J Y R J D w J r + 1 @ = m m W _ ` ` V x.x.x.x.",
"x.x.x.c A _ / _ V V z + 2 : 6 r D J J D G D t t w , @ . . . . . . , t y H G J G s 6 I r + 2 : = m m W _ ` ` V x.x.x.x.",
"x.x.x.c A ` _ ( V V z + 7 1 # # y H y t < > + ; < , @ . . . . . . : < $ < < w t y t I r $ e , = m m W ) ` ` V x.x.x.x.",
"x.x.x.c A ` ;./ m C z + 1 : + # t D 4 w ; O . O @ , @ . . . . . X ; . . + + < J J J I a $ 2 : = N V A _ ' ` V x.x.x.x.",
"x.x.x.c A ` u.{ B E z + 1 % + O w D w y w .   . @ , @ . . . . . X ; O   + y D I J G d K $ , : = C Z A ` ' ` V x.x.x.x.",
"x.x.x.c A ` u.{ B E z ; u 1 O o w H D F H 2 ; + ; , @ . . . .   X : : > t Y I U I H d K ; u 1 = C Z A _ ' ` V x.x.x.x.",
"x.x.x.c A ` u.{ B E z + 7 1 + # t J J D G D < ; : ; O . . . . . . @ < t G P I I I t a K ; e : = C Z A _ ' ` V x.x.x.x.",
"x.x.x.c A ` 3.( m Z z + 2 , + < y G G k D y > : , @   . . . . . . X : < t D I U J > r K ; 7 : = B V A _ ' ` V x.x.x.x.",
"x.x.x.c A ` / A m V l + 7 , + > > t y w t t < ; @ @   . . . . . . X : 6 t y t D w # 4 p $ 7 : = m m V W _ ` V x.x.x.x.",
"x.x.x.c W ` W A m C z + 7 1 + > # < w < w ; < ; + > + . . . . . . $ < 2 w w > < # $ 4 8 ; e : = m N C A / ` V x.x.x.x.",
"x.x.x.c A / A Z m A z + 7 1 O # $ # > < > O < : ; , @ . . . .   . : < 2 < > < ; # ; < 8 $ e : = V C V A ! / N x.x.x.x.",
"x.x.c c C A C C n m z + 2 : O ; ; o > < ; + < < : : @ . . . . . . : < 2 < ; y 4 ; < 4 8 @ 2 : - n n m C C E m c x.x.x.",
"x.x.c n B V m m n Z n $ 2 : O ; ; + ; < > < < , : : @ . . . . . . : 2 2 < < D 4 ; 3 4 r + 1 : 0 A C m m m V m m n x.x.",
"x.x.c W &.&.&.#.^ =.! * 1 ; O ; # o o > ; , + : : : @ . . . . . X : w 6 + w 4 o ; > 5 g $ 1 % j &.&.&.&.&.&.&._ m x.x.",
"x.x.x ^ u.p.p.r.e.u.} + : ; + ; # O o ; o . O < : , @ . . . . . . ; < : O r < o # ; 5 d $ , @ k 8.e.e.e.e.e.e.>.N x.x.",
"x.x.S V E ~ / W E W m + % @ + ; # # + > + . + w < > + . . . . . . X > + . w 4 + > > 3 8 + : @ 9 V A E E E E A V c x.x.",
"x.] %.A A C A A A A n + : % O # # # o $ + O O < < @ . . . . . . . . : 2 . < > + ; # > 4 + , @ 0 A A A A A A A A ~ x.x.",
"' q.i.9.9.4.7.9.9.q.) ; 7 1 + # # # O o o O . X ; $   . . . . . . . + 2 . O o + # # > 4 ; e : k 7.9.9.9.9.9.9.q.d.1.' ",
"' X...,.,.7.q.q.q.q.] ; 7 1 + ; # # + o o o . . O O . . . . . . . . X $ X X + # + # 3 a ; e : k >.4.q.q.q.0.4.4. .' ' ",
"7.~ C ~ / ` ' _ ( _ A * 7 1 + # + ; > + o O . . X . . . . . . . . . . . O O # > 3 # 4 K ; e : h ~ / ` _ ( ( / ^ C &.q.",
"p.~ C ^ / ( ( / ! E m + 7 1 + 4 ; ; > + o O . . X . . . . . . . . . . X O O # 3 4 5 5 g ; e : 0 A W / / ^ ^ ^ W C :.f.",
"p.~ C ~ ! ! ! A A C v + , : + 4 4 > # o o X X . X . . . . . . . . . . X X o + ; 3 d L K $ 1 @ 9 C Z A W ~ ~ ~ W V &.f.",
"p./ m V V V V m m m x + : % 3 d 4 ; # + o O $ . X . . . . . . . . . . X X o + ; < r d r + , @ - m m m V V V V B C :.f.",
"f.0.` _ _ _ _ _ _ ` W + : % > a 4 ; o # + O O $ O . . . . . . . . . . . . + # ; 3 8 r 4 + , @ h _ _ _ _ _ _ _ _ #.i.f.",
"y.i.p.p.p.p.p.p.p.p.} + % % ; < $ + o + o . O + X . . . . . . . . . X . . O # + # > 4 4 + : @ x u.p.p.p.p.p.u.u.p.i.y.",
"A ' &.&.&.&.&.#.' ) A + @ + # > ; ; > > $ O + . . . . . .       . . . . . O > 3 > a r < + @ + h / _ #.&.&.&._ ) ) / N ",
"V / ` ' ' ' ` / ^ ! C + @ O + $ # + O O O . .                               X O O $ > ; O + O q ! ! / _ ' ` ' ` / E b ",
"V ~ / ` ` ` / ^ W A B = = = = = = = = = = = = = = = = = = = = = = = = = = = = = = = = = = = = h A A ! ^ _ / _ _ / E b ",
"V ^ ! W W W W W A Z B j n m C m m m m b n m m m V m m m m m m m m m m m m m n n m m m m m m c x C C A W W W W W ^ W b ",
"m A C N N N N N N N m n A ! _ ~ E E A m C Z A ! / E E E E E A A E E E E E A m V A E E E A Z V n N N N N N N N V C C c ",
"n m m C Z C C C C C C A ! ` ' ` _ _ ( C C W _ ` ` _ _ _ _ _ ) ) _ _ _ _ / ! C A ! ( _ _ ^ W A C N C Z Z Z Z Z Z Z C c ",
"m A W / _ _ _ _ _ _ _ _ ` ' ' ' ' ' ' E W _ *.q.q.q.q.t.2.' 9.q.q.q.t.7.' / E W ^ ` ' ' _ _ ) ~ W ! ^ ^ ^ ^ ^ ^ ^ W b ",
"m ! o.r.p.p.p.u.*.*.u.p.p.u.p.p.u.2.` W _ ' 3.f.f.f.f.f.i.u.s.f.f.f.f.s.p.4.! W ) 7.u.u.p.p.u.w.,.` ` ` ` ` ` _ / E b ",
"V / 6.f.f.f.f.k.j.i.h.k.f.f.f.f.f.i.*.W ` *.p.s.s.s.f.f.f.f.f.f.f.l.z.z.k.d.O./ 7.d.f.f.h.k.f.j.j.g.g.s.p.p.p.;.' / n ",
"A ` 6.a.a.a.a.f.f.s.s.s.a.a.a.a.a.a.:./ ` ' :.:.:.;.q.a.a.a.a.a.s.f.f.f.s.s.-._ *.:.;.2.i.f.j.s.f.f.f.s.s.s.a.p.p.>.m ",
"! / ( ) ) ) ) ) ) ) ) ) ) ) ) ) ) ) / / / / / / / / ( ) ) ) ) ) ) ) ) ) ) ) ( / / / / / ) {  .) ) ) ) ) ) ) ) { { ( W "
};
