/* XPM */
static char *ZXpnaWYuY29tLWdpZi1tYWtlci0z_26[] = {
/* columns rows colors chars-per-pixel */
"59 75 256 2 ",
"   c #14110F",
".  c #151310",
"X  c #181614",
"o  c #171A16",
"O  c #191916",
"+  c #1C1D1A",
"@  c #211D1B",
"#  c #1E211D",
"$  c #22221F",
"%  c #28231F",
"&  c #1D1E20",
"*  c #1F2123",
"=  c #1D252C",
"-  c #1F2A33",
";  c #232421",
":  c #2B2522",
">  c #252A24",
",  c #2C2926",
"<  c #2C2D2A",
"1  c #312A27",
"2  c #322D2B",
"3  c #293027",
"4  c #2D332C",
"5  c #2F392E",
"6  c #32322E",
"7  c #39312E",
"8  c #31392F",
"9  c #202B35",
"0  c #212E39",
"q  c #22313E",
"w  c #343432",
"e  c #3C3533",
"r  c #353B33",
"t  c #393937",
"y  c #3C3C3B",
"u  c #403834",
"i  c #403F3E",
"p  c #364035",
"a  c #384236",
"s  c #3D413C",
"d  c #3E4B3C",
"f  c #41413F",
"g  c #414D3F",
"h  c #243543",
"j  c #263A4C",
"k  c #293D4C",
"l  c #273D50",
"z  c #283E51",
"x  c #294156",
"c  c #2C465E",
"v  c #2C485F",
"b  c #2C4760",
"n  c #2E4B65",
"m  c #2F4E69",
"M  c #304D67",
"N  c #304F6A",
"B  c #2F506C",
"V  c #30516E",
"C  c #325573",
"Z  c #335877",
"A  c #345B7B",
"S  c #395F7D",
"D  c #444443",
"F  c #454945",
"G  c #494847",
"H  c #4C4C4B",
"J  c #435141",
"K  c #495946",
"L  c #4F524E",
"P  c #50524F",
"I  c #535352",
"U  c #585655",
"Y  c #585857",
"T  c #5B5B5B",
"R  c #5E625D",
"E  c #605F60",
"W  c gray39",
"Q  c #696A69",
"!  c #365F81",
"~  c #366184",
"^  c #3A6384",
"/  c #376589",
"(  c #38668B",
")  c #3A698E",
"_  c #3A6C93",
"`  c #3B6F98",
"'  c #3F7096",
"]  c #3D729C",
"[  c #3D76A2",
"{  c #3E7AA8",
"}  c #427296",
"|  c #41749B",
" . c #46799E",
".. c #487A9F",
"X. c #4076A0",
"o. c #4279A2",
"O. c #477AA1",
"+. c #457BA4",
"@. c #467DA6",
"#. c #427AA5",
"$. c #497EA5",
"%. c #407DAB",
"&. c #427FAD",
"*. c #427DAB",
"=. c #4680AB",
"-. c #4380AE",
";. c #4480AD",
":. c #4881AA",
">. c #4A82AC",
",. c #4482B0",
"<. c #4582B0",
"1. c #4684B2",
"2. c #4B87B3",
"3. c #4C87B3",
"4. c #4C86B1",
"5. c #4987B5",
"6. c #4888B6",
"7. c #4C88B4",
"8. c #4B8AB8",
"9. c #4D8BB8",
"0. c #4E8DBB",
"q. c #4D8CBA",
"w. c #508AB4",
"e. c #508BB6",
"r. c #508DB9",
"t. c #518FBC",
"y. c #4F90BE",
"u. c #5291BE",
"i. c #5191BE",
"p. c #5595C3",
"a. c #5394C2",
"s. c #5798C6",
"d. c #599AC6",
"f. c #579AC8",
"g. c #5A9DCB",
"h. c #609FC9",
"j. c #5DA0CD",
"k. c #62A3CD",
"l. c #64A6D0",
"z. c #67A8D1",
"x. c #68A9D2",
"c. c None",
"v. c black",
"b. c black",
"n. c black",
"m. c black",
"M. c black",
"N. c black",
"B. c black",
"V. c black",
"C. c black",
"Z. c black",
"A. c black",
"S. c black",
"D. c black",
"F. c black",
"G. c black",
"H. c black",
"J. c black",
"K. c black",
"L. c black",
"P. c black",
"I. c black",
"U. c black",
"Y. c black",
"T. c black",
"R. c black",
"E. c black",
"W. c black",
"Q. c black",
"!. c black",
"~. c black",
"^. c black",
"/. c black",
"(. c black",
"). c black",
"_. c black",
"`. c black",
"'. c black",
"]. c black",
"[. c black",
"{. c black",
"}. c black",
"|. c black",
" X c black",
".X c black",
"XX c black",
"oX c black",
"OX c black",
"+X c black",
"@X c black",
"#X c black",
"$X c black",
"%X c black",
"&X c black",
"*X c black",
"=X c black",
"-X c black",
";X c black",
":X c black",
">X c black",
",X c black",
"<X c black",
"1X c black",
"2X c black",
"3X c black",
"4X c black",
"5X c black",
"6X c black",
"7X c black",
"8X c black",
"9X c black",
"0X c black",
"qX c black",
"wX c black",
"eX c black",
"rX c black",
"tX c black",
"yX c black",
"uX c black",
"iX c black",
"pX c black",
"aX c black",
"sX c black",
"dX c black",
"fX c black",
"gX c black",
"hX c black",
"jX c black",
"kX c black",
"lX c black",
"zX c black",
"xX c black",
"cX c black",
"vX c black",
"bX c black",
"nX c black",
"mX c black",
"MX c black",
"NX c black",
"BX c black",
"VX c black",
"CX c black",
"ZX c black",
"AX c black",
"SX c black",
"DX c black",
"FX c black",
"GX c black",
"HX c black",
"JX c black",
"KX c black",
"LX c black",
"PX c black",
"IX c black",
"UX c black",
/* pixels */
"c.c.c.c.c.c.c.c.c.c.c.c.c.c.c.c.c.c.c.c.c.c.c.c.c.c.c.c.c.c.c.c.c.c.c.c.c.c.c.c.c.c.c.c.c.c.c.c.c.c.c.c.c.c.c.c.c.c.c.",
"c.c.c.c.c.c.c.c.c.c.c.c.c.c.c.c.c.c.c.c.c.c.c.c.c.c.n n n n n n c.c.c.c.c.c.c.c.c.c.c.c.c.c.c.c.c.c.c.c.c.c.c.c.c.c.c.",
"c.c.c.c.c.c.c.c.c.c.c.c.c.c.c.c.c.c.c.c.c.c.c.c n n ! _ C ~ _ _ V n c c c.c.c.c.c.c.c.c.c.c.c.c.c.c.c.c.c.c.c.c.c.c.c.",
"c.c.c.c.c.c.c.c.c.c.c.c.c.c.c.c.c.c.c.c.c.m m n A ] [ { A _ %.{ ] _ m m m m c.c.c.c.c.c.c.c.c.c.c.c.c.c.c.c.c.c.c.c.c.",
"c.c.c.c.c.c.c.c.c.c.c.c.c.c.c.c.c.c.c.c C ] ] ] [ %.-.&.A $.6.-.-.{ ] ] ] ( n c c.c.c.c.c.c.c.c.c.c.c.c.c.c.c.c.c.c.c.",
"c.c.c.c.c.c.c.c.c.c.c.c.c.c.c.c.c.c.c V ] { <.<.<.5.r.p.( O.i.t.q.1.<.<.&.{ ~ n c c.c.c.c.c.c.c.c.c.c.c.c.c.c.c.c.c.c.",
"c.c.c.c.c.c.c.c.c.c.c.c.c.c.c.c.c m m _ <.5.q.r.r.*._ =.~ A _ _ ' 7.r.r.7.1.%.A C M c c.c.c.c.c.c.c.c.c.c.c.c.c.c.c.c.",
"c.c.c.c.c.c.c.c.c.c.c.c.c.c.c m C _ C o.q.2._ _ _ ( ~ ~ Z n A ~ / _ _ ) | 7.6.~ ..) C n c c.c.c.c.c.c.c.c.c.c.c.c.c.c.",
"c.c.c.c.c.c.c.c.c.c.c.c.c V A _ { <.} | _ ) ) / ~ A C C A N V C A ~ ~ ) ) ) } } w.1.[ ! A n c.c.c.c.c.c.c.c.c.c.c.c.c.",
"c.c.c.c.c.c.c.c.c.c.c.c m _ { { <.4.>.~ A ~ ~ A C C C C C m V C C C A ~ ~ A C } 4.6.&.{ [ A b c.c.c.c.c.c.c.c.c.c.c.c.",
"c.c.c.c.c.c.c.c.c.c.c m _ { <.q.2.` ( ! V V C C C C V m m n m N C C C C C m C / ) +.9.8.%.[ A c c.c.c.c.c.c.c.c.c.c.c.",
"c.c.c.c.c.c.c.c.c.c m _ { <.2.@.` ~ A Z C V V C m m n h - - 9 x m m V C m V C A ! / O.:.6.%.[ A c c.c.c.c.c.c.c.c.c.c.",
"c.c.c.c.c.c.c.c.c.m _ { <.2.' ( ~ Z C m n n c x - = - * + + + = = = q c b n n V C A / ) @.7.%.[ A n c.c.c.c.c.c.c.c.c.",
"c.c.c.c.c.c.c.c.m _ { <.7.' ~ A A C n 9 = = = * @ @ @ @ : 1 % @ @ @ @ = = = = j V C A A ) @.6.%.[ A c c.c.c.c.c.c.c.c.",
"c.c.c.c.c.c.c.c V [ <.7.' ( ! C C n 9 @ : % : % 1 1 1 1 2 2 1 1 1 1 : % : % % & j B C A / ) @.6.&.( n c c.c.c.c.c.c.c.",
"c.c.c.c.c.c.c n  .1.7.' ~ A Z m 0 * $ , 1 2 e 1 : 7 e e e e e e e 2 : 7 e 1 1 : * = l C A A ) O.5.=.~ c c.c.c.c.c.c.c.",
"c.c.c.c.c.c.m m C $.` ! ~ C n 0 % : 1 2 7 7 e 2 : , X O O O O X @ 1 : e e 7 7 2 , : ; l V A ~ ~ ' ~ N m n c.c.c.c.c.c.",
"c.c.c.c.c.V _ ] A V / ~ Z m 0 ; 7 1 , 7 e 2 O X X . . . . . . . . X . X % 7 7 2 : 7 1 ; l C A ( A V ) [ ! m c.c.c.c.c.",
"c.c.c.c.c ( { <.>.Z A ~ N 0 @ , 7 1 @ X . . . . . . . . . . . . . . . . . . X + % 2 2 : * l A ~ C ) 6.&.[ C c.c.c.c.c.",
"c.c.c.c.C _ { i.} ! N m h @ , 7 2 @ X + + . . . . . . . . . . . . . .   X + ; $ . : 7 2 % * x N C / 4.6.{ ~ m c.c.c.c.",
"c.c.c.c ( ] *.2._ A C j + , 7 2 > $ < y > . . . . . . . . . . . . . . . O > t < + X , 7 2 % = n C ! O.6.&.[ V c.c.c.c.",
"c.c.c.c ! _ 7.| / Z n - @ 7 2 < y t t t O . O O . . . . . . . . . . O X . O < w 6 y ; , 7 , & j V ~ / >.5.[ V c.c.c.c.",
"c.$.c c A / 3.| ! C l + % 7 : 6 H D y 6 + O O O O . . . . . . . . . O + O . $ t I R t O 2 1 + = m A ~ >.5.[ V c C p.c.",
"c.u.} C C A >.| A C l + % , % w I D 4 ; + + + O O . . . . . . . . . O O O . + w G T D + , : @ = m C ~ 7.2.) m ~ $.d.c.",
"c.) 2.*.Z C 4.| ~ C l ; 7 , ; s D < + O o O O O O . . . . . . . . . O O O O O # < y D ; $ 7 1 = m A / 7.1.C / 7.O.^ c.",
"c.V ` 2.( V 4.| A C l ; e 1 ; 5 w ; + ; + O + + + . . . . . . . . . + + O O $ # > ; 4 3 $ e 1 = m A ~ 7.} V :.o.~ n c.",
"c.C _ _ / V $.' C C l + 2 : + $ w ; w w O O O O O . . . . . . . . . O O X o > ; > # > 8 # 2 : = m C A :.~ A _ ) ( n c.",
"c.n m V V m C C V m l + 7 1 + # w > t D + O + O O . . . . . . . . . O + O + t < y < > r ; e , = n n m C V V V C C n c.",
"c.c C / _ ] _ _ ` ) z + 7 1 # $ < w y y $ . . O O . . . . . . . . . O O . + > y G D p d ; e : = m C A ~ _ ] ] ] _ c.c.",
"c.c V ~ ~ A C C C C l + 1 : ; > o t t + t +     . . . . . . . . . .     ; w o D w < r d $ 1 : = n C C C C ! ~ ! m c.c.",
"c.c.n n n m n n n n l + : % ; > . # > + y 2 + X     . . . . . . . .   . > D > + X . > r @ , @ = b n n m n n n n c c.c.",
"c.c.c.c N C C C n V l + : ; $ r > ; ; < G H t < + X . . . . . . . . + < t D w w w + 3 d $ , @ = m m N C C A n c.c.c.c.",
"c.c.c.c C ! A C n V l + , : + L D y < < G U D 6 2 > O . . . . . . O < t G D t T Q t 5 d $ 1 % = m N N A ! ~ m c.c.c.c.",
"c.c.c.c A ) ~ A m V l + : @ + D t T H > D I G t 2 2 ;   . . . . . + 6 i G D w W Q G r d # : % = m m C / _ o.C c.c.c.c.",
"c.c.c.c ! _ ) O.C A l $ 2 : $ 4 t T E G G H G D 6 < + . . . . . . + w G D H U Q T G r d $ 2 , = V C A ) ' r.Z c.c.c.c.",
"c.c.c.c ( [ _ 7.A ! l ; e 1 ; > w H I Y H G t t 2 : X . . . . . . + 2 y D P Q W D 4 3 r ; u 1 = C Z A ) [ t.Z c.c.c.c.",
"c.c.c.c ( { ' 7.Z C l + 1 1 ; 3 w s D H H G w 2 2 : X . . . . . . + < w G H W U y ; > 5 ; e % = N V ! _ [ q.Z c.c.c.c.",
"c.c.c.c / { { q.Z V l + 7 1 y R H y < y I H w 2 2 : X . . . . . . + < t H I W I s ; > 5 < e : = m m ~ { { %.C c.c.c.c.",
"c.c.c.c A [ { #.V V l + 7 1 D R G y < y I I D w 2 < $ . . . . . X > w G U W Q H y $ ; 4 ; e : = m m ~ { { [ V c.c.c.c.",
"c.c.c.c A [ ] ] V V l + : : t F H H y D U I G D w 2 ; . . . . . X < t H T Q Q G y t H r + 1 @ = m m ~ ] [ [ V c.c.c.c.",
"c.c.c.c A ] _ ] V V l + 2 : w y D G H D H G D D i 2 ; . . . . . X 6 D G U H H D t w L r + 2 : = m m ~ ] [ [ V c.c.c.c.",
"c.c.c.c A [ ] ` V V l + 7 1 $ $ y G D D < > + : w 2 ; . . . .   X 2 w ; < < y t t t I r $ e , = m m ~ ' [ [ V c.c.c.c.",
"c.c.c.c A [ -._ m C l + 1 , $ # t D t s > o . + ; 2 ; . . . . . X : . . + ; w I F H P a $ 2 : = m V A ] { [ V c.c.c.c.",
"c.c.c.c A [ i.} B ! l + 1 % # # w D y G t .   X ; 2 ; . . . . . X > +   @ D I U F D g F $ , : = C Z A ] { [ V c.c.c.c.",
"c.c.c.c A [ i.} V ! l ; e 1 + o w G G I U w > $ : 2 ; . . . .   X < 2 < D Q W T H D g g ; e 1 = C A A ] { [ V c.c.c.c.",
"c.c.c.c A [ i.} V ! z + 7 1 + $ w H H G P H w < 2 < + . . . . . . ; w D I T T I H t a g ; e , = C Z A ] { [ V c.c.c.c.",
"c.c.c.c A [ 1.` m Z l + 2 , # 3 t D D D D D < 2 2 ;   . . . . . . X < w D D U P F > p F ; 7 : = B V A ] { [ V c.c.c.c.",
"c.c.c.c A ] _ A m V l + 7 , # 3 > t t < y i w < ; ;   . . . . . . X 2 t y D y y 4 # 5 p $ 7 : = m m V ~ ] [ V c.c.c.c.",
"c.c.c.c ~ [ ~ A m C l + 7 1 # 3 # < 4 > w > w < @ < @ . . . . . X : w t y w ; > $ $ 5 8 ; e : = m N C A _ [ V c.c.c.c.",
"c.c.c.c A _ A Z m A l + 7 1 + $ # # > < ; O w 2 < 6 ; . . . .   X < w t w ; > ; # ; < 8 $ e : = V C V A / _ N c.c.c.c.",
"c.c.b c C A C C n m l + 2 : + ; ; + > < # + w w 2 2 ; . . . . . X < t t w # t 4 ; > 5 w @ 2 : = n n m C C ! m c c.c.c.",
"c.c.c n B V m m n Z n ; 2 : + ; ; # > < ; w w 6 2 2 ; . . . . . X < t t < > s 4 ; 3 8 r + 1 : 9 A C m m m V m m n c.c.",
"c.c.c ~ %.%.%.#.) #.( * 1 ; + ; # + + > ; 2 + < 2 2 ; . . . . . X < y t + w 4 o ; > r g $ 1 % j %.%.%.%.%.%.%.] m c.c.",
"c.c.x ) i.a.a.t.r.i.| & : ; # > # + o ; o   O w 2 2 ; . . . . . . : w 2 o w < o # ; r d $ , @ k 3.e.r.r.r.r.r.:.N c.c.",
"c.c.S V ! / _ ~ ! ~ m + % @ # > # # # > # . + f w < + . . . . . . O < $ . w 4 # > > 4 r + : @ 9 V Z ! ! ! ! A V c c.c.",
"c.} :.A A C Z A A A n + : % + # + # o ; + + O w t ; . . . . . . . . < t . > > + ; $ > 8 + , @ 0 A A A A A A A A ^ c.c.",
"{ 0.p.8.8.2.6.8.8.q.' ; 7 1 + ; # # + o o O . O < ;   . . . . . . . $ t X O + # # # > 5 ; e : k 6.8.8.8.8.8.8.0.f.,.{ ",
"{ X. .>.>.6.q.q.q.0.} ; 7 1 # > # # + o o O O . O + . . . . . . . . O > O o + # + # 4 a ; e : j :.2.q.q.q.9.2.2.| { { ",
"6.( C ( _ [ { ] ` ] A * 7 1 # ; + > > + + O o . O . . . . . . . . . . X + O # > > # 8 g ; e : q ( _ [ ] ` ` _ ) C #.0.",
"a.) C ) _ ` ` _ / ! m + 7 1 # 5 ; > > + o O X . O . . . . . . . . . . O O O # 3 3 4 r g ; e : 0 A ~ _ _ ) ) ) ~ C *.g.",
"a.) C ( / / / A A C v + , : + 5 4 > # o o O O . O . . . . . . . . . . O O o + > 4 d K J $ 1 % 9 C Z A ~ ( ( ( ~ V %.g.",
"a._ m V V V V m m m x + : ; > d r > # + o + $ O O . . . . . . . . . . O O O + ; 4 p d r + , @ - m m m V V V V V C ;.g.",
"g.9.[ ] ] ] ] ] ] [ ~ + : % > a 8 ; o # + + + > O . . . . . . . . . O X X # # > 4 8 r 5 + , @ h ] ] ] ] ] ] ] ] #.p.g.",
"u.p.a.a.a.a.a.a.a.a.| + % % ; < ; # o + O . O $ O X . . . . . . . . O X . O # # $ > 5 4 + : @ k i.a.a.a.a.a.i.i.a.p.u.",
"A { %.%.%.%.%.#.{ ' A + @ + # > > > 3 3 > O $ X X . . . .       . . X X . + > 4 > a r > + @ + h _ ] #.%.%.%.] ' ' _ N ",
"V _ [ { { { [ _ ) / C + @ O + ; # + + + + . . .                             X + + ; > ; O + O q / / _ ] { [ { [ _ ! b ",
"V ( _ [ [ [ _ ) ~ A V = = = = = = = = = = = = = = = = = = = = = = = = = = = = = = = = = = = = h A A / ) ] _ ] ] _ ~ b ",
"V ) / ~ ~ ~ ~ ~ A Z B j n m C m m m m b n m m m V m m m m m m m m m m m m m n n m m m m m m c x C C A ~ ~ ~ ~ ~ ) ~ b ",
"m A C N N N N N N N m n A / ] ( ! ! A m C Z A / _ ! ! ! ! ! ! A ! ! ! ! ! A m V A ! ! ! A Z V n N N N N N N N V C C c ",
"n m m C Z C C C C C C A / [ { [ ] ] ` C C ~ ] [ [ ] ] ] ] ] ' ' ] ] ] ] _ / C A / ` ] ] ) ~ A C N C Z Z Z Z Z Z Z C c ",
"m A ~ _ ] ] ] ] ] ] ] ] [ { { { { { { ! ~ ] &.0.0.0.0.0.<.{ 8.0.0.0.y.6.{ _ ! ~ ) [ { { ] ] ' ( ~ / ) ) ) ) ) ) ) ~ b ",
"m / o.t.a.a.a.i.&.&.i.a.a.i.a.a.i.<.[ ~ ] { <.g.g.g.g.g.p.i.d.g.g.g.g.d.a.2./ ~ ' 6.a.i.a.a.i.e.>.[ [ [ [ [ [ ] _ ~ b ",
"V _ 2.g.g.g.g.l.k.p.j.l.g.g.g.g.g.p.&.~ [ &.a.d.d.d.g.g.g.g.g.g.g.z.x.x.l.f.+._ 6.f.g.g.j.l.g.k.k.h.h.d.a.a.a.-.{ _ n ",
"Z [ 5.s.s.s.s.g.g.d.d.d.s.s.s.s.s.s.;._ [ { ;.;.;.-.q.s.s.s.s.s.d.g.g.g.d.d.:.] &.;.-.<.p.g.k.d.g.g.g.d.d.d.s.a.a.:.m ",
"/ _ ` ' ' ' ' ' ' ' ' ' ' ' ' ' ' ' _ _ _ _ _ _ _ _ ` ' ' ' ' ' ' ' ' ' ' ' ` _ _ _ _ _ ' } | ' ' ' ' ' ' ' ' } } ` ~ "
};
