/* XPM */
static char *ZXpnaWYuY29tLWdpZi1tYWtlci0z_8[] = {
/* columns rows colors chars-per-pixel */
"59 75 256 2 ",
"   c #080C06",
".  c #0A0E09",
"X  c #0D110B",
"o  c #12140F",
"O  c #141512",
"+  c #191714",
"@  c #161915",
"#  c #1A1A16",
"$  c #1C1D1A",
"%  c #221E1B",
"&  c #1E211D",
"*  c #22221E",
"=  c #28221F",
"-  c #1D1F21",
";  c #201F20",
":  c #1D2125",
">  c #1D252B",
",  c #1F282F",
"<  c #1F2933",
"1  c #232521",
"2  c #2B2522",
"3  c #252A24",
"4  c #2B2B26",
"5  c #21262A",
"6  c #20292F",
"7  c #2A2D29",
"8  c #302A26",
"9  c #342D2A",
"0  c #2B3027",
"q  c #2C322A",
"w  c #2F382E",
"e  c #34322E",
"r  c #38312D",
"t  c #31392F",
"y  c #202B34",
"u  c #212E39",
"i  c #24323D",
"p  c #333533",
"a  c #3C3432",
"s  c #343C33",
"d  c #383A36",
"f  c #3B3D3B",
"g  c #364034",
"h  c #384236",
"j  c #3D433B",
"k  c #3E4A3C",
"l  c #404E3E",
"z  c #42503F",
"x  c #243442",
"c  c #263947",
"v  c #26394B",
"b  c #273D52",
"n  c #293E52",
"m  c #294156",
"M  c #2B455C",
"N  c #2D4760",
"B  c #2E4A64",
"V  c #2F4E69",
"C  c #304F6A",
"Z  c #2F506C",
"A  c #30516D",
"S  c #325674",
"D  c #335877",
"F  c #345B7B",
"G  c #395F7D",
"H  c #3A607E",
"J  c #434443",
"K  c #444B43",
"L  c #484A47",
"P  c #4B4C4B",
"I  c #455342",
"U  c #485846",
"Y  c #4D514C",
"T  c #535453",
"R  c #585757",
"E  c #565955",
"W  c gray36",
"Q  c #605F5E",
"!  c #5D625D",
"~  c #646463",
"^  c #666A65",
"/  c #6B6C6B",
"(  c #6E796D",
")  c #70716F",
"_  c gray45",
"`  c #777877",
"'  c #787877",
"]  c #7C7C7C",
"[  c #365F80",
"{  c #376285",
"}  c #3B6485",
"|  c #376489",
" . c #38668B",
".. c #3A698E",
"X. c #3A6C93",
"o. c #3B6F98",
"O. c #3E7096",
"+. c #3D729C",
"@. c #3D76A2",
"#. c #3E79A6",
"$. c #3E7AA8",
"%. c #416E91",
"&. c #427295",
"*. c #40739A",
"=. c #41759D",
"-. c #42749B",
";. c #43789F",
":. c #4377A0",
">. c #4378A1",
",. c #447AA4",
"<. c #487EA6",
"1. c #407DAC",
"2. c #427DAA",
"3. c #4380AF",
"4. c #4A83AC",
"5. c #4685B3",
"6. c #4684B2",
"7. c #4C87B1",
"8. c #4C88B5",
"9. c #4C8BB8",
"0. c #4E8BB8",
"q. c #4D8CBA",
"w. c #4D8CBA",
"e. c #508CB7",
"r. c #508EBB",
"t. c #508DB9",
"y. c #4F90BE",
"u. c #5291BE",
"i. c #5394C2",
"p. c #5798C6",
"a. c #579AC8",
"s. c #5A9DCB",
"d. c #5DA1CE",
"f. c #61A1CA",
"g. c #64A6D1",
"h. c #68A9D2",
"j. c gray52",
"k. c #878888",
"l. c #8A8B8A",
"z. c #908F90",
"x. c #939393",
"c. c #989897",
"v. c gray61",
"b. c gray64",
"n. c #ACACAC",
"m. c #B4B4B4",
"M. c #BCBCBC",
"N. c #C3C3C3",
"B. c #CBCBCB",
"V. c #D2D2D2",
"C. c None",
"Z. c black",
"A. c black",
"S. c black",
"D. c black",
"F. c black",
"G. c black",
"H. c black",
"J. c black",
"K. c black",
"L. c black",
"P. c black",
"I. c black",
"U. c black",
"Y. c black",
"T. c black",
"R. c black",
"E. c black",
"W. c black",
"Q. c black",
"!. c black",
"~. c black",
"^. c black",
"/. c black",
"(. c black",
"). c black",
"_. c black",
"`. c black",
"'. c black",
"]. c black",
"[. c black",
"{. c black",
"}. c black",
"|. c black",
" X c black",
".X c black",
"XX c black",
"oX c black",
"OX c black",
"+X c black",
"@X c black",
"#X c black",
"$X c black",
"%X c black",
"&X c black",
"*X c black",
"=X c black",
"-X c black",
";X c black",
":X c black",
">X c black",
",X c black",
"<X c black",
"1X c black",
"2X c black",
"3X c black",
"4X c black",
"5X c black",
"6X c black",
"7X c black",
"8X c black",
"9X c black",
"0X c black",
"qX c black",
"wX c black",
"eX c black",
"rX c black",
"tX c black",
"yX c black",
"uX c black",
"iX c black",
"pX c black",
"aX c black",
"sX c black",
"dX c black",
"fX c black",
"gX c black",
"hX c black",
"jX c black",
"kX c black",
"lX c black",
"zX c black",
"xX c black",
"cX c black",
"vX c black",
"bX c black",
"nX c black",
"mX c black",
"MX c black",
"NX c black",
"BX c black",
"VX c black",
"CX c black",
"ZX c black",
"AX c black",
"SX c black",
"DX c black",
"FX c black",
"GX c black",
"HX c black",
"JX c black",
"KX c black",
"LX c black",
"PX c black",
"IX c black",
"UX c black",
/* pixels */
"C.C.C.C.C.C.C.C.C.C.C.C.C.C.C.C.C.C.C.C.C.C.C.C.C.C.C.C.C.C.C.C.C.C.C.C.C.C.C.C.C.C.C.C.C.C.C.C.C.C.C.C.C.C.C.C.C.C.C.",
"C.C.C.C.C.C.C.C.C.C.C.C.C.C.C.C.C.C.C.C.C.C.C.C.C.C.C.B B B B B C.C.C.C.C.C.C.C.C.C.C.C.C.C.C.C.C.C.C.C.C.C.C.C.C.C.C.",
"C.C.C.C.C.C.C.C.C.C.C.C.C.C.C.C.C.C.C.C.C.C.C.M N B D X.D F X.X.S B M M C.C.C.C.C.C.C.C.C.C.C.C.C.C.C.C.C.C.C.C.C.C.C.",
"C.C.C.C.C.C.C.C.C.C.C.C.C.C.C.C.C.C.C.C.C.V V B S o.@.$.[ | 1.$.+.X.Z B V B C.C.C.C.C.C.C.C.C.C.C.C.C.C.C.C.C.C.C.C.C.",
"C.C.C.C.C.C.C.C.C.C.C.C.C.C.C.C.C.C.C.M V X.+.+.@.$.3.3.{ -.9.3.3.$.@.+.+...B M C.C.C.C.C.C.C.C.C.C.C.C.C.C.C.C.C.C.C.",
"C.C.C.C.C.C.C.C.C.C.C.C.C.C.C.C.C.C.M V X.$.6.6.6.5.t.i.%.&.u.t.t.5.6.6.3.#. .B M C.C.C.C.C.C.C.C.C.C.C.C.C.C.C.C.C.C.",
"C.C.C.C.C.C.C.C.C.C.C.C.C.C.C.C.M V B ..6.5.w.t.t.4.X.<...S ..X.X.7.t.t.8.5.1.{ A A M C.C.C.C.C.C.C.C.C.C.C.C.C.C.C.C.",
"C.C.C.C.C.C.C.C.C.C.C.C.C.C.M V S ..D O.0.7.X.X.X...{ { F B D { { ..X.X.*.8.0.| &.*.S B M C.C.C.C.C.C.C.C.C.C.C.C.C.C.",
"C.C.C.C.C.C.C.C.C.C.C.C.M Z D ..#.6.-.&.X..... .{ F S S F A A S D { { ......&.&.4.8.#.{ D B C.C.C.C.C.C.C.C.C.C.C.C.C.",
"C.C.C.C.C.C.C.C.C.C.C.M B  .$.$.6.8.4.} S [ { [ S S S S S B A S S S D { { F S X.7.8.1.$.#.[ B M C.C.C.C.C.C.C.C.C.C.C.",
"C.C.C.C.C.C.C.C.C.C.M B  .#.3.w.8.*. .{ A C S S S S S V V B B C S S S S S V S { ..>.8.w.1.#.[ B M C.C.C.C.C.C.C.C.C.C.",
"C.C.C.C.C.C.C.C.C.M B  .#.3.8.<.*.{ F F S A C S V B B v < < y n B B V S V A S F F | =.4.8.1.#.[ B M C.C.C.C.C.C.C.C.C.",
"C.C.C.C.C.C.C.C.C.B  .#.3.8.=. .{ F S V B B M m < , , : $ $ $ > , , y M M B B A S F  ...,.8.1.#.[ B C.C.C.C.C.C.C.C.C.",
"C.C.C.C.C.C.C.C.B  .#.3.8.=.| F F S B u > > > : % % % % 2 8 2 % % % % > > > > x A S F F | >.0.1.@.{ M C.C.C.C.C.C.C.C.",
"C.C.C.C.C.C.C.N C +.3.8.*. .{ S S B u % 2 = 2 = 4 8 9 8 9 9 9 9 8 8 2 = 2 = 2 $ x V S D { ..>.0.1.X.B N C.C.C.C.C.C.C.",
"C.C.C.C.C.C.M B &.6.8.*.| F D V x : % 2 9 9 a 9 2 r a a a a a a a 9 2 9 a 9 9 2 ; : v A F F  .;.8.3...M M C.C.C.C.C.C.",
"C.C.C.C.C.C.V V S <.O.[ { S C x 1 2 8 9 r r a 9 2 8 # # # # # # $ 9 2 r a r r 9 8 2 1 v A F { { O.| A V V C.C.C.C.C.C.",
"C.C.C.C.C.A ..@.{ A  .| F V x 1 r 9 2 9 r 9 = $ $ * $ # $ # + # # + + $ 1 r r 9 2 9 9 1 v A F  .[ A | @.{ V C.C.C.C.C.",
"C.C.C.C.M { $.3.8.F F { A i $ 2 r 8 % $ $ 1 p t q q 3 $ * # + # # $ 0 s p * $ # = 9 9 2 - v S { D } 8.1.#.D C.C.C.C.C.",
"C.C.C.C.A  .#.u.>.{ A V c $ 2 9 r % O 1 j T K t 3 @ O @ # O O O O & s f T K q # O 2 r 9 2 - n C S { 4.0.#. .V C.C.C.C.",
"C.C.C.M [ +.,.8.O.F S n $ 2 9 r % # 1 K _ ^ K & @ @ @ # # O O O @ @ O 3 ~ ` K 3 & # 2 r 9 = : M S F =.8.3.#.S C.C.C.C.",
"C.C.C.M D X.7.,. .F B u $ 9 r = # 7 Y ) _ L & # & & & & # O O @ & & @ # L _ ) ! K 3 # 2 r 8 $ x A F { <.9.#.S C.C.C.C.",
"C.7.B M S { 4.,.{ S m $ % 9 2 # 7 p / ' W 7 # & & & & & # O O @ & 3 1 @ 3 W _ j.! t 3 # 9 9 $ : B F [ <.9.#.S M C u.C.",
"C.i.-.D A F 4.,.F S m $ = 2 2 * s K ^ T p 1 & 3 3 3 & & # O O # & 1 1 # # e P _ ~ j q $ 2 2 % : B S F 4.9.X.A { ,.p.C.",
"C...4.3.F A 4.,.{ D m : r 9 * q s P W 7 O @ & 1 1 1 & & # O O & & & & & O O $ L W K q $ $ r 9 > B F  .4.8.F { 5.<.} C.",
"C.V X.4.&.V 4.,.F S m : r r & t s q 1 # 3 & # & 3 3 3 1 $ O O 1 3 3 & # $ 7 O # 7 s p 3 $ a 9 > B D { 4.,.A ,.<.| B C.",
"C.A X.....A -.=.D S m - 9 4 1 s 7 # # L T 7 # & 1 1 1 1 # O O & 1 1 & # 3 T L O # q s s & 9 4 > B S F <...S X...X.V C.",
"C.B V A A Z S S A V m - 9 9 1 s 7 & # T ' L & * 3 3 1 & # O O & 1 3 3 3 L j.W @ # q h s * a 8 > M B B S A A S S S B C.",
"C.M A  .X.+.X.X.X.X.M - 9 9 1 h w & @ T / p * O O 1 3 3 $ O O 3 3 & O O 7 _ ^ p @ 1 I j * a 8 > B S F { ..+.+.+.X.C.C.",
"C.C.C { { F S S S S m - 8 2 1 I j & @ L d p ^ p X X O # # O O & O X O 7 3 p W q # & l j & 8 2 > B A S S S F { { C C.C.",
"C.C.B B B B B B B B m $ = 2 1 I k # @ 7 3 ~ l.W 3 @ X . X o O X X @ 7 / ^ 1 e O @ & s g & 2 % : M B B B B B B B N C.C.",
"C.C.C.M V S S S B A m $ = 2 1 l g @ q * 1 W x.v.' W J f 7 # O * f Q ] x.W 1 . 3 7 # I k & 2 % : B A B S S F V C.C.C.C.",
"C.C.C.M A [ F S B A m - 2 2 1 s q @ ~ L 7 W k.m.N.m.n.v.~ 3 $ W l.m.M.z.T 4 7 j.T @ I k & 4 = > B A V F [ { A C.C.C.C.",
"C.C.C.M S ..{ F V A m - 2 = 1 s q @ T / e P _ v.m.B.B.m./ 2 4 ' v.M.n.l.W q c.n.J # I k $ 2 = : B A A | ..:.D C.C.C.C.",
"C.C.C.M F X...,.D D M : 9 2 1 k s # 7 ' ' ` k.l.v.N.V.M.~ 2 2 ' v.m.x.l.l.j.m._ & # I k & 8 8 > B S S ..X.w.} C.C.C.C.",
"C.C.C.M [ #.X.8.} F M : a r 1 I k & @ W c.x.l.k.l.n.M.b.~ 2 3 _ x.c.l.l.c.v./ 3 @ & g h * a 9 > V F S ..+.q.} C.C.C.C.",
"C.C.C.M [ $.+.8.H S M $ 4 9 1 I k & & L ' k.k.l.k.l.x.l.Q 1 1 / l.k.k.k.l.j.J O & 3 t w * a 2 > B S D o.+.q.} C.C.C.C.",
"C.C.C.M [ $.#.w.G A m - 9 r 1 I ^ j & & P ] x.c.l.k.k.k.W 1 1 / l.k.l.x.l.~ # @ & Y Y q 4 a 2 > B C F #.#.1.F C.C.C.C.",
"C.C.C.M D +.#.2.S A m - 9 9 1 I ( P # @ P k.v.v.v.x.l.l.W 1 1 / l.x.v.b.x.T o @ & W T q 1 a 8 > B A F $.#.#.S C.C.C.C.",
"C.C.C.M S +.+.+.S A m $ 2 2 1 I ! / p p W j.v.b.M.N.m.c.W 1 1 _ b.N.N.m.k.W p O L / K q $ 8 = : B A F +.+.#.S C.C.C.C.",
"C.C.C.M S +.o.+.S A m - 8 2 1 I E T 7 f W ~ ] l.l.v.M.n.~ 1 1 ] M.m.b.k.~ W f . f W j q $ 8 2 > B A F +.+.#.S C.C.C.C.",
"C.C.C.M S +.+.+.S A m - 9 9 1 I g f 7 J ~ T f 7 7 J ' c.~ * 1 _ k.f 7 p T / P O p f t w $ a 8 > B C F +.+.#.S C.C.C.C.",
"C.C.C.M S +.3.O.A S M - 8 4 1 I g p 3 Y k.~ p O X . 3 / W % $ E 3 . X & ~ l./ p 7 7 t s * 9 2 > B S S +.$.#.S C.C.C.C.",
"C.C.C.M S +.q.,.A [ M - 4 2 1 l w & # Y l.c.~ & . @ f ) W % $ W j X   d b.z./ p & & k k $ 2 2 > V F S +.$.#.S C.C.C.C.",
"C.C.C.M S +.q.>.A [ M : a r 1 s 3 & # P j.c.c.~ P R / k.~ % 1 / _ T T k.M.j./ p & & k k * a r > V F S +.$.#.S C.C.C.C.",
"C.C.C.M S +.y.>.A [ M - 9 r 1 k w & 1 L / ] k.l.l.] j.b./ 1 3 / ' k.z.b.x./ T 3 1 & k k * a 8 > V F S +.$.#.S C.C.C.C.",
"C.C.C.M S +.6.O.A S M - 9 8 1 I g & q J W / / / ~ _ v.m.~ $ 3 _ k.) ~ / / ~ f # q & l k * 9 4 > B S S O.$.#.S C.C.C.C.",
"C.C.C.M S +.X.[ V A m - 9 9 1 I g & q 3 4 P W ~ ~ ' j./ J + # L j._ ~ ~ T 7 # # q $ s h * r 4 > B A A { +.#.S C.C.C.C.",
"C.C.C.M F #. .F V A m - 9 r 1 I g & q 1 O 1 J f ~ ] / f p # O 7 ] _ W q & O & 3 q $ q s * a 8 > B A A F X.#.S C.C.C.C.",
"C.C.C.M D X.[ F V F M - 9 9 & s 0 & 3 3 3 O @ & W ' ] W f # # P k._ T O o 3 3 1 1 # q s * a 8 > B S C F { X.S C.C.C.C.",
"C.C.C.M S [ S S B B m - 9 4 & w 3 & q 3 7 # X 1 ! _ _ ] R $ $ W _ _ T # @ q 7 7 7 # q s * 8 4 > B B B S S [ Z M C.C.C.",
"C.C.M B V A V V B S Z : 8 2 & w 3 & q q q 3 1 W / _ / j.W $ & W _ _ / E q q q q 7 # q s $ 8 4 , S S V V V A V B B C.C.",
"C.C.m F 2.2.2.,...>.O.5 8 2 & s 3 # 3 7 7 3 1 L J _ / ] W $ * W / _ f P q 3 7 7 1 # k k & 4 2 i ,.2.2.2.2.2.2.>.A C.C.",
"C.C.C.} t.u.i.u.t.r.<.> = 2 $ k g # 1 1 1 3 # o 1 ~ ~ _ W $ $ W / W @ @ 3 1 1 1 1 # k j & 4 % i 4.e.t.t.t.t.t.7.S C.C.",
"C.C...A [ | X.{ [ [ S - = 1 $ j t # 1 7 q q 3 # @ T ] ] W % $ W j.j O & q q 7 3 3 # q s & 2 % > A D [ [ [ [ [ S B C.C.",
"C.} 4.D D S S D D D Z : 2 2 & s 3 # & 1 3 7 3 1 e ' _ j.W % * W ` _ 1 3 7 3 1 & & @ q s & 2 = , S D D D D D D D } C.C.",
"$.9.p.9.9.8.8.9.9.9.,.5 9 r 1 k q # & & & 1 1 & p ~ p E P $ # p f / 3 1 1 & & & & @ q s * a 8 i 8.9.9.9.9.9.9.w.a.5.$.",
"$.@.-.4.4.8.w.w.w.w.<.5 9 r 1 I g @ & # # & & & 7 f 1 g s # O & 1 j 1 & & @ # & & @ g h * a 8 i <.8.0.w.w.0.8.8.=.#.$.",
"9.X.A  .X.@.$.+.o.+. .: 9 r 1 I g # # w q 1 3 3 & @ & k g # # 7 # # 3 1 3 h q @ # # l k * a 8 y { X.+.@.o.o.X.X.A @.w.",
"p.X.S ..X.o.o.X. .[ S : 9 r 1 I g O w h 3 1 1 1 & # & k g # # 7 $ & 1 1 3 h l q O @ l k 1 a 8 6 D { X.X.......| A >.a.",
"i.X.A | | | | [ F S B - 2 4 & s q w l q & & & & * # & k h # # 7 # & & & & 3 h z I 3 l k & 8 = , A D F {  . . . .A >.a.",
"p.O.V A A A A V V V M - = 2 & w k K h 3 & & & 3 g 1 1 k g # # 7 & 3 g * & * q j k s h t $ 2 % > B V V V A A A A Z ,.a.",
"s.q.@.+.+.+.+.+.+.@...: = 2 & w h h s & & 3 3 1 0 I I I h # # s I k & # 3 & & p s s s q $ 4 % y O.@.+.+.+.+.+.+.,.i.s.",
"u.p.i.i.i.i.i.i.i.i.4.> = 2 $ q t s 7 & & & & & 1 s g I g # @ w h s & & & & & q s s s q # 2 % i t.i.i.i.i.i.u.u.u.i.u.",
"S #.2.2.2.2.2.2.#.O.{ : % % $ q q t l I U U U U I t q k s # O 3 w h U I h U U k s w q 7 # % % y ..O.,.2.1.2.+.O.X.O.A ",
"V X.@.$.$.$.#.X... .F - $ $ # 3 1 1 3 3 3 3 3 3 3 3 3 t q + O * 3 3 3 3 7 3 3 3 3 3 3 1 # $ # < { | ..o.#.#.#.#.X.{ B ",
"V | X.@.@.@.X...| F D , , , , , > > , , , , , , , , , , , > > , , , , y y , , , , , , , , , > < F F | ..+.X.O.+.X.{ B ",
"V  . .{ { { { { F S S v B V S A B B B B B B B V A B B B B B B B B B B B B B B B B B B B B B M b S S F { { { { { ..{ B ",
"B S S C C C C C C C V B S { +.X.[ [ F V A D F { X.[ [ [ [ [ [ [ [ [ [ [ [ F A V F [ [ [ F D S B C C C C C C C C S S B ",
"B V V A S S S S S S S D { +.$.#.+.+.+.D S { o.+.#.+.+.+.+.+.+.+.+.+.+.+.o.| F S | X.+.O.X.{ [ S C A D D D D D D D S B ",
"B F { ..+.+.+.+.+.+.+.+.@.$.$.$.$.$.$.{ { +.2.w.q.q.q.q.5.$.8.y.q.q.q.9.#.+.{ [ ..+.$.$.@.+.+...{ | ........X.....{ B ",
"B { =.t.i.i.i.u.3.2.q.i.i.u.i.i.u.5.#.{ X.#.3.a.s.s.s.s.p.u.a.s.s.s.s.a.i.8...[ +.5.i.u.i.i.u.t.8.@.@.@.@.@.@.+.X.{ B ",
"V X.3.s.s.s.s.g.f.p.s.g.d.s.s.s.s.p.6. .+.2.u.a.a.a.s.s.s.s.s.s.s.g.h.h.g.s.4.X.8.p.s.s.s.g.d.d.g.f.f.p.i.i.i.6.#.+.B ",
"S +.6.p.p.p.p.p.s.p.p.p.p.p.p.p.p.p.5.X.+.#.1.3.3.3.8.p.p.p.p.p.p.s.s.s.p.p.7.+.2.3.3.3.i.s.f.p.s.s.s.p.p.p.p.i.u.7.A ",
" .X.X.O.O.O.O.O.O.O.O.O.O.O.O.O.O.O.X.X.X.X.X.X.X.X.X.O.O.O.O.O.O.O.O.O.O.O.X.X.X.X.X.X.O.*.-.O.O.O.O.O.O.O.O.*.*.O.{ "
};
