/* XPM */
static char *ZXpnaWYuY29tLWdpZi1tYWtlci0z_9[] = {
/* columns rows colors chars-per-pixel */
"59 75 256 2 ",
"   c #070B05",
".  c #090D07",
"X  c #0B0F09",
"o  c #0D110B",
"O  c #10130E",
"+  c #151512",
"@  c #181614",
"#  c #161915",
"$  c #1A1A17",
"%  c #1B1D1A",
"&  c #221E1B",
"*  c #1E211D",
"=  c #22221E",
"-  c #28221F",
";  c #1D1F21",
":  c #201F20",
">  c #1E2124",
",  c #1D242B",
"<  c #1F282F",
"1  c #1F2933",
"2  c #222521",
"3  c #2B2522",
"4  c #252A24",
"5  c #2C2B26",
"6  c #21252A",
"7  c #2A2D29",
"8  c #302A26",
"9  c #342D2A",
"0  c #283027",
"q  c #2C322A",
"w  c #2F382D",
"e  c #34322E",
"r  c #38312D",
"t  c #31392F",
"y  c #202B34",
"u  c #212E39",
"i  c #24323D",
"p  c #333532",
"a  c #3C3432",
"s  c #353C33",
"d  c #393937",
"f  c #3A3C3A",
"g  c #364134",
"h  c #394237",
"j  c #3D443B",
"k  c #3E493B",
"l  c #41443F",
"z  c #404E3E",
"x  c #243442",
"c  c #263847",
"v  c #263A4B",
"b  c #273D52",
"n  c #293F54",
"m  c #294157",
"M  c #2B455C",
"N  c #2D4760",
"B  c #2E4A64",
"V  c #2F4E69",
"C  c #304F6A",
"Z  c #2F506C",
"A  c #30516D",
"S  c #325674",
"D  c #335877",
"F  c #345B7B",
"G  c #395E7D",
"H  c #39607E",
"J  c #434442",
"K  c #454A44",
"L  c #494C46",
"P  c #4B4D4B",
"I  c #455342",
"U  c #485846",
"Y  c #4E514E",
"T  c #535453",
"R  c #585757",
"E  c #555954",
"W  c #585857",
"Q  c #5B5B5B",
"!  c #5C625B",
"~  c #646464",
"^  c #636E61",
"/  c #676868",
"(  c #6B6C6B",
")  c #6F796E",
"_  c #70716F",
"`  c gray45",
"'  c #777877",
"]  c #7B7C7B",
"[  c #365F80",
"{  c #376285",
"}  c #3A6384",
"|  c #376589",
" . c #38668B",
".. c #3A698E",
"X. c #3A6C93",
"o. c #3B6F98",
"O. c #3E7096",
"+. c #3D729C",
"@. c #3D76A2",
"#. c #3E79A6",
"$. c #3E7AA8",
"%. c #406F92",
"&. c #437295",
"*. c #40739A",
"=. c #447599",
"-. c #41759D",
";. c #42759C",
":. c #4377A0",
">. c #4378A0",
",. c #4379A2",
"<. c #437AA4",
"1. c #497EA6",
"2. c #477FA8",
"3. c #407DAC",
"4. c #417DAA",
"5. c #4380AF",
"6. c #4880AA",
"7. c #4B83AD",
"8. c #4685B3",
"9. c #4684B2",
"0. c #4C87B1",
"q. c #4A86B2",
"w. c #4D88B3",
"e. c #4B89B5",
"r. c #4C8BB8",
"t. c #4E8BB8",
"y. c #4D8CBA",
"u. c #4D8CBA",
"i. c #508CB7",
"p. c #508EBB",
"a. c #508DB9",
"s. c #4F90BE",
"d. c #5291BE",
"f. c #5394C2",
"g. c #5798C6",
"h. c #579AC8",
"j. c #5A9DCB",
"k. c #5DA1CE",
"l. c #61A1CA",
"z. c #64A6D1",
"x. c #68A9D2",
"c. c #848484",
"v. c gray54",
"b. c #939393",
"n. c #9B9B9B",
"m. c #9F9FA0",
"M. c #A2A2A2",
"N. c gray67",
"B. c gray70",
"V. c gray73",
"C. c #C3C3C3",
"Z. c #CACACA",
"A. c LightGray",
"S. c None",
"D. c black",
"F. c black",
"G. c black",
"H. c black",
"J. c black",
"K. c black",
"L. c black",
"P. c black",
"I. c black",
"U. c black",
"Y. c black",
"T. c black",
"R. c black",
"E. c black",
"W. c black",
"Q. c black",
"!. c black",
"~. c black",
"^. c black",
"/. c black",
"(. c black",
"). c black",
"_. c black",
"`. c black",
"'. c black",
"]. c black",
"[. c black",
"{. c black",
"}. c black",
"|. c black",
" X c black",
".X c black",
"XX c black",
"oX c black",
"OX c black",
"+X c black",
"@X c black",
"#X c black",
"$X c black",
"%X c black",
"&X c black",
"*X c black",
"=X c black",
"-X c black",
";X c black",
":X c black",
">X c black",
",X c black",
"<X c black",
"1X c black",
"2X c black",
"3X c black",
"4X c black",
"5X c black",
"6X c black",
"7X c black",
"8X c black",
"9X c black",
"0X c black",
"qX c black",
"wX c black",
"eX c black",
"rX c black",
"tX c black",
"yX c black",
"uX c black",
"iX c black",
"pX c black",
"aX c black",
"sX c black",
"dX c black",
"fX c black",
"gX c black",
"hX c black",
"jX c black",
"kX c black",
"lX c black",
"zX c black",
"xX c black",
"cX c black",
"vX c black",
"bX c black",
"nX c black",
"mX c black",
"MX c black",
"NX c black",
"BX c black",
"VX c black",
"CX c black",
"ZX c black",
"AX c black",
"SX c black",
"DX c black",
"FX c black",
"GX c black",
"HX c black",
"JX c black",
"KX c black",
"LX c black",
"PX c black",
"IX c black",
"UX c black",
/* pixels */
"S.S.S.S.S.S.S.S.S.S.S.S.S.S.S.S.S.S.S.S.S.S.S.S.S.S.S.S.S.S.S.S.S.S.S.S.S.S.S.S.S.S.S.S.S.S.S.S.S.S.S.S.S.S.S.S.S.S.S.",
"S.S.S.S.S.S.S.S.S.S.S.S.S.S.S.S.S.S.S.S.S.S.S.S.S.S.B B B B B B S.S.S.S.S.S.S.S.S.S.S.S.S.S.S.S.S.S.S.S.S.S.S.S.S.S.S.",
"S.S.S.S.S.S.S.S.S.S.S.S.S.S.S.S.S.S.S.S.S.S.S.M N B D X.D F X.X.S B M M S.S.S.S.S.S.S.S.S.S.S.S.S.S.S.S.S.S.S.S.S.S.S.",
"S.S.S.S.S.S.S.S.S.S.S.S.S.S.S.S.S.S.S.S.S.V V B S o.@.$.[ | 3.$.+.X.Z B V B S.S.S.S.S.S.S.S.S.S.S.S.S.S.S.S.S.S.S.S.S.",
"S.S.S.S.S.S.S.S.S.S.S.S.S.S.S.S.S.S.S.M V X.+.+.@.$.5.5.{ =.r.5.5.$.@.+.+...B M S.S.S.S.S.S.S.S.S.S.S.S.S.S.S.S.S.S.S.",
"S.S.S.S.S.S.S.S.S.S.S.S.S.S.S.S.S.S.M V X.$.9.9.9.8.a.f.%.&.d.a.a.8.9.9.5.#. .B M S.S.S.S.S.S.S.S.S.S.S.S.S.S.S.S.S.S.",
"S.S.S.S.S.S.S.S.S.S.S.S.S.S.S.S.M V B ..9.8.u.a.a.7.X.2...S ..X.o.w.a.a.e.8.3.[ A A M S.S.S.S.S.S.S.S.S.S.S.S.S.S.S.S.",
"S.S.S.S.S.S.S.S.S.S.S.S.S.S.M V S X.D O.t.0.o.X.X...| { F B D | | ..X.X.*.e.t.| &.*.S B M S.S.S.S.S.S.S.S.S.S.S.S.S.S.",
"S.S.S.S.S.S.S.S.S.S.S.S.M Z D ..#.9.;.&.o.......| F S S F A A S D { | ......&.&.7.e.#.| D B M S.S.S.S.S.S.S.S.S.S.S.S.",
"S.S.S.S.S.S.S.S.S.S.S.M B  .$.$.5.e.7.} S [ { [ S S S S S B A S S S D { { F S X.0.e.3.$.#.[ B M S.S.S.S.S.S.S.S.S.S.S.",
"S.S.S.S.S.S.S.S.S.S.M B  .#.5.u.e.*...| A C S S S S S V V B B C S S S S S V S { ..>.e.u.3.#.[ B M S.S.S.S.S.S.S.S.S.S.",
"S.S.S.S.S.S.S.S.S.M B  .#.5.e.2.*.| F F S A C S V B B v 1 1 y n B B V S V A S F F | -.6.e.3.#.[ B M S.S.S.S.S.S.S.S.S.",
"S.S.S.S.S.S.S.S.S.B  .#.5.e.-...| F S V B B M m 1 < < > % % % , < < y M M B B A S F  ...,.e.3.#.[ B S.S.S.S.S.S.S.S.S.",
"S.S.S.S.S.S.S.S.B  .#.5.e.-.| F F S B u , , , > & & & & 3 8 3 & & & & , , , , x A S F F | >.t.3.@.| M S.S.S.S.S.S.S.S.",
"S.S.S.S.S.S.S.N C +.5.e.*...| S S B u & 3 - 3 - 5 8 9 8 9 9 9 9 8 8 3 - 3 - 3 % x V S D | ..>.t.3.X.B N S.S.S.S.S.S.S.",
"S.S.S.S.S.S.M B =.9.e.*.| F D V x > & 3 9 9 a 9 3 r a a a a a a a 9 3 9 a 9 9 3 : > v A F F ..>.e.5...M M S.S.S.S.S.S.",
"S.S.S.S.S.S.V V S 1.O.[ | S V x 2 3 8 9 r r a 9 3 8 $ $ $ $ $ $ % 9 3 r a r r 9 8 3 2 v A F | { O.| A V V S.S.S.S.S.S.",
"S.S.S.S.S.A X.@.{ A  .| F V i 2 r 9 5 9 r 9 - % % = $ + $ @ + @ @ @ @ % 2 r r 9 3 9 9 2 v A F ..[ A | @.| V S.S.S.S.S.",
"S.S.S.S.M | $.5.q.F F | A i % 3 r 8 & % % 3 t w q q 2 $ $ + + @ @ $ 7 s s = % $ - 9 9 3 ; v D | D } e.3.#.D m S.S.S.S.",
"S.S.S.S.A ..#.d.-.{ A V c % 3 9 r & + 4 J T K w 4 # + # $ + + + + % s s T K q $ + 3 r 9 3 ; n C S | 6.t.#.| V S.S.S.S.",
"S.S.S.M [ +.<.q.o.F S n % 3 9 r & $ 2 K ' ~ j % # # # % $ + + + # # + 2 ~ ' K 4 * $ 3 r 9 - > M S F -.e.5.#.S S.S.S.S.",
"S.S.S.M D X.0.,...F B u % 9 r - $ 7 Y ` ` J % $ * * * * $ + + # % * # $ J ' _ ! J 4 $ 3 r 8 % x A F | 1.r.#.S S.S.S.S.",
"S.0.B M S | 7.,.{ S m % & 9 3 $ 7 s ( ' Q 4 $ * * * * * $ + + # * 4 2 # 4 ! ' c.Q t 4 $ 9 9 % > B F [ 1.r.#.S M C d.S.",
"S.d.;.D A F 6.,.F S m % - 3 - = s J / Y p * * 4 4 2 * * $ + + % * 2 2 % % p P ' ~ j q % 3 3 & , B S F 7.r.X.A { ,.g.S.",
"S...7.5.F A 6.,.| D m > r 9 = q s P Q 7 + # * 2 2 2 * * $ + + % * * * % + + % K Q J q % & r 9 , B F  .7.e.F | 8.2.} S.",
"S.V X.7.&.V 6.<.F S m > r r * t s 7 2 % 7 % % * 4 4 4 2 $ + + 2 4 4 * % % 7 # $ 7 s s 4 % a 9 , B D { 7.,.A <.2.| B S.",
"S.S X.....A =.-.D S m ; 9 5 2 s 7 % % P T 4 # * 2 2 2 = $ + + * 2 2 = % 4 T L + $ q s s * 9 5 , B S F 2...S X...X.V S.",
"S.B V A A Z S S A C m ; 9 9 2 s 7 * % Q ' J % 2 4 4 2 * $ + + % 2 4 4 4 L c.W # % q h s = a 8 , M B B S A A S S S B S.",
"S.M A  .X.+.X.X.X.X.M ; 9 9 2 h w * # T ( q = + # 2 4 2 % + + 2 4 2 + O 7 ` / p # 2 I k = a 8 , B S F { ..+.+.+.X.S.S.",
"S.S.C { | F S S S S m ; 8 3 2 I h * # P p p ( 7 o o + % $ + + * + o o 4 4 p Q 7 $ * z h * 8 3 , B A S S S F | { C S.S.",
"S.S.B B B B B B B B m % - 3 2 I k % # 7 2 ( b.R = # X X o O + o o # 4 ~ ~ 2 e + # * s g * 3 & > M B B B B B B B N S.S.",
"S.S.S.M V S S S B A m % - 3 2 z g # q * 2 ~ n.M.' W J j 5 + + * d Q ' v.Q 2 o 7 4 % I k * 3 & > B A B S S F V S.S.S.S.",
"S.S.S.M A [ F S B A m ; 3 3 2 s q # ~ l q ~ v.B.Z.B.N.n.W % $ T v.B.C.b.T 7 q c.T $ I k * 5 - , B A V F [ | A S.S.S.S.",
"S.S.S.M S ..| F V A m ; 3 - 2 s q # T ~ 7 T ' n.V.Z.Z.N.R % % ` b.V.B.v.Q e n.N.j % I k % 3 - , B A A | ..:.D S.S.S.S.",
"S.S.S.M F X...,.D D M > 9 3 2 k s % 7 ] ' ' c.v.n.Z.A.V.R % % ` b.V.b.v.v.c.B.( % % I k * 8 8 , B S S ..X.u.} S.S.S.S.",
"S.S.S.M [ #.X.e.H F M > a r 2 I k * # ~ n.b.v.c.v.N.V.n.T % % ( v.n.v.v.b.n.( 4 # * g h = a 9 , V F S ..+.y.} S.S.S.S.",
"S.S.S.M [ $.+.e.G S m % 5 9 2 I k * * P ] v.v.v.c.v.b.v.T % % / v.c.c.c.v.c.J # * 4 s w = a 3 , B S F o.+.y.} S.S.S.S.",
"S.S.S.M [ $.#.u.G A m ; 9 r 2 I ^ j * = T c.b.b.v.c.c.v.T % % / v.c.v.b.v.~ % $ * Y P q 5 a 3 , B C F #.#.3.F S.S.S.S.",
"S.S.S.M D +.$.4.S A m ; 9 9 2 I ) P % $ T v.n.n.n.b.v.v.T % % / v.b.n.M.b.T O # * Q T q 2 a 5 , B A F $.#.#.S S.S.S.S.",
"S.S.S.M S +.+.+.S A m % 3 3 2 I ! / p p Q c.n.M.V.C.B.b.T $ % ( M.C.Z.B.c.W p + L / J q % 8 - , B A F +.+.#.S S.S.S.S.",
"S.S.S.M S +.o.+.S A m ; 8 3 2 I E T 7 j W ~ c.v.v.m.C.N.T $ % ` V.B.N.c.~ Q f X d W j q % 8 3 , B A F O.+.#.S S.S.S.S.",
"S.S.S.M S +.+.+.S A m ; 9 9 2 I g f 7 P / T d 7 7 J ] b.Q $ % ( v.j 7 p T ( P + p j t w % a 8 , B C F O.+.#.S S.S.S.S.",
"S.S.S.M S +.5.O.A S m ; 8 5 2 I g p 4 T v.Q 7 + o X 7 ' W $ $ Q 7 X o % ~ v./ p 7 7 t s = 9 3 , B S S +.$.#.S S.S.S.S.",
"S.S.S.M S +.y.>.A [ M ; 5 3 2 z w * $ T b.b.W # . # J ' W $ $ ~ J o   p M.v./ p * * z k % 3 3 , V F S +.$.#.S S.S.S.S.",
"S.S.S.M S +.y.>.A [ M > a r 2 s 4 * $ T c.n.b.Q P W ` v.W $ $ / ' T T c.V.c./ p * * k k = a r , V F S +.$.#.S S.S.S.S.",
"S.S.S.M S +.s.>.A [ M ; 9 r 2 k q * 2 P ( c.c.v.v.] c.N.Q $ % / ' c.v.M.b.( T 4 2 * z k = a 8 , Z F S +.$.#.S S.S.S.S.",
"S.S.S.M S +.9.O.A S M ; 9 8 2 I g * q K ~ ( ` ( ~ ' M.V.Q @ % ` v.` ~ ( ( ~ d % q * z k = 9 5 , B S S +.$.#.S S.S.S.S.",
"S.S.S.M S +.X.[ V A m ; 9 9 2 I g * q 4 7 T ~ ~ / ] c./ J + # J c.' ~ ~ T 7 % * q % s h = r 5 , B A A { +.#.S S.S.S.S.",
"S.S.S.M F #. .F V A m ; 9 r 2 I g * q 2 + 2 J d ~ ] / d p @ + 4 ] ' Q 7 * + = 4 q % q s = a 8 , B A S F X.#.S S.S.S.S.",
"S.S.S.M D X.[ F V F M ; 9 9 * s 7 * 4 4 2 + # * ~ ] ] W d + $ L c.' R O O 4 4 2 2 % q s = a 8 , V S C F | X.S M S.S.S.",
"S.S.S.M S F S S B B m ; 9 5 * w 4 * 7 7 7 # o 4 ~ ` ' ] T $ $ W ' ` Q % # q 7 7 7 % q s = 8 5 , B B B S S { Z M S.S.S.",
"S.S.M B V A V V B S Z > 8 3 * w 4 * q q q 2 = ~ / ` ( c.W $ $ W ` ` / Q q q q q 7 % q s % 8 5 < S S V V Z A Z B B S.S.",
"S.S.m F 4.4.4.<...<.O.6 8 3 * s 4 % 4 7 7 4 = P J ] ~ c.W $ $ T / ' d T q 4 7 7 2 $ k k * 5 3 i <.4.4.4.4.4.4.>.A S.S.",
"S.S.n } a.d.f.d.a.p.1., - 3 % k g $ 2 2 2 4 $ O 4 ( ~ ' W $ $ T ( ~ $ # 4 2 2 2 2 % k h * 5 & i 7.i.a.a.a.a.a.0.S S.S.",
"S.G  .A [ | X.| [ [ S ; - 2 % h t $ 2 7 q q 4 # $ W c.] R $ $ T c.J + % 7 q 7 4 4 % q s * 3 & < A D [ [ [ [ F S B S.S.",
"S...7.D D S S D D D Z > 3 3 * s 4 % * 2 4 7 4 2 p c.` c.W $ $ W ' ' 2 4 7 4 2 * * # q s * 3 - < S D D D D D D D } S.S.",
"$.r.g.r.r.q.q.r.r.r.<.6 9 r 2 k q $ * * * 2 = * d / q ! L @ # p p ` 4 2 2 * * * * # q s = a 8 i q.r.r.r.r.r.r.u.h.8.$.",
"$.@.;.7.7.q.u.u.u.u.2.6 9 r 2 I g $ * % % * * * 7 f % h s + + * 2 J 2 * * # % * * # g h = a 8 i 1.q.u.u.u.t.q.q.-.#.$.",
"r.X.A ..X.@.$.+.o.+.| > 9 r 2 I g $ % w 4 2 4 4 * # * I s + # q % % 4 2 4 h q # % $ z k = a 8 y  .X.+.@.o.o.X.X.A @.u.",
"g.X.S ..X.o.o.X...[ A > 9 r 2 I g # w g 4 2 2 2 * % * I s + # q % * 2 2 4 h z q # # z k = a 8 y F | X.X.......| A >.h.",
"f.X.A | | | | [ F S B ; 3 5 * s q w z 0 * * * * = % = I s + # q % * = * * 4 h z I 4 z k * 8 - < S D F { ......| A <.h.",
"g.O.V A A A A V V V M ; - 3 * w k K h 4 * * * 4 h * 2 I s + # q * 2 g = * = q h k s h t % 3 & , B V V Z A A A A Z 4.h.",
"j.y.@.+.+.+.+.+.+.@...> - 3 * w h h s * * 4 4 2 0 I z I s + # t I z = % 4 * = s s s s q % 5 & y O.+.+.+.+.+.+.+.<.f.j.",
"d.g.f.f.f.f.f.f.f.f.6., - 3 % q t s 4 * * * * * 2 g s I s + # q h s * * * * * q s s s q % 3 & i i.d.f.f.f.f.d.d.d.f.d.",
"S #.4.4.4.4.4.4.#.O.{ > & & % q q t z U U U U U z w q k s + + 4 q s I I h U U k s w q 7 % & & y ..O.<.4.4.4.+.O.o.O.A ",
"V X.@.$.$.$.#.X...| F ; % % % 4 2 2 4 4 4 4 4 4 4 4 4 s q + + = 4 4 4 4 7 4 4 4 4 4 4 2 $ % $ 1 | | ..o.#.#.#.#.X.| B ",
"V | X.@.@.@.X...| F D < < < < < , , < < < < < < < < < < < , , < < < < 1 y < < < < < < < < < , u F F | ..+.X.O.+.X.| B ",
"V ....| | | | | F S S v B V S A B B B B B B B V A B B B B B B B B B B B B B B B B B B B B B M b S S F | | | | | ..| B ",
"B S S C C C C C C C V B S { +.X.[ [ F V A D F | X.[ [ [ [ [ [ [ [ [ [ [ [ F A V F [ [ [ F D S B C C C C C C C C S S B ",
"B V V A S S S S S S S D | +.$.#.+.+.+.D S { o.+.#.+.+.+.+.+.+.+.+.+.+.+.o.| D S | X.+.O.X.| [ S C A D D D D D D D S B ",
"B F | ..+.+.+.+.+.+.+.+.@.$.$.$.$.$.$.| { +.4.u.y.y.y.y.8.$.e.s.y.y.y.r.#.+.| [ ..+.$.$.@.+.+...| | ..............| B ",
"B | -.a.f.f.d.d.5.4.y.f.f.d.f.f.d.8.#.| X.#.5.h.j.j.j.j.g.d.h.j.j.j.j.h.f.e...[ +.8.f.d.f.f.d.a.q.@.@.@.@.@.+.+.X.| B ",
"V X.5.j.j.j.j.z.l.g.j.z.j.j.j.j.j.g.9.| +.4.d.h.h.h.j.j.j.j.j.j.j.z.x.x.z.j.6.X.q.g.j.j.j.z.k.k.z.l.l.g.f.f.f.9.#.o.B ",
"S +.9.g.g.g.g.g.j.g.g.g.g.g.g.g.g.g.8.X.+.#.3.5.5.5.e.g.g.g.g.g.g.j.j.j.g.g.7.+.4.5.5.5.f.j.l.g.j.j.j.g.g.g.g.f.f.q.A ",
" .X.o.O.O.O.O.O.O.O.O.O.O.O.O.O.O.O.o.X.X.X.X.X.X.X.o.O.O.O.O.O.O.O.O.O.O.O.o.X.X.X.X.X.O.*.;.O.O.O.O.O.O.O.O.*.*.O.{ "
};
