/* XPM */
static char *ZXpnaWYuY29tLWdpZi1tYWtlci0z_21[] = {
/* columns rows colors chars-per-pixel */
"59 75 256 2 ",
"   c #0C0F09",
".  c #0E120C",
"X  c #14110F",
"o  c #151210",
"O  c #191614",
"+  c #161915",
"@  c #1A1A17",
"#  c #1C1D1B",
"$  c #211D1A",
"%  c #1E211C",
"&  c #22221F",
"*  c #28231F",
"=  c #1E1F20",
"-  c #1E2123",
";  c #1D242B",
":  c #1F292F",
">  c #1F2932",
",  c #222521",
"<  c #2B2522",
"1  c #252A24",
"2  c #2C2A25",
"3  c #2A2D29",
"4  c #312A27",
"5  c #342D2A",
"6  c #2D332B",
"7  c #2F382D",
"8  c #33332D",
"9  c #39312D",
"0  c #32392F",
"q  c #202B35",
"w  c #212E3A",
"e  c #22303D",
"r  c #343533",
"t  c #3C3532",
"y  c #343B32",
"u  c #393B37",
"i  c #3B3C3A",
"p  c #364134",
"a  c #384336",
"s  c #3B443A",
"d  c #3E4A3C",
"f  c #40403F",
"g  c #404B3E",
"h  c #42503F",
"j  c #253542",
"k  c #263846",
"l  c #253748",
"z  c #263A4C",
"x  c #283F53",
"c  c #294055",
"v  c #2C465E",
"b  c #2C4760",
"n  c #2E4B64",
"m  c #2F4E69",
"M  c #304F6A",
"N  c #2F506B",
"B  c #31516E",
"V  c #325573",
"C  c #335877",
"Z  c #345B7B",
"A  c #385C7A",
"S  c #3A617F",
"D  c #434443",
"F  c #484747",
"G  c #454A44",
"H  c #4C4C4B",
"J  c #445342",
"K  c #485746",
"L  c #4F514F",
"P  c #4E584D",
"I  c #50524F",
"U  c #545453",
"Y  c #585757",
"T  c #555854",
"R  c gray36",
"E  c #605F5F",
"W  c #596357",
"Q  c #5F605E",
"!  c #60615E",
"~  c #646464",
"^  c #686767",
"/  c #656A65",
"(  c #686867",
")  c #6A6B6A",
"_  c #6C766B",
"`  c gray45",
"'  c #787777",
"]  c #7B7B7B",
"[  c #807F7F",
"{  c #365F80",
"}  c #366285",
"|  c #3A6485",
" . c #376488",
".. c #3A698E",
"X. c #3A6C93",
"o. c #3B6F98",
"O. c #3E7097",
"+. c #3D729C",
"@. c #3D76A2",
"#. c #3E7AA9",
"$. c #417195",
"%. c #427093",
"&. c #42759C",
"*. c #46799E",
"=. c #4177A0",
"-. c #447AA3",
";. c #457BA4",
":. c #437AA4",
">. c #497EA5",
",. c #407DAB",
"<. c #477FA9",
"1. c #417EAC",
"2. c #4B81A7",
"3. c #4280AE",
"4. c #4480AD",
"5. c #4880AA",
"6. c #4A83AD",
"7. c #4482B0",
"8. c #4684B2",
"9. c #4C86B1",
"0. c #4987B4",
"q. c #4A86B2",
"w. c #4E89B3",
"e. c #4A89B6",
"r. c #4C89B5",
"t. c #4C8AB8",
"y. c #4E8BB8",
"u. c #4E8DBA",
"i. c #4C8CBA",
"p. c #508CB7",
"a. c #508EBA",
"s. c #518EBB",
"d. c #4F90BE",
"f. c #5191BE",
"g. c #5394C2",
"h. c #599AC6",
"j. c #5799C8",
"k. c #5A9DCB",
"l. c #5FA2CE",
"z. c #61A1CB",
"x. c #64A6D1",
"c. c #68A9D2",
"v. c #838383",
"b. c #888887",
"n. c gray54",
"m. c #929292",
"M. c #989897",
"N. c #A2A2A2",
"B. c #B1B1B1",
"V. c None",
"C. c black",
"Z. c black",
"A. c black",
"S. c black",
"D. c black",
"F. c black",
"G. c black",
"H. c black",
"J. c black",
"K. c black",
"L. c black",
"P. c black",
"I. c black",
"U. c black",
"Y. c black",
"T. c black",
"R. c black",
"E. c black",
"W. c black",
"Q. c black",
"!. c black",
"~. c black",
"^. c black",
"/. c black",
"(. c black",
"). c black",
"_. c black",
"`. c black",
"'. c black",
"]. c black",
"[. c black",
"{. c black",
"}. c black",
"|. c black",
" X c black",
".X c black",
"XX c black",
"oX c black",
"OX c black",
"+X c black",
"@X c black",
"#X c black",
"$X c black",
"%X c black",
"&X c black",
"*X c black",
"=X c black",
"-X c black",
";X c black",
":X c black",
">X c black",
",X c black",
"<X c black",
"1X c black",
"2X c black",
"3X c black",
"4X c black",
"5X c black",
"6X c black",
"7X c black",
"8X c black",
"9X c black",
"0X c black",
"qX c black",
"wX c black",
"eX c black",
"rX c black",
"tX c black",
"yX c black",
"uX c black",
"iX c black",
"pX c black",
"aX c black",
"sX c black",
"dX c black",
"fX c black",
"gX c black",
"hX c black",
"jX c black",
"kX c black",
"lX c black",
"zX c black",
"xX c black",
"cX c black",
"vX c black",
"bX c black",
"nX c black",
"mX c black",
"MX c black",
"NX c black",
"BX c black",
"VX c black",
"CX c black",
"ZX c black",
"AX c black",
"SX c black",
"DX c black",
"FX c black",
"GX c black",
"HX c black",
"JX c black",
"KX c black",
"LX c black",
"PX c black",
"IX c black",
"UX c black",
/* pixels */
"V.V.V.V.V.V.V.V.V.V.V.V.V.V.V.V.V.V.V.V.V.V.V.V.V.V.V.V.V.V.V.V.V.V.V.V.V.V.V.V.V.V.V.V.V.V.V.V.V.V.V.V.V.V.V.V.V.V.V.",
"V.V.V.V.V.V.V.V.V.V.V.V.V.V.V.V.V.V.V.V.V.V.V.V.V.V.V.n n n n n V.V.V.V.V.V.V.V.V.V.V.V.V.V.V.V.V.V.V.V.V.V.V.V.V.V.V.",
"V.V.V.V.V.V.V.V.V.V.V.V.V.V.V.V.V.V.V.V.V.V.V.v n n Z o.V } o.X.B n v v V.V.V.V.V.V.V.V.V.V.V.V.V.V.V.V.V.V.V.V.V.V.V.",
"V.V.V.V.V.V.V.V.V.V.V.V.V.V.V.V.V.V.V.V.V.m m n V O.@.#.Z X.#.#.+.X.m n m m V.V.V.V.V.V.V.V.V.V.V.V.V.V.V.V.V.V.V.V.V.",
"V.V.V.V.V.V.V.V.V.V.V.V.V.V.V.V.V.V.V.v B o.+.+.@.,.3.3.Z >.e.3.3.#.+.+.+. .n v V.V.V.V.V.V.V.V.V.V.V.V.V.V.V.V.V.V.V.",
"V.V.V.V.V.V.V.V.V.V.V.V.V.V.V.V.V.V.v B o.#.7.7.7.0.a.g...*.f.s.i.8.7.7.3.#. .n v V.V.V.V.V.V.V.V.V.V.V.V.V.V.V.V.V.V.",
"V.V.V.V.V.V.V.V.V.V.V.V.V.V.V.V.v m n o.7.0.i.a.a.5.X.<.| C ..X.O.r.a.a.r.8.1.Z B M V.V.V.V.V.V.V.V.V.V.V.V.V.V.V.V.V.",
"V.V.V.V.V.V.V.V.V.V.V.V.V.V.v m V X.V &.y.9.X.X.X...}  .Z n Z } } ..X...&.r.r. .*.X.V n V.V.V.V.V.V.V.V.V.V.V.V.V.V.V.",
"V.V.V.V.V.V.V.V.V.V.V.V.V.B Z X.#.7.&.&.X.......} Z V V Z B B V C } } ......$.$.w.0.@.} Z V.V.V.V.V.V.V.V.V.V.V.V.V.V.",
"V.V.V.V.V.V.V.V.V.V.V.v n ..#.#.7.w.6.} C { } Z V V V V C n B V V V Z } } Z V $.9.e.1.#.@.Z b V.V.V.V.V.V.V.V.V.V.V.V.",
"V.V.V.V.V.V.V.V.V.V.v n ..#.7.i.q.O...} B M V V V V V m m n n M V V V V V m V  ...-.y.y.,.@.Z b V.V.V.V.V.V.V.V.V.V.V.",
"V.V.V.V.V.V.V.V.V.v n ..#.7.q.<.O.} Z C V B M V m n n l > > q c n n M V m B V Z {  .-.5.e.,.@.Z v V.V.V.V.V.V.V.V.V.V.",
"V.V.V.V.V.V.V.V.V.n ..#.7.r.+...} Z V m n n v c > : > - # # # ; : : w v v n n B V Z  ...;.r.,.@.Z n V.V.V.V.V.V.V.V.V.",
"V.V.V.V.V.V.V.V.n X.#.4.r.+.} Z Z V n q ; ; ; - $ $ $ $ < 4 * $ $ $ $ ; ; ; ; l B V Z Z ..;.y.,.@.{ V.V.V.V.V.V.V.V.V.",
"V.V.V.V.V.V.V.b B +.7.r.+...} V V n q $ < * < * 2 4 5 4 5 5 5 5 4 4 < * < * * = l m V C  ...-.y.1...n V.V.V.V.V.V.V.V.",
"V.V.V.V.V.V.v n *.7.r.O. .Z C n e - & 2 5 5 t 4 < 9 t t t t t t t 5 < 9 t 5 5 < - - z B Z Z ..-.e.4.| v V.V.V.V.V.V.V.",
"V.V.V.V.V.V.m m V >.X.{ } V n e , < 4 5 9 9 t 5 < 2 O @ @ @ @ O $ 5 < t t 9 9 5 2 < , z B Z } } +.} B m n V.V.V.V.V.V.",
"V.V.V.V.V.B X.@.Z B  . .C n w , 9 4 2 9 9 5 @ O O O o o o o o o o O O O $ 9 9 5 < 9 5 , z B Z ..Z B ..@.} V.V.V.V.V.V.",
"V.V.V.V.v  .#.7.6.Z Z } B w $ < 9 4 $ O o O o o o o o o o o o o o o o o o o @ $ * 5 5 < - z Z } Z ..e.1.@.V V.V.V.V.V.",
"V.V.V.V.V ..#.f.&.{ B m j $ 2 9 9 , # 3 1 O o o o o o o o o o o o o o X @ 1 u 8 O < 9 5 * - c M V  .6.e.#.} V.V.V.V.V.",
"V.V.V.V.} +.<.q.X.Z V z # < 9 9 , 6 H ) g @ O O o o o o o o o o o o O O % G ( I , # 2 9 5 * ; n V { -.e.1.@.V V.V.V.V.",
"V.V.V.V.Z o.r.&. .Z n q # 5 5 < 6 H ) ~ & + % # @ O o o o o o o o O # # + & H ! T s # < 9 2 = l B {  .6.e.@.V V.V.V.V.",
"V.2.b v Z  .9.&.{ V x # * 9 < , u Q ) U , # % % % @ o o o o o o o + , , % o r ~ ] U 1 @ 5 4 # ; n Z { 6.e.@.V v V V.V.",
"V.f.&.V B Z 6.&.Z V c # * 2 * 1 G R D 3 , , , % % @ o o o o o o o + & , % + % H ) R y # < < $ ; n V { 9.0...m } >.h.V.",
"V...6.<.Z B 6.&.} V x , 9 4 , y H i @ o # & & % % @ o o o o o o o O # % % # o , H U u # $ 9 4 : n Z  .9.8.Z  .e.-.| V.",
"V.B X.6...B 6.&.Z V x , t 5 , y 6 @ + 3 & % 1 1 , @ o o o o o o o + , , % @ , , # 3 0 1 # t 4 : n Z } 9.&.B >.-. .n V.",
"V.V X... .B >.&.V V x = 5 < , 1 % @ H H # % & % % @ o o o o o o o O % % # + 6 3 o # 7 y & 5 < ; n V Z 5.| V X.....n V.",
"V.n m B B N V V B m x = 9 4 , 1 & & Q ` , % , % % @ o o o o o o o O % 1 # # U D # % 0 y & t 2 : v n m V B B V V V n V.",
"V.V.B  .X.O.o.o.o.X.c # 9 4 1 6 & s ~ ~ 6 X O & % @ o o o o o o o + , % + # i R r , J s & t 2 ; n V Z } X.O.+.O.X.V.V.",
"V.V.B } } Z V V V V x # 4 < 7 a % i Y 6 ~ 1   X @ @ o o o o o o o o .   u ~ & r 3 % g a # 4 < ; n V V V V { } { m V.V.",
"V.V.n n n n n n n n x # < < 7 a # @ r % ` U , # . X o o o o o o o o . + D n.H X O @ y y # 2 $ ; b n n n n n n n v V.V.",
"V.V.V.v M V V V n B c # * < 6 y # @ o 1 v.M.) F 1 # X o o o o o o + 3 D ) ] G # 6 , d s # 2 $ ; n M M V V Z n V.V.V.V.",
"V.V.V.V.V { Z V n B c # < < , 0 % s 1 r ] N.v.U U D & o o o o o X # H ~ n.) G U v.i d s % 2 * ; n M M Z { } m V.V.V.V.",
"V.V.V.V.Z ..} Z n B x # < * , 7 # ) ~ , ~ n.n.) U U u X o o o o o , U ] ] ) D ' M.u d s # < * ; n M V  ...-.V V.V.V.V.",
"V.V.V.V.Z o...-.V Z c - 5 < 3 y % ~ m.) ' v.n.[ U H < o o o o o O 3 R n.] ] ] v.Q , g s # 5 2 ; M V V ..o.a.A V.V.V.V.",
"V.V.V.V.} @.o.r.A { c , t 5 7 a & u ` m.v.] ~ ~ U f # o o o o o O 1 U ) ] v.m.) 1 # y y , t 5 ; V Z V ..@.s.A V.V.V.V.",
"V.V.V.V.} #.+.r.Z V c # 4 5 7 s , # H ] v.' U U U D # o o o o o O 3 H R ] ] v.H # % 7 6 & t * ; m B { o.@.u.A V.V.V.V.",
"V.V.V.V.} #.#.i.C B c # 5 5 y / D @ % U v.v.Y U U D # o o o o o O 3 I ~ ] ] v.H % % 6 6 3 t < ; n M } #.#.,.V V.V.V.V.",
"V.V.V.V.Z @.#.,.V B c = 9 4 y _ H + @ U n.m.] Y U U 8 X o o o X @ D R v.n.m.v.s % % 6 6 , t < ; n M } #.#.@.V V.V.V.V.",
"V.V.V.V.Z +.O.+.B B c # < < y W ~ u i Y n.m.m.] Y U r X o o o X # H ( m.M.m.' r % L G 6 # 4 * ; n M } +.@.#.V V.V.V.V.",
"V.V.V.V.Z +.o.+.V B c = 5 < 0 P U r D Y ' ] ] v.' U u X o o o X @ U v.b.m.` Y r + D G 6 # 5 < ; n M } O.+.@.V V.V.V.V.",
"V.V.V.V.Z +.O.O.B B c = 9 5 7 y i i U ~ u 3 3 f ~ U u X o o o X @ U E 3 6 i U s @ f D 6 & t 2 ; n M { +.@.@.V V.V.V.V.",
"V.V.V.V.Z +.3.X.m V c # 4 < 7 y r U ~ ] u X X , u U r X o o o X # D + . + r ) ` 6 i G y & 5 < ; m B C +.#.@.V V.V.V.V.",
"V.V.V.V.Z +.f.&.m { c = 4 , 6 6 , H ~ v.U o   # r U r X o o o X # D ,   & ` M.` 6 1 K s # 2 < ; V Z V +.#.#.V V.V.V.V.",
"V.V.V.V.Z @.f.&.m { c , t 5 , , , H ~ ] n.U D 8 D U u X o o o X # H U D ( B.N.) 6 1 K s & t 5 ; V Z V +.#.#.V V.V.V.V.",
"V.V.V.V.Z @.f.&.m { c = 9 5 3 6 , u U ) ] ] Y D U F , o o o o o O r Y ` v.M.v.L 3 3 K s & t 2 ; V Z V +.#.#.V V.V.V.V.",
"V.V.V.V.Z +.8.X.m C c = 5 < 7 y , % D R ( ~ D U U u X o o o o o X # H U ~ ) ~ u 1 6 K s & 5 < ; m V V +.#.#.V V.V.V.V.",
"V.V.V.V.Z +.X.Z n B c = 9 2 7 y & % , 3 U R R H u u X o o o o o X $ U R Y R D % , 3 a y & 9 < ; n M B } +.#.V V.V.V.V.",
"V.V.V.V.{ #.} Z m V c = 9 5 7 y % 1 , @ D r R D 3 H 3 X o o o o @ i U ~ R D # # 1 3 y y , t 2 ; n B V Z o.#.V V.V.V.V.",
"V.V.V.v Z o.Z Z m Z c = 9 5 1 3 % 1 1 1 % # Y U H U u o o o o X # H Y ^ H @ @ 1 , , 0 y , t 2 ; B V B Z  .X.B V.V.V.V.",
"V.V.V.v V Z V V n n x = 5 < , 1 % , 1 3 + , ! R U U u X o o o X # H ~ ) H . , 6 1 3 y y & 5 < : n n m V V { m v V.V.V.",
"V.V.V.n N B m m n V n - 5 < , 1 % 1 3 1 % R R U U U u o o o o X @ H ~ ) f @ 6 6 3 3 y y # 4 < q C V m m m B m n n V.V.",
"V.V.V.{ ,.,.,.:...:.X., 4 < 1 1 # 1 1 1 % H 3 H U U r X o o o X # H ) ) + % 6 1 1 1 h s # 4 < j ,.,.,.,.,.,.,.+.M V.V.",
"V.V.V...f.f.g.f.a.f.*.- < < 7 y # % & , + X % Y U U u X o o o o @ D R U X & 1 & , , d a $ 2 $ k w.p.a.a.a.a.a.5.B V.V.",
"V.V.S B {  .X.} { { N # * * 6 7 # 1 1 3 1 + 3 ] Y H 3 X o o o o o , H 8 + 6 6 1 1 1 y y # < $ : B C { { { { Z V v V.V.",
"V.%.5.Z Z V C Z Z Z m # < , , 1 # % , 1 1 , & Q ~ u o o o o o o o @ H ~ @ 1 1 , % % 7 y # < * > Z Z Z Z Z Z Z Z | V.V.",
"V.u.g.t.t.q.e.t.t.t.&., 9 5 1 6 @ % % % % % + % G u X o o o o o o o r ) # % , % % % 7 y , t < k e.t.t.t.t.t.t.i.j.7.V.",
"#.@.*.6.6.e.i.i.i.i.&., 9 5 7 y @ # + # % % # o , 3 o o o o o o o o , i % % # # % % a a , t < j 5.q.i.i.i.y.q.q.&.#.#.",
"t...V ..o.@.#.+.o.O.{ , 9 5 7 y @ 7 p 1 , , # + % @ o o o o o o o o o # , & 6 1 # % J s & t < w  .X.@.+.o.o.X...V :.u.",
"g.X.V ..X.o.o.X...{ m - 9 5 7 y + y p , - & # + % @ o o o o o o o o + % , % 1 a 1 # h s & t < q Z } X.X....... .V ,.k.",
"g...V .. . . .Z Z V n # < < 1 6 7 a 1 % % % % + % @ o o o o o o o o + # % % % 7 d h P s & 5 * > V C Z } ......} B ,.h.",
"g.o.m B B B B m m m v # * < , d d 6 % % % 1 p # % @ o o o o o o o o + # % % % 6 a d d 7 # 2 $ : m m m B B B B B V <.h.",
"k.i.@.+.+.+.+.+.+.@. .- * < , a a & O & 1 , 1 a % @ o o o o o o o O # # # 1 1 6 y y y 6 # 2 $ e +.+.+.+.+.+.+.+.:.g.k.",
"f.g.g.g.g.g.g.g.g.g.-.- * * % 7 y , # % % + & 6 % @ o o o o o o o O # # + # % % 6 7 0 6 # < $ k a.g.g.g.g.g.f.f.g.g.f.",
"Z #.,.,.,.,.,.:.#.+.Z = $ $ % 6 7 0 d J d & 0 @ # @ o o o o o o o O # # # & a J a y 7 3 @ $ $ w X.+.:.,.,.1.+.+.+.X.B ",
"B X.@.#.#.#.@.o.....Z # $ @ # , , , 1 1 1 + O o o o X X X X X X X X X X X o # 1 1 1 1 , @ # @ w  . ...O.#.@.#.@.X.} n ",
"B ..o.@.@.@.o...} Z V ; : : : ; ; : : : : : : : : ; ; ; ; ; ; ; ; ; ; ; ; ; ; : : : : : : : ; e Z Z  ...O.o.+.+.X.} n ",
"B .. .} } } } } Z C B z n m V M n n n b n n n m B n n n n n n n n n n n n n n n n n n n n n v x V V Z } } } } } ..} n ",
"n C V M M M M M M M n n C  .O...{ { Z n V C Z  .X.{ { { { { { { { { { { { Z m M Z { { { Z C B n M M M M M M M B V V b ",
"n m m V C V V V V V V Z  .@.#.@.+.+.O.C V } O.+.@.+.+.+.+.+.+.+.+.+.+.+.o. .C C  .o.+.O...} Z V M B C C C C C C C V b ",
"n Z } X.+.+.+.+.+.+.+.+.@.#.#.#.#.#.#.} } +.1.u.u.u.u.u.7.#.t.d.u.u.d.t.#.o.} } ..@.#.#.+.+.+...}  ...............} n ",
"m } =.a.g.g.g.f.3.1.u.g.g.f.f.f.f.7.#.} o.#.7.k.k.k.k.k.g.f.h.k.k.k.k.h.g.q. .} +.e.g.f.g.g.f.a.6.@.@.@.@.@.@.+.X.} n ",
"B X.q.k.k.k.k.x.z.g.k.x.k.k.k.k.k.g.4.} +.1.g.h.h.h.k.k.k.k.k.k.k.x.c.c.x.h.;.o.0.j.k.k.k.x.k.l.z.z.z.h.g.g.g.3.#.X.n ",
"V +.q.j.j.j.j.h.k.h.h.h.h.j.j.h.j.j.4.X.@.#.3.4.4.3.y.j.j.j.j.j.h.k.k.k.h.h.5.O.,.4.3.4.g.k.z.h.k.k.k.h.h.h.j.f.f.5.n ",
" .X.X.+.+.+.+.+.+.+.+.+.+.+.+.+.+.+.o...X.X.X.X.X.X.X.+.+.+.+.+.+.+.+.+.&.+.X.X.X.X.X.X.+.&.&.+.+.+.+.+.+.+.+.&.&.X.} "
};
