/* XPM */
static char *ZXpnaWYuY29tLWdpZi1tYWtlci0z_7[] = {
/* columns rows colors chars-per-pixel */
"59 75 256 2 ",
"   c #0A0E09",
".  c #0D110B",
"X  c #12140F",
"o  c #141512",
"O  c #181714",
"+  c #161915",
"@  c #191A17",
"#  c #171A18",
"$  c #1C1D1A",
"%  c #221E1B",
"&  c #1E211D",
"*  c #22221E",
"=  c #28221F",
"-  c #1D1F21",
";  c #201F20",
":  c #1D2125",
">  c #1D252C",
",  c #1F2933",
"<  c #1F2C38",
"1  c #232521",
"2  c #2B2522",
"3  c #252A24",
"4  c #2B2B26",
"5  c #21262A",
"6  c #20282F",
"7  c #2B2D2A",
"8  c #312A26",
"9  c #342D2A",
"0  c #2C322A",
"q  c #2F382E",
"w  c #34322E",
"e  c #38312E",
"r  c #30392F",
"t  c #202B33",
"y  c #212E3A",
"u  c #24313B",
"i  c #333533",
"p  c #3C3431",
"a  c #343C32",
"s  c #383937",
"d  c #3B3D3B",
"f  c #403F3E",
"g  c #364134",
"h  c #394236",
"j  c #3C443A",
"k  c #3E4A3C",
"l  c #414E3E",
"z  c #243342",
"x  c #26394A",
"c  c #273D52",
"v  c #293E52",
"b  c #294156",
"n  c #2B455C",
"m  c #2D4760",
"M  c #2E4A64",
"N  c #2F4E69",
"B  c #304F6A",
"V  c #2F506C",
"C  c #30516D",
"Z  c #325674",
"A  c #335877",
"S  c #345B7B",
"D  c #39607E",
"F  c #444543",
"G  c #454B44",
"H  c #484C47",
"J  c #4C4D4C",
"K  c #445342",
"L  c #485846",
"P  c #4D514C",
"I  c #50524F",
"U  c #545453",
"Y  c #555B53",
"T  c #5B5C5B",
"R  c #605F5F",
"E  c #5D625D",
"W  c #60605F",
"Q  c gray39",
"!  c #686767",
"~  c #666A65",
"^  c gray42",
"/  c #706F6F",
"(  c #6F706E",
")  c #6E796D",
"_  c gray45",
"`  c #777977",
"'  c #7B7B7B",
"]  c #365F80",
"[  c #376285",
"{  c #3B6485",
"}  c #376489",
"|  c #38668B",
" . c #39688E",
".. c #3A6C93",
"X. c #3B6F98",
"o. c #3E7097",
"O. c #3D729C",
"+. c #3D76A2",
"@. c #3E79A6",
"#. c #3E7AA8",
"$. c #416F92",
"%. c #427195",
"&. c #437296",
"*. c #40739B",
"=. c #41759D",
"-. c #42759B",
";. c #4377A0",
":. c #4378A1",
">. c #447BA4",
",. c #497EA5",
"<. c #417EAD",
"1. c #427DAA",
"2. c #4380AF",
"3. c #4A84AE",
"4. c #4A82AB",
"5. c #4785B3",
"6. c #4683B2",
"7. c #4C87B1",
"8. c #4A86B2",
"9. c #4B88B5",
"0. c #4C89B5",
"q. c #4D8BB8",
"w. c #4D8CBA",
"e. c #4C8CBA",
"r. c #508CB7",
"t. c #508DB9",
"y. c #518EBB",
"u. c #4F90BE",
"i. c #5191BE",
"p. c #5394C2",
"a. c #5798C6",
"s. c #5799C8",
"d. c #5A9DCB",
"f. c #5DA1CE",
"g. c #61A1CA",
"h. c #64A6D1",
"j. c #68A9D2",
"k. c #848484",
"l. c #878888",
"z. c gray54",
"x. c #939393",
"c. c #9B9B9B",
"v. c gray64",
"b. c gray67",
"n. c gray70",
"m. c #BBBBBB",
"M. c #C3C3C3",
"N. c #CACACA",
"B. c #D2D2D2",
"V. c None",
"C. c black",
"Z. c black",
"A. c black",
"S. c black",
"D. c black",
"F. c black",
"G. c black",
"H. c black",
"J. c black",
"K. c black",
"L. c black",
"P. c black",
"I. c black",
"U. c black",
"Y. c black",
"T. c black",
"R. c black",
"E. c black",
"W. c black",
"Q. c black",
"!. c black",
"~. c black",
"^. c black",
"/. c black",
"(. c black",
"). c black",
"_. c black",
"`. c black",
"'. c black",
"]. c black",
"[. c black",
"{. c black",
"}. c black",
"|. c black",
" X c black",
".X c black",
"XX c black",
"oX c black",
"OX c black",
"+X c black",
"@X c black",
"#X c black",
"$X c black",
"%X c black",
"&X c black",
"*X c black",
"=X c black",
"-X c black",
";X c black",
":X c black",
">X c black",
",X c black",
"<X c black",
"1X c black",
"2X c black",
"3X c black",
"4X c black",
"5X c black",
"6X c black",
"7X c black",
"8X c black",
"9X c black",
"0X c black",
"qX c black",
"wX c black",
"eX c black",
"rX c black",
"tX c black",
"yX c black",
"uX c black",
"iX c black",
"pX c black",
"aX c black",
"sX c black",
"dX c black",
"fX c black",
"gX c black",
"hX c black",
"jX c black",
"kX c black",
"lX c black",
"zX c black",
"xX c black",
"cX c black",
"vX c black",
"bX c black",
"nX c black",
"mX c black",
"MX c black",
"NX c black",
"BX c black",
"VX c black",
"CX c black",
"ZX c black",
"AX c black",
"SX c black",
"DX c black",
"FX c black",
"GX c black",
"HX c black",
"JX c black",
"KX c black",
"LX c black",
"PX c black",
"IX c black",
"UX c black",
/* pixels */
"V.V.V.V.V.V.V.V.V.V.V.V.V.V.V.V.V.V.V.V.V.V.V.V.V.V.V.V.V.V.V.V.V.V.V.V.V.V.V.V.V.V.V.V.V.V.V.V.V.V.V.V.V.V.V.V.V.V.V.",
"V.V.V.V.V.V.V.V.V.V.V.V.V.V.V.V.V.V.V.V.V.V.V.V.V.V.V.M M M M M V.V.V.V.V.V.V.V.V.V.V.V.V.V.V.V.V.V.V.V.V.V.V.V.V.V.V.",
"V.V.V.V.V.V.V.V.V.V.V.V.V.V.V.V.V.V.V.V.V.V.V.n m M A ..A S ....Z M n n V.V.V.V.V.V.V.V.V.V.V.V.V.V.V.V.V.V.V.V.V.V.V.",
"V.V.V.V.V.V.V.V.V.V.V.V.V.V.V.V.V.V.V.V.V.N N M Z X.+.#.] } <.#.O...V N N N V.V.V.V.V.V.V.V.V.V.V.V.V.V.V.V.V.V.V.V.V.",
"V.V.V.V.V.V.V.V.V.V.V.V.V.V.V.V.V.V.V.n N ..O.O.+.#.2.2.[ -.q.2.2.#.O.O.O. .M n V.V.V.V.V.V.V.V.V.V.V.V.V.V.V.V.V.V.V.",
"V.V.V.V.V.V.V.V.V.V.V.V.V.V.V.V.V.V.n N ..#.6.6.6.5.t.p.$.&.i.t.t.5.6.6.2.@.| N n V.V.V.V.V.V.V.V.V.V.V.V.V.V.V.V.V.V.",
"V.V.V.V.V.V.V.V.V.V.V.V.V.V.V.V.n N N  .6.5.e.t.t.3...>. .Z  .....7.t.t.0.5.<.[ C C n V.V.V.V.V.V.V.V.V.V.V.V.V.V.V.V.",
"V.V.V.V.V.V.V.V.V.V.V.V.V.V.n N Z  .A o.q.7....... .[ } S M A [ [  .....*.0.q.} &.*.Z M n V.V.V.V.V.V.V.V.V.V.V.V.V.V.",
"V.V.V.V.V.V.V.V.V.V.V.V.n V A  .@.2.-.&... . . .[ S Z Z S C C Z A [ [  . . .&.%.3.9.@.[ A N V.V.V.V.V.V.V.V.V.V.V.V.V.",
"V.V.V.V.V.V.V.V.V.V.V.n M } #.#.2.0.3.{ Z ] [ ] Z Z Z Z Z N C Z Z Z A [ [ S Z ..7.9.<.#.@.] M n V.V.V.V.V.V.V.V.V.V.V.",
"V.V.V.V.V.V.V.V.V.V.n M } @.2.e.9.*. .[ C B Z Z Z Z Z N N M N B Z Z Z Z Z N Z }  .;.0.e.<.@.] M n V.V.V.V.V.V.V.V.V.V.",
"V.V.V.V.V.V.V.V.V.n M } @.2.0.,.*.[ S S Z C B Z N N M x , , t v N N N Z N C Z S S { =.4.0.<.@.[ M n V.V.V.V.V.V.V.V.V.",
"V.V.V.V.V.V.V.V.V.M } @.2.0.=. .[ S Z N M M n b , > > : $ % % > > > t n n M M C Z S }  .>.0.<.@.[ M V.V.V.V.V.V.V.V.V.",
"V.V.V.V.V.V.V.V.M | @.2.0.=.} S S Z N y > > > : % % % % 2 8 2 % % % % > > > > z C Z S S } :.q.<.+.[ n V.V.V.V.V.V.V.V.",
"V.V.V.V.V.V.V.m B O.2.0.*. .[ Z Z M y % 2 = 2 = 4 8 9 8 9 9 9 9 8 8 2 = 2 = 2 $ z N Z A [  .:.q.<...M n V.V.V.V.V.V.V.",
"V.V.V.V.V.V.n n &.6.0.*.} S A N z : % 2 9 9 p 9 2 e p p p p p p p 9 2 9 p 9 9 2 ; : x C S S  .=.9.2. .n n V.V.V.V.V.V.",
"V.V.V.V.V.V.N N C ,.o.] [ Z B z 1 2 8 9 e e p 9 2 8 $ @ @ @ @ @ % 9 2 e p e e 9 8 2 1 x C S [ [ o.} C N N V.V.V.V.V.V.",
"V.V.V.V.V.C  .+.[ C } } S N z 1 e 9 2 9 e 9 = $ @ * * $ * $ @ $ $ @ O % 1 e e 9 2 9 9 1 x C S  .] C } +.[ N V.V.V.V.V.",
"V.V.V.V.n [ #.2.8.S S [ C u $ 2 e 8 % $ $ 1 a r 0 0 3 & 3 $ @ $ $ * 0 a a * $ @ = 9 9 2 - x Z [ A { 9.2.@.A V.V.V.V.V.",
"V.V.V.V.C  .@.i.>.[ C N x $ 2 9 e % o 1 j P H a 3 @ o # @ o o o o * a h U G 0 @ o 2 e 9 2 - v B Z [ 4.e.#.} N V.V.V.V.",
"V.V.V.n ] O.>.8.o.S Z b $ 2 9 e % @ 1 F ( ! G 1 # # # # @ o o o # o o 7 Q ` H 3 & @ 2 e 9 = - n Z S =.9.2.@.Z V.V.V.V.",
"V.V.V.n A ..7.>. .S N y $ 9 e = @ 7 P ^ _ J 1 @ & & & & $ o o # & $ # @ F ` _ E G 3 @ 2 e 8 $ z C S [ ,.q.@.Z V.V.V.V.",
"V.7.M n Z [ 3.>.[ Z b $ % 9 2 @ 7 a ^ ' Q i # & & & & & $ O o @ & 3 * # 3 T ` k.E r 3 @ 9 9 $ : M S ] ,.q.@.Z n B i.V.",
"V.p.-.A C S 4.>.S Z b $ = 2 2 * a F ! Y s 1 & 1 3 3 * & $ O o # & 1 1 # @ 0 J ` Q j 0 $ 2 2 % : M Z S 4.q...C ] >.a.V.",
"V. .4.2.S C 4.>.[ A b : e 9 * 0 a H T 0 o o # 1 1 1 & & $ o o & & & & & o o $ F T F 0 $ $ e 9 > M S } 4.9.S [ 8.>.{ V.",
"V.N ..4.&.N 4.>.S Z b : e e & r a 0 1 # 3 & # & 3 3 3 3 $ o # 1 3 1 & # $ 7 o @ 4 a a 3 $ p 9 > M A [ 4.>.C >.>. .M V.",
"V.C .. . .C -.=.A Z b - 9 4 1 a 7 # # F U 7 @ & 1 1 1 1 $ o o & 1 * & # 3 U H o @ 0 a a & 9 4 > M Z S >. .Z  . ...N V.",
"V.M N C C V Z Z C N b - 9 9 1 a 7 & # J ` U 1 & 3 3 1 & $ O o & 1 3 3 1 F k.T # @ 0 h a * p 8 > n M N Z C C Z Z Z M V.",
"V.V.C } ..O.........n - 9 9 1 h q & # J ^ d * # o & 3 3 & O @ 3 3 & o o 7 _ ! s # 1 K k * p 8 > M Z S [  .O.O.O...V.V.",
"V.V.B [ [ S Z Z Z Z b - 8 2 1 K j & # H d i Q d o . o $ # o # & X . o s 4 i T w @ & k j & 8 2 > m C Z Z Z S [ [ B V.V.",
"V.V.M M M N M M M M b - = 2 1 K k # o 4 4 T z.Q 7 # .   . X o . . @ i _ ! 1 w o # & a h & 2 % : n M M M M N M M m V.V.",
"V.V.V.n N Z Z Z M C b $ = 2 1 k g # 0 1 * U z.c.' T F d 7 $ o 1 l Q 4.x.T 1 . 3 4 # K k & 2 % : M C N Z Z S N V.V.V.V.",
"V.V.V.n C ] S Z M C b - 2 2 1 a 0 # Q J 7 T k.b.M.m.b.c.^ 9 1 Q x.n.m.z.U 4 7 k.U # K k & 4 = : M C N S ] [ C V.V.V.V.",
"V.V.V.n Z  .[ ] N C b - 2 = 1 a 0 # U ( s F _ x.n.N.N.n.' 9 i l.v.m.b.l.T 0 x.b.F # K k $ 2 = : M C C }  .;.A V.V.V.V.",
"V.V.V.n S .. .>.S A n : 9 2 1 k a # 4 ' ' ` k.z.c.M.B.m.` 9 i l.v.n.x.z.z.k.n._ & # K k & 8 8 > N Z Z  ...e.{ V.V.V.V.",
"V.V.V.n ] @...0.{ S n : p e 1 K k & # T x.x.z.l.z.v.m.v.` 9 7 ' x.x.z.z.x.c.^ 3 o & g h * p 9 > N S Z  .O.w.{ V.V.V.V.",
"V.V.V.n ] #.O.0.D Z n - 2 9 1 K k & & j ` l.z.z.l.z.x.z.! 7 4 _ z.l.l.l.z.k.F o & 3 a q * p 2 : M Z A X.O.w.{ V.V.V.V.",
"V.V.V.n ] #.@.e.D C b - 9 e 1 K ~ F & & H ` x.x.z.l.l.l.Q 7 4 _ z.l.z.x.z.Q # @ & P P 0 4 p 2 > M B S @.@.<.S V.V.V.V.",
"V.V.V.n Z O.@.1.Z C b - 9 9 1 K ) J # # F k.c.c.c.x.z.z.Q 7 4 _ z.x.c.v.x.U X # & T U 0 * p 8 > M C S @.@.@.Z V.V.V.V.",
"V.V.V.n Z O.O.O.Z C b $ 2 2 1 K E ! i 7 U ' c.v.m.M.n.c.! 7 4 ' b.M.M.n.z.T i o H ! G 0 $ 8 = > M C S O.O.@.Z V.V.V.V.",
"V.V.V.n Z O.X.O.Z C b - 8 2 1 K Y U 7 i U Q ' z.z.c.m.n._ 7 7 k.m.n.v.l.Q T d   d T j 0 $ 8 4 > M C S O.O.#.Z V.V.V.V.",
"V.V.V.n Z O.O.O.Z C b - 9 e 1 K g d 7 j Q T d 0 7 d _ x.^ 4 4 ' ' d 7 s U ^ J o s j r q $ p 8 > M B A O.O.#.Z V.V.V.V.",
"V.V.V.n Z O.2.o.C Z n - 8 8 1 K g i 3 J k.! s # .   1 Q Q 1 1 U 1   . & Q z.! i 7 7 r a * 9 2 : M Z Z O.#.@.Z V.V.V.V.",
"V.V.V.n Z O.w.>.C ] n - 4 2 1 l r & $ J z.x.! 1   o s ! R 1 1 T d .   d v.x.! s # & k k $ 2 2 : N S Z O.#.@.Z V.V.V.V.",
"V.V.V.n Z O.w.>.C ] n : p e 1 a 3 & $ J ' x.x.! J U ^ k.! 2 3 ! ^ U Y z.m.k.! s # & k k * p e > N S Z O.#.@.Z V.V.V.V.",
"V.V.V.n Z O.w.>.C ] n - 9 e 1 k q & 1 F ! ' l.z.z.' k.v.` 7 7 ^ ' l.x.v.x.^ U 4 1 & k k * p 8 > N S Z O.#.@.Z V.V.V.V.",
"V.V.V.n Z O.6.o.C Z n - 9 8 1 K g & 0 d T ! _ ^ ! _ c.n./ 1 7 ' l.^ ! ^ ^ Q d # 0 & l k & 9 4 > M Z Z O.#.@.Z V.V.V.V.",
"V.V.V.n Z O...] N C b - 9 9 1 K g & 0 1 4 H T Q Q ' k.^ F $ $ U k._ Q Q U 4 $ # 0 & a h * e 8 > M C B [ O.@.Z V.V.V.V.",
"V.V.V.n S @.} S N C b - 9 e 1 K g & 0 1 # & d d T ' _ F i $ o s ' ` U i & o & 3 0 $ 7 a * p 8 > M C C S ..@.Z V.V.V.V.",
"V.V.V.n A ..] S N S n - 9 e & a 7 & 3 3 3 # # $ U ' ' Q f $ $ U l._ H o X 3 3 1 1 # 0 a * p 8 : N Z N S [ ..Z V.V.V.V.",
"V.V.V.n Z ] Z Z M N b - 9 4 & q 3 & 0 3 7 # . * T _ ` ' T 1 1 R ` ( I $ + 0 7 7 7 # 0 a * 8 4 > n M M Z Z ] V n V.V.V.",
"V.V.V.M N C N N M Z V : 8 2 & q 3 & 0 0 0 3 1 U ! _ ^ ' Q 1 1 T _ ^ ! P 7 0 0 0 7 # 0 a & 8 4 > Z Z N N N C N N M V.V.",
"V.V.V.S 1.1.1.>. .:.o.5 8 2 $ a 3 $ 3 7 7 3 1 F F ^ ^ ' Q 1 3 T _ ! d H 0 3 7 7 1 @ k k & 4 2 u >.1.1.1.1.1.1.>.C V.V.",
"V.V.V.{ t.i.p.i.t.y.,.> = 2 $ k g # * 1 1 3 & X * T ! _ T 1 1 T ^ U # # 3 1 1 1 1 # j j & 4 % u 3.r.t.t.t.t.t.7.Z V.V.",
"V.V. .C ] } ..[ ] ] Z - = 1 $ h r # 1 7 0 0 3 # # H ' k.Q 1 1 Q ' d o & 0 0 7 3 3 # 0 a & 2 % > C A ] ] ] ] ] Z M V.V.",
"V.{ 3.A A Z Z A A A V : 2 2 & a 3 @ & 1 3 7 7 1 0 ( ` k.Q 1 1 T ' ! 1 3 7 3 1 & & # 0 a & 2 = > Z A A A A A A A { V.V.",
"#.q.a.q.q.8.8.q.q.q.>.5 9 e 1 j 0 @ & & & 1 1 & i W d I P * $ i F Q 3 1 1 & & & & # 0 a * p 8 u 8.q.q.q.q.q.q.e.s.5.#.",
"#.+.-.4.4.8.e.e.e.e.>.5 9 e 1 K g # & # # & & & 7 d 1 a a $ # & 4 d 1 & & # # & & # g h * p 8 u >.8.e.e.e.q.8.5.=.@.#.",
"q...C  ...+.#.O.X.O.} : 9 e 1 K g # # q 0 1 3 3 & # & j h $ # 7 # # 3 1 3 h 0 # # @ l k * p 8 t [ ..O.+.X.X.....C +.e.",
"a...Z  ...X.X... .[ Z : 9 e 1 K g o q j 0 1 1 1 & # & j h $ # 7 # & 1 1 3 h l 0 o o l k * p 8 6 A [ .... . . .} C +.s.",
"p...C } } } } ] S Z N - 2 4 & a 0 q l 0 & & & & & # & j h $ # 7 # & & & & 3 h l K 3 l k & 8 = > C A S [  . . .} C :.s.",
"a.o.N C C C C N N N n - = 2 & q k K h 3 & & & 3 a 1 1 k h $ # 7 & 3 a * & * 0 j k a h r $ 2 % > M N N V C C C C V >.s.",
"d.w.+.O.O.O.O.O.O.+. .: = 2 & q h h a & & 3 3 3 7 k K K h $ # a K j & # 3 & & a a a a 0 $ 4 % t o.+.O.O.O.O.O.O.>.p.d.",
"i.a.p.p.p.p.p.p.p.p.4.> = 2 $ 0 r a 7 & & & & & 1 a g l h $ # q h r & & & & & 0 a a a 0 # 2 % u q.p.p.p.p.p.i.i.i.p.i.",
"Z @.1.1.1.1.1.1.@.o.[ : % % $ 0 0 r l K K L L L K a 0 j h $ @ 3 q h L K h L L k a q 0 7 # % % t  .o.>.1.1.1.O.o...o.C ",
"N ..+.#.#.#.@... . .S : $ $ # 3 1 3 3 3 3 3 3 3 3 3 3 r 0 @ o * 3 3 3 7 7 3 3 3 3 3 3 1 @ $ @ , [ }  .X.@.@.@.@...} M ",
"N } ..+.+.+... .} S A > > > > > > > > > > > > > > > > > > > > > > > > t t > > > > > > > > > > < S S }  .O...o.+...[ M ",
"N  . .[ [ [ [ [ S Z Z x M N Z C N N N M M N N N C N N N N N N N N N N N N N M M N N N N N N n c Z Z S [ [ [ [ [  .} M ",
"M Z Z B B B B B B B N M Z } O...] ] S N C A S [ ..] ] ] ] ] ] ] ] ] ] ] ] S C N S ] ] ] S A Z M B B B B B B B B Z Z M ",
"M N N C Z Z Z Z Z Z Z A [ O.#.@.O.O.O.A Z [ X.O.@.O.O.O.O.O.O.O.O.O.O.O.X. .S Z } ..O.o...[ ] Z B C A A A A A A A Z M ",
"M A [  .O.O.O.O.O.O.O.O.+.#.#.#.#.#.#.[ [ O.1.e.w.w.w.w.5.#.9.u.w.w.w.q.@.O.[ ]  .O.#.#.+.O.O. .[ }  . . . . . . .[ M ",
"N [ =.t.p.p.p.i.2.1.w.p.p.i.p.p.i.5.@.[ ..@.2.s.d.d.d.d.a.i.a.d.d.d.d.s.p.9. .] O.8.p.i.p.p.i.t.8.+.+.+.+.+.+.O...[ M ",
"N ..2.d.d.d.d.h.g.a.d.h.d.d.d.d.d.a.6.} O.1.i.s.s.s.d.d.d.d.d.d.d.h.j.j.h.d.4...8.a.d.d.d.h.f.f.h.g.g.a.p.p.p.6.@.o.N ",
"Z O.6.a.a.a.a.a.d.a.a.a.a.a.a.a.a.a.8...O.@.<.2.2.2.9.a.a.a.a.a.a.d.d.d.a.a.7.O.1.2.2.2.p.d.g.a.d.d.d.a.a.a.a.p.i.7.C ",
"} ....o.o.o.o.o.o.o.o.o.o.o.o.o.o.o...................o.o.o.o.o.o.o.o.o.o.o.............o.*.-.o.o.o.o.o.o.o.o.*.*.o.{ "
};
