/* XPM */
static char *ZXpnaWYuY29tLWdpZi1tYWtlci0z_25[] = {
/* columns rows colors chars-per-pixel */
"59 75 256 2 ",
"   c #0F100C",
".  c #13110E",
"X  c #151210",
"o  c #191614",
"O  c #161915",
"+  c #191916",
"@  c #1C1D1A",
"#  c #211D1B",
"$  c #1E211C",
"%  c #22211E",
"&  c #28221F",
"*  c #1D1F21",
"=  c #1E2123",
"-  c #1D252C",
";  c #1F2933",
":  c #222421",
">  c #2A2522",
",  c #252A24",
"<  c #2C2925",
"1  c #2B2C2A",
"2  c #302A26",
"3  c #332D2A",
"4  c #283027",
"5  c #2C322B",
"6  c #2F382E",
"7  c #31332E",
"8  c #39312D",
"9  c #30392F",
"0  c #202B35",
"q  c #222E39",
"w  c #22313D",
"e  c #343432",
"r  c #3A3634",
"t  c #343A33",
"y  c #393837",
"u  c #3C3C3A",
"i  c #403834",
"p  c #403F3E",
"a  c #364034",
"s  c #384236",
"d  c #3D423C",
"f  c #3E4A3C",
"g  c #40413F",
"h  c #404D3E",
"j  c #243543",
"k  c #263947",
"l  c #263A4C",
"z  c #293C4B",
"x  c #283E51",
"c  c #284055",
"v  c #2C465E",
"b  c #2C4760",
"n  c #2E4B64",
"m  c #2F4E69",
"M  c #304E67",
"N  c #304F6A",
"B  c #2F506B",
"V  c #30516E",
"C  c #325573",
"Z  c #335877",
"A  c #345A7A",
"S  c #395F7E",
"D  c #434342",
"F  c #464945",
"G  c #484B47",
"H  c #4B4B4A",
"J  c #504F4E",
"K  c #4A5B47",
"L  c #4D514D",
"P  c #51504F",
"I  c #545353",
"U  c #585857",
"Y  c #5B5B5A",
"T  c #605F5E",
"R  c #5F635E",
"E  c #636463",
"W  c #6C6C6C",
"Q  c gray45",
"!  c #365F80",
"~  c #366184",
"^  c #396384",
"/  c #376489",
"(  c #38668B",
")  c #3A698E",
"_  c #3A6B93",
"`  c #3B6F98",
"'  c #3E7097",
"]  c #3D729C",
"[  c #3D76A2",
"{  c #3E79A6",
"}  c #3E7AA8",
"|  c #417296",
" . c #41749B",
".. c #45789D",
"X. c #487A9F",
"o. c #4077A1",
"O. c #4279A2",
"+. c #477AA0",
"@. c #457BA4",
"#. c #467CA5",
"$. c #427AA4",
"%. c #497EA5",
"&. c #407DAB",
"*. c #427EAB",
"=. c #477EA8",
"-. c #427DAA",
";. c #4280AE",
":. c #4680AC",
">. c #4881AA",
",. c #4A83AD",
"<. c #4482B0",
"1. c #4582B0",
"2. c #4684B3",
"3. c #4C86B1",
"4. c #4A86B2",
"5. c #4C88B3",
"6. c #4988B7",
"7. c #4C88B4",
"8. c #4C8BB8",
"9. c #4E8DBB",
"0. c #4D8CBA",
"q. c #508AB4",
"w. c #508DB9",
"e. c #518FBC",
"r. c #4F90BE",
"t. c #5292BE",
"y. c #5191BE",
"u. c #5596C3",
"i. c #5394C1",
"p. c #599AC6",
"a. c #579AC8",
"s. c #5A9DCB",
"d. c #5DA0CD",
"f. c #61A1CB",
"g. c #64A6D0",
"h. c #67A8D1",
"j. c #68A9D2",
"k. c None",
"l. c black",
"z. c black",
"x. c black",
"c. c black",
"v. c black",
"b. c black",
"n. c black",
"m. c black",
"M. c black",
"N. c black",
"B. c black",
"V. c black",
"C. c black",
"Z. c black",
"A. c black",
"S. c black",
"D. c black",
"F. c black",
"G. c black",
"H. c black",
"J. c black",
"K. c black",
"L. c black",
"P. c black",
"I. c black",
"U. c black",
"Y. c black",
"T. c black",
"R. c black",
"E. c black",
"W. c black",
"Q. c black",
"!. c black",
"~. c black",
"^. c black",
"/. c black",
"(. c black",
"). c black",
"_. c black",
"`. c black",
"'. c black",
"]. c black",
"[. c black",
"{. c black",
"}. c black",
"|. c black",
" X c black",
".X c black",
"XX c black",
"oX c black",
"OX c black",
"+X c black",
"@X c black",
"#X c black",
"$X c black",
"%X c black",
"&X c black",
"*X c black",
"=X c black",
"-X c black",
";X c black",
":X c black",
">X c black",
",X c black",
"<X c black",
"1X c black",
"2X c black",
"3X c black",
"4X c black",
"5X c black",
"6X c black",
"7X c black",
"8X c black",
"9X c black",
"0X c black",
"qX c black",
"wX c black",
"eX c black",
"rX c black",
"tX c black",
"yX c black",
"uX c black",
"iX c black",
"pX c black",
"aX c black",
"sX c black",
"dX c black",
"fX c black",
"gX c black",
"hX c black",
"jX c black",
"kX c black",
"lX c black",
"zX c black",
"xX c black",
"cX c black",
"vX c black",
"bX c black",
"nX c black",
"mX c black",
"MX c black",
"NX c black",
"BX c black",
"VX c black",
"CX c black",
"ZX c black",
"AX c black",
"SX c black",
"DX c black",
"FX c black",
"GX c black",
"HX c black",
"JX c black",
"KX c black",
"LX c black",
"PX c black",
"IX c black",
"UX c black",
/* pixels */
"k.k.k.k.k.k.k.k.k.k.k.k.k.k.k.k.k.k.k.k.k.k.k.k.k.k.k.k.k.k.k.k.k.k.k.k.k.k.k.k.k.k.k.k.k.k.k.k.k.k.k.k.k.k.k.k.k.k.k.",
"k.k.k.k.k.k.k.k.k.k.k.k.k.k.k.k.k.k.k.k.k.k.k.k.k.k.k.n n n n n k.k.k.k.k.k.k.k.k.k.k.k.k.k.k.k.k.k.k.k.k.k.k.k.k.k.k.",
"k.k.k.k.k.k.k.k.k.k.k.k.k.k.k.k.k.k.k.k.k.k.k.v n n ! _ C ~ _ _ V n v v k.k.k.k.k.k.k.k.k.k.k.k.k.k.k.k.k.k.k.k.k.k.k.",
"k.k.k.k.k.k.k.k.k.k.k.k.k.k.k.k.k.k.k.k.k.m m n A ] [ } A _ &.} ] _ m m m m k.k.k.k.k.k.k.k.k.k.k.k.k.k.k.k.k.k.k.k.k.",
"k.k.k.k.k.k.k.k.k.k.k.k.k.k.k.k.k.k.k.v V ` ] ] [ &.;.*.A %.6.;.;.} ] ] ] ( n v k.k.k.k.k.k.k.k.k.k.k.k.k.k.k.k.k.k.k.",
"k.k.k.k.k.k.k.k.k.k.k.k.k.k.k.k.k.k.v V ] } 1.1.1.4.w.u.) +.y.e.0.2.1.1.*.} ~ n v k.k.k.k.k.k.k.k.k.k.k.k.k.k.k.k.k.k.",
"k.k.k.k.k.k.k.k.k.k.k.k.k.k.k.k.v m m _ 1.4.0.w.w.=._ >.~ A ) _ ' 7.w.w.7.2.&.A V M v k.k.k.k.k.k.k.k.k.k.k.k.k.k.k.k.",
"k.k.k.k.k.k.k.k.k.k.k.k.k.k.v m Z _ C O.0.3._ _ _ ( ~ / A n A ~ / _ _ )  .7.6.~ X.) C n v k.k.k.k.k.k.k.k.k.k.k.k.k.k.",
"k.k.k.k.k.k.k.k.k.k.k.k.k.V A _ } 1.|  ._ ) ) / ~ A C C A N V Z A ~ ~ ) ) ) | | q.2.[ ! A n k.k.k.k.k.k.k.k.k.k.k.k.k.",
"k.k.k.k.k.k.k.k.k.k.k.v m ) } } 1.3.,.~ A ~ ~ A C C C C Z m V Z C C A ~ ~ A C | 3.6.*.} [ A b k.k.k.k.k.k.k.k.k.k.k.k.",
"k.k.k.k.k.k.k.k.k.k.v m _ } 1.0.4.' ( ! V V C C C C V m m n m N C C C C C m C / ) @.8.8.&.[ A b k.k.k.k.k.k.k.k.k.k.k.",
"k.k.k.k.k.k.k.k.k.v m ) } 1.4.=.' ~ A Z C V V C m m n k ; ; 0 c m m V C N V C A ! / +.>.6.&.[ A v k.k.k.k.k.k.k.k.k.k.",
"k.k.k.k.k.k.k.k.k.m ) } 1.4.' ( ~ Z C m n n v c ; - ; = @ @ @ - - - w v b n n V C A / ) #.7.&.[ A n k.k.k.k.k.k.k.k.k.",
"k.k.k.k.k.k.k.k.m _ } 1.7.' ~ A A C n 0 - - - = # # # # > 2 & # # # # - - - - k V C A A ) #.8.&.[ A v k.k.k.k.k.k.k.k.",
"k.k.k.k.k.k.k.b V [ 1.7.' ( ~ C C n 0 # > % > % 2 2 3 3 3 3 3 3 2 2 > % > % & * k B C A / ) @.8.*.( n v k.k.k.k.k.k.k.",
"k.k.k.k.k.k.v n ..1.7.' / A Z m q = % < 3 3 r 2 > 8 r r r r r r r 3 > 8 r 3 3 > = - x C A A ) +.6.:.~ v k.k.k.k.k.k.k.",
"k.k.k.k.k.k.m m C %.` ! ~ C n q % > 2 3 8 8 r 3 > < o + + + + o # 3 > r r 8 8 3 < > : z C A / / ' ~ N m n k.k.k.k.k.k.",
"k.k.k.k.k.V _ [ A V / / Z m q > 8 2 < 8 r 3 + o o X X X X X X X X o X o % 8 8 3 > 8 3 : x C A ( A V ) [ ! m k.k.k.k.k.",
"k.k.k.k.v ( } 1.,.A A ~ N q # < 8 2 # o X o X X X X X X X X X X X X X X X X o @ & 3 3 & = x A ~ Z ) 6.*.[ C k.k.k.k.k.",
"k.k.k.k.C _ } y. .! V m j # < 8 3 # + % $ X X X X X X X X X X X X X X . o # < : o > 8 3 & = c N C / 3.6.} ~ m k.k.k.k.",
"k.k.k.v ( ] =.4._ A C l @ < 8 3 < : 7 F 5 X X X X X X X X X X X X X X X + 5 D e @ + < 8 3 % - n C ! +.6.*.[ C k.k.k.k.",
"k.k.k.v ! _ 7. ./ Z n ; # 8 3 < u u D g @ X + + X X X X X X X X X X + + X @ e u y u : < 8 < * k V ~ / ,.4.[ V k.k.k.k.",
"k.%.b v A / 5. .! C x @ % 8 > 1 G G F y @ + + + + o X X X X X X X X @ @ + X > g Y Y t + 3 2 @ - m A ~ ,.4.[ V v C u.k.",
"k.t. .C C A ,. .A C x @ % < % 7 L H e : @ @ @ + + o X X X X X X X X @ @ + X @ y I Y g @ < > # - m C ~ 5.4.) m / %.p.k.",
"k.) 4.=.Z C 3. .~ C x : 8 < : d D 7 @ O + @ @ + + o X X X X X X X X + + + + O : e D D : % 8 2 - m A / 5.2.C / 6.+.^ k.",
"k.V ` 4.) V 3. .A C x : r 3 : 9 e : @ , @ + @ @ @ o X X X X X X X X @ @ + + : $ : : 5 4 # r 2 - m A ~ 7. .V >.O./ n k.",
"k.C _ ) / V %.' C C x @ 3 > @ : 5 : y y @ + @ @ + o X X X X X X X X + @ + O , : : $ , 7 @ 3 > - m C A >.~ Z _ ) ) n k.",
"k.n m V V B Z C V m x @ 8 2 $ % 1 : D H @ @ @ @ + o X X X X X X X X @ $ + @ u 5 t 1 4 t : r < - n n m C V V V C C n k.",
"k.v C / _ ] _ _ ` ) x @ 8 2 % : 1 y D F : X X @ + o X X X X X X X X @ + o @ 1 D F u s f : r > - m C A ~ _ ] ] ] _ k.k.",
"k.k.V ~ ~ A C C C C x @ 2 > , 4 O y d $ D @ . . O X X X X X X X X X .   , u O D e 1 s f % 2 > - n C C C C ! ~ ! m k.k.",
"k.k.n n n m n n n n x @ > > , 4 O @ < @ F y @ o . . X X X X X X X X . X 1 I 7 @ X X 4 t # < # - b n n m n n n n v k.k.",
"k.k.k.v N C C C n V x @ > > : t , % $ 1 I Y D 3 @ + . X X X X X X X % 7 D H y 5 e @ 6 f % < # - m N N C C A m k.k.k.k.",
"k.k.k.v C ! A C n V x @ < > $ H u u 1 7 I E I y t 3 @ X X X X X X + e p I H u Y W u 9 f % < % - m N N A ! ~ m k.k.k.k.",
"k.k.k.v A ) ~ A m V x @ > # $ d t Y I , F Y I D y y > . X X X X X @ y H I H y E Q F a f $ > % - m N C / ) O.C k.k.k.k.",
"k.k.k.v ! _ _ +.C A x # 3 > : 6 e E W H I U I J y 7 # X X X X X X # u I P I Y W Y D a f % 3 < - V C A ) ' w.A k.k.k.k.",
"k.k.k.v ( [ _ 7.A ! c : r 3 , 4 1 F Y E Y I D p y 1 o X X X X X X # y F I Y W E u 1 5 t : i 2 - C A A ) [ e.Z k.k.k.k.",
"k.k.k.v / } ' 7.Z C x @ 3 2 , 6 e y D U Y I y y y 1 o X X X X X X # e u I Y W I y : , 6 : r % - N V ! _ [ 0.A k.k.k.k.",
"k.k.k.v ~ } } 0.Z V x @ 8 2 y R H t 1 D Y U u y y 1 o X X X X X X % e D I Y W I y : , 6 1 r > - m N ~ } } &.C k.k.k.k.",
"k.k.k.v A [ } $.C V x @ 8 2 d E H t , D Y Y H u y t > X X X X X o 3 u I T W Q H y % , 5 : r > - m m ~ } } [ V k.k.k.k.",
"k.k.k.v A ] ] ] V V x @ > > y G I F u F Y E Y H y y > X X X X . o e D Y E W W F y d H e @ 2 # - m m ~ ] [ { V k.k.k.k.",
"k.k.k.v A ] ` ] V V x @ 3 > e d H F H H I I J J H y > X X X X . o y I I E I I D e y L t @ 3 > - m m ~ ] ] { V k.k.k.k.",
"k.k.k.v A [ ] ] V V x @ 8 2 , , u F D F e , % 1 u y > X X X X X o t u , 1 e D y 7 u L t % r < - m m ~ ' [ { V k.k.k.k.",
"k.k.k.v A [ ;._ m C x @ 3 < : , t H d H 1 o X @ > y > X X X X X o 1 X X @ , g Y D F L s % 3 > - m V A ] } { V k.k.k.k.",
"k.k.k.v A [ y. .m ! c @ 2 % % $ 5 D F I D X . + , y > X X X X X o 3 @   # H R Y D u F h % < > - C Z A ] } { V k.k.k.k.",
"k.k.k.v A [ y. .V ! x : r 3 @ @ 1 H H Y Y u 1 > 1 y > X X X X . o e t e H Q W Y F d F h : r 3 - C A A ] } { V k.k.k.k.",
"k.k.k.v A [ y. .V ! x @ 8 3 $ , e F P I Y I u 3 y 3 @ X X X X X X , y H Y E E I F y f h : r > - C A Z ] } { V k.k.k.k.",
"k.k.k.v A [ 2.` m Z x @ 3 < : 4 e y F H H H e t y > . X X X X X X + e y F H Y H d , s h : 8 > - B V Z ] } { V k.k.k.k.",
"k.k.k.v A ] _ A m V x @ 8 < : 4 : e t 1 D F u e < > . X X X X X X + t p F G u t 1 $ 9 a % 8 > - m m V ~ ] } V k.k.k.k.",
"k.k.k.v ~ { ~ A m C x @ 8 2 : 4 $ 1 1 : t 1 u 3 : e % X X X X X o 1 y D D y : , : , 6 7 : r < - m N C A _ { V k.k.k.k.",
"k.k.k.v A _ A Z m A x @ 8 2 $ : $ $ , 1 : + u t e y > X X X X X o e y D y : : : % : 4 9 : r > - V C V A / _ N k.k.k.k.",
"k.k.k.v C A C C n m x @ 3 > @ : % $ , 1 @ @ u u y y > X X X X . o e p D t @ e 5 , 1 6 t # 3 > - n n m C C ! m v k.k.k.",
"k.k.v n B V m m n Z m = 3 > @ : : $ , 1 : u u y t y > X X X X . o e D D e : u 5 , 4 9 t @ 2 > 0 A C m m m V m m n k.k.",
"k.k.v ~ &.&.&.$.) -.) = 2 > @ , $ $ $ , : e % e t y > X X X X . o e F D @ 5 5 $ , , a f % 2 & k &.&.&.&.&.&.&.] N k.k.",
"k.k.c ) y.y.i.y.w.y. .* > > : 4 $ @ + : O . + y y y > . X X X X o 1 u t X 5 1 O $ : t f % < # z 5.w.w.w.w.w.w.>.V k.k.",
"k.k.S V ! / _ ~ ! ! B @ & % % , $ % $ , $ X % H y e % X X X X X X @ e > X 7 5 $ , , 6 t @ > # 0 V Z ! ! ! ! A V v k.k.",
"k.| >.A A C Z A A A n @ > % @ $ @ $ @ : $ @ @ u p < X X X X X X X o e g X < , $ % $ , 9 @ < # 0 A A A A A A A A ^ k.k.",
"} 9.u.8.8.4.4.8.8.0.' : 8 3 $ , @ $ @ + @ @ X + 7 < . X X X X X X X : D O @ @ $ $ $ , 7 : r > z 6.8.8.8.8.8.8.9.a.<.} ",
"} o...,.,.6.0.0.0.0. .: 8 2 : , @ $ @ + @ + + X @ % X X X X X X X X @ 1 + + @ $ @ $ 6 s : r > z >.4.0.0.0.8.4.4. .} } ",
"6.( C ( _ { } ] ` ] A = 8 2 : , @ , 4 $ @ @ + X + o X X X X X X X X X O @ @ : , , $ a h : r > w ( _ [ ] ` ` _ ) C $.9.",
"i.) C ) _ ` ` _ / ! m = 8 2 : 9 $ 4 4 $ @ @ + X + o X X X X X X X X X + @ @ % 6 4 4 a f : r > q A ~ _ _ ) ) ) / C =.s.",
"i.) C ( / / / A A C n @ < > $ 6 5 4 % @ + + + X + o X X X X X X X X X + + + @ , 9 f K h % 3 % 0 C Z A ~ ( ( ( ~ V &.s.",
"i._ m V V V V m m m c @ > > , f t , $ @ @ @ , + + o X X X X X X X X X + + + $ , 6 s f t @ < # ; m m m V V V V V C :.s.",
"s.8.[ ] ] [ ] ] ] [ ~ @ > > , s t : O $ $ @ $ , + o X X X X X X X X + + O $ $ , 5 t t 5 @ < # k ] ] ] ] ] ] ] ] $.u.s.",
"t.u.i.i.i.i.i.i.i.i...* & % % 4 , $ + $ @ o @ % + o X X X X X X X X + + X + $ $ : , 6 5 @ > # z y.i.i.i.i.i.y.y.i.u.t.",
"A } &.&.&.&.&.$.} ' A @ # @ $ , , , 6 6 4 @ , o + X X X X . . . X X + + o @ 4 t 5 a t , @ # @ w _ ] $.&.&.&.] ' ' _ N ",
"V _ { } } } [ _ ) ( C @ # + @ : % $ @ $ @ X X X X . . . . . . . . . . . . . + @ @ : , : + @ + w / / _ ' } } } { _ ~ b ",
"V ( _ [ [ [ _ ) ~ A C - - - - - - - - - - - - - - - - - - - - - - - - - - - - - - - - - - - - j A A / ) ] _ ] ] _ ~ b ",
"V ) / ~ ~ ~ ~ ~ A Z B l n m C N m m m b n m m m V m m m m m m m m m m m m m n n m m m m m m v c C C A ~ ~ ~ ~ ~ ) ~ b ",
"m A C N N N N N N N m n A / ] ( ! ! A m C Z A ( _ ! ! ! ! ! ! A ! ! ! ! ! A m V A ! ! ! A Z V n N N N N N N N V C C v ",
"n m m C Z C C C C C C A / [ } [ ] ] ] C C ~ ] [ { ] ] ] ] ] ' ' ] ] ] ] _ / C A / ` ] ] ) ~ A C N C Z Z Z Z Z Z Z C v ",
"n A ~ _ ] ] ] ] ] ] ] ] [ } } } } } } ! ~ ] *.9.9.9.9.9.1.} 8.9.9.9.r.6.} _ ~ ~ ) [ } } ] ] ' ( ~ / ) ) ) ) ) ) ) ~ b ",
"m / O.e.i.i.i.y.;.*.y.i.i.y.i.i.y.1.{ ~ ] } 1.s.s.s.s.s.u.y.a.s.s.s.s.a.i.4./ ~ ' 6.i.y.i.i.y.w.,.[ [ [ [ [ [ ] _ ~ b ",
"V _ 4.s.s.s.s.g.f.u.d.g.s.s.s.s.s.u.*.~ [ *.i.a.a.a.s.s.s.s.s.s.s.h.j.j.g.a.@._ 6.a.s.s.d.g.s.d.f.f.f.p.i.i.i.;.} _ n ",
"Z [ 4.a.a.a.a.s.s.p.p.p.a.a.a.a.a.a.:._ [ } :.:.:.;.0.a.a.a.a.a.p.s.s.s.p.p.>.] *.:.;.1.u.s.f.p.s.s.s.p.p.p.a.i.i.>.m ",
"/ _ ` ' ' ' ' ' ' ' ' ' ' ' ' ' ' ' _ _ _ _ _ _ _ _ ` ' ' ' ' ' ' ' ' ' ' ' ` _ _ _ _ _ '  . .' ' ' ' ' ' ' '  . .` ~ "
};
