/* XPM */
static char *ZXpnaWYuY29tLWdpZi1tYWtlci0z_48[] = {
/* columns rows colors chars-per-pixel */
"59 75 128 2 ",
"   c #0F130D",
".  c #14110F",
"X  c #151210",
"o  c #181614",
"O  c #171915",
"+  c #1A1916",
"@  c #1D1D1A",
"#  c #221E1C",
"$  c #1E211C",
"%  c #24211E",
"&  c #28221F",
"*  c #1C1E21",
"=  c #1D2125",
"-  c #1D242B",
";  c #1F2933",
":  c #242422",
">  c #2B2522",
",  c #252A24",
"<  c #2D2A26",
"1  c #20282E",
"2  c #2B2C2A",
"3  c #312A27",
"4  c #342D2A",
"5  c #2D322B",
"6  c #33322D",
"7  c #38312E",
"8  c #32382F",
"9  c #222C34",
"0  c #22303D",
"q  c #333432",
"w  c #3D3532",
"e  c #353A33",
"r  c #3C3A35",
"t  c #3C3D3B",
"y  c #413B36",
"u  c #423C38",
"i  c #3A4236",
"p  c #3E403D",
"a  c #3E4A3C",
"s  c #243544",
"d  c #273B4C",
"f  c #283D4F",
"g  c #263C51",
"h  c #2C465D",
"j  c #2D4760",
"k  c #2E4B64",
"l  c #2F4E69",
"z  c #304F6A",
"x  c #2F506C",
"c  c #30516D",
"v  c #325573",
"b  c #335877",
"n  c #345B7B",
"m  c #444444",
"M  c #474847",
"N  c #484847",
"B  c #4C4C4C",
"V  c gray32",
"C  c #5A5B5A",
"Z  c #365F80",
"A  c #385F80",
"S  c #376285",
"D  c #3B6484",
"F  c #376489",
"G  c #38668B",
"H  c #37698F",
"J  c #39698E",
"K  c #3A6C93",
"L  c #3B6F98",
"P  c #3E7097",
"I  c #3D729C",
"U  c #3D76A2",
"Y  c #3E79A6",
"T  c #3E7AA8",
"R  c #406B8D",
"E  c #416F91",
"W  c #417092",
"Q  c #437296",
"!  c #447397",
"~  c #41749B",
"^  c #44769B",
"/  c #43769D",
"(  c #41759E",
")  c #45799F",
"_  c #4378A0",
"`  c #447BA4",
"'  c #447BA4",
"]  c #487DA4",
"[  c #417FAD",
"{  c #427FAE",
"}  c #427DAA",
"|  c #487FA9",
" . c #4380AE",
".. c #4481AF",
"X. c #4880A9",
"o. c #4C83AA",
"O. c #4B85AF",
"+. c #4A82AB",
"@. c #4583B1",
"#. c #4683B0",
"$. c #4785B3",
"%. c #4886B3",
"&. c #4C86B1",
"*. c #4D89B3",
"=. c #4B88B4",
"-. c #4C88B5",
";. c #4A8AB8",
":. c #4E8BB8",
">. c #4B8CBA",
",. c #4D8CBA",
"<. c #508CB7",
"1. c #508DB9",
"2. c #4F90BE",
"3. c #5392BF",
"4. c #5291BE",
"5. c #5495C2",
"6. c #5394C2",
"7. c #5798C6",
"8. c #599AC6",
"9. c #5B9DCB",
"0. c #5DA0CE",
"q. c #61A1CA",
"w. c #64A6D0",
"e. c #68A9D2",
"r. c None",
"t. c black",
"y. c black",
"u. c black",
/* pixels */
"r.r.r.r.r.r.r.r.r.r.r.r.r.r.r.r.r.r.r.r.r.r.r.r.r.r.r.r.r.r.r.r.r.r.r.r.r.r.r.r.r.r.r.r.r.r.r.r.r.r.r.r.r.r.r.r.r.r.r.",
"r.r.r.r.r.r.r.r.r.r.r.r.r.r.r.r.r.r.r.r.r.r.r.r.r.r.j j j j j j r.r.r.r.r.r.r.r.r.r.r.r.r.r.r.r.r.r.r.r.r.r.r.r.r.r.r.",
"r.r.r.r.r.r.r.r.r.r.r.r.r.r.r.r.r.r.r.r.r.r.r.h j k n L n n L L v k j h r.r.r.r.r.r.r.r.r.r.r.r.r.r.r.r.r.r.r.r.r.r.r.",
"r.r.r.r.r.r.r.r.r.r.r.r.r.r.r.r.r.r.r.r.r.l l l v L I T F F { T I L c k l l r.r.r.r.r.r.r.r.r.r.r.r.r.r.r.r.r.r.r.r.r.",
"r.r.r.r.r.r.r.r.r.r.r.r.r.r.r.r.r.r.r.h l K I I U T  . .F Q >. . .T U I I K l h r.r.r.r.r.r.r.r.r.r.r.r.r.r.r.r.r.r.r.",
"r.r.r.r.r.r.r.r.r.r.r.r.r.r.r.r.r.r.h l K T  .@.@.&.1.5.! E 3.1.1.#.@.@. .Y H l h r.r.r.r.r.r.r.r.r.r.r.r.r.r.r.r.r.r.",
"r.r.r.r.r.r.r.r.r.r.r.r.r.r.r.r.h l l F  .#.:.1.1.O.K ` E v J K K &.1.1.:.#. .F c c h r.r.r.r.r.r.r.r.r.r.r.r.r.r.r.r.",
"r.r.r.r.r.r.r.r.r.r.r.r.r.r.h l v G n K :.-.P K K J F F n l v F F J K K P -.-.J E ^ v k h r.r.r.r.r.r.r.r.r.r.r.r.r.r.",
"r.r.r.r.r.r.r.r.r.r.r.r.h c n F Y ..( Q K J J G F Z b v n v c v v Z F G J J K ! o.;.Y F n l r.r.r.r.r.r.r.r.r.r.r.r.r.",
"r.r.r.r.r.r.r.r.r.r.r.h k F Y T ..=.O.F v Z S Z b v v v v z c b v v b Z S n v J O.=. .T Y F j h r.r.r.r.r.r.r.r.r.r.r.",
"r.r.r.r.r.r.r.r.r.r.h k F Y  .,.-.( G F v l v v v v v l l j k l v v v v v l v F G ( -.,.{ Y F j h r.r.r.r.r.r.r.r.r.r.",
"r.r.r.r.r.r.r.r.r.h k F Y  .-.| ( F n b v c l v l l k d ; ; 9 f k l l v z c v b n F ( X.-.{ Y F j h r.r.r.r.r.r.r.r.r.",
"r.r.r.r.r.r.r.r.r.l F Y { -.( G F b v z k k h h 9 - - = @ @ @ = - - 9 h h k k c v b F J _ -.{ Y F j r.r.r.r.r.r.r.r.r.",
"r.r.r.r.r.r.r.r.k F Y { -.( F n b v l 0 - - - = # # # # > 3 > # # # # = - - - s z v b n F _ -.{ Y F j r.r.r.r.r.r.r.r.",
"r.r.r.r.r.r.r.j z L  .-.( G F v v k 0 # > % > % < 3 4 3 4 4 4 3 4 3 < % > % > # s l v b F G ( -.{ L l h r.r.r.r.r.r.r.",
"r.r.r.r.r.r.h h W #.-.~ F b b x s = : > 4 4 w 4 > 7 w w w w w w w 4 > 4 w 4 4 > : = s c b n F ( =...R h h r.r.r.r.r.r.",
"r.r.r.r.r.r.l l c ) ~ Z F b z s : > 3 4 7 7 w 7 > 3 + o O O O + + 3 > 7 w 7 7 4 3 > : s c b F S K G c l l r.r.r.r.r.r.",
"r.r.r.r.r.c G U D c F F b z s : 7 4 > 4 7 7 # o o o X X X X X X X o o o # 7 7 4 < 4 4 : s c b F S c D U F l r.r.r.r.r.",
"r.r.r.r.h Z Y  .&.A n F v s @ > 4 4 # o o o X X X X X X X X X X X X X X X o o + % 4 4 > @ s v F b D &. .Y n r.r.r.r.r.",
"r.r.r.r.v F Y ,._ F c z d @ > 4 7 % X X X X X X X X X X X X X X X X X X X X X X X % 7 4 > = f z c F ] ,.T F x r.r.r.r.",
"r.r.r.h n I ` =.~ b v h * > 4 7 % X X X X X X X X X X X X X X X X X X X X X X X X X : 7 4 > = h v n ( -.@.Y n r.r.r.r.",
"r.r.r.h n L O.] G b l 0 @ 4 7 % . X X X X X X X X X X X X X X X X X X X X X X X X X X > 7 4 @ s l n F _ :.Y n r.r.r.r.",
"r.o.j h v F X.] F b h * # 4 3 o o X X X X X X X X X X X X X X X X X X X X X X X X X X X 3 4 # * h n Z ' :.Y n h c 4.r.",
"0.5./ n x b ] ] n v h * # > > O O X X X X X X X X X X X X X X X X X X X X X X X X X @ o > > # = h v n X.>.L c n _ 5.r.",
"D J X.O.n c ] ] F b h = 4 4 < 6 O O X X X X X X X X X X X X X X X X X X X X X X o o O q 2 4 4 = h b F X.;.Z S &.] D r.",
"h l J X.~ z ] ] Z v h = 7 7 + : $ @ X X X X X X X X X X X X X X X X X X X X X X o O O , 2 w 4 = h b S X.] c ( | J l r.",
"h v K J J v Q _ b v h = 3 3 o , : $ O X X X X X X X X X X X X X X X X X X X X o O $ q 2 5 7 < = h v b _ E v J J K z r.",
"r.j l c c c v v c x h = 4 4 o , : $ O X X X X X X X X X X X X X X X X X X X X o @ , t q 8 r 3 = h k l v c x v v v k r.",
"r.h z F K I L L L K j = 4 4 o @ @ $ O X X X X X X X X X X X X X X X X X X X X o @ @ r e 8 r 3 = h v b S J I I I L r.r.",
"r.h l Z F n v v v v h = < > o , 2 @ O X X X X X X X X X X X X X X X X X X X X X o O p q 5 7 > = h v v v v n F F c r.r.",
"r.r.j j j l k k j j h * % > o q m O . X X X X X X X X X X X X X X X X X X X X . o r B 5 5 6 # = h j j k k l j j j r.r.",
"r.r.r.h l v v v l c h * % > o , N , O X X X X X X X X X X X X X X X X X X X X o , M B , 5 6 # = h c l v v b z r.r.r.r.",
"r.r.r.h c Z b v l c h = > > @ t M 4 , O X X X X X X X X X X X X X X X X X X X # q N V , 5 6 > = h c l b Z F v r.r.r.r.",
"r.r.r.h v J F Z z c h = > % % V B 2 , @ o X X X X X X X X X X X X X X X X X o : q d V 2 2 < & = h c c F J ( n r.r.r.r.",
"r.r.r.h n L J _ n v h = 3 < % C V 2 , @ o X X X X X X X X X X X X X X X X X o # q e N 2 5 7 3 = j v v G L -.D r.r.r.r.",
"r.r.r.h n U L &.D n j = 7 7 : C V 6 , @ o X X X X X X X X X X X X X X X X X o @ 6 e m 5 8 u 4 = k n v G I ,.D r.r.r.r.",
"r.r.r.h n T I &.D v h = < 4 : V B q < @ o X X X X X X X X X X X X X X X X X o @ 5 e t q 5 r > = j v n L I ,.D r.r.r.r.",
"r.r.r.h n Y Y -.D c h = 3 4 : M r q < @ o X X X X X X X X X X X X X X X X o + : 4 m N q 2 r < = h c n Y Y { n r.r.r.r.",
"r.r.r.h v I Y [ b c h = 4 4 : p q q < @ o X X X X X X X X X X X X X X X X o @ , 2 M B M e w 3 = h c n Y Y Y n r.r.r.r.",
"r.r.r.h v I I I b c h = > > 2 B e 2 , @ o X X X X X X X X X X X X X X X X o @ : , e p C r 4 % = h c n I I Y n r.r.r.r.",
"r.r.r.h v I P I n c h = 3 > < B q , < @ o X X X X X X X X X X X X X X X X o o @ , q 2 B r 4 < = h c n I I Y n r.r.r.r.",
"r.r.r.h v I I I v c h = 4 4 < B 2 , , @ o X X X X X X X X X X X X X X X X X o o @ , , N p r 3 = h c n I I Y n r.r.r.r.",
"r.r.r.h v I { I c v h = < 3 < B , O + X X X X X X X X X X X X X X X X X X X o X . X , m p 7 > = j v v I T Y n r.r.r.r.",
"r.r.r.h v P ,.] v n j = < > : N ,   . X X X X X X X X X X X X X X X X X X X X X @ $ , 5 e 4 < = k n v I T Y n r.r.r.r.",
"r.r.r.h v I ,.] c n j = w 7 # r 2 @ o X X X X X X X X X X X X X X X X X X X o @ 6 t q 5 e u 7 = k n v I T Y n r.r.r.r.",
"r.r.r.h v I ,.] c n j = 4 7 # e e , O X X X X X X X X X X X X X X X X X X X o @ 2 M N q e y 3 = k n v I T Y n r.r.r.r.",
"r.r.r.h v I @.I c v h = 4 3 : V m , # o X X X X X X X X X X X X X X X X X o o @ q M B r e w 3 = j v v I T Y n r.r.r.r.",
"r.r.r.h v I L Z l c h = 4 4 : B N , @ o X X X X X X X X X X X X X X X X X X o @ 2 M e 2 e w 3 = h c l S L Y n r.r.r.r.",
"r.r.r.h n U G n c c h = 4 7 @ t N , O o X X X X X X X X X X X X X X X X X X o o < 2 % , e y 3 = h c c n J Y n r.r.r.r.",
"r.r.r.h v L S b l n h = 4 7 O 8 m , O o X X X X X X X X X X X X X X X X X X o @ , @ $ , 8 y 3 = j v l b F K v r.r.r.r.",
"r.r.h h c Z v v k k h = 3 < @ q t 2 # o X X X X X X X X X X X X X X X X X X o # , : % 2 e 7 < = h l l v v Z c h r.r.r.",
"r.r.h j l c l l k v c - 3 > @ 2 2 2 % o X X X X X X X X X X X X X X X X X X o # , t r 5 e 7 < - v v l l l c l l j r.r.",
"r.r.h b ` [ [ ` K _ I 9 < > O , $ @ # o X X X X X X X X X X X X X X X X X X o @ @ e e : 8 7 > 9 U [ [ [ [ [ } _ v r.r.",
"r.r.h D 1.3.6.3.1.1.X.9 % > O : $ O @ o X X X X X X X X X X X X X X X X X X o O @ $ @ : 8 6 # 9 X.<.1.1.1.1.1.&.b r.r.",
"r.r.D z n F K F Z Z v - # & O , $ @ : X X X X X X X X X X X X X X X X X X X o O @ : : 2 8 < # = z v Z Z Z Z n v j r.r.",
"r.R O.n n v v n n n v - > > O : $ @ : X X X X X X X X X X X X X X X X X X X o o + , , : 8 4 & - v n n n n n n n D r.r.",
"T >.7.:.;.&.&.;.;.;.] 9 4 7 O % $ @ @ X X X X X X X X X X X X X X X X X X X X o o $ : $ 8 u 3 9 ..;.;.;.;.;.;.>.7.$.T ",
"T Y ^ +.+.&.,.,.,.,.X.9 4 7 O $ $ $ O X X X X X X X X X X X X X X X X X X X X X o @ @ $ 8 u 3 9 _ &.:.,.,.:.&.&.) Y T ",
";.L c F K U T I L L F 1 4 7 O $ : $ O X X X X X X X X X X X X X X X X X X X X o o $ 5 , 8 y 3 - S K I U L L K K v I ,.",
"5.P v G K L L K G S v 1 4 7 @ , : $ O X X X X X X X X X X X X X X X X X X X X o o @ e , 5 y 3 - v S K K J J J F v I 7.",
"5.P c F F F F S b b l = > < % 5 $ $ O X X X X X X X X X X X X X X X X X X X X o o @ 5 a i 7 > - c b b S G G G F c I 7.",
"5.I l c c c c l l l j = % > % 5 $ $ O X X X X X X X X X X X X X X X X X X X X o o @ , e e 4 # = j l l l v v c c l _ 7.",
"9.3._ I I I I I I U K - % > # 5 $ + O X X X X X X X X X X X X X X X X X X X X o O @ @ 5 5 3 # ; L U I I I U I I _ 6.9.",
"3.5.6.6.6.6.6.6.6.6.O.9 # > O @ O o o X X X X X X X X X X X X X X X X X X X X o o o O : 5 < # 9 *.6.6.6.6.6.3.3.3.5.3.",
"v U [ [ [ [ [ } Y P F - # # @ : o X X X X X X . X X X X X X . . X X X . . X X X X o @ O : % # - F P Y } [ [ I P K P v ",
"l J U T T T Y L J F Z - @ + o o X X . . . . . . . . . . . . . . . . . . . . . . . X X X o @ + - S F J L Y Y Y Y L F k ",
"l F L I I I L J F n n ; - - - - - - - - - - - - - - - - - - - - - - - - - - - - - - - - - - - ; n n F J L L I I K F k ",
"l F G F F F F F b v v g j l c c l l l j j l l l c l l l l l l l l l l l l l j j l l l l l l j g v v n F F F F F G F k ",
"j v v z z z z z z z l j v F I K Z Z n l c b n F K S Z Z Z Z Z Z Z Z Z Z Z n c l b Z Z Z Z b v j l z z z z z z z v v j ",
"j l z c v v v v v v v n F I T Y I I P n v Z L I Y I I I I I P P I I I I L G b v F L I P K F Z v z c v b b b b b v v j ",
"j b F J I I I I I I I I U T T T T T T F Z L [ ,.,.,.,.2.$.T %.,.,.,.,.,.T P F Z J I T T U I I J F F J J J J J J J F k ",
"l S P ,.6.6.6.3.@.[ ,.6.6.3.6.6.6.%.T F K Y  .7.9.9.9.9.7.3.7.9.9.9.9.9.6.=.K Z L &.6.3.6.6.3.1.&.U U U U I I I K F k ",
"l J ..9.9.9.9.w.q.5.9.w.0.9.9.9.9.7.#.F I [ ,.9.9.9.9.9.9.9.9.9.9.w.e.e.w.9.+.K @.7.9.9.9.w.0.0.w.q.q.8.6.6.6.@.Y P l ",
"c I ..5.7.7.7.8.9.8.8.8.8.7.7.7.7.7.&.K I Y { .... .=.7.7.7.7.7.7.8.9.9.9.8.*.P [ ......6.9.q.8.9.9.9.9.8.8.8.6.3.*.v ",
"F K L P P P P P P P P P P P P P P P K K K K K K K K L P P P P P P P P P P P K K K K K K P P ~ ~ P P P P P P P ~ ~ P F "
};
