/* XPM */
static char *ZXpnaWYuY29tLWdpZi1tYWtlci0z_38[] = {
/* columns rows colors chars-per-pixel */
"59 75 256 2 ",
"   c #0F120D",
".  c #15110F",
"X  c #151210",
"o  c #191614",
"O  c #161915",
"+  c #1A1916",
"@  c #1C1C1A",
"#  c #211E1C",
"$  c #1E211D",
"%  c #24211E",
"&  c #28221F",
"*  c #1D1F22",
"=  c #1D2024",
"-  c #1D242B",
";  c #1D2731",
":  c #1F2A34",
">  c #242422",
",  c #2A2522",
"<  c #252A24",
"1  c #2D2926",
"2  c #212528",
"3  c #2C2C2B",
"4  c #302A26",
"5  c #342D29",
"6  c #2D322C",
"7  c #32332D",
"8  c #39322E",
"9  c #313B2F",
"0  c #202B35",
"q  c #212E39",
"w  c #23313D",
"e  c #343533",
"r  c #3C3531",
"t  c #353B34",
"y  c #3C3D3C",
"u  c #403734",
"i  c #403835",
"p  c #3D423C",
"a  c #3E4A3C",
"s  c #41403F",
"d  c #233443",
"f  c #253847",
"g  c #263A4C",
"h  c #283D4F",
"j  c #273C51",
"k  c #283E51",
"l  c #294154",
"z  c #2C465E",
"x  c #2F495C",
"c  c #2D4760",
"v  c #2E4B64",
"b  c #2F4E6A",
"n  c #304D66",
"m  c #304F6A",
"M  c #2F506B",
"N  c #30516E",
"B  c #325573",
"V  c #335877",
"C  c #345B7B",
"Z  c #385E7B",
"A  c #444543",
"S  c #474846",
"D  c #484B47",
"F  c #4B4C4B",
"G  c #535453",
"H  c #5A5A5A",
"J  c #5F615F",
"K  c gray39",
"L  c DimGray",
"P  c #365F80",
"I  c #366184",
"U  c #3A6384",
"Y  c #37658A",
"T  c #38668B",
"R  c #39698E",
"E  c #3B6C93",
"W  c #3B6F98",
"Q  c #3E7096",
"!  c #3D729C",
"~  c #3D75A1",
"^  c #3E79A5",
"/  c #3E7BA9",
"(  c #406D8E",
")  c #426F91",
"_  c #417094",
"`  c #42749B",
"'  c #46789D",
"]  c #4277A0",
"[  c #477CA2",
"{  c #477EA7",
"}  c #447AA4",
"|  c #4A7FA6",
" . c #407CA9",
".. c #417EAC",
"X. c #417DAA",
"o. c #4B80A7",
"O. c #4680AB",
"+. c #4381AF",
"@. c #4480AE",
"#. c #4980AA",
"$. c #4A83AD",
"%. c #4A84AF",
"&. c #4682B0",
"*. c #4684B2",
"=. c #4786B4",
"-. c #4B86B1",
";. c #4C87B2",
":. c #4887B4",
">. c #4A89B6",
",. c #4F8CB7",
"<. c #4D8AB5",
"1. c #4A89B8",
"2. c #4D8CB9",
"3. c #4D8DBB",
"4. c #518DB7",
"5. c #508DB9",
"6. c #518FBC",
"7. c #4F90BE",
"8. c #5291BE",
"9. c #5190BC",
"0. c #5595C2",
"q. c #5394C1",
"w. c #5798C6",
"e. c #599AC6",
"r. c #5B9DCB",
"t. c #609FC9",
"y. c #5DA0CD",
"u. c #62A3CD",
"i. c #64A5D0",
"p. c #67A8D2",
"a. c #68A9D2",
"s. c None",
"d. c black",
"f. c black",
"g. c black",
"h. c black",
"j. c black",
"k. c black",
"l. c black",
"z. c black",
"x. c black",
"c. c black",
"v. c black",
"b. c black",
"n. c black",
"m. c black",
"M. c black",
"N. c black",
"B. c black",
"V. c black",
"C. c black",
"Z. c black",
"A. c black",
"S. c black",
"D. c black",
"F. c black",
"G. c black",
"H. c black",
"J. c black",
"K. c black",
"L. c black",
"P. c black",
"I. c black",
"U. c black",
"Y. c black",
"T. c black",
"R. c black",
"E. c black",
"W. c black",
"Q. c black",
"!. c black",
"~. c black",
"^. c black",
"/. c black",
"(. c black",
"). c black",
"_. c black",
"`. c black",
"'. c black",
"]. c black",
"[. c black",
"{. c black",
"}. c black",
"|. c black",
" X c black",
".X c black",
"XX c black",
"oX c black",
"OX c black",
"+X c black",
"@X c black",
"#X c black",
"$X c black",
"%X c black",
"&X c black",
"*X c black",
"=X c black",
"-X c black",
";X c black",
":X c black",
">X c black",
",X c black",
"<X c black",
"1X c black",
"2X c black",
"3X c black",
"4X c black",
"5X c black",
"6X c black",
"7X c black",
"8X c black",
"9X c black",
"0X c black",
"qX c black",
"wX c black",
"eX c black",
"rX c black",
"tX c black",
"yX c black",
"uX c black",
"iX c black",
"pX c black",
"aX c black",
"sX c black",
"dX c black",
"fX c black",
"gX c black",
"hX c black",
"jX c black",
"kX c black",
"lX c black",
"zX c black",
"xX c black",
"cX c black",
"vX c black",
"bX c black",
"nX c black",
"mX c black",
"MX c black",
"NX c black",
"BX c black",
"VX c black",
"CX c black",
"ZX c black",
"AX c black",
"SX c black",
"DX c black",
"FX c black",
"GX c black",
"HX c black",
"JX c black",
"KX c black",
"LX c black",
"PX c black",
"IX c black",
"UX c black",
/* pixels */
"s.s.s.s.s.s.s.s.s.s.s.s.s.s.s.s.s.s.s.s.s.s.s.s.s.s.s.s.s.s.s.s.s.s.s.s.s.s.s.s.s.s.s.s.s.s.s.s.s.s.s.s.s.s.s.s.s.s.s.",
"s.s.s.s.s.s.s.s.s.s.s.s.s.s.s.s.s.s.s.s.s.s.s.s.s.s.v v v v v v s.s.s.s.s.s.s.s.s.s.s.s.s.s.s.s.s.s.s.s.s.s.s.s.s.s.s.",
"s.s.s.s.s.s.s.s.s.s.s.s.s.s.s.s.s.s.s.s.s.s.s.z v v I E B Y E E b v z z s.s.s.s.s.s.s.s.s.s.s.s.s.s.s.s.s.s.s.s.s.s.s.",
"s.s.s.s.s.s.s.s.s.s.s.s.s.s.s.s.s.s.s.s.s.b b v C ! ~ / B ! / / ! T v v b v s.s.s.s.s.s.s.s.s.s.s.s.s.s.s.s.s.s.s.s.s.",
"s.s.s.s.s.s.s.s.s.s.s.s.s.s.s.s.s.s.s.z B ! ! ! ~ ..+...C #.=.+.../ ! ! ! I v z s.s.s.s.s.s.s.s.s.s.s.s.s.s.s.s.s.s.s.",
"s.s.s.s.s.s.s.s.s.s.s.s.s.s.s.s.s.s.c B ! / &.&.&.>.8.0.U | 8.6.3.&.&.&...^ P v z s.s.s.s.s.s.s.s.s.s.s.s.s.s.s.s.s.s.",
"s.s.s.s.s.s.s.s.s.s.s.s.s.s.s.s.z b b ! &.:.5.5.5.{ E #.Z C E E ` ,.5.5.>.*. .B B v z s.s.s.s.s.s.s.s.s.s.s.s.s.s.s.s.",
"s.s.s.s.s.s.s.s.s.s.s.s.s.s.z N C E B { 3.$.E E E Y I U B v C I Y E E E } <.>.C | Y B c z s.s.s.s.s.s.s.s.s.s.s.s.s.s.",
"s.s.s.s.s.s.s.s.s.s.s.s.z B C E / &._ ` E R R Y I C B B C m B B C I Y R R R ` ) 4.&.~ C B v s.s.s.s.s.s.s.s.s.s.s.s.s.",
"s.s.s.s.s.s.s.s.s.s.s.z b E / / *.;.#.C C I I C B B B B B v B B B B C I I C B ` ;.>. ./ ~ C z s.s.s.s.s.s.s.s.s.s.s.s.",
"s.s.s.s.s.s.s.s.s.s.z b E / *.3.%.W T P N N B B B B N b b v v N B B B B N b V Y R { 3.1./ ~ C z s.s.s.s.s.s.s.s.s.s.s.",
"s.s.s.s.s.s.s.s.s.z b E / *.-.{ W I C V B m N B v v v d : : q z v v N N b B B C P T } $.>./ ! C z s.s.s.s.s.s.s.s.s.s.",
"s.s.s.s.s.s.s.s.s.b E / *.-.W T I V B v v v c k - - ; = @ @ @ - - - w v c v v N B C Y E { >./ ! C z s.s.s.s.s.s.s.s.s.",
"s.s.s.s.s.s.s.s.b E / *.-.W I C V B c 0 - - - = # # # # , 1 % # # # @ - - - - h B V C C R { >./ ! C z s.s.s.s.s.s.s.s.",
"s.s.s.s.s.s.s.v B ~ *.-.W T C B N z - # , % , % 4 4 5 5 5 5 5 5 5 4 , % , & % = h N B C Y R { >./ I v z s.s.s.s.s.s.s.",
"s.s.s.s.s.s.z n [ *.;.W I C V v 0 = % 4 5 5 r 1 1 8 r r r r r r r 5 , 8 8 5 5 & = - l B C C R { :.O.Z z s.s.s.s.s.s.s.",
"s.s.s.s.s.s.b b C #.E P P B v 0 > , 4 8 8 8 r 5 1 , o + + + + o # 5 , r r 8 8 5 1 , 2 l B C I U ! P m b v s.s.s.s.s.s.",
"s.s.s.s.s.B E ! C B T I B v 0 , 8 1 4 8 r 5 o o o X X X X X X X X o X o , 8 8 5 , 8 4 2 l B C R C N E ~ C v s.s.s.s.s.",
"s.s.s.s.c E / *.#.V P I v 0 # 4 8 1 # o o X X X X X X X X X X X X X X X X o o + , 8 5 % = l C I B _ :. .~ N s.s.s.s.s.",
"s.s.s.s.B E  .8.Q C m v w # 1 8 5 + X X X X X X X X X X X X X X X X X X X X X X X 1 8 5 % - z m B Y <.=.^ P v s.s.s.s.",
"s.s.s.z T W @.-.R V B f @ 1 8 5 # X X X X X X X X X X X X X X X X X X X X X X X X X 1 8 5 % - b B I { >...! M s.s.s.s.",
"s.s.s.z I W 5.! Y B z ; # 8 5 # @ o X X X X X X X X X X X X X X X X X X X X X X X @ + 1 8 , * h B I Y <.*.! M s.s.s.s.",
"s.' z z C Y ,.! P B g + % 8 % @ % + X X X X X X X X X X X X X X X X X X X X X X + > @ + 8 1 + : m C I <.*.~ b z C e.s.",
"r.4.W B B C <.Q V B g @ % 1 # @ % + X X X X X X X X X X X X X X X X X X X X X X o > s # 1 , @ : m B I ,.&.Y b Y #.r.s.",
"U E -.} B B <.! I B g > r 1 3 3 $ @ o X X X X X X X X X X X X X X X X X X X X X + + e t , 8 1 0 m C T ,.@.B E <.` U s.",
"z B ! -.U B <.! C B g > r 1 @ % > % + X X X X X X X X X X X X X X X X X X X X + % O + 3 3 r 1 : m C Y ,.E N $.] I z s.",
"z C E E U N o.E B N g # 5 , + A e $ @ o X X X X X X X X X X X X X X X X X X X + > + O < 6 8 , : b B I %.Z C E R Y v s.",
"z v b N N M V B N b g # 8 1 + G t @ $ o X X X X X X X X X X X X X X X X X X X + 6 e > < e r , 0 v v b B N N N B N v s.",
"s.z B Y E W E E W T g # 8 1 + S t $ $ o X X X X X X X X X X X X X X X X X X X @ 3 < p 6 7 r , : b B C I E ! ! ! E s.s.",
"s.z B I I C B B B B g # 5 % + A F > + X X X X X X X X X X X X X X X X X X X . > % < y 6 7 5 % : v B B B B I I C b s.s.",
"s.s.v v v v v v v v g + , % + 6 A < . X X X X X X X X X X X X X X X X X X X X X + y % < 7 4 @ 0 v v v v v v v v z s.s.",
"s.s.s.z N B B B v N g + , % X O p y $ + X X X X X X X X X X X X X X X X X X o , y A @ > 7 4 @ : m b N B B C v s.s.s.s.",
"s.s.s.z B P V B v N g @ 1 % X % S y 3 # o X X X X X X X X X X X X X X X X o o A H G 6 < 6 5 # : m b N C P I v s.s.s.s.",
"s.s.s.z C R I C v N g @ , # X A G y 3 > @ o X X X X X X X X X X X X X X X o # D G H D < 6 , % : m b B Y E ` N s.s.s.s.",
"s.s.s.z I E E } B C g % 5 % o J L y 3 > > o X X X X X X X X X X X X X X X o < A G H D 3 7 8 , : B N C R ! 4.B s.s.s.s.",
"s.s.s.z T ~ W <.B P g > u 1 + G K F e > > o X X X X X X X X X X X X X X X o < e G G 6 < e i 1 : B B C E / 5.B s.s.s.s.",
"s.s.s.z R / ! <.B B g @ 5 1 + A H H e > > o X X X X X X X X X X X X X X o @ 1 e G F $ > 7 r # : N N I E / 3.B s.s.s.s.",
"s.s.s.z T / / <.B N g @ 8 1 % 3 D H e < > o X X X X X X X X X X X X X X o # 3 e G F $ > 6 r % : m b T / / } N s.s.s.s.",
"s.s.s.z P ~ / } N N g # 8 1 > , A G e < > o X X X X X X X X X X X X X X o > e e F D + % 3 r , : m b T / / ~ b s.s.s.s.",
"s.s.s.z C ~ ! ! m N g @ 1 % A G F A e 3 , o X X X X X X X X X X X X X X o > e e y A 6 G 6 5 # : m b Y ! ~ ~ b s.s.s.s.",
"s.s.s.z C ~ E ! b N g # 5 % y G y t e 3 > o X X X X X X X X X X X X X X o > 5 e e y 6 F 6 5 , : m b T W ~ ~ b s.s.s.s.",
"s.s.s.z C ~ ! W b N g # r 1 e F y 6 < > # o X X X X X X X X X X X X X X o @ 1 3 5 3 e D 7 r , : m b Y ! ~ ~ b s.s.s.s.",
"s.s.s.z C ~ @.R b B g @ 5 , 3 S y @   + X X X X X X X X X X X X X X X X X X + # > e G S e 8 % : N N C ~ / ~ b s.s.s.s.",
"s.s.s.z C / 8.E N P g # 4 # $ y y > + X o X X X X X X X X X X X X X X X X o + > < e D t 7 4 > : B B C ~ / ~ M s.s.s.s.",
"s.s.s.z C / 8.E N P g > i 1 @ p A e 1 @ o X X X X X X X X X X X X X X X o o > e t A F t e i 4 : B B C ~ / ~ M s.s.s.s.",
"s.s.s.z C / q.E N P g # r 1 @ p G y 7 @ o o X X X X X X X X X X X X X X o @ < e A G t t t i , : B B C ~ / ~ M s.s.s.s.",
"s.s.s.z C ~ *.R b V g # 8 , $ A G y e , + o X X X X X X X X X X X X X X o # 3 e G D $ 6 e 8 , : B N C ~ / ~ M s.s.s.s.",
"s.s.s.z C ~ R C v N g # 8 , @ 3 A y e 3 @ o X X X X X X X X X X X X X X o @ > e D S $ 6 7 r , : m b B I ~ ~ M s.s.s.s.",
"s.s.s.z Y ~ P C v B g # r 1 @ < p A e 1 + X X X X X X X X X X X X X X X o + > e A 3 < 6 e i , : m b B C ! ~ b s.s.s.s.",
"s.s.s.z P E C V b C g # 8 1 @ < > 6 3 1 + X X X X X X X X X X X X X X X X + > y D $ $ 3 7 r , : B N N C T R b s.s.s.s.",
"s.s.z z C C B N v v g # 5 % $ > O e e 1 @ X X X X X X X X X X X X X X X X o 3 S F > < 6 7 8 , 0 v v m B V P v z s.s.s.",
"s.s.z v M M b b v C z % 5 % @ > O t e 1 @ X X X X X X X X X X X X X X X X + 3 A S 6 3 6 7 5 , w C N b b b N b v v s.s.",
"s.s.z Y  . . .} R  .I # 5 % + $ + % < 1 + X X X X X X X X X X X X X X X X @ > y > < < 6 7 5 & l .. . . . . . .! v s.s.",
"s.s.z _ 8.q.q.6.5.8.( @ , % + $ $ O > > X X X X X X X X X X X X X X X X X @ > < O < < 6 7 4 + z <.5.5.5.5.5.5.| v s.s.",
"s.( C B P T E I P I v + , # + $ $ O % @ X X X X X X X X X X X X X X X X X @ > < + < < 6 6 , @ w B C P P P P C N z s.s.",
"s.' } C C B V C C C z @ 1 # + $ $ O % + X X X X X X X X X X X X X X X X . o @ > + < % < 6 4 # d C C C C C C C C T s.s.",
"/ q.q.1.1.$.>.1.1.3.R % r 1 + $ $ + + X X X X X X X X X X X X X X X X X X X X @ + % $ < t r & z 1.1.1.1.1.1.1.3.w.../ ",
"/ ` } $.$.>.3.3.3.3.R % r 1 @ $ $ $ + X X X X X X X X X X X X X X X X X X X X + $ $ $ < t r , l $.>.3.3.3.2.-.-.` / / ",
":.I B R E / / ! W ! B # 8 1 > > $ $ $ X X X X X X X X X X X X X X X X X X X X @ < $ + 3 t r , f R E ~ ! W E E Y B  .3.",
"7.I B R E W W E Y P v # 8 1 + > > $ $ X X X X X X X X X X X X X X X X X X X X @ > < 9 3 e r , d C I E E R R R I B &.r.",
"3.I B T Y Y Y C C B z @ 4 & $ < > $ $ X X X X X X X X X X X X X X X X X X X X @ $ < a s 7 5 # w B V C I T T T I B &.r.",
"7.Y b N N N N b b b k + , # 3 6 % $ $ X X X X X X X X X X X X X X X X X X X X @ $ < t p 6 1 @ q b b b N N N N b B -.r.",
"r.>.! ! ! ! ! ! ! ~ C @ , % < 6 $ + + X X X X X X X X X X X X X X X X X X X X @ @ < t t 3 1 + h ~ ! ! ! ! ! ! ! X.w.r.",
"q.0.q.q.q.q.q.q.q.q.) @ , # $ > + o + X X X X X X X X X X X X X X X X X X X X + + $ < 6 3 1 + x 8.q.q.q.q.q.8.8.q.0.9.",
"I  . . . . . .} ~ W B @ % + < < @ o X X X X X X X X X X X X X X X X X X X X X X o 6 a 6 < % + g W ! }  . . .! W ! E m ",
"B E / / / / ~ E R T M + # o % $ X X X . . . . . . . . . . . . . . . . . . . . X . o + + % # + f T T E ! / ~ / ~ E C z ",
"B R W ~ ~ ! E R I C b = - - - - - - - - - - - - - - - - - - - - - - - - - - - - - - - - - - = g C C Y E ! E ! ! E C z ",
"B R Y I I I I I C V b j v m B b v v v c v v v b N v v v v v v v v v v v v v v v v v v v v v z z V B C I I I I I R P z ",
"b C B m m m m m m m v v C T ! Y P I C v B C C Y R P P P P P P P P P P P P C v N C P P P C B N v m m m m m m m N V N z ",
"v b m B V B B B B B B C T ~ / ~ ! ! W B B Y ! ~ ~ ! ! ! ! ! ! ! ! ! ! ! E Y B C T ! ! ! T I C B m B V V V V V V V N z ",
"b C I E ! ! ! ! ! ! ! ! ~ / / / / / ^ P I ! +.3.3.3.3.3.+./ 3.3.3.3.7.:.^ E C I E ~ / / ! ! ! Y I Y R R R R R R E P z ",
"N Y } 8.q.q.q.3...+.8.q.q.8.8.8.8.+.~ I ! / :.r.r.r.r.r.q.q.r.r.r.r.r.w.q.&.I I ! 3.q.8.q.q.6.4.@.~ ~ ~ ~ ~ ~ ! E P z ",
"B E <.r.r.r.r.i.t.0.y.i.r.r.r.r.r.q. .I ~ +.q.e.e.e.r.r.r.r.r.r.y.p.a.a.i.w.` E 2.e.r.r.y.i.r.u.u.t.t.0.q.q.8. .^ T z ",
"C ~ >.w.w.w.w.r.r.w.w.w.w.w.w.w.w.0. .E ~ / @.@.@.+.3.w.w.w.w.w.w.r.r.r.w.w.{ ! ..@.+.*.0.r.u.w.r.r.r.w.w.w.w.8.8.} v ",
"Y E W ! ! ! ! ! ! ! ! ! ! ! ! ! ! ! E E E E E E E E W ! ! ! ! ! ! ! ! ! ! ! E E E E E E ! ` ` ! ! ! ! ! ` ` ` ` ` E I "
};
