/* XPM */
static char *ZXpnaWYuY29tLWdpZi1tYWtlci0z_13[] = {
/* columns rows colors chars-per-pixel */
"59 75 256 2 ",
"   c #0E110C",
".  c #13110E",
"X  c #141411",
"o  c #191614",
"O  c #161915",
"+  c #1A1916",
"@  c #1B1D1A",
"#  c #221D1B",
"$  c #1E211D",
"%  c #22221F",
"&  c #28221F",
"*  c #1D1F21",
"=  c #201F20",
"-  c #1E2124",
";  c #1D242B",
":  c #1F2932",
">  c #222521",
",  c #2B2522",
"<  c #252A24",
"1  c #2C2B26",
"2  c #212629",
"3  c #20292F",
"4  c #2B2D29",
"5  c #312A26",
"6  c #342E2B",
"7  c #293027",
"8  c #2C332B",
"9  c #2E382D",
"0  c #33322D",
"q  c #38312D",
"w  c #31392F",
"e  c #202B34",
"r  c #212E39",
"t  c #24323E",
"y  c #323431",
"u  c #3C3532",
"i  c #343B32",
"p  c #393937",
"a  c #3C3C3B",
"s  c #403F3E",
"d  c #374134",
"f  c #384237",
"g  c #3C453A",
"h  c #3D483B",
"j  c #41403F",
"k  c #414E3E",
"l  c #253644",
"z  c #263A4C",
"x  c #293F53",
"c  c #273D52",
"v  c #2A4157",
"b  c #2C455D",
"n  c #2D4760",
"m  c #2E4B64",
"M  c #2F4E69",
"N  c #304F6A",
"B  c #2F506C",
"V  c #30516D",
"C  c #325674",
"Z  c #335877",
"A  c #345B7B",
"S  c #385E7D",
"D  c #3A607E",
"F  c #434442",
"G  c #454944",
"H  c #484947",
"J  c #4B4C4B",
"K  c #504F4E",
"L  c #435241",
"P  c #485846",
"I  c #4B504A",
"U  c #4C5A4B",
"Y  c #495547",
"T  c #51514F",
"R  c #515E4F",
"E  c #545453",
"W  c #585757",
"Q  c #555B54",
"!  c #5B5C5B",
"~  c #605F5F",
"^  c #596157",
"/  c #60635F",
"(  c #646463",
")  c #686767",
"_  c #656964",
"`  c gray42",
"'  c #706F6F",
"]  c #70706F",
"[  c #747473",
"{  c #777877",
"}  c #7C7B7B",
"|  c #365F80",
" . c #376285",
".. c #3A6486",
"X. c #376589",
"o. c #38668B",
"O. c #37688E",
"+. c #39688E",
"@. c #3A6C93",
"#. c #3B6F98",
"$. c #3E7096",
"%. c #3D729C",
"&. c #3D76A1",
"*. c #3E79A6",
"=. c #3E7AA8",
"-. c #406C8D",
";. c #427296",
":. c #447498",
">. c #40749C",
",. c #42759C",
"<. c #46789D",
"1. c #4378A1",
"2. c #437AA4",
"3. c #487DA4",
"4. c #417EAC",
"5. c #427DAA",
"6. c #487FA8",
"7. c #4380AF",
"8. c #4B83AD",
"9. c #4482B1",
"0. c #4685B3",
"q. c #4684B2",
"w. c #4887B5",
"e. c #4A86B2",
"r. c #4C88B4",
"t. c #4B89B5",
"y. c #4D8BB8",
"u. c #4D8CBA",
"i. c #508CB7",
"p. c #508EBB",
"a. c #508DB9",
"s. c #4F90BE",
"d. c #5291BE",
"f. c #5394C2",
"g. c #5798C6",
"h. c #599AC6",
"j. c #579AC8",
"k. c #5A9DCB",
"l. c #5EA1CE",
"z. c #61A0CA",
"x. c #65A6D1",
"c. c #68A9D2",
"v. c #848484",
"b. c #888787",
"n. c #878887",
"m. c #898887",
"M. c #8B8B8B",
"N. c #929292",
"B. c #9D9C9C",
"V. c gray64",
"C. c gray68",
"Z. c #B1B1B1",
"A. c None",
"S. c black",
"D. c black",
"F. c black",
"G. c black",
"H. c black",
"J. c black",
"K. c black",
"L. c black",
"P. c black",
"I. c black",
"U. c black",
"Y. c black",
"T. c black",
"R. c black",
"E. c black",
"W. c black",
"Q. c black",
"!. c black",
"~. c black",
"^. c black",
"/. c black",
"(. c black",
"). c black",
"_. c black",
"`. c black",
"'. c black",
"]. c black",
"[. c black",
"{. c black",
"}. c black",
"|. c black",
" X c black",
".X c black",
"XX c black",
"oX c black",
"OX c black",
"+X c black",
"@X c black",
"#X c black",
"$X c black",
"%X c black",
"&X c black",
"*X c black",
"=X c black",
"-X c black",
";X c black",
":X c black",
">X c black",
",X c black",
"<X c black",
"1X c black",
"2X c black",
"3X c black",
"4X c black",
"5X c black",
"6X c black",
"7X c black",
"8X c black",
"9X c black",
"0X c black",
"qX c black",
"wX c black",
"eX c black",
"rX c black",
"tX c black",
"yX c black",
"uX c black",
"iX c black",
"pX c black",
"aX c black",
"sX c black",
"dX c black",
"fX c black",
"gX c black",
"hX c black",
"jX c black",
"kX c black",
"lX c black",
"zX c black",
"xX c black",
"cX c black",
"vX c black",
"bX c black",
"nX c black",
"mX c black",
"MX c black",
"NX c black",
"BX c black",
"VX c black",
"CX c black",
"ZX c black",
"AX c black",
"SX c black",
"DX c black",
"FX c black",
"GX c black",
"HX c black",
"JX c black",
"KX c black",
"LX c black",
"PX c black",
"IX c black",
"UX c black",
/* pixels */
"A.A.A.A.A.A.A.A.A.A.A.A.A.A.A.A.A.A.A.A.A.A.A.A.A.A.A.A.A.A.A.A.A.A.A.A.A.A.A.A.A.A.A.A.A.A.A.A.A.A.A.A.A.A.A.A.A.A.A.",
"A.A.A.A.A.A.A.A.A.A.A.A.A.A.A.A.A.A.A.A.A.A.A.A.A.A.A.n n n n n A.A.A.A.A.A.A.A.A.A.A.A.A.A.A.A.A.A.A.A.A.A.A.A.A.A.A.",
"A.A.A.A.A.A.A.A.A.A.A.A.A.A.A.A.A.A.A.A.A.A.A.b n m A @.A A @.@.C m b b A.A.A.A.A.A.A.A.A.A.A.A.A.A.A.A.A.A.A.A.A.A.A.",
"A.A.A.A.A.A.A.A.A.A.A.A.A.A.A.A.A.A.A.A.A.M M m C #.&.=.A O.4.=.%.@.B m M m A.A.A.A.A.A.A.A.A.A.A.A.A.A.A.A.A.A.A.A.A.",
"A.A.A.A.A.A.A.A.A.A.A.A.A.A.A.A.A.A.A.b B @.%.%.&.=.7.7. .<.y.7.7.=.%.%.%.O.m b A.A.A.A.A.A.A.A.A.A.A.A.A.A.A.A.A.A.A.",
"A.A.A.A.A.A.A.A.A.A.A.A.A.A.A.A.A.A.b M @.=.q.q.q.w.a.f.-.:.d.a.a.0.q.q.7.=.o.m b A.A.A.A.A.A.A.A.A.A.A.A.A.A.A.A.A.A.",
"A.A.A.A.A.A.A.A.A.A.A.A.A.A.A.A.b M m @.q.0.u.a.a.8.@.6...C O.@.#.r.a.a.r.0.4.| V N b A.A.A.A.A.A.A.A.A.A.A.A.A.A.A.A.",
"A.A.A.A.A.A.A.A.A.A.A.A.A.A.b M C @.A :.y.e.#.@.@.O. ...A m A  . .O.@.@.,.r.y.X.:.;.C n b A.A.A.A.A.A.A.A.A.A.A.A.A.A.",
"A.A.A.A.A.A.A.A.A.A.A.A.A.B A O.=.q.:.:.@.O.O.O. .A C C A V V C Z  . .O.O.O.;.;.8.t.*. .A m A.A.A.A.A.A.A.A.A.A.A.A.A.",
"A.A.A.A.A.A.A.A.A.A.A.b m o.=.=.q.r.8...C |  .| C C C C C m V C C C Z  . .A C @.e.t.4.=.=.A n A.A.A.A.A.A.A.A.A.A.A.A.",
"A.A.A.A.A.A.A.A.A.A.b m o.=.9.u.r.>.O. .V N C C C C C M M n m N C C C C C M C X.O.1.r.u.4.*.| n A.A.A.A.A.A.A.A.A.A.A.",
"A.A.A.A.A.A.A.A.A.b m o.=.7.r.6.>. .A A C V N C M m m z : : e x m m N C M V C A A X.1.8.r.4.&.| n A.A.A.A.A.A.A.A.A.A.",
"A.A.A.A.A.A.A.A.A.m o.=.7.r.>.O. .A C M m m b v : ; : - @ @ @ ; ; ; r b b m m V C A o.O.1.r.4.*.| n A.A.A.A.A.A.A.A.A.",
"A.A.A.A.A.A.A.A.m O.=.7.r.>. .A A C m r ; ; ; - # # # # , 5 & # # # # ; ; ; ; l V C A A O.1.y.4.&.| b A.A.A.A.A.A.A.A.",
"A.A.A.A.A.A.A.n N %.7.r.>.O. .C C n e # , & , & 1 5 6 5 6 6 6 6 5 5 , & , & , @ l M C Z  .O.1.y.4.@.m A.A.A.A.A.A.A.A.",
"A.A.A.A.A.A.b n :.q.r.>.X.A Z M t - # , 6 6 u 6 , q u u u u u u u 6 , 6 u 6 6 , = - z V A A O.1.t.7...b A.A.A.A.A.A.A.",
"A.A.A.A.A.A.M M C 3.$.|  .C M t > , 5 6 q q u 6 , 1 + o + + + o @ 6 , q u q q 6 5 , > z V A  . .$.X.V M m A.A.A.A.A.A.",
"A.A.A.A.A.V @.&.A V o.X.A M t > q 6 1 q q 6 # + + @ o X X X X X X o o @ & q q 6 , 6 6 > z V A O.| V X.&. .M A.A.A.A.A.",
"A.A.A.A.b  .=.7.8.A A  .V t # , q 5 # + + & 4 < < < @ X X X X X X o % 8 4 @ + + & 6 6 , * z Z  .A ..t.4.*.C A.A.A.A.A.",
"A.A.A.A.C O.=.d.,.| V M l # , 6 q & o 4 g F i < $ X X O o X X X X O 8 4 F g 9 % o , q 6 , - v N C  .8.y.=. .M A.A.A.A.",
"A.A.A.b  .%.5.e.#.A C x @ , 6 q & $ 8 Q ` J 9 O o o o + + X X X o o X @ T ` E i % + , q 6 & - n C A ,.t.7.=.C A.A.A.A.",
"A.A.A.b A @.r.1.O.A m r @ 6 q & $ i ! [ W y @ @ @ @ @ @ o X X o + @ + @ p ! ` ( I 8 + , q 5 @ l V A  .8.t.=.C A.A.A.A.",
"A.8.n b C  .8.1. .C v @ # 6 , @ 8 F ` ` J $ @ $ $ $ @ @ + X X X @ % > @ < J ( } _ f < + 6 5 @ ; n A | 8.t.=.C b V d.A.",
"A.d.:.A V A 8.1.A C v @ & , & % f I ^ F 4 % % > < % @ @ o X X O @ $ > $ @ 1 F ` _ H 8 @ , , # ; m C | 8.t.@.V  .3.h.A.",
"A.+.8.7.A V 8.1. .Z v > q 6 % 8 g H J > X @ $ > > $ @ @ o X X + @ @ $ $ O X + a W J 9 @ # q 6 ; n A o.8.t.A X.t.2...A.",
"A.M @.8.@.B 8.1.A C v > q 6 > i i < $ > 1 @ $ > < > % $ o X X @ > > > $ @ < + @ < w i < @ u 6 ; n Z  .8.<.V 6.6.X.n A.",
"A.C @.O.O.V <.:.Z C v * 6 1 > i < @ 4 E F $ @ $ > % $ @ o X X @ $ $ % $ > F F + O < i i $ 6 , ; n C A 6...C @.O.@.m A.",
"A.n M V V B C C V M v * 6 6 > i < $ y ` ( i @ > < > @ @ o X X + $ > < < a ( W < O < d i % u 1 ; b m m C V V C C C n A.",
"A.A.V o.@.%.@.@.@.@.b * 6 6 > i 4 4 y ! ! % $ O + > % $ O X X $ % $ O X < W ! F $ % L g % u 1 ; n C A  .O.%.%.%.@.A.A.",
"A.A.V  . .A C C C C v * 5 , < k w < 4 G F y E @   . X + o X X @ o     O 4 H J 0 @ $ k g $ 5 , ; n C C C C A  . .N A.A.",
"A.A.n n n m m m n m v @ , , < L w @ @ 4 a ` [ F O X     . X X     X @ J ! G p X o @ i i $ , # ; b n n m m m n n n A.A.",
"A.A.A.b M C C C m V v @ & , < h 8 O < > G } N.b.W G y y % . X + 4 G ( } ( g $ > 1 @ L g $ , # ; m V M C C A m A.A.A.A.",
"A.A.A.b V | A C m V v @ , , > i < > E p J } M.B.V.N.v.[ a . o p ( v.V.b.) j i [ ( > L g $ 1 & ; m V M A |  .V A.A.A.A.",
"A.A.A.b C O. .A M V v * , & > i < 0 ! J i ` b.N.B.C.B.} p . o J ` N.B.M.` F v.B.! > L g @ , & ; m V V X.O.1.Z A.A.A.A.",
"A.A.A.b A @.O.1.Z Z v - 6 , < g 8 y J } { v.M.M.M.V.V.b.p . o J ` N.b.N.m.v.V.{ y @ L g $ 5 1 ; M C C O.@.u.D A.A.A.A.",
"A.A.A.b  .*.@.r.S A b - u 6 < L i > i } B.M.v.} } N.M.' p . o J ) } } v.N.N.} p + @ d i % u 6 ; V A C O.%.u.D A.A.A.A.",
"A.A.A.b  .=.%.r.S C v @ 5 6 < L i @ 4 ~ b.b.} } } } ' ) p . o J ) ` } } m.v.W < @ > w 9 % u & ; m V A #.%.u.D A.A.A.A.",
"A.A.A.b | =.=.u.A V v * 6 6 < U ^ y $ y ` m.b.v.} [ ) ) p . o J ) ` } b.m.` a < @ F F 8 4 u , ; n N | =.=.4.Z A.A.A.A.",
"A.A.A.b A &.=.5.C V v * 6 6 < R _ p + 4 ` N.N.M.b.} [ ) p . o J ` } M.B.N.` y > @ J G 8 > u 1 ; n V | =.=.=.C A.A.A.A.",
"A.A.A.b C %.%.%.C V v @ , , < U / W y G ` N.B.B.V.V.M.` p . o J { B.C.Z.N.` J @ a ( G 8 @ 5 & ; m V | %.%.=.C A.A.A.A.",
"A.A.A.b C %.#.%.C V v * 5 , < Y Q J y J ) ' b.m.m.M.B.} p . o T M.B.V.m.[ ) H O 4 E g 8 @ 5 , ; m V | %.%.=.C A.A.A.A.",
"A.A.A.b C %.%.%.C V v * 6 6 < k f a i Q ! G y y a J ` ] s . o K ' J a y J ! E % 4 g i 8 # u 5 ; m N A $.%.=.C A.A.A.A.",
"A.A.A.b C %.7.#.V C v * 5 1 < k i a p ( { F > o @ > 0 ! j . o J 4 $   O J [ ` G 4 8 i i % 6 , ; m V C %.=.=.C A.A.A.A.",
"A.A.A.b C %.u.,.N | b * 1 > < g 8 8 y ) b.` a o O 4 F W j . o J a > . > } m.} H $ $ L g @ , , ; B A C %.=.=.C A.A.A.A.",
"A.A.A.b C %.s.,.V | b > u 6 > w < 4 y ( m.n.} J J W ( ) s . o J ! E E ` V.N.} G $ $ L h % u 6 ; B A C %.=.=.C A.A.A.A.",
"A.A.A.b C %.s.,.V | b * q 6 < f 7 < y W { v.} { } ` ` } s . o J ! ` } N.N.} ( y < $ L h % u 1 ; B A C %.=.=.C A.A.A.A.",
"A.A.A.b C %.0.$.V C v * 6 1 < k 9 $ y E ) ` ) ) ( ) } m.s . o E ) W ( ` ` ) H > < > L h % 6 1 ; M C C %.=.=.C A.A.A.A.",
"A.A.A.b C %.@.| M V v * 6 5 < k 9 $ < 4 p W ( ! ! ` ( J y . X 4 ( ! ( ( E p 4 @ < > i d % q 1 ; m V V  .%.=.C A.A.A.A.",
"A.A.A.b A =. .A M V v * q 6 < k 9 % < $ % 4 E a W [ E 4 1 . X + ~ ` ( g y % $ % 4 % 8 i % u 5 ; m V C A @.=.C A.A.A.A.",
"A.A.A.b A @.| A M A v * q 6 > i < > < < > O 8 y ( { ` F 4 . X y ) ` ! 8 < % < > > @ 8 i % u 5 ; M C V A  .@.V A.A.A.A.",
"A.A.A.b C A C C m m v * 6 , % 8 < > 4 4 > + < a ) ` ( ! a . o F ! ` ) i < % < 4 4 $ 8 i % 6 1 ; n m m C C | M b A.A.A.",
"A.A.A.n M V M M m C M - 5 , % 8 > > 8 4 < i i ) ) ` ! ( j . o F E ` ` ` y < 8 8 8 % w i @ 5 1 e C C M M M V M m n A.A.",
"A.A.A.A 5.5.5.5.+.5.$.2 5 , % 9 < $ < < < i < E H { E ( s . o F E [ J ( < < 4 4 < @ k g @ 5 , t 5.5.5.5.5.5.5.1.V A.A.",
"A.A.A...a.d.f.d.u.p.3.- & , > h 8 @ > > $ $ @ < i ` W ! j . o s E ! 8 4 % % < > > @ h g @ 1 # t e.i.a.a.a.a.a.8.V A.A.",
"A.A...V | X.@. .| | C * & & > d 7 @ < 4 4 < < i 8 ! ` ! s . o a ) a > % < 8 4 < < $ 9 i @ , # ; V Z | | | | A C n A.A.",
"A.-.8.A A C C A A A B - , , > 9 % @ % < < 4 < i F [ E ) j . o F E ( 0 g < < < $ $ @ 8 i @ , & : C A A A A A A A ..A.A.",
"=.u.g.y.y.e.e.y.y.y.1.2 q 6 < f < @ $ $ $ > $ $ j / > J i . o 1 < W 4 a > $ $ $ $ @ 8 i % u 1 l w.y.y.y.y.y.y.u.j.0.=.",
"=.&.,.8.8.t.u.u.u.u.1.2 q 6 < k 8 @ $ @ $ $ $ @ 4 p + w 4 . X @ + i > 4 $ @ @ $ $ @ f f % u 1 t 6.e.u.u.u.y.e.e.,.=.=.",
"y.@.V O.@.&.=.%.#.%. .- q 6 < k 8 $ < 8 < < > $ $ O @ d 4 . o < + O $ > < i 8 @ @ @ L g % u 1 e o.@.%.&.#.#.@.@.V &.u.",
"f.@.C O.@.#.#.@.O.| V - q 6 < k 8 $ i w < > > $ $ @ @ d 4 . o < + @ $ > < i g 9 @ O L g % u 1 e A  .@.@.O.O.O.X.V 5.j.",
"f.@.V X.X.X.X.| A C m * , , > i 8 i f < $ $ $ $ $ @ @ d 4 . o < + @ $ $ $ < w h L 9 L g $ 5 & ; C Z A  .O.O.O.X.V 5.j.",
"f.#.M V V V V M M M b @ & , % i h g w > $ % < < w @ $ d 4 . o < @ $ 9 % $ $ < i h f f 9 @ 1 # ; m M M B V V V V B 5.j.",
"k.u.&.%.%.%.%.%.%.&.O.- & , $ i f i 4 $ > < < 8 < g i d 4 . o < d d $ @ > > > w i i i 8 @ 1 # r $.%.%.%.%.%.%.%.5.f.k.",
"d.g.f.f.f.f.f.f.f.f.3.- & > $ 8 w 9 < $ $ $ % < > 9 8 d 4 . X < 8 8 $ @ @ $ $ < w i i 8 @ , # l a.f.f.f.f.f.d.d.d.f.d.",
"A =.5.5.5.5.5.5.=.$. .- # # $ 8 8 i k P P h L g d < > i 7 X o % < 8 g d 9 h L k i w 8 4 @ # # e @.%.5.5.5.5.%.$.#.$.V ",
"M @.&.=.=.=.*.@.O.X.A * @ @ @ < < < < < < > > > % % $ 7 < . X @ % % % > > > < < < < < > + @ + : o.X.O.#.=.*.=.=.@. .n ",
"M X.@.&.&.&.@.O. .A C ; ; ; ; ; ; ; ; ; ; ; ; ; ; ; ; ; ; ; ; ; ; ; ; ; 3 ; ; ; ; ; ; ; ; ; ; r A A X.O.%.@.$.%.@. .n ",
"M O.O. . . . . .A C V z n M C N m m m n m m m M V m m m m m m m m m m m m m n n m m m m m m b c C C A  . . . . .O. .n ",
"m C C N N N N N N N M m Z o.%.O.| | A M V Z A  .@.| | | | | | | | | | | | A V M A | | | A Z C n N N N N N N N N C C n ",
"n M M C C C C C C C C A o.&.=.&.%.%.%.A C  .#.%.*.%.%.%.%.%.%.%.%.%.%.%.@.X.Z C X.@.%.%.O. .| C N V Z Z Z Z Z Z Z C n ",
"m A  .@.%.%.%.%.%.%.%.%.&.=.=.=.=.=.=. . .%.5.u.u.u.u.u.0.=.t.s.u.u.u.y.=.%. . .O.&.=.=.&.%.%.O. .X.O.O.O.O.@.O.O. .n ",
"M  .,.a.f.f.f.d.7.5.u.f.f.d.f.f.d.0.=. .@.=.7.j.k.k.k.k.g.d.j.k.k.k.k.j.f.w.O. .%.t.f.f.f.f.d.a.e.&.&.&.&.&.&.%.@. .n ",
"M @.q.k.k.k.k.x.z.g.k.x.k.k.k.k.k.g.7. .%.4.d.j.j.j.k.k.k.k.k.k.k.x.c.c.x.k.6.@.w.g.k.k.k.x.l.l.x.z.z.h.f.f.f.7.=.@.m ",
"C %.0.g.g.g.g.h.k.h.h.h.h.g.g.g.g.g.q.@.%.=.4.7.7.7.r.g.g.g.g.g.h.k.k.k.h.h.8.%.5.7.7.q.f.k.z.h.k.k.k.h.h.h.g.f.f.8.N ",
"o.@.#.$.$.$.$.$.$.$.$.$.$.$.$.$.$.$.#.@.@.@.@.@.@.@.#.$.$.$.$.$.$.$.$.$.$.$.#.@.@.@.@.@.$.>.:.$.$.$.$.$.$.$.$.>.>.$..."
};
