/* XPM */
static char *ZXpnaWYuY29tLWdpZi1tYWtlci0z_17[] = {
/* columns rows colors chars-per-pixel */
"59 75 256 2 ",
"   c #0E130D",
".  c #13110F",
"X  c #151311",
"o  c #181714",
"O  c #161915",
"+  c #1A1916",
"@  c #1C1D1A",
"#  c #211D1B",
"$  c #1E211D",
"%  c #22231F",
"&  c #28231F",
"*  c #1E1F20",
"=  c #1E2124",
"-  c #1D242B",
";  c #1F282E",
":  c #1F2932",
">  c #232521",
",  c #2A2523",
"<  c #252A24",
"1  c #2C2A25",
"2  c #212528",
"3  c #2B2D2A",
"4  c #312A27",
"5  c #342D2A",
"6  c #283027",
"7  c #2D332B",
"8  c #2F382D",
"9  c #34322D",
"0  c #38312D",
"q  c #31392F",
"w  c #202B35",
"e  c #212E3A",
"r  c #23313D",
"t  c #343432",
"y  c #3C3533",
"u  c #343B33",
"i  c #393A37",
"p  c #3B3C3A",
"a  c #403F3D",
"s  c #364034",
"d  c #384336",
"f  c #3B4539",
"g  c #3E4B3C",
"h  c #41423F",
"j  c #414E3E",
"k  c #42513F",
"l  c #263644",
"z  c #263A4D",
"x  c #283B4D",
"c  c #273E53",
"v  c #283F53",
"b  c #294155",
"n  c #2C455D",
"m  c #2D4760",
"M  c #2E4B64",
"N  c #2F4E69",
"B  c #304F6A",
"V  c #2F506C",
"C  c #30516E",
"Z  c #325674",
"A  c #335877",
"S  c #345B7B",
"D  c #395E7C",
"F  c #444543",
"G  c #484747",
"H  c #464945",
"J  c #484847",
"K  c #4B4C4A",
"L  c #455442",
"P  c #485946",
"I  c #4D504C",
"U  c #4C5B4A",
"Y  c #50524F",
"T  c #535453",
"R  c #555A54",
"E  c #5C5C5B",
"W  c #566154",
"Q  c #5C635B",
"!  c #60605F",
"~  c #636463",
"^  c #666A65",
"/  c gray42",
"(  c #6F706F",
")  c #747474",
"_  c #787777",
"`  c #777876",
"'  c #7B7B7B",
"]  c #7F807F",
"[  c #365F80",
"{  c #366185",
"}  c #3B6586",
"|  c #376489",
" . c #38668B",
".. c #3A698E",
"X. c #3A6C93",
"o. c #3B6F98",
"O. c #3E7097",
"+. c #3D729C",
"@. c #3D76A2",
"#. c #3E79A6",
"$. c #3E7AA9",
"%. c #416D8E",
"&. c #406F93",
"*. c #427195",
"=. c #417399",
"-. c #45769A",
";. c #41759D",
":. c #457AA2",
">. c #447AA3",
",. c #487EA4",
"<. c #407DAB",
"1. c #477EA8",
"2. c #417EAC",
"3. c #427DAA",
"4. c #497FA9",
"5. c #4280AE",
"6. c #4481AE",
"7. c #4881AA",
"8. c #4A83AC",
"9. c #4482B0",
"0. c #4684B3",
"q. c #4C86B1",
"w. c #4886B4",
"e. c #4A86B2",
"r. c #4D88B2",
"t. c #4C89B5",
"y. c #4B89B5",
"u. c #4C8AB8",
"i. c #4E8BB8",
"p. c #4E8DBA",
"a. c #4C8CBA",
"s. c #508CB7",
"d. c #508DB9",
"f. c #518EBB",
"g. c #4F90BE",
"h. c #5191BE",
"j. c #5394C2",
"k. c #5798C6",
"l. c #599AC6",
"z. c #5799C8",
"x. c #5A9DCB",
"c. c #5FA2CE",
"v. c #62A1CB",
"b. c #64A6D1",
"n. c #68A9D2",
"m. c #848484",
"M. c #878887",
"N. c #8B8B8B",
"B. c #929292",
"V. c #9B9B9B",
"C. c gray65",
"Z. c #AEAEAE",
"A. c None",
"S. c black",
"D. c black",
"F. c black",
"G. c black",
"H. c black",
"J. c black",
"K. c black",
"L. c black",
"P. c black",
"I. c black",
"U. c black",
"Y. c black",
"T. c black",
"R. c black",
"E. c black",
"W. c black",
"Q. c black",
"!. c black",
"~. c black",
"^. c black",
"/. c black",
"(. c black",
"). c black",
"_. c black",
"`. c black",
"'. c black",
"]. c black",
"[. c black",
"{. c black",
"}. c black",
"|. c black",
" X c black",
".X c black",
"XX c black",
"oX c black",
"OX c black",
"+X c black",
"@X c black",
"#X c black",
"$X c black",
"%X c black",
"&X c black",
"*X c black",
"=X c black",
"-X c black",
";X c black",
":X c black",
">X c black",
",X c black",
"<X c black",
"1X c black",
"2X c black",
"3X c black",
"4X c black",
"5X c black",
"6X c black",
"7X c black",
"8X c black",
"9X c black",
"0X c black",
"qX c black",
"wX c black",
"eX c black",
"rX c black",
"tX c black",
"yX c black",
"uX c black",
"iX c black",
"pX c black",
"aX c black",
"sX c black",
"dX c black",
"fX c black",
"gX c black",
"hX c black",
"jX c black",
"kX c black",
"lX c black",
"zX c black",
"xX c black",
"cX c black",
"vX c black",
"bX c black",
"nX c black",
"mX c black",
"MX c black",
"NX c black",
"BX c black",
"VX c black",
"CX c black",
"ZX c black",
"AX c black",
"SX c black",
"DX c black",
"FX c black",
"GX c black",
"HX c black",
"JX c black",
"KX c black",
"LX c black",
"PX c black",
"IX c black",
"UX c black",
/* pixels */
"A.A.A.A.A.A.A.A.A.A.A.A.A.A.A.A.A.A.A.A.A.A.A.A.A.A.A.A.A.A.A.A.A.A.A.A.A.A.A.A.A.A.A.A.A.A.A.A.A.A.A.A.A.A.A.A.A.A.A.",
"A.A.A.A.A.A.A.A.A.A.A.A.A.A.A.A.A.A.A.A.A.A.A.A.A.A.m m m m m M A.A.A.A.A.A.A.A.A.A.A.A.A.A.A.A.A.A.A.A.A.A.A.A.A.A.A.",
"A.A.A.A.A.A.A.A.A.A.A.A.A.A.A.A.A.A.A.A.A.A.A.n m M S X.A [ X.X.Z m n n A.A.A.A.A.A.A.A.A.A.A.A.A.A.A.A.A.A.A.A.A.A.A.",
"A.A.A.A.A.A.A.A.A.A.A.A.A.A.A.A.A.A.A.A.A.N N M Z O.@.$.S X.<.#.+.X.N M N N A.A.A.A.A.A.A.A.A.A.A.A.A.A.A.A.A.A.A.A.A.",
"A.A.A.A.A.A.A.A.A.A.A.A.A.A.A.A.A.A.A.n C X.+.+.@.<.5.5.[ :.u.5.5.$.+.+.+. .M n A.A.A.A.A.A.A.A.A.A.A.A.A.A.A.A.A.A.A.",
"A.A.A.A.A.A.A.A.A.A.A.A.A.A.A.A.A.A.n C X.$.9.9.9.w.d.j...-.h.f.a.0.9.9.5.#.| M n A.A.A.A.A.A.A.A.A.A.A.A.A.A.A.A.A.A.",
"A.A.A.A.A.A.A.A.A.A.A.A.A.A.A.A.n N M X.9.w.a.d.d.7.X.1.} Z ..X.O.t.d.d.t.0.2.S C B n A.A.A.A.A.A.A.A.A.A.A.A.A.A.A.A.",
"A.A.A.A.A.A.A.A.A.A.A.A.A.A.n N Z X.Z ;.i.q.X.X.X...{ | S M S { { ..X.X.;.t.t.| -.&.Z m n A.A.A.A.A.A.A.A.A.A.A.A.A.A.",
"A.A.A.A.A.A.A.A.A.A.A.A.n C S X.$.9.=.-.X.......{ S Z Z S C C Z A { { ......*.*.r.w.#.{ S M A.A.A.A.A.A.A.A.A.A.A.A.A.",
"A.A.A.A.A.A.A.A.A.A.A.n M ..$.$.9.r.8.{ A [ { S Z Z Z Z Z M C Z Z Z S { { S Z &.q.y.2.$.#.S m n A.A.A.A.A.A.A.A.A.A.A.",
"A.A.A.A.A.A.A.A.A.A.n M ..$.9.a.e.+...{ C B Z Z Z Z Z N N m M B Z Z Z Z Z N Z | ..:.i.i.<.@.S m n A.A.A.A.A.A.A.A.A.A.",
"A.A.A.A.A.A.A.A.A.n M ..#.9.y.1.+.{ S A Z C B Z N M M z : : w v M M B Z N C Z S S | :.7.y.<.@.S m n A.A.A.A.A.A.A.A.A.",
"A.A.A.A.A.A.A.A.A.M ..#.6.t.+...{ S Z N M m n b : ; ; = @ @ @ - ; ; e n n M M C Z S | ..>.t.<.@.S m A.A.A.A.A.A.A.A.A.",
"A.A.A.A.A.A.A.A.M ..#.6.t.+.{ S S Z M w - - - = # # # # , 4 & # # # # - - - - l C Z S S ..>.i.<.@.[ n A.A.A.A.A.A.A.A.",
"A.A.A.A.A.A.A.m C +.6.t.+...{ Z Z m w # , & , & 1 4 5 4 5 5 5 5 4 4 , & , & & @ l N Z A | ..:.i.2...M n A.A.A.A.A.A.A.",
"A.A.A.A.A.A.n m -.9.t.O.| S A M r = % 1 5 5 y 4 , 0 y y y y y y y 5 , 0 y 5 5 , = = x C S S ..:.y.6.} n A.A.A.A.A.A.A.",
"A.A.A.A.A.A.N N Z ,.X.[ { Z M r > , 4 5 0 0 y 5 , 1 o + + + o o # 5 , y y 0 0 5 1 , > x C S { { +.| C N M A.A.A.A.A.A.",
"A.A.A.A.A.C X.@.S C | | A N e > 0 4 1 0 0 5 @ o o o X X X X X X X o X + & 0 0 5 , 0 5 > x C S ..S C | @.{ N A.A.A.A.A.",
"A.A.A.A.n | $.9.8.S S { C r # 1 0 4 # o o @ @ @ @ + + X X X X X X X + @ @ o + @ & 5 5 , = x A { S ..y.2.#.Z A.A.A.A.A.",
"A.A.A.A.Z ..#.h.;.[ C N l # , 0 0 > @ 3 q 1 % @ + X X X X X X X X X @ @ 3 q i 3 X , 0 5 & = b B Z | 8.u.#.{ N A.A.A.A.",
"A.A.A.n { +.1.e.X.S Z c @ , 0 0 & < F / R 7 % o X X X X X X X X X X X + t R ^ K > @ 1 0 5 & = m Z S :.y.5.#.Z A.A.A.A.",
"A.A.A.n S X.t.:.| S M e @ 5 5 > > F / ) p > @ @ @ + o o X X X X X + @ @ < p E ^ R i + , 0 4 @ l C S | 7.y.#.Z A.A.A.A.",
"A.8.m n Z | q.:.[ Z b @ # 0 , % t R ) ~ t $ $ $ $ @ o o X X X X X @ > % > 3 J ) ` H < + 5 4 @ - M S [ 7.y.#.Z n C h.A.",
"A.h.=.A C S 8.;.S Z b @ & 1 & > f R T i < > > % % @ o o X X X X o @ > > $ $ 3 E ( T 8 + , , # - M Z [ q.y.X.N { ,.l.A.",
"A...8.7.S C 8.:.{ A b > 0 4 > 8 F F 3 + @ $ > % $ @ o o X X X X o O $ $ @ O o 3 T T t @ # 0 5 - M S | q.w.S | y.:.} A.",
"A.C X.8...C 8.:.S Z b > y 5 > u 8 $ @ < < $ > > < $ + + X X X + + @ > > $ $ $ $ $ 7 t < @ y 5 - M S { q.;.C >.>.| m A.",
"A.Z X...| C :.=.Z Z b * 5 1 > 7 $ + F T 3 $ $ % > $ + o X X X X + @ % $ $ 3 i < X % t t $ 5 1 - m Z S 7.} Z X...X.M A.",
"A.m N C C V Z Z C N b * 0 5 > 7 % $ I ) f 3 % > % $ + o X X X X + @ > < 3 p R p O % u u % y 1 - n M N Z C C Z Z Z m A.",
"A.n C | X.O.X.X.X.X.n * 0 5 < q > i T ^ F O + $ $ $ + + X X X + + @ $ @ $ i K T < $ L f % y 1 - m Z S { X.O.+.O.X.A.A.",
"A.A.C { { S Z Z Z Z b @ 4 , 7 g < t K p E 3 3 O O X X X X X X o X .     t E t t > @ j d @ 4 , - m Z Z Z Z [ { [ N A.A.",
"A.A.m m m M M M m M v @ , , 7 g < + 3 < ~ ~ H 3 . . . . . X X . . X X 3 I ) H . X @ s u @ 1 # - n m m M M M m m n A.A.",
"A.A.A.n B Z Z Z M C b @ & , 3 d > O @ < / B.' ^ p 3 # % + X X X @ 3 F ~ / / p @ 3 > L f @ 1 # - M C B Z Z S M A.A.A.A.",
"A.A.A.n C [ S Z M C b @ , , > 8 $ t p t / V.B._ _ / K i > . X > t K ) _ m.! F ~ ) t k f $ 1 & - M B B S [ { N A.A.A.A.",
"A.A.A.n Z ..{ S M C b @ , & > 8 $ T ^ t T m.B.m._ ' ^ a > . X 3 i T ) M.' E Q M.m.3 L f @ , & - M B C | ..:.Z A.A.A.A.",
"A.A.A.n S X...:.Z S b = 5 , 3 s > Y _ ) ' M.B.N.) ) E F > . X 3 p T ) B.m.m.B.m.K @ L f @ 5 1 - N Z Z ..o.a.D A.A.A.A.",
"A.A.A.n { @.X.t.D [ n > y 5 7 g < 7 E N.B.m.) ) / ^ K i > X X 3 i K / ' M.B.N.T @ @ s u > y 5 - C S Z ..@.f.D A.A.A.A.",
"A.A.A.n { $.+.t.D Z b @ 4 5 7 g < @ f ) M.m./ ^ / R a i > X X 3 i H ^ ) m.m.) p O % q 8 % y & - N C S X.+.p.D A.A.A.A.",
"A.A.A.n { $.#.a.S C b @ 5 5 7 Q I $ @ K ] N.) / / R p i > . X 3 i K ^ ) M.' ^ p @ 7 u 7 1 y , - M B { #.#.<.Z A.A.A.A.",
"A.A.A.n S @.$.<.Z C b * 5 5 7 ^ R > O H m.V.N.) / ^ K t > . X 3 p E ) B.B.m.^ 9 + t i 6 > y 1 - M B { $.#.#.Z A.A.A.A.",
"A.A.A.n Z +.O.+.Z C b @ , , 7 W ^ F i T m.V.V.B.' _ E i > X X 3 F ) M.C.V.M.^ < < R H 3 @ 4 & - M B { +.+.#.Z A.A.A.A.",
"A.A.A.n Z +.o.+.Z C b * 5 , 7 U R p p T ) ' M.N.m.) ~ a > X X 3 K _ V.B.N.) T > @ K h 6 @ 4 , - M B [ O.+.#.Z A.A.A.A.",
"A.A.A.n Z +.O.O.C C b * 0 5 7 f p p K ~ K t 9 p T T T i , X X 3 a T T t p K R t $ f d 7 # y 1 - M B S +.@.#.Z A.A.A.A.",
"A.A.A.n S +.5.X.N Z b @ 4 1 7 f t K T _ T < + @ 3 F t t , . X 1 % t X . 3 T ) ~ 3 t f u % 5 , - M C Z +.$.#.Z A.A.A.A.",
"A.A.A.n S +.h.;.N [ n * 4 > 3 u < f T ' / p > + 3 H p 9 , X X 3 1 p @ X J ] B.^ < % P f @ 1 , - C S Z +.$.#.Z A.A.A.A.",
"A.A.A.n S +.g.;.B [ n > y 5 > 3 > f T _ B./ E p K R K i , . X 3 i T T R m.Z.V.E < $ P f % y 5 - C S Z +.$.#.Z A.A.A.A.",
"A.A.A.n S +.h.;.B [ n * 0 5 3 u > 3 J ^ ' m./ E / R F h < . X 3 t K / M.B.B._ F < > P f % y 1 - C S Z +.$.#.Z A.A.A.A.",
"A.A.A.n Z +.0.+.V A b * 5 1 8 f < @ p E / / R E E K a F < . X 5 t i R ~ / / E 3 > < P f % 5 1 - N Z Z +.$.#.Z A.A.A.A.",
"A.A.A.n Z +.X.S M C b * 5 4 8 f < @ > 3 K ~ ^ T K T t 3 # X X # t p E ~ R T p + > < d u % 0 1 - M B C { +.#.Z A.A.A.A.",
"A.A.A.n [ #.{ S N C b * 0 5 7 f < > > + t t E H F ~ h @ @ X X o i T Q R I t @ $ < < q u % y 1 - M C Z S X.#.Z A.A.A.A.",
"A.A.A.n S X.[ S N S b * 0 5 < 7 > > < < $ @ K J R ^ K < @ X X # p E ~ T h $ $ > > $ q u % y 1 - N Z C S | X.C A.A.A.A.",
"A.A.A.n Z S Z Z m M b * 5 1 > < > > 3 3 + $ K T ~ ~ K t > X X < i E / R p O % 3 < < q u % 5 , - m M N Z Z [ N n A.A.A.",
"A.A.n m V C N N M Z N = 5 , > < > < 6 3 % T Y ~ E ~ K t , . X , t E / / p $ 3 6 6 < u u @ 4 , w A Z N N N C N M m A.A.",
"A.A.n S <.<.<.>...>.X.2 4 , > 6 $ > < < $ J 3 T T ^ H t , X X < t ~ ^ / $ $ 3 3 < % L f @ 4 , r <.<.<.<.<.<.<.>.C A.A.",
"A.A.n } h.h.j.h.d.h.:.= , , 6 d % $ > > @ O $ K K ~ G 9 , X X < t T K H O $ < > > % j d @ 1 # l q.s.d.d.d.d.d.8.C A.A.",
"A.A.{ C [ | X.{ [ [ C * & & 3 u $ $ < 6 3 $ 3 ~ K T G t , . X > i 3 p 3 $ 3 3 < < > q u @ , # ; C A [ [ [ [ S Z n A.A.",
"A.%.8.S S Z A S S S N * , > > 3 @ $ > < < < > T R T 5 t , . X , 5 p H R $ < < > $ $ 8 u @ 1 & : A S S S S S S S } A.A.",
"$.a.k.u.u.e.e.u.u.u.;.2 0 5 3 t $ $ $ $ $ > + $ J I + 3 & . X @ @ 7 t E $ % > $ $ $ 8 t > y 1 l w.u.u.u.u.u.u.a.z.9.$.",
"$.@.-.8.8.y.a.a.a.a.:.2 0 5 8 f % @ @ @ $ $ $ O < q X % @ X X o o > > i $ @ @ @ $ $ f s > y 1 r 4.e.a.a.a.i.e.e.;.#.$.",
"u.X.C ..X.@.$.+.o.O.{ > 0 5 7 f > 6 8 < < > $ @ $ + o % @ X X @ X o + $ < 3 6 > + @ L f % y 1 w | X.@.+.o.o.X.X.C >.p.",
"j.X.Z ..X.o.o.X...[ V = 0 5 7 f $ 6 s 6 > > $ @ $ @ o % @ X X + o o + % > < 8 s % O L f % y 1 w S { X.X.......| C 3.x.",
"j.X.C ..| | | [ S Z M * , , < 8 8 s 7 % $ $ $ @ $ @ o % @ . X + X O @ $ $ % < s L f U f % 5 & ; Z A S { ......{ C 3.z.",
"j.X.N C C C C N N N n @ & , > d j u < % $ < q % < @ + % @ X X + + O > $ $ $ > q f f f 8 @ 1 # ; M N N C C C C C C <.z.",
"x.a.@.+.+.+.+.+.+.@.| = & , > u d < $ % > < < u > < % % @ X X @ % > $ @ $ > > 8 u u u 6 @ 1 # e +.+.+.+.+.+.+.+.>.j.x.",
"h.k.j.j.j.j.j.j.j.j.,.= & & $ 8 u 3 $ $ $ @ % 6 % < $ % @ X X @ $ $ $ $ O @ $ > 8 q t 6 @ , # l d.j.j.j.j.j.h.h.j.j.h.",
"S #.<.<.<.<.<.>.#.+.[ * # # $ 6 8 t j P L 7 f 3 < $ + % @ X X + @ $ 3 < < 7 g L d t 7 3 + # # e X.+.>.<.<.<.+.+.+.o.C ",
"B X.#.$.$.$.@.X.....S * # + @ < < < < < < @ @ + + + + @ + . . o + + + + + + % < < < < > + @ + w | | ..O.#.#.#.#.X.{ m ",
"C ..X.@.@.@.X...{ S Z - ; ; ; - - ; ; ; ; ; ; ; ; ; - - - - - - ; - ; - - - - ; ; ; ; ; ; ; - e S S | ..O.X.+.+.X.{ m ",
"C ..| { { { { { S A C x M N Z B M M M m M M M N C M M M M M M M M M M M M M m m M M M M M M n c Z Z S { { { { { ..{ m ",
"M A Z B B B B B B B M M A | O...[ [ S N Z A S { X.[ [ [ [ [ [ [ [ [ [ [ [ S N B S [ [ [ S A C m B B B B B B B C Z Z m ",
"m N N Z A Z Z Z Z Z Z S | @.$.@.+.+.O.S Z { O.+.#.+.+.+.+.+.+.+.+.+.+.+.X.| A A | o.+.O...{ S Z B C A A A A A A A Z m ",
"M S { X.+.+.+.+.+.+.+.+.@.$.#.$.$.$.#.{ { O.<.p.p.p.p.p.9.$.u.g.p.p.g.u.#.o.{ { ..@.$.$.@.+.+...{ | ..............{ m ",
"N { ;.d.j.j.j.h.5.2.p.j.j.h.h.h.h.0.#.{ X.#.5.x.x.x.x.x.k.h.z.x.x.x.x.z.j.w...{ O.y.j.h.j.j.h.d.8.@.@.@.@.@.@.+.X.{ m ",
"C X.e.x.x.x.x.b.v.k.x.b.x.x.x.x.x.z.6.{ +.<.h.z.z.z.x.x.x.x.x.x.x.b.n.n.b.z.>.X.w.z.x.x.x.b.x.c.v.v.v.l.j.j.j.6.#.X.m ",
"Z +.0.z.z.z.z.l.x.l.l.l.l.z.z.l.z.z.6.X.+.#.5.6.6.5.i.z.z.z.z.z.l.x.x.x.l.l.8.O.<.6.5.6.j.x.v.l.x.x.x.l.l.l.z.h.h.8.B ",
"| X.X.+.+.+.+.+.+.+.+.+.+.+.+.+.+.+.X...X.X.X.X.X.X.X.+.+.+.+.+.+.+.+.+.=.+.X.X.X.X.X.X.+.=.=.+.+.+.+.+.+.+.+.=.=.X.| "
};
