/* XPM */
static char *ZXpnaWYuY29tLWdpZi1tYWtlci0z_46[] = {
/* columns rows colors chars-per-pixel */
"59 75 128 2 ",
"   c #15110F",
".  c #151210",
"X  c #191614",
"o  c #171915",
"O  c #1A1916",
"+  c #1D1C1A",
"@  c #211E1C",
"#  c #1E211C",
"$  c #23221E",
"%  c #28221F",
"&  c #1C1F21",
"*  c #1E2124",
"=  c #1D242A",
"-  c #1F2932",
";  c #232422",
":  c #2A2522",
">  c #252A24",
",  c #2D2A26",
"<  c #21272C",
"1  c #21292E",
"2  c #2B2C2A",
"3  c #302A26",
"4  c #342E2A",
"5  c #2D312B",
"6  c #33332D",
"7  c #39312E",
"8  c #32382F",
"9  c #202B34",
"0  c #212E39",
"q  c #24323E",
"w  c #333433",
"e  c #3C3532",
"r  c #343A32",
"t  c #3D3835",
"y  c #3C3C3B",
"u  c #403A36",
"i  c #423C38",
"p  c #374035",
"a  c #394035",
"s  c #3D403C",
"d  c #3E4B3C",
"f  c #243443",
"g  c #263846",
"h  c #26394A",
"j  c #273D52",
"k  c #293F52",
"l  c #2A4157",
"z  c #2B455D",
"x  c #2D485F",
"c  c #2D4760",
"v  c #2E4A64",
"b  c #2F4E69",
"n  c #304F6A",
"m  c #2F506C",
"M  c #30516D",
"N  c #325674",
"B  c #335877",
"V  c #345B7B",
"C  c #395F7D",
"Z  c #3A607F",
"A  c #444544",
"S  c #474846",
"D  c #4B4B4A",
"F  c #515151",
"G  c #5A5A5A",
"H  c #606160",
"J  c #365F80",
"K  c #376285",
"L  c #3A6384",
"P  c #376589",
"I  c #38668B",
"U  c #37688E",
"Y  c #3A698E",
"T  c #3A6C93",
"R  c #3B6F98",
"E  c #3D7097",
"W  c #3D729C",
"Q  c #3D76A2",
"!  c #3E79A6",
"~  c #3E7AA8",
"^  c #416F91",
"/  c #437396",
"(  c #40739B",
")  c #43759A",
"_  c #44769B",
"`  c #41749C",
"'  c #4077A1",
"]  c #4378A1",
"[  c #4379A2",
"{  c #447AA2",
"}  c #457DA6",
"|  c #407DAC",
" . c #427FAD",
".. c #417DAA",
"X. c #487FA8",
"o. c #4A80A7",
"O. c #4380AF",
"+. c #4481AF",
"@. c #4880AA",
"#. c #4A84AE",
"$. c #4D85AD",
"%. c #4A83AC",
"&. c #4481B0",
"*. c #4583B1",
"=. c #4B87B3",
"-. c #4C87B2",
";. c #4987B4",
":. c #4D88B2",
">. c #4B88B4",
",. c #4C88B4",
"<. c #4A8AB8",
"1. c #4E8BB8",
"2. c #4D8CBA",
"3. c #508CB7",
"4. c #508DB9",
"5. c #4F90BE",
"6. c #5392BF",
"7. c #5495C2",
"8. c #5394C2",
"9. c #5798C6",
"0. c #579AC8",
"q. c #5A9DCA",
"w. c #5DA1CE",
"e. c #62A2CB",
"r. c #64A6D1",
"t. c #68A9D2",
"y. c None",
"u. c black",
/* pixels */
"y.y.y.y.y.y.y.y.y.y.y.y.y.y.y.y.y.y.y.y.y.y.y.y.y.y.y.y.y.y.y.y.y.y.y.y.y.y.y.y.y.y.y.y.y.y.y.y.y.y.y.y.y.y.y.y.y.y.y.",
"y.y.y.y.y.y.y.y.y.y.y.y.y.y.y.y.y.y.y.y.y.y.y.y.y.y.c c c c c c y.y.y.y.y.y.y.y.y.y.y.y.y.y.y.y.y.y.y.y.y.y.y.y.y.y.y.",
"y.y.y.y.y.y.y.y.y.y.y.y.y.y.y.y.y.y.y.y.y.y.y.z c v V R V V R T N v c z y.y.y.y.y.y.y.y.y.y.y.y.y.y.y.y.y.y.y.y.y.y.y.",
"y.y.y.y.y.y.y.y.y.y.y.y.y.y.y.y.y.y.y.y.y.b b v N R Q ~ J I | ~ W T M v b v y.y.y.y.y.y.y.y.y.y.y.y.y.y.y.y.y.y.y.y.y.",
"y.y.y.y.y.y.y.y.y.y.y.y.y.y.y.y.y.y.y.z M R W W Q ~ O.O.P _ <.O.O.~ Q W W U v z y.y.y.y.y.y.y.y.y.y.y.y.y.y.y.y.y.y.y.",
"y.y.y.y.y.y.y.y.y.y.y.y.y.y.y.y.y.y.z m R ~ &.&.&.;.4.7.^ / 6.4.4.*.&.&.O.~ P v z y.y.y.y.y.y.y.y.y.y.y.y.y.y.y.y.y.y.",
"y.y.y.y.y.y.y.y.y.y.y.y.y.y.y.y.z b b U &.=.2.4.4.%.T } Y N U T E :.4.4.,.*. .J M n z y.y.y.y.y.y.y.y.y.y.y.y.y.y.y.y.",
"y.y.y.y.y.y.y.y.y.y.y.y.y.y.z b N U V ( 1.-.R T T U P P V v V P P U T T ( ,.,.P / / N v z y.y.y.y.y.y.y.y.y.y.y.y.y.y.",
"y.y.y.y.y.y.y.y.y.y.y.y.y.M V U ~ +.) / T U U I P J B N V M M N B K P U U U / / $.>.! P V v y.y.y.y.y.y.y.y.y.y.y.y.y.",
"y.y.y.y.y.y.y.y.y.y.y.z v P ~ ~ +.=.#.P N J K V B N N N N n M N N N B J K V N T -.>. .~ ! J c y.y.y.y.y.y.y.y.y.y.y.y.",
"y.y.y.y.y.y.y.y.y.y.z v P ~ +.2.=.( I P M n N N N N N b b c v n N N N N N b N P U ] ,.1. .Q J c z y.y.y.y.y.y.y.y.y.y.",
"y.y.y.y.y.y.y.y.y.z v P ~ +.,.X.( P V V N M n N b v v h - - 9 k v v n N n M N V V P ` @.>. .Q J c y.y.y.y.y.y.y.y.y.y.",
"y.y.y.y.y.y.y.y.y.v P ~ O.>.` I P V N n v c z l - = = * + + + = = = 0 z c v v M N V P U { >. .Q J c y.y.y.y.y.y.y.y.y.",
"y.y.y.y.y.y.y.y.v U ~ O.,.` P V V N v 0 = = = * @ @ @ @ : 3 : @ @ @ @ = = = = f M N V V I ] ,. .Q K c y.y.y.y.y.y.y.y.",
"y.y.y.y.y.y.y.c M W O.,.( I K N N c 0 @ : % : % , 3 4 3 4 4 4 3 4 3 : % : % % + f b N B P U { ,. .T v z y.y.y.y.y.y.y.",
"y.y.y.y.y.y.z c / *.,.( P V B b f * $ : 4 4 e 4 : 7 e e e e e e e 4 : 4 e 4 4 : ; = h M V V I ` >.+.Y z y.y.y.y.y.y.y.",
"y.y.y.y.y.y.b b N { ( J K B b f ; : 3 4 7 7 e 4 : 3 O X O O O X + 3 : 7 e 7 7 4 , : ; h M V P K R P M b v y.y.y.y.y.y.",
"y.y.y.y.y.M U Q K M P P V b q : 7 4 , 4 7 4 + X . X . . . . . . . X . X @ 7 7 4 : 4 4 ; h M V I J M P Q P b y.y.y.y.y.",
"y.y.y.y.z P ~ &.#.V V P M q @ : 7 3 @ X X . . . . . . . . . . . . . . . . . . O % 4 4 : * h N P V P =. .! V y.y.y.y.y.",
"y.y.y.y.N U ~ 2.{ K M b g @ : 4 7 @ . . . . . . . . . . . . . . . . . . . . . . . : 7 4 : * k n N P @.1.~ P b y.y.y.y.",
"y.y.y.z J W } =.E V N k + : 4 7 @ . . . . . . . . . . . . . . . . . . . . . . . . . : 7 4 : * z N V ` >.O.~ N y.y.y.y.",
"y.y.y.z V R -.{ I V v 0 + 4 7 @   . . . . . . . . . . . . . . . . . . . . . . . . . . : 7 3 + f M V P X.>.~ N y.y.y.y.",
"y.@.c z N P %.{ K N l + @ 4 , . . . . . . . . . . . . . . . . . . . . . . . . . . . . X 4 4 + * c V J X.>.~ N z N 6.y.",
"w.6.) V M V o.{ V N l & @ , : X O . . . . . . . . . . . . . . . . . . . . . . . . . : O : : @ = c N J %.>.T M J { 9.y.",
"L Y %.+.V M @.{ P B l ; 7 3 , 2 O O . . . . . . . . . . . . . . . . . . . . . . . . + w , 4 4 = c V P %.>.V P =.} L y.",
"z M T %.^ M o.{ J N l ; 7 4 + # # + . . . . . . . . . . . . . . . . . . . . . . O o o > 2 t 4 = c B P #.{ M { } P v y.",
"z N T U I N _ ` V N l * 4 , X 6 > # O . . . . . . . . . . . . . . . . . . . . X + + 2 2 8 7 , = c N V } Y N Y U U b y.",
"y.c b M M M N N M m l * 4 4 X w > # + . . . . . . . . . . . . . . . . . . . . X # > w 5 8 t , = z v b N M m N N N c y.",
"y.z M P T W R R R T z * 4 4 X 2 ; # + . . . . . . . . . . . . . . . . . . . . X + + y w 8 t 3 = c N V P U W W W R y.y.",
"y.z M K P V N N N N l * 3 : O 6 r + o . . . . . . . . . . . . . . . . . . . . . . + s 8 8 7 : = x M N N N V P J M y.y.",
"y.y.c c c v v v c c l & % : X w S +     . . . . . . . . . . . . . . . . . . .   . y A 2 8 4 @ = z c c v v v c c c y.y.",
"y.y.y.z n N N N v M l & % : . ; S 5 O . . . . . . . . . . . . . . . . . . . . O 2 S A > 5 4 @ = c n n N N V b y.y.y.y.",
"y.y.y.z M J V N v M l & : : + w S w : O . . . . . . . . . . . . . . . . . . . : y D D > 5 6 % = c M b V J P M y.y.y.y.",
"y.y.y.z N U P V b M l & : @ + D F w , @ X . . . . . . . . . . . . . . . . . X , y S F , 5 , % = c M M P U ` B y.y.y.y.",
"y.y.y.z V R U { V N z ; 4 : @ H G 2 > @ O . . . . . . . . . . . . . . . . . O : y y S , 5 7 3 = v N N U R ,.L y.y.y.y.",
"y.y.y.z J Q R -.L V z ; e 4 $ G G w , @ O . . . . . . . . . . . . . . . . . X $ w y y 2 8 i 4 = b V N U W 2.L y.y.y.y.",
"y.y.y.z K ~ W -.Z N l & , 4 $ F F y , @ O . . . . . . . . . . . . . . . . . O ; t y r 5 5 t : = v M V R W 2.L y.y.y.y.",
"y.y.y.z J ~ ~ ,.C M l * 4 4 $ y y y , @ O . . . . . . . . . . . . . . . . X + > t S A 2 2 t , = c n J ~ ~ | V y.y.y.y.",
"y.y.y.z V W ~ ..B M l * 4 4 $ w r y , @ O . . . . . . . . . . . . . . . . X @ , w S s y w e , = c M J ~ ~ ~ N y.y.y.y.",
"y.y.y.z N W W W N M l & : : w F y w , ; O . . . . . . . . . . . . . . . . X @ > 2 y y G r 4 % = c M V W W ~ N y.y.y.y.",
"y.y.y.z N W W W N M l * 3 : 4 F w 2 , ; O . . . . . . . . . . . . . . . . X + ; , w 2 D r 4 : = c M J W W ~ N y.y.y.y.",
"y.y.y.z N W W W N M l * 4 4 4 F w > > + X . . . . . . . . . . . . . . . . X + + $ > , S y t , = c m V W W ! N y.y.y.y.",
"y.y.y.z N W O.W M N l & 3 , , D 2 o X X . . . . . . . . . . . . . . . . . . X .   O w S s 7 : = c M N W ~ ~ N y.y.y.y.",
"y.y.y.z N W 2.{ M V z * , : ; S 2 . . . . . . . . . . . . . . . . . . . . . . X + ; w 5 r 4 : = b V N W ~ ~ N y.y.y.y.",
"y.y.y.z N W 2.] M V z ; e 4 @ y w $ + . . . . . . . . . . . . . . . . . . . O @ 2 y y 5 r i 7 = b V N W ~ ~ N y.y.y.y.",
"y.y.y.z N W 2.] M V z * 7 4 @ y y , + . . . . . . . . . . . . . . . . . . . + ; w S S w r u 3 = b V N W ~ ~ N y.y.y.y.",
"y.y.y.z N W &.W M N z * 4 , ; D S 2 ; O . . . . . . . . . . . . . . . . . X + ; y S A r r e , = v N N W ~ ~ N y.y.y.y.",
"y.y.y.z N W R V b M l * 4 3 : S S 2 @ + . . . . . . . . . . . . . . . . . . O @ w S 6 2 r e , = c M M K W ~ N y.y.y.y.",
"y.y.y.z V Q P V n M l * 4 4 # r S w @ + . . . . . . . . . . . . . . . . . . O + 6 2 $ 2 r u 3 = c M N V T ~ N y.y.y.y.",
"y.y.y.z V T K B b V z * 4 4 + 5 y , @ + . . . . . . . . . . . . . . . . . . O : w + # > r u 3 = v N M V P T N y.y.y.y.",
"y.y.z z N V N N v v l * 4 : + 5 w w ; + . . . . . . . . . . . . . . . . . . O , w ; $ 5 r 7 , = z v v N N J b z y.y.y.",
"y.y.z c b m b b v N b ; 3 : + 2 ; w > + . . . . . . . . . . . . . . . . . . O , w y r 5 r 6 , 1 N N b b b M b v c y.y.",
"y.y.z V | | | [ T ] R 1 3 : O > # + ; + . . . . . . . . . . . . . . . . . . O : $ w 8 > 8 6 : q ] | | | | | | ' M y.y.",
"y.y.l L 4.6.8.6.4.4.{ < % : O ; # o $ + . . . . . . . . . . . . . . . . . . O + + # # > 8 4 @ q %.3.4.4.4.4.4.$.N y.y.",
"y.y.L M J P T P J J N * % % O > # o ; . . . . . . . . . . . . . . . . . . . O + + ; > 2 8 , @ = M B J J J J V N c y.y.",
"y.^ %.V V N N V V V m * : % O $ # o ; . . . . . . . . . . . . . . . . .   . X + O > > ; 8 4 % - N V V V V V V V P y.y.",
"~ 2.9.1.<.=.=.<.<.<.] 1 4 4 O # # + + . . . . . . . . . . . . . . . . . . . . X . # $ $ r u , q +.<.<.<.<.<.<.2.9.*.~ ",
"~ Q _ %.%.;.2.2.2.2.{ 1 4 4 + # # # o . . . . . . . . . . . . . . . . . . . . . o + # # r u , q { =.1.2.2.1.=.=._ ~ ~ ",
"<.T N I R Q ~ W R W P < 4 4 + # # # + . . . . . . . . . . . . . . . . . . . . X o # > > r u , 9 P T W Q R R T T N Q 2.",
"8.R N I T R R T I K M ; 4 4 + > $ # + . . . . . . . . . . . . . . . . . . . . X O # r > 8 u , 9 V K T T U U U P N [ 0.",
"8.R N P P P P J V N v * : : $ 2 # # + . . . . . . . . . . . . . . . . . . . . X O # r d a 7 % = M B V K I I I P M ] 0.",
"7.W b M M M M b b b z & % : $ 5 # # + . . . . . . . . . . . . . . . . . . . . X o + 2 p 8 3 @ = v b b b M N M M M [ 0.",
"q.2.Q W W W W W W Q P = % : $ 5 # O + . . . . . . . . . . . . . . . . . . . . . O # # 5 5 3 @ 0 R W W W W Q W W [ 8.q.",
"6.9.8.8.8.8.8.8.8.8.X.1 % : O # o . X . . . . . . . . . . . . . . . . . . . . . O O O > 5 , @ f ,.8.8.8.8.8.6.6.6.7.6.",
"B Q | | | | | ..~ W J * @ @ $ > X . . . . . . . . . . . . . . . . . . . . . . . . + > $ ; % @ 9 U W [ ..| | W W E E M ",
"n T Q ~ ~ ~ Q R U P V * + O O O . . .                                         .   . . . O + O 9 P I U W ~ ! ~ ~ T P v ",
"n P R W Q W R U P V N - = = = = = = = = = = = = = = = = = = = = = = = = = = = = = = = = = = = 0 V V P U R R W W T P c ",
"n I I P P P P P V N M j c n M M v v v c c v v b M v v v v v v v v v v v v v c c v v v v v v z j N N V P P P P P U P v ",
"v N N n n n n n n n b v N P W U J J V b M B V P T J J J J J J J J J J J V V M n V J J J V B M c n n n n n n n n N N c ",
"c b n M N N N N N N N V P W ~ Q W W W V N K R W ! W W W W W W W W W W W R P V N P R W W T P J N n M B B B B N N N N c ",
"v V P U W W W W W W W W Q ~ ~ ~ ~ ~ ~ P K W | 2.2.2.2.5.*.~ >.5.2.2.2.<.~ R K K U W ~ ~ Q W W U P P U U U U U U U P c ",
"b P ` 4.8.8.8.6.&. .2.8.8.6.6.6.8.*.~ P R ~ +.0.q.q.q.q.9.8.0.q.q.q.q.0.8.;.U K W ;.8.6.8.8.6.4.=.Q Q Q Q W W W T P c ",
"n T &.q.q.q.q.e.e.7.q.r.w.q.q.q.q.9.+.P W  .6.0.0.0.q.q.q.q.q.q.q.r.t.t.r.0.@.T =.9.q.q.q.r.w.w.e.e.e.9.8.8.8.+.~ R v ",
"N W *.9.9.9.9.9.q.9.9.9.9.9.9.9.9.9.*.T W ~  .+.+.O.,.9.9.9.9.9.9.9.q.q.9.9.#.W | +.+.+.8.q.e.9.q.q.q.0.9.9.9.8.6.#.M ",
"P T R W W W W W ( W W W ( ( ( ( W W R U T T T T T T R W W W W W W W W W ( ( R T T T T T W ( ) ( W W W W W W W ( ( R P "
};
