/* XPM */
static char *ZXpnaWYuY29tLWdpZi1tYWtlci0z_2[] = {
/* columns rows colors chars-per-pixel */
"59 75 256 2 ",
"   c #0B0F09",
".  c #0E120C",
"X  c #10140E",
"o  c #131512",
"O  c #171A16",
"+  c #191A17",
"@  c #1B1D1A",
"#  c #221E1B",
"$  c #1E211D",
"%  c #22221E",
"&  c #28231F",
"*  c #1C1F21",
"=  c #1D2226",
"-  c #1E252C",
";  c #1F282E",
":  c #1F2A33",
">  c #222521",
",  c #2B2522",
"<  c #252A24",
"1  c #2B2B26",
"2  c #21272D",
"3  c #2A2D2A",
"4  c #312A27",
"5  c #342D2A",
"6  c #283027",
"7  c #2C332B",
"8  c #34312E",
"9  c #38312E",
"0  c #31392F",
"q  c #212C34",
"w  c #222F3C",
"e  c #23303B",
"r  c #333533",
"t  c #3B3431",
"y  c #343C33",
"u  c #383A37",
"i  c #3B3C3A",
"p  c #374235",
"a  c #384237",
"s  c #3D433C",
"d  c #3E4A3C",
"f  c #40423F",
"g  c #414D3E",
"h  c #42503F",
"j  c #243443",
"k  c #26394B",
"l  c #263C51",
"z  c #283E50",
"x  c #2A4157",
"c  c #2B455C",
"v  c #2C4760",
"b  c #2E4B64",
"n  c #2F4E69",
"m  c #304F6A",
"M  c #2F506C",
"N  c #30516D",
"B  c #325573",
"V  c #335877",
"C  c #345B7B",
"Z  c #385F7E",
"A  c #434543",
"S  c #444D42",
"D  c #484947",
"F  c #4C4C4B",
"G  c #445241",
"H  c #485745",
"J  c #485846",
"K  c #4E504D",
"L  c #50524F",
"P  c #535453",
"I  c #545A53",
"U  c #585D57",
"Y  c #5C5C5B",
"T  c #605F5F",
"R  c #5D625C",
"E  c #616E5F",
"W  c #636463",
"Q  c #676966",
"!  c gray42",
"~  c #6F706F",
"^  c #6D786B",
"/  c gray45",
"(  c gray49",
")  c #365F80",
"_  c #376285",
"`  c #3A6484",
"'  c #376489",
"]  c #38668B",
"[  c #37688F",
"{  c #3A698E",
"}  c #3A6C93",
"|  c #3B6F98",
" . c #3F7096",
".. c #3D729B",
"X. c #3D76A1",
"o. c #3E79A6",
"O. c #3E7AA8",
"+. c #406D8E",
"@. c #416E90",
"#. c #427092",
"$. c #437295",
"%. c #447397",
"&. c #41749C",
"*. c #42769D",
"=. c #42749B",
"-. c #45799F",
";. c #4377A0",
":. c #457BA4",
">. c #497FA5",
",. c #417EAD",
"<. c #427DAA",
"1. c #487FA9",
"2. c #4380AE",
"3. c #4480AE",
"4. c #4B85AF",
"5. c #4A82AC",
"6. c #4683B0",
"7. c #4785B3",
"8. c #4A86B2",
"9. c #4B88B5",
"0. c #4D89B5",
"q. c #4C89B4",
"w. c #4B8AB9",
"e. c #4D8BB8",
"r. c #4D8CBA",
"t. c #508CB7",
"y. c #508DB9",
"u. c #4F90BE",
"i. c #5291BE",
"p. c #5394C1",
"a. c #5798C6",
"s. c #599AC7",
"d. c #5799C8",
"f. c #5B9DCB",
"g. c #5DA1CE",
"h. c #61A1CA",
"j. c #64A6D1",
"k. c #68A9D2",
"l. c #848484",
"z. c gray54",
"x. c #939393",
"c. c #9B9B9B",
"v. c gray64",
"b. c gray67",
"n. c #B0AFAF",
"m. c gray70",
"M. c gray74",
"N. c gray76",
"B. c #CDCDCD",
"V. c None",
"C. c black",
"Z. c black",
"A. c black",
"S. c black",
"D. c black",
"F. c black",
"G. c black",
"H. c black",
"J. c black",
"K. c black",
"L. c black",
"P. c black",
"I. c black",
"U. c black",
"Y. c black",
"T. c black",
"R. c black",
"E. c black",
"W. c black",
"Q. c black",
"!. c black",
"~. c black",
"^. c black",
"/. c black",
"(. c black",
"). c black",
"_. c black",
"`. c black",
"'. c black",
"]. c black",
"[. c black",
"{. c black",
"}. c black",
"|. c black",
" X c black",
".X c black",
"XX c black",
"oX c black",
"OX c black",
"+X c black",
"@X c black",
"#X c black",
"$X c black",
"%X c black",
"&X c black",
"*X c black",
"=X c black",
"-X c black",
";X c black",
":X c black",
">X c black",
",X c black",
"<X c black",
"1X c black",
"2X c black",
"3X c black",
"4X c black",
"5X c black",
"6X c black",
"7X c black",
"8X c black",
"9X c black",
"0X c black",
"qX c black",
"wX c black",
"eX c black",
"rX c black",
"tX c black",
"yX c black",
"uX c black",
"iX c black",
"pX c black",
"aX c black",
"sX c black",
"dX c black",
"fX c black",
"gX c black",
"hX c black",
"jX c black",
"kX c black",
"lX c black",
"zX c black",
"xX c black",
"cX c black",
"vX c black",
"bX c black",
"nX c black",
"mX c black",
"MX c black",
"NX c black",
"BX c black",
"VX c black",
"CX c black",
"ZX c black",
"AX c black",
"SX c black",
"DX c black",
"FX c black",
"GX c black",
"HX c black",
"JX c black",
"KX c black",
"LX c black",
"PX c black",
"IX c black",
"UX c black",
/* pixels */
"V.V.V.V.V.V.V.V.V.V.V.V.V.V.V.V.V.V.V.V.V.V.V.V.V.V.V.V.V.V.V.V.V.V.V.V.V.V.V.V.V.V.V.V.V.V.V.V.V.V.V.V.V.V.V.V.V.V.V.",
"V.V.V.V.V.V.V.V.V.V.V.V.V.V.V.V.V.V.V.V.V.V.V.V.V.V.V.b b b b b V.V.V.V.V.V.V.V.V.V.V.V.V.V.V.V.V.V.V.V.V.V.V.V.V.V.V.",
"V.V.V.V.V.V.V.V.V.V.V.V.V.V.V.V.V.V.V.V.V.V.V.c v b V } V C } } B b c c V.V.V.V.V.V.V.V.V.V.V.V.V.V.V.V.V.V.V.V.V.V.V.",
"V.V.V.V.V.V.V.V.V.V.V.V.V.V.V.V.V.V.V.V.V.n n b B } ..O._ ' ,.O...} N n n n V.V.V.V.V.V.V.V.V.V.V.V.V.V.V.V.V.V.V.V.V.",
"V.V.V.V.V.V.V.V.V.V.V.V.V.V.V.V.V.V.V.c n } ....X.O.2.2._ $.w.2.2.O.X.....} n c V.V.V.V.V.V.V.V.V.V.V.V.V.V.V.V.V.V.V.",
"V.V.V.V.V.V.V.V.V.V.V.V.V.V.V.V.V.V.c n } O.2.6.6.8.y.p.$.#.i.y.y.7.6.6.2.O.{ n c V.V.V.V.V.V.V.V.V.V.V.V.V.V.V.V.V.V.",
"V.V.V.V.V.V.V.V.V.V.V.V.V.V.V.V.c n n ] 2.7.r.y.y.4.} :.+.B { } } 8.y.y.e.7.2._ N N c V.V.V.V.V.V.V.V.V.V.V.V.V.V.V.V.",
"V.V.V.V.V.V.V.V.V.V.V.V.V.V.c n B [ C  .e.0.} } } { _ ' C n V _ _ { } }  .0.e.{ #.=.B b c V.V.V.V.V.V.V.V.V.V.V.V.V.V.",
"V.V.V.V.V.V.V.V.V.V.V.V.V.n V ] O.2.*.%.} { { { _ ) B B C B N B V ) _ { { { } $.5.w.O._ V n V.V.V.V.V.V.V.V.V.V.V.V.V.",
"V.V.V.V.V.V.V.V.V.V.V.c b ' O.O.2.9.4.' B ) _ ) V B B B V m N V B B V ) _ ) B { 8.9.2.O.O._ b V.V.V.V.V.V.V.V.V.V.V.V.",
"V.V.V.V.V.V.V.V.V.V.c b ' O.2.r.9.*.{ _ B n B B B B B n n b b m B B B B B n B _ { *.0.r.,.O._ b c V.V.V.V.V.V.V.V.V.V.",
"V.V.V.V.V.V.V.V.V.c b ' O.2.0.1.*._ C V B N m B n n b k : : q z b n n B n N B V C ' *.1.0.,.O._ b V.V.V.V.V.V.V.V.V.V.",
"V.V.V.V.V.V.V.V.V.b ' O.,.0.*.{ _ V B m b b c c : ; ; = + + + = ; ; q c c b b N B V _ { ;.0.,.O._ b V.V.V.V.V.V.V.V.V.",
"V.V.V.V.V.V.V.V.b ' O.,.0.*.' C V B n w = = - = # # # # , 4 , # # # # = - = = j N B V C ' ;.e.,.o._ v V.V.V.V.V.V.V.V.",
"V.V.V.V.V.V.V.c n | ,.0.*.{ _ B B n w # , & , & 1 4 5 4 5 5 5 4 5 4 1 & , & , @ j n B B _ { *.e.,.} n c V.V.V.V.V.V.V.",
"V.V.V.V.V.V.c c $.6.0.&.' V V m j = % , 5 5 t 5 , 9 t t t t t t t 5 , 5 t 5 5 , > = k N V V ' *.9.3.+.c V.V.V.V.V.V.V.",
"V.V.V.V.V.V.n n N :.&.) _ V m j > , 4 5 9 9 t 5 , 5 # + % # + # # 5 , 9 t 9 9 5 4 , > k N V _ _ } { N n n V.V.V.V.V.V.",
"V.V.V.V.V.N ] X._ N _ ' V m j > 9 5 , 5 9 5 & @ + % 7 3 a 7 > 7 7 % + # > 9 9 5 , 5 5 > j N V ' _ m ' X.' n V.V.V.V.V.",
"V.V.V.V.V.) O.2.8.Z C _ B j @ , 9 5 & + + % y y 7 7 6 7 d 1 $ 3 3 y y y r % + + & 5 5 , @ j B _ V _ 8.2.O.V V.V.V.V.V.",
"V.V.V.V.N ' o.r.:._ N m k @ , 5 9 & o @ 7 D L d 6 % o o + + o o o 7 y S I D 6 + o , 9 5 , * z m N _ 1.r.O.' M V.V.V.V.",
"V.V.V.V.C ..:.0. .V B x @ , 5 9 & + % y U / U y O O O + + O o O O o O y Q ( D 3 % + , 9 5 , * c B C *.0.2.O.V V.V.V.V.",
"V.V.V.V.V } 8.:.{ V n e @ 5 9 & + 1 K W / Q u O + $ $ $ $ + + $ $ + o @ A / / R D < + , 9 5 @ j m C ' >.r.O.V V.V.V.V.",
"V.t.b c B _ 5.:._ V x @ # 5 4 + 3 y Q ( ! F @ + $ $ $ $ > @ + % > < @ o > Y / l.R y < + 5 5 @ * v V ) >.e.O.B c m i.V.",
"V.p.*.C N V >.:.C B c * # , , % y A Q ! A 3 $ % < < > $ > + + % > > $ + @ 7 F / W d 7 @ , , # = b B C 5.e.} N C -.a.V.",
"V.] 5.4.C N >.:._ V c = 5 5 % 3 y D Y i O o O $ > > > $ > + @ $ $ $ $ $ o o + A Y D 7 @ @ 5 5 = v V _ 5.w.C _ 8.:.] V.",
"V.n } 5.&.n >.:.) B c = 9 9 $ 7 y 7 > + + 3 + $ > < < < < + $ < < > $ + @ 3 o + 1 y y 3 @ t 5 = v V _ 5.:.N -.1.{ b V.",
"V.N } { { B %.*.V B c * 4 4 > y 6 + + > P A @ @ $ > > > > + + % > % $ O > P F o O 6 y y $ 4 4 = c B V :.@.B { { } n V.",
"V.b n N N M B B N M x * 5 5 > y 6 $ + 3 ! ! u + > < < % > @ + $ < < > + A 5.Y O + 6 a y % 9 4 = c b n B N N B B B b V.",
"V.V.n _ } ..} } } } b * 5 5 > a 7 $ O A ! Y > $ o + < < 1 @ $ < > O o @ 3 / ! u O > G d % 9 4 = c B V _ { ......} V.V.",
"V.V.n _ _ C B B B B c * 1 , > g d $ O i P 3 A Q $ . . O % + + + .   > W 7 r T r + $ d d $ 1 , = c N B B B C _ _ N V.V.",
"V.V.v b b n b b b b x * & , % G d @ o @ r r ( l.D + X     . X . o + F z.! > 8 o o $ y a $ , & = c b b b b n b b v V.V.",
"V.V.V.V.n B B B n N c * & , > d p O 3 < O r / c.x.! P r r 3 O 7 P ! x.x.Y &   , 3 + G d $ , # = b N n B B V n V.V.V.V.",
"V.V.V.V.N ) V B b N c * , , > y 6 O W ! < i / x.M.N.m.c.v.Q u z.b.N.b.l.P 3 1 ( U O G g $ 1 , = b N n V ) _ N V.V.V.V.",
"V.V.V.V.B { _ ) n N c * , & > y 6 O P z.U 3 Y l.v.N.B.B.B.W W m.N.M.c./ Y 3 x.b.D O G g @ , , = b N N ' { *.C V.V.V.V.",
"V.V.V.V.V } { :.V B c * 5 1 > d y + 1 / x./ ( z.x.b.B.B.N.W Y m.N.v.z.l.z.( m./ > + G d $ 4 4 = b B B { } e.` V.V.V.V.",
"V.V.V.V.C o.} q.` C v = 9 t > G d $ O u l.c.x.z.z.x.m.N.M.W P c.v.z.z.z.x.c./ 3 o $ y a % t 5 = n C B { ..r.` V.V.V.V.",
"V.V.V.V.C O...q.` B c * , 9 > G d $ @ > U l.z.z.z.z.z.c.v.Y F l.z.l.z.l.z.l.A o $ < 0 7 $ t , = b B V } ..r.` V.V.V.V.",
"V.V.V.V.C O.O.r._ N c * 4 9 > g E A $ O 1 W z.x.x.z.l.l.x.U F l.l.z.x.x.z.Q + O $ F K 7 < t 1 = b N V O.O.,.C V.V.V.V.",
"V.V.V.V.B ..O.<.V N c * 5 9 > g ^ P + o > Q x.c.c.c.z.z.x.U F l.z.c.v.c.x.U o o $ U I 7 % t 4 = b N V O.O.O.V V.V.V.V.",
"V.V.V.V.B ......B N c * , , > S R ! u O A ! x.c.b.M.M.b.c.U F x.m.B.N.v.z.Y u X D ! D 7 @ 1 & = b N V ....O.V V.V.V.V.",
"V.V.V.V.B  .....B N c * 4 1 > S I P 8 O F Y ! l.z.x.b.M.n.U P b.M.m.c.l.W Y s   r U d 7 @ 4 1 = b N C .. .O.V V.V.V.V.",
"V.V.V.V.B  .....B N c * 5 9 > G a u 7 > Y Q F u 3 r P z.c.P F x.U r 3 u P ! P o r s 7 7 @ t 5 = b N V ....O.V V.V.V.V.",
"V.V.V.V.B ..2. .N B c * 1 4 > G p 7 1 A / l.F < . . o i / D i u o   . 3 W z.! r 3 3 7 a $ 5 , = b B B ..O.O.V V.V.V.V.",
"V.V.V.V.B ..r.:.N C v * 1 , > d 0 $ + A / x.z.A .   > F / A r F %   X P v.x.! u $ $ d g $ , , = n C B ..O.O.V V.V.V.V.",
"V.V.V.V.B ..r.:.N C v = t t > y < $ + A / z.c.l.P K R / l.L A / Y F Q v.M.l.! u + $ d g % t 9 = n C B ..O.O.V V.V.V.V.",
"V.V.V.V.B ..r.:.N C b * 5 9 > d 7 $ > r Y / l.l.z.l.( z.b.U P / ( z.c.v.x.! P 3 > $ d g % t 5 = n C B ..O.O.V V.V.V.V.",
"V.V.V.V.B ..6...N B c * 5 4 > G p $ 6 > F Q ! ~ ! ! l.b.c.f P z.( ! ! ! ! W i + 6 $ d g $ 5 4 = b B B ..O.O.V V.V.V.V.",
"V.V.V.V.B  .} ) n N c * 5 5 > G p $ 6 $ > r U W W ! l.( P 3 3 / ( ! W W P 3 @ + 6 $ 0 a % 5 4 = v N m _ | O.V V.V.V.V.",
"V.V.V.V.V o.' C N N c * 5 t > G p $ 6 < $ o 3 A A ~ ( U u 3 o W ( ! f A % o $ < 6 $ 3 y % t 4 = b N N C } O.V V.V.V.V.",
"V.V.V.V.B } _ V n V c * 5 9 $ y 6 $ < > 1 % o + 7 ! ( / F 8 3 / ( ! 3 O X < 3 > > + 3 y % t 4 = b B n V _ } B V.V.V.V.",
"V.V.V.c B ) B B b n c * 4 1 @ 7 < $ 6 > 1 < o o u ! / / / A i / / ! r . O 6 3 3 3 @ 3 y % 4 4 = c b b B B ) N c V.V.V.",
"V.V.V.b n N n n b B N = 4 , @ 7 < $ 6 6 6 3 > 7 ! ! / / ( D s ! / ! ! 7 1 6 6 6 3 $ 7 y $ 1 4 ; B B n n n N n n b V.V.",
"V.V.V.V <.<.<.<.} ;...- 1 , @ y 3 + < 3 3 3 < 3 K K ( ! ( D i W ( D F 3 3 3 3 3 > @ d d $ 1 , q :.<.<.<.<.<.<.:.N V.V.",
"V.V.V._ y.i.p.i.y.y.5.- & , @ d p O % > > > > o o u ! ! / D i Q ! 8 o O 1 > > > > + a d $ , # e 4.t.y.y.y.y.y.q.B V.V.",
"V.V.] m C ' } _ ) ) B = # , @ a y O > 1 3 6 6 > O < Q l./ A u ( W % o < 6 6 3 < < + 6 y $ , # = N B ) ) ) ) ) B b V.V.",
"V.` 8.C V B B V V V N = , , % y < + $ $ > 1 3 1 < D l./ ( A s ! l.i > 1 3 < > $ $ O 6 y $ , & ; B V V V V V V V ' V.V.",
"O.9.a.w.w.8.8.w.w.w.:.2 5 9 > d 7 O $ $ $ % > $ < D R r R s 3 3 Q f > % > $ $ $ $ O 3 y % t 4 e 6.w.w.w.w.w.w.e.a.7.O.",
"O.X.*.5.5.8.r.r.r.r.1.2 5 9 > G p O $ + + $ $ $ % r r $ a 7 + + u 7 $ $ $ O + $ $ O y a % t 4 q :.8.e.r.r.r.8.9.*.O.O.",
"e.| N ' } X.O...| | ' - 5 9 > G p O + 7 y < > < > + O 1 G 7 > > O % < > 1 a 7 O + O d g % t 5 q _ } ..X.| | } } B ..r.",
"a. .N { } | | } { _ B = 5 9 > G p o 7 g y > > > > $ + 1 G 7 > > + > > > > p g 7 O o d g % t 4 ; V _ } } { { { ' N X.d.",
"a. .N ' ' ' ' ) V V m = , 1 $ y 7 7 G y > $ $ $ $ $ + 1 S 7 > > + $ $ $ $ > a h G 6 d d $ 4 & - N V V _ { { { ' N X.a.",
"a...n N N N N n n n b * & , @ 7 d G a 3 $ $ $ > 7 y $ 6 S 7 > < $ y 6 $ $ % 6 a d y a y @ , # = b n n n N N N N n :.d.",
"f.i.X.............X.} = & , @ 7 a a y $ O > < < < 0 H g G 7 > d H 6 + > < $ $ y y y y 7 @ , # q  .X.............;.p.f.",
"i.a.p.p.p.p.p.p.p.p.4.; # , @ 6 7 y 6 + + $ $ $ $ 1 a a g 7 > y a < $ $ $ $ $ 6 y y y 7 + , # e 0.p.p.p.p.p.i.i.i.a.i.",
"B X.<.<.<.<.<.<.O. .' = # # @ 6 6 0 d d G J H H H d 6 7 d 7 $ 6 y g H G a H H d y 7 6 3 + # # : {  .O.<.<.<... .}  .N ",
"n } X.O.O.O.o.} { { ) = + + @ < > < < < < 1 1 1 < < > < y < + < < < 3 3 3 1 1 < < > < > @ + + ; _ ' { } O.o.O.O.} ' b ",
"n ' } X.X.X.} { ' C V ; - ; ; ; - - ; ; ; ; ; ; ; ; ; ; ; ; ; ; ; ; ; q q ; ; ; ; ; ; ; ; ; = : V V ' { | } ..X.} ' b ",
"n ' { _ _ _ _ _ V B B k b n B N n n n b b n n n N n n n n n n n n n n n n n b b n n n n n n b l B B V _ _ _ _ _ { ' b ",
"b B B m m m m m m m n b B _ ..} ) ) ) m N V C _ } _ ) ) ) ) ) ) ) ) ) ) ) C N n V ) ) ) ) V B b n m m m m m m m B B b ",
"b n n N B B B B B B B V _ ..O.O.......V B ) | ..o.........................{ V B ' } ....} _ ) B m N B V V V V V V B b ",
"b V _ { ................X.O.O.O.O.O.O._ ) | <.r.r.r.r.u.7.O.7.u.r.r.r.r.O..._ ) { ..O.O.X.....{ _ ' { { { { { { { ' b ",
"b _  .r.p.p.p.p.6.<.r.p.p.i.p.p.i.8.O._ } O.,.d.f.f.f.f.a.i.a.f.f.f.f.f.p.9.} ) } 8.i.i.p.p.i.y.8.X.X.X.X.X.X...} ' b ",
"n } 3.f.f.f.f.j.h.a.f.j.f.f.f.f.f.a.7.' ..O.r.f.f.f.f.f.f.f.f.f.f.j.k.k.j.f.5.} 6.a.f.f.f.j.g.g.j.h.h.d.p.p.p.6.O. .n ",
"N ..3.a.a.a.a.d.f.d.d.d.d.a.a.a.a.d.8.} ..O.,.3.3.2.9.a.a.a.a.a.a.s.f.f.d.d.8.| <.3.3.3.p.f.h.d.f.f.f.f.d.d.a.p.i.q.N ",
"' } }  . . . . . . . . . . . . . . .} } } } } } } } }  . . . . . . . . . . .} } } } } }  .&.=.&. . . . . . . .&.&. .' "
};
