/* XPM */
static char *ZXpnaWYuY29tLWdpZi1tYWtlci0z_43[] = {
/* columns rows colors chars-per-pixel */
"59 75 256 2 ",
"   c #0F120C",
".  c #15110F",
"X  c #151210",
"o  c #181513",
"O  c #161915",
"+  c #1A1916",
"@  c #1C1C1A",
"#  c #211D1B",
"$  c #1E211D",
"%  c #24221E",
"&  c #28221F",
"*  c #1E1F20",
"=  c #1E2124",
"-  c #1D252C",
";  c #1F282F",
":  c #1F2730",
">  c #1F2933",
",  c #232322",
"<  c #2B2522",
"1  c #252924",
"2  c #2C2A25",
"3  c #2B2C2A",
"4  c #302A27",
"5  c #332D29",
"6  c #2D322C",
"7  c #33332D",
"8  c #39312E",
"9  c #32382E",
"0  c #202B35",
"q  c #222E39",
"w  c #22313D",
"e  c #343433",
"r  c #3C3532",
"t  c #353A32",
"y  c #3B3A35",
"u  c #373938",
"i  c #3C3C3B",
"p  c #413A36",
"a  c #374135",
"s  c #394337",
"d  c #3F403F",
"f  c #3F4D3D",
"g  c #40413F",
"h  c #243542",
"j  c #26394A",
"k  c #293D4D",
"l  c #273C50",
"z  c #283E52",
"x  c #294156",
"c  c #2C465E",
"v  c #2C485F",
"b  c #2D4760",
"n  c #2E4B64",
"m  c #2F4E69",
"M  c #304F6A",
"N  c #2F506C",
"B  c #31516E",
"V  c #325573",
"C  c #335877",
"Z  c #345B7B",
"A  c #385D7A",
"S  c #434343",
"D  c #474947",
"F  c #4B4C4B",
"G  c #4F504F",
"H  c gray32",
"J  c #575857",
"K  c #575758",
"L  c #585958",
"P  c #646464",
"I  c #365F81",
"U  c #366184",
"Y  c #3A6485",
"T  c #376589",
"R  c #38668B",
"E  c #39698E",
"W  c #3A6C93",
"Q  c #3B6F98",
"!  c #3F7096",
"~  c #3D729C",
"^  c #3D76A1",
"/  c #3E79A6",
"(  c #3E7AA8",
")  c #427296",
"_  c #417298",
"`  c #447498",
"'  c #42769F",
"]  c #41749B",
"[  c #45789D",
"{  c #4076A0",
"}  c #4278A1",
"|  c #4479A1",
" . c #457BA4",
".. c #467CA5",
"X. c #437AA4",
"o. c #487DA4",
"O. c #487EA5",
"+. c #407DAB",
"@. c #477FA8",
"#. c #427FAE",
"$. c #427DAA",
"%. c #487FA8",
"&. c #4280AE",
"*. c #4480AD",
"=. c #4A82AC",
"-. c #4B85AF",
";. c #4482B0",
":. c #4482B1",
">. c #4684B2",
",. c #4B87B3",
"<. c #4C86B0",
"1. c #4C87B3",
"2. c #4886B4",
"3. c #4F89B3",
"4. c #4A88B5",
"5. c #4C88B4",
"6. c #4B8AB9",
"7. c #4C8BB8",
"8. c #4D8DBB",
"9. c #4D8CBA",
"0. c #508CB7",
"q. c #508DB9",
"w. c #518FBC",
"e. c #4F90BE",
"r. c #5191BE",
"t. c #5595C2",
"y. c #5293C1",
"u. c #5798C6",
"i. c #599AC6",
"p. c #579AC8",
"a. c #5A9DCA",
"s. c #609FC9",
"d. c #5DA0CC",
"f. c #61A2CC",
"g. c #64A6D1",
"h. c #68A9D2",
"j. c None",
"k. c black",
"l. c black",
"z. c black",
"x. c black",
"c. c black",
"v. c black",
"b. c black",
"n. c black",
"m. c black",
"M. c black",
"N. c black",
"B. c black",
"V. c black",
"C. c black",
"Z. c black",
"A. c black",
"S. c black",
"D. c black",
"F. c black",
"G. c black",
"H. c black",
"J. c black",
"K. c black",
"L. c black",
"P. c black",
"I. c black",
"U. c black",
"Y. c black",
"T. c black",
"R. c black",
"E. c black",
"W. c black",
"Q. c black",
"!. c black",
"~. c black",
"^. c black",
"/. c black",
"(. c black",
"). c black",
"_. c black",
"`. c black",
"'. c black",
"]. c black",
"[. c black",
"{. c black",
"}. c black",
"|. c black",
" X c black",
".X c black",
"XX c black",
"oX c black",
"OX c black",
"+X c black",
"@X c black",
"#X c black",
"$X c black",
"%X c black",
"&X c black",
"*X c black",
"=X c black",
"-X c black",
";X c black",
":X c black",
">X c black",
",X c black",
"<X c black",
"1X c black",
"2X c black",
"3X c black",
"4X c black",
"5X c black",
"6X c black",
"7X c black",
"8X c black",
"9X c black",
"0X c black",
"qX c black",
"wX c black",
"eX c black",
"rX c black",
"tX c black",
"yX c black",
"uX c black",
"iX c black",
"pX c black",
"aX c black",
"sX c black",
"dX c black",
"fX c black",
"gX c black",
"hX c black",
"jX c black",
"kX c black",
"lX c black",
"zX c black",
"xX c black",
"cX c black",
"vX c black",
"bX c black",
"nX c black",
"mX c black",
"MX c black",
"NX c black",
"BX c black",
"VX c black",
"CX c black",
"ZX c black",
"AX c black",
"SX c black",
"DX c black",
"FX c black",
"GX c black",
"HX c black",
"JX c black",
"KX c black",
"LX c black",
"PX c black",
"IX c black",
"UX c black",
/* pixels */
"j.j.j.j.j.j.j.j.j.j.j.j.j.j.j.j.j.j.j.j.j.j.j.j.j.j.j.j.j.j.j.j.j.j.j.j.j.j.j.j.j.j.j.j.j.j.j.j.j.j.j.j.j.j.j.j.j.j.j.",
"j.j.j.j.j.j.j.j.j.j.j.j.j.j.j.j.j.j.j.j.j.j.j.j.j.j.b b b b b b j.j.j.j.j.j.j.j.j.j.j.j.j.j.j.j.j.j.j.j.j.j.j.j.j.j.j.",
"j.j.j.j.j.j.j.j.j.j.j.j.j.j.j.j.j.j.j.j.j.j.j.c b n I W V U W W B n b c j.j.j.j.j.j.j.j.j.j.j.j.j.j.j.j.j.j.j.j.j.j.j.",
"j.j.j.j.j.j.j.j.j.j.j.j.j.j.j.j.j.j.j.j.j.m m n Z Q ^ ( Z W +./ ~ W m n m n j.j.j.j.j.j.j.j.j.j.j.j.j.j.j.j.j.j.j.j.j.",
"j.j.j.j.j.j.j.j.j.j.j.j.j.j.j.j.j.j.j.c V Q ~ ~ ^ +.&.#.Z O.4.&.#./ ~ ~ ~ R n c j.j.j.j.j.j.j.j.j.j.j.j.j.j.j.j.j.j.j.",
"j.j.j.j.j.j.j.j.j.j.j.j.j.j.j.j.j.j.b B Q ( :.:.:.4.w.t.E [ r.w.8.>.:.:.&./ U n c j.j.j.j.j.j.j.j.j.j.j.j.j.j.j.j.j.j.",
"j.j.j.j.j.j.j.j.j.j.j.j.j.j.j.j.c m m W :.1.8.q.q.@.W @.Y Z W W ! 5.q.q.5.>.+.Z V M c j.j.j.j.j.j.j.j.j.j.j.j.j.j.j.j.",
"j.j.j.j.j.j.j.j.j.j.j.j.j.j.c m Z W C } 8.-.W W W R U T Z n Z U T W W W ' 5.4.U [ W V b j.j.j.j.j.j.j.j.j.j.j.j.j.j.j.",
"j.j.j.j.j.j.j.j.j.j.j.j.j.B Z W ( :._ ` W E E R U Z C V Z M B C C U T E E E ] ) 3.>.^ I Z b j.j.j.j.j.j.j.j.j.j.j.j.j.",
"j.j.j.j.j.j.j.j.j.j.j.c m E ( ( >.3.=.U Z I U Z C V V V V n B C V V Z U U Z V _ <.4.#.( ^ Z b j.j.j.j.j.j.j.j.j.j.j.j.",
"j.j.j.j.j.j.j.j.j.j.c m E ( :.8.,.! R I B M V V V V B m m b n M V V V V V m V T E  .7.6.#.^ Z b j.j.j.j.j.j.j.j.j.j.j.",
"j.j.j.j.j.j.j.j.j.c m E / :.,.@.! U Z C V B M V m m b h > > 0 x n n B V m B V Z I T | =.4.+.^ Z b j.j.j.j.j.j.j.j.j.j.",
"j.j.j.j.j.j.j.j.j.m E / :.,.! R U C V n n b b x > ; : = @ @ @ - ; ; w c c n n B V Z T E ..4.+.^ Z b j.j.j.j.j.j.j.j.j.",
"j.j.j.j.j.j.j.j.m W / :.1.! U Z C V b 0 - - - = # # # # < 2 & # # # @ - - - - j B C Z Z E  .5.+.^ Z j.j.j.j.j.j.j.j.j.",
"j.j.j.j.j.j.j.b B ~ :.5.! R I V V b 0 # < & < & 2 4 5 5 5 5 5 5 4 4 < & < & & * j m V Z T E  .4.#.R b j.j.j.j.j.j.j.j.",
"j.j.j.j.j.j.c n [ >.4.! T Z C n q = % 2 5 5 r 4 < 8 r r r r r r r 5 < 8 r 5 5 < = - l V Z Z E | 1.*.Y c j.j.j.j.j.j.j.",
"j.j.j.j.j.j.m m C O.W I U V n q , < 4 5 8 8 r 5 < 2 + + + + + o # 4 < r r 8 8 5 2 < , k B Z U T ! U B m n j.j.j.j.j.j.",
"j.j.j.j.j.V W ~ Z B T U C n q < 8 4 2 8 r 5 + o o o X X X X X X X o o o & 8 8 5 2 8 5 , k V Z R Z B E ^ I j.j.j.j.j.j.",
"j.j.j.j.b R ( :.=.Z I U m q # 2 8 4 # o o o X X X X X X X X X X X X X X X o o + & 5 5 < = l Z U Z E ,.#.^ V j.j.j.j.j.",
"j.j.j.j.V W ( r.] I B m h # 2 8 5 @ X X X X X X X X X X X X X X X X X X X X X X o < 8 5 & = x M V T -.4./ U m j.j.j.j.",
"j.j.j.c R ~ @.,.W Z V j @ 2 8 5 # X X X X X X X X X X X X X X X X X X X X X X X X X < 8 5 & - b V I | 4.#.^ V j.j.j.j.",
"j.j.j.c I W 5.' T Z b > # 5 5 # . X X X X X X X X X X X X X X X X X X X X X X X X X o 2 8 2 * j B I T -.1.^ V j.j.j.j.",
"j.o.c c Z T 3.' I V l @ & 5 < X X X X X X X X X X X X X X X X X X X X X X X X X X X X o 5 4 @ ; n Z U -.1.^ B c C j.j.",
"j.r._ V V Z -.] Z V l @ & 2 & o o X X X X X X X X X X X X X X X X X X X X X X X X o 5 @ < < # ; n V U 3.2.E N U O.i.j.",
"j.E ,.@.Z V -.' U V l , 8 2 3 3 + + X X X X X X X X X X X X X X X X X X X X X X o O 1 e < 8 4 0 n Z T 3.:.Z R 4.| Y j.",
"j.V W -.E B -.' Z V l , r 4 @ $ @ @ o X X X X X X X X X X X X X X X X X X X X + @ O O 1 3 y 4 > n Z U 3.] B .. .U b j.",
"j.V W E T V o.! V B l , 5 < + d 3 @ @ o X X X X X X X X X X X X X X X X X X X + @ @ $ 1 9 8 < ; n V Z =.Y Z W E R n j.",
"j.b m B B N C V B m l , 8 2 + D 6 @ @ o X X X X X X X X X X X X X X X X X X X + , 3 3 3 t y 2 ; c n m V B B V V V b j.",
"j.c V T W Q W W Q E x , 8 4 + d 3 @ @ o X X X X X X X X X X X X X X X X X X X + $ @ d 6 t y 2 ; n V Z U W ~ ~ ~ W j.j.",
"j.j.B U U Z V V V V l * 4 < + g D $ O o X X X X X X X X X X X X X X X X X X X O O $ i 6 9 7 < ; b V V V V I U I m j.j.",
"j.j.b b b n n n b n k @ < & + e F ,   . X X X X X X X X X X X X X X X X X X X . + S e 1 9 5 # ; c b b n n n b b b j.j.",
"j.j.j.c B V V V n B l @ < & X + S u @ X X X X X X X X X X X X X X X X X X X X + e F 7 $ 9 4 # ; n M M V V Z n j.j.j.j.",
"j.j.j.c V I Z V n B l @ 2 & O $ S e 3 @ X X X X X X X X X X X X X X X X X X X 7 D H d , 9 5 & ; n M M Z I U m j.j.j.j.",
"j.j.j.c Z E U Z m B l @ < # + S H e 3 , + X X X X X X X X X X X X X X X X X + u F H H 1 6 2 & ; n M V T W ' V j.j.j.j.",
"j.j.j.c I W W | C C l , 5 < @ P P e 3 , @ X X X X X X X X X X X X X X X X X @ e S F F 1 9 8 2 ; N V Z E ! 5.A j.j.j.j.",
"j.j.j.c R ^ W 3.A Z z , r 4 @ P P S 3 , @ X X X X X X X X X X X X X X X X X @ 1 S D u 1 t p 4 ; V V Z E ^ 8.A j.j.j.j.",
"j.j.j.c R ( ! 3.Z V l @ 5 4 @ G L D 5 , @ X X X X X X X X X X X X X X X X o @ 1 S D 3 1 7 r & ; M B I W ^ 8.A j.j.j.j.",
"j.j.j.c T ( / 5.C B l * 8 4 @ 6 S D 5 , @ X X X X X X X X X X X X X X X X + , 3 S F 6 1 6 r < ; n m U / / +.V j.j.j.j.",
"j.j.j.c Z ^ ( X.V B l * 8 4 @ 1 i D 5 , @ X X X X X X X X X X X X X X X X + < 3 S F 6 3 9 r < ; n m U / ( ^ V j.j.j.j.",
"j.j.j.c Z ~ ! ~ V B l @ < & i J S e 3 1 @ X X X X X X X X X X X X X X X X + < 3 e S e L e 5 & ; n m U ~ ^ ^ V j.j.j.j.",
"j.j.j.c Z ~ Q ~ V B l * 5 < e K u 3 3 1 @ X X X X X X X X X X X X X X X X @ , < 3 i 1 F e 5 < ; n m U ~ ~ ^ V j.j.j.j.",
"j.j.j.c Z ~ ~ Q B B l , 8 4 e H e 1 1 , @ X X X X X X X X X X X X X X X X o , , , 3 3 F y r 2 ; n m U ~ ^ ^ V j.j.j.j.",
"j.j.j.c Z ~ &.W B V l @ 4 < 3 H e O X + X X X X X X X X X X X X X X X X X X @ o . , S D t 8 < ; m B Z ~ ( ^ V j.j.j.j.",
"j.j.j.c Z ^ 8.] B I x * 4 & % D e O O X X X X X X X X X X X X X X X X X X X o + @ 1 i e t 5 < ; V V Z ~ ( ^ V j.j.j.j.",
"j.j.j.c Z ^ r.] B Z x , r 4 $ S i 3 , o X X X X X X X X X X X X X X X X X X @ 1 3 i D 9 t p 5 ; V V Z ~ ( ^ V j.j.j.j.",
"j.j.j.c Z ^ r.] B I z , 8 4 $ S F e < o X X X X X X X X X X X X X X X X X o # 1 u F d 6 t p 2 ; V V Z ~ ( ^ V j.j.j.j.",
"j.j.j.c Z ^ :.W M V l , 5 < % F H e 1 @ X X X X X X X X X X X X X X X X X + # 1 S F 6 6 t 8 < ; m V Z ~ ( ^ V j.j.j.j.",
"j.j.j.c Z ~ W Z n B l = 5 2 % y D e 1 , o X X X X X X X X X X X X X X X X o @ 1 S F 1 3 t r < ; n m B U ~ ^ V j.j.j.j.",
"j.j.j.c U ^ U Z m B l , 8 4 % 6 D S 3 , o X X X X X X X X X X X X X X X X X @ 1 i 6 , 6 t p < ; n m V Z W ^ V j.j.j.j.",
"j.j.j.c Z W Z C m Z z , 8 4 @ 3 6 3 < , o X X X X X X X X X X X X X X X X X # e S $ $ 1 t y < ; N V B Z T W M j.j.j.j.",
"j.j.j.c V Z V V b n l , 5 < $ 1 , u 3 , o X X X X X X X X X X X X X X X X X # i S , , 6 t 8 < : b n m V C I n c j.j.j.",
"j.j.c b N N m m n C n , 5 & @ 1 $ u 3 , o X X X X X X X X X X X X X X X X X @ u S e 6 6 t 5 < 0 C V m m m B m n b j.j.",
"j.j.c U +.+.+.X.W X.R , 4 & + , + % 1 , o X X X X X X X X X X X X X X X . X @ e , 6 6 1 9 5 < j $.+.+.+.+.+.+.~ M j.j.",
"j.j.c E w.r.y.r.q.r.` = < & + % $ O , # X X X X X X X X X X X X X X X X . . @ 1 + % % 1 9 4 # k <.q.q.q.q.q.q.=.B j.j.",
"j.j.A B I R W U I U m @ & # + , $ O , o X X X X X X X X X X X X X X X X X X @ < + 1 1 3 9 2 # 0 B Z I I I I Z B c j.j.",
"j.` O.Z Z V V Z Z Z n * < & + $ $ O , o X X X X X X X X X X X X X X X X X X + , O 1 1 1 9 4 & q Z Z Z Z Z Z Z Z Y j.j.",
"( 8.t.6.6.,.4.6.6.9.! , 8 4 + $ $ + @ X X X X X X X X X X X X X X X X X X X X + O $ $ , t p < k 1.6.6.6.6.6.6.8.u.;.( ",
"( { [ =.=.4.8.8.8.8._ , 8 4 @ $ $ $ + X X X X X X X X X X X X X X X X X X X X o @ $ $ % t p < j %.,.8.8.8.7.,.,.' / ( ",
"4.R V R W / / ~ Q ~ Z , 8 4 , , $ $ @ X X X X X X X X X X X X X X X X X X X X + @ $ $ 1 t p < w T W ^ ~ Q Q W R V X.8.",
"y.E V E W Q Q W T U n , 8 4 + , $ $ @ o X X X X X X X X X X X X X X X X X X X + @ $ t 1 t p < w Z U W W E E E U V @.a.",
"y.E V T T T T Z Z V v @ 2 < % 1 $ $ @ o X X X X X X X X X X X X X X X X X X X + @ $ a f t 8 # 0 V C Z U R R R U V +.p.",
"y.W m B B B B m m m x @ < & 1 6 $ $ @ o X X X X X X X X X X X X X X X X X X X + @ $ 6 s 9 4 # > n m m B B B B N V *.a.",
"a.7.^ ~ ~ ~ ~ ~ ~ ^ U = < & % 3 $ O @ X X X X X X X X X X X X X X X X X X X X + + % 3 6 6 2 # h ~ ~ ~ ~ ~ ~ ~ ~ X.t.a.",
"r.t.y.y.y.y.y.y.y.y.` = & & @ $ O o + X X X X X X X X X X X X X X X X X X X X + + @ $ 3 3 2 # k q.y.y.y.y.y.r.r.y.t.r.",
"Z / +.+.+.+.+.$./ ! Z * # @ % 1 + o X X X X X X X X X X X X X X X X X X X X X X o < 9 3 1 & # h W ~ X.+.+.+.~ ! ! W M ",
"B W / ( ( ( ^ W E T V * @ + @ @ X X . . . . . . . . . . . . . . . . . . . . . X . X o o @ # + w R R W ! / / / / W I b ",
"B R W ^ ^ ~ W E U Z B - ; ; ; ; ; ; ; - - - - - - - - - - - - - - - - - - - - - - - - - ; ; = h Z Z T E ! W ~ ~ W I b ",
"B R T U U U U U Z C N l n M V m n n n b n n n m B n n n n n n n n n n n n n b b n n n n n n c x V V Z U U U U U E U b ",
"n V V M M M M M M M n n Z T ~ R I I Z m V C Z R W I I I I I I I I I I I I A M B Z I I I Z C B b M M M M M M M B V V b ",
"b m M V C V V V V V V Z R ^ ( ^ ~ ~ Q C V U ~ ^ / ~ ~ ~ ~ ~ ~ ~ ~ ~ ~ ~ W T C Z T W ~ ~ E U Z V M V C C C C C C C V b ",
"n Z U W ~ ~ ~ ~ ~ ~ ~ ~ ^ ( ( ( ( ( / U U ~ #.8.8.8.8.8.:.( 6.8.8.8.8.4./ W U U E ^ ( ( ^ ~ ~ R U T E E E E E E W U b ",
"B U } w.y.y.y.r.&.#.e.y.y.r.y.y.r.:./ U Q ( :.p.a.a.a.a.t.y.p.a.a.a.a.p.y.,.T U ! 4.y.r.y.y.w.0.=.^ ^ ^ ^ ^ ^ ~ W I b ",
"B W 1.a.a.a.a.g.f.t.d.g.a.a.a.a.a.t.+.U ^ #.y.p.p.p.a.a.a.a.a.a.a.g.h.h.g.p. .W 4.p.a.a.d.g.d.f.f.s.s.i.y.y.y.&./ W b ",
"Z ~ 1.u.u.u.i.a.a.i.i.p.u.u.u.u.u.u.*.W ^ ( &.*.*.&.8.i.u.u.u.u.i.a.a.a.p.u.=.~ +.*.&.:.t.a.f.i.a.a.a.i.i.i.u.y.y.%.M ",
"T W W ! ! ! ! ! ! ! ! ! ! ! ! ! ! ! W W W W W W W W W ! ! ! ! ! ! ! ! ! ! ! W W W W W W ! ] ] ! ! ! ! ! ! ! ! ] ] W U "
};
