/* XPM */
static char *ZXpnaWYuY29tLWdpZi1tYWtlci0z_45[] = {
/* columns rows colors chars-per-pixel */
"59 75 128 2 ",
"   c #14110F",
".  c #151210",
"X  c #191614",
"o  c #161814",
"O  c #191916",
"+  c #1C1C19",
"@  c #211D1B",
"#  c #1D211C",
"$  c #23211E",
"%  c #28221F",
"&  c #1D1E20",
"*  c #1E2123",
"=  c #1D242B",
"-  c #1F282F",
";  c #1F2932",
":  c #222322",
">  c #2A2522",
",  c #252A24",
"<  c #2D2925",
"1  c #202529",
"2  c #23282C",
"3  c #2B2C2A",
"4  c #302A26",
"5  c #342D2A",
"6  c #2D322B",
"7  c #34312D",
"8  c #38312D",
"9  c #32382F",
"0  c #212C35",
"q  c #212E39",
"w  c #23313D",
"e  c #333432",
"r  c #3C3532",
"t  c #353932",
"y  c #3D3935",
"u  c #3B3C3B",
"i  c #403A36",
"p  c #423C38",
"a  c #384036",
"s  c #3D403D",
"d  c #3F4C3D",
"f  c #40403F",
"g  c #263644",
"h  c #283846",
"j  c #263A4B",
"k  c #273C51",
"l  c #283E53",
"z  c #294055",
"x  c #2C455D",
"c  c #2D4760",
"v  c #2E4A64",
"b  c #2F4E69",
"n  c #304F6A",
"m  c #2F506B",
"M  c #30516D",
"N  c #325674",
"B  c #335877",
"V  c #345B7B",
"C  c #385E7C",
"Z  c #3A607F",
"A  c #424342",
"S  c #474847",
"D  c #4B4B4A",
"F  c gray32",
"G  c #5B5B5B",
"H  c #5F605F",
"J  c gray39",
"K  c #365F80",
"L  c #366184",
"P  c #396486",
"I  c #37668B",
"U  c #38658A",
"Y  c #39688E",
"T  c #3A6C93",
"R  c #3B6F98",
"E  c #3F7097",
"W  c #3D729B",
"Q  c #3D76A2",
"!  c #3E7AA8",
"~  c #406D8F",
"^  c #426F92",
"/  c #447497",
"(  c #40739B",
")  c #437499",
"_  c #45769A",
"`  c #42749B",
"'  c #45789E",
"]  c #4076A1",
"[  c #4378A0",
"{  c #4479A2",
"}  c #467EA7",
"|  c #437AA3",
" . c #487EA4",
".. c #407DAB",
"X. c #427FAC",
"o. c #487FA8",
"O. c #4380AF",
"+. c #4481AF",
"@. c #4981AB",
"#. c #4A83AD",
"$. c #4A83AC",
"%. c #4481B0",
"&. c #4482B0",
"*. c #4583B1",
"=. c #4B87B3",
"-. c #4C86B1",
";. c #4887B4",
":. c #4D89B3",
">. c #4C88B4",
",. c #4A8AB8",
"<. c #4F8CB8",
"1. c #4D8DBB",
"2. c #508DB9",
"3. c #518FBC",
"4. c #4F90BE",
"5. c #5392BF",
"6. c #5291BE",
"7. c #5595C2",
"8. c #5394C1",
"9. c #5798C6",
"0. c #5899C6",
"q. c #5A9DCA",
"w. c #5DA0CE",
"e. c #62A1CB",
"r. c #64A6D1",
"t. c #68A9D2",
"y. c None",
"u. c black",
/* pixels */
"y.y.y.y.y.y.y.y.y.y.y.y.y.y.y.y.y.y.y.y.y.y.y.y.y.y.y.y.y.y.y.y.y.y.y.y.y.y.y.y.y.y.y.y.y.y.y.y.y.y.y.y.y.y.y.y.y.y.y.",
"y.y.y.y.y.y.y.y.y.y.y.y.y.y.y.y.y.y.y.y.y.y.y.y.y.y.v v v v v v y.y.y.y.y.y.y.y.y.y.y.y.y.y.y.y.y.y.y.y.y.y.y.y.y.y.y.",
"y.y.y.y.y.y.y.y.y.y.y.y.y.y.y.y.y.y.y.y.y.y.y.x v v V R V K R T N v x x y.y.y.y.y.y.y.y.y.y.y.y.y.y.y.y.y.y.y.y.y.y.y.",
"y.y.y.y.y.y.y.y.y.y.y.y.y.y.y.y.y.y.y.y.y.b b v N R Q ! K Y ..! W T b v b v y.y.y.y.y.y.y.y.y.y.y.y.y.y.y.y.y.y.y.y.y.",
"y.y.y.y.y.y.y.y.y.y.y.y.y.y.y.y.y.y.y.x M R W W Q ! O.O.L ' >.O.O.! W W W I v x y.y.y.y.y.y.y.y.y.y.y.y.y.y.y.y.y.y.y.",
"y.y.y.y.y.y.y.y.y.y.y.y.y.y.y.y.y.y.x m R ! &.&.&.;.2.7.~ _ 5.3.2.*.&.&.O.! I v x y.y.y.y.y.y.y.y.y.y.y.y.y.y.y.y.y.y.",
"y.y.y.y.y.y.y.y.y.y.y.y.y.y.y.y.x b b T &.=.1.2.2.@.T } U N Y T E :.2.2.>.*.X.K M n x y.y.y.y.y.y.y.y.y.y.y.y.y.y.y.y.",
"y.y.y.y.y.y.y.y.y.y.y.y.y.y.x b B T V ) <.-.R T T I P P V v V P P Y T T ` >.>.U _ / N v y.y.y.y.y.y.y.y.y.y.y.y.y.y.y.",
"y.y.y.y.y.y.y.y.y.y.y.y.y.M V Y ! +.) / T Y Y I P V B N V M M N B L P Y Y Y / / #.;.Q P V v y.y.y.y.y.y.y.y.y.y.y.y.y.",
"y.y.y.y.y.y.y.y.y.y.y.x v I ! ! &.=.#.P B K L V N N N N B v M N N N V L L V N T =.>.X.! Q V v y.y.y.y.y.y.y.y.y.y.y.y.",
"y.y.y.y.y.y.y.y.y.y.x v I ! &.1.=.E I L M n N N N N N b b v v n N N N N N b N P Y { >.<.X.Q K v y.y.y.y.y.y.y.y.y.y.y.",
"y.y.y.y.y.y.y.y.y.x v I ! &.>.o.E P V V N M n N b v v j ; ; 0 l v v b N n M N V V U [ @.>.X.Q K v y.y.y.y.y.y.y.y.y.y.",
"y.y.y.y.y.y.y.y.y.b I ! %.>.( I P V N n v v x z ; - - * + + + = - - q x x v v M N V U Y { >.X.Q V v y.y.y.y.y.y.y.y.y.",
"y.y.y.y.y.y.y.y.v Y ! +.>.( P V V N v q = = = * @ @ @ @ > 4 % @ @ @ @ = = = = g M B V V I { >.X.Q K y.y.y.y.y.y.y.y.y.",
"y.y.y.y.y.y.y.v M W &.>.( I L N N v 0 @ > % > % < 4 5 5 5 5 5 5 5 4 > % > % % + g b N B P Y { >.X.Y v y.y.y.y.y.y.y.y.",
"y.y.y.y.y.y.x v ) *.>.( U V B b w * $ > 5 5 r 5 > 8 r r r r r r r 5 > 8 r 5 5 > : = j M V V I { ;.+.P x y.y.y.y.y.y.y.",
"y.y.y.y.y.y.b b N  .E L L B v w : > 4 5 8 8 r 5 > < O O O O O O @ 5 > 8 r 8 8 5 < > : j M V P P E U M b v y.y.y.y.y.y.",
"y.y.y.y.y.M T Q V M U U V v w : 8 5 < 8 8 5 + X . . . . . . . . . X . X @ 8 8 5 < 5 5 : j M V I V M U Q P b y.y.y.y.y.",
"y.y.y.y.x P ! &.#.V V P M w @ > 8 4 @ O X . . . . . . . . . . . . . . . . X . O % 5 5 > * j B P V Y =.X.Q N y.y.y.y.y.",
"y.y.y.y.N Y ! 1.` K M b g @ > 5 8 @ . . . . . . . . . . . . . . . . . . . . . . . > 8 5 > * z n N P #.,.! P b y.y.y.y.",
"y.y.y.x P W } =.R V N k + > 5 8 @ . . . . . . . . . . . . . . . . . . . . . . . . . > 8 5 % * v N V ` >.O.Q N y.y.y.y.",
"y.y.y.x V R :.[ I V v q + 5 5 @   . . . . . . . . . . . . . . . . . . . . . . . . . . > 8 4 & g M V U @.>.Q N y.y.y.y.",
"y. .v x N U #.[ L B z + @ 5 > . . . . . . . . . . . . . . . . . . . . . . . . . . . . X 5 4 + = v V L @.>.Q N x N 5.y.",
"w.5.) V M V @.[ V N z & % < % . o . . . . . . . . . . . . . . . . . . . . . . . . . < O > > @ = v N L #.>.T M L  .0.y.",
"P Y #.@.V N @.[ P N z : 8 5 3 3 O O . . . . . . . . . . . . . . . . . . . . . . . . : e 3 8 5 = v V U #.;.V I ;. .P y.",
"x M T #.T M @.{ V N z : 8 5 + # + + . . . . . . . . . . . . . . . . . . . . . . O o o , 3 y 5 - v V P #.' M { } U v y.",
"x N T Y U N ' ( B N z * 5 < O e 3 # + . . . . . . . . . . . . . . . . . . . . O + + , 3 9 8 < = v N V  .Y N Y Y Y b y.",
"y.v b M M M N N M m l * 5 5 O u 3 + + . . . . . . . . . . . . . . . . . . . . O # 3 e 6 t y < = x v b N M m M N N v y.",
"y.x M U T R R R R T x * 5 5 O e , # + . . . . . . . . . . . . . . . . . . . . O # + u 9 9 y < = v N V P T W W W T y.y.",
"y.x M L P V N N N N z * 4 > O e u # o . . . . . . . . . . . . . . . . . . . . . . + s 6 9 7 > = v N N N N K P K b y.y.",
"y.y.v v v v v v v v l + > > O e S #     . . . . . . . . . . . . . . . . . . .   o u u 3 9 5 @ = x v v v v v v v c y.y.",
"y.y.y.x n N N N v M z + % > . # S e O . . . . . . . . . . . . . . . . . . . . O 7 S u : 6 5 @ = v n b N N V v y.y.y.y.",
"y.y.y.x M K V N v M z & > > O 3 S e < O . . . . . . . . . . . . . . . . . . . < f D S , 6 5 % = v M n V K P M y.y.y.y.",
"y.y.y.x N Y P V b M z & > @ + S F e < $ O . . . . . . . . . . . . . . . . . O 7 A S F , 6 < % = v M M U T ` B y.y.y.y.",
"y.y.y.x V R T { B N x : 5 > + J G e < $ + . . . . . . . . . . . . . . . . . + < u S D 3 6 8 < - b N N Y R >.Z y.y.y.y.",
"y.y.y.x P Q R :.C V x : r 5 $ H G y < @ + . . . . . . . . . . . . . . . . . O : u A u 3 9 p 5 = M V N Y W 1.Z y.y.y.y.",
"y.y.y.x P ! E :.C N z & 4 5 $ F F A 3 @ + . . . . . . . . . . . . . . . . O + : u A e 3 6 r > = v M V R Q 1.Z y.y.y.y.",
"y.y.y.x L ! ! >.C M z & 5 5 @ y u A 3 @ O . . . . . . . . . . . . . . . . O @ , y S u 3 3 y > = v b K ! ! ..B y.y.y.y.",
"y.y.y.x V Q ! | N M z * 5 5 @ 7 y h 3 $ + . . . . . . . . . . . . . . . . O : < y S u y e r < = v M K ! ! Q N y.y.y.y.",
"y.y.y.x B W E W N M z & > > e F A e < : + . . . . . . . . . . . . . . . . O $ < 3 u y G y 5 % = v n K W W ! N y.y.y.y.",
"y.y.y.x B W E E N M z * 4 > 7 F e 3 < : + . . . . . . . . . . . . . . . . O @ : < y < D y 5 > = v n L W W ! N y.y.y.y.",
"y.y.y.x B W W W N M z * 8 5 5 F e , , $ O . . . . . . . . . . . . . . . . O + + : < < S u y < = v m V W Q Q N y.y.y.y.",
"y.y.y.x B W O.R M N z & 4 < 3 F 3 o . O . . . . . . . . . . . . . . . . . . O O   + y S a 8 > = v M N W ! Q N y.y.y.y.",
"y.y.y.x B W 1.` M V x * < % : S 3 . . . . . . . . . . . . . . . . . . . . . O O + : e 6 t 5 > = m V N W ! Q N y.y.y.y.",
"y.y.y.x B W 1.` M V x : r 5 $ s y : + . . . . . . . . . . . . . . . . . . . + : 3 u s 6 t p 5 = m V N W ! Q N y.y.y.y.",
"y.y.y.x B W 1.` M V x * 8 5 @ u A 3 $ . . . . . . . . . . . . . . . . . . . + : e D A e t i < = m V N W ! Q N y.y.y.y.",
"y.y.y.x B W &.E M N z * 5 < : D S e : + . . . . . . . . . . . . . . . . . O + : u D u t t r < = v N N W ! Q N y.y.y.y.",
"y.y.y.x V W R V b M z * 5 4 : A S 3 : @ . . . . . . . . . . . . . . . . . . O : y D 3 3 t r < = v n M P W ! N y.y.y.y.",
"y.y.y.x V Q I V n M z * 8 5 # e S y : + . . . . . . . . . . . . . . . . . . + $ e 3 $ 3 t i < = v M N V T Q N y.y.y.y.",
"y.y.y.x V T K B b V x * 8 5 + 6 y 3 : + . . . . . . . . . . . . . . . . . . + 3 y + # , t i < = b N M V P T M y.y.y.y.",
"y.y.x x N V N N v v z * 5 > + 6 3 e < + . . . . . . . . . . . . . . . . . . + 5 y : : 6 t 8 < - c v v N N K b x y.y.y.",
"y.y.x v b m b b v N b : 4 > + , : e < + . . . . . . . . . . . . . . . . . . + 5 e y e 6 t 5 > 0 N N b b b M b v v y.y.",
"y.y.x K ......| T | T 1 4 > O , + # , @ . . . . . . . . . . . . . . . . . . + 3 $ 9 6 , 9 5 > g | ............] M y.y.",
"y.y.x U 2.5.8.5.2.2.' = % > O : # o : + . . . . . . . . . . . . . . . . . . + $ + $ # , 9 5 @ g #.2.2.2.2.2.2.$.M y.y.",
"y.y.Z M K U T P K K M * % % O : # o : . . . . . . . . . . . . . . . . . . . + $ + : , 3 9 < @ - M B K K K K V N v y.y.",
"y.^ @.V V N N V V V b * > % O $ # o : . . . . . . . . . . . . . . . . . . . O + O , , : 9 5 % ; N V V V V V V V P y.y.",
"! 1.7.,.,.=.=.,.,.,.` 2 8 5 O # # + + . . . . . . . . . . . . . . . . . . . . O o # $ $ t i < g =.,.,.,.,.,.,.1.9.&.! ",
"! Q ' #.#.>.1.1.1.1.' 2 8 5 + # # # o . . . . . . . . . . . . . . . . . . . . . O + # # t i < g } =.<.1.1.<.=.=.' ! ! ",
">.T N I R Q ! W R W L 1 8 5 # $ # # + . . . . . . . . . . . . . . . . . . . . O O # , , t i < q P T Q Q R R T Y N Q 1.",
"7.T N I T R R T I L m : 5 5 + : $ # + . . . . . . . . . . . . . . . . . . . . O O # t , 9 i < 0 V P T T Y Y Y U N | 0.",
"7.T N U U U U K V N v * > > $ 3 # # + . . . . . . . . . . . . . . . . . . . . O O # t d u 8 % ; M B V P I I I P N | 0.",
"7.R b M M M M b b b x & % > $ 6 # # + . . . . . . . . . . . . . . . . . . . . O O # 6 a 9 4 @ - v b b b M M M M M ..0.",
"q.1.Q W W W W W W Q P * % > $ 6 # o + . . . . . . . . . . . . . . . . . . . . O O # : 6 6 4 @ w E W W W W W W W | 7.q.",
"5.7.7.7.7.7.7.7.7.8. .= % % O # o . O . . . . . . . . . . . . . . . . . . . . o O O + , 6 < @ h >.8.7.7.7.7.5.5.5.7.6.",
"V Q ..........| ! E V * @ + $ , O . . . . . . . . . . . . . . . . . . . . . . . . $ 3 : , % @ q Y W ! ......W E E R M ",
"M T Q ! ! ! Q R Y U V * + O + O . . .                                         .   . . . + + O 0 P U T W ! ! ! Q T P v ",
"M U R Q Q Q R Y P V N - - - = - - - - = = = = = = = = = = = = = = = = = = = = = = = = = - - = q V V U Y R R W W T P v ",
"M I I P P P P P V B M k v b M b v v v c v v v b M v v v v v v v v v v v v v v v v v v v v v x l N N V P P P P P Y P v ",
"v N N n n n n n n n b v B U W Y K K V b M B V P T K K K K K K K K K K K K V n n V K K K V B M v b n n n n n n n N N c ",
"v b n M N N N N N N N V I W ! Q W W W V N P R W Q W W W W W W W W W W W R U B B U R W W Y P K N n M N B B B B B N N c ",
"v V P T W W W W W W W W Q ! ! ! ! ! ! P L W ..1.1.1.1.4.*.! >.4.1.1.1.,.! R L L Y W ! ! Q W W I P I Y Y Y Y Y Y Y P v ",
"b P ` 2.8.8.8.5.O.X.1.8.8.5.8.8.5.*.! P R ! &.0.q.q.q.q.7.8.0.q.q.q.q.0.8.;.Y L E >.8.5.8.8.5.2.#.Q Q Q Q Q Q W T P v ",
"M T =.q.q.q.q.r.e.7.q.r.q.q.q.q.q.9.+.I W X.5.0.0.0.q.q.q.q.q.q.q.r.t.t.r.0.o.R =.9.q.q.w.r.w.w.e.e.e.0.7.7.8.+.! R v ",
"N W *.9.9.9.0.q.q.0.0.0.0.9.9.9.9.9.&.T W ! O.+.+.O.<.0.9.9.9.9.0.0.q.q.q.0.#.E ..+.+.&.7.q.e.0.q.q.q.0.0.0.0.8.8.#.M ",
"I T R E E E E E E E E E E E E E E E R T T T T T T T R E E E E E E E E E E E R T T T T T E E ) E E E E E E E E ( ( R P "
};
