/* XPM */
static char *ZXpnaWYuY29tLWdpZi1tYWtlci0z_15[] = {
/* columns rows colors chars-per-pixel */
"59 75 256 2 ",
"   c #0D120C",
".  c #13110E",
"X  c #151411",
"o  c #191613",
"O  c #161916",
"+  c #1A1916",
"@  c #1B1D1A",
"#  c #211D1B",
"$  c #1E211D",
"%  c #22221E",
"&  c #28221F",
"*  c #1E1F20",
"=  c #1E2124",
"-  c #1D242B",
";  c #1F282E",
":  c #1F2932",
">  c #222521",
",  c #2B2522",
"<  c #252A24",
"1  c #2C2A25",
"2  c #212629",
"3  c #2B2D29",
"4  c #302A26",
"5  c #342D2A",
"6  c #2B3027",
"7  c #2C322B",
"8  c #2F382E",
"9  c #33332D",
"0  c #38312D",
"q  c #31392F",
"w  c #202B34",
"e  c #212E39",
"r  c #23313E",
"t  c #333432",
"y  c #3D3532",
"u  c #343B33",
"i  c #383B36",
"p  c #3C3C3B",
"a  c #403E3D",
"s  c #364034",
"d  c #394337",
"f  c #3C443A",
"g  c #3E4B3C",
"h  c #40433F",
"j  c #414E3E",
"k  c #253644",
"l  c #263A4C",
"z  c #283B4D",
"x  c #273E53",
"c  c #294156",
"v  c #2C455D",
"b  c #2D4760",
"n  c #2E4B64",
"m  c #2F4E69",
"M  c #304F6A",
"N  c #2F506C",
"B  c #30516D",
"V  c #325674",
"C  c #335876",
"Z  c #345B7B",
"A  c #395E7C",
"S  c #424342",
"D  c #484645",
"F  c #464945",
"G  c #494847",
"H  c #4C4C4B",
"J  c #504F4E",
"K  c #445341",
"L  c #485845",
"P  c #4E504D",
"I  c #4C584A",
"U  c #50514F",
"Y  c #515D4F",
"T  c #535453",
"R  c #585757",
"E  c #565855",
"W  c #595857",
"Q  c #5C5C5B",
"!  c #546152",
"~  c #5D635C",
"^  c #60615F",
"/  c #636463",
"(  c #686665",
")  c #666865",
"_  c #6C6C6B",
"`  c #6F716E",
"'  c #747474",
"]  c #7B7B7B",
"[  c #807F7E",
"{  c #80807F",
"}  c #365F80",
"|  c #366185",
" . c #3A6486",
".. c #376489",
"X. c #38668A",
"o. c #37688E",
"O. c #39688E",
"+. c #3A6C93",
"@. c #3B6F98",
"#. c #3E7096",
"$. c #3D729C",
"%. c #3D75A1",
"&. c #3E78A6",
"*. c #3E7AA8",
"=. c #406C8D",
"-. c #417195",
";. c #457599",
":. c #40759C",
">. c #41749B",
",. c #46799F",
"<. c #4479A2",
"1. c #487DA4",
"2. c #477EA8",
"3. c #407DAC",
"4. c #427DAA",
"5. c #497FA9",
"6. c #4380AE",
"7. c #4481AE",
"8. c #4A83AC",
"9. c #4482B0",
"0. c #4684B3",
"q. c #4D87B1",
"w. c #4886B4",
"e. c #4A86B2",
"r. c #4C88B4",
"t. c #4B89B5",
"y. c #4C8AB8",
"u. c #4E8BB8",
"i. c #4D8CBA",
"p. c #508CB7",
"a. c #508DB9",
"s. c #508EBA",
"d. c #4F90BE",
"f. c #5191BE",
"g. c #5394C2",
"h. c #5798C6",
"j. c #599AC6",
"k. c #5799C8",
"l. c #5A9DCB",
"z. c #5EA1CE",
"x. c #61A0CA",
"c. c #65A6D1",
"v. c #68A9D2",
"b. c #848484",
"n. c #8B8B8B",
"m. c #939393",
"M. c #9B9B9B",
"N. c #A2A2A2",
"B. c #ACACAC",
"V. c None",
"C. c black",
"Z. c black",
"A. c black",
"S. c black",
"D. c black",
"F. c black",
"G. c black",
"H. c black",
"J. c black",
"K. c black",
"L. c black",
"P. c black",
"I. c black",
"U. c black",
"Y. c black",
"T. c black",
"R. c black",
"E. c black",
"W. c black",
"Q. c black",
"!. c black",
"~. c black",
"^. c black",
"/. c black",
"(. c black",
"). c black",
"_. c black",
"`. c black",
"'. c black",
"]. c black",
"[. c black",
"{. c black",
"}. c black",
"|. c black",
" X c black",
".X c black",
"XX c black",
"oX c black",
"OX c black",
"+X c black",
"@X c black",
"#X c black",
"$X c black",
"%X c black",
"&X c black",
"*X c black",
"=X c black",
"-X c black",
";X c black",
":X c black",
">X c black",
",X c black",
"<X c black",
"1X c black",
"2X c black",
"3X c black",
"4X c black",
"5X c black",
"6X c black",
"7X c black",
"8X c black",
"9X c black",
"0X c black",
"qX c black",
"wX c black",
"eX c black",
"rX c black",
"tX c black",
"yX c black",
"uX c black",
"iX c black",
"pX c black",
"aX c black",
"sX c black",
"dX c black",
"fX c black",
"gX c black",
"hX c black",
"jX c black",
"kX c black",
"lX c black",
"zX c black",
"xX c black",
"cX c black",
"vX c black",
"bX c black",
"nX c black",
"mX c black",
"MX c black",
"NX c black",
"BX c black",
"VX c black",
"CX c black",
"ZX c black",
"AX c black",
"SX c black",
"DX c black",
"FX c black",
"GX c black",
"HX c black",
"JX c black",
"KX c black",
"LX c black",
"PX c black",
"IX c black",
"UX c black",
/* pixels */
"V.V.V.V.V.V.V.V.V.V.V.V.V.V.V.V.V.V.V.V.V.V.V.V.V.V.V.V.V.V.V.V.V.V.V.V.V.V.V.V.V.V.V.V.V.V.V.V.V.V.V.V.V.V.V.V.V.V.V.",
"V.V.V.V.V.V.V.V.V.V.V.V.V.V.V.V.V.V.V.V.V.V.V.V.V.V.V.b b b b n V.V.V.V.V.V.V.V.V.V.V.V.V.V.V.V.V.V.V.V.V.V.V.V.V.V.V.",
"V.V.V.V.V.V.V.V.V.V.V.V.V.V.V.V.V.V.V.V.V.V.V.v b n Z +.C } +.+.V b v v V.V.V.V.V.V.V.V.V.V.V.V.V.V.V.V.V.V.V.V.V.V.V.",
"V.V.V.V.V.V.V.V.V.V.V.V.V.V.V.V.V.V.V.V.V.m m n V $.%.*.Z o.3.*.$.+.N n m n V.V.V.V.V.V.V.V.V.V.V.V.V.V.V.V.V.V.V.V.V.",
"V.V.V.V.V.V.V.V.V.V.V.V.V.V.V.V.V.V.V.v B +.$.$.%.*.6.6.| ,.y.6.6.*.$.$.$.o.n v V.V.V.V.V.V.V.V.V.V.V.V.V.V.V.V.V.V.V.",
"V.V.V.V.V.V.V.V.V.V.V.V.V.V.V.V.V.V.v N +.*.9.9.9.w.a.g.=.;.f.s.a.0.9.9.6.*.X.n v V.V.V.V.V.V.V.V.V.V.V.V.V.V.V.V.V.V.",
"V.V.V.V.V.V.V.V.V.V.V.V.V.V.V.V.v m n +.9.e.i.a.a.8.+.2. .V o.+.#.r.a.a.r.0.3.Z B M v V.V.V.V.V.V.V.V.V.V.V.V.V.V.V.V.",
"V.V.V.V.V.V.V.V.V.V.V.V.V.V.v m V +.C :.u.q.@.+.+.o.| | Z n Z | | o.+.+.:.r.u...;.-.V b v V.V.V.V.V.V.V.V.V.V.V.V.V.V.",
"V.V.V.V.V.V.V.V.V.V.V.V.V.N Z o.*.9.>.;.+.o.o.o.| Z V V Z B B V C | | o.o.o.-.-.8.w.&.| Z n V.V.V.V.V.V.V.V.V.V.V.V.V.",
"V.V.V.V.V.V.V.V.V.V.V.v n o.*.*.9.r.8.| C } | Z V V V V C m B V V V Z | | Z V +.q.t.3.*.&.Z b v V.V.V.V.V.V.V.V.V.V.V.",
"V.V.V.V.V.V.V.V.V.V.v n o.*.9.i.e.>.o.| B M V V V V V m m b n M V V V V V m V ..o.<.u.i.3.%.Z b v V.V.V.V.V.V.V.V.V.V.",
"V.V.V.V.V.V.V.V.V.v n o.*.9.r.2.>.| Z Z V B M V m n n l : : w x n n M V m B V Z } ..<.8.r.3.%.} b v V.V.V.V.V.V.V.V.V.",
"V.V.V.V.V.V.V.V.V.n o.*.7.r.>.o.| Z V m n n v c : ; ; = @ @ @ - ; ; e v v n n B V Z X.o.<.r.3.%.} b V.V.V.V.V.V.V.V.V.",
"V.V.V.V.V.V.V.V.n o.*.7.r.$.| Z Z V n e - - - = # # # # , 4 & # # # # - - - - k B V Z Z o.<.u.3.%.} v V.V.V.V.V.V.V.V.",
"V.V.V.V.V.V.V.b M $.7.r.>.o.| V V b w # , & , & 1 4 5 4 5 5 5 5 4 4 , & , & , @ k m V C ..o.<.u.3.o.n v V.V.V.V.V.V.V.",
"V.V.V.V.V.V.v b ;.9.r.>...Z C m r = % 1 5 5 y 4 , 0 y y y y y y y 5 , 0 y 5 5 , * = l B Z Z o.<.t.7. .v V.V.V.V.V.V.V.",
"V.V.V.V.V.V.m m V 1.#.} | V m r > , 4 5 0 0 y 5 , 1 + + + + + + @ 5 , y y 0 0 5 4 , > z B Z | | $...B m n V.V.V.V.V.V.",
"V.V.V.V.V.B +.%.Z B ....Z m r > 0 4 1 0 0 5 # + + + X X X X X X X o o + & 0 0 5 , 5 5 > l B Z o.} B ..%.| m V.V.V.V.V.",
"V.V.V.V.v | *.7.8.Z Z | B r # , 0 4 # + + # < % % % @ X X X X X X X @ < < + + @ & 5 5 , = l C | Z  .t.3.&.V V.V.V.V.V.",
"V.V.V.V.V o.*.f.:.} B m k # , 0 0 & + 3 i t 3 % @ X X o X X X X X X < < i i t > X , 0 5 , = c M V ..8.y.*.| m V.V.V.V.",
"V.V.V.v | $.4.e.@.Z V x @ , 5 0 & > i ^ ^ p 3 O X X X + X X X X X X X @ S ~ Q f > @ , 0 5 & = b V Z :.t.6.*.V V.V.V.V.",
"V.V.V.v Z +.r.<.o.Z n e @ 5 0 & % f / ' G 3 @ @ @ @ + + X X X X + + @ @ 7 G / / U t @ , 0 4 @ k B Z X.8.t.*.V V.V.V.V.",
"V.8.b v V | q.<.| V c @ # 5 , @ 8 P ` _ f $ @ $ $ @ + + X X X X + $ > $ > p E ] ` h 3 + 5 4 @ - n Z } 8.t.&.V v B f.V.",
"V.f.>.Z B Z 8.<.Z V c @ & , & > f T W p 3 > > > > $ + + X X X X + @ > $ $ > i / _ P 8 + , , # - n V } e.t.+.M | 1.j.V.",
"V.O.8.7.Z B 8.<.| C c > 0 4 > 8 h F p @ O $ % % > $ + + X X X + + @ $ $ @ O O t E P q @ # 0 5 - n Z X.8.w.Z ..t.<. .V.",
"V.B +.8.+.B 8.<.Z V c > y 5 > u q > @ > 3 $ > > 3 % @ @ X X X @ @ $ > $ $ > @ @ > 7 u < @ y 5 - n C | e.,.B 2.2...b V.",
"V.V +.o...B ,.>.V V c * 5 1 > 8 > + i T i $ $ % > $ @ + X X X + @ @ % $ > t p $ o > u u $ 5 , - b V Z 5. .V +.o.+.n V.",
"V.b m B B N V V B m c * 0 5 > 8 > $ h _ T 7 $ > > $ + + X X X + @ $ > < t P W t O > u u % y 1 - v n n V B B V V V b V.",
"V.v B ..+.$.+.+.+.+.v * 0 5 < u 3 7 S / T @ @ @ @ $ @ @ X X X @ @ @ @ O > G E H > $ K f % y 1 - b V Z | +.$.$.$.+.V.V.",
"V.V.B | | Z V V V V c * 4 , 3 g 7 3 p S P 7 f + X X X + X X X + X     X 7 T S t > $ j f @ 4 , - b V V V V } | | M V.V.",
"V.V.b b b n n n b n c @ , , 3 j 7 @ > 3 P _ Q t X .     . X X . . X O p E Q h . X @ u u $ 1 # - v b b n n n b b b V.V.",
"V.V.V.v M V V V n B c @ & , < f < O % > W b.b.' H p 1 1 @ . X + < p T _ _ E 3 > 3 $ K f @ 1 # - n B M V V Z n V.V.V.V.",
"V.V.V.v B } Z V n B c @ , , > q > 3 G i W n.m.n.m.] / E 9 X X 5 G ) n.{ ' U p _ _ 3 K f $ 1 & - n B M Z } | B V.V.V.V.",
"V.V.V.v V o.| Z m B c * , & > q > S / S F ] n.n.n.m.b.Q 3 X X p T ' n.n.' U ` m._ 3 K f @ , & - n M B ..o.<.C V.V.V.V.",
"V.V.V.v Z +.o.<.C Z c = 5 , 3 d < h / ' ] b.n.n.] n.[ / 3 . X p T ' ] m.n.b.M.] f @ K f @ 4 1 - m V V o.+.i.A V.V.V.V.",
"V.V.V.v | &.+.r.A } c = y 5 7 j 7 1 G b.m.n.] ] ' ] _ E 3 . X p U / ' b.n.m.b.G @ @ s u > y 5 - B Z V o.$.i.A V.V.V.V.",
"V.V.V.v | *.$.r.A V c @ 4 5 3 j 7 @ t _ b.b.' ' ' _ R H 3 . X p J W _ ' b.b./ 7 @ > q 8 % y & - m B Z +.$.i.A V.V.V.V.",
"V.V.V.v } *.*.i.Z B c * 5 5 3 ! T 1 @ p ' n.] ] ' / T H 3 . X p J W ' ] n.' T 7 @ i f 7 1 y , - n M } *.*.3.C V.V.V.V.",
"V.V.V.v Z %.*.3.V B c * 5 5 3 ~ ~ 7 O p ' M.m.b.] ' ^ H 3 . X p T _ b.M.m.' H 1 @ p h 7 > y 1 - n B } *.*.*.V V.V.V.V.",
"V.V.V.v V $.$.$.V B c @ , , 3 Y ) P i H ] m.M.m.m.n.' J 3 . X p Q n.M.B.m.] R % 7 Q F 7 @ 4 & - n B } $.$.*.V V.V.V.V.",
"V.V.V.v V $.@.$.V B c * 5 , 3 I R S i T _ ' b.n.b.] [ Q 5 . X a _ n.M.n.b._ H @ > H f 3 @ 4 , - n M } $.$.*.V V.V.V.V.",
"V.V.V.v V $.$.$.B B c * 0 5 3 g f p f Q T p t p G T ^ E t . X p R H G t S E E 3 < f i 7 # y 1 - n M Z $.%.*.V V.V.V.V.",
"V.V.V.v V $.6.@.m V c * 4 1 3 g u S G _ / t @ @ > t t D t . X p < 1 . X p / _ E 3 t f u % 5 , - n B V $.*.*.V V.V.V.V.",
"V.V.V.v V $.f.:.m } v * 4 > < s < i S ' ] E t O > p h F t . X p t 3 O @ / b.n.E > $ K f @ , , - B Z V $.*.*.V V.V.V.V.",
"V.V.V.v V $.d.:.B } c > y 5 > 8 > t S _ n.] _ S G W R H t . X p G T T / m.N.n.T > $ K f % y 5 - B Z V $.*.*.V V.V.V.V.",
"V.V.V.v V $.f.:.B } v * 0 5 3 u < 3 f ~ ] b.' _ ' / E ^ t . X p G Q ' n.m.b._ p < > K f % y 1 - B Z V $.*.*.V V.V.V.V.",
"V.V.V.v V $.0.$.B C c * 5 1 3 g 7 $ i W _ _ Q / / W Q ( t . X S H G Q / _ _ T 3 < < K f % 5 1 - m V V $.*.*.V V.V.V.V.",
"V.V.V.v V $.+.Z n B c * 5 4 3 g 7 $ < 3 S Q / W T Q H p 1 . X , H G / / R F t @ < > s s % 0 1 - n B B | $.*.V V.V.V.V.",
"V.V.V.v Z *.| Z m B c * 0 5 3 g 7 > < $ 3 7 R S H _ G < > X X + H Q / H h 3 $ $ 3 > 8 u % y 4 - n B V Z +.*.V V.V.V.V.",
"V.V.V.v Z +.} Z m Z c * 0 5 > 8 < > < < $ O p p Q _ W t < . X 3 T / ~ h t $ $ > > $ 8 u % y 4 - m V B Z ..+.B V.V.V.V.",
"V.V.V.v V Z V V n n c * 5 , > 7 > > 3 3 $ $ p G / / E G 5 . X t G / ) G t $ > 3 < > 8 u % 5 1 - b n n V V } m v V.V.V.",
"V.V.V.b m B m m n V m = 5 , > 7 > > 7 3 > G S / / / T H t . X t F / _ _ i $ 7 7 7 > u u @ 4 , w C V m m m B m n b V.V.",
"V.V.V.Z 3.3.3.4.O.4.@.> 4 , > 8 $ $ < < > f 3 E H _ H H t . X t S _ E / % $ 3 3 3 $ j f @ 4 , r 4.3.3.3.3.3.3.<.B V.V.",
"V.V.V. .f.f.g.f.a.s.1.= & , < d < $ > > $ $ $ i S / U D t . X t S E p i $ $ > > > $ g f @ 1 # k q.p.a.a.a.a.a.8.B V.V.",
"V.V. .B } ..+.| } } V * & & 3 u > $ 3 3 3 $ 3 P p W W G t . X t J t t 3 $ 7 3 < 3 % 8 u @ , # ; B C } } } } Z V b V.V.",
"V.=.8.Z Z V C Z Z Z m * , > > 7 $ @ > > 3 < 3 G U / S H t . X t S H p H % < 3 % $ @ 7 u @ , & : C Z Z Z Z Z Z Z  .V.V.",
"*.i.h.y.y.e.e.y.y.y.<.2 0 5 3 u > @ $ $ $ > @ $ S R @ p 3 . X > % F 7 H $ $ % $ $ @ 7 u % y 1 k w.y.y.y.y.y.y.i.k.9.*.",
"*.%.,.8.8.t.i.i.i.i.<.2 0 5 3 g < @ @ @ $ $ $ @ 3 u o 3 % . X + + 3 > t $ @ @ $ $ @ d d % y 1 r 5.e.i.i.i.u.e.e.:.*.*.",
"y.+.B o.+.%.*.$.@.$.| = 0 5 7 g < > 6 7 < > % $ $ + + 7 < . X % + o @ $ 3 8 7 $ @ @ K f % y 1 w ..+.$.%.@.@.+.+.B &.i.",
"g.+.V o.+.@.@.+.o.} B = 0 5 3 g < > u 8 > > $ $ $ @ + 7 < . X % + O @ % > 7 u u $ O K f % y 1 w Z | +.+.o.o.o...B 4.l.",
"g.+.B o.....o.} Z V n * , , > q 7 u u > $ $ $ @ $ @ + 7 < . X % O O @ $ $ > 7 d K s L f % 5 & ; V C Z | o.o.o.| B 4.j.",
"g.+.m B B B B m m m v @ & , % s j d 7 > $ > 7 > 7 @ @ 7 < . X % + @ < $ $ $ < u g f f 8 @ 1 # ; n m m N B B B B B 3.j.",
"l.i.%.$.$.$.$.$.$.%...= & , $ u d 7 > $ > < < 8 < q 6 7 < . X % 7 7 $ @ $ > > q u u u 7 @ 1 # e $.$.$.$.$.$.$.$.4.g.l.",
"f.h.g.g.g.g.g.g.g.g.1.= & > $ 8 u 7 % $ $ @ % < > 3 < 7 < X X % < 3 $ @ @ @ $ 3 q q u 7 @ , # k a.g.g.g.g.g.f.f.f.g.f.",
"Z *.3.3.3.3.3.4.*.$.} = # # $ 7 8 u j L K u g q 8 > % 6 < X X @ % < q 8 7 u j K s q 7 3 @ # # w +.$.4.3.3.3.$.$.$.$.B ",
"m +.%.*.*.*.%.+.o.o.Z * # + @ < > < 3 < 3 $ $ $ @ @ @ < % . . + @ @ @ @ $ @ > < 3 < < > + @ + : ....o.$.*.&.*.*.+.| b ",
"B o.+.%.%.%.+.o.| Z V - ; ; ; ; - ; ; ; ; ; ; ; ; ; - ; - - - - ; ; ; ; ; - ; ; ; ; ; ; ; ; - e Z Z ..o.$.+.$.$.+.| b ",
"M o.o.| | | | | Z C B l b m V M n n n b n n n m B n n n n n n n n n n n n n b b n n n n n n v x V V Z | | | | | o.| b ",
"n C V M M M M M M M m n C ..$.o.} } Z m B C Z | +.} } } } } } } } } } } Z Z M M Z } } } Z C V b M M M M M M M M V V b ",
"b m m V V V V V V V V Z ..%.*.%.$.$.$.Z V | $.$.&.$.$.$.$.$.$.$.$.$.$.$.+...C V ..@.$.$.o.| } V M B C C C C C C C V b ",
"n Z | +.$.$.$.$.$.$.$.$.%.*.*.*.*.*.*.| | $.3.i.i.i.i.i.0.*.y.d.i.i.d.y.*.$.| | o.%.*.*.$.$.$.o.| ..o.o.o.o.o.o.o.| b ",
"m | :.a.g.g.g.f.7.3.i.g.g.f.f.f.f.0.*.| +.*.6.j.l.l.l.l.h.f.j.l.l.l.l.j.g.w.o.| $.t.g.f.g.g.f.a.e.%.%.%.%.%.%.$.+.| b ",
"B +.e.l.l.l.l.x.x.h.l.c.l.l.l.l.l.h.7.| $.3.f.j.j.j.l.l.l.l.l.l.l.c.v.v.c.j.2.+.w.k.l.l.l.c.l.z.x.x.x.j.g.g.g.7.*.+.b ",
"V $.0.h.h.h.h.j.l.j.j.j.j.h.h.j.h.h.7.+.$.*.6.7.7.6.u.h.h.h.h.h.j.l.l.l.j.j.8.$.3.7.6.7.g.l.x.j.l.l.l.j.j.j.j.f.f.8.M ",
"X.+.@.$.$.$.$.$.$.$.$.$.>.$.$.$.$.$.@.+.+.+.+.+.+.+.@.$.$.$.$.$.$.$.$.$.>.$.@.+.+.+.+.+.$.>.>.$.$.$.$.$.$.$.$.>.>.@.| "
};
