/* XPM */
static char *ZXpnaWYuY29tLWdpZi1tYWtlci0z_31[] = {
/* columns rows colors chars-per-pixel */
"59 75 256 2 ",
"   c #0D110B",
".  c #14120F",
"X  c #151210",
"o  c #191614",
"O  c #161915",
"+  c #191916",
"@  c #1C1C1A",
"#  c #211E1B",
"$  c #1D211C",
"%  c #23221E",
"&  c #28221F",
"*  c #1C1F22",
"=  c #201F20",
"-  c #1E2124",
";  c #1D242B",
":  c #1E2730",
">  c #1F2832",
",  c #242522",
"<  c #2B2522",
"1  c #252A25",
"2  c #2D2925",
"3  c #2B2C2B",
"4  c #312A27",
"5  c #332D29",
"6  c #2D332B",
"7  c #33332E",
"8  c #39312E",
"9  c #31382F",
"0  c #202B35",
"q  c #212D38",
"w  c #22313D",
"e  c #333433",
"r  c #3D3532",
"t  c #353A34",
"y  c #383A37",
"u  c #3B3B3A",
"i  c #403835",
"p  c #374135",
"a  c #384336",
"s  c #3C433B",
"d  c #3E4C3C",
"f  c #40413F",
"g  c #404E3E",
"h  c #243645",
"j  c #273B4E",
"k  c #273D50",
"l  c #283E52",
"z  c #2B4254",
"x  c #2C465E",
"c  c #2C4760",
"v  c #2E4B64",
"b  c #2F4E69",
"n  c #304D66",
"m  c #304F6A",
"M  c #2F506C",
"N  c #30516E",
"B  c #325573",
"V  c #345877",
"C  c #345B7B",
"Z  c #385D7B",
"A  c #3A617F",
"S  c #444443",
"D  c #494746",
"F  c #484847",
"G  c #4B4C4B",
"H  c #445241",
"J  c #495946",
"K  c #4F504F",
"L  c #555554",
"P  c #575957",
"I  c #5A5A5A",
"U  c #5E605E",
"Y  c #61605F",
"T  c #626262",
"R  c #365F80",
"E  c #366184",
"W  c #3A6486",
"Q  c #376589",
"!  c #38668B",
"~  c #39698F",
"^  c #3A6C93",
"/  c #3B6F98",
"(  c #3F7096",
")  c #3D729B",
"_  c #3D75A2",
"`  c #3E79A6",
"'  c #3E7AA9",
"]  c #406D91",
"[  c #427195",
"{  c #41749A",
"}  c #45789F",
"|  c #4277A0",
" . c #457AA1",
".. c #437AA4",
"X. c #457CA5",
"o. c #467DA6",
"O. c #497CA1",
"+. c #487CA3",
"@. c #487DA4",
"#. c #407CAB",
"$. c #427FAD",
"%. c #4A80A7",
"&. c #4680AB",
"*. c #4380AE",
"=. c #4480AE",
"-. c #4A82AC",
";. c #4B85AF",
":. c #4982AB",
">. c #4583B1",
",. c #4684B2",
"<. c #4B87B2",
"1. c #4C87B3",
"2. c #4887B4",
"3. c #4B88B5",
"4. c #4C88B4",
"5. c #4F8BB7",
"6. c #4B8AB8",
"7. c #4D8BB8",
"8. c #4D8DBB",
"9. c #518BB5",
"0. c #508BB6",
"q. c #508DB9",
"w. c #518FBC",
"e. c #4F90BE",
"r. c #5291BE",
"t. c #5191BE",
"y. c #5595C3",
"u. c #5394C1",
"i. c #5798C6",
"p. c #5999C6",
"a. c #579AC8",
"s. c #5B9DCB",
"d. c #609FC9",
"f. c #5DA0CD",
"g. c #62A3CD",
"h. c #64A6D0",
"j. c #67A8D1",
"k. c #68A9D2",
"l. c None",
"z. c black",
"x. c black",
"c. c black",
"v. c black",
"b. c black",
"n. c black",
"m. c black",
"M. c black",
"N. c black",
"B. c black",
"V. c black",
"C. c black",
"Z. c black",
"A. c black",
"S. c black",
"D. c black",
"F. c black",
"G. c black",
"H. c black",
"J. c black",
"K. c black",
"L. c black",
"P. c black",
"I. c black",
"U. c black",
"Y. c black",
"T. c black",
"R. c black",
"E. c black",
"W. c black",
"Q. c black",
"!. c black",
"~. c black",
"^. c black",
"/. c black",
"(. c black",
"). c black",
"_. c black",
"`. c black",
"'. c black",
"]. c black",
"[. c black",
"{. c black",
"}. c black",
"|. c black",
" X c black",
".X c black",
"XX c black",
"oX c black",
"OX c black",
"+X c black",
"@X c black",
"#X c black",
"$X c black",
"%X c black",
"&X c black",
"*X c black",
"=X c black",
"-X c black",
";X c black",
":X c black",
">X c black",
",X c black",
"<X c black",
"1X c black",
"2X c black",
"3X c black",
"4X c black",
"5X c black",
"6X c black",
"7X c black",
"8X c black",
"9X c black",
"0X c black",
"qX c black",
"wX c black",
"eX c black",
"rX c black",
"tX c black",
"yX c black",
"uX c black",
"iX c black",
"pX c black",
"aX c black",
"sX c black",
"dX c black",
"fX c black",
"gX c black",
"hX c black",
"jX c black",
"kX c black",
"lX c black",
"zX c black",
"xX c black",
"cX c black",
"vX c black",
"bX c black",
"nX c black",
"mX c black",
"MX c black",
"NX c black",
"BX c black",
"VX c black",
"CX c black",
"ZX c black",
"AX c black",
"SX c black",
"DX c black",
"FX c black",
"GX c black",
"HX c black",
"JX c black",
"KX c black",
"LX c black",
"PX c black",
"IX c black",
"UX c black",
/* pixels */
"l.l.l.l.l.l.l.l.l.l.l.l.l.l.l.l.l.l.l.l.l.l.l.l.l.l.l.l.l.l.l.l.l.l.l.l.l.l.l.l.l.l.l.l.l.l.l.l.l.l.l.l.l.l.l.l.l.l.l.",
"l.l.l.l.l.l.l.l.l.l.l.l.l.l.l.l.l.l.l.l.l.l.l.l.l.l.l.c c c c c l.l.l.l.l.l.l.l.l.l.l.l.l.l.l.l.l.l.l.l.l.l.l.l.l.l.l.",
"l.l.l.l.l.l.l.l.l.l.l.l.l.l.l.l.l.l.l.l.l.l.l.x c v R ^ B E ^ ^ N c x x l.l.l.l.l.l.l.l.l.l.l.l.l.l.l.l.l.l.l.l.l.l.l.",
"l.l.l.l.l.l.l.l.l.l.l.l.l.l.l.l.l.l.l.l.l.b b v C ) _ ' C ^ ' ` ) ~ b v b v l.l.l.l.l.l.l.l.l.l.l.l.l.l.l.l.l.l.l.l.l.",
"l.l.l.l.l.l.l.l.l.l.l.l.l.l.l.l.l.l.l.x B ) ) ) _ #.*.$.C :.2.*.*.` ) ) ) Q c l.l.l.l.l.l.l.l.l.l.l.l.l.l.l.l.l.l.l.l.",
"l.l.l.l.l.l.l.l.l.l.l.l.l.l.l.l.l.l.x B ) ' >.>.>.3.w.y.W +.t.w.8.>.>.>.$.` E v l.l.l.l.l.l.l.l.l.l.l.l.l.l.l.l.l.l.l.",
"l.l.l.l.l.l.l.l.l.l.l.l.l.l.l.l.x b b / >.2.8.q.q.$.^ :.A C ^ ^ ( 4.q.q.4.,.#.C B n l.l.l.l.l.l.l.l.l.l.l.l.l.l.l.l.l.",
"l.l.l.l.l.l.l.l.l.l.l.l.l.l.x b V ^ B ..8.;.^ ^ ^ ! E W V v C E Q ^ ^ ~ | 4.3.R +.~ B c l.l.l.l.l.l.l.l.l.l.l.l.l.l.l.",
"l.l.l.l.l.l.l.l.l.l.l.l.l.B C ^ ' >.[ { ^ ~ ~ Q E C B B C m B V C E E ~ ~ ~ { [ 9.,._ R C l.l.l.l.l.l.l.l.l.l.l.l.l.l.",
"l.l.l.l.l.l.l.l.l.l.l.x b ^ ' ' ,.1.-.R C E E C B B B B B v B B B B C E E C B { 1.3.#.' _ C x l.l.l.l.l.l.l.l.l.l.l.l.",
"l.l.l.l.l.l.l.l.l.l.x b ^ ' >.8.<./ ! R N N B B B B N b b c v m B B B B B b V Q ~ o.7.6.#._ C x l.l.l.l.l.l.l.l.l.l.l.",
"l.l.l.l.l.l.l.l.l.x b ^ ' >.<.o./ E C V B N N B v b c h > > q z v v N B b B B C R Q  .:.3.#._ C x l.l.l.l.l.l.l.l.l.l.",
"l.l.l.l.l.l.l.l.l.b ^ ' >.<.( ! E V B v v c x l ; ; > - @ @ @ ; ; ; w c c v v N B C Q ~ o.3.#._ C c l.l.l.l.l.l.l.l.l.",
"l.l.l.l.l.l.l.l.b ^ ' >.4.( E C C B c 0 ; ; ; - # # # # < 2 & # # # # ; ; ; ; j N B C C ~ o.3.' _ C l.l.l.l.l.l.l.l.l.",
"l.l.l.l.l.l.l.x N _ >.4./ ! R B B c 0 # < & < & 4 4 5 5 5 5 5 5 5 4 < & < & & * j N B C Q ~ o.3.$.E c l.l.l.l.l.l.l.l.",
"l.l.l.l.l.l.x v  .,.4./ E C V v q - % 2 5 5 r 4 < 8 r r r r r r r 5 < 8 r 5 5 < - ; l B C C ~ o.2.&.A x l.l.l.l.l.l.l.",
"l.l.l.l.l.l.b b V :.^ R E B v q & < 4 5 8 8 r 5 < 2 o + + + + o # 5 < r r 8 8 5 2 < , l B C E W ( E m b l.l.l.l.l.l.l.",
"l.l.l.l.l.B ^ ) Z N Q E V v q , 8 4 2 8 r 5 o o o X X X X X X X X o X o & 8 8 5 < 8 5 - l B C ~ C N ~ _ R l.l.l.l.l.l.",
"l.l.l.l.x ~ ' >.:.V R E b q # 2 8 2 # o X X X X X X X X X X X X X X X X X o o + < 5 5 & - l C E B ^ 3.$._ B l.l.l.l.l.",
"l.l.l.l.B ^ ' t.( C m v w # 2 8 5 @ X X X X X X X X X X X X X X X X X X X X X X X 2 8 5 & - x m B Q 1.2.` R l.l.l.l.l.",
"l.l.l.x Q ) $.<.^ C B j @ 2 8 5 2 @ X X X X X X X X X X X X X X X X X X X X X X X X 2 8 5 & ; v B R X.3.$._ N l.l.l.l.",
"l.l.l.x E ^ q.{ Q V c > # 8 5 5 S 1 . X X X X X X X X X X X X X X X X X X X X X X e 3 2 8 2 * j N E Q 1.2._ N l.l.l.l.",
"l.O.x x C Q 4.{ R B j @ & 8 < y L 3 + X X X X X X X X X X X X X X X X X X X X X 3 Y s @ 5 4 + : b C E 1.2._ N x V l.l.",
"l.r.[ B B C 4.{ C B j @ & 2 # y L 6 @ + X X X X X X X X X X X X X X X X X X o + 3 L G # 2 < # > b B E 4.,.! b W %.s.l.",
"l.~ <.o.B B 4.{ E B j # 8 2 , S y % $ @ X X X X X X X X X X X X X X X X X o @ $ O 3 G 3 , 8 2 > b C Q 4.>.B ~ 4.} W l.",
"l.B / <.W N 4.{ C B j # r 4 , 3 e 3 $ @ X X X X X X X X X X X X X X X X X + $ $ 3 + 1 6 , r 2 > b C E 4.[ N :. .E c l.",
"l.V ^ ^ Q N @.^ B N j @ 5 < + $ s 3 + $ X X X X X X X X X X X X X X X X X + $ + e , $ 6 % 5 < > v B R -.E C ^ ~ ! c l.",
"l.v b N N b V B N b j @ 8 2 + $ u 1 + $ X X X X X X X X X X X X X X X X X + $ O L y $ 6 , r < > c v b B N N N B B c l.",
"l.x B Q ^ ) ^ ^ / ~ k @ 8 2 + $ e 3 + + X X X X X X X X X X X X X X X X X + + $ L L 7 d , r < > v B C E ^ ) ) ) ^ l.l.",
"l.l.N E E C B B B B j @ 5 & + $ + e $   X X X X X X X X X X X X X X X X X .   G y y 6 d , 5 < > v B B B B R E R b l.l.",
"l.l.c c v v v v c v j @ < & + + O , + X O X X X X X X X X X X X X X X X X . . , O + $ t , 2 # > c c c v v v c c x l.l.",
"l.l.l.x N B B B v B j @ < & + 6 e 3 3 3 @ X X X X X X X X X X X X X X X X X % S y + + d , 2 # > b b m B B C v l.l.l.l.",
"l.l.l.x B R C B v N j @ 2 & O U I u e 3 , @ X X X X X X X X X X X X X X o , 3 T L u , d , 4 & > b m m C R E b l.l.l.l.",
"l.l.l.x C ~ E C v N j @ < # O L L G u 3 , # X X X X X X X X X X X X X X + , 3 G G I 7 d % < & > b b B Q ^ { N l.l.l.l.",
"l.l.l.x E ^ ^  .B C j # 5 < + 7 K L e 3 , # X X X X X X X X X X X X X X + , e L I T e d , 5 2 > N B C ~ ( q.V l.l.l.l.",
"l.l.l.x Q _ / 9.C R j % r 5 + $ S I y 3 , # X X X X X X X X X X X X X X + , S L I S 1 t , i 2 > B B C ~ _ q.V l.l.l.l.",
"l.l.l.x Q ' ( 4.V B j @ 5 5 @ , S I y 3 , # X X X X X X X X X X X X X o # , S L L 3 $ 6 , r & > N N E ^ _ 8.V l.l.l.l.",
"l.l.l.x Q ' ` 5.B N j @ 8 4 u L L I e 3 , # X X X X X X X X X X X X X o , 3 S L L 3 $ 6 3 r < > b b Q ` ` #.N l.l.l.l.",
"l.l.l.x C _ ' ..N N j @ 8 2 D G S I y 3 , # X X X X X X X X X X X X X o , u L L L 1 + 6 , r < > b b Q ' ' _ N l.l.l.l.",
"l.l.l.x C _ ) ) N N j @ 2 & u y u L u 3 3 # X X X X X X X X X X X X X o , u L L L 3 G s % 4 # > b b Q ) _ _ N l.l.l.l.",
"l.l.l.x C _ ^ ) N N j @ 5 & e 3 u L G e 3 % X X X X X X X X X X X X X o , 3 S G L 3 L s % 5 < > b b Q ) _ _ N l.l.l.l.",
"l.l.l.x C _ ) / N N j @ 8 5 + + u G e , , % X X X X X X X X X X X X X + , , , e G e L s , r < > b b E ( _ _ N l.l.l.l.",
"l.l.l.x C _ *.^ b B j @ 5 < O O u u X   O @ X X X X X X X X X X X X X + @ O   y L L P f , 5 < > N N C ) ' _ N l.l.l.l.",
"l.l.l.x C _ t.( M R l @ 4 & X X u u @ + , X X X X X X X X X X X X X X X @ , + u L L s H , 2 < > B B C _ ' _ N l.l.l.l.",
"l.l.l.x C _ t./ M R k , i 5 X X u S e 3 3 @ X X X X X X X X X X X X X X % 3 3 S I P s H 1 i 5 > B B C _ ' _ N l.l.l.l.",
"l.l.l.x C _ t.( M R k @ 8 5 X @ S P S 3 3 , X X X X X X X X X X X X X o , 3 e G T S e H 1 r < > B B C _ ' _ N l.l.l.l.",
"l.l.l.x C _ ,.^ b V j @ 5 < X 1 G L S 3 3 , X X X X X X X X X X X X X o , 3 S I T 3 1 H , 8 < > N N C _ ' _ N l.l.l.l.",
"l.l.l.x C _ ^ C v N j @ 8 2 X , 3 F G e 3 , X X X X X X X X X X X X X @ 1 3 e G u + 1 p , 8 < > b b B E ) _ N l.l.l.l.",
"l.l.l.x E _ E C b B j @ 8 5 X , , e u 7 3 @ X X X X X X X X X X X X X X % 3 3 e % $ 3 6 , r < > b m B C ) _ N l.l.l.l.",
"l.l.l.x C ^ C V b C k @ 8 4 X $ $ + 1 3 1 X X X X X X X X X X X X X X . @ 3 3 , , , 1 6 , r < > N B N C Q ^ b l.l.l.l.",
"l.l.l.x V C B B c v j @ 5 < X $ % O 1 3 1 X X X X X X X X X X X X X X X @ 3 S e 1 3 3 6 % 5 < > v c b B B R v x l.l.l.",
"l.l.x v M N b b v V c # 5 & X , , O , 3 1 X X X X X X X X X X X X X X X @ 3 G e 1 6 6 t % 5 < w C B b b b N b v c l.l.",
"l.l.x W #.#.#...~ #.E @ 4 & O $ , O O 1 , X X X X X X X X X X X X X X . @ u e O $ 1 1 g , 4 & j #.#.#.#.#.#.#.) v l.l.",
"l.l.z ] t.u.u.w.q.t.[ @ < & O $ % O . , + X X X X X X X X X X X X X X X + u 3 . $ , 1 d , 2 # z 4.q.q.q.q.q.q.%.m l.l.",
"l.l.Z N R ! ^ E R E v @ & # O $ , $ O , O X . . X X X X X X X X X X X X . e 6 O 1 1 1 6 % < # q N C R R R R C N x l.l.",
"l.{ @.C C B C C C C c @ < & O + $ $ X @ O X X . X X X X X X X X X X X X . 1 , + , % % 6 % 2 # w C C C C C C C C W l.l.",
"l.e.y.6.6.;.3.6.6.8.^ = 8 5 X + $ $ O O O X . . X X X X X X X X X X X X X X O + $ $ % 6 , r < z 6.6.6.6.6.6.6.8.a.*.l.",
"' | } -.-.3.8.8.8.8.^ = 8 5 X + $ $ $ O O X . X X X X X X X X X X X X X X X + $ + $ 1 a , r < z -.<.8.8.8.7.<.<.{ ` ' ",
"3.Q B ! ^ _ ' ) / ) C @ 8 5 X O + $ $ O O X X X X X X X X X X X X X X X X X + , 9 , , g 1 r < h ! ^ _ ) / ^ ^ ! B #.8.",
"u.Q B ~ ^ / / ^ Q R c @ 8 5 X 6 6 $ $ O O X X X X X X X X X X X X X X X X X + % 6 p 1 g 1 r < w C E ^ ^ ~ ~ ~ E B =.s.",
"t.Q B ! Q Q Q C C B x @ 2 < O 6 6 $ $ O O X X X X X X X X X X X X X X X X X + $ $ t H J , 5 # q B V C E ! ! ! E B =.s.",
"u.^ b N N N N b b b z @ < & 6 s 1 $ $ O O X X X X X X X X X X X X X X X X X O $ % 6 s a % 2 # > b b b N N N N M B =.s.",
"s.4.) ) ) ) ) ) ) _ C @ < & 3 t 3 , + + X X X X X X X X X X X X X X X X X + O $ 1 6 t 9 % 2 # j ) ) ) ) ) ) ) ) X.i.s.",
"r.i.u.u.u.u.u.u.u.u.[ @ < & , 1 O O O + X X X X X X X X X X X X X X X X X + $ + + $ 6 6 @ < # z t.u.u.u.u.u.t.t.u.y.r.",
"C ..#.#.#.#.#...` ( B @ # + % 1 $ + + X X X X X X X X X X X X X X X X X X o + + @ a a 6 @ # @ h ^ ) ..#.#.#.) / ( ^ m ",
"B ^ _ ' ' ' _ ^ ~ ! B @ # o @ $ + O X X X . . . . . . . . . . . . . . . . . . . X % 1 , @ @ + h Q Q ^ ( ` _ ` _ ^ R x ",
"B ! / _ _ _ ^ ~ E C M - ; ; ; ; ; ; ; ; ; ; ; ; ; ; ; ; ; ; ; ; ; ; ; ; ; ; ; ; ; ; ; ; ; ; ; h R C Q ~ ) ^ ) ) ^ R c ",
"B ~ Q E E E E E C V b k v b B b v v v c v v v b N v v v v v v v v v v v v v c c v v v v v v x z B B C E E E E E ~ R c ",
"b C B m m m m m m m v v C Q ) Q R E C v B V C Q ^ R R R R R R R R R R R R C b N C R R R C V N c m m m m m m m N B B x ",
"c b b B V B B B B B B C Q _ ' _ ) ) / B B E ) _ _ ) ) ) ) ) ) ) ) ) ) ) ^ Q B C Q / ) ) ~ E C B m B V V V V V C V B x ",
"v C E ^ ) ) ) ) ) ) ) ) _ ' ' ' ' ' ` R E ) $.8.8.8.8.8.>.' 6.8.8.8.e.3.` ^ R E ^ _ ' ` ) ) ( ! E Q ~ ~ ~ ~ ^ ~ ^ E c ",
"N Q  .w.u.u.u.t.$.$.t.u.u.t.u.u.u.>._ E ) ' ,.s.s.s.s.s.i.u.s.s.s.s.s.s.u.<.Q E ) 7.u.t.u.u.t.0.-._ _ _ _ _ _ ) ^ R c ",
"B ^ 3.s.s.s.s.h.d.i.f.h.s.s.s.s.s.i.#.E _ $.u.s.s.s.s.s.s.s.s.s.s.j.k.k.h.a. .^ 3.a.s.s.f.h.s.g.g.d.d.p.u.u.u.$.` ^ c ",
"C _ 3.i.i.i.i.s.s.p.p.p.i.i.i.i.i.i.$.^ _ ` =.=.=.*.8.i.i.i.i.i.p.s.s.s.p.p.$.) $.=.*.>.i.s.g.p.s.s.s.p.p.p.i.t.u.@.v ",
"Q ^ / ( ( ( ( ( ( ( ( ( ( ( ( ( ( ( ^ ^ ^ ^ ^ ^ ^ ^ / ( ( ( ( ( ( ( ( ( ( ( ^ ^ ^ ^ ^ ^ ( { { ( ( ( ( ( ( ( ( { { / E "
};
