/* XPM */
static char *ZXpnaWYuY29tLWdpZi1tYWtlci0z_6[] = {
/* columns rows colors chars-per-pixel */
"59 75 256 2 ",
"   c #0B0F09",
".  c #0D110B",
"X  c #11140F",
"o  c #141513",
"O  c #161915",
"+  c #191A17",
"@  c #1B1D1A",
"#  c #221E1B",
"$  c #1E211D",
"%  c #22221E",
"&  c #28231F",
"*  c #1D1F21",
"=  c #1D2125",
"-  c #1D252B",
";  c #1F2A34",
":  c #222521",
">  c #2B2522",
",  c #252A24",
"<  c #2B2B26",
"1  c #21262B",
"2  c #2B2D2A",
"3  c #312A26",
"4  c #342D2A",
"5  c #2C322A",
"6  c #2F382E",
"7  c #34322E",
"8  c #38312E",
"9  c #30392F",
"0  c #202B33",
"q  c #222F3A",
"w  c #24313B",
"e  c #343433",
"r  c #3C3432",
"t  c #343C33",
"y  c #383A37",
"u  c #3B3B3A",
"i  c #364134",
"p  c #384236",
"a  c #3C443A",
"s  c #3E4A3C",
"d  c #414E3E",
"f  c #243342",
"g  c #26394A",
"h  c #273D52",
"j  c #293E51",
"k  c #294156",
"l  c #2B455C",
"z  c #2D4760",
"x  c #2E4A64",
"c  c #2F4E69",
"v  c #304F6A",
"b  c #2F506D",
"n  c #30516D",
"m  c #325674",
"M  c #335877",
"N  c #345B7B",
"B  c #3A617F",
"V  c #434442",
"C  c #454A45",
"Z  c #484C47",
"A  c #4B4C4A",
"S  c #445242",
"D  c #485846",
"F  c #4D504C",
"G  c #50524F",
"H  c #545453",
"J  c #555954",
"K  c gray36",
"L  c #5D635B",
"P  c #60605F",
"I  c #636463",
"U  c #686767",
"Y  c #666A65",
"T  c #686B67",
"R  c #6C6C6C",
"E  c #706F6F",
"W  c #6E796C",
"Q  c #6F7070",
"!  c #747474",
"~  c #787777",
"^  c #777877",
"/  c #7C7C7B",
"(  c #365F80",
")  c #376285",
"_  c #3B6484",
"`  c #376489",
"'  c #38668B",
"]  c #3A698E",
"[  c #3A6C93",
"{  c #3B6F98",
"}  c #3E7097",
"|  c #3D729C",
" . c #3D76A2",
".. c #3E79A6",
"X. c #3E7AA8",
"o. c #3E7AA8",
"O. c #406C8D",
"+. c #416F93",
"@. c #437296",
"#. c #40739B",
"$. c #42749A",
"%. c #41759D",
"&. c #4377A0",
"*. c #4378A1",
"=. c #447BA4",
"-. c #487DA5",
";. c #407DAC",
":. c #427DAA",
">. c #4A80A7",
",. c #4380AE",
"<. c #4A84AE",
"1. c #4A82AB",
"2. c #4785B3",
"3. c #4683B2",
"4. c #4C86B1",
"5. c #4B88B5",
"6. c #4C89B5",
"7. c #4C8BB8",
"8. c #4E8BB8",
"9. c #4D8CBA",
"0. c #4C8CBA",
"q. c #508CB7",
"w. c #508DB9",
"e. c #518EBB",
"r. c #4F90BE",
"t. c #5191BE",
"y. c #5394C2",
"u. c #5798C6",
"i. c #599AC6",
"p. c #5799C8",
"a. c #5A9DCB",
"s. c #5DA1CE",
"d. c #61A1CA",
"f. c #64A6D1",
"g. c #68A9D2",
"h. c #848484",
"j. c #8B8B8B",
"k. c #939393",
"l. c #9C9B9C",
"z. c #A2A2A2",
"x. c gray67",
"c. c gray71",
"v. c #BBBBBB",
"b. c #C3C3C3",
"n. c #CBCBCB",
"m. c gray82",
"M. c None",
"N. c black",
"B. c black",
"V. c black",
"C. c black",
"Z. c black",
"A. c black",
"S. c black",
"D. c black",
"F. c black",
"G. c black",
"H. c black",
"J. c black",
"K. c black",
"L. c black",
"P. c black",
"I. c black",
"U. c black",
"Y. c black",
"T. c black",
"R. c black",
"E. c black",
"W. c black",
"Q. c black",
"!. c black",
"~. c black",
"^. c black",
"/. c black",
"(. c black",
"). c black",
"_. c black",
"`. c black",
"'. c black",
"]. c black",
"[. c black",
"{. c black",
"}. c black",
"|. c black",
" X c black",
".X c black",
"XX c black",
"oX c black",
"OX c black",
"+X c black",
"@X c black",
"#X c black",
"$X c black",
"%X c black",
"&X c black",
"*X c black",
"=X c black",
"-X c black",
";X c black",
":X c black",
">X c black",
",X c black",
"<X c black",
"1X c black",
"2X c black",
"3X c black",
"4X c black",
"5X c black",
"6X c black",
"7X c black",
"8X c black",
"9X c black",
"0X c black",
"qX c black",
"wX c black",
"eX c black",
"rX c black",
"tX c black",
"yX c black",
"uX c black",
"iX c black",
"pX c black",
"aX c black",
"sX c black",
"dX c black",
"fX c black",
"gX c black",
"hX c black",
"jX c black",
"kX c black",
"lX c black",
"zX c black",
"xX c black",
"cX c black",
"vX c black",
"bX c black",
"nX c black",
"mX c black",
"MX c black",
"NX c black",
"BX c black",
"VX c black",
"CX c black",
"ZX c black",
"AX c black",
"SX c black",
"DX c black",
"FX c black",
"GX c black",
"HX c black",
"JX c black",
"KX c black",
"LX c black",
"PX c black",
"IX c black",
"UX c black",
/* pixels */
"M.M.M.M.M.M.M.M.M.M.M.M.M.M.M.M.M.M.M.M.M.M.M.M.M.M.M.M.M.M.M.M.M.M.M.M.M.M.M.M.M.M.M.M.M.M.M.M.M.M.M.M.M.M.M.M.M.M.M.",
"M.M.M.M.M.M.M.M.M.M.M.M.M.M.M.M.M.M.M.M.M.M.M.M.M.M.M.x x x x x M.M.M.M.M.M.M.M.M.M.M.M.M.M.M.M.M.M.M.M.M.M.M.M.M.M.M.",
"M.M.M.M.M.M.M.M.M.M.M.M.M.M.M.M.M.M.M.M.M.M.M.l z x M [ M N [ [ m x l l M.M.M.M.M.M.M.M.M.M.M.M.M.M.M.M.M.M.M.M.M.M.M.",
"M.M.M.M.M.M.M.M.M.M.M.M.M.M.M.M.M.M.M.M.M.c c x m {  .X.) ' ;.X.| [ b c c c M.M.M.M.M.M.M.M.M.M.M.M.M.M.M.M.M.M.M.M.M.",
"M.M.M.M.M.M.M.M.M.M.M.M.M.M.M.M.M.M.M.l c [ | |  .o.,.,.) $.7.,.,.X.| | | ] x l M.M.M.M.M.M.M.M.M.M.M.M.M.M.M.M.M.M.M.",
"M.M.M.M.M.M.M.M.M.M.M.M.M.M.M.M.M.M.l c [ X.,.3.3.2.w.y.+.@.t.w.w.2.3.3.,...' c l M.M.M.M.M.M.M.M.M.M.M.M.M.M.M.M.M.M.",
"M.M.M.M.M.M.M.M.M.M.M.M.M.M.M.M.l c c ' ,.2.0.w.w.<.[ =.] m ] [ { 4.w.w.8.2.;.) n n l M.M.M.M.M.M.M.M.M.M.M.M.M.M.M.M.",
"M.M.M.M.M.M.M.M.M.M.M.M.M.M.l c m ] M } 8.4.{ [ [ ] ) ` M x M ) ) ] [ [ } 6.8.' @.#.m x l M.M.M.M.M.M.M.M.M.M.M.M.M.M.",
"M.M.M.M.M.M.M.M.M.M.M.M.M.b M ' ..3.#.@.{ ] ] ' ) N m m N n n m M ) ) ] ] ] @.@.<.5...) M c M.M.M.M.M.M.M.M.M.M.M.M.M.",
"M.M.M.M.M.M.M.M.M.M.M.l x ` X.X.3.6.<.' m ( ) ( m m m m m c n m m m M ) ) N m ] 4.5.;.X...( x l M.M.M.M.M.M.M.M.M.M.M.",
"M.M.M.M.M.M.M.M.M.M.l x ` ..,.0.5.#.' ) n v m m m m m c c x c v m m m m m c m ) ] &.6.0.;...( x l M.M.M.M.M.M.M.M.M.M.",
"M.M.M.M.M.M.M.M.M.l x ` ..,.6.-.#.) N M m n v m c c x g ; ; 0 j c c c m c n m M N ' %.>.6.;...) x l M.M.M.M.M.M.M.M.M.",
"M.M.M.M.M.M.M.M.M.x ` ..,.6.%.' ) M m c x x l l ; - - = @ # @ - - - 0 l l x x n m M ` ] *.6.;...) x M.M.M.M.M.M.M.M.M.",
"M.M.M.M.M.M.M.M.x ' ..,.6.%.` N M m c q - - - = # # # # > 3 > # # # # - - - - f n m M N ' *.8.;. .) l M.M.M.M.M.M.M.M.",
"M.M.M.M.M.M.M.z v | ,.6.#.' ) m m x q # > & > & < 3 4 4 4 4 4 4 4 3 > & > & > @ f c m M ) ] *.8.;.[ x l M.M.M.M.M.M.M.",
"M.M.M.M.M.M.l l @.3.6.#.' M M c f = # > 4 4 r 4 > 8 r r r r r r r 4 > 4 r 4 4 > : = g n M N ' %.5.,.] l l M.M.M.M.M.M.",
"M.M.M.M.M.M.c c n -.#.( ) m v f : > 3 4 8 8 r 4 > 4 @ + @ + + + # 4 > 8 r 8 8 4 3 > : g n M ) ) } ' n c c M.M.M.M.M.M.",
"M.M.M.M.M.n ]  .) n ` ' M v f : 8 4 > 4 8 4 & @ @ % % @ , % @ % % + + # : 8 8 4 > 4 4 : g n M ' ( n '  .) c M.M.M.M.M.",
"M.M.M.M.l ) X.,.5.N N ) n f @ > 8 3 # + @ : t 9 5 5 , % 2 $ + @ @ : 5 t t % @ + & 4 4 > * g m ) M _ 5.,...M M.M.M.M.M.",
"M.M.M.M.n ' ..t.*.) n c g @ > 4 8 # o : u F F t , @ o O + o o o o : t a J Z 5 + o > 8 4 > * j v m ) >.0.X.` b M.M.M.M.",
"M.M.M.l ( | =.5.} M m k @ > 4 8 & + : a T T Z , O O O @ + o o o O o o 5 I ^ Z 2 % + > 8 4 & * l m N %.5.,...m M.M.M.M.",
"M.M.M.l M [ 4.=.' M c q @ 4 8 & + 2 F T ! H , + @ $ $ $ @ o o + $ @ o + V ! ! L C , + > 8 3 @ f n N ) -.7...m M.M.M.M.",
"M.4.x l m ) 1.=.) m l @ # 4 < + 2 t T / I y @ @ $ $ $ $ $ + o @ % , % O , K ! h.L 9 , + 4 4 @ = x M ( -.7...m l v t.M.",
"M.y.%.M n M >.=.M m l @ # > > % t V U K y : $ : , , % $ $ + o @ $ : % @ + 5 A ! I a 6 @ > > # = x m N 1.7.[ n ( *.u.M.",
"M.] 1.1.N n >.=.) M l = 4 4 % 5 t Z K e o o @ : : : $ $ @ + o $ $ $ $ $ o o @ V K C 5 @ @ 8 4 - x M ` 1.7.N ) 5.=._ M.",
"M.c [ 1.@.c >.=.( m l = 8 8 $ 9 t 5 : @ : : @ $ , , , , $ + O : , : $ @ @ 2 o + 2 t t 2 @ r 4 - x M ) 1.*.n *.-.' x M.",
"M.n [ ] ] n $.%.M m l * 4 < : t 2 @ @ u H e + @ : : : : @ + O $ : : $ @ , J A o + 5 t t $ 4 < - x m M =.O.m [ ] [ c M.",
"M.x c n n b m m n b l * 4 4 : t 2 $ @ C ! J , $ , , : $ @ + o $ : , : : V h.K O + 5 p t % 8 3 - l x c m n n m m m x M.",
"M.M.n ` [ | [ [ [ [ l * 4 4 : p 6 $ O Z R V : O o $ , , % + + , , $ o o 2 ! R y O : S s % 8 3 = x m M ) ] | | | [ M.M.",
"M.M.v ) ) N m m m m l * 3 > : S a $ O V V e K V o . X + @ o O @ X . O a 2 e K e + $ s a $ 3 > - z n m m m N ) ) v M.M.",
"M.M.x x x c x x x x k @ & > : S s @ o , 2 H j.R 7 O .   . X X . . O y ! R : 7 o O $ t p $ > # = l x x x x c x x z M.M.",
"M.M.M.l c m m m x n l @ & > : s i O 2 : $ F j.l.h.I C y 5 % o , V I h.k.K :   , 2 @ S s $ > # = x n c m m M c M.M.M.M.",
"M.M.M.l n ( M m x n l * > > : t 5 O I H 2 H h.x.b.v.x.l.~ u , R k.c.c.j.J 2 2 h.J O S s $ < & = x n c M ( ) n M.M.M.M.",
"M.M.M.l m ] ) ( c n l * > & : t 5 O H ! a V R k.c.b.n.v.j.y y j.x.v.z.h.K 5 k.x.V + S s @ > & = x n n ` ] &.M M.M.M.M.",
"M.M.M.l M [ ] *.M M l = 4 > : s t @ 2 / h.! h.j.l.v.m.b.h.u y j.x.x.j.h.j.h.c.! $ @ S s $ 4 3 - c m m ] [ 0._ M.M.M.M.",
"M.M.M.l ( ..[ 6.) N l = r 8 : S s $ O H j.k.j.h.j.z.c.x.h.u y h.k.k.j.j.k.l.! , o $ i p % r 4 - c N m ] | 9._ M.M.M.M.",
"M.M.M.l ( X.| 4.B m l @ > 4 : S s $ $ y R h.j.j.h.j.k.k.! y e ! j.h.j.h.j.h.V o $ , 9 6 % r > = x m M { | 9.) M.M.M.M.",
"M.M.M.l N X...0.B n l * 4 8 : S Y V $ $ d ! j.k.j.h.h.h.E y 2 ! j.j.j.k.j.I @ O $ F F 5 , r < - x v N ....;.M M.M.M.M.",
"M.M.M.l m | ..:.M n l * 4 4 : S W A @ O u / l.l.l.k.j.j.E y 2 ! j.k.l.z.k.J X o $ K H 5 % r 3 - x n N ......m M.M.M.M.",
"M.M.M.l m | | | m n l @ > > : S L R y , H / k.z.c.b.c.l.! y 7 / x.b.b.x.j.K e X C R C 5 @ < & = x n N | | ..m M.M.M.M.",
"M.M.M.l m | { | m n l * 3 < : S J J 2 5 H I ! j.j.l.c.c./ y e j.v.c.z.h.I K u   y K a 5 @ 4 < - x n N | | X.m M.M.M.M.",
"M.M.M.l m | | | m n l * 4 8 : S i y 2 y I K V e 2 y T k.! e e / ^ y 2 y H R A o e a 9 6 @ r 3 - x v M | | X.m M.M.M.M.",
"M.M.M.l m | ,.} n m l * < 4 : S i e , A h.R u @ .   $ K I 2 2 A $   . : I j.R e 2 2 9 i $ 4 > = x m m } X...m M.M.M.M.",
"M.M.M.l m | 9.*.n ( l * < > : s 6 $ + Z h.k.R 2   o e I I 2 , J y .   V z.k.R y $ $ s s @ > > = c M m | X...m M.M.M.M.",
"M.M.M.l m | 9.*.n N l = r 8 : t , $ + Z / k.k.R F J R h.R 4 2 R R H K k.v.h.R y @ $ s s % r 8 - c N m | X...m M.M.M.M.",
"M.M.M.l m | 9.*.n ( l * 4 8 : s 6 $ : V I / h.j.j.h.h.l.h.e y R / h.k.z.k.R H , : $ s s % r 3 = c N m | X...m M.M.M.M.",
"M.M.M.l m | 3.| n m l * 4 4 : S i $ 5 y J R Q R R Q k.c./ > y / h.R R R R I y + 5 $ s s $ 4 3 - x m m | X...m M.M.M.M.",
"M.M.M.l m | [ ( c n l * 4 4 : S i $ 5 : , V K I I ! h.Q A # @ J h.! I I H 2 @ @ 5 @ t p % 8 3 - x n v ) | ..m M.M.M.M.",
"M.M.M.l N ..` N c n l * 4 8 : S i $ 5 : O $ u u J / ! A e % o u / ! H y $ o $ , 5 @ 2 t % r 3 - x n n N [ ..m M.M.M.M.",
"M.M.M.l M [ ( M c M l * 4 8 $ t 5 $ , , , + o @ A ! / I V # : K h.! V o X , , : : @ 5 t % r 3 = c m c M ) [ m M.M.M.M.",
"M.M.M.l m ( m m x c l * 4 < $ 6 , $ 5 , 2 $ . $ H ! ! / I 2 2 I ! R Z O O 5 2 2 2 @ 5 t % 3 3 - l x x m m ( b l M.M.M.",
"M.M.M.x c n c c x m b = 3 > $ 6 , $ 5 5 5 , : A R ! ! / R 2 2 I ! R R Z 2 5 5 5 2 @ 5 t $ < < - m m c c c n c c x M.M.",
"M.M.M.M :.:.:.:.[ *.} - 3 > @ t , + , 2 2 , : a C R R ! I 2 2 K ! I V V 5 , 2 2 : + s s $ < > q =.:.:.:.:.:.:.=.n M.M.",
"M.M.M.) w.t.y.t.w.e.>.- & > @ s i O % : : , $ o $ J R ! I 2 2 K R A o O , : : : : @ a a $ > # w <.q.w.w.w.w.w.4.m M.M.",
"M.M.] n ( ' [ ) ( ( m * # > @ p 9 O : , 5 5 , $ O V ! h.I 2 , I ! y o $ 5 5 2 , , @ 5 t $ > # - n M ( ( ( ( ( m x M.M.",
"M._ <.M M m m M M M b = > > $ t , + $ : , 2 2 : 2 U ^ / R 2 2 I / P : , 2 , : $ $ O 5 t $ > & - m M M M M M M M _ M.M.",
"X.7.u.7.7.5.5.7.7.7.=.1 4 8 : a 5 O $ $ $ : : $ 5 K V Z G , $ 7 A K , : : $ $ $ $ O 5 t % r 3 w 5.7.7.7.7.7.7.0.p.2.X.",
"X. .$.>.1.5.0.0.0.0.=.1 4 8 : S i O $ @ @ $ $ $ , y , 6 i % O $ 2 y : $ $ O @ $ $ O t a % r 3 w =.5.8.0.0.8.5.5.%...X.",
"7.[ n ' [  .X.| { | ` = 4 8 : S i O @ 6 5 , , , % + @ i a % @ , @ $ , : , p 5 O @ + d s % r 3 0 ) [ |  .{ { [ [ n | 0.",
"u.[ m ' [ { { [ ' ) m = 4 8 : S i o 6 a 5 : : : % @ $ i a % @ , @ $ : : : p d 5 o o d s % r 3 ; M ) [ [ ] ] ] ' n  .p.",
"u.[ n ' ' ' ' ( M m c * > < $ t 5 6 d 6 % $ $ $ % $ $ i a % @ , @ $ $ $ $ , p d S , s s $ 4 & - n M M ) ' ' ' ' n  .p.",
"u.} c n n n n c c c l * & > @ 6 s S p , $ $ $ , t , $ p a % @ 2 $ 5 9 % $ % 5 a s t p 9 @ > # - x c c c n n n n b =.p.",
"a.e. .| | | | | |  .] = & > $ 6 p p t $ @ : , , , s S S a % @ i S i $ $ , $ $ t t t t 5 @ < # 0 }  .| | | | | | =.y.a.",
"t.u.y.y.y.y.y.y.y.y.>.- & > @ 5 9 t 2 $ $ $ $ $ : 6 i s a % @ 9 p 6 $ $ $ $ $ 5 t t t 5 @ > # w 8.y.y.y.y.y.t.t.t.u.t.",
"m  .:.:.:.:.:.:...} ) = # # @ 5 5 9 d S S D D D S t 5 p p % + 2 6 a D S p D D s t 6 5 2 @ # # ; ] } =.:.:.:.| } { } n ",
"c [  .X.X.X...[ ] ' N = @ @ @ , : , , , , , , , , , , 6 9 @ O : , , , 2 2 , , , , , , : + @ + ; ) ' ] [ ........[ ` x ",
"c ' [  . . .[ ] ` N M - - - - - - - - - - - - - - - - - - - - - - - - 0 0 - - - - - - - - - - ; N N ' ] { [ }  .[ ) x ",
"c ' ' ) ) ) ) ) M m m g x c m n c c c x x c c c n c c c c c c c c c c c c c x x c c c c c c l h m m N ) ) ) ) ) ' ` x ",
"x m m v v v v v v v c x m ) | [ ( ( N c n M N ) [ ) ( ( ( ( ( ( ( ( ( ( ( N n c M ( ( ( ( M m x c v v v v v v v m m x ",
"x c c n m m m m m m m M ) | X...| | | M m ) { | ..| | | | | | | | | | | { ' M m ' [ | } [ ) ( m v n M M M M M M M m x ",
"x M ) ] | | | | | | | |  .X.X.X.X.X.X.) ) | :.0.9.9.9.9.2.X.2.r.9.9.9.7...| ) ( ] | X.X. .| | ] ) ` ] ] ] ] ] ] ] ` x ",
"c ) #.w.y.y.y.t.3.:.0.y.y.t.y.y.t.2...) [ ..,.p.a.a.a.a.u.t.u.a.a.a.a.p.y.5.[ ( { 5.y.t.y.y.t.w.5. . . . . . .| [ ) x ",
"c [ ,.a.a.a.a.f.d.u.a.f.a.a.a.a.a.u.3.` | :.t.p.p.p.a.a.a.a.a.a.a.f.g.g.f.a.>.[ 5.u.a.a.a.f.s.s.f.d.d.u.y.y.y.3...} c ",
"m | 3.u.u.u.u.u.a.u.u.u.u.u.u.u.u.u.5.[ | ..;.,.,.,.5.u.u.u.u.u.u.i.a.a.u.u.4.| :.,.,.,.y.a.d.u.a.a.a.u.u.u.u.y.t.4.n ",
"` [ [ } } } } } } } } } } } } } } } { [ [ [ [ [ [ [ { } } } } } } } } } } } { [ [ [ [ [ } #.#.} } } } } } } } #.#.} ' "
};
