/* XPM */
static char *ZXpnaWYuY29tLWdpZi1tYWtlci0z_39[] = {
/* columns rows colors chars-per-pixel */
"59 75 256 2 ",
"   c #0F120D",
".  c #15110F",
"X  c #151210",
"o  c #191614",
"O  c #161A15",
"+  c #1A1916",
"@  c #1C1C1A",
"#  c #211E1C",
"$  c #1E211D",
"%  c #24211E",
"&  c #28221F",
"*  c #1D1F22",
"=  c #1D2024",
"-  c #1D242B",
";  c #1D2730",
":  c #1F2A34",
">  c #242422",
",  c #2B2522",
"<  c #242923",
"1  c #2D2925",
"2  c #202428",
"3  c #2B2C2B",
"4  c #302A26",
"5  c #332D29",
"6  c #2C322B",
"7  c #33332D",
"8  c #39322E",
"9  c #30382F",
"0  c #202B35",
"q  c #222E39",
"w  c #22313D",
"e  c #323232",
"r  c #3C3531",
"t  c #353A32",
"y  c #3A3936",
"u  c #3C3C3C",
"i  c #403734",
"p  c #413835",
"a  c #3D433C",
"s  c #3D493A",
"d  c #414F3F",
"f  c #233442",
"g  c #263A4B",
"h  c #283D4F",
"j  c #283D51",
"k  c #2A4155",
"l  c #2C465E",
"z  c #30495D",
"x  c #2D4760",
"c  c #2E4B64",
"v  c #2F4E6A",
"b  c #304D67",
"n  c #304F6A",
"m  c #2F506C",
"M  c #31516E",
"N  c #325573",
"B  c #335877",
"V  c #345B7C",
"C  c #385D7B",
"Z  c #434443",
"A  c #474947",
"S  c #4C4C4B",
"D  c #4F504F",
"F  c #535353",
"G  c #575857",
"H  c #5A5A5A",
"J  c #676767",
"K  c #6C6C6C",
"L  c #365F80",
"P  c #366184",
"I  c #396384",
"U  c #37658A",
"Y  c #38668B",
"T  c #39698E",
"R  c #3B6C93",
"E  c #3B6F98",
"W  c #3E7097",
"Q  c #3D729C",
"!  c #3D75A1",
"~  c #3E79A5",
"^  c #3E7BA9",
"/  c #406C8E",
"(  c #426F91",
")  c #417094",
"_  c #42759B",
"`  c #46789D",
"'  c #4277A0",
"]  c #447AA2",
"[  c #477CA3",
"{  c #457CA5",
"}  c #477EA7",
"|  c #437AA4",
" . c #4A7FA5",
".. c #487CA4",
"X. c #407CA9",
"o. c #407CAA",
"O. c #477EA8",
"+. c #417EAC",
"@. c #427EAC",
"#. c #4A80A7",
"$. c #4680AB",
"%. c #4381AF",
"&. c #4480AE",
"*. c #4980AA",
"=. c #4B83AC",
"-. c #4A84AF",
";. c #4682B0",
":. c #4684B2",
">. c #4786B4",
",. c #4B86B1",
"<. c #4C87B2",
"1. c #4887B4",
"2. c #4B89B6",
"3. c #4F8CB7",
"4. c #4D8AB5",
"5. c #4A89B8",
"6. c #4D8DBB",
"7. c #508CB7",
"8. c #508DB9",
"9. c #518FBC",
"0. c #4F90BE",
"q. c #5291BE",
"w. c #5190BC",
"e. c #5595C2",
"r. c #5394C1",
"t. c #5798C6",
"y. c #599AC6",
"u. c #5B9DCB",
"i. c #609FC9",
"p. c #5EA1CD",
"a. c #62A3CD",
"s. c #64A5D0",
"d. c #67A8D2",
"f. c #68A9D2",
"g. c None",
"h. c black",
"j. c black",
"k. c black",
"l. c black",
"z. c black",
"x. c black",
"c. c black",
"v. c black",
"b. c black",
"n. c black",
"m. c black",
"M. c black",
"N. c black",
"B. c black",
"V. c black",
"C. c black",
"Z. c black",
"A. c black",
"S. c black",
"D. c black",
"F. c black",
"G. c black",
"H. c black",
"J. c black",
"K. c black",
"L. c black",
"P. c black",
"I. c black",
"U. c black",
"Y. c black",
"T. c black",
"R. c black",
"E. c black",
"W. c black",
"Q. c black",
"!. c black",
"~. c black",
"^. c black",
"/. c black",
"(. c black",
"). c black",
"_. c black",
"`. c black",
"'. c black",
"]. c black",
"[. c black",
"{. c black",
"}. c black",
"|. c black",
" X c black",
".X c black",
"XX c black",
"oX c black",
"OX c black",
"+X c black",
"@X c black",
"#X c black",
"$X c black",
"%X c black",
"&X c black",
"*X c black",
"=X c black",
"-X c black",
";X c black",
":X c black",
">X c black",
",X c black",
"<X c black",
"1X c black",
"2X c black",
"3X c black",
"4X c black",
"5X c black",
"6X c black",
"7X c black",
"8X c black",
"9X c black",
"0X c black",
"qX c black",
"wX c black",
"eX c black",
"rX c black",
"tX c black",
"yX c black",
"uX c black",
"iX c black",
"pX c black",
"aX c black",
"sX c black",
"dX c black",
"fX c black",
"gX c black",
"hX c black",
"jX c black",
"kX c black",
"lX c black",
"zX c black",
"xX c black",
"cX c black",
"vX c black",
"bX c black",
"nX c black",
"mX c black",
"MX c black",
"NX c black",
"BX c black",
"VX c black",
"CX c black",
"ZX c black",
"AX c black",
"SX c black",
"DX c black",
"FX c black",
"GX c black",
"HX c black",
"JX c black",
"KX c black",
"LX c black",
"PX c black",
"IX c black",
"UX c black",
/* pixels */
"g.g.g.g.g.g.g.g.g.g.g.g.g.g.g.g.g.g.g.g.g.g.g.g.g.g.g.g.g.g.g.g.g.g.g.g.g.g.g.g.g.g.g.g.g.g.g.g.g.g.g.g.g.g.g.g.g.g.g.",
"g.g.g.g.g.g.g.g.g.g.g.g.g.g.g.g.g.g.g.g.g.g.g.g.g.g.c c c c c c g.g.g.g.g.g.g.g.g.g.g.g.g.g.g.g.g.g.g.g.g.g.g.g.g.g.g.",
"g.g.g.g.g.g.g.g.g.g.g.g.g.g.g.g.g.g.g.g.g.g.g.l c c P R N U R R v c l l g.g.g.g.g.g.g.g.g.g.g.g.g.g.g.g.g.g.g.g.g.g.g.",
"g.g.g.g.g.g.g.g.g.g.g.g.g.g.g.g.g.g.g.g.g.v v c V Q ! ~ N W ^ ~ Q Y c c v c g.g.g.g.g.g.g.g.g.g.g.g.g.g.g.g.g.g.g.g.g.",
"g.g.g.g.g.g.g.g.g.g.g.g.g.g.g.g.g.g.g.l N Q Q Q ! +.%.+.V =.>.%.+.~ Q Q Q P c l g.g.g.g.g.g.g.g.g.g.g.g.g.g.g.g.g.g.g.",
"g.g.g.g.g.g.g.g.g.g.g.g.g.g.g.g.g.g.x N Q ^ ;.;.;.2.q.e.I #.q.9.6.;.;.;.+.~ L c l g.g.g.g.g.g.g.g.g.g.g.g.g.g.g.g.g.g.",
"g.g.g.g.g.g.g.g.g.g.g.g.g.g.g.g.l v v Q ;.1.8.8.8.} R *.C V R R _ 3.8.8.2.:.o.N N c l g.g.g.g.g.g.g.g.g.g.g.g.g.g.g.g.",
"g.g.g.g.g.g.g.g.g.g.g.g.g.g.l M V R N } 6.=.R R R U P I N c V P U R R R ] 4.2.V  .U N x l g.g.g.g.g.g.g.g.g.g.g.g.g.g.",
"g.g.g.g.g.g.g.g.g.g.g.g.l N V R ^ ;.) _ R T T U P V N N V n N B V P U T T T _ ( 7.;.! V N c g.g.g.g.g.g.g.g.g.g.g.g.g.",
"g.g.g.g.g.g.g.g.g.g.g.l v R ^ ^ :.<.*.V V P P V N N N N B c N B N N V P P V N _ <.2.o.^ ! B l g.g.g.g.g.g.g.g.g.g.g.g.",
"g.g.g.g.g.g.g.g.g.g.l v R ^ :.6.-.E Y L M M N N N N M v v c c M N N N N M v V U T } 6.5.^ Q B l l g.g.g.g.g.g.g.g.g.g.",
"g.g.g.g.g.g.g.g.g.l v R ^ :.,.} E P V B N n M N c c c f : : q l c c M M v N N V L Y ] =.2.^ Q V l g.g.g.g.g.g.g.g.g.g.",
"g.g.g.g.g.g.g.g.g.v R ^ :.,.E Y P B N c c c x h - - - * @ @ @ - - - w c x c c M N V U R O.2.^ Q B l g.g.g.g.g.g.g.g.g.",
"g.g.g.g.g.g.g.g.v R ^ :.,.E P V B N l : - - - = # # # # , 1 % # # # @ - - - - h N B V V T } 2.^ Q V l g.g.g.g.g.g.g.g.",
"g.g.g.g.g.g.g.c N ~ :.,.E Y V N M l - # , % , % 4 4 5 5 5 5 5 5 5 4 , % , & % = h M N V U T O.2.^ P c x g.g.g.g.g.g.g.",
"g.g.g.g.g.g.l b [ :.,.E P V B c 0 = % 4 5 5 r 1 1 8 r r r r r r r 5 , 8 8 5 5 & = - k N V V T } 1.$.C l g.g.g.g.g.g.g.",
"g.g.g.g.g.g.v v V *.R L L N c 0 > , 4 8 8 8 r 5 , , o O O O + o # 5 , r r 8 8 5 1 , 2 k N V P I W L n v c g.g.g.g.g.g.",
"g.g.g.g.g.N E Q V N Y P N c 0 , 8 1 4 8 r 5 o o o X X X X X X X X o X o , 8 8 5 , 8 4 2 k N V T V M R ! V c g.g.g.g.g.",
"g.g.g.g.x R ^ :.*.B L P c 0 # 4 8 1 # o o X X X X X X X X X X X X X X X X o o + , 8 5 % = k V P N ) 1.o.! M g.g.g.g.g.",
"g.g.g.g.N R o.q.E V n c q # 1 8 5 + X X X X X X X X X X X X X X X X X X X X X X X 1 8 5 % - l n N U 4.:.~ V c g.g.g.g.",
"g.g.g.x T E &.-.T B N f @ 1 8 5 @ X X X X X X X X X X X X X X X X X X X X X X X X X 1 8 5 % - v N P } 2.+.Q v g.g.g.g.",
"g.g.g.l P E 8.W U N l ; # 8 5 # O X X X X X X X X X X X X X X X X X X X X X X X X o O 1 8 , * j N P U 4.:.Q v g.g.g.g.",
"g.` l l V U 7.W L N g + % 8 % o + X X X X X X X X X X X X X X X X X X X X X X X o @ o + 8 1 O : n V P 4.:.! v l C y.g.",
"u.7.E N N V 4.E B N g @ % 1 # o O o X X X X X X X X X X X X X X X X X X X X X X X # u # 1 , @ : n N P 6.;.U v U *.u.g.",
"I R ,.| N B 4.W P N g > r , 5 1 @ @ X X X X X X X X X X X X X X X X X X X X X X O O e y , 8 , 0 n V Y 6.@.N R 4._ I g.",
"l N W ,.I N 4.W V N g > r , @ $ $ $ o X X X X X X X X X X X X X X X X X X X X O $ O O 3 3 r , : n V U 3.R N -.' L l g.",
"l V R R I M #.R N M g # 5 & O S e $ @ X X X X X X X X X X X X X X X X X X X X @ > + O > 7 8 , : v N P -.C V R T U c g.",
"l c v M M m B N M v g # 8 , O G y @ $ X X X X X X X X X X X X X X X X X X X X @ 3 e > < t r , 0 c c v N M M M N M c g.",
"g.l N U R E R R E Y g # 8 , O S y @ $ X X X X X X X X X X X X X X X X X X X X @ < > Z 6 t r , : v N V P R Q Q Q R g.g.",
"g.l N P P V N N N N g # 5 % O S F > O X X X X X X X X X X X X X X X X X X X . $ $ > u 6 7 5 % : c N N N N P P V v g.g.",
"g.x c c c c c c c c g + , % O e S 3   . X X X X X X X X X X X X X X X X X X X . @ Z > % 7 4 @ 0 c c c c c c c c l g.g.",
"g.g.g.l M N N N c M g + , % X O Z u $ X X X X X X X X X X X X X X X X X X X X $ u S @ $ 7 4 @ : n v M N N V c g.g.g.g.",
"g.g.g.l N L B N c M g @ 1 % X O Z y 3 @ X X X X X X X X X X X X X X X X X X X u H F e % 7 5 # : n v M V L P c g.g.g.g.",
"g.g.g.l V T P V c M g @ , # X a H y 3 > @ X X X X X X X X X X X X X X X X X @ S H H S < 7 , % : n v N U R _ M g.g.g.g.",
"g.g.g.l P R R ] N V g % 5 % o J K y 3 > > X X X X X X X X X X X X X X X X X > u F H S < 7 8 , : N M V T Q 7.N g.g.g.g.",
"g.g.g.l T ! E 4.B L g > i 1 O H J S e > > X X X X X X X X X X X X X X X X X > e S F 6 > t p 1 : B N V R ~ 8.N g.g.g.g.",
"g.g.g.l T ^ W 4.N N g @ 5 1 O A H H t > > X X X X X X X X X X X X X X X X @ > e F D $ = 7 r # : M M P R ~ 6.N g.g.g.g.",
"g.g.g.l Y ^ ~ 4.N M g @ 8 1 @ < S H t > % X X X X X X X X X X X X X X X X # 3 e F F $ $ 7 r % : n v Y ~ ^ | M g.g.g.g.",
"g.g.g.l L ! ^ ' M M g # 8 , @ $ Z F t > > X X X X X X X X X X X X X X X X % 3 e S D @ $ 6 r , : n v Y ^ ^ Q v g.g.g.g.",
"g.g.g.l V ! Q Q v M g @ 1 % Z H S u e 3 > X X X X X X X X X X X X X X X X % 3 e y A 3 F 7 5 # : n v U Q ! ! v g.g.g.g.",
"g.g.g.l V ! R Q v M g # 5 % u H u e e 3 > X X X X X X X X X X X X X X X X # 3 e e Z 1 S 7 5 , : n v Y E ! ! v g.g.g.g.",
"g.g.g.l V ! Q R v M g # r , t F u 3 < > # X X X X X X X X X X X X X X X X @ 3 3 3 3 6 S e r , : n v U Q ! ! v g.g.g.g.",
"g.g.g.l V ! &.T v N g @ 5 , 7 S y O   + X X X X X X X X X X X X X X X X X X @ @ + 3 F S t 8 % : M M V ! ^ ! v g.g.g.g.",
"g.g.g.l V ~ q.R M L g # 4 # % Z u $ O X X X X X X X X X X X X X X X X X X X O % > e S t 7 5 > : B N V ! ^ ! v g.g.g.g.",
"g.g.g.l V ~ q.R M L g > p 1 $ Z S t 3 O X X X X X X X X X X X X X X X X X X > e e Z D t t p 1 : B N V ! ^ ! v g.g.g.g.",
"g.g.g.l V ~ r.R M L g # r 1 $ Z F u 3 O o X X X X X X X X X X X X X X X X O > e Z F y 7 t p , : B N V ! ^ ! v g.g.g.g.",
"g.g.g.l V ! :.T v B g # 8 , $ Z H u 3 > o X X X X X X X X X X X X X X X X # 1 e F S $ 6 t 8 , : N M V ! ^ ! v g.g.g.g.",
"g.g.g.l V ! T V c M g # 8 , $ 3 Z y e 3 O X X X X X X X X X X X X X X X X o > 5 S S $ 6 t r , : n v N P ! ! v g.g.g.g.",
"g.g.g.l U ! L V c N g # r 1 $ < Z S e 3 o X X X X X X X X X X X X X X X X X > 3 A 6 < 6 t p , : n v N V Q ! v g.g.g.g.",
"g.g.g.l L R V B v V g # 8 , $ < > e 3 3 o X X X X X X X X X X X X X X X X X > Z S $ $ < t r , : N M N V Y T v g.g.g.g.",
"g.g.l l V V N M c c g # 5 % $ > O y e 3 o X X X X X X X X X X X X X X X X X 1 S F > < 6 7 8 , 0 c c n N B L c l g.g.g.",
"g.g.l c m m v v c V l % 5 % $ > O u e 3 o X X X X X X X X X X X X X X X X X 1 S S 6 3 6 7 5 , w V M v v v M v c c g.g.",
"g.g.l U o.o.o.' T o.P # 5 % O $ O > 3 3 o X X X X X X X X X X X X X X X X o > u > < < < 7 5 % k +.o.o.o.o.o.o.W c g.g.",
"g.g.l ) q.r.r.9.8.q./ @ , % O $ $ O > > X X X X X X X X X X X X X X X X X o > 3 O < < 3 7 4 + l 4.8.8.8.8.8.8...c g.g.",
"g./ V N L Y R P L P c + , # O $ $ O > O X X X X X X X X X X X X X X X X X o > 3 O < < 6 7 , @ w N V L L V L V M l g.g.",
"g.` ] V V N V V V V l @ , # O $ $ O > o X X X X X X X X X X X X X X X X X X @ 1 O < % < 7 4 # f V V V V V V V V Y g.g.",
"^ r.r.5.5.=.2.5.5.6.T % r 1 O $ $ + @ X X X X X X X X X X X X X X X X X X X X @ + % $ < t r & l 5.5.5.5.5.5.5.6.t.+.^ ",
"^ _ ] =.=.2.6.6.6.6.T % r 1 $ $ $ $ @ X X X X X X X X X X X X X X X X X X X X O $ $ $ < t r , k =.2.6.6.6.5.,.,._ ~ ^ ",
"1.P N T R ~ ~ Q E Q N # r , < < $ $ $ X X X X X X X X X X X X X X X X X X X X @ % $ @ < t p , g T R ! Q E R R U N +.6.",
"6.P N T R E E R U L c # r 1 O % $ $ $ X X X X X X X X X X X X X X X X X X X X @ % < t < t r , f V P R R T T R P N :.u.",
"6.P N Y U U U V V N l @ 4 & % < $ $ $ X X X X X X X X X X X X X X X X X X X X @ $ < s d t 5 # w N B V P Y Y Y L N ;.u.",
"0.U v M M M M v v v j + , # 3 6 $ $ $ X X X X X X X X X X X X X X X X X X X X @ $ > t a 6 1 @ q v v v M M M M v N ,.u.",
"u.2.Q Q Q Q Q Q Q ! V @ , % < 3 $ O @ X X X X X X X X X X X X X X X X X X X X @ @ < 9 t 3 1 + j ! Q Q Q Q Q Q Q O.t.u.",
"r.e.r.r.r.r.r.r.r.r./ @ , # $ > O X + X X X X X X X X X X X X X X X X X X X X + @ @ < 6 3 1 + z q.r.r.r.r.r.q.q.r.e.w.",
"P X.o.o.o.o.o.| ! E N @ % + < < @ X X X X X X X X X X X X X X X X X X X X X X X o 6 s 6 < % + g E Q | o.o.o.Q E W R n ",
"N R ~ ^ ^ ^ ! R T Y m + # o % $ X X X . . . . . . . . . . . . . . . . . . . . X . X o O % # + g Y Y R Q ~ ! ~ ! R L l ",
"N T E ! ! Q R T P V v = - - - - - - - - - - - - - - - - - - - - - - - - - - - - - - - - - - = g V V Y R W R Q Q R V l ",
"N T U P P P P P V B v j c n N v c c c x c c c v M c c c c c c c c c c c c c c c c c c c c c l l B N V I P P P P T V l ",
"v V N n n n n n n n c c V Y Q U L L V c N V V U T L L L L L L L L L L L L V c M V L L L V N M c n n n n n n n M B M l ",
"c v n N B N N N N N N V Y ! ^ ! Q Q E N N U Q ! ! Q Q Q Q Q Q Q Q Q Q Q R U N V Y Q Q Q Y P V N n N B B B B B B B M l ",
"v V P R Q Q Q Q Q Q Q Q ! ^ ^ ^ ^ ^ ~ L P Q %.6.6.6.6.6.%.^ 6.6.6.6.0.1.~ R V P R ! ^ ~ Q Q Q U P U T T T T R T R V l ",
"M U { q.r.r.r.6.+.%.q.r.r.q.q.q.q.%.! P Q ^ 1.u.u.u.u.u.r.r.u.u.u.u.u.t.r.;.P P Q 6.r.q.r.r.9.7.&.! ! ! ! ! ! Q R V l ",
"N R 4.u.u.u.u.s.u.e.p.s.u.u.u.u.u.r.| P ! %.r.y.y.y.u.u.u.u.u.u.p.d.f.f.s.t._ E 5.y.u.u.p.s.u.a.a.i.i.e.r.r.q.o.~ Y l ",
"V ! 2.t.t.t.t.u.u.t.t.t.t.t.t.t.t.e.o.R ! ^ &.&.&.%.6.t.t.t.t.t.t.u.u.u.t.t.} Q +.&.%.:.e.u.a.t.u.u.u.t.t.t.t.q.r.] c ",
"U R E W W W W W W W W W _ _ _ _ W W R R R R R R R R E W W W W W W W W W W W R R R R R R W _ _ W W W W W _ _ _ _ _ R P "
};
