/* XPM */
static char *ZXpnaWYuY29tLWdpZi1tYWtlci0z_4[] = {
/* columns rows colors chars-per-pixel */
"59 75 256 2 ",
"   c #0B0F09",
".  c #0D110B",
"X  c #10140F",
"o  c #131612",
"O  c #171A16",
"+  c #191B17",
"@  c #1B1D1A",
"#  c #221E1B",
"$  c #1E211D",
"%  c #22221E",
"&  c #28221F",
"*  c #1D1F21",
"=  c #1D2226",
"-  c #1E252C",
";  c #1F282E",
":  c #1F2A33",
">  c #222521",
",  c #2B2522",
"<  c #252A24",
"1  c #2B2B26",
"2  c #21272C",
"3  c #2A2E2A",
"4  c #312A27",
"5  c #342D2A",
"6  c #283027",
"7  c #2C322B",
"8  c #2F382E",
"9  c #35322E",
"0  c #38312E",
"q  c #31392F",
"w  c #202B33",
"e  c #222F3A",
"r  c #24313B",
"t  c #343533",
"y  c #3C3431",
"u  c #343B33",
"i  c #383937",
"p  c #3B3C3A",
"a  c #364134",
"s  c #384236",
"d  c #3D443C",
"f  c #3E4B3C",
"g  c #40403E",
"h  c #414E3F",
"j  c #243442",
"k  c #26394A",
"l  c #263C51",
"z  c #283E51",
"x  c #2A4157",
"c  c #2B455C",
"v  c #2D4760",
"b  c #2E4A64",
"n  c #2F4E69",
"m  c #304F6A",
"M  c #2F506C",
"N  c #30516D",
"B  c #325674",
"V  c #335877",
"C  c #345B7B",
"Z  c #385E7E",
"A  c #434543",
"S  c #484746",
"D  c #454A44",
"F  c #484A47",
"G  c #4C4C4B",
"H  c #504E4E",
"J  c #445242",
"K  c #485846",
"L  c #4D504C",
"P  c #50514F",
"I  c #535453",
"U  c #555A53",
"Y  c gray36",
"T  c #605F5F",
"R  c #5E615D",
"E  c #646464",
"W  c #656B64",
"Q  c #686B67",
"!  c #6C6C6C",
"~  c #6D786C",
"^  c gray45",
"/  c #777877",
"(  c #787977",
")  c #7C7C7C",
"_  c #365F80",
"`  c #376285",
"'  c #3A6384",
"]  c #37658A",
"[  c #38668B",
"{  c #37688F",
"}  c #3A698E",
"|  c #3A6C93",
" . c #3B6F98",
".. c #3F7096",
"X. c #3D729C",
"o. c #3D76A2",
"O. c #3E79A6",
"+. c #3E7AA8",
"@. c #406D8F",
"#. c #427093",
"$. c #427194",
"%. c #41749B",
"&. c #43759B",
"*. c #447498",
"=. c #42769E",
"-. c #4277A0",
";. c #4378A1",
":. c #447BA4",
">. c #487EA5",
",. c #427FAD",
"<. c #427DAA",
"1. c #487FA9",
"2. c #4980A7",
"3. c #4380AE",
"4. c #4480AE",
"5. c #4B84AE",
"6. c #4A82AC",
"7. c #4583B1",
"8. c #4683B0",
"9. c #4785B3",
"0. c #4A86B2",
"q. c #4B88B4",
"w. c #4C89B4",
"e. c #4E8BB8",
"r. c #4D8CBA",
"t. c #4D8CBA",
"y. c #508CB7",
"u. c #508FBB",
"i. c #508DB9",
"p. c #4F90BE",
"a. c #5291BE",
"s. c #5394C2",
"d. c #5798C6",
"f. c #599AC7",
"g. c #579AC8",
"h. c #5B9DCB",
"j. c #5DA1CE",
"k. c #61A1CA",
"l. c #64A6D1",
"z. c #68A9D2",
"x. c #848484",
"c. c #878887",
"v. c #888887",
"b. c gray54",
"n. c gray58",
"m. c gray61",
"M. c gray63",
"N. c #ACABAB",
"B. c #B2B2B2",
"V. c #BCBCBC",
"C. c gray77",
"Z. c #CECECE",
"A. c None",
"S. c black",
"D. c black",
"F. c black",
"G. c black",
"H. c black",
"J. c black",
"K. c black",
"L. c black",
"P. c black",
"I. c black",
"U. c black",
"Y. c black",
"T. c black",
"R. c black",
"E. c black",
"W. c black",
"Q. c black",
"!. c black",
"~. c black",
"^. c black",
"/. c black",
"(. c black",
"). c black",
"_. c black",
"`. c black",
"'. c black",
"]. c black",
"[. c black",
"{. c black",
"}. c black",
"|. c black",
" X c black",
".X c black",
"XX c black",
"oX c black",
"OX c black",
"+X c black",
"@X c black",
"#X c black",
"$X c black",
"%X c black",
"&X c black",
"*X c black",
"=X c black",
"-X c black",
";X c black",
":X c black",
">X c black",
",X c black",
"<X c black",
"1X c black",
"2X c black",
"3X c black",
"4X c black",
"5X c black",
"6X c black",
"7X c black",
"8X c black",
"9X c black",
"0X c black",
"qX c black",
"wX c black",
"eX c black",
"rX c black",
"tX c black",
"yX c black",
"uX c black",
"iX c black",
"pX c black",
"aX c black",
"sX c black",
"dX c black",
"fX c black",
"gX c black",
"hX c black",
"jX c black",
"kX c black",
"lX c black",
"zX c black",
"xX c black",
"cX c black",
"vX c black",
"bX c black",
"nX c black",
"mX c black",
"MX c black",
"NX c black",
"BX c black",
"VX c black",
"CX c black",
"ZX c black",
"AX c black",
"SX c black",
"DX c black",
"FX c black",
"GX c black",
"HX c black",
"JX c black",
"KX c black",
"LX c black",
"PX c black",
"IX c black",
"UX c black",
/* pixels */
"A.A.A.A.A.A.A.A.A.A.A.A.A.A.A.A.A.A.A.A.A.A.A.A.A.A.A.A.A.A.A.A.A.A.A.A.A.A.A.A.A.A.A.A.A.A.A.A.A.A.A.A.A.A.A.A.A.A.A.",
"A.A.A.A.A.A.A.A.A.A.A.A.A.A.A.A.A.A.A.A.A.A.A.A.A.A.A.b b b b b A.A.A.A.A.A.A.A.A.A.A.A.A.A.A.A.A.A.A.A.A.A.A.A.A.A.A.",
"A.A.A.A.A.A.A.A.A.A.A.A.A.A.A.A.A.A.A.A.A.A.A.c v b V | V C | | B b c c A.A.A.A.A.A.A.A.A.A.A.A.A.A.A.A.A.A.A.A.A.A.A.",
"A.A.A.A.A.A.A.A.A.A.A.A.A.A.A.A.A.A.A.A.A.n n b B | o.+.` ] ,.+.X.| N n n n A.A.A.A.A.A.A.A.A.A.A.A.A.A.A.A.A.A.A.A.A.",
"A.A.A.A.A.A.A.A.A.A.A.A.A.A.A.A.A.A.A.c n | X.X.o.+.3.3.` *.t.3.3.+.o.X.X.| n c A.A.A.A.A.A.A.A.A.A.A.A.A.A.A.A.A.A.A.",
"A.A.A.A.A.A.A.A.A.A.A.A.A.A.A.A.A.A.c n | +.3.8.8.9.i.s.$.#.a.i.i.9.8.8.3.+.[ n c A.A.A.A.A.A.A.A.A.A.A.A.A.A.A.A.A.A.",
"A.A.A.A.A.A.A.A.A.A.A.A.A.A.A.A.c n n [ 3.9.t.i.i.5.| :.} B } |  .0.i.i.w.9.3.` N N c A.A.A.A.A.A.A.A.A.A.A.A.A.A.A.A.",
"A.A.A.A.A.A.A.A.A.A.A.A.A.A.c n B { V ..e.w. .| | } ` ` V n V ` ` } | | ..w.e.} #.%.B b c A.A.A.A.A.A.A.A.A.A.A.A.A.A.",
"A.A.A.A.A.A.A.A.A.A.A.A.A.n V [ +.7.=.*. .} } [ ` _ B B C N N B V _ ` [ } } ..$.6.q.+.` V n A.A.A.A.A.A.A.A.A.A.A.A.A.",
"A.A.A.A.A.A.A.A.A.A.A.c b ] +.+.8.w.5.] B _ ` _ V B B B B n N V B B V _ ` _ B } 0.q.3.+.+.` b c A.A.A.A.A.A.A.A.A.A.A.",
"A.A.A.A.A.A.A.A.A.A.c b ] +.3.t.q.%.[ ` B n B B B B B n n b b m B B B B B n B ` } =.w.t.,.+.` b c A.A.A.A.A.A.A.A.A.A.",
"A.A.A.A.A.A.A.A.A.c b ] +.3.w.1.%.` C V B N m B n n b k : : w z n n n B n N B V C ] =.1.w.,.+.` b c A.A.A.A.A.A.A.A.A.",
"A.A.A.A.A.A.A.A.A.b ] +.,.w.=.[ ` V B m b b c c : ; ; = + # # = ; ; w c c b b N B V ] } ;.w.,.+.` b A.A.A.A.A.A.A.A.A.",
"A.A.A.A.A.A.A.A.b ] +.3.w.=.] C V B n e = = - = # # # # , 4 , # # # # = - = = j N B V C ] ;.e.,.O.` c A.A.A.A.A.A.A.A.",
"A.A.A.A.A.A.A.v m X.,.w.%.[ ` B B n e # , & , & 1 4 5 4 5 5 5 4 5 4 1 & , & , @ j n B B ` [ ;.e.,.| n c A.A.A.A.A.A.A.",
"A.A.A.A.A.A.c c $.8.w.%.] V V m j = # , 5 5 y 5 , 0 y y y y y y y 5 , 5 y 5 5 , > = k N V V [ =.q.4.} c c A.A.A.A.A.A.",
"A.A.A.A.A.A.n n N >.%._ ` V m j > , 4 5 0 0 y 5 , 5 @ + @ @ + @ # 5 , 0 y 0 0 5 4 , > k N V ` `  .[ N n n A.A.A.A.A.A.",
"A.A.A.A.A.N [ o.` N ` ] V m j > 0 5 , 5 0 5 & @ + % < > q < % < < @ + # > 0 0 5 , 5 5 > k N V ] _ m ] o.] n A.A.A.A.A.",
"A.A.A.A.c _ +.3.0.Z C ` B j @ , 0 5 & + + % u t 7 7 1 1 q > @ > > 7 q u i % @ + & 5 5 , @ k B ` V ] 0.3.+.V A.A.A.A.A.",
"A.A.A.A.N ] O.r.:.` N n k @ , 5 0 # o % u G L s 1 $ o o + O o o o 1 t d U F 6 + o , 0 5 , * z m B ` 1.t.+.] M A.A.A.A.",
"A.A.A.A.C X.:.w...V B x @ , 5 0 & + > p E ^ I 6 O O O + @ o o O O o o t E ( F 1 % + , 0 5 , * c B C =.w.3.+.V A.A.A.A.",
"A.A.A.A.V | 0.:.[ V n e @ 5 0 & + 1 L Q ^ Y 7 O @ $ $ $ $ + O @ $ @ o + S ^ ^ R D < + , 0 5 @ j m C ] >.e.+.V A.A.A.A.",
"A.w.b c B ` 6.:.` V c @ # 5 1 + 3 t Q ) Q A @ @ $ $ $ $ $ + O $ > < $ o > Y ^ x.R q < + 5 5 + = b V _ >.e.+.B c m a.A.",
"A.s.&.V N V >.:.V B c * # , , % t A Q E p < $ > < < > $ $ + O $ > > % @ + 7 G ^ E d 8 + , , # = b B C 6.e.| N _ :.d.A.",
"A.} 6.5.C N 2.:.` V c = 5 5 % 6 u F Y i o o @ $ > > % $ $ + O $ $ $ $ $ o o @ S Y D 8 @ @ 9 5 = b V ` 6.t.C ` 0.:.[ A.",
"A.n | 5.$.n 2.:._ B c = 0 0 $ q u 6 > + $ > @ $ > < < < > + @ < < > $ @ @ 3 o + < t u 3 @ y 5 = b V ` 5.:.N :.1.[ b A.",
"A.N | } } B *.=.V B c * 4 1 > u 6 @ @ 7 I p @ @ % > > > % + O $ > % $ @ > U G o O 7 u t $ 5 4 = b B V :.@.B } } | n A.",
"A.b n N N M B B N M c * 5 5 > u 6 $ @ i ^ E 3 @ < < > $ % + O $ < < > $ S x.Y O + 6 s u % 0 4 = c b n B N N B B B b A.",
"A.A.n ` | X.| | | | b * 5 5 > s 8 $ O S ! I > @ o $ < < > + @ < < @ o + 3 ^ Q i O > J f % 0 4 = b B V ` } X.X.X.| A.A.",
"A.A.n ` ` C B B B B c * 1 , > D f $ O A G 7 L I + . . + $ + + @ X   @ I 3 t Y t + $ f d $ 1 , = c N B B B C ` ` N A.A.",
"A.A.v b b n b b b b x @ & , > J f @ o % 3 A x./ p + .   . X X . X + A 2.! > 9 o o $ u s $ , & = c b b b b n b b v A.A.",
"A.A.A.A.n B B B b N c @ & , > f a O 3 > @ A ) m.b.E G i t < O 3 G Q b.n.Y >   > 3 @ J f $ , # = b N n B B V n A.A.A.A.",
"A.A.A.A.N _ V B b N c * , , > u 6 O E R < F / M.V.V.N.m.b.H t / M.V.B.b.U 3 3 ) U O J f $ 1 , = b N n V _ ` N A.A.A.A.",
"A.A.A.A.B } ` _ n N c * , & > u 6 O I ) G i E b.N.C.Z.C.N.G G M.B.V.M.) Y 7 n.N.S O J f @ , , = b N N ] } -.V A.A.A.A.",
"A.A.A.A.V | } :.V B c * 5 1 > f u @ 3 ^ b.^ ) b.n.B.Z.C.M.H G M.B.N.b.x.b.) B.^ > @ J f $ 4 4 = b B B } | t.' A.A.A.A.",
"A.A.A.A.C O.| w.` C c = 0 0 > J f $ O S b.m.b.c.b.m.B.B.M.H S n.m.n.b.b.n.m.^ 3 o $ u s % y 5 = n C B } X.r.' A.A.A.A.",
"A.A.A.A.C +.X.w.` B c @ , 9 > J f $ $ 3 E c.b.b.b.b.n.n.b.G p ) b.c.b.c.b.x.S o $ < q 8 % y , = b B V  .X.r.` A.A.A.A.",
"A.A.A.A.C +.+.t.` N c * 5 9 > D W A $ @ t Q b.n.n.b.c.c.x.S p ) c.b.n.n.b.E @ O $ G L 7 < y 1 = b m C +.+.,.V A.A.A.A.",
"A.A.A.A.B X.+.<.V N c * 5 9 > h ~ G @ o 7 ^ n.m.m.n.b.b.x.F p ) b.n.m.m.n.U X o $ Y U 6 > y 4 = b N C +.+.+.B A.A.A.A.",
"A.A.A.A.B X.X.X.B N c * , , > D R Q i $ G ^ n.M.B.C.V.M.c.F p v.B.C.C.N.b.Y i X D Q D 7 @ 1 & = b N C X.X.+.V A.A.A.A.",
"A.A.A.A.B X.X.X.B N c * 4 1 > J U U 7 > L Y ^ c.b.n.B.V.n.S A m.V.B.m.c.E Y d   i Y d 7 @ 4 1 = b N C X...+.V A.A.A.A.",
"A.A.A.A.B X.X.X.B N c * 5 9 > J s i 3 7 T E S t 3 i R b.c.A A v.Q i 3 i I ! I o t d 8 8 @ y 4 = b N V X.X.+.V A.A.A.A.",
"A.A.A.A.B X.3...N B c * 1 4 > J a t < S / / S $ .   + G ! i t A +   . > E b.Q t 3 3 8 a $ 5 , = b B B X.+.+.V A.A.A.A.",
"A.A.A.A.B X.r.:.N _ c * 1 , > f q $ @ D ) n.) i . . 3 Y Q i 3 I 3   . G M.n.Q i $ $ f f $ , , = n C B X.+.+.V A.A.A.A.",
"A.A.A.A.B X.r.:.N C c = y 0 > u < $ + D ^ b.n./ I I E ) / g i ^ E P E m.V.c.Q i @ $ f f % y 0 = n C B X.+.+.V A.A.A.A.",
"A.A.A.A.B X.r.:.N _ c * 5 0 > f 8 $ > p E ^ c.c.b.c.) n.n.S S ^ / b.n.M.n.^ I < > $ f f % y 4 = n C B X.+.+.V A.A.A.A.",
"A.A.A.A.B X.8.X.N B c * 5 4 > J a $ 6 7 I Q ! ! Q ! b.N.b.t S c.) Q Q ! ! E p + 6 $ f f % 5 4 = b B B X.+.+.V A.A.A.A.",
"A.A.A.A.B X.| _ n N c * 5 5 > J a $ 6 $ > p Y E E ^ x.^ G > > E ) ! E E I 3 @ @ 6 $ t s % 9 4 = b N m ` X.+.V A.A.A.A.",
"A.A.A.A.V O.] C N N c * 5 0 > J a $ 6 > @ + t A G ^ / I t < o G ) ^ G p % o % < 6 @ 3 u % y 4 = b N N C | +.B A.A.A.A.",
"A.A.A.c B | ` V n V c * 5 9 $ u 6 $ < < < $ o @ d ^ ) ! G < < E x.! i o o < 1 > > @ 6 u % y 4 = b B n V ` | B A.A.A.A.",
"A.A.A.c B _ B B b n c * 4 1 @ 8 < $ 3 < 1 % X + S ! ^ / Q i t Q ^ ! d o O 6 6 1 1 @ 3 u % 4 4 = c b b B B _ N c A.A.A.",
"A.A.A.b n N n n b B N = 4 , @ 8 < $ 6 6 6 < > d Q ! ^ ^ ^ i i E ^ ! Q p < 6 6 6 3 $ 7 u $ 1 1 ; B B n n n N n n b A.A.",
"A.A.A.V <.<.<.<.| ;...- 4 , @ t 1 @ < 1 1 < > t G Y ^ ! ^ i i E / U F i 3 1 1 1 > + f f $ 1 , e :.<.<.<.<.<.<.:.N A.A.",
"A.A.A.` i.a.s.a.i.i.6.- & , @ f a O > > > > $ o @ D ! ! Q i t E ! d o O < > > > > @ s d $ , # r 5.y.i.i.i.i.i.w.B A.A.",
"A.A.} m C ] | ` _ _ B = & , @ s u + > < 3 6 1 $ O i ! x.! i 9 ^ ! 3 o > 6 6 1 < < @ 6 u $ , # - N B _ _ _ _ _ B b A.A.",
"A.' 0.V V B B V V V N = , , $ t < @ $ % < < 1 < 1 U ) / ^ i i E ) L > < 3 < > $ $ O 6 u $ , & ; B V V V V V V V ] A.A.",
"+.t.d.t.t.0.0.t.t.t.:.2 5 9 > d 7 O $ $ $ > > $ 3 I I d U t > 7 U L > > > $ $ $ $ O 3 u % y 4 r 0.t.t.t.t.t.t.t.d.9.+.",
"+.o.*.6.5.0.t.t.t.t.1.2 5 9 > J a O $ @ @ $ $ $ > i 7 < s < + @ t t % $ $ O @ $ $ O u s % y 4 r :.0.e.t.t.t.0.q.&.+.+.",
"t.| N [ | o.+.X. . .] = 5 9 > J a O @ 8 q < < < > @ @ 8 f < % < O $ < > < s 7 O @ + f f % y 4 w ` | X.o. . .| | N X.t.",
"d. .N [ |  . .| [ ` B = 5 9 > J a o 8 f 8 > > > % $ $ 8 f < % < @ % > > > s h 7 O O f f % y 4 ; V ` | | } } } ] N o.g.",
"d. .N ] ] ] ] _ V B m = , 1 $ u 6 7 D q > $ $ $ $ $ @ 8 f < % < @ $ $ $ $ < s h J 6 f f $ 4 & - N V V ` [ [ [ ] N o.d.",
"d.X.n N N N N n n n v * & , @ 8 f J s < $ $ $ > 8 7 $ q f < $ < $ 8 8 % $ % 6 s f u s q @ , # = b n n n N N N N M :.g.",
"h.u.o.X.X.X.X.X.X.o.| = & , @ 8 s s t $ @ > < < < a J J f < $ s J t @ $ < $ $ t u u u 7 @ 1 # w ..o.X.X.X.X.X.X.:.s.h.",
"a.d.s.s.s.s.s.s.s.s.5.- & , @ 6 8 u 6 $ $ $ $ $ $ 6 a d f < $ t s 6 $ $ $ $ $ 6 t t u 7 @ , # r w.s.s.s.s.s.a.a.a.d.a.",
"B o.<.<.<.<.<.<.+...` = # # @ 6 6 q f f J K K K J s 6 u d < @ 3 q f K J s K K f t 8 6 3 @ # # : } ..+.<.<.<.X... ...N ",
"n | o.+.+.+.O.| } [ C = + + + < > < < < < < < < < < < 6 q % + > < < < 1 1 < < < < < < > + + + : ` ] } | +.O.+.+.| ] b ",
"n ] | o.o.o.| } ] C V ; ; ; ; ; - - ; ; ; ; ; ; ; ; ; ; ; - ; ; ; ; ; w w ; ; ; ; ; ; ; ; ; = : V C ] }  .| ..o.| ` b ",
"n [ [ ` ` ` ` ` V B B k b n B N n n n b b n n n N n n n n n n n n n n n n n b b n n n n n n v l B B V ` ` ` ` ` [ ] b ",
"b B B m m m m m m m n b B ` X.| _ _ _ m N V C ` | ` _ _ _ _ _ C _ _ _ _ C C N n V _ _ _ _ V B b n m m m m m m m B B b ",
"b n n N B B B B B B B V ` X.+.O.X.X.X.V B _  .X.O.X.X.X.X.X...X.X.X.X.X. .[ V B ] | X...| ` _ B m N B V V V V V V B b ",
"b V ` } X.X.X.X.X.X.X.X.o.+.+.+.+.+.+.` ` X.<.t.r.r.r.p.9.+.9.p.r.r.r.t.+.X.` _ } X.+.+.o.X.X.} ` ] } } } } } } } ] b ",
"n ` %.t.s.s.s.s.8.<.t.s.s.a.s.s.a.9.+.` | +.,.g.h.h.h.h.d.a.d.h.h.h.h.h.s.q.| _ | 0.s.a.s.s.a.i.0.o.o.o.o.o.o.X.| ] b ",
"n | 4.h.h.h.h.l.k.d.h.l.h.h.h.h.h.d.9.] X.+.p.g.g.g.h.h.h.h.h.h.h.l.z.z.l.h.5.| 9.d.h.h.h.l.j.j.l.k.k.f.s.s.s.8.+...n ",
"N X.8.d.d.d.d.f.h.f.f.f.f.d.d.d.d.f.0.| X.+.,.4.4.3.q.d.d.d.d.d.d.f.h.h.f.f.0.X.<.4.4.4.s.h.k.f.h.h.h.g.f.f.d.s.s.w.N ",
"] | | .............................. .| | | | | | | | ...................... .| | | | | ..%.%.................%.%...] "
};
