/* XPM */
static char *ZXpnaWYuY29tLWdpZi1tYWtlci0z_28[] = {
/* columns rows colors chars-per-pixel */
"59 75 256 2 ",
"   c #0F130E",
".  c #14120F",
"X  c #151311",
"o  c #181614",
"O  c #161915",
"+  c #1A1916",
"@  c #1D1C1A",
"#  c #211E1C",
"$  c #1E211D",
"%  c #23211F",
"&  c #29231F",
"*  c #1D1F21",
"=  c #1E2124",
"-  c #1D242B",
";  c #1E2730",
":  c #1F2933",
">  c #242421",
",  c #2A2522",
"<  c #252A24",
"1  c #2D2925",
"2  c #2B2C2A",
"3  c #312A27",
"4  c #332D2A",
"5  c #2D332C",
"6  c #2E382D",
"7  c #31322F",
"8  c #39312E",
"9  c #31382F",
"0  c #202B35",
"q  c #212E39",
"w  c #22303C",
"e  c #343433",
"r  c #3C3532",
"t  c #353B33",
"y  c #383A37",
"u  c gray23",
"i  c #403835",
"p  c #374136",
"a  c #394437",
"s  c #3C433B",
"d  c #3E4A3C",
"f  c #40403F",
"g  c #414F3F",
"h  c #233442",
"j  c #243847",
"k  c #273C4E",
"l  c #293D4C",
"z  c #273D51",
"x  c #283E52",
"c  c #2B404E",
"v  c #2A4154",
"b  c #2C465E",
"n  c #2C4760",
"m  c #2E4B65",
"M  c #2F4E69",
"N  c #304D67",
"B  c #304F6A",
"V  c #2F506C",
"C  c #30516E",
"Z  c #325573",
"A  c #345877",
"S  c #345B7B",
"D  c #395E7D",
"F  c #434443",
"G  c #474847",
"H  c #484846",
"J  c #4B4C4B",
"K  c #445342",
"L  c #4F504E",
"P  c #535453",
"I  c #565856",
"U  c #585857",
"Y  c #5C5D5B",
"T  c #616261",
"R  c #365F81",
"E  c #366184",
"W  c #3A6384",
"Q  c #37658A",
"!  c #38668B",
"~  c #3A698E",
"^  c #3A6C93",
"/  c #3B6F98",
"(  c #3E7095",
")  c #3D729B",
"_  c #3D75A2",
"`  c #3E7AA9",
"'  c #427296",
"]  c #41749B",
"[  c #46799F",
"{  c #4076A0",
"}  c #4379A3",
"|  c #447AA2",
" . c #467BA4",
".. c #467DA6",
"X. c #427AA4",
"o. c #487BA2",
"O. c #497EA5",
"+. c #407DAB",
"@. c #477EA8",
"#. c #427FAD",
"$. c #427DAA",
"%. c #4A80A7",
"&. c #4680AB",
"*. c #4380AE",
"=. c #4480AD",
"-. c #4A82AC",
";. c #4B85AF",
":. c #4A83AC",
">. c #4482B0",
",. c #4582B0",
"<. c #4684B2",
"1. c #4B87B3",
"2. c #4C86B1",
"3. c #4987B5",
"4. c #4A88B5",
"5. c #4C88B4",
"6. c #4B8AB8",
"7. c #4D8BB8",
"8. c #4E8DBB",
"9. c #4D8CBA",
"0. c #518BB4",
"q. c #508CB7",
"w. c #508DB9",
"e. c #518FBC",
"r. c #4F90BE",
"t. c #5291BE",
"y. c #5191BE",
"u. c #5595C3",
"i. c #5394C2",
"p. c #5798C6",
"a. c #5999C6",
"s. c #579AC8",
"d. c #5A9DCB",
"f. c #609FC9",
"g. c #5DA0CD",
"h. c #62A3CD",
"j. c #64A6D0",
"k. c #67A8D1",
"l. c #68A9D2",
"z. c None",
"x. c black",
"c. c black",
"v. c black",
"b. c black",
"n. c black",
"m. c black",
"M. c black",
"N. c black",
"B. c black",
"V. c black",
"C. c black",
"Z. c black",
"A. c black",
"S. c black",
"D. c black",
"F. c black",
"G. c black",
"H. c black",
"J. c black",
"K. c black",
"L. c black",
"P. c black",
"I. c black",
"U. c black",
"Y. c black",
"T. c black",
"R. c black",
"E. c black",
"W. c black",
"Q. c black",
"!. c black",
"~. c black",
"^. c black",
"/. c black",
"(. c black",
"). c black",
"_. c black",
"`. c black",
"'. c black",
"]. c black",
"[. c black",
"{. c black",
"}. c black",
"|. c black",
" X c black",
".X c black",
"XX c black",
"oX c black",
"OX c black",
"+X c black",
"@X c black",
"#X c black",
"$X c black",
"%X c black",
"&X c black",
"*X c black",
"=X c black",
"-X c black",
";X c black",
":X c black",
">X c black",
",X c black",
"<X c black",
"1X c black",
"2X c black",
"3X c black",
"4X c black",
"5X c black",
"6X c black",
"7X c black",
"8X c black",
"9X c black",
"0X c black",
"qX c black",
"wX c black",
"eX c black",
"rX c black",
"tX c black",
"yX c black",
"uX c black",
"iX c black",
"pX c black",
"aX c black",
"sX c black",
"dX c black",
"fX c black",
"gX c black",
"hX c black",
"jX c black",
"kX c black",
"lX c black",
"zX c black",
"xX c black",
"cX c black",
"vX c black",
"bX c black",
"nX c black",
"mX c black",
"MX c black",
"NX c black",
"BX c black",
"VX c black",
"CX c black",
"ZX c black",
"AX c black",
"SX c black",
"DX c black",
"FX c black",
"GX c black",
"HX c black",
"JX c black",
"KX c black",
"LX c black",
"PX c black",
"IX c black",
"UX c black",
/* pixels */
"z.z.z.z.z.z.z.z.z.z.z.z.z.z.z.z.z.z.z.z.z.z.z.z.z.z.z.z.z.z.z.z.z.z.z.z.z.z.z.z.z.z.z.z.z.z.z.z.z.z.z.z.z.z.z.z.z.z.z.",
"z.z.z.z.z.z.z.z.z.z.z.z.z.z.z.z.z.z.z.z.z.z.z.z.z.z.m m m m m m z.z.z.z.z.z.z.z.z.z.z.z.z.z.z.z.z.z.z.z.z.z.z.z.z.z.z.",
"z.z.z.z.z.z.z.z.z.z.z.z.z.z.z.z.z.z.z.z.z.z.z.b m m R ^ Z E ^ ^ C m b b z.z.z.z.z.z.z.z.z.z.z.z.z.z.z.z.z.z.z.z.z.z.z.",
"z.z.z.z.z.z.z.z.z.z.z.z.z.z.z.z.z.z.z.z.z.M M m S ) _ ` S ^ ` ` ) ~ M m M m z.z.z.z.z.z.z.z.z.z.z.z.z.z.z.z.z.z.z.z.z.",
"z.z.z.z.z.z.z.z.z.z.z.z.z.z.z.z.z.z.z.b Z ) ) ) _ +.*.#.S O.4.*.*.` ) ) ) Q m b z.z.z.z.z.z.z.z.z.z.z.z.z.z.z.z.z.z.z.",
"z.z.z.z.z.z.z.z.z.z.z.z.z.z.z.z.z.z.b C ) ` ,.,.,.4.w.u.W o.y.e.9.,.,.,.#.` E m b z.z.z.z.z.z.z.z.z.z.z.z.z.z.z.z.z.z.",
"z.z.z.z.z.z.z.z.z.z.z.z.z.z.z.z.b M M ^ ,.3.9.w.w.$.^ :.W S ^ ^ ( 5.w.w.5.<.+.S Z N b z.z.z.z.z.z.z.z.z.z.z.z.z.z.z.z.",
"z.z.z.z.z.z.z.z.z.z.z.z.z.z.b M A ^ Z } 9.;.^ ^ ^ ! E E A m S E Q ^ ^ ~ ] 5.4.E o.~ Z m b z.z.z.z.z.z.z.z.z.z.z.z.z.z.",
"z.z.z.z.z.z.z.z.z.z.z.z.b Z S ^ ` ,.' ] ^ ~ ~ Q E S Z Z S B C A S E E ~ ~ ~ ' ' 0.<._ R S m z.z.z.z.z.z.z.z.z.z.z.z.z.",
"z.z.z.z.z.z.z.z.z.z.z.b M ^ ` ` <.2.-.R S E E S Z Z Z Z Z m C Z Z Z S E E S Z ' 2.4.+.` _ S n b z.z.z.z.z.z.z.z.z.z.z.",
"z.z.z.z.z.z.z.z.z.z.b M ^ ` ,.9.1./ ! R C C Z Z Z Z Z M M m m B Z Z Z Z Z M Z Q ~ ..7.6.+._ S b b z.z.z.z.z.z.z.z.z.z.",
"z.z.z.z.z.z.z.z.z.b M ^ ` ,.1.../ E S A Z C C Z m m m j : : 0 v m m C Z M C Z S R Q | :.4.+._ S b b z.z.z.z.z.z.z.z.z.",
"z.z.z.z.z.z.z.z.z.M ^ ` ,.1.( ! E A Z m m m b x - - : = @ @ @ - - - w m n m m C Z S Q ~ ..4.+._ S m z.z.z.z.z.z.z.z.z.",
"z.z.z.z.z.z.z.z.M ^ ` ,.5.( E S S Z m 0 - - - = # # # # , 1 & # # # # - - - - j C Z S S ~ ..4.` _ S b z.z.z.z.z.z.z.z.",
"z.z.z.z.z.z.z.b C _ ,.5./ ! R Z Z m 0 # , & , & 3 3 4 4 4 4 4 4 3 3 , & , & & * k C Z S Q ~ ..4.#.Q m b z.z.z.z.z.z.z.",
"z.z.z.z.z.z.b m [ <.5./ E S A m q = % 1 4 4 r 3 , 8 r r r r r r r 4 , 8 r 4 4 , = - z Z S S ~ | 3.&.W b z.z.z.z.z.z.z.",
"z.z.z.z.z.z.M M A O.^ R E Z m q & , 3 4 8 8 r 4 , 1 o + + o + o # 3 , r r 8 8 4 1 , > z Z S E E ( E B M m z.z.z.z.z.z.",
"z.z.z.z.z.C ^ ) S C Q E A m q > 8 3 1 8 r 4 + o o o X X X X X X X o o o & 8 8 4 , 8 4 = z Z S ~ S C ~ _ R m z.z.z.z.z.",
"z.z.z.z.b ! ` ,.:.A R E M q # 1 8 1 # o o o X X X X X X X X X X X X X X X o o + , 4 4 & = z S E Z ~ 4.#._ Z z.z.z.z.z.",
"z.z.z.z.Z ^ ` y.( R B m h # 1 8 4 # o + + X X X X X X X X X X X X X X X o o @ + o 1 8 4 & = b B Z Q 2.3.` R M z.z.z.z.",
"z.z.z.b Q ) $.1.^ S Z k @ 1 8 4 1 # @ , @ o X X X X X X X X X X X X X X o @ , % o o 1 8 4 & - m Z R  .4.#._ C z.z.z.z.",
"z.z.z.b E ^ w.] Q A m : # 8 4 4 F e > > o X o o X X X X X X X X X X o o X o # > > u 2 1 8 1 * k C E Q ;.3._ C z.z.z.z.",
"z.O.b b S Q 5.] R Z k @ & 8 , y P y 2 % o o o o o X X X X X X X X X o o o X + > f T s + 4 3 + - m S E ;.3._ C b A p.z.",
"d.t.' Z Z S 2.] S Z k @ & 1 # y I u < $ o o o o o o X X X X X X X X o o o X + < u Y H @ 1 , # ; m Z E 5.<.~ M W %.a.z.",
"W ~ 1.$.Z Z 5.] E Z k % 8 1 > f u < $ @ O o o o o o X X X X X X X X o o o + @ $ > y H < % 8 1 ; m S Q 5.,.Z ! 5.| W z.",
"b C / 1.! C 5.] S Z k # r 3 > 5 y < @ % O o o o o o X X X X X X X X o o o + $ $ 2 $ 2 5 % r 1 ; m S E 5.' C :.} E n z.",
"b Z ^ ^ Q C O./ Z C k @ 4 , @ $ u 2 < < O o o o o o X X X X X X X X o o o + > @ 2 > $ 5 @ 4 , ; m Z S -.W S ^ ~ ! m z.",
"z.m M C C M A Z C M k @ 8 1 @ @ y < 2 5 O o o o o o X X X X X X X X o o o @ 2 $ J e > 9 > r , ; m m M Z C C C Z Z m z.",
"z.b Z Q ^ ) ^ ^ / ~ x @ 8 1 @ $ e 7 2 2 @ X X o o X X X X X X X X X o o o @ % 2 P J t g > r , - m Z S E ^ ) ) ) ^ z.z.",
"z.b C E E S Z Z Z Z k @ 3 & $ $ O y 2 O < o . . o X X . X X X X X X . . @ > . J y e t d % 3 , ; m Z Z Z Z R E R M z.z.",
"z.z.m m m m m m m m k @ , & $ $   > > O < % o o . . X . X X X X X X . o @ 2 $ > O o > t % 1 # ; m m m m m m m m b z.z.",
"z.z.z.b C Z Z Z m Z z @ , & @ e 2 < < 2 e 4 < # o o . X X X X X X X + # , 2 2 u y @ > g % 1 # ; m M B Z Z S m z.z.z.z.",
"z.z.z.b Z R S Z m C k @ 1 > @ U P u 7 2 u y 2 % % @ o X X X X X X o # > 4 e e T T y < g % 3 & ; m B B S R E M z.z.z.z.",
"z.z.z.b S ~ E S m C l @ , # @ J G P F 2 e y 4 , % % @ . X X X X X o % 2 4 y e U U P t g % , & - m M Z Q ^ ] Z z.z.z.z.",
"z.z.z.b E ^ ^ | Z S z % 4 , @ 2 F Y J u y y 4 2 % # o X X X X X X o > 2 4 u G Y Y I e g % 4 1 ; C Z S ~ ( w.A z.z.z.z.",
"z.z.z.b Q _ / 0.S R z % r 4 $ $ y P G F u e , > % @ X X X X X X X o % , 4 u I Y J y < y > i 3 - Z A S ~ _ w.A z.z.z.z.",
"z.z.z.b Q ` ( 5.A Z z @ 4 3 $ < u J u u u e > % % @ X X X X X X X o # , y u P U J > > 5 > r & ; C C E ^ _ 9.A z.z.z.z.",
"z.z.z.b Q ` ` 9.A C k @ 8 3 u U J J e y u y > % % @ o X X X X X X o # 2 u u I I J > % 5 2 r , ; m M E ` ` +.Z z.z.z.z.",
"z.z.z.b S _ ` X.C C l @ 8 1 H U G J e y u u 2 > % % + X X X X . X # > 7 u P T I J > $ 5 > r , ; m M E ` ` _ C z.z.z.z.",
"z.z.z.b S _ ) ) C C l @ 1 > u u G P u y f u 4 2 > % @ X X X X . X # < e f P Y P J 5 J y @ 3 # ; m M E ) _ _ C z.z.z.z.",
"z.z.z.b S _ ^ ) C C x @ 4 , 7 e F P J u u y 2 2 2 % @ . X X X X X % 2 e i u J J G 5 P y @ 4 , ; m M E ) _ _ C z.z.z.z.",
"z.z.z.b S _ ) / C C x @ 8 3 @ + u J u e 2 > + @ > % @ . X X X . X % > # 2 2 e y F y I y % r , ; M M E ( _ _ C z.z.z.z.",
"z.z.z.b S _ *.^ M Z x @ 4 , + O u F > < $ + X o @ % @ X X X X . o @ X o @ @ % G P P I s % 4 , ; C C S ) ` _ C z.z.z.z.",
"z.z.z.b S _ y.( V R z @ 3 & + O y u 2 e e o . o @ % @ X X X X . o # o . @ e e J P J s K % 1 , ; Z Z S _ ` _ C z.z.z.z.",
"z.z.z.b S _ y.( V R z > i 3 o O y J u u f 2 @ + @ % @ X X X X . o # % # e J G P I L s K > i 4 ; Z A S _ ` _ C z.z.z.z.",
"z.z.z.b S _ y.' V R x @ 8 3 + $ u P J u u u > # % # o X X X X X X @ & 2 u F J P U s y K > r , - Z Z S _ ` _ C z.z.z.z.",
"z.z.z.b S _ <.^ M A x @ 4 1 + < f J G u u y # % % @ . X X X X X X o # < y u J U I < 6 K > 8 , - C C S _ ` _ C z.z.z.z.",
"z.z.z.b S _ ^ S m C k @ 8 1 + < < f F e y e > # @ @ . X X X X X X o % 2 y y u G e + 5 p % 8 , - m M C E ) _ C z.z.z.z.",
"z.z.z.b E _ E S M Z k @ 8 3 + > $ 2 y 2 4 % > @ o # o X X X X X X @ > , 2 e 2 2 $ $ 5 9 > r , ; M B Z S ^ _ C z.z.z.z.",
"z.z.z.b S ^ S A M S x @ 8 3 O $ $ @ < 2 < o > % # % @ X X X X X X # > > 2 2 2 % $ > < 5 % r , ; C Z C S Q ^ B z.z.z.z.",
"z.z.b b Z S Z Z m m x @ 4 , o $ > O < 2 < + > > % % @ X X X X . X # > < , < F 5 > 2 5 9 @ 4 , : m m M Z Z R m b z.z.z.",
"z.z.b m V C M M m A m # 4 > o > > O > 2 < < > > % % @ X X X X . X # > < < 2 G 5 > 5 5 t @ 3 , q S Z M M M C M m m z.z.",
"z.z.b E +.+.+.X.~ +.Q = 3 > O > % O O < > % + # % % @ X X X X . X # , , @ u 7 O % < 5 g % 3 & l +.+.+.+.+.+.+.) M z.z.",
"z.z.b ~ y.i.i.e.w.y.' @ , > + % $ O O > O . o > % % @ X X X X X X @ > % + u 5 . $ > 5 d % 1 # c 5.w.w.w.w.w.w.:.B z.z.",
"z.! D C R ! ^ E R E m @ & # + > $ $ O < @ X o 2 > # o X X X X X X o # + X e 5 @ < < 5 9 @ , # 0 C S R R R R S C b z.z.",
"z.' O.S S Z S S S S m @ , & o @ $ $ O $ + o o > > @ X X X X X X X o # > X 2 > + > $ < 5 @ 1 # q S S S S S S S S W z.z.",
"` 8.u.6.6.1.4.6.6.9.^ > 8 3 + $ $ $ + O O o X o # @ . X X X X X X X + > o o O @ $ $ > 5 % r , v 6.6.6.6.6.6.6.8.s.>.` ",
"` { [ -.-.4.9.9.9.8.( > 8 3 + $ $ $ $ O o o o X o + X X X X X X X X o @ o o @ $ @ $ < a > r , l -.1.9.9.9.7.1.1.] ` ` ",
"4.Q Z ! ^ _ ` ) / ) S * 8 3 + $ @ > > O O o o o o X X X X X X X X X X o o o $ < 5 $ 5 K > r , h ! ^ _ ) / ^ ^ ! Z +.8.",
"i.! Z ~ ^ / / ^ Q R m @ 8 3 + 5 < > > O O o o X o o X X X X X X X X X o o o @ < 5 t 5 K > r , w S E ^ ^ ~ ~ ~ E Z =.d.",
"i.! Z ! Q Q Q S S Z b @ 1 , + 5 5 > $ O o o o X o o X X X X X X X X o o o o @ > < s K K > 4 # 0 Z A S E ! ! ! E C #.d.",
"i.^ M C C C C M M M v @ , & 5 d 5 > $ O o o @ o o o X X X X X X X X X o o o @ % < t d y @ 1 # : M M M C C C C V Z =.d.",
"d.7.) ) ) ) ) ) ) _ R @ , & < p 5 > + @ O o o @ o X . X X X . . X X o o o @ @ > 2 5 t 9 @ 1 # j ) ) ) ) ) ) ) ) X.p.d.",
"t.p.i.i.i.i.i.i.i.i.] @ , & > < $ @ O @ o X o + o X X X X X . . X X o o X + $ @ $ > 5 5 @ , # v y.i.i.i.i.i.y.y.i.u.t.",
"S X.+.+.+.+.+.X.` ( A @ # @ % < > % > % @ o + o o o X X X X X X X X o o o + > < > a t 2 @ # @ h ^ ) X.+.#.+.) ( ( ^ B ",
"Z ^ _ ` ` ` _ ^ ~ ! Z @ # + @ % $ + + + O X X X . . . . . . . . . . . . . . o o + > < > + @ + h Q ! ^ ) ` _ ` _ ^ R n ",
"Z ! ^ _ _ _ ^ ~ E S V = - - - - - - - - - - - - - - - - - - - - - - - - - - - - - - - - - - = h S S Q ~ ) ^ ) ) ^ R n ",
"Z ~ Q E E E E E S A M k m M Z M m m m n m m m M C m m m m m m m m m m m m m m m m m m m m m b v Z Z S E E E E E ~ E n ",
"M S Z B B B B B B B m m S Q ) ! R R S m Z A S Q ^ R R R R R R R R R R R R S M C S R R R S A C m B B B B B B B C Z Z b ",
"m M M Z A Z Z Z Z Z Z S Q _ ` _ ) ) / Z Z E ) _ _ ) ) ) ) ) ) ) ) ) ) ) ^ Q Z S Q / ) ) ~ E S Z B Z A A A A A A A Z b ",
"m S E ^ ) ) ) ) ) ) ) ) _ ` ` ` ` ` ` R E ) #.8.8.8.8.8.,.` 6.8.8.8.r.4.` ^ R E ^ _ ` ` ) ) ( ! E Q ~ ~ ~ ~ ~ ~ ^ E n ",
"C Q } e.i.i.i.y.#.#.y.i.i.y.i.i.y.,.` E ) ` <.d.d.d.d.d.p.i.a.d.d.d.d.a.i.1.Q E ( 7.i.y.i.i.y.q.-._ _ _ _ _ _ ) ^ R n ",
"C ^ 3.d.d.d.d.j.f.p.g.j.d.d.d.d.d.p.#.E _ #.i.a.a.a.d.d.d.d.d.d.d.k.l.l.j.s.| ^ 4.s.d.d.g.j.d.h.h.f.f.a.i.i.i.*.` ^ m ",
"S _ 3.p.p.p.p.d.d.a.a.a.p.p.p.p.p.p.#.^ _ ` =.=.=.*.9.p.p.p.p.p.a.d.d.d.a.a.@.) #.=.*.,.p.d.h.a.d.d.d.a.a.a.p.i.i.@.m ",
"Q ^ / ( ( ( ( ( ( ( ( ( ( ( ( ( ( ( ^ ^ ^ ^ ^ ^ ^ ^ / ( ( ( ( ( ( ( ( ( ( ( / ^ ^ ^ ^ ^ ( ' ] ( ( ( ( ( ( ( ( ' ' / E "
};
