/* XPM */
static char *ZXpnaWYuY29tLWdpZi1tYWtlci0z_42[] = {
/* columns rows colors chars-per-pixel */
"59 75 256 2 ",
"   c #0F120C",
".  c #15110F",
"X  c #151210",
"o  c #191614",
"O  c #161915",
"+  c #1A1A16",
"@  c #1C1D1B",
"#  c #211D1B",
"$  c #1E211D",
"%  c #23211E",
"&  c #28221F",
"*  c #1E1F21",
"=  c #1E2124",
"-  c #1D242B",
";  c #1E2730",
":  c #1F2831",
">  c #232422",
",  c #2B2522",
"<  c #252924",
"1  c #2D2926",
"2  c #2B2C2A",
"3  c #312A27",
"4  c #342D2A",
"5  c #2C312B",
"6  c #33342D",
"7  c #39312E",
"8  c #202B34",
"9  c #212E39",
"0  c #23313C",
"q  c #343433",
"w  c #3D3532",
"e  c #353A32",
"r  c #3B3A35",
"t  c #3C3C3B",
"y  c #413936",
"u  c #413E3E",
"i  c #394337",
"p  c #3A4338",
"a  c #3F4D3D",
"s  c #243543",
"d  c #273C4E",
"f  c #273D50",
"g  c #283E51",
"h  c #2A4154",
"j  c #2C465E",
"k  c #2D4760",
"l  c #2E4B65",
"z  c #2F4E69",
"x  c #304C67",
"c  c #304F6A",
"v  c #2F506C",
"b  c #30516E",
"n  c #325573",
"m  c #345877",
"M  c #345B7B",
"N  c #3A617F",
"B  c #444544",
"V  c #474846",
"C  c #484A47",
"Z  c #4C4D4C",
"A  c #4F504F",
"S  c gray32",
"D  c #585757",
"F  c #595A59",
"G  c #646564",
"H  c DimGray",
"J  c #365F80",
"K  c #366184",
"L  c #3A6485",
"P  c #37658A",
"I  c #38668B",
"U  c #39698F",
"Y  c #3A6C93",
"T  c #3B6F98",
"R  c #3F7096",
"E  c #3D729C",
"W  c #3D76A1",
"Q  c #3E79A6",
"!  c #3E7AA8",
"~  c #406D90",
"^  c #427093",
"/  c #427295",
"(  c #427296",
")  c #447498",
"_  c #41749B",
"`  c #46799F",
"'  c #4377A0",
"]  c #437AA3",
"[  c #447AA2",
"{  c #457BA5",
"}  c #467CA6",
"|  c #477EA7",
" . c #437AA5",
".. c #487BA0",
"X. c #487CA2",
"o. c #497FA6",
"O. c #417DAB",
"+. c #407DAC",
"@. c #427FAD",
"#. c #4A80A7",
"$. c #4380AF",
"%. c #4480AD",
"&. c #4981AB",
"*. c #4B84AF",
"=. c #4982AC",
"-. c #4583B1",
";. c #4684B2",
":. c #4B87B2",
">. c #4C86B1",
",. c #4887B5",
"<. c #4B88B3",
"1. c #4A88B5",
"2. c #4F8BB6",
"3. c #4C89B5",
"4. c #4B8AB9",
"5. c #4D8BB8",
"6. c #4D8DBB",
"7. c #508AB4",
"8. c #508CB7",
"9. c #518FBC",
"0. c #518FBB",
"q. c #4F90BE",
"w. c #5190BC",
"e. c #5191BE",
"r. c #5595C2",
"t. c #5394C1",
"y. c #5798C6",
"u. c #5899C6",
"i. c #579AC8",
"p. c #5A9DCA",
"a. c #609FC9",
"s. c #5DA0CD",
"d. c #62A3CD",
"f. c #64A5D0",
"g. c #66A8D2",
"h. c #68A9D2",
"j. c None",
"k. c black",
"l. c black",
"z. c black",
"x. c black",
"c. c black",
"v. c black",
"b. c black",
"n. c black",
"m. c black",
"M. c black",
"N. c black",
"B. c black",
"V. c black",
"C. c black",
"Z. c black",
"A. c black",
"S. c black",
"D. c black",
"F. c black",
"G. c black",
"H. c black",
"J. c black",
"K. c black",
"L. c black",
"P. c black",
"I. c black",
"U. c black",
"Y. c black",
"T. c black",
"R. c black",
"E. c black",
"W. c black",
"Q. c black",
"!. c black",
"~. c black",
"^. c black",
"/. c black",
"(. c black",
"). c black",
"_. c black",
"`. c black",
"'. c black",
"]. c black",
"[. c black",
"{. c black",
"}. c black",
"|. c black",
" X c black",
".X c black",
"XX c black",
"oX c black",
"OX c black",
"+X c black",
"@X c black",
"#X c black",
"$X c black",
"%X c black",
"&X c black",
"*X c black",
"=X c black",
"-X c black",
";X c black",
":X c black",
">X c black",
",X c black",
"<X c black",
"1X c black",
"2X c black",
"3X c black",
"4X c black",
"5X c black",
"6X c black",
"7X c black",
"8X c black",
"9X c black",
"0X c black",
"qX c black",
"wX c black",
"eX c black",
"rX c black",
"tX c black",
"yX c black",
"uX c black",
"iX c black",
"pX c black",
"aX c black",
"sX c black",
"dX c black",
"fX c black",
"gX c black",
"hX c black",
"jX c black",
"kX c black",
"lX c black",
"zX c black",
"xX c black",
"cX c black",
"vX c black",
"bX c black",
"nX c black",
"mX c black",
"MX c black",
"NX c black",
"BX c black",
"VX c black",
"CX c black",
"ZX c black",
"AX c black",
"SX c black",
"DX c black",
"FX c black",
"GX c black",
"HX c black",
"JX c black",
"KX c black",
"LX c black",
"PX c black",
"IX c black",
"UX c black",
/* pixels */
"j.j.j.j.j.j.j.j.j.j.j.j.j.j.j.j.j.j.j.j.j.j.j.j.j.j.j.j.j.j.j.j.j.j.j.j.j.j.j.j.j.j.j.j.j.j.j.j.j.j.j.j.j.j.j.j.j.j.j.",
"j.j.j.j.j.j.j.j.j.j.j.j.j.j.j.j.j.j.j.j.j.j.j.j.j.j.j.k k k k k j.j.j.j.j.j.j.j.j.j.j.j.j.j.j.j.j.j.j.j.j.j.j.j.j.j.j.",
"j.j.j.j.j.j.j.j.j.j.j.j.j.j.j.j.j.j.j.j.j.j.j.j k l J Y n K Y Y b l k j j.j.j.j.j.j.j.j.j.j.j.j.j.j.j.j.j.j.j.j.j.j.j.",
"j.j.j.j.j.j.j.j.j.j.j.j.j.j.j.j.j.j.j.j.j.z z l M T W ! M Y ! Q E U z l z l j.j.j.j.j.j.j.j.j.j.j.j.j.j.j.j.j.j.j.j.j.",
"j.j.j.j.j.j.j.j.j.j.j.j.j.j.j.j.j.j.j.j n E E E W +.$.+.M o.1.$.+.Q E E E P l j.j.j.j.j.j.j.j.j.j.j.j.j.j.j.j.j.j.j.j.",
"j.j.j.j.j.j.j.j.j.j.j.j.j.j.j.j.j.j.k n E ! -.-.-.1.e.r.L X.e.9.6.-.-.-.+.Q K l j.j.j.j.j.j.j.j.j.j.j.j.j.j.j.j.j.j.j.",
"j.j.j.j.j.j.j.j.j.j.j.j.j.j.j.j.j z z Y -.,.0.0.0.@.Y &.N M Y Y R 2.0.0.2.;.O.M n x j.j.j.j.j.j.j.j.j.j.j.j.j.j.j.j.j.",
"j.j.j.j.j.j.j.j.j.j.j.j.j.j.j b M Y n ] 6.*.Y Y Y I K L n l M K P U Y Y ' 2.1.K ..U n k j.j.j.j.j.j.j.j.j.j.j.j.j.j.j.",
"j.j.j.j.j.j.j.j.j.j.j.j.j.n M Y ! -./ ) Y U U P K M n n M c n m m K P U U U _ ^ 7.;.W J n j.j.j.j.j.j.j.j.j.j.j.j.j.j.",
"j.j.j.j.j.j.j.j.j.j.j.j z Y ! ! ;.>.&.J M K K M m n n n n l b n n n M K K M n _ >.1.O.! W M j j.j.j.j.j.j.j.j.j.j.j.j.",
"j.j.j.j.j.j.j.j.j.j.j z Y ! -.6.:.R I J b b n n n n b z z k l b n n n n b z n P U { 5.4.O.W M j j.j.j.j.j.j.j.j.j.j.j.",
"j.j.j.j.j.j.j.j.j.j z Y Q -.:.| R K M m n b c n z z k s : : 9 h l l b n z n n M J P [ &.1.O.W M j j.j.j.j.j.j.j.j.j.j.",
"j.j.j.j.j.j.j.j.j.z Y ! -.:.R I K m n l l k k g ; - : = @ @ @ - - - 0 j k l l b n M P U | 1.O.W M k j.j.j.j.j.j.j.j.j.",
"j.j.j.j.j.j.j.j.z Y Q -.:.R K M m n k 8 - - - = # # # # , 1 & # # # @ - - - - d b m M M U | 1.O.W M j.j.j.j.j.j.j.j.j.",
"j.j.j.j.j.j.j.k n W -.<.R I J n b k 8 # , & , & 3 3 4 4 4 4 4 4 3 3 , & , & & = d c n M P U | 1.+.P k j.j.j.j.j.j.j.j.",
"j.j.j.j.j.j.j l ` ;.<.T K M m l 9 = % 1 4 4 w 3 , 7 w w w w w w w 4 , 7 w 4 4 , = - g n M M U | ,.%.N j j.j.j.j.j.j.j.",
"j.j.j.j.j.j.z z m o.Y J K n l 9 > , 3 4 7 7 w 4 , 1 + O O O + o # 4 , w w 7 7 4 1 , > g n M K L R K b z j.j.j.j.j.j.j.",
"j.j.j.j.j.n Y E M n P K m l 9 , 7 3 3 7 w 4 + o o X X X X X X X X o X o & 7 7 4 , 7 4 > g n M I M b U W J j.j.j.j.j.j.",
"j.j.j.j.k I ! -.&.M J K z 9 # 1 7 1 # o o X X X X X X X X X X X X X X X X o o + , 4 4 > = g M K m Y ,.+.W n j.j.j.j.j.",
"j.j.j.j.n Y ! e._ M c l 0 # 1 7 4 @ X X X X X X X X X X X X X X X X X X X X X X X 1 7 4 & = h c n P >.,.Q J j.j.j.j.j.",
"j.j.j.j P E @.:.Y M n d @ 1 7 4 @ X X X X X X X X X X X X X X X X X X X X X X X X X 1 7 4 & - l n K [ 1.+.W b j.j.j.j.",
"j.j.j.j K Y 2._ P m k : # 7 4 # X X X X X X X X X X X X X X X X X X X X X X X X X X X 1 7 1 * d b K P >.,.W b j.j.j.j.",
"j.` j j M P 3._ J n d @ & 7 , X X X X X X X X X X X X X X X X X X X X X X X X X X X X + 4 1 @ ; l M K >.,.W b j m j.j.",
"j.0./ n n M >._ M n d @ & 1 & X X X X X X X X X X X X X X X X X X X X X X X X X X + q # 1 , # : l n K 2.;.I v P #.i.j.",
"j.U :.| n n >._ K n d > 7 1 4 < O O X X X X X X X X X X X X X X X X X X X X X X O O 2 r , 7 1 8 l M P 2.%.M U 1.` L j.",
"j.n T :.P n 3._ M n d > w 3 @ $ @ $ X X X X X X X X X X X X X X X X X X X X X O @ O O 2 2 r 1 : l M K 2./ n &.] K k j.",
"j.M Y Y P n X.T n b d > 4 , O B 5 @ @ X X X X X X X X X X X X X X X X X X X X O $ @ @ < 6 7 , : l n J &.L M Y U I l j.",
"j.k z b b v m n b z d > 7 1 O S q @ $ X X X X X X X X X X X X X X X X X X X X O > 2 < < e w , : k l z n b b b n n k j.",
"j.j n P Y T Y Y T I g > 7 1 O B q @ @ X X X X X X X X X X X X X X X X X X X X O $ @ B 5 e r , : l n M K Y E E E Y j.j.",
"j.j.n K K M n n n n d @ 3 & O B A $ O X X X X X X X X X X X X X X X X X X X X O O $ p 5 6 4 , : l n n n n J K M z j.j.",
"j.j.k k l l l l k l d @ , & O q Z <   . X X X X X X X X X X X X X X X X X X X . O B 2 > 6 3 # : k k k l l l k k k j.j.",
"j.j.j.j b n n n l b d @ , & X O B t @ X X X X X X X X X X X X X X X X X X X X @ t Z 2 @ 6 3 # ; l z c n n M l j.j.j.j.",
"j.j.j.j n J M n l b d @ 1 & X @ B r 2 @ X X X X X X X X X X X X X X X X X X X q Z S t % 6 4 & : l z c M J K z j.j.j.j.",
"j.j.j.j M U K M l b d @ , # O B S q 2 > O X X X X X X X X X X X X X X X X X O t S S S > 6 1 & : l z n P Y _ b j.j.j.j.",
"j.j.j.j K Y Y [ n m f > 4 , O H H q 2 < @ X X X X X X X X X X X X X X X X X % q C S Z > 6 7 1 : b n M U R 2.m j.j.j.j.",
"j.j.j.j P W T 3.M M g > w 3 @ G G B 2 > # X X X X X X X X X X X X X X X X X @ 2 B Z q < e y 1 : n n M U W 6.m j.j.j.j.",
"j.j.j.j P ! R 3.m n g @ 4 3 @ Z F Z q > @ X X X X X X X X X X X X X X X X + # , B Z < > 6 w & : b b K Y W 6.m j.j.j.j.",
"j.j.j.j P ! Q 2.m b d @ 7 3 @ < B Z q > @ X X X X X X X X X X X X X X X X @ > 2 B S 2 > 5 w , : l z P Q Q O.n j.j.j.j.",
"j.j.j.j M W !  .n b d * 7 1 @ > B Z q > @ X X X X X X X X X X X X X X X X @ > 2 B A < < 6 w , : l z P ! ! W b j.j.j.j.",
"j.j.j.j M E E E b b d @ 1 & u F C r 2 2 # X X X X X X X X X X X X X X X X @ > 2 q B 5 F q 4 # : l z P E W W b j.j.j.j.",
"j.j.j.j M E Y E b b f * 4 & r F t 2 2 2 # X X X X X X X X X X X X X X X X @ > 2 2 u < Z q 4 , : l z P E W W b j.j.j.j.",
"j.j.j.j M E E T b b f > 7 1 q D r > > > @ X X X X X X X X X X X X X X X X O > > > 2 2 Z e w , : l z K E W W b j.j.j.j.",
"j.j.j.j M W %.Y z n f @ 4 , 6 S q X . @ X X X X X X X X X X X X X X X X X X @ + X > B C r 7 & : b b M E ! W b j.j.j.j.",
"j.j.j.j M W e.R b J g @ 3 # % C q @ O X X X X X X X X X X X X X X X X X X X + @ @ 2 B q e 4 , : n n M E ! W b j.j.j.j.",
"j.j.j.j M W e.R b M g > r 3 % B B 2 > o X X X X X X X X X X X X X X X X X X # 2 2 t C q r y 4 : n n M E ! W b j.j.j.j.",
"j.j.j.j M W e.R b J f # 7 3 % B S q > X X X X X X X X X X X X X X X X X X + % 2 t S t 5 r y , : n n M E ! W b j.j.j.j.",
"j.j.j.j M W ;.Y z n f > 4 , % Z S q 2 @ X X X X X X X X X X X X X X X X X @ % , C S < 5 e 7 , : b b M E ! W b j.j.j.j.",
"j.j.j.j M E Y M l b d > 7 1 % q C q 2 > X X X X X X X X X X X X X X X X X X @ , B S > 2 e w , : l z n K E W b j.j.j.j.",
"j.j.j.j K W K M z n d > 7 3 % 2 V B 2 > X X X X X X X X X X X X X X X X X X @ 2 B 5 > 5 r y , : z z n M T W b j.j.j.j.",
"j.j.j.j M Y M m z M f > 7 1 $ 2 2 q 2 > X X X X X X X X X X X X X X X X X X # t C $ $ < e r , : b n b M P Y z j.j.j.j.",
"j.j.j.j n M n b k l d > 4 , $ < $ t 4 > X X X X X X X X X X X X X X X X X X # B Z > < 5 e 7 , : k l c n m J l j j.j.j.",
"j.j.j k v v z z l m k > 4 & @ < @ t q > X X X X X X X X X X X X X X X X X X # B B q 5 5 e 4 , 0 m n z z z b z l k j.j.",
"j.j.j L O.O.O. .Y O.P > 3 & @ % O > 2 > X X X X X X X X X X X X X X X X X X % t > 2 2 < 6 4 & d O.O.O.O.O.O.O.R z j.j.",
"j.j.j ~ 9.t.t.9.0.e./ * , & O $ $ O < > X X X X X X X X X X X X X X X X X X % 2 O > > < 6 3 # h 3.0.0.0.0.0.0.o.c j.j.",
"j.j.M b J I Y K J K l @ & # O % $ X > + X X X X X X X X X X X X X X X X X X % < O < < 2 e 1 # 9 b M J J J M M b j j.j.",
"j.) o.M M n n M M M l @ , & O $ $ O > + X X X X X X X X X X X X X X X X X X @ > O < > < 6 3 # 9 M M M M M M M M L j.j.",
"! q.r.4.4.*.1.4.4.6.Y > 7 3 O $ $ + @ X X X X X X X X X X X X X X X X X X X X @ O % $ > e y , h 1.4.4.4.4.4.4.6.y.$.! ",
"! ' ` =.=.1.6.6.6.6.Y > 7 3 $ $ $ $ @ X X X X X X X X X X X X X X X X X X X X O @ $ $ > e y , d &.:.6.6.6.5.:.:._ Q ! ",
",.P n I Y Q Q E T E M > 7 3 < > $ $ $ X X X X X X X X X X X X X X X X X X X X O $ $ $ < e y , s P Y W E T Y Y I n O.6.",
"t.I n U Y T Y Y P J l > 7 3 @ % $ $ @ X X X X X X X X X X X X X X X X X X X X O @ $ e < e y , 0 M K Y Y U U U K n %.p.",
"e.P n I P P P M M n j @ 1 , % < $ $ @ X X X X X X X X X X X X X X X X X X X X O $ $ i a r 4 # 9 n m M K I I I K n @.p.",
"t.U z b b b b z z z h @ , & < 2 $ $ @ X X X X X X X X X X X X X X X X X X X X O @ $ 6 i 6 3 # 8 z z z b b b b v n %.p.",
"p.2.W E E E W E E W M @ , & < 2 $ O @ X X X X X X X X X X X X X X X X X X X X O O > 5 6 5 1 # d E E E E E E E E } r.p.",
"e.r.t.t.t.t.t.t.t.t.( * & & @ $ O X O X X X X X X X X X X X X X X X X X X X X O @ @ $ 2 2 1 @ h 9.t.t.t.t.t.e.e.t.r.w.",
"M Q O.O.O.O.O. .Q R m @ # @ < < O X X X X X X X X X X X X X X X X X X X X X X X X < e 5 < & # s Y E  .O.O.O.E R R Y c ",
"n Y Q ! ! ! W Y U P n @ # O $ @ X X X . . . . . . . . . . . . . . . . . . . . X . X X o $ # + s P I Y R Q Q Q W Y J k ",
"n I Y W W E Y U K M v - - - - - - - - - - - - - - - - - - - - - - - - - - - - - - - - - - - = s M M P Y R Y E E Y J k ",
"n I P K K K K K M m z f l c n z l l l k l l l z b l l l l l l l l l l l l l k k l l l l l l j h n n M K K K K K U J k ",
"z M n c c c c c c c l l M I E I J J M l n M M P Y J J J J J J J J J J J J M c b M J J J M n b k c c c c c c c b n n j ",
"k z c n m n n n n n n M P W ! W E E T n n K E W Q E E E E E E E E E E E Y P n M P E E E U K M n c n m m m m m m m n j ",
"l M K Y E E E E E E E E W ! ! ! ! ! Q J K E $.6.6.6.6.6.-.! 4.6.6.6.q.1.Q T J K Y W ! ! E E E I K P U U U U Y U U J k ",
"b P [ 9.t.t.t.q.+.+.q.t.t.e.t.t.e.-.Q K E ! ;.p.p.p.p.p.r.t.i.p.p.p.p.u.t.;.P K E 2.t.e.t.t.9.8.=.W W W W W W E Y J k ",
"n Y 1.p.p.p.p.f.a.r.s.f.p.p.p.p.p.r.O.K W +.t.i.i.i.p.p.p.p.p.p.s.g.h.h.f.i.[ Y 1.i.p.p.s.f.p.d.d.a.a.u.t.t.t.$.Q Y k ",
"M W 1.y.y.y.u.p.p.u.u.u.y.y.y.y.y.r.@.Y W ! %.%.%.$.6.u.y.y.y.y.u.p.p.p.i.y.@.E O.%.$.;.r.p.d.u.p.p.p.u.u.u.y.t.t.o.l ",
"P Y T R R R R R R R R R R R R R R R Y Y Y Y Y Y Y Y T R R R R R R R R R R R T Y Y Y Y Y R _ _ R R R R R R R R _ _ T K "
};
