/* XPM */
static char *ZXpnaWYuY29tLWdpZi1tYWtlci0z_22[] = {
/* columns rows colors chars-per-pixel */
"59 75 256 2 ",
"   c #0C0E09",
".  c #0E110C",
"X  c #14110F",
"o  c #151210",
"O  c #191614",
"+  c #161915",
"@  c #1A1916",
"#  c #1C1D1B",
"$  c #211D1B",
"%  c #1E211D",
"&  c #22221E",
"*  c #28231F",
"=  c #1C1E20",
"-  c #1E2123",
";  c #1D252B",
":  c #1F2932",
">  c #222421",
",  c #2B2522",
"<  c #252A24",
"1  c #2B2A26",
"2  c #2B2D2A",
"3  c #312A27",
"4  c #332D2A",
"5  c #283127",
"6  c #2C332B",
"7  c #2F392D",
"8  c #35322D",
"9  c #39312D",
"0  c #31392F",
"q  c #202B35",
"w  c #212F3A",
"e  c #22303C",
"r  c #343332",
"t  c #3D3532",
"y  c #343C32",
"u  c #3A3837",
"i  c #3C3D3B",
"p  c #364135",
"a  c #394337",
"s  c #3C443B",
"d  c #3D493B",
"f  c #40413F",
"g  c #404E3E",
"h  c #253543",
"j  c #283946",
"k  c #283B4C",
"l  c #273E52",
"z  c #283F53",
"x  c #294156",
"c  c #2C465E",
"v  c #2C4760",
"b  c #2E4B64",
"n  c #2F4E69",
"m  c #304F6A",
"M  c #2F506C",
"N  c #30516E",
"B  c #325573",
"V  c #335877",
"C  c #345B7B",
"Z  c #385C79",
"A  c #3A607F",
"S  c #444443",
"D  c #464A45",
"F  c #484847",
"G  c #4D4C4C",
"H  c #455443",
"J  c #4E514D",
"K  c #4D5E4A",
"L  c #50504F",
"P  c gray33",
"I  c #555A54",
"U  c #585957",
"Y  c #5C5C5B",
"T  c #5F605F",
"R  c gray39",
"E  c #616B60",
"W  c #6C6C6C",
"Q  c #697268",
"!  c gray45",
"~  c #787877",
"^  c #7C7C7C",
"/  c #365F80",
"(  c #366285",
")  c #3A6485",
"_  c #376489",
"`  c #38668B",
"'  c #3A698E",
"]  c #3A6C93",
"[  c #3B6F98",
"{  c #3E7097",
"}  c #3D729C",
"|  c #3D76A1",
" . c #3E7AA9",
".. c #417195",
"X. c #417195",
"o. c #427398",
"O. c #447498",
"+. c #41759E",
"@. c #41749C",
"#. c #45789D",
"$. c #4277A0",
"%. c #4278A1",
"&. c #447AA3",
"*. c #457BA4",
"=. c #437AA4",
"-. c #487DA3",
";. c #497EA4",
":. c #407DAB",
">. c #477FA9",
",. c #417EAC",
"<. c #4A80A7",
"1. c #4280AE",
"2. c #4481AF",
"3. c #4880AA",
"4. c #4A83AD",
"5. c #4A83AC",
"6. c #4482B0",
"7. c #4684B2",
"8. c #4786B4",
"9. c #4B87B2",
"0. c #4C86B1",
"q. c #4987B4",
"w. c #4B88B3",
"e. c #4A89B6",
"r. c #4C88B4",
"t. c #4C8AB8",
"y. c #4E8BB8",
"u. c #4E8DBA",
"i. c #4C8CBA",
"p. c #508CB7",
"a. c #508DB9",
"s. c #518FBC",
"d. c #4F90BE",
"f. c #5292BE",
"g. c #5191BE",
"h. c #5596C3",
"j. c #5394C2",
"k. c #599AC7",
"l. c #5799C8",
"z. c #5B9DCB",
"x. c #5FA2CE",
"c. c #61A1CB",
"v. c #64A6D1",
"b. c #68A9D2",
"n. c #858484",
"m. c gray54",
"M. c gray58",
"N. c gray64",
"B. c None",
"V. c black",
"C. c black",
"Z. c black",
"A. c black",
"S. c black",
"D. c black",
"F. c black",
"G. c black",
"H. c black",
"J. c black",
"K. c black",
"L. c black",
"P. c black",
"I. c black",
"U. c black",
"Y. c black",
"T. c black",
"R. c black",
"E. c black",
"W. c black",
"Q. c black",
"!. c black",
"~. c black",
"^. c black",
"/. c black",
"(. c black",
"). c black",
"_. c black",
"`. c black",
"'. c black",
"]. c black",
"[. c black",
"{. c black",
"}. c black",
"|. c black",
" X c black",
".X c black",
"XX c black",
"oX c black",
"OX c black",
"+X c black",
"@X c black",
"#X c black",
"$X c black",
"%X c black",
"&X c black",
"*X c black",
"=X c black",
"-X c black",
";X c black",
":X c black",
">X c black",
",X c black",
"<X c black",
"1X c black",
"2X c black",
"3X c black",
"4X c black",
"5X c black",
"6X c black",
"7X c black",
"8X c black",
"9X c black",
"0X c black",
"qX c black",
"wX c black",
"eX c black",
"rX c black",
"tX c black",
"yX c black",
"uX c black",
"iX c black",
"pX c black",
"aX c black",
"sX c black",
"dX c black",
"fX c black",
"gX c black",
"hX c black",
"jX c black",
"kX c black",
"lX c black",
"zX c black",
"xX c black",
"cX c black",
"vX c black",
"bX c black",
"nX c black",
"mX c black",
"MX c black",
"NX c black",
"BX c black",
"VX c black",
"CX c black",
"ZX c black",
"AX c black",
"SX c black",
"DX c black",
"FX c black",
"GX c black",
"HX c black",
"JX c black",
"KX c black",
"LX c black",
"PX c black",
"IX c black",
"UX c black",
/* pixels */
"B.B.B.B.B.B.B.B.B.B.B.B.B.B.B.B.B.B.B.B.B.B.B.B.B.B.B.B.B.B.B.B.B.B.B.B.B.B.B.B.B.B.B.B.B.B.B.B.B.B.B.B.B.B.B.B.B.B.B.",
"B.B.B.B.B.B.B.B.B.B.B.B.B.B.B.B.B.B.B.B.B.B.B.B.B.B.B.b b b b b B.B.B.B.B.B.B.B.B.B.B.B.B.B.B.B.B.B.B.B.B.B.B.B.B.B.B.",
"B.B.B.B.B.B.B.B.B.B.B.B.B.B.B.B.B.B.B.B.B.B.B.c b b C [ B ( [ ] N b c c B.B.B.B.B.B.B.B.B.B.B.B.B.B.B.B.B.B.B.B.B.B.B.",
"B.B.B.B.B.B.B.B.B.B.B.B.B.B.B.B.B.B.B.B.B.n n b V { |  .C ]  . .} ] n b n n B.B.B.B.B.B.B.B.B.B.B.B.B.B.B.B.B.B.B.B.B.",
"B.B.B.B.B.B.B.B.B.B.B.B.B.B.B.B.B.B.B.c N [ } } | :.1.1.C -.e.1.1. .} } } _ b c B.B.B.B.B.B.B.B.B.B.B.B.B.B.B.B.B.B.B.",
"B.B.B.B.B.B.B.B.B.B.B.B.B.B.B.B.B.B.c N [  .6.6.6.q.a.h.' #.g.s.i.7.6.6.1. .( b c B.B.B.B.B.B.B.B.B.B.B.B.B.B.B.B.B.B.",
"B.B.B.B.B.B.B.B.B.B.B.B.B.B.B.B.c n b [ 6.q.i.a.a.3.] >.) V ' ] } r.a.a.r.7.,.C N m c B.B.B.B.B.B.B.B.B.B.B.B.B.B.B.B.",
"B.B.B.B.B.B.B.B.B.B.B.B.B.B.c n B ] B %.y.0.] ] ] ` ( _ C b C ( ( ' ] ' +.r.r._ #.] B b B.B.B.B.B.B.B.B.B.B.B.B.B.B.B.",
"B.B.B.B.B.B.B.B.B.B.B.B.B.N C ]  .6.o.O.] ' ' ` ( C B B C m N B V ( ( ' ' ' ....p.8.| ( C b B.B.B.B.B.B.B.B.B.B.B.B.B.",
"B.B.B.B.B.B.B.B.B.B.B.c b '  . .6.w.4.( V / ( C B B B B B b N B B B C ( ( C B ..0.e.,. .| C v B.B.B.B.B.B.B.B.B.B.B.B.",
"B.B.B.B.B.B.B.B.B.B.c b '  .6.i.9.{ ` ( N m B B B B B n n b b m B B B B B n B _ ' &.y.y.:.| C v B.B.B.B.B.B.B.B.B.B.B.",
"B.B.B.B.B.B.B.B.B.c b '  .6.w.>.{ ( C V B N m B n b b j : : q x b b m B n N B C / _ %.3.e.:.| C c B.B.B.B.B.B.B.B.B.B.",
"B.B.B.B.B.B.B.B.B.b '  .6.r.} ` ( V B n b b c x : ; : - # # # ; ; ; e v c b b N B C _ ' *.r.:.| C b B.B.B.B.B.B.B.B.B.",
"B.B.B.B.B.B.B.B.b ]  .2.r.} ( C C B b q ; ; ; - $ $ $ $ , 3 * $ $ $ $ ; ; ; ; j N B C C ` *.y.:.| C B.B.B.B.B.B.B.B.B.",
"B.B.B.B.B.B.B.v N } 6.r.} ` ( B B b q $ , * , * 1 3 4 4 4 4 4 4 3 3 , * , * * = j n B V _ ' *.y.,._ b B.B.B.B.B.B.B.B.",
"B.B.B.B.B.B.c b #.6.r.{ _ C V b w - & 1 4 4 t 3 , 9 t t t t t t t 4 , 9 t 4 4 , - - k B C C ' &.e.2.) c B.B.B.B.B.B.B.",
"B.B.B.B.B.B.n n B ;.] / ( B b e > , 3 4 9 9 t 4 , 1 O + + + @ O $ 4 , t t 9 9 4 1 , > k N C ( _ } ( N n b B.B.B.B.B.B.",
"B.B.B.B.B.N ] | C N _ _ V b w > 9 3 1 9 9 4 @ O O O o o o o o o o O O O * 9 9 4 , 9 4 > k N C ` C N ' | / B.B.B.B.B.B.",
"B.B.B.B.c _  .6.4.C C ( N w $ 1 9 3 $ O o O o o o o o o o o o o o o o o o o + $ * 4 4 , - l C ( V ' e.,.| B B.B.B.B.B.",
"B.B.B.B.B ]  .g.o./ N n h $ , 9 8 * # 1 < O o o o o o o o o o o o o o X + > r 2 O , 9 4 * - x m B _ 4.e. .( n B.B.B.B.",
"B.B.B.c ( } >.9.] C B k # , 8 8 , 2 S R s + O O o o o o o o o o o o + O # s Y G & # , 9 4 * ; b B / &.e.,.| B B.B.B.B.",
"B.B.B.c / [ r.+._ C b q # 4 4 , 6 D R Y % + # # + O o o o o o o o O # # + # F U J s & , 9 1 = j N / _ 5.e.| B B.B.B.B.",
"B.<.c c C _ 0.+./ B z @ * 8 , < s U R G & # # # # + o o o o o o o + & > # o 2 Y ! I 2 @ 4 3 # ; b C / 5.e.| N c B h.B.",
"B.f.o.B N C 5.+.C B z # * 1 * 1 D U s 2 % & & # # + o o o o o o o + % & % + # F R Y y # , , $ ; b B ( w.q.' n ( ;.k.B.",
"B.' 4.>.C N 5.+.( B z > 9 3 > y D u # + # % % % % + o o o o o o o O # # # # + > S P i # $ 9 3 ; b C _ w.7.C _ e.&.) B.",
"B.N ] 4.' N 5.+.C B z > t 4 > y 6 # + 1 % % > > & + o o o o o o o + > & # + > > % < 7 2 # t 3 ; b C ( w.@.N 3.*._ b B.",
"B.B ] ' _ N -.{ B B z # 4 , > < > # D D # # & % % + o o o o o o o O % % # + 2 1 @ # 6 0 % 4 , ; b B C 3._ B ] ' ' b B.",
"B.b n N N M B B N n z = 9 3 > < > > U R > % & % # + o o o o o o o O % > # # G s > > 7 y & t , ; c b n B N N B B B b B.",
"B.B.B _ ] { [ [ [ ] x # 9 3 > 6 > i Y Y 2 X O % % + o o o o o o o + & % + # u U r 1 g a > t , ; b B C ( ] { } { ] B.B.",
"B.B.N ( ( C B B B B z # 3 , 6 y # i P 2 Y > . X @ + o o o o o o o o .   r U % u 2 > d a # 3 , ; b B B B B / ( / n B.B.",
"B.B.b b b b b b b b z # , , 6 y @ @ 6 % R G > + . X o o o o o o o o . + i ^ S + O + y y # 1 $ ; v b b b b b b b c B.B.",
"B.B.B.c m B B B b N z # * , 2 y # # + 1 ! m.Y S > # X o o o o o o + 1 S R ! S > 6 > a d & 1 $ ; b m m B B C b B.B.B.B.",
"B.B.B.c B / C B b N z # , , > y < s 1 r W M.^ G G f $ o o o o o X # D U ^ R D U ^ i a d & 1 * ; b m m C / ( n B.B.B.B.",
"B.B.B.c C ' ( C b N z # , * > y > R R > Y n.^ R G G r X o o o o o > G W ! R S ! m.i d d # , * ; b m B _ ' +.B B.B.B.B.",
"B.B.B.c C [ ' &.B C x = 4 , 2 y < R m.R W ^ ^ ! G S > o o o o o o < U ^ ! ! ! ^ Y 1 d d & 4 1 ; N B B ' [ a.Z B.B.B.B.",
"B.B.B.c ( | [ r.C / x > t 4 6 y > i W m.^ W Y U G i @ o o o o o o < G R ! ! m.R 2 % y y > t 4 ; B C B ' | s.Z B.B.B.B.",
"B.B.B.c (  .} r.V B z # 3 4 6 p < > F ! ! W G F G i # o o o o o o < F U ! ! ^ G > % 6 6 & t * ; n N / [ | u.Z B.B.B.B.",
"B.B.B.c (  . .i.V N z # 4 3 y E S & > P ^ ^ P G G i # o o o o o o 1 F U ! ! ^ G < % 6 6 2 t , ; b m (  . .:.B B.B.B.B.",
"B.B.B.c C |  .:.B N z = 8 3 y Q G % # G ^ m.! P G F 2 X o o o X O i U ^ n.m.^ S > % 6 6 > t , ; b m (  . .| B B.B.B.B.",
"B.B.B.c C } { } N N z # , , y I R i i U ^ m.n.! P G r X o o o X + D Y n.m.m.! u > G D 6 # 3 * ; b m ( } | | B B.B.B.B.",
"B.B.B.c C } [ } B N z = 4 , 0 J P y D U W ! ! ! W G r X o o o X + G ~ ^ m.W U r # s D 6 # 4 , ; b m ( { } | B B.B.B.B.",
"B.B.B.c C } { { N N z = 9 4 6 7 i i G U u 1 1 i U G r X o o o X + F U 2 2 u P i % i D 7 & t 1 ; b m / } | | B B.B.B.B.",
"B.B.B.c C | 1.] n B z # 3 , 6 7 r J U ! r + + & r G r X o o o X # i + X + r T W r i D y & 4 , ; n N V }  .| B B.B.B.B.",
"B.B.B.c C | g.o.n / x = 3 > 2 5 < D Y ~ P O   @ r G r X o o o X # f >   & W m.W r 6 H d # 1 , ; B C B }  .| B B.B.B.B.",
"B.B.B.c C | g.@.N / x > t 4 & % < F R ! ^ G i 2 i G r X o o o X @ D F S R N.M.W r 6 H d > t 4 ; B C B }  .| B B.B.B.B.",
"B.B.B.c C | g.@.M / x = 9 4 < 5 < i U R ! ! P S G S > o o o o o O 8 L W ^ m.^ J r 6 H d & t 1 ; B C B }  . .B B.B.B.B.",
"B.B.B.c C } 7.] n V z # 4 , 6 y < < S U R Y S F G r X o o o o o X # D G U R R i 2 6 H d & 4 , ; n B B }  . .B B.B.B.B.",
"B.B.B.c C } ] C b N z # 4 1 6 y > > 1 2 G U U S r r X o o o o o X # F U P U S > < < p y & 9 , ; b m N ( }  .B B.B.B.B.",
"B.B.B.c /  .( C n B z # 9 4 6 y % < < # i r U i 1 D 1 X o o o o O u G Y U i # % < < 0 y > t 1 ; b N B C [  .B B.B.B.B.",
"B.B.B.c C [ C C n C x # 9 4 > < % > < < % # P F S G r X o o o X + D P Y F # # > > > 7 y > t , ; N B N C _ ] N B.B.B.B.",
"B.B.B.c B C B B b b z # 4 , > < % & < 2 + > U U G G r X o o o X + F U Y S + < 6 < 2 0 y & 4 , ; b b n B B / n c B.B.B.",
"B.B.B.b M N n n b B b - 4 , > < % < 2 2 % U P G G G r X o o o X @ F Y Y i # 7 6 2 2 y y # 3 , q V B n n n N n b b B.B.",
"B.B.B.( :.:.:.=.' =.] > 3 > > < # > < < % F 1 F G G r X o o o X # F R R + & 6 < < < d d & 3 , h :.:.:.:.:.:.:.} m B.B.",
"B.B.B.' g.g.j.g.a.g.#.- , > 6 0 # % % > + X % P G G r X o o o o O i P G + < 2 % > > d a $ 1 $ j w.p.a.a.a.a.a.3.N B.B.",
"B.B.A N / _ ] ( / / N # * * < 6 # > < 2 < + < W P D 1 X o o o o o # D 2 + 6 6 < < < 0 y # , $ : N V / / / / C B c B.B.",
"B.X.3.C C B V C C C b # , > & > # % % < > & % U U r o o o o o o o + D Y + 2 < % % % 6 y # , $ : C C C C C C C C ) B.B.",
" .u.h.t.t.9.e.t.t.t.@.> 9 4 < 2 # % % % % % O # S y X o o o o o o o 2 Y + % % % % % 6 y > t , j e.t.t.t.t.t.t.u.l.6. .",
" .| #.4.4.e.i.i.i.i.+.> 9 4 6 0 # # # # # # # + & < o o o o o o o o % u % # # # % % p p > t , j 3.9.i.i.i.y.9.9.+. . .",
"t.' B ` [ |  .} [ { / > 9 4 6 7 # 6 y > % & # + # + o o o o o o o o O @ > & < < % % g d > t , w _ ] | } [ [ ] ' B =.u.",
"j.] B ' ] [ [ ] ` / n - 9 4 6 y # 7 y & % % # + # + o o o o o o o o + # & % < p < % d d > t , q C ( ] ] ' ' ' _ B :.z.",
"j.' B ` _ _ _ C C B b # , , < 6 7 y < # # % # + # + o o o o o o o + + # # # % 6 a g K d & 4 * : B V C ( ` ` ` ( N :.z.",
"j.[ n N N N N n n n x # * > < d d 6 % % % > 0 # # + o o o X o o o + + # # % % 5 y d d 0 # 1 $ ; n n n N N N N N B >.z.",
"z.y.| } } } } } } | ( = * , > a y > + % > & < y % + o o o o X X o O # # @ > < 2 0 y y 6 # 1 $ h } } } } } } } } =.h.z.",
"f.h.j.j.j.j.j.j.j.j.&.- * * % 7 7 > # % % + % 2 % + o o o o X X X O # # + @ % % 2 7 0 6 # , $ k s.j.j.j.j.j.g.g.j.h.f.",
"C  .:.:.:.:.:.=. .} C = $ # % 2 6 7 a d a & 7 + # + o o o o o o o O @ # + % y d y y 7 2 @ $ $ e ] } =.:.:.,.} } } ] N ",
"N ] |  . . .| [ ' ` V # $ @ # > > > > < & O O o o o X X X X X X X X X X X o # > > < < > + # @ w _ _ ' {  . . .| ] ( b ",
"N ` [ | | | [ ' ( C B ; ; ; ; ; ; ; ; ; ; ; ; ; ; ; ; ; ; ; ; ; ; ; ; ; ; ; ; ; ; ; ; ; ; ; ; e C C _ ' { [ } } ] ( b ",
"N ` _ ( ( ( ( ( C V N l b n B m b b b v b b b n N b b b b b b b b b b b b b b b b b b b b b c z B B C ( ( ( ( ( ' ( b ",
"b V B m m m m m m m b b V _ { ' / / C b B V C _ ] / / / / / / / / / / / / Z n m C / / / C V N b m m m m m m m N B B v ",
"b n n B V B B B B B B C _ |  .| } } { V B ( { | | } } } } } } } } } } } [ _ V V _ [ } { ' ( C B m N V V V V V V V B v ",
"b C ( ] } } } } } } } } |  . . . . . .( ( } ,.u.u.u.u.u.6. .t.d.u.u.d.t. .[ ( ( ' |  . .} } } ` ( _ ' ' ' ' ' ' ' ( b ",
"n ( $.s.j.j.j.g.1.,.u.j.j.g.g.g.g.6. .( [  .6.z.z.z.z.z.h.g.z.z.z.z.z.z.j.9._ ( } e.j.g.j.j.g.a.4.| | | | | | } ] ( b ",
"N ] 9.z.z.z.z.v.c.h.z.v.z.z.z.z.z.h.,.( } ,.j.z.z.z.z.z.z.z.z.z.z.v.b.b.v.z.*.[ e.l.z.z.z.v.z.x.c.c.c.k.j.j.j.1. .] b ",
"B } q.l.l.l.l.k.z.k.k.k.l.l.l.k.l.l.2.] |  .1.2.2.1.y.l.l.l.l.l.k.z.z.z.k.k.3.{ :.2.1.2.h.z.c.k.z.z.z.k.k.k.l.g.g.3.b ",
"_ ] ] } } } } } } } } } } } } } } } [ ' ] ] ] ] ] ] ] } } } } } } } } } } } ] ] ] ] ] ] } o.@.} } } } } } } } o.o.] ( "
};
