/* XPM */
static char *ZXpnaWYuY29tLWdpZi1tYWtlci0z_0[] = {
/* columns rows colors chars-per-pixel */
"59 75 256 2 ",
"   c None",
".  c #080C06",
"X  c #0B0F09",
"o  c #0D110B",
"O  c #11140F",
"+  c #131512",
"@  c #1B1715",
"#  c #161A16",
"$  c #191B17",
"%  c #1B1D1A",
"&  c #221E1B",
"*  c #1E221D",
"=  c #22221E",
"-  c #28231F",
";  c #1C1F21",
":  c #1D2125",
">  c #1E252C",
",  c #1F282F",
"<  c #1F2A33",
"1  c #222521",
"2  c #2B2522",
"3  c #252A24",
"4  c #2B2B26",
"5  c #21272E",
"6  c #2A2E2A",
"7  c #312A27",
"8  c #342D2A",
"9  c #2C322B",
"0  c #34322E",
"q  c #38312E",
"w  c #31392F",
"e  c #222C34",
"r  c #23303B",
"t  c #343533",
"y  c #3B3431",
"u  c #343C33",
"i  c #383A37",
"p  c #3B3C3A",
"a  c #374235",
"s  c #394236",
"d  c #3D443B",
"f  c #3E4A3C",
"g  c #40453F",
"h  c #414D3E",
"j  c #42503F",
"k  c #243543",
"l  c #253748",
"z  c #273B4D",
"x  c #263C51",
"c  c #283D50",
"v  c #2C455D",
"b  c #2D4760",
"n  c #2E4A64",
"m  c #2F4E69",
"M  c #304F6A",
"N  c #2F506C",
"B  c #30516D",
"V  c #325573",
"C  c #335877",
"Z  c #345B7B",
"A  c #385F7F",
"S  c #39607F",
"D  c #434443",
"F  c #454C43",
"G  c #484E47",
"H  c #4B4C4B",
"J  c #445242",
"K  c #485846",
"L  c #4E514E",
"P  c #50554E",
"I  c #545554",
"U  c #565955",
"Y  c #585957",
"T  c #5B5B5B",
"R  c #605F5F",
"E  c #5E625D",
"W  c #616E5F",
"Q  c #636463",
"!  c #666966",
"~  c gray42",
"^  c #6C786A",
"/  c #70706F",
"(  c #727372",
")  c #777877",
"_  c #7C7C7C",
"`  c #365F80",
"'  c #376285",
"]  c #3B6485",
"[  c #376489",
"{  c #38668B",
"}  c #37688E",
"|  c #39698E",
" . c #3A6C94",
".. c #3B6F98",
"X. c #3E7097",
"o. c #3D729C",
"O. c #3D76A1",
"+. c #3E79A6",
"@. c #3E7AA8",
"#. c #406D8E",
"$. c #416F91",
"%. c #437296",
"&. c #437295",
"*. c #40739B",
"=. c #42769E",
"-. c #42749B",
";. c #45799F",
":. c #4377A0",
">. c #457BA4",
",. c #487EA5",
"<. c #417FAD",
"1. c #427DAA",
"2. c #487FA9",
"3. c #4380AF",
"4. c #4480AE",
"5. c #4B85AF",
"6. c #4982AB",
"7. c #4683B0",
"8. c #4785B3",
"9. c #4A86B2",
"0. c #4B88B5",
"q. c #4D89B5",
"w. c #4C88B4",
"e. c #4B8BB9",
"r. c #4D8BB8",
"t. c #4D8CBA",
"y. c #508BB5",
"u. c #508DB9",
"i. c #4F90BE",
"p. c #5291BE",
"a. c #5394C2",
"s. c #5798C6",
"d. c #599AC7",
"f. c #5799C8",
"g. c #5B9DCB",
"h. c #5DA1CE",
"j. c #62A1CA",
"k. c #64A6D1",
"l. c #68A9D2",
"z. c #848484",
"x. c #878888",
"c. c #8A8B8B",
"v. c gray58",
"b. c gray61",
"n. c gray64",
"m. c gray68",
"M. c #B2B2B2",
"N. c #BCBCBC",
"B. c gray77",
"V. c #CBCBCB",
"C. c gray86",
"Z. c #D2D2D2",
"A. c #E7E7E7",
"S. c #090D07",
"D. c #0E120C",
"F. c #191A17",
"G. c #1E211D",
"H. c #1D2126",
"J. c #21272D",
"K. c #293026",
"L. c #2F392E",
"P. c #34312D",
"I. c #303A2F",
"U. c #212C34",
"Y. c #232F38",
"T. c #333432",
"R. c #383B37",
"E. c #3A3C3A",
"W. c #364235",
"Q. c #384236",
"!. c #2B455D",
"~. c #2E4B64",
"^. c #434442",
"/. c #454B44",
"(. c #4C4D4B",
"). c #4E514D",
"_. c #50504F",
"`. c #535453",
"'. c #555954",
"]. c gray36",
"[. c #5E635D",
"{. c #60645F",
"}. c #646464",
"|. c #6C6C6B",
" X c #6F706E",
".X c #706F70",
"XX c gray45",
"oX c #3A6484",
"OX c #3D729B",
"+X c #447397",
"@X c #40739A",
"#X c #41749C",
"$X c #42769D",
"%X c #427FAD",
"&X c #4B8AB9",
"*X c #5394C1",
"=X c #61A1CA",
"-X c #8B8B8B",
";X c #ACACAC",
":X c gray74",
">X c gray80",
",X c LightGray",
"<X c black",
"1X c black",
"2X c black",
"3X c black",
"4X c black",
"5X c black",
"6X c black",
"7X c black",
"8X c black",
"9X c black",
"0X c black",
"qX c black",
"wX c black",
"eX c black",
"rX c black",
"tX c black",
"yX c black",
"uX c black",
"iX c black",
"pX c black",
"aX c black",
"sX c black",
"dX c black",
"fX c black",
"gX c black",
"hX c black",
"jX c black",
"kX c black",
"lX c black",
"zX c black",
"xX c black",
"cX c black",
"vX c black",
"bX c black",
"nX c black",
"mX c black",
"MX c black",
"NX c black",
"BX c black",
"VX c black",
"CX c black",
"ZX c black",
"AX c black",
"SX c black",
"DX c black",
"FX c black",
"GX c black",
"HX c black",
"JX c black",
"KX c black",
"LX c black",
"PX c black",
"IX c black",
"UX c black",
/* pixels */
"                                                                                                                      ",
"                                                      n n n n n                                                       ",
"                                              v b n Z  .Z Z  . .C n v v                                               ",
"                                          m m n V  .o.@.' { <.@.o. .B m m m                                           ",
"                                      v m  .o.o.O.@.3.3.{ %.e.3.3.@.O.o.o. .m v                                       ",
"                                    v m  .@.3.7.7.9.u.a.%.$.p.u.u.8.7.7.3.+.| m v                                     ",
"                                v m m { 3.8.t.u.u.5. .>.$.V |  ...9.u.u.r.8.3.' B B v                                 ",
"                            v m C } Z ..r.q... . .| ' [ Z m C ' ' |  . .o.q.r.| $.=.C n                               ",
"                          m Z { +.3.=.%...| | | ' ` C C Z V B C C ` ' | | | ..%.6.e.+.[ Z m                           ",
"                        n ' +.@.3.0.5.[ C ` ' ` C C C C C m B C C C C ` ' ` C | 9.0.3.@.+.' n                         ",
"                      n [ +.3.t.0.=.| ' V m V C C C V m m n n m V C C C V m V ' | =.q.t.<.+.' n                       ",
"                  v n [ +.3.q.2.=.' Z C C B M V m m n z < < < c n m m V m B C C Z ' =.2.q.<.+.' n                     ",
"                  n [ +.<.q.=.| ' C C M n n v v < > > : % % % : > > e v v n n B C C ' | :.q.<.+.' n                   ",
"                n { +.<.q.=.[ Z C C m r : : > : & & & & 2 7 2 & & & & : > : : k B C C Z [ :.r.<.+.'                   ",
"              v m ..<.q.=.| ' C V m r & 2 - 2 - 2 7 8 7 8 8 8 7 8 7 2 - 2 - 2 % k m V C ' | =.r.<. .m                 ",
"              v &.7.q.*.[ C C M k : = 2 8 8 y 8 2 q y y y y y y y 8 2 8 y 8 8 2 1 : l B C C [ =.0.4.#.v               ",
"            m m B :.*.` ' C M k 1 2 7 8 q q y q 2 8 & % = & % & = 8 2 q y q q 8 7 2 1 k B C ' ' ..| B m m             ",
"          B { O.' B ' [ C M k 1 q 8 2 8 q q - % $ 1 w 9 J w 3 u u = % & - q q 8 2 8 8 1 k B C [ ' M ' O.{ m           ",
"          ` @.3.9.A Z ' V k & 2 q 8 - @ $ % i u 9 9 9 u J 9 1 9 9 s u u i = % $ - 8 8 2 % k C ' C ' 9.3.+.Z           ",
"        B { +.t.:.' B M z % 2 8 q - + % 6 D I F 9 3 + + % % + + + u w F U G 9 $ + 2 q 8 2 ; z M B ' ,.t.@.{ N         ",
"        Z o.>.q.o.C C v % 2 8 q - $ = 9 P _ Q s # # # # % # + # # + # d Q _ H 6 = $ 2 q 8 2 ; v C Z =.q.3.+.Z         ",
"        Z  .9.,.| C m r % 8 q - $ 4 H E ( ( p # $ * * * 1 % % * * $ + $ D ( ( E G 3 $ 2 q 8 % k M Z { ,.t.+.Z         ",
"  y.n v V ' 6.,.' C v % & 8 7 $ 6 u ! z.( Y % $ * * * * 3 * % 1 3 3 % + 1 T ) z.Q u 3 $ 7 8 % ; v C ` ,.t.+.Z v M u.  ",
"  a.=.Z B C ,.,.Z C v ; & 2 2 = u D ! ( F 6 * * 3 3 3 * 3 * % 1 3 1 * $ $ 9 H ) Q d 9 % 2 2 & : b C Z 6.t. .B Z ;.s.  ",
"  { 6.9.Z B ,.,.' C v : 8 8 = 6 u F T D $ + # * 1 1 1 * 3 * % * * * * * + + $ D T F 9 % % 8 8 : v C ' 6.r.` ` 9.2.]   ",
"  m  .6.*.m ,.,.` C v : q q * 9 u 9 1 # # 6 $ % = 3 3 4 6 * * 4 3 = * % % 6 + # 4 u u 6 % y 8 : v C ' 6.,.B ;.2.| n   ",
"  B  .| | V %.:.Z V v ; 7 7 1 u 9 % % # I L % # * 1 1 1 3 * % 1 1 = * # 1 I H + # 9 u u * 7 7 : v V C ,.$.V | |  .m   ",
"  n m B B N V C B N v ; 8 q 1 u 9 * % % ~ _ p # 1 3 3 = 3 * % = 3 3 1 # D _ E # $ 9 s u = q 8 : v n m V B B V V V n   ",
"    m '  .o. . . . .n ; 8 q 1 s 9 * # p ~ ~ 1 = O # 3 3 9 * = 3 3 + + * 6 ( ~ i # = h f = q 8 : v V C ' | o.o.o. .    ",
"    m ' ' Z V C C V v ; 2 2 1 h f * # i Q 6 t ) 1 o o # 3 % * # o X 3 ) 0 0 R t $ * f f * 2 2 : v B V V V Z ' ' B     ",
"    b n n m n n n n v % - 2 = J f % + + t * ) v.I % + X X o o X + % U v./ 1 t + + * u s * 2 - : v n n n n m n n b     ",
"        m C C C m B v ; - 2 1 f s # 6 3 O 3 ~ b.n.( I 9 i t # t U ( v.v.Q 1 X 1 6 % j h * 2 & : n B m C C C m         ",
"        B ` C C m B v ; 2 2 1 u 9 # Q ( 1 t ~ v.N.B.M.b.M._ D b.M.B.n.z.I 6 3 _ T # J h * 2 2 : n B m C ` ' B         ",
"        V | ' ` m B v ; 2 - 1 u 9 # I v.~ * I _ b.N.V.C.A.) ( V.V.N.v.~ T 6 v.m.H # J h % 2 2 : n B B ' | =.Z         ",
"        Z  .| :.Z C v ; 8 2 1 f a % 3 ( b.( _ x.c.n.V.Z.A._ ( V.V.b.z._ c._ M._ 1 % J h * 7 7 : n C V |  .r.]         ",
"        Z +. .w.] Z n : q y 1 J f * # 9 _ b.v.x.z.c.m.V.C._ Q m.n.c.z.x.v.b.( 6 + * u s = y q : m Z V | o.t.]         ",
"        Z @.o.w.] V v ; 2 q 1 F f * % # H z.x.x.x.z.c.b.N.( Y c.x.z.x.z.x.z.D + * 3 w 9 * y 2 : n V C  .o.t.]         ",
"        Z @.+.t.' B v ; 7 q 1 h W D * + * Y z.v.v.x.z.z.m.~ I x.z.x.v.v.x.~ % # * H L 9 3 y 2 : n B Z +.+.<.Z         ",
"        C o.+.1.C B v ; 8 q 1 h ^ I % + + Y v.b.b.b.c.x.m.~ I x.c.b.n.b.v.Y + + * Y U 9 = y 7 : n M Z +.+.+.Z         ",
"        V o.o.o.C B v ; 2 2 1 h E ~ i o p R c.b.n.B.B.m.M.~ Y b.N.V.N.n.x.T t O F ~ F 9 % 2 2 : n B Z o.o.@.Z         ",
"        V o.o.o.C B v ; 7 2 1 h U I w o F T Q z.x.c.n.B.V.~ Q N.N.m.v.z.Q T D X i Y g 9 % 7 2 : n B Z o.o.@.Z         ",
"        V o.o.o.C B v ; 8 q 1 J s i 0 # Y ~ H t 6 6 D z.m.Q T b.H 6 6 i I ~ I + t d 9 9 % y 8 : n B Z o.o.@.Z         ",
"        V o.3.o.B V v ; 2 7 1 J a 9 6 p ~ c.Y 6 o o X 6 _ I D 0 o o O 6 T c.~ i 6 6 9 s * 8 2 : n V V o.@.@.Z         ",
"        V o.t.,.B Z n ; 2 2 1 f w * % d ~ v.v.I O . $ D _ I p D # . + T n.v.~ i * * f h * 2 2 : n Z V o.@.@.Z         ",
"        V o.t.,.B Z n : y y 1 u 3 * % d ~ z.b.v.I H Y ( v.E H ) U H ~ M.N.z.~ i % * f h = y q : n Z V o.@.@.Z         ",
"        V o.t.,.B Z n ; 8 q 1 d 9 * 3 6 Y ( z.x.x.x._ z.B.~ Q _ _ x.b.n.v.( I 6 3 * f h = y 8 : n Z B o.@.@.Z         ",
"        V o.7.=.B C v ; 8 8 1 J a * 9 $ D Q ~ ( ~ Q ) n.M.H Q v.) Q ~ ~ ~ Q p $ 9 * f h * 8 7 : n C B o.@.@.Z         ",
"        V o. .` m B v ; 8 8 1 J a * 9 $ * 6 I Q Q ~ z.z.I t t z._ ~ Q Q I 6 % $ 9 * w s = 8 7 : b B M ' ..@.Z         ",
"        Z +.[ Z B B v ; 8 y 1 F a * 9 3 * O 1 G i ~ z.Q t t + ( _ ~ i G 1 + * 3 9 * 6 u = y 8 : n B B Z | +.Z         ",
"        C  .' C m Z v ; 8 q * u 9 * 3 1 6 3 O $ 1 ~ z._ I i t z._ Q * $ O 3 4 1 1 % 6 u = y 8 : n C m C '  .V         ",
"      v B ` C V n m v ; 7 2 % 9 3 * 6 1 4 6 + o 6 ~ ( ( _ L H ) ( ~ 3 o # 6 6 4 6 % 6 u * 7 7 : v n n V C ` B v       ",
"      n m B m m n V B : 7 2 % 9 3 * 9 6 9 9 3 = ~ ~ ( ~ z.I H ( ( ~ ! * 3 9 9 9 6 * 9 u * 2 7 > V C m m m B m m n     ",
"      C 1.1.1.1. .:.o.> 2 2 % u 6 $ 3 6 6 6 3 = I D z.Q z.I H Q z.i I * 4 6 6 6 3 $ f f * 2 2 e :.1.1.1.1.1.1.>.V     ",
"      S u.p.a.p.u.u.6.> - 2 % d a # = 1 1 1 4 # o 6 ( Q _ I D ~ ~ 1 o $ 4 1 1 1 1 % s f * 2 & e 6.u.u.u.u.u.u.w.V     ",
"    { M Z [  .' ` ` C : & 2 % s u # 3 3 6 9 9 4 + $ E z._ I D x.Y + # 4 9 9 6 3 3 % 6 u * 2 & : B C ` ` ` ` ` V n     ",
"  ] w.Z Z C C Z Z Z V : 2 2 = u 3 # * * 3 3 6 4 1 i x.~ x.I H ( z.6 3 4 6 3 3 * * # 6 u * 2 - > C Z Z Z Z Z Z Z '     ",
"  0.s.e.e.9.9.e.e.e.2.5 8 q 1 d 9 # * * * * 3 = * d ~ 1 Q G 9 6 ( t * = 1 * * * * # 6 u = y 7 r 6.e.e.e.e.e.e.r.s.0.  ",
"@.+.-.6.6.9.t.t.t.t.2.5 8 q 1 J a # * % # * * * * 9 p $ f u % % D 6 * * * # % * * # u d = y 7 e ,.9.r.t.t.t.9.0.=.+.@.",
"r.o.B [  .O.@.o.....{ > 8 q 1 J a # % 9 s 3 3 3 3 * + * J u 4 * # 1 3 3 4 s 9 # % # f h = y 8 e '  .o.O..... . .V o.t.",
"s.o.B |  ..... .| ' V : 8 q 1 F a + 9 F a 3 1 1 1 * % * J u 4 * % 1 1 1 3 a h 9 # + f h = y 7 > C '  . .| | | [ B O.f.",
"s.o.B [ [ [ [ ` C C M : 2 2 * u 9 9 J s 3 * * * * 1 % * J u 4 * % = * * * 3 s h J 9 f f * 7 - > B C C ' | | | [ B o.s.",
"s.o.m B B B B m m m n ; - 2 % 9 f J s 6 * * * * 6 s % 3 J a 4 3 % s 3 * * = 6 s f u s u % 2 & : n m m m B V B B m :.s.",
"g.p.O.o.o.o.o.o.o.O. .: - 2 % 9 s s u * + 1 3 3 3 9 J h J a 4 J J 3 # 3 3 * * u u u u 9 % 2 & < X.O.o.o.o.o.o.o.:.a.g.",
"p.s.a.a.a.a.a.a.a.a.5.> & 2 % 9 9 u 9 % % * * * * 3 s u J a 3 s s 1 % * * * * 9 u u u 9 % 2 & r q.a.a.a.a.a.p.p.p.s.p.",
"V O.1.1.1.1.1.1.+.o.' : & & % 9 9 w f d h K J J K h 9 9 h a 1 9 u J K J s J K f u 9 9 9 % & & < | o.+.1.1.1.o.o...o.B ",
"m | O.@.@.@.+. .| [ ` : % % $ 3 3 3 3 3 3 4 4 4 4 3 3 3 u 9 % 3 3 4 6 6 6 4 4 3 3 3 3 3 $ % @ > ' [ |  .+.+.+.+. .{ n ",
"m [  .O.O.O. .| [ C Z > > > > > > > > > > > > > > > > > , > > > > > , e e > > > > > > > > > : < C C [ | .. .o.O. .{ n ",
"m [ | ' ' ' ' ' C C V z n m V B n m m n n m m m B m m m m m m m m m m m m m n n m m m m m m n x V C C ' ' ' ' ' | [ n ",
"n C C M M M M M M M m n C ' o. .` ` ` M B C Z '  .' ` ` ` ` ` ` ` ` ` ` Z Z B m C ` ` ` ` C V n m M M M M M M M C C n ",
"n m m B C C C C C C C Z ' o.@.+.o.o.o.Z V ` ..o.+.o.o.o.o.o.o.o.o.o.o.o.o.[ C C [  .o.o. .' ` C M B C C C C C C C C n ",
"n C ' | o.o.o.o.o.o.o.o.O.@.+.+.@.@.@.{ ` ..1.t.t.t.t.i.8.@.0.i.t.t.t.t.@.o.' ` | o.@.@.O.o.o.| ' { | | | | | | | [ n ",
"n ' o.t.a.a.a.a.7.1.t.a.a.p.p.p.a.0.@.[  .+.<.s.g.g.g.g.s.p.s.g.g.g.g.g.a.0. .Z  .9.a.p.a.a.p.u.9.O.O.O.O.O.O.o. .{ n ",
"m | 4.g.g.g.g.k.j.a.g.k.g.g.g.g.g.s.8.{ o.@.t.g.g.g.g.g.g.g.g.g.g.k.l.l.k.g.6. .7.s.g.g.g.k.h.h.k.j.j.d.a.a.a.7.+.o.m ",
"B o.4.s.s.s.s.d.g.d.d.d.d.s.s.d.s.d.9. .o.+.<.4.4.3.0.s.s.s.s.s.s.d.g.g.d.d.w...1.4.4.4.a.g.j.d.g.g.g.g.d.d.s.p.p.w.B ",
"{  . .o.o.o.o.o.o.o.o.o.o.o.o.o.o.o...|  . . . . . . .o.o.o.o.o.o.o.o.o.*.o... . . . . .o.*.-.*.o.o.o.o.o.o.o.*.*.X.[ "
};
