/* XPM */
static char *ZXpnaWYuY29tLWdpZi1tYWtlci0z_18[] = {
/* columns rows colors chars-per-pixel */
"59 75 256 2 ",
"   c #0E120C",
".  c #14110F",
"X  c #151311",
"o  c #191714",
"O  c #161915",
"+  c #1A1A16",
"@  c #1C1D1A",
"#  c #211E1C",
"$  c #1E221D",
"%  c #22221E",
"&  c #28231F",
"*  c #1E1F20",
"=  c #1E2124",
"-  c #1D242B",
";  c #1F282E",
":  c #1F2932",
">  c #232521",
",  c #2B2523",
"<  c #252A24",
"1  c #2C2A26",
"2  c #212528",
"3  c #2C2C2A",
"4  c #312A27",
"5  c #342D2A",
"6  c #2A3027",
"7  c #2D332C",
"8  c #2F382E",
"9  c #34312D",
"0  c #38312D",
"q  c #31392F",
"w  c #202B35",
"e  c #23313D",
"r  c #333432",
"t  c #3D3532",
"y  c #343B33",
"u  c #393A37",
"i  c #3C3C3A",
"p  c #403F3E",
"a  c #374135",
"s  c #394437",
"d  c #3C443A",
"f  c #3D4A3C",
"g  c #40433F",
"h  c #414E3F",
"j  c #41503F",
"k  c #263644",
"l  c #253847",
"z  c #253748",
"x  c #273B4E",
"c  c #283C4D",
"v  c #273E52",
"b  c #283F54",
"n  c #294055",
"m  c #2C455D",
"M  c #2D4760",
"N  c #2E4B64",
"B  c #2F4E69",
"V  c #304F6A",
"C  c #2F506C",
"Z  c #31516E",
"A  c #325573",
"S  c #335877",
"D  c #345B7B",
"F  c #395E7C",
"G  c #444443",
"H  c #484747",
"J  c #464A45",
"K  c #484946",
"L  c #4B4C4B",
"P  c #445241",
"I  c #485846",
"U  c #4D524C",
"Y  c #4E5C4C",
"T  c #50574E",
"R  c #545453",
"E  c #585757",
"W  c #575956",
"Q  c #585857",
"!  c #5B5C5B",
"~  c #586456",
"^  c #5D695C",
"/  c #60615F",
"(  c #636362",
")  c #676866",
"_  c gray42",
"`  c #667265",
"'  c #6F706F",
"]  c #6F6F70",
"[  c #727272",
"{  c #7C7C7C",
"}  c #365F80",
"|  c #366185",
" . c #3B6485",
".. c #376489",
"X. c #38668B",
"o. c #39698E",
"O. c #3A6C93",
"+. c #3B6F98",
"@. c #3E7097",
"#. c #3D729C",
"$. c #3D76A2",
"%. c #3E79A6",
"&. c #3E7AA9",
"*. c #416E8F",
"=. c #406F94",
"-. c #427195",
";. c #41759D",
":. c #46779C",
">. c #42759C",
",. c #44789E",
"<. c #447AA2",
"1. c #477BA1",
"2. c #457BA4",
"3. c #437AA3",
"4. c #487DA4",
"5. c #407DAB",
"6. c #477EA8",
"7. c #417EAC",
"8. c #427DAA",
"9. c #4280AE",
"0. c #4480AD",
"q. c #4881AA",
"w. c #4A83AC",
"e. c #4482B0",
"r. c #4684B3",
"t. c #4C86B1",
"y. c #4886B4",
"u. c #4A86B2",
"i. c #4B88B3",
"p. c #4A89B6",
"a. c #4B89B5",
"s. c #4E8BB8",
"d. c #4E8DBA",
"f. c #4C8CBA",
"g. c #508CB7",
"h. c #508DB9",
"j. c #518EBB",
"k. c #4F90BE",
"l. c #5191BE",
"z. c #5394C2",
"x. c #5798C6",
"c. c #599AC6",
"v. c #5799C8",
"b. c #5A9DCB",
"n. c #5FA2CE",
"m. c #62A1CB",
"M. c #64A6D1",
"N. c #68A9D2",
"B. c #848484",
"V. c #8B8B8B",
"C. c #8F908F",
"Z. c #939393",
"A. c gray61",
"S. c #A2A2A2",
"D. c #B4B4B4",
"F. c None",
"G. c black",
"H. c black",
"J. c black",
"K. c black",
"L. c black",
"P. c black",
"I. c black",
"U. c black",
"Y. c black",
"T. c black",
"R. c black",
"E. c black",
"W. c black",
"Q. c black",
"!. c black",
"~. c black",
"^. c black",
"/. c black",
"(. c black",
"). c black",
"_. c black",
"`. c black",
"'. c black",
"]. c black",
"[. c black",
"{. c black",
"}. c black",
"|. c black",
" X c black",
".X c black",
"XX c black",
"oX c black",
"OX c black",
"+X c black",
"@X c black",
"#X c black",
"$X c black",
"%X c black",
"&X c black",
"*X c black",
"=X c black",
"-X c black",
";X c black",
":X c black",
">X c black",
",X c black",
"<X c black",
"1X c black",
"2X c black",
"3X c black",
"4X c black",
"5X c black",
"6X c black",
"7X c black",
"8X c black",
"9X c black",
"0X c black",
"qX c black",
"wX c black",
"eX c black",
"rX c black",
"tX c black",
"yX c black",
"uX c black",
"iX c black",
"pX c black",
"aX c black",
"sX c black",
"dX c black",
"fX c black",
"gX c black",
"hX c black",
"jX c black",
"kX c black",
"lX c black",
"zX c black",
"xX c black",
"cX c black",
"vX c black",
"bX c black",
"nX c black",
"mX c black",
"MX c black",
"NX c black",
"BX c black",
"VX c black",
"CX c black",
"ZX c black",
"AX c black",
"SX c black",
"DX c black",
"FX c black",
"GX c black",
"HX c black",
"JX c black",
"KX c black",
"LX c black",
"PX c black",
"IX c black",
"UX c black",
/* pixels */
"F.F.F.F.F.F.F.F.F.F.F.F.F.F.F.F.F.F.F.F.F.F.F.F.F.F.F.F.F.F.F.F.F.F.F.F.F.F.F.F.F.F.F.F.F.F.F.F.F.F.F.F.F.F.F.F.F.F.F.",
"F.F.F.F.F.F.F.F.F.F.F.F.F.F.F.F.F.F.F.F.F.F.F.F.F.F.M M M M M N F.F.F.F.F.F.F.F.F.F.F.F.F.F.F.F.F.F.F.F.F.F.F.F.F.F.F.",
"F.F.F.F.F.F.F.F.F.F.F.F.F.F.F.F.F.F.F.F.F.F.F.m M N D O.A } O.O.A M m m F.F.F.F.F.F.F.F.F.F.F.F.F.F.F.F.F.F.F.F.F.F.F.",
"F.F.F.F.F.F.F.F.F.F.F.F.F.F.F.F.F.F.F.F.F.B B N A @.$.&.D O.5.%.#.O.B N B B F.F.F.F.F.F.F.F.F.F.F.F.F.F.F.F.F.F.F.F.F.",
"F.F.F.F.F.F.F.F.F.F.F.F.F.F.F.F.F.F.F.m Z +.#.#.$.5.9.9.} 1.i.9.9.&.#.#.#.X.N m F.F.F.F.F.F.F.F.F.F.F.F.F.F.F.F.F.F.F.",
"F.F.F.F.F.F.F.F.F.F.F.F.F.F.F.F.F.F.m Z O.&.e.e.e.y.h.z.o.:.l.j.f.r.e.e.9.%...N m F.F.F.F.F.F.F.F.F.F.F.F.F.F.F.F.F.F.",
"F.F.F.F.F.F.F.F.F.F.F.F.F.F.F.F.m B N O.e.y.f.h.h.q.O.6. .S o.O.@.a.h.h.a.r.7.D Z V m F.F.F.F.F.F.F.F.F.F.F.F.F.F.F.F.",
"F.F.F.F.F.F.F.F.F.F.F.F.F.F.m B A O.A ;.s.t.O.O.O.o.| ..D N D | | o.O.O.;.a.a. .:.O.A M m F.F.F.F.F.F.F.F.F.F.F.F.F.F.",
"F.F.F.F.F.F.F.F.F.F.F.F.m Z D O.&.e.>.:.O.o.o.o.| D A A D Z Z A S | | o.o.o.-.-.i.y.%.| D N F.F.F.F.F.F.F.F.F.F.F.F.F.",
"F.F.F.F.F.F.F.F.F.F.F.m N o.&.&.e.i.w.| S } | D A A A A A N Z A A A D | | D A =.t.i.7.&.%.D M m F.F.F.F.F.F.F.F.F.F.F.",
"F.F.F.F.F.F.F.F.F.F.m N o.&.e.f.u.#.o.| Z V A A A A A B B M N V A A A A A B A  .o.1.s.s.5.$.D M m F.F.F.F.F.F.F.F.F.F.",
"F.F.F.F.F.F.F.F.F.m N o.%.e.i.6.#.| D S A Z V A B N M z : : w b N N V A B Z A D } ..<.q.i.5.$.D M m F.F.F.F.F.F.F.F.F.",
"F.F.F.F.F.F.F.F.F.N o.%.e.a.#.o.| D A B N M m n : ; : = @ @ @ - ; ; w m m N N Z A D ..o.2.a.5.$.D M F.F.F.F.F.F.F.F.F.",
"F.F.F.F.F.F.F.F.N o.%.0.a.#.| D D A N w - - - = # # # # , 4 & # # # # - - - - k Z A D D o.2.s.5.$.} m F.F.F.F.F.F.F.F.",
"F.F.F.F.F.F.F.M Z #.e.a.#.o.| A A M w # , & , & 1 4 5 4 5 5 5 4 4 4 , & , & & * l B A S ..o.1.s.7.o.M m F.F.F.F.F.F.F.",
"F.F.F.F.F.F.m M :.e.a.@...D S N e = % 1 5 5 t 4 , 0 t t t t t t t 5 , 0 t 5 5 , = = x Z D D o.1.i.0. .m m F.F.F.F.F.F.",
"F.F.F.F.F.F.B B A 4.O.} | A N e > , 4 5 0 0 t 5 , 1 o o + + + o @ 5 , t t 0 0 5 1 , > c Z D | | #...Z B N F.F.F.F.F.F.",
"F.F.F.F.F.Z O.$.D Z ....S B w > 0 4 1 0 0 5 @ o o o X X X X X X X o o o & 0 0 5 , 0 5 > x Z D o.D Z o.$.| B F.F.F.F.F.",
"F.F.F.F.m ..&.e.w.D D | Z e # 1 0 4 # o o + + + + + o X X X X X X X o + + o + @ & 5 5 , = x S | D o.i.7.%.A F.F.F.F.F.",
"F.F.F.F.A o.%.l.;.} Z B k # , 0 0 > @ 3 9 > @ + o X X X X X X X X o + + , 9 u 7 O , 0 5 & = n V A ..w.p.%.| B F.F.F.F.",
"F.F.F.m | #.6.u.O.D A v @ , 0 0 > 3 J ' T < $ o X X X o X X X X X o O + 7 T _ U > @ 1 0 5 & = M A } <.i.7.%.A F.F.F.F.",
"F.F.F.m D O.a.;...D N w @ 5 5 > < J _ _ r $ $ @ + + o o X X X X o O @ @ $ r ! ) W u @ , 0 4 @ k Z } ..q.i.%.A F.F.F.F.",
"F.w.M m S ..t.<.} A b @ & 0 , % y ! [ ( 7 $ $ $ $ @ o o X X X X o + > > $ > G [ { L < + 5 4 @ - N D } q.i.%.A m Z z.F.",
"F.l.>.S Z D w.;.D A n @ & 1 & > g ! L r > > > % $ @ o o X X X X o O > > $ @ 3 ! [ R q + 1 , # - N A } t.i.O.B | 4.c.F.",
"F.o.w.q.D Z w.<.| A n > 0 4 > 8 J G < O @ $ > $ $ @ o o X X X o o O $ $ @ O X 3 R W r + # 0 5 - N D ..t.y.D ..i.1. .F.",
"F.Z O.w.o.Z w.<.D A n > t 5 > y 7 @ + 3 > $ > < < @ + o X X X o O + > > $ @ > = $ 3 q < @ t 4 - N D | t.;.Z 6.2...M F.",
"F.A O.o...Z 1.>.A A n * 5 1 > 6 $ O J R 3 $ $ % % @ o o X X X o o O % % $ > r < X $ q y $ 5 1 - N A D q. .A O.o.o.N F.",
"F.M B Z Z C A A Z B n * 5 5 > 6 $ $ W [ r < > % % @ o o X X X o o O > < < r ! d O $ y y % t 1 - m N B A Z Z A A A M F.",
"F.m Z ..O.@.O.O.O.O.n * 0 5 < 8 > i ! _ d O O $ $ @ o o X X X o O O $ $ $ 7 K ! < $ P d % t 1 - M A D | O.@.#.@.O.F.F.",
"F.F.Z | | D A A A A n @ 4 , 8 f > r R i ( 3 % X O O X o X X X o X X     u ( 7 r > @ h s @ 4 , - M A A A A } | } B F.F.",
"F.F.M M M N N N M N b @ , , 8 f > + 3 > _ ( i >     . . . X X . . X X > L B.K . o @ a y @ 1 # - M M M N N N M M M F.F.",
"F.F.F.m V A A A N Z n @ & , 6 s $ O O < [ A.{ ! u 1 @ @ o X X o + > i ! ] [ d @ 3 > j d @ 1 # - N V V A A D N F.F.F.F.",
"F.F.F.m A } D A N Z n @ , , > 7 @ u r r [ S.Z.] ] ! i 3 # . X # 1 i _ [ V.) G ! { u j d $ 1 & - N V V D } | B F.F.F.F.",
"F.F.F.m S o.| D N Z n @ , & > 7 @ ! ( 3 ! V.Z.{ _ [ E 5 # X X > 3 G _ B.B.( W B.V.3 P d @ , & - N V Z ..o.<.A F.F.F.F.",
"F.F.F.m D O.o.1.A D n = 5 , 3 a % W B.[ { V.Z.V._ _ L r # X X > 3 H _ Z.B.B.V.B.R @ P d @ 5 1 - V A A o.+.h.F F.F.F.F.",
"F.F.F.m | $.O.a.F } n > t 5 8 f > 9 ( Z.C.B.[ [ ( ! i 3 # X X > 3 G ( { V.V.Z.! @ + a y > t 5 - Z D A o.#.j.F F.F.F.F.",
"F.F.F.m | &.#.a.F A n @ 4 5 8 f < + G { V.B.( ( ( W r 3 # . X > 3 i ! _ B.B.{ d O $ 8 8 % t & - B Z D O.#.d.F F.F.F.F.",
"F.F.F.m | &.%.f.D Z n @ 5 5 8 ^ J @ $ U B.V._ ( ( R r 3 # . X > 3 g ( [ B.B.[ i @ 3 y 7 1 t , - N V | %.%.5.A F.F.F.F.",
"F.F.F.m D $.&.5.A Z n * 5 5 8 ` R @ O L V.A.V._ ( ( G 1 @ . X > 9 E [ Z.Z.V.[ r O 3 y 6 > t , - N V | &.%.%.A F.F.F.F.",
"F.F.F.m D #.@.#.A Z n @ , , 8 ~ ) d i Q V.A.A.V.[ ] R 3 @ X X > r _ B.S.A.V._ 3 % ! J 3 @ 4 & - N V | #.$.%.A F.F.F.F.",
"F.F.F.m S #.+.#.A Z n * 5 , 8 Y W r d ! { B.V.V.B._ W 5 @ X X > i _ Z.Z.Z.[ W < O K G 3 @ 5 , - N V | @.#.%.A F.F.F.F.",
"F.F.F.m S #.@.@.Z Z n * 0 5 8 d i u L ( G r 7 G ! E K 3 # X X > r W ! r u G ! u + g d 7 % t 1 - N V } #.$.%.A F.F.F.F.",
"F.F.F.m D #.9.O.B A n @ 4 1 8 s r L ! { K $ O % r L u , # X X > # i X   > K [ _ 3 r f y % 5 , - N Z A #.&.%.A F.F.F.F.",
"F.F.F.m D #.l.;.B } n * 4 > 6 y > G ! B.( 7 @ @ r L i , # X X > > i % . i { A._ < % I d @ 1 , - Z D A #.&.%.A F.F.F.F.",
"F.F.F.m D #.l.;.V } n > t 5 > < > G ! { C.( W i K ! H 3 # . X > 3 R W W { D.S.( < $ I d % t 5 - Z D A #.&.%.A F.F.F.F.",
"F.F.F.m D #.l.;.V } n * 0 5 3 q > 7 L _ { B._ E ( W u 0 # . X > 3 H _ B.Z.Z.{ J < < I d % t 1 - Z D A #.&.%.A F.F.F.F.",
"F.F.F.m A #.r.#.C S n * 5 1 8 s > @ d ! _ _ W ! ! H 5 r # . X > 3 5 Q ( _ _ ( 7 $ 3 I d % 5 1 - B A A #.&.%.A F.F.F.F.",
"F.F.F.m A #.O.D N Z n * 5 3 8 s > @ > 3 L ( ( R G L 1 > @ . X @ 1 9 ! ( ! W i O % 3 s y % 0 1 - N V Z | #.%.A F.F.F.F.",
"F.F.F.m } %.| D B A n * 0 5 8 s > > > + i r / G i ! i + + X X o 3 L ^ ( W i + @ < < q y > t 1 - N Z A D O.%.A F.F.F.F.",
"F.F.F.m D O.D D B D n * 0 5 < 6 > < < < $ @ W L W ( J # + X X @ 9 ! ( ! J + + > > % q y % t 1 - B A Z D ..O.Z F.F.F.F.",
"F.F.F.m A D A A M N n * 5 , > < % > < 3 O > W ! ! / G , # X X # 3 ! _ ( G X $ 3 < < q y % 5 , - M N B A A } B m F.F.F.",
"F.F.m M C Z B B N A B = 5 , > < $ < 6 < $ ! W / ! ( G 1 # X X # 3 ! ' ' d $ 3 6 6 < y y @ 4 , w S A B B B Z B N M F.F.",
"F.F.m D 5.5.5.3.o.3.O.> 4 , < 6 $ > < < $ L 3 W W ( G , # . X # 3 ! _ _ @ $ 3 3 < > P d @ 4 , e 5.5.5.5.5.5.5.3.Z F.F.",
"F.F.n  .l.l.z.l.h.l.1.= , , 8 a $ $ > > + O $ R R ( G , # . X # 3 L W L O $ < > > % h s @ 1 # k t.g.h.h.h.h.h.w.Z F.F.",
"F.F.| Z } ..O.| } } Z * & & 6 y $ > < 6 < + 3 ' R W p , # X X # 3 3 G 7 @ 3 6 < < < y y @ , # ; Z S } } } } D A m F.F.",
"F.*.q.D D A S D D D B * , > > < @ $ > < < < > ! ( L > 3 # X X % > 3 K ( @ < < > $ $ 8 y @ 1 & : S D D D D D D D  .F.F.",
"&.d.x.p.p.u.y.p.p.p.;.2 0 5 3 8 $ $ $ $ $ > O $ L J o > @ . X + o > r ( $ % > $ $ $ 8 y > t , k i.p.p.p.p.p.p.f.v.e.&.",
"&.$.,.w.w.i.f.f.f.f.,.2 0 5 8 s $ @ @ $ $ $ $ O < 7 X @ + X X o o @ > i $ $ @ @ $ $ d a > t , k q.u.f.f.f.s.u.u.;.%.&.",
"p.O.A o.O.$.&.#.+.@.| > 0 5 8 s $ 6 y < > > $ @ $ + o @ + . X + o X O $ < < 6 > O $ P d % t 1 w ..O.$.#.+.+.O.O.A 3.d.",
"z.O.A o.O.+.+.O.o.} C = 0 5 8 s @ 8 a < > > $ @ $ @ o @ + . X + o O + $ > < 8 a > O P d % t 1 w D | O.O.o.o.o...A 5.b.",
"z.O.A o.......} D A N @ , , < 8 8 a 6 $ $ $ $ + $ @ o @ + . X + o X O $ $ $ > y P f Y d % 5 & ; A S D | o.o.o.| Z 8.c.",
"z.O.B Z Z Z Z B B B m @ & , > d h q > % $ < y $ > @ o @ + X X + o O $ $ $ $ > 8 d f d 8 @ 1 # ; B B B Z Z Z Z Z Z 6.c.",
"b.f.$.#.#.#.#.#.#.$...= & , > y s < @ % < < < a > > @ $ + X X + @ $ $ @ $ < < 8 y y y 6 @ 1 # e #.#.#.#.#.#.#.#.3.z.b.",
"l.x.z.z.z.z.z.z.z.z.4.= & & $ 8 y < $ $ $ @ % 7 % % + @ + X X + @ @ $ @ O @ $ > 8 q y 6 @ , # k h.z.z.z.z.z.l.l.z.z.l.",
"D %.5.5.5.5.5.3.%.#.D * # # $ 6 8 y h I P 6 s < > @ + @ + X X o + @ < < % 3 f I s y 8 3 + # # w O.#.3.5.5.7.#.#.#.O.Z ",
"V O.%.&.&.&.$.O.o.o.D * # + @ < > < < < < + + + + o o + o . . o o o o o + o % < < < < > + @ + w ....o.@.%.%.%.%.O.| M ",
"Z o.O.$.$.$.O.o.| D A - ; ; ; - - ; ; ; ; ; ; ; ; ; - - - - - - - - - - - - - ; ; ; ; ; ; ; - w D D ..o.@.O.#.#.O.| M ",
"Z o...| | | | | D S Z x N B A V N N N M N N N B Z N N N N N N N N N N N N N M M N N N N N N m v A A D | | | | | o.| M ",
"N S A V V V V V V V N N S ..@.o.} } D B A S D | O.} } } } } } } } } } } } D B V D } } } D S Z M V V V V V V V Z A A M ",
"M B B A S A A A A A A D ..$.&.$.#.#.@.D A | @.#.%.#.#.#.#.#.#.#.#.#.#.#.O...S S ..O.#.@.o.| D A V Z S S S S S S S A M ",
"N D | O.#.#.#.#.#.#.#.#.$.&.%.&.&.&.%.| | #.7.d.d.d.d.d.e.&.p.k.d.d.k.p.%.+.| | o.$.&.&.$.#.#.o.| ..o.o.o.o.o.o.o.| M ",
"B | ;.h.z.z.z.l.9.7.d.z.z.l.l.l.l.e.%.| +.%.0.b.b.b.b.b.x.l.c.b.b.b.b.c.z.y.o.| @.i.z.l.z.z.l.h.w.$.$.$.$.$.$.#.O.| M ",
"Z O.u.b.b.b.b.M.m.x.b.M.b.b.b.b.b.x.0.| #.7.l.c.c.c.b.b.b.b.b.b.b.M.N.N.M.c.6.O.y.v.b.b.b.M.b.n.m.m.m.c.z.z.z.0.%.O.M ",
"A #.u.v.v.v.v.c.b.c.c.c.c.v.v.c.v.v.0.O.#.%.9.0.0.9.s.v.v.v.v.v.c.b.b.b.c.c.w.@.5.0.9.0.z.b.m.c.b.b.b.c.c.c.v.l.l.q.V ",
"..O.O.#.#.#.#.#.#.#.#.#.#.#.#.#.#.#.O.O.O.O.O.O.O.O.O.#.#.#.#.#.#.#.#.#.>.#.O.O.O.O.O.O.#.>.>.#.#.#.#.#.#.#.#.>.>.O.| "
};
