/* XPM */
static char *ZXpnaWYuY29tLWdpZi1tYWtlci0z_14[] = {
/* columns rows colors chars-per-pixel */
"59 75 256 2 ",
"   c #0E110C",
".  c #13110F",
"X  c #151412",
"o  c #191613",
"O  c #161915",
"+  c #1A1A16",
"@  c #1B1D1A",
"#  c #211D1B",
"$  c #1E211D",
"%  c #22221E",
"&  c #28221F",
"*  c #1D1F20",
"=  c #201F20",
"-  c #1E2124",
";  c #1D242B",
":  c #1F282E",
">  c #1F2932",
",  c #222621",
"<  c #2B2522",
"1  c #252A24",
"2  c #2B2B26",
"3  c #212629",
"4  c #2B2E2A",
"5  c #312A26",
"6  c #342E2A",
"7  c #283027",
"8  c #2C332B",
"9  c #2F382D",
"0  c #33332E",
"q  c #39312D",
"w  c #31392F",
"e  c #202C35",
"r  c #212E39",
"t  c #24323E",
"y  c #333432",
"u  c #3C3532",
"i  c #343B33",
"p  c #393B37",
"a  c #3B3B3A",
"s  c #364035",
"d  c #384236",
"f  c #3C443B",
"g  c #3F4B3D",
"h  c #40413F",
"j  c #404D3E",
"k  c #42503F",
"l  c #253644",
"z  c #263A4C",
"x  c #273D52",
"c  c #293F53",
"v  c #294156",
"b  c #2C455D",
"n  c #2D4760",
"m  c #2E4B64",
"M  c #2F4E69",
"N  c #304F6A",
"B  c #2F506C",
"V  c #30516D",
"C  c #325674",
"Z  c #335877",
"A  c #345B7B",
"S  c #395F7D",
"D  c #3A607E",
"F  c #444443",
"G  c #484746",
"H  c #454A44",
"J  c #484947",
"K  c #4B4C4A",
"L  c #445241",
"P  c #485846",
"I  c #4D524C",
"U  c #4E5B4C",
"Y  c #50514F",
"T  c #505E4F",
"R  c #545453",
"E  c #555C53",
"W  c #585957",
"Q  c #5B5B5A",
"!  c #605F5E",
"~  c #556253",
"^  c #5E605E",
"/  c #646464",
"(  c #646864",
")  c gray42",
"_  c #706F6E",
"`  c #6F706E",
"'  c #747474",
"]  c #787776",
"[  c #787977",
"{  c #7B7B7B",
"}  c #365F80",
"|  c #376285",
" . c #3A6586",
".. c #376589",
"X. c #38668B",
"o. c #37688E",
"O. c #39698E",
"+. c #3A6C93",
"@. c #3B6F98",
"#. c #3E7096",
"$. c #3D729C",
"%. c #3D76A1",
"&. c #3E79A6",
"*. c #3E7AA8",
"=. c #406C8D",
"-. c #427195",
";. c #40739B",
":. c #457599",
">. c #42759C",
",. c #46789E",
"<. c #4378A1",
"1. c #4379A2",
"2. c #447AA3",
"3. c #437AA4",
"4. c #487DA4",
"5. c #477EA8",
"6. c #407DAC",
"7. c #417EAC",
"8. c #427DAA",
"9. c #487FA8",
"0. c #4381AF",
"q. c #4B83AD",
"w. c #4482B1",
"e. c #4685B3",
"r. c #4684B2",
"t. c #4C86B1",
"y. c #4887B5",
"u. c #4B88B3",
"i. c #4B88B6",
"p. c #4C88B4",
"a. c #4C8BB8",
"s. c #4E8BB8",
"d. c #4D8CBA",
"f. c #4D8CBA",
"g. c #508CB7",
"h. c #508DB9",
"j. c #508EBB",
"k. c #4F90BE",
"l. c #5291BE",
"z. c #5394C2",
"x. c #5798C6",
"c. c #599AC6",
"v. c #579AC8",
"b. c #5A9DCB",
"n. c #5EA1CE",
"m. c #61A0CA",
"M. c #65A6D1",
"N. c #68A9D2",
"B. c #848483",
"V. c #8B8B8B",
"C. c #90908F",
"Z. c gray58",
"A. c #9B9B9B",
"S. c #A2A2A2",
"D. c #AEAEAE",
"F. c None",
"G. c black",
"H. c black",
"J. c black",
"K. c black",
"L. c black",
"P. c black",
"I. c black",
"U. c black",
"Y. c black",
"T. c black",
"R. c black",
"E. c black",
"W. c black",
"Q. c black",
"!. c black",
"~. c black",
"^. c black",
"/. c black",
"(. c black",
"). c black",
"_. c black",
"`. c black",
"'. c black",
"]. c black",
"[. c black",
"{. c black",
"}. c black",
"|. c black",
" X c black",
".X c black",
"XX c black",
"oX c black",
"OX c black",
"+X c black",
"@X c black",
"#X c black",
"$X c black",
"%X c black",
"&X c black",
"*X c black",
"=X c black",
"-X c black",
";X c black",
":X c black",
">X c black",
",X c black",
"<X c black",
"1X c black",
"2X c black",
"3X c black",
"4X c black",
"5X c black",
"6X c black",
"7X c black",
"8X c black",
"9X c black",
"0X c black",
"qX c black",
"wX c black",
"eX c black",
"rX c black",
"tX c black",
"yX c black",
"uX c black",
"iX c black",
"pX c black",
"aX c black",
"sX c black",
"dX c black",
"fX c black",
"gX c black",
"hX c black",
"jX c black",
"kX c black",
"lX c black",
"zX c black",
"xX c black",
"cX c black",
"vX c black",
"bX c black",
"nX c black",
"mX c black",
"MX c black",
"NX c black",
"BX c black",
"VX c black",
"CX c black",
"ZX c black",
"AX c black",
"SX c black",
"DX c black",
"FX c black",
"GX c black",
"HX c black",
"JX c black",
"KX c black",
"LX c black",
"PX c black",
"IX c black",
"UX c black",
/* pixels */
"F.F.F.F.F.F.F.F.F.F.F.F.F.F.F.F.F.F.F.F.F.F.F.F.F.F.F.F.F.F.F.F.F.F.F.F.F.F.F.F.F.F.F.F.F.F.F.F.F.F.F.F.F.F.F.F.F.F.F.",
"F.F.F.F.F.F.F.F.F.F.F.F.F.F.F.F.F.F.F.F.F.F.F.F.F.F.F.n n n n n F.F.F.F.F.F.F.F.F.F.F.F.F.F.F.F.F.F.F.F.F.F.F.F.F.F.F.",
"F.F.F.F.F.F.F.F.F.F.F.F.F.F.F.F.F.F.F.F.F.F.F.b n m A +.Z } +.+.C n b b F.F.F.F.F.F.F.F.F.F.F.F.F.F.F.F.F.F.F.F.F.F.F.",
"F.F.F.F.F.F.F.F.F.F.F.F.F.F.F.F.F.F.F.F.F.M M m C @.%.*.A o.6.*.$.+.B m M m F.F.F.F.F.F.F.F.F.F.F.F.F.F.F.F.F.F.F.F.F.",
"F.F.F.F.F.F.F.F.F.F.F.F.F.F.F.F.F.F.F.b V +.$.$.%.*.0.0.| ,.a.0.0.*.$.$.$.o.m b F.F.F.F.F.F.F.F.F.F.F.F.F.F.F.F.F.F.F.",
"F.F.F.F.F.F.F.F.F.F.F.F.F.F.F.F.F.F.b B +.*.r.r.r.y.h.z.=.:.l.h.f.e.r.r.0.*...m b F.F.F.F.F.F.F.F.F.F.F.F.F.F.F.F.F.F.",
"F.F.F.F.F.F.F.F.F.F.F.F.F.F.F.F.b M m +.r.u.f.h.h.q.+.5. .C o.+.@.p.h.h.p.e.6.} V N b F.F.F.F.F.F.F.F.F.F.F.F.F.F.F.F.",
"F.F.F.F.F.F.F.F.F.F.F.F.F.F.b M C +.Z >.s.t.@.+.+.o.| | A m A | | o.+.+.>.p.s...:.-.C n b F.F.F.F.F.F.F.F.F.F.F.F.F.F.",
"F.F.F.F.F.F.F.F.F.F.F.F.F.B A o.*.r.>.:.+.o.o.o.| A C C A V V C Z | | o.o.o.-.-.q.y.&.| A m F.F.F.F.F.F.F.F.F.F.F.F.F.",
"F.F.F.F.F.F.F.F.F.F.F.b m X.*.*.r.p.q.| C } | A C C C C C m V C C C Z | | A C +.t.i.6.*.*.A n F.F.F.F.F.F.F.F.F.F.F.F.",
"F.F.F.F.F.F.F.F.F.F.b m X.*.w.f.u.;.o.| V N C C C C C M M n m N C C C C C M C ..o.1.s.f.6.%.} n b F.F.F.F.F.F.F.F.F.F.",
"F.F.F.F.F.F.F.F.F.b m X.*.w.p.5.;.| A A C V N C M m m z > > e c m m N C M V C A A ..<.q.p.7.%.} n b F.F.F.F.F.F.F.F.F.",
"F.F.F.F.F.F.F.F.F.m o.*.0.p.;.o.| A C M m m b v > : : - @ @ @ ; : : r b b m m V C A ..o.1.p.6.%.} n F.F.F.F.F.F.F.F.F.",
"F.F.F.F.F.F.F.F.m o.*.0.p.$.| A A C m r ; ; ; - # # # # < 5 & # # # # ; ; ; ; l V C A A o.1.s.6.%.} b F.F.F.F.F.F.F.F.",
"F.F.F.F.F.F.F.n N $.0.p.;.o.| C C n e # < & < & 2 5 6 5 6 6 6 5 5 5 < & < & < @ l M C Z ..o.1.s.6.o.m n F.F.F.F.F.F.F.",
"F.F.F.F.F.F.b n :.r.p.;...A Z M t - # < 6 6 u 5 < q u u u u u u u 6 < q u 6 6 < = - z V A A o.1.i.0. .b F.F.F.F.F.F.F.",
"F.F.F.F.F.F.M M C 4.#.} | C M t , < 5 6 q q u 6 < 2 + + + + o o @ 6 < q u q q 6 5 < , z V A | | $...V M m F.F.F.F.F.F.",
"F.F.F.F.F.V +.%.A V ....A M t , q 5 2 q q 6 # + + + o X X X X X X o o + & q q 6 < 6 6 , z V A o.} V ..%.| M F.F.F.F.F.",
"F.F.F.F.b | *.0.q.A A | V t # < q 5 # + + % 1 , , % @ X X X X X X X % 2 2 + @ @ & 6 6 < * z Z | A  .i.6.&.C F.F.F.F.F.",
"F.F.F.F.C o.*.l.>.} V M l # < 6 q & + 4 p a w % @ X X o o X X X X O 2 2 a a y , X < q 6 < - v N C ..q.a.*.| M F.F.F.F.",
"F.F.F.b | $.8.u.@.A C c @ < 6 q & % i Q ( F 8 O o o o + X X X X X o X @ J ( W a , + < q 6 & - n C A >.i.0.*.C F.F.F.F.",
"F.F.F.b A +.p.<.o.A m r @ 6 q & $ p ^ ' R 8 @ @ @ @ @ @ X X X X + @ @ @ y R / / I 8 + < q 5 @ l V A ..q.i.*.C F.F.F.F.",
"F.q.n b C | q.<.| C v @ # 6 < @ 8 H ` ) F $ @ $ $ $ + + X X X X + $ , $ , F Q { ) f 1 + 6 5 @ ; n A } q.i.&.C b V l.F.",
"F.l.>.A V A q.<.A C v @ & < & % d I Q f 4 % % , , % + @ X X X o + $ , $ @ 1 a ( ) K 8 @ < < # ; m C } u.i.+.M | 4.c.F.",
"F.O.q.0.A V q.<.| Z v , q 5 % 8 f H F $ O @ $ , , $ @ @ X X X + @ @ $ $ O o + p W I w @ # q 6 ; n A ..q.y.A ..i.2. .F.",
"F.N +.q.+.V q.<.A C v , u 6 , i w , $ , 1 @ $ , 1 , $ @ X X X @ $ $ , $ $ , @ @ , 8 i 2 @ u 6 ; n Z | q.,.V 5.5...n F.",
"F.C +.o...V ,.>.Z C v * 6 2 , w , @ y R a $ @ % , $ @ @ X X X + @ $ % $ , a a @ O 1 i i $ 6 < ; n C A 9. .C +.o.+.m F.",
"F.n M V V B C C V M v * 6 6 , w 1 $ p ) Q y @ , , % @ @ o X X + @ $ , 2 p Q Q 4 O 1 i i % u 2 ; b m m C V V C C C n F.",
"F.F.V ..+.$.+.+.+.+.b * 6 6 , i 2 4 p ! W $ @ O @ % $ $ X X X @ $ $ @ O 1 Y Q F $ $ L f % u 2 ; n C A | +.$.$.$.+.F.F.",
"F.F.V | | A C C C C v * 5 < 2 j 8 4 y F J 0 K @ . . X + X X X @ X     X 8 K H y $ $ j f $ 5 < ; n C C C C } | | N F.F.",
"F.F.n n n m m m n m v @ < < 2 L 8 @ , 4 H ) ( a O .     . X X .   X @ F Q R a . X @ i i $ 2 # ; b n n m m m n n n F.F.",
"F.F.F.b M C C C m V v @ & < 1 f 7 O , , K B.V.{ R h 4 4 # . X + 1 f Q ' / J 1 , 4 $ L f @ < # ; m V M Z C A m F.F.F.F.",
"F.F.F.b V } A C m V v @ < < , i , 1 K p R B.Z.Z.A.V.' / p . X y W ' Z.B.) J a ) / 2 L f $ 2 & ; m N N A } | V F.F.F.F.",
"F.F.F.b C o.| A M V v @ < & , i , p Q H f ' V.V.Z.S.Z.) y . X F Q B.Z.V.) J [ Z./ , L f @ < & ; m N V ..o.<.Z F.F.F.F.",
"F.F.F.b A +.o.1.Z Z v - 6 1 1 f 7 p W { { B.V.V.B.A.C.' y . X F Q B.B.Z.V.B.A.{ p @ L f $ 6 2 ; M C C o.+.f.D F.F.F.F.",
"F.F.F.b | &.+.p.S A b - u 6 2 H 9 1 f { Z.V.{ { { B.{ / y . X F Q ) ' B.V.Z.{ F @ @ s i , u 6 ; V A C o.$.d.S F.F.F.F.",
"F.F.F.b | *.$.p.S C v @ 2 6 2 H w @ y / B.B.' ' ' ' / Q y . X F Q / ' { V.B./ 4 @ , w 8 % u & ; m V A @.$.d.S F.F.F.F.",
"F.F.F.b } *.*.f.A V v * 6 6 2 T E 8 $ p ) V.B.{ ' ) Q Q y . X F Q / ' B.V.' F 4 @ a f 7 2 u < ; m N } *.*.6.Z F.F.F.F.",
"F.F.F.b A %.*.7.C V v * 6 6 2 ~ / y + y ' Z.Z.B.B.{ ) W y . X F Q ' B.A.Z.` h , @ F H 7 , u 2 ; m V } *.*.&.C F.F.F.F.",
"F.F.F.b C $.$.$.C V v @ < < 2 U ( W y J ' Z.A.A.A.A.B.Q y . X F ) Z.S.D.Z.' Y $ y / H 7 @ 5 & ; m V } $.$.*.C F.F.F.F.",
"F.F.F.b C $.@.$.C V v * 5 < 2 P E F y K ) ' B.V.V.B.V.) y . X G { Z.S.V.{ ) J @ 2 R f 7 @ 5 < ; m N } $.$.*.C F.F.F.F.",
"F.F.F.b C $.$.$.C V v * q 6 2 j d p a Q W F y y F K / / p . X F / J F y F Q W 1 2 f i 8 # u 5 ; n N A $.%.*.C F.F.F.F.",
"F.F.F.b C $.0.@.M C v * 5 2 2 g i v F ) ) a $ O % 4 y R p . X F 1 ,   O F ) ) K 4 8 d i % 6 < ; m V C $.*.*.C F.F.F.F.",
"F.F.F.b C $.d.>.N } b * 2 , 1 f 7 y a ) { / p X @ y F Y a . X F p 2 X $ ) B.B.I , $ L f @ < < ; V A C $.*.*.C F.F.F.F.",
"F.F.F.b C $.k.>.V } v , u 6 , 8 , y a / V.B.' J J Q Q Q p . X F R R R ) A.A.B.K % $ L f % u 6 ; V A C $.*.*.C F.F.F.F.",
"F.F.F.b C $.k.>.V } b * q 6 1 s 2 1 p Q [ B.{ ' ' ) ! _ p . X F R / { Z.Z.B.( p , , L f % u 2 ; V A C $.*.*.C F.F.F.F.",
"F.F.F.b C $.e.$.V Z v - 6 2 2 g 8 $ i W ( ) / / / ! ) ] p . X K Q R Q / ) / K , 1 , L f % 6 2 ; M C C $.*.*.C F.F.F.F.",
"F.F.F.b C $.+.} M V v - 6 5 2 g 8 $ 1 2 a Q / Q W / W F 4 . X 4 W R / / W h 4 @ 1 , s s % q 2 ; m V V | $.*.C F.F.F.F.",
"F.F.F.b A *.| A M V v * q 6 2 g 8 , 2 $ 1 4 W a R ) R 1 1 X X + W / / F p 1 $ $ 2 , 8 i % u 5 ; m V C A +.*.C F.F.F.F.",
"F.F.F.b A +.} A M A v * q 6 , w 1 , 2 2 % O p p Q ' / p 1 . X 4 Q ) ^ p 4 $ % , , $ 8 i % u 5 ; M C V A | +.V F.F.F.F.",
"F.F.F.b C A C C m m v * 6 < , 7 , , 2 4 $ @ w F / ) Q R y . X p R / / f 8 $ 1 2 2 % 8 i % 6 2 ; n m m C C } M b F.F.F.",
"F.F.F.n M V M M m C M - 5 < , 7 , , 7 4 1 f a / / ) Q W a . X a K / ) ) p , 7 7 7 , w i @ 5 < e C C M M M V M m n F.F.",
"F.F.F.A 7.7.7.3.O.3.@.3 5 < , 8 , $ 2 2 , p 1 R J ' R W p . X p J ) Y / , , 2 2 1 $ k f @ 5 < t 8.7.7.7.7.7.7.<.V F.F.",
"F.F.F. .h.l.z.l.f.j.4.- & < 1 f 7 @ , , $ $ @ 0 a ) R R p . X p K Q p 0 $ % , , , $ g f # 2 # t t.g.h.h.h.h.h.q.V F.F.",
"F.F. .V } ..+.| } } C * & & , s 2 $ 1 7 4 , 2 F y Q / R p . X p Q a 4 , , 7 4 2 1 $ 8 i @ < # : V Z } } } } A C n F.F.",
"F.=.q.A A C C A A A B - < < , 8 $ @ % 1 1 2 1 f J ) J Q p . X a K Q y F , 2 1 $ $ @ 8 i @ < & > C A A A A A A A  .F.F.",
"*.f.x.a.a.u.u.a.a.a.<.3 q 6 1 s 1 @ $ $ $ , $ $ F Q # F 0 . X 2 , K 4 F % $ $ $ $ @ 8 i % u 2 l y.a.a.a.a.a.a.f.v.r.*.",
"*.%.>.q.q.i.f.f.f.f.1.3 q 6 2 g 7 @ @ @ $ $ $ @ 4 p + 8 1 . X @ + 8 , 4 $ @ @ $ $ @ d d % u 2 t 9.u.f.f.f.s.u.u.>.*.*.",
"a.+.V o.+.%.*.$.@.$.| - q 6 2 g 7 , 2 7 1 , , $ $ O @ w 1 . X , + O $ % 2 9 7 $ @ @ L f % u 2 e ..+.$.$.@.@.+.+.V %.f.",
"z.+.C o.+.@.@.+.o.} V - q 6 2 g 7 , i 9 , , % $ $ @ @ w 1 . X % + + $ % , 9 d w @ O L f % u 2 e A | +.+.o.o.o...V 3.b.",
"z.+.V ........} A C m * < < , i 8 i s , $ $ $ @ $ @ @ w 1 . X % + O $ $ $ , 8 f L i L f $ 6 & : C Z A | o.o.o...V 3.b.",
"z.+.M V V V V M M M b @ & < % i g d 8 , $ , 7 , 8 @ @ w 1 . X % @ @ 8 $ $ $ 2 i g d f 8 @ 2 # : m M M B V V V V B 7.b.",
"b.f.%.$.$.$.$.$.$.%.X.- & < $ i d 8 2 $ , 1 2 8 2 s 8 w 1 . X , w w $ @ , , , w i i i 7 @ 2 # r $.$.$.$.$.$.$.$.3.z.b.",
"l.x.z.z.z.z.z.z.z.z.4.- & , $ 8 i 8 , $ $ $ % 1 , 8 2 w 1 . X , 2 4 $ @ @ $ $ 2 w w i 7 @ < # l h.z.z.z.z.z.l.l.l.z.l.",
"A *.7.7.7.7.7.8.*.$.| - # # $ 7 8 i j P L d j s i 1 % 8 1 . X $ , 2 i i 8 d L L i w 8 4 + # # e +.$.3.8.7.7.$.$.$.$.V ",
"M +.%.*.*.*.&.+.o...A * # @ @ 1 , 1 1 2 1 % % % % @ @ 2 % . X @ @ $ % % % % , 2 1 1 1 , + @ + > ....o.@.*.&.*.*.+.| n ",
"M ..+.%.%.%.+.o.| A C : : : : : ; : : : : : : : : : : : ; ; ; ; : : : : : : : : : : : : : : ; r A A ..o.$.+.$.$.+.| n ",
"M o.o.| | | | | A C V z n M C N m m m n m m m M V m m m m m m m m m m m m m n n m m m m m m b x C C A | | | | | o.| n ",
"m C C N N N N N N N M m Z ..$.o.} } A M V Z A | +.} } } } } } } } } } } } A N M A } } } A Z C n N N N N N N N N C C n ",
"n M M C C C C C C C C A ..$.*.%.$.$.$.A C | @.$.&.$.$.$.$.$.$.$.$.$.$.$.+...Z C ..+.$.$.o.| } C N V Z Z Z Z Z Z Z C n ",
"m A | +.$.$.$.$.$.$.$.$.%.*.*.*.*.*.*.| | $.7.f.d.d.d.d.e.*.a.k.d.d.d.a.*.$.| | o.%.*.*.$.$.$.o.| ..o.o.o.o.o.o.o.| n ",
"M | >.h.z.z.z.l.0.7.d.z.z.l.l.l.l.e.*.| +.*.0.b.b.b.b.b.x.l.v.b.b.b.b.b.z.y.o.| $.i.z.l.z.z.l.h.u.%.%.%.%.%.%.$.+.| n ",
"M +.u.b.b.b.b.m.m.x.b.M.b.b.b.b.b.x.0.| $.7.l.b.b.b.b.b.b.b.b.b.b.M.N.N.M.b.5.+.y.x.b.b.b.M.b.n.M.m.m.c.z.z.z.0.*.+.n ",
"C $.e.x.x.x.x.c.b.c.c.c.c.x.x.c.x.x.r.+.$.*.6.0.0.0.i.x.x.x.x.x.c.b.b.b.c.c.q.$.7.0.0.0.z.b.m.c.b.b.b.c.c.c.x.l.l.q.N ",
"..+.@.$.$.$.$.$.$.$.$.$.;.$.$.$.$.$.@.o.+.+.+.+.+.+.@.$.$.$.$.$.$.$.$.$.;.$.@.o.+.+.+.+.$.;.>.$.$.$.$.$.$.$.$.;.;.@.| "
};
