/* XPM */
static char *ZXpnaWYuY29tLWdpZi1tYWtlci0z_35[] = {
/* columns rows colors chars-per-pixel */
"59 75 256 2 ",
"   c #14110F",
".  c #151210",
"X  c #181614",
"o  c #151814",
"O  c #191916",
"+  c #1C1C1A",
"@  c #211E1C",
"#  c #1D211C",
"$  c #23211E",
"%  c #28221F",
"&  c #1B1F23",
"*  c #1D2024",
"=  c #1D242B",
"-  c #1F2933",
";  c #232421",
":  c #2A2522",
">  c #252A24",
",  c #2C2926",
"<  c #212428",
"1  c #2B2C2A",
"2  c #302926",
"3  c #342D29",
"4  c #2B3027",
"5  c #2D322B",
"6  c #35302D",
"7  c #39312E",
"8  c #30392E",
"9  c #202B34",
"0  c #212E39",
"q  c #22313D",
"w  c #343533",
"e  c #3C3532",
"r  c #343A32",
"t  c #383B37",
"y  c #3B3C3B",
"u  c #403734",
"i  c #413935",
"p  c #403F3F",
"a  c #364034",
"s  c #384336",
"d  c #3D423C",
"f  c #3D483B",
"g  c #414E3E",
"h  c #243543",
"j  c #263B4D",
"k  c #283C4E",
"l  c #273C50",
"z  c #293F53",
"x  c #2A4154",
"c  c #2C465E",
"v  c #2C485F",
"b  c #2C4760",
"n  c #2E4B64",
"m  c #2F4E69",
"M  c #304C66",
"N  c #304F69",
"B  c #2F506C",
"V  c #30516D",
"C  c #325573",
"Z  c #335876",
"A  c #345B7B",
"S  c #395F7D",
"D  c #434443",
"F  c #444843",
"G  c #4A4B4A",
"H  c #455443",
"J  c #50504F",
"K  c #535352",
"L  c #575857",
"P  c #5A5A59",
"I  c #606060",
"U  c #365F80",
"Y  c #366184",
"T  c #3A6485",
"R  c #366489",
"E  c #38668B",
"W  c #39698E",
"Q  c #3A6C93",
"!  c #3B6F98",
"~  c #3E7097",
"^  c #3D729B",
"/  c #3D75A1",
"(  c #3E78A5",
")  c #3E7AA9",
"_  c #416F92",
"`  c #417094",
"'  c #42749B",
"]  c #477A9F",
"[  c #477BA2",
"{  c #4479A2",
"}  c #477EA7",
"|  c #447AA4",
" . c #4A7EA3",
".. c #497EA5",
"X. c #407CAA",
"o. c #407EAC",
"O. c #427DAA",
"+. c #4A80A6",
"@. c #4680AB",
"#. c #4380AE",
"$. c #4B82AA",
"%. c #4982AC",
"&. c #4B84AE",
"*. c #4482B1",
"=. c #4583B2",
"-. c #4784B2",
";. c #4B87B2",
":. c #4C87B3",
">. c #4887B5",
",. c #4C88B3",
"<. c #4B89B6",
"1. c #4F8CB7",
"2. c #4B8AB8",
"3. c #4D8CB9",
"4. c #4D8DBB",
"5. c #518CB7",
"6. c #508DB9",
"7. c #518FBC",
"8. c #4F90BE",
"9. c #5190BC",
"0. c #5191BE",
"q. c #5595C3",
"w. c #5393C1",
"e. c #5798C6",
"r. c #5899C6",
"t. c #5699C8",
"y. c #5A9DCB",
"u. c #609FC9",
"i. c #5DA0CD",
"p. c #62A3CD",
"a. c #64A6D0",
"s. c #67A8D2",
"d. c #68A9D2",
"f. c None",
"g. c black",
"h. c black",
"j. c black",
"k. c black",
"l. c black",
"z. c black",
"x. c black",
"c. c black",
"v. c black",
"b. c black",
"n. c black",
"m. c black",
"M. c black",
"N. c black",
"B. c black",
"V. c black",
"C. c black",
"Z. c black",
"A. c black",
"S. c black",
"D. c black",
"F. c black",
"G. c black",
"H. c black",
"J. c black",
"K. c black",
"L. c black",
"P. c black",
"I. c black",
"U. c black",
"Y. c black",
"T. c black",
"R. c black",
"E. c black",
"W. c black",
"Q. c black",
"!. c black",
"~. c black",
"^. c black",
"/. c black",
"(. c black",
"). c black",
"_. c black",
"`. c black",
"'. c black",
"]. c black",
"[. c black",
"{. c black",
"}. c black",
"|. c black",
" X c black",
".X c black",
"XX c black",
"oX c black",
"OX c black",
"+X c black",
"@X c black",
"#X c black",
"$X c black",
"%X c black",
"&X c black",
"*X c black",
"=X c black",
"-X c black",
";X c black",
":X c black",
">X c black",
",X c black",
"<X c black",
"1X c black",
"2X c black",
"3X c black",
"4X c black",
"5X c black",
"6X c black",
"7X c black",
"8X c black",
"9X c black",
"0X c black",
"qX c black",
"wX c black",
"eX c black",
"rX c black",
"tX c black",
"yX c black",
"uX c black",
"iX c black",
"pX c black",
"aX c black",
"sX c black",
"dX c black",
"fX c black",
"gX c black",
"hX c black",
"jX c black",
"kX c black",
"lX c black",
"zX c black",
"xX c black",
"cX c black",
"vX c black",
"bX c black",
"nX c black",
"mX c black",
"MX c black",
"NX c black",
"BX c black",
"VX c black",
"CX c black",
"ZX c black",
"AX c black",
"SX c black",
"DX c black",
"FX c black",
"GX c black",
"HX c black",
"JX c black",
"KX c black",
"LX c black",
"PX c black",
"IX c black",
"UX c black",
/* pixels */
"f.f.f.f.f.f.f.f.f.f.f.f.f.f.f.f.f.f.f.f.f.f.f.f.f.f.f.f.f.f.f.f.f.f.f.f.f.f.f.f.f.f.f.f.f.f.f.f.f.f.f.f.f.f.f.f.f.f.f.",
"f.f.f.f.f.f.f.f.f.f.f.f.f.f.f.f.f.f.f.f.f.f.f.f.f.f.n b b b b b f.f.f.f.f.f.f.f.f.f.f.f.f.f.f.f.f.f.f.f.f.f.f.f.f.f.f.",
"f.f.f.f.f.f.f.f.f.f.f.f.f.f.f.f.f.f.f.f.f.f.f.c b n Y Q C R Q Q m b c c f.f.f.f.f.f.f.f.f.f.f.f.f.f.f.f.f.f.f.f.f.f.f.",
"f.f.f.f.f.f.f.f.f.f.f.f.f.f.f.f.f.f.f.f.f.m m n A ^ / ) A ^ ) ( ^ E m n m n f.f.f.f.f.f.f.f.f.f.f.f.f.f.f.f.f.f.f.f.f.",
"f.f.f.f.f.f.f.f.f.f.f.f.f.f.f.f.f.f.f.c C ^ ^ ^ / o.#.o.A $.>.#.#.( ^ ^ ^ Y b c f.f.f.f.f.f.f.f.f.f.f.f.f.f.f.f.f.f.f.",
"f.f.f.f.f.f.f.f.f.f.f.f.f.f.f.f.f.f.c C ^ ) =.=.=.<.0.q.T ..0.7.4.=.=.=.o.( Y n c f.f.f.f.f.f.f.f.f.f.f.f.f.f.f.f.f.f.",
"f.f.f.f.f.f.f.f.f.f.f.f.f.f.f.f.c m m ^ =.>.6.6.6.} Q $.S A Q Q ^ 1.6.6.<.-.X.Z C M c f.f.f.f.f.f.f.f.f.f.f.f.f.f.f.f.",
"f.f.f.f.f.f.f.f.f.f.f.f.f.f.c B A Q C } 4.&.Q Q Q E Y R C n A Y R Q Q Q { 1.<.A  .W C b f.f.f.f.f.f.f.f.f.f.f.f.f.f.f.",
"f.f.f.f.f.f.f.f.f.f.f.f.f.C A Q ) =.` ' Q W W R Y A C C A N C Z A Y R W W W ' ` 5.=./ U A b f.f.f.f.f.f.f.f.f.f.f.f.f.",
"f.f.f.f.f.f.f.f.f.f.f.c m Q ) ) -.:.$.A A Y Y A C C C C C n C Z C C A Y Y A C ' :.<.X.) / A c f.f.f.f.f.f.f.f.f.f.f.f.",
"f.f.f.f.f.f.f.f.f.f.c m Q ) =.4.;.! E U V V C C C C V m m b n V C C C C V m Z R W } 3.2.X./ A c f.f.f.f.f.f.f.f.f.f.f.",
"f.f.f.f.f.f.f.f.f.c m Q ) =.;.} ! Y A Z C N V C n n b h - - 9 c n n V V m C C A U E [ $.<.X./ A c f.f.f.f.f.f.f.f.f.f.",
"f.f.f.f.f.f.f.f.f.m Q ) =.;.~ E Y Z C n n b c z = = - * + + + = = = q b b n n V C A R Q } <.X./ A c f.f.f.f.f.f.f.f.f.",
"f.f.f.f.f.f.f.f.m Q ) =.;.~ Y A A C b 9 = = = * @ @ @ @ : , % @ @ @ @ = = = = k C C A A W } <.) / A f.f.f.f.f.f.f.f.f.",
"f.f.f.f.f.f.f.c C / =.,.! E U C V c 9 @ : % : % 2 2 3 3 3 3 3 3 3 2 : % : % % * j V C A R W } <.) Y b f.f.f.f.f.f.f.f.",
"f.f.f.f.f.f.c M [ -.,.! Y A Z n 9 * $ 2 3 3 e 2 , 7 e e e e e e e 3 : 7 7 3 3 : * = z C A A W } >.@.S c f.f.f.f.f.f.f.",
"f.f.f.f.f.f.m m Z $.Q U Y C b 9 % : 2 6 6 7 e 3 : , X O O O O X @ 3 : e e 7 7 3 , : < z C A Y R ^ Y N m n f.f.f.f.f.f.",
"f.f.f.f.f.C Q ^ A C E Y Z n 9 : 7 2 2 7 e 3 X X X X . . . . . . . X X X : 7 7 3 : 7 2 < z C A W A V Q / A n f.f.f.f.f.",
"f.f.f.f.b W ) -.$.Z U Y n 9 @ 2 7 , @ X X X . . . . . . . . . . . . . . . X X O : 3 3 % * x A Y C _ <.X./ V f.f.f.f.f.",
"f.f.f.f.C Q ) 0.~ A N n q @ , 7 3 + . . . . . . . . . . . . . . . . . . . . . . X , 7 3 % = c N C R 1.>.( U n f.f.f.f.",
"f.f.f.c E ^ @.;.Q Z C h + , 7 3 ; X . . . . . . . . . . . . . . . . . . . . . . . . , 7 3 % = n C Y } <.o./ V f.f.f.f.",
"f.f.f.c Y Q 6.^ R C b - @ 7 3 : 1 +   . . . . . . . . . . . . . . . . . . . . . . > $ , 7 , & k V Y R ,.-./ V f.f.f.f.",
"f.] c c A R 1.^ U C j + % 7 % > t $ X . . . . . . . . . . . . . . . . . . . . . $ y 1 O 6 , O - m A Y ,.-./ N c A r.f.",
"y.6.~ C C A ,.^ A C j + % , @ > w ; O o . . . . . . . . . . . . . . . . . . X X @ y F @ , : @ - m C Y 1.-.R m R $.y.f.",
"T Q ;.} C C ,.^ Y C j ; e , , w 1 # + O X . . . . . . . . . . . . . . . . X O O o ; y w ; 7 , 9 N A E 1.@.C Q 1.' T f.",
"c C ! ;.T C ,.^ A C j $ e , $ > 1 ; + O X . . . . . . . . . . . . . . . . X O + ; + # 4 > e , - N A R 1.! V %.{ Y b f.",
"c A Q Q R V +.Q C V j @ 3 : O w t ; + O X . . . . . . . . . . . . . . . . X O + 1 + O > , 6 : - m C U %.S A Q W R b f.",
"f.n m V V B Z C V N j @ 7 , O y t ; + O X . . . . . . . . . . . . . . . . X O O d w # 4 1 e : 9 b n m C V V V C V b f.",
"f.c C R Q ! Q Q ! E k @ 7 , O w w ; + O X . . . . . . . . . . . . . . . . O X # d y t a 5 e : - m C A Y Q ^ ^ ^ Q f.f.",
"f.c C Y Y A C C C C j + 3 % O w t 1 +   . . . . . . . . . . . . . . . . .     w 1 1 t r 1 3 : - n C C C C Y Y A m f.f.",
"f.f.b b n n n n b n j + : % O > 5 > o X . . . . . . . . . . . . . . . . .     + O 1 $ 4 1 , @ - b b b n n n b b b f.f.",
"f.f.f.c V C C C n V j + : % o ; t w ; @ O . . . . . . . . . . . . . . . . X + 6 y w + 5 1 , @ - N m V C C A n f.f.f.f.",
"f.f.f.c C U A C n V j + , % X y K t 1 ; + X . . . . . . . . . . . . . . . + @ J L F 1 8 1 2 % - N m V A U Y n f.f.f.f.",
"f.f.f.c A W Y A n V j + : @ o G K D w > $ + . . . . . . . . . . . . . . X + ; G K P d r , : % - N m C R Q ] V f.f.f.f.",
"f.f.f.c Y Q Q [ C A j @ 3 % O G P G w 1 ; + . . . . . . . . . . . . . . X + 1 G P I d r 1 3 , - C V A W ^ 6.C f.f.f.f.",
"f.f.f.c E / ! 1.Z U j ; u 2 O y K K w , ; + . . . . . . . . . . . . . . X + w D K G 1 4 1 i , - C C A W ( 6.C f.f.f.f.",
"f.f.f.c E ) ^ 1.C C j + 3 , O w K P w 1 ; + . . . . . . . . . . . . . . + $ w D K y # > 1 e @ - V V Y Q / 4.C f.f.f.f.",
"f.f.f.c E ) ( 1.C V j + 7 , 1 y G P w 1 ; + . . . . . . . . . . . . . X + ; t F K y # > 5 e : - N m R ( ) O.V f.f.f.f.",
"f.f.f.c U / ) O.V V j @ 7 , w w F L w 1 ; + . . . . . . . . . . . . . o + 1 D F K y + > 1 e : - N m R ) ) / V f.f.f.f.",
"f.f.f.c A / ^ ^ V V j + , % g G F G w 1 ; + . . . . . . . . . . . . . X + 1 D F F t y G , 2 @ - N m R ^ / / B f.f.f.f.",
"f.f.f.c A / Q ^ B V j @ 3 % t D y F y 6 > + . . . . . . . . . . . . . X + ; t p D w y F , 3 : - m m R ! / / V f.f.f.f.",
"f.f.f.c A / ^ ! m V j @ e , , w y y 1 ; ; + . . . . . . . . . . . . . X + $ , 1 t w D D 1 e : - m m Y ^ / / V f.f.f.f.",
"f.f.f.c A / @.Q m C j + 3 : ; w t 1 . X o X . . . . . . . . . . . . . X + X X 1 t D K F 1 6 % - V V A / ) / B f.f.f.f.",
"f.f.f.c A / 0.! B U k + 2 @ + 1 t 1 + O + . . . . . . . . . . . . . . . X + O 1 t D D f 1 2 : - C C A / ) / B f.f.f.f.",
"f.f.f.c A / 0.! V U k ; i 2 + 1 D y 1 ; @ X . . . . . . . . . . . . . . + @ > t F G F f 5 i 3 - C C A / ) / B f.f.f.f.",
"f.f.f.c A / w.! B U k @ e 2 + 6 G G t ; @ + . . . . . . . . . . . . . X + ; 1 y K G t s 5 e : - C C A / ) / B f.f.f.f.",
"f.f.f.c A / -.Q m Z j @ 3 : + w K G t 1 ; + . . . . . . . . . . . . . X + ; w F P y ; s 1 7 : - V V A / ) / V f.f.f.f.",
"f.f.f.c A / W A n V j @ 7 : + > t D y 1 ; + . . . . . . . . . . . . . X @ ; 1 y F w ; 8 1 7 : - N m C Y / / V f.f.f.f.",
"f.f.f.c Y / Y A m C j @ 7 2 + ; w y w 1 $ X . . . . . . . . . . . . . . + @ ; w w > > 5 1 e : - N m C A ^ / V f.f.f.f.",
"f.f.f.c U Q A Z m A k @ 7 , O $ ; > 1 1 @ . . . . . . . . . . . . . . . X @ 1 w t $ ; 4 1 e : - C C V A R Q m f.f.f.f.",
"f.f.c c A A C V b n j @ 3 : + ; + , 1 1 @ X . . . . . . . . . . . . . . X @ w d y > > 5 1 3 : 9 n b m C Z U n c f.f.f.",
"f.f.c n B B m m n Z v $ 3 % O ; # 1 1 1 @ X . . . . . . . . . . . . . . X ; t y t 5 4 5 1 3 : q A C m m m V m n b f.f.",
"f.f.c R X.X.X.O.W X.Y @ 3 % o # # + # 1 + . . . . . . . . . . . . . . . O 1 1 1 ; > > r 1 3 % x o.X.X.X.X.X.X.^ n f.f.",
"f.f.c _ 0.w.w.7.6.0._ + : % o # # o + ; o . . . . . . . . . . . . . . . X 1 1 # + ; > r 1 , @ x 1.6.6.6.6.6.6...M f.f.",
"f.f.A C U E Q Y U Y n + : @ o # # O + + X . . . . . . . . . . . . . . .   ; 1 ; # > > 5 , : @ 0 C A U U U U A V c f.f.",
"f.' } A A C Z A A A b + : @ o + # o + + X . . . . . . . . . . . . . . .   + $ $ # ; ; 1 , , @ q A A A A A A A A T f.f.",
") w.w.2.2.&.<.2.2.4.W ; e 2 o + # + + X . . . . . . . . . . . . . . . . . . X + # $ $ > 5 e : x 2.2.2.2.2.2.2.4.t.o.) ",
") ] [ %.%.<.4.4.4.4.W @ e 2 O # # # + X . . . . . . . . . . . . . . . . . . o + + # $ 5 5 e : x %.<.4.4.4.3.;.;.' ( ) ",
">.R C W Q ( ( ^ ! ^ C @ 7 2 + # # # # X . . . . . . . . . . . . . . . . . . o # 1 # # r 5 e : h W Q / ^ ! Q Q E C X.4.",
"8.R C W Q ! ! Q R U b @ 7 2 o > > # # X . . . . . . . . . . . . . . . . . . o # > 5 5 r 5 e : h A Y Q Q W W W Y C @.y.",
"8.R C E R R R A A C c + , : + 4 > # # X . . . . . . . . . . . . . . . . . . o # # 5 g H 1 3 @ q C Z A Y E E E Y C @.y.",
"0.E m V V V V m m m z + : % 4 r ; # # o . . . . . . . . . . . . . . . . . . o # # 1 s s , , @ 9 m m m V V V V B C -.y.",
"y.<.^ ^ ^ ^ ^ ^ ^ / A + : % , 5 > # + o X . . . . . . . . . . . . . . . . X o # $ 1 r 8 ; , @ k / ^ ^ ^ ^ ^ ^ ^ X.e.y.",
"w.q.w.w.w.w.w.w.w.w.` + : @ $ > o o o O . . . . . . . . . . . . . . . . . X O + + # > 5 ; , + c 0.w.w.w.w.w.0.0.w.q.9.",
"U X.X.X.X.X.X.O.( ^ C + % O ; > + O O X . . . . . . . . . . . . . . . . . X O O O r s 5 ; % + j Q ^ O.X.X.X.^ ! ^ Q N ",
"C Q ( ) ) ) / Q W E B + @ X # # O X . . .                                     .   + # + + @ O h E E Q ^ ( ( ( / Q U c ",
"C W ! / / / Q W Y A m * = = = = = = = = = = = = = = = = = = = = = = = = = = = = = = = = = = * j A A R W ^ Q ^ ^ Q A c ",
"C W R Y Y Y Y Y A Z m l n N C m n n n b n n n m V n n n n n n n n n n n n n b b n n n n n n c c Z C A Y Y Y Y Y W U c ",
"m A C N N N N N N N n n A E ^ R U U A n C A A R Q U U U U U U U U U U U U A n V A U U U A C V b N N N N N N N V Z C c ",
"b m m C Z C C C C C C A E / ) / ^ ^ ! C C Y ^ / / ^ ^ ^ ^ ^ ^ ^ ^ ^ ^ ^ Q R C A E ^ ^ ^ W Y A C N C Z Z Z Z Z A Z C c ",
"n A Y Q ^ ^ ^ ^ ^ ^ ^ ^ / ) ( ) ) ) ( U Y ^ #.4.4.4.4.4.*.) 3.4.4.4.8.<.( Q A Y Q / ) ( ^ ^ ^ E Y R W W W W W W Q U b ",
"V R | 0.w.w.w.0.o.#.0.w.w.0.0.0.0.*.( Y ^ ) -.y.y.y.y.y.q.w.y.y.y.y.y.r.w.=.Y Y ^ 3.w.0.w.w.0.5.%./ / / / / / ^ Q U b ",
"C Q 1.y.y.y.y.a.u.q.i.a.y.y.y.y.y.q.X.Y / #.w.r.r.r.y.y.y.y.y.y.y.s.d.d.a.e.{ Q 3.r.y.y.i.a.y.p.p.u.u.r.w.w.0.X.( W c ",
"A / <.e.e.e.r.y.y.r.r.r.e.e.r.r.e.e.X.Q / ) @.@.@.#.4.e.e.e.e.e.r.y.y.y.r.r.} ^ o.@.#.=.q.y.p.r.y.y.y.r.r.r.e.0.0.[ n ",
"R Q ! ^ ^ ^ ^ ^ ^ ^ ^ ^ ^ ^ ^ ^ ^ ^ Q Q Q Q Q Q Q Q ! ^ ^ ^ ^ ^ ^ ^ ^ ^ ^ ^ Q Q Q Q Q Q ^ ' ' ^ ^ ^ ^ ^ ^ ^ ^ ' ' Q Y "
};
