/* XPM */
static char *ZXpnaWYuY29tLWdpZi1tYWtlci0z_1[] = {
/* columns rows colors chars-per-pixel */
"59 75 256 2 ",
"   c None",
".  c #080C06",
"X  c #0B0F09",
"o  c #0D110B",
"O  c #11140F",
"+  c #131512",
"@  c #1B1715",
"#  c #161A16",
"$  c #191B17",
"%  c #1B1D1A",
"&  c #221E1B",
"*  c #1E221D",
"=  c #22221E",
"-  c #28231F",
";  c #1C1F21",
":  c #1D2125",
">  c #1E252C",
",  c #1F282F",
"<  c #1F2A33",
"1  c #222521",
"2  c #2B2522",
"3  c #252A24",
"4  c #2B2B26",
"5  c #21272E",
"6  c #2A2E2A",
"7  c #312A27",
"8  c #342D2A",
"9  c #2C322B",
"0  c #34322E",
"q  c #38312E",
"w  c #31392F",
"e  c #222C34",
"r  c #23303B",
"t  c #343533",
"y  c #3B3431",
"u  c #343C33",
"i  c #383A37",
"p  c #3B3C3A",
"a  c #374235",
"s  c #394236",
"d  c #3D443B",
"f  c #3E4A3C",
"g  c #40453F",
"h  c #414D3E",
"j  c #42503F",
"k  c #243543",
"l  c #253748",
"z  c #273B4D",
"x  c #263C51",
"c  c #283D50",
"v  c #2C455D",
"b  c #2D4760",
"n  c #2E4A64",
"m  c #2F4E69",
"M  c #304F6A",
"N  c #2F506C",
"B  c #30516D",
"V  c #325573",
"C  c #335877",
"Z  c #345B7B",
"A  c #385F7F",
"S  c #39607F",
"D  c #434443",
"F  c #454C43",
"G  c #484E47",
"H  c #4B4C4B",
"J  c #445242",
"K  c #485846",
"L  c #4E514E",
"P  c #50554E",
"I  c #545554",
"U  c #565955",
"Y  c #585957",
"T  c #5B5B5B",
"R  c #605F5F",
"E  c #5E625D",
"W  c #616E5F",
"Q  c #636463",
"!  c #666966",
"~  c gray42",
"^  c #6C786A",
"/  c #70706F",
"(  c #727372",
")  c #777877",
"_  c #7C7C7C",
"`  c #365F80",
"'  c #376285",
"]  c #3B6485",
"[  c #376489",
"{  c #38668B",
"}  c #37688E",
"|  c #39698E",
" . c #3A6C94",
".. c #3B6F98",
"X. c #3E7097",
"o. c #3D729C",
"O. c #3D76A1",
"+. c #3E79A6",
"@. c #3E7AA8",
"#. c #406D8E",
"$. c #416F91",
"%. c #437296",
"&. c #437295",
"*. c #40739B",
"=. c #42769E",
"-. c #42749B",
";. c #45799F",
":. c #4377A0",
">. c #457BA4",
",. c #487EA5",
"<. c #417FAD",
"1. c #427DAA",
"2. c #487FA9",
"3. c #4380AF",
"4. c #4480AE",
"5. c #4B85AF",
"6. c #4982AB",
"7. c #4683B0",
"8. c #4785B3",
"9. c #4A86B2",
"0. c #4B88B5",
"q. c #4D89B5",
"w. c #4C88B4",
"e. c #4B8BB9",
"r. c #4D8BB8",
"t. c #4D8CBA",
"y. c #508BB5",
"u. c #508DB9",
"i. c #4F90BE",
"p. c #5291BE",
"a. c #5394C2",
"s. c #5798C6",
"d. c #599AC7",
"f. c #5799C8",
"g. c #5B9DCB",
"h. c #5DA1CE",
"j. c #62A1CA",
"k. c #64A6D1",
"l. c #68A9D2",
"z. c #848484",
"x. c #878888",
"c. c #8A8B8B",
"v. c gray58",
"b. c gray61",
"n. c gray64",
"m. c gray68",
"M. c #B2B2B2",
"N. c #BCBCBC",
"B. c gray77",
"V. c #CBCBCB",
"C. c gray86",
"Z. c #D2D2D2",
"A. c #E7E7E7",
"S. c #090D07",
"D. c #0E120C",
"F. c #191A17",
"G. c #1E211D",
"H. c #1D2126",
"J. c #21272D",
"K. c #293026",
"L. c #2F392E",
"P. c #34312D",
"I. c #303A2F",
"U. c #212C34",
"Y. c #232F38",
"T. c #333432",
"R. c #383B37",
"E. c #3A3C3A",
"W. c #364235",
"Q. c #384236",
"!. c #2B455D",
"~. c #2E4B64",
"^. c #434442",
"/. c #454B44",
"(. c #4C4D4B",
"). c #4E514D",
"_. c #50504F",
"`. c #535453",
"'. c #555954",
"]. c gray36",
"[. c #5E635D",
"{. c #60645F",
"}. c #646464",
"|. c #6C6C6B",
" X c #6F706E",
".X c #706F70",
"XX c gray45",
"oX c #3A6484",
"OX c #3D729B",
"+X c #447397",
"@X c #40739A",
"#X c #41749C",
"$X c #42769D",
"%X c #427FAD",
"&X c #4B8AB9",
"*X c #5394C1",
"=X c #61A1CA",
"-X c #8B8B8B",
";X c #ACACAC",
":X c gray74",
">X c gray80",
",X c LightGray",
"<X c black",
"1X c black",
"2X c black",
"3X c black",
"4X c black",
"5X c black",
"6X c black",
"7X c black",
"8X c black",
"9X c black",
"0X c black",
"qX c black",
"wX c black",
"eX c black",
"rX c black",
"tX c black",
"yX c black",
"uX c black",
"iX c black",
"pX c black",
"aX c black",
"sX c black",
"dX c black",
"fX c black",
"gX c black",
"hX c black",
"jX c black",
"kX c black",
"lX c black",
"zX c black",
"xX c black",
"cX c black",
"vX c black",
"bX c black",
"nX c black",
"mX c black",
"MX c black",
"NX c black",
"BX c black",
"VX c black",
"CX c black",
"ZX c black",
"AX c black",
"SX c black",
"DX c black",
"FX c black",
"GX c black",
"HX c black",
"JX c black",
"KX c black",
"LX c black",
"PX c black",
"IX c black",
"UX c black",
/* pixels */
"                                                                                                                      ",
"                                                      ~.~.~.~.~.                                                      ",
"                                              !.b ~.Z  .Z Z  . .C ~.!.!.                                              ",
"                                          m m ~.V  .OX@.[ { %X@.OX .B m m m                                           ",
"                                      !.m  .OXOXO.@.3.3.[ &.&X3.3.@.O.OXOX .m !.                                      ",
"                                    !.m  .@.3.7.7.9.u.*X&.$.p.u.u.8.7.7.3.+.| m !.                                    ",
"                                !.m m { 3.8.t.u.u.5. .>.#.V |  . .9.u.u.r.8.3.[ B B !.                                ",
"                            !.m C } Z  .r.q. . . .| [ [ Z m C [ [ |  . .X.q.r.| $.-.C ~.                              ",
"                          m Z { +.3.$X+X .| | | [ ` C C Z B B C C ` [ | | |  .&.6.&X+.[ Z m                           ",
"                      !.~.[ +.@.3.0.5.[ C ` ' ` C C C C C m B C C C C ` ' ` C | 9.0.3.@.+.[ ~.                        ",
"                    !.~.[ +.3.t.0.#X| [ V m V C C C V m m ~.~.m V C C C V m V [ | $Xq.t.%X+.[ ~.                      ",
"                  !.~.[ +.3.q.2.#X[ Z C C B M V m m ~.z < < < c ~.m m V m B C C Z [ $X2.q.%X+.[ ~.                    ",
"                  ~.[ +.%Xq.$X| [ C C M ~.~.!.!.< > > H.% % % H.> > U.!.!.~.~.B C C [ | :.q.%X+.[ ~.                  ",
"                ~.{ +.%Xq.$X[ Z C C m r H.H.> H.& & & & 2 7 2 & & & & H.> H.H.k B C C Z [ :.r.%X+.[ b                 ",
"              !.m ..%Xq.$X| [ C V m r & 2 - 2 - 2 7 7 7 8 8 8 7 8 7 2 - 2 - 2 % k m V C [ | $Xr.%X .m !.              ",
"            !.!.&.7.q.@X[ C C M k H.= 2 8 8 y 8 2 q y y y y y y y 8 2 8 y 8 8 2 1 H.l B C C [ $X0.4.#.!.              ",
"            m m B >.@X` [ C M k 1 2 7 8 q q y 8 2 8 & % = & % & & 8 2 q y q q 8 7 2 1 l B C [ '  .| B m m             ",
"          B { O.' B [ [ C M k 1 q 8 2 8 q q - % F.= 9 9 f L.3 I.L.= % & 2 q q 8 2 8 8 1 l B C [ ' M ' O.{ m           ",
"          ` @.3.9.A Z [ V k % 2 q 8 - F.F.% u u L.9 9 T.h 9 = 9 9 u u u R.= % F.- 8 8 2 % l C [ C ' 9.3.+.Z           ",
"        B { +.t.>.[ B M z % 2 8 q - + % 9 /.`.h 9 1 + + % F.+ + + L.I./.'.G 9 F.+ 2 q 8 2 ; c M B [ >.t.@.{ N         ",
"        Z OX>.q.X.C C !.% 2 8 q - F.= T.'._ ].u # # # # % # + # # + # Q.! _ (.4 = F.2 q 8 2 ; !.C Z $Xq.3.+.Z         ",
"        Z  .9.>.| C m r % 8 q - F.4 (.}.XX|.E.# % G.G.G.= % F.G.G.% + F.^.XXXX[.G 3 F.2 q 8 % k M Z { ,.t.+.Z         ",
"  y.~.!.V [ 6.>.' C !.% & 8 7 F.4 T.! z.XX`.% F.G.G.G.G.1 G.F.1 3 3 % + 1 ].XXz.{.T.3 F.7 8 % ; !.C ` ,.t.+.Z !.M u.  ",
"  *X$XZ B C ,.>.Z C !.; & 2 2 = T.^.! |.^.6 G.G.3 3 1 G.1 G.F.= 1 1 G.F.F.9 (.XX}.d L.% 2 2 & H.~.C Z 6.t. .B Z ;.s.  ",
"  { 6.9.Z B ,.>.[ C !.H.8 8 = 6 u /.].E.# + # G.1 1 1 G.1 G.% G.G.G.G.G.+ + % ^.]./.L.% % q 8 H.!.C [ 6.&XZ ` 9.2.{   ",
"  m  .6.@Xm ,.>.` C !.H.q q G.L.u 9 1 # F.6 F.G.1 3 3 3 4 G.G.4 3 = G.% % 6 + # 4 T.u 6 % y 8 H.!.C ' 6.>.B ;.2.| ~.  ",
"  B  .| | B &.$XZ V !.; 7 7 1 u 9 % % % `.(.% # G.1 1 1 3 G.% = 1 = G.# 1 `.(.+ # 9 u T.G.7 7 H.!.V C >.$.V | |  .m   ",
"  ~.m B B N V V B N !.; 8 8 1 u 9 G.% 1 |.XXE.F.1 3 3 = 3 % % G.3 3 1 % ^._ ].# F.9 Q.u = q 7 H.!.~.m V B B V V V ~.  ",
"    m [  .OX . . . .~.; 8 8 1 Q.L.G.# d |.! 1 G.+ # 3 3 4 G.G.3 1 # + G.6 XX|.E.# = h f = q 7 H.!.V C [ | OXOXOX .    ",
"    m ' [ Z V C C V !.; 2 2 1 h f G.# E.].6 E.|.G.D.D.# 1 % % # D.X 1 |.P.T.R T.F.G.f f G.2 2 H.!.B V V V Z [ [ B     ",
"    b ~.~.m ~.~.~.~.!.% - 2 = J f % + # T.4 _ -X(.% + X X D.D.X + % `.-X|.1 T.+ + G.u Q.G.2 - H.!.~.~.~.~.m ~.~.b     ",
"        m C C C m B !.% - 2 1 f Q.# 6 3 + 6 |.b.b.|.`.T.R.T.# T.`.|.v.v.].1 X 3 6 % J h G.2 & H.~.B m C C C m         ",
"        B ` C C m B !.; 2 2 1 u 9 # }. X1 R.|.v.:XB.M.b.n.|.E.v.;XB.n.z.`.6 4 _ ].# J f G.2 2 H.~.B m C ` [ B         ",
"        V | [ ` m B !.; 2 - 1 u 9 # `.-X}.3 ].z.n.:X>X,XC.|.|.:X>X:Xv.XX].6 v.;X(.# J h % 2 2 H.~.B B [ | $XZ         ",
"        Z  .| >.Z C !.; 8 2 1 f W.% 3 XXv.XX_ -Xv.n.>X,X,X|.! :XB.b.z._ -X_ M.XX1 % J h G.7 7 H.~.C V |  .r.oX        ",
"        Z +. .w.oXZ b H.q y 1 J f G.# T._ b.v.-Xz.v.M.B.>X|.].n.n.-Xz.-Xv.b.XX6 + G.u Q.= y 8 H.m Z V | X.t.oX        ",
"        Z @.OXw.oXV !.; 2 q 1 /.f G.% % `.z.-X-X-Xz.-Xb.;X! `.-X-Xz.-Xz.-Xz.^.+ G.3 I.L.G.y 2 H.~.V C  .X.t.oX        ",
"        Z @.+.t.' B !.; 7 q 1 h W ^.G.# 1 ].z.v.v.-Xz.z.n.}.`.z.z.-Xv.v.-X|.% # G.(.).9 3 y 2 H.~.B Z +.+.%XZ         ",
"        C OX+.1.C B !.; 8 q 1 h ^ `.% + % [.v.b.b.b.-X-Xn.}.`.z.-Xb.n.b.v.].+ + G.].'.9 = y 7 H.~.B Z +.+.+.Z         ",
"        V OXOXOXC B !.; 2 2 1 /.[.|.R.+ ^.! -Xb.n.:X:X;Xn.}.`.v.:X>X:Xn.-X].T.O /.|./.9 % 2 - H.~.B Z OXOX@.Z         ",
"        V X.OXOXC B !.; 7 2 1 J '.`.P.O (.].! z.-X-Xn.B.:X}.].M.:X;Xv.z.}.].d X R.].g 9 % 7 2 H.~.B Z OXX.@.Z         ",
"        V X.OXOXC B !.; 8 q 1 J Q.E.9 G.].! (.T.6 6 (.z.n.].`.v.`.9 6 T.`.|.`.+ T.d L.L.% y 8 H.~.B Z OXOX@.C         ",
"        V OX3.OXB V !.; 2 7 1 J W.9 4 d |.z.`.3 D.X D.T._ _.^.T.D.X D.6 ].-X|.R.6 6 L.Q.G.8 2 H.~.V V OX@.@.C         ",
"        V OXt.>.B Z ~.; 2 2 1 f I.G.F.^.XXv.v.(.D.X G.(.XX(.E.G % S.O ].n.v.|.E.% G.f h G.2 2 H.m Z V OX@.@.C         ",
"        V OXt.>.B Z ~.H.y y 1 u 3 G.% ^..X-Xb.-X`.(.].XX-X`./.XX].).|.;X:Xz.|.E.% G.f h = y q H.m Z V OX@.@.Z         ",
"        V OXt.>.B Z ~.; 8 q 1 d L.G.1 9 ].XXz.z.-X-X_ -X:X}.]._ _ -Xb.n.v.XX`.6 1 G.f h = y 8 H.m Z V OX@.@.Z         ",
"        V OX7.$XB C !.; 8 8 1 J W.G.9 G./.! |.XX|.|._ n.n.^.].-XXX! |.|.|.}.E.# 9 G.f h G.8 7 H.~.V V OX@.@.Z         ",
"        V X. .` m B !.; 8 8 1 J W.G.9 % = P.'.}.}.|.z._ `.P.6 _ _ |.}.}.`.6 % F.9 G.I.Q.= 8 7 H.b B M ` ..@.Z         ",
"        Z +.[ Z B B !.; 8 y 1 /.W.G.9 1 G.+ 4 /.d |._ [.T.T.+ |._ |.E.^.1 + G.1 9 G.4 u = y 8 H.~.B B Z | +.C         ",
"        C  .' C m Z !.; 8 q G.u 9 G.3 1 4 1 + F.4 |._ XX`.T.T._ _ |.1 # + 1 4 1 1 % 4 u = y 8 H.~.C m C [  .V         ",
"      !.B ` C V ~.m !.; 7 2 % L.3 G.9 1 4 4 + D.T.|.XXXX_ (.^.XXXX|.6 D.# 9 9 4 4 % 4 u G.7 7 H.!.~.~.V C ` B !.      ",
"      ~.m B m m ~.V B H.7 2 % L.3 G.9 9 9 6 1 4 |.|.XX.Xz.(.^.|.XX|.|.3 3 9 9 9 6 G.9 u G.2 7 > V C m m m B m m ~.    ",
"      C 1.1.1.1. .:.OX> 2 2 % T.6 F.3 4 4 4 3 3 `.(._ ! z.(.^.! _ ^.`.3 4 4 4 4 1 F.f f G.2 2 Y.:.1.1.1.1.1.1.>.V     ",
"      A u.p.*Xp.u.u.6.> - 2 % d W.# = 1 1 1 3 # + T.XX! XX(.^.|.|.4 O # 4 1 1 1 1 % Q.f G.2 & Y.6.u.u.u.u.u.u.w.V     ",
"    { M Z [  .[ ` ` C H.- 2 % Q.u # 1 4 6 9 9 3 # = }.z._ (.E.z.].% + 4 9 9 4 3 3 % 6 u G.2 & H.B C ` ` ` ` ` V ~.    ",
"  oXw.Z Z C C Z Z Z V H.2 2 = T.3 F.G.G.1 4 6 4 1 d z. Xz.(.^.|.z.T.1 4 6 3 1 G.G.# K.u G.2 - > C Z Z Z Z Z Z Z '     ",
"  0.s.&X&X9.9.&X0.&X>.J.8 q 1 d L.# G.G.G.G.1 = 1 ^.! 6 [.^.6 6 |.E.= = 1 G.G.G.G.# 4 u = y 7 r 6.&X&X&X&X&X&Xr.s.8.  ",
"@.+.-.6.6.9.t.t.t.t.2.J.8 q 1 J W.# G.% # G.G.G.G.L.E.G.d I.% % E.6 G.G.G.# % G.G.# u d = y 7 Y.,.9.r.t.t.t.9.0.$X+.@.",
"r.OXB [  .O.@.OX....{ > 8 q 1 J W.# % L.W.3 1 3 1 % # 1 J I.3 = # 1 3 1 4 Q.9 # % # f h = y 8 U.[  .OXO..... . .V OXt.",
"s.X.B |  ..... .| ' V H.8 q 1 /.W.+ L.h W.1 1 1 1 G.% 1 J I.3 = % 1 1 1 1 W.h 9 # # f h = y 7 , C '  . .| | | [ B O.f.",
"s.X.B [ [ [ [ ` C C M H.2 2 G.u 9 9 J W.1 G.G.G.G.G.% 1 J I.3 = % G.G.G.G.1 Q.h J 9 f f G.7 - > B C C ' | | | [ B OXs.",
"s.OXm B B B B m m m ~.; - 2 % L.f J Q.6 G.G.G.G.9 W.G.4 J I.3 3 G.W.4 G.G.= 9 Q.f u Q.T.% 2 & H.~.m m m B V B B m :.s.",
"g.p.O.OXOXOXOXOXOXO. .H.- 2 % L.Q.Q.T.G.# 1 3 3 1 L.K h J I.3 h J 4 % 1 3 G.G.T.u u u 9 % 2 & < X.O.OXOXO.O.OXOX:.*Xg.",
"p.s.*X*X*X*X*X*X*X*X5.> & 2 % 9 L.u 9 % % G.G.G.G.4 Q.Q.J I.3 W.Q.1 G.G.G.G.G.9 T.T.u 9 % 2 & r q.*X*X*X*X*Xp.p.p.s.p.",
"V O.1.1.1.1.1.1.+.X.[ H.& & % 9 9 I.f d h K K K K f 9 9 h I.G.9 T.j K J Q.K K f T.L.9 9 % & & < | X.+.1.1.1.OXX. .X.B ",
"m  .O.@.@.@.+. .| [ ` H.% % F.3 1 3 3 3 3 4 4 4 4 3 1 3 u K.% 3 3 4 4 4 4 4 4 3 3 1 3 3 F.% F.> [ [ |  .+.+.+.+. .[ ~.",
"m [  .O.O.O. .| [ C Z > > > > > > > > > > > > > > > > > , > > > > > > U.U.> > > > > > > > > H.< C C [ | .. .OXO. .[ ~.",
"m [ | [ [ [ [ [ C C V z ~.m V B m m m ~.~.m m m B m m m m m m m m m m m m m ~.~.m m m m m m ~.x V C C [ [ [ [ [ | [ ~.",
"~.C C M M M M M M M m ~.C [ OX .` ` ` M B C Z [  .' ` ` ` ` ` ` ` ` ` ` ` Z B m C ` ` ` ` C V ~.m M M M M M M M C C ~.",
"~.m m B C C C C C C C Z [ OX@.+.OXOXOXZ V ` ..OX+.OXOXOXOXOXOXOXOXOXOXOXOX| C C [  .OXOX .[ ` C M B C C C C C C C C ~.",
"~.C ' | OXOXOXOXOXOXOXOXO.@.@.@.@.@.@.[ ` ..1.t.t.t.t.i.8.@.8.i.t.t.t.t.@.OX[ ` | OX@.@.O.OXOX| [ { | | | | | | | [ ~.",
"~.[ X.t.*Xp.p.p.7.1.t.*X*Xp.*X*X*X8.+.[  .+.%Xs.g.g.g.g.s.p.s.g.g.g.g.g.*X0. .`  .9.*Xp.*X*Xp.u.9.O.O.O.O.O.O.OX .{ ~.",
"m | 4.g.g.g.g.k.=Xs.g.k.g.g.g.g.g.s.8.{ OX@.t.g.g.g.g.g.g.g.g.g.g.k.l.l.k.g.6. .7.s.g.g.g.k.h.h.k.=X=Xd.*X*X*X7.+.X.m ",
"B OX4.s.s.s.s.d.g.d.d.d.d.s.s.s.s.d.9. .OX+.%X4.4.3.0.s.s.s.s.s.s.d.g.g.d.d.w...1.4.4.4.*Xg.=Xd.g.g.g.g.d.d.s.*Xp.w.V ",
"{  . .X.X.X.X.X.X.X.X.X.X.X.X.X.X.X. . . . . . . . . .X.X.X.X.X.X.X.X.X.X.X. . . . . . .X.@X#X@XX.X.X.X.X.X.X.@X@XX.[ "
};
