/* XPM */
static char *ZXpnaWYuY29tLWdpZi1tYWtlci0z_20[] = {
/* columns rows colors chars-per-pixel */
"59 75 256 2 ",
"   c #090D07",
".  c #0B0F09",
"X  c #0E110B",
"o  c #14120F",
"O  c #151210",
"+  c #191614",
"@  c #161915",
"#  c #1A1A16",
"$  c #1C1D1A",
"%  c #211D1A",
"&  c #1E221D",
"*  c #22221E",
"=  c #28231F",
"-  c #1E1F20",
";  c #1E2123",
":  c #1D242B",
">  c #1F282F",
",  c #1F2932",
"<  c #222522",
"1  c #2B2522",
"2  c #252A24",
"3  c #2C2A26",
"4  c #2B2D2A",
"5  c #312A27",
"6  c #342D2A",
"7  c #2A3027",
"8  c #2C322B",
"9  c #2F392E",
"0  c #33332E",
"q  c #39312D",
"w  c #30392F",
"e  c #202C35",
"r  c #212F3B",
"t  c #22303D",
"y  c #333432",
"u  c #3D3532",
"i  c #333B32",
"p  c #393937",
"a  c #3C3B3A",
"s  c #364134",
"d  c #394337",
"f  c #3B4439",
"g  c #3D493B",
"h  c #40453E",
"j  c #414F3F",
"k  c #42503F",
"l  c #263643",
"z  c #273846",
"x  c #253748",
"c  c #283C4E",
"v  c #273E52",
"b  c #283F54",
"n  c #294155",
"m  c #2C465E",
"M  c #2D4760",
"N  c #2E4B64",
"B  c #2F4E69",
"V  c #304F6A",
"C  c #2F506C",
"Z  c #31516E",
"A  c #325573",
"S  c #335877",
"D  c #345B7B",
"F  c #385D7A",
"G  c #444543",
"H  c #454C44",
"J  c #4B4C4B",
"K  c #445341",
"L  c #485946",
"P  c #4E524E",
"I  c #4A5A48",
"U  c gray33",
"Y  c #555B55",
"T  c #5B5B5B",
"R  c #4F614C",
"E  c #5E605D",
"W  c #5D685B",
"Q  c #646464",
"!  c #666A65",
"~  c #686A67",
"^  c #6C6C6C",
"/  c #6F706F",
"(  c #6F7A6E",
")  c gray45",
"_  c #777977",
"`  c gray48",
"'  c #365F80",
"]  c #366185",
"[  c #3A6484",
"{  c #376489",
"}  c #38668B",
"|  c #39698E",
" . c #3A6C93",
".. c #3B6F98",
"X. c #3E7097",
"o. c #3D729C",
"O. c #3D76A2",
"+. c #3E79A6",
"@. c #3E7AA9",
"#. c #427195",
"$. c #41769E",
"%. c #45779C",
"&. c #42759C",
"*. c #47789D",
"=. c #447AA3",
"-. c #4479A2",
";. c #457BA4",
":. c #437AA4",
">. c #487CA2",
",. c #497EA5",
"<. c #407DAB",
"1. c #477FA9",
"2. c #417EAC",
"3. c #4280AE",
"4. c #4581AE",
"5. c #4881AA",
"6. c #4A83AC",
"7. c #4482B0",
"8. c #4684B3",
"9. c #4786B4",
"0. c #4B87B2",
"q. c #4C86B1",
"w. c #4987B4",
"e. c #4B88B3",
"r. c #4A89B6",
"t. c #4C89B5",
"y. c #4E8BB8",
"u. c #4E8DBA",
"i. c #4C8CBA",
"p. c #508CB7",
"a. c #508DB9",
"s. c #518FBC",
"d. c #4F90BE",
"f. c #5191BE",
"g. c #5596C3",
"h. c #5394C2",
"j. c #599AC6",
"k. c #5799C8",
"l. c #5A9DCB",
"z. c #5FA2CE",
"x. c #61A1CB",
"c. c #64A6D1",
"v. c #68A9D2",
"b. c #848484",
"n. c gray54",
"m. c #939393",
"M. c #9B9B9B",
"N. c #A4A4A4",
"B. c #AFAFAF",
"V. c #B1B1B1",
"C. c #C0C0C0",
"Z. c None",
"A. c black",
"S. c black",
"D. c black",
"F. c black",
"G. c black",
"H. c black",
"J. c black",
"K. c black",
"L. c black",
"P. c black",
"I. c black",
"U. c black",
"Y. c black",
"T. c black",
"R. c black",
"E. c black",
"W. c black",
"Q. c black",
"!. c black",
"~. c black",
"^. c black",
"/. c black",
"(. c black",
"). c black",
"_. c black",
"`. c black",
"'. c black",
"]. c black",
"[. c black",
"{. c black",
"}. c black",
"|. c black",
" X c black",
".X c black",
"XX c black",
"oX c black",
"OX c black",
"+X c black",
"@X c black",
"#X c black",
"$X c black",
"%X c black",
"&X c black",
"*X c black",
"=X c black",
"-X c black",
";X c black",
":X c black",
">X c black",
",X c black",
"<X c black",
"1X c black",
"2X c black",
"3X c black",
"4X c black",
"5X c black",
"6X c black",
"7X c black",
"8X c black",
"9X c black",
"0X c black",
"qX c black",
"wX c black",
"eX c black",
"rX c black",
"tX c black",
"yX c black",
"uX c black",
"iX c black",
"pX c black",
"aX c black",
"sX c black",
"dX c black",
"fX c black",
"gX c black",
"hX c black",
"jX c black",
"kX c black",
"lX c black",
"zX c black",
"xX c black",
"cX c black",
"vX c black",
"bX c black",
"nX c black",
"mX c black",
"MX c black",
"NX c black",
"BX c black",
"VX c black",
"CX c black",
"ZX c black",
"AX c black",
"SX c black",
"DX c black",
"FX c black",
"GX c black",
"HX c black",
"JX c black",
"KX c black",
"LX c black",
"PX c black",
"IX c black",
"UX c black",
/* pixels */
"Z.Z.Z.Z.Z.Z.Z.Z.Z.Z.Z.Z.Z.Z.Z.Z.Z.Z.Z.Z.Z.Z.Z.Z.Z.Z.Z.Z.Z.Z.Z.Z.Z.Z.Z.Z.Z.Z.Z.Z.Z.Z.Z.Z.Z.Z.Z.Z.Z.Z.Z.Z.Z.Z.Z.Z.Z.Z.Z.",
"Z.Z.Z.Z.Z.Z.Z.Z.Z.Z.Z.Z.Z.Z.Z.Z.Z.Z.Z.Z.Z.Z.Z.Z.Z.Z.Z.N N N N N Z.Z.Z.Z.Z.Z.Z.Z.Z.Z.Z.Z.Z.Z.Z.Z.Z.Z.Z.Z.Z.Z.Z.Z.Z.Z.Z.",
"Z.Z.Z.Z.Z.Z.Z.Z.Z.Z.Z.Z.Z.Z.Z.Z.Z.Z.Z.Z.Z.Z.Z.m N N D  .A '  . .Z N m m Z.Z.Z.Z.Z.Z.Z.Z.Z.Z.Z.Z.Z.Z.Z.Z.Z.Z.Z.Z.Z.Z.Z.",
"Z.Z.Z.Z.Z.Z.Z.Z.Z.Z.Z.Z.Z.Z.Z.Z.Z.Z.Z.Z.Z.B B N A X.O.@.D  .@.@.o. .B N B B Z.Z.Z.Z.Z.Z.Z.Z.Z.Z.Z.Z.Z.Z.Z.Z.Z.Z.Z.Z.Z.",
"Z.Z.Z.Z.Z.Z.Z.Z.Z.Z.Z.Z.Z.Z.Z.Z.Z.Z.Z.m Z ..o.o.O.<.3.3.' >.r.3.3.@.o.o.o.{ N m Z.Z.Z.Z.Z.Z.Z.Z.Z.Z.Z.Z.Z.Z.Z.Z.Z.Z.Z.",
"Z.Z.Z.Z.Z.Z.Z.Z.Z.Z.Z.Z.Z.Z.Z.Z.Z.Z.m Z ..@.7.7.7.w.a.g.| *.f.s.i.8.7.7.3.@.{ N m Z.Z.Z.Z.Z.Z.Z.Z.Z.Z.Z.Z.Z.Z.Z.Z.Z.Z.",
"Z.Z.Z.Z.Z.Z.Z.Z.Z.Z.Z.Z.Z.Z.Z.Z.m B N  .7.w.i.a.a.5. .1.[ S |  .X.t.a.a.t.8.2.D Z V Z.Z.Z.Z.Z.Z.Z.Z.Z.Z.Z.Z.Z.Z.Z.Z.Z.",
"Z.Z.Z.Z.Z.Z.Z.Z.Z.Z.Z.Z.Z.Z.m B A  .A $.y.q. . . .| ] { D N D ] ] |  .| $.t.t.{ *. .A N Z.Z.Z.Z.Z.Z.Z.Z.Z.Z.Z.Z.Z.Z.Z.",
"Z.Z.Z.Z.Z.Z.Z.Z.Z.Z.Z.Z.Z.Z D  .@.7.&.&. .| | | ] D A A D Z Z A S ] ] | | | #.#.e.9.+.] D Z.Z.Z.Z.Z.Z.Z.Z.Z.Z.Z.Z.Z.Z.",
"Z.Z.Z.Z.Z.Z.Z.Z.Z.Z.Z.m N | @.@.7.e.6.] S ' ] D A A A A A N Z A A A D ] ] D A #.q.r.2.@.O.D M Z.Z.Z.Z.Z.Z.Z.Z.Z.Z.Z.Z.",
"Z.Z.Z.Z.Z.Z.Z.Z.Z.Z.m N | @.7.i.0.o.| ] Z V A A A A A B B N N V A A A A A B A { | =.y.y.<.O.D M Z.Z.Z.Z.Z.Z.Z.Z.Z.Z.Z.",
"Z.Z.Z.Z.Z.Z.Z.Z.Z.m N | @.7.e.1.o.] D S A Z V A B N N x , , e n N N V A B Z A D ' { -.5.r.<.O.D m Z.Z.Z.Z.Z.Z.Z.Z.Z.Z.",
"Z.Z.Z.Z.Z.Z.Z.Z.Z.N | @.7.t.o.| ] D A B N N m n , > , ; $ $ $ : > > r m m N N Z A D { | ;.t.<.O.D N Z.Z.Z.Z.Z.Z.Z.Z.Z.",
"Z.Z.Z.Z.Z.Z.Z.Z.N  .@.4.t.o.] D D A N e : : : ; % % % % 1 5 = % % % % : : : : x Z A D D | ;.y.<.O.' Z.Z.Z.Z.Z.Z.Z.Z.Z.",
"Z.Z.Z.Z.Z.Z.Z.M Z o.7.t.o.| ] A A N e % 1 = 1 = 3 5 6 5 6 6 6 6 5 5 1 = 1 = = - x B A S { | =.y.2.| N Z.Z.Z.Z.Z.Z.Z.Z.",
"Z.Z.Z.Z.Z.Z.m N %.7.t.X.{ D S N t ; * 3 6 6 u 5 1 q u u u u u u u 6 1 q u 6 6 1 ; ; c Z D D | =.r.4.[ m Z.Z.Z.Z.Z.Z.Z.",
"Z.Z.Z.Z.Z.Z.B B A ,. .' ] A N t < 1 5 6 q q u 6 1 3 + # # # # + % 6 1 u u q q 6 3 1 < c Z D ] ] o.] Z B Z.Z.Z.Z.Z.Z.Z.",
"Z.Z.Z.Z.Z.Z  .O.D Z { { S N r < q 5 3 q q 6 # + + + O O O O O O O + + + % q q 6 1 q 6 < c Z D | D Z | O.] Z.Z.Z.Z.Z.Z.",
"Z.Z.Z.Z.m { @.7.6.D D ] Z r % 1 q 5 % + O + O O O O O O O O O O O O O O O O # % = 6 6 1 ; c D ] D | r.2.+.A Z.Z.Z.Z.Z.",
"Z.Z.Z.Z.A | @.f.$.' Z B l % 1 q q 1 * 0 4 + O O O O O O O O O O O O O o # 3 a y + 1 q 6 = ; n V A { 6.r.@.] Z.Z.Z.Z.Z.",
"Z.Z.Z.Z.] o.1.0. .D A v $ 1 q q < 8 P _ H # # + O O O O O O O O O O # + * H ) Y 2 & 3 q 6 = : N A ' -.r.2.+.A Z.Z.Z.Z.",
"Z.Z.Z.Z.D  .t.$.{ D N e $ 6 6 < 4 P ) ^ < @ & & # + O O O O O O O + & & @ < U ~ E f $ 1 q 3 - x Z ' { 6.r.+.A Z.Z.Z.Z.",
"Z.5.M m D { q.$.' A b $ = q 1 * i Q ) T < & & & & $ O O O O O O O @ < 2 & O y ^ b.P 2 # 6 5 $ : N D ' 6.r.+.A m A Z.Z.",
"Z.f.&.A Z D 6.$.D A n $ = 3 = < H Q J 8 < 2 2 & & $ O O O O O O O @ < < * @ & U ) T w # 1 1 % : N A ' q.w.| B ] ,.j.Z.",
"Z.| 6.1.D Z 6.$.] A b < q 5 < w J f # O & < < & & $ O O O O O O O @ & & & $ O < J T i # % q 5 : N D { q.0.D { r.=.[ Z.",
"Z.Z  .6.| Z 6.$.D A b < u 6 < i 8 @ @ 4 < & 2 2 2 $ O O O O O O O @ 2 2 & # < < $ 4 w 2 $ u 5 : N D ] q.$.Z ,.;.{ N Z.",
"Z.A  .| { Z >.&.A A b - 6 1 < 4 $ @ U U & & < < * $ O O O O O O O @ * < $ @ y 4 O $ w i * 6 1 : N A D 5.[ A  .| | N Z.",
"Z.N B Z Z C A A Z B b - q 6 < 4 & & ~ ` < * 2 * & $ O O O O O O O @ < 2 & $ T J @ $ i i * u 3 : m N B A Z Z A A A N Z.",
"Z.Z.Z {  .X. . . . .n - q 6 2 8 & G ^ ^ y o @ < & $ O O O O O O O @ < & # $ G Q 4 $ K d * u 3 : N A D ]  .X.o.X. .Z.Z.",
"Z.Z.Z ] ] D A A A A b $ 5 1 w f & a T y ^ 3 X o $ # O O O O O O O O X   a ^ < y 3 $ j d $ 5 1 : N A A A A ' ] ' B Z.Z.",
"Z.Z.N N N N N N N N b $ 1 1 i g $ # y < ` T 2 $ X X O O O O O O O O X @ G M.P X O # s i $ 3 % : M N N N N N N N m Z.Z.",
"Z.Z.Z.Z.V A A A N Z n $ = 1 8 s @ @ o 3 n.N.) J 3 $ o O O O O O O @ 4 J ) n.J # 4 < k f $ 3 % : N V V A A D N Z.Z.Z.Z.",
"Z.Z.Z.Z.A ' D A N Z n $ 1 1 < 8 @ f 2 y b.V.m.T T J < O O O O O o & U ^ m.) J U b.f k f $ 3 = : N V V D ' ] B Z.Z.Z.Z.",
"Z.Z.Z.Z.D | ] D N Z n $ 1 = < 8 @ ^ ^ < ^ M.m.) T T a o O O O O O 2 T b.n./ G ` M.y j f $ 1 = : N V A { | -.A Z.Z.Z.Z.",
"Z.Z.Z.Z.D  .| =.A D n ; 6 1 8 i $ Q M.) b.m.m.n.T J 3 O O O O O + 4 Q M.b.b.b.n.E $ K f $ 6 3 : V A A | ..a.F Z.Z.Z.Z.",
"Z.Z.Z.Z.] O. .t.F ' n < u 6 i g & y ` M.n.b.^ ^ T G $ O O O O O + 4 T ` b.n.M.^ & @ s i < u 6 : Z D A | o.s.F Z.Z.Z.Z.",
"Z.Z.Z.Z.] @.o.t.D A n $ 5 6 i g & @ J b.n.b.T T T G $ O O O O O + 4 U Q b.b.n.J @ & 8 8 * u = : B Z '  .O.u.F Z.Z.Z.Z.",
"Z.Z.Z.Z.] @.@.i.S Z n $ 6 6 w ! G O $ T m.m.Q T T G $ O O O O O + 4 U ^ b.n.n.H @ & 8 8 4 u 1 : N V ] @.@.<.A Z.Z.Z.Z.",
"Z.Z.Z.Z.D O.@.<.A Z n - q 5 w ( J o + T m.M.n.Q T Y y o O O O o # J Q m.M.M.n.a @ & 8 8 < u 1 : N V ] @.@.+.A Z.Z.Z.Z.",
"Z.Z.Z.Z.D o.X.o.Z Z n $ 1 1 w W ^ y a T m.M.M.n.Q T a o O O O o $ U ) M.N.M.` 0 @ U H 4 $ 5 = : N V ] o.O.@.A Z.Z.Z.Z.",
"Z.Z.Z.Z.D o...o.A Z n - 6 1 w Y U 4 G T b.n.n.n.b.T p o O O O o $ T m.m.M.` T 8 X G G 4 $ 6 1 : N V ] ..o.@.A Z.Z.Z.Z.",
"Z.Z.Z.Z.D o.X.X.Z Z n - q 6 i s a p U ^ a 4 4 G ^ T p o O O O o $ T ^ y 0 a T G O G h 8 * u 3 : N V ' o.O.@.A Z.Z.Z.Z.",
"Z.Z.Z.Z.D o.3. .B A n $ 5 1 i s y U ^ n.p X o < a T p o O O O o $ G @ . @ p ) ) 3 p H i * 6 1 : B Z S o.@.@.A Z.Z.Z.Z.",
"Z.Z.Z.Z.D o.f.$.B ' n - 5 < 8 9 * J ^ m.T O . $ p T p o O O O o $ J 2   * ` N.` 3 < I f $ 3 1 : Z D A o.@.@.A Z.Z.Z.Z.",
"Z.Z.Z.Z.D o.f.$.V ' n < u 6 < 2 ; J ^ b.m.T H y J T a o O O O o $ U T J / C.B.) 4 * I f * u 6 : Z D A o.@.@.A Z.Z.Z.Z.",
"Z.Z.Z.Z.D O.f.$.B ' n - q 6 8 8 & y Y ^ b.b.Q J T J 1 O O O O O + p T ` m.N.n.P 2 2 I f * u 3 : A D A o.@.@.A Z.Z.Z.Z.",
"Z.Z.Z.Z.S o.8. .B S n - 6 3 i s & # G Q ^ ^ J T T a o O O O O O o % U T Q ^ ^ y & 8 I f * 6 1 : B A A o.@.@.A Z.Z.Z.Z.",
"Z.Z.Z.Z.D o. .D N Z n - 6 3 i s & # & 4 U Q Q J a a o O O O O O o % T Q T Q G @ & 8 f i * q 1 : N V Z ] o.@.A Z.Z.Z.Z.",
"Z.Z.Z.Z.' @.] D B A n - q 6 i s & 2 & @ G p Q J 4 U 4 o O O O O # G T ^ Q G # # 2 8 i i < u 3 : N Z A D  .@.A Z.Z.Z.Z.",
"Z.Z.Z.m D  .D D B D n - q 6 2 4 & 2 2 2 & $ Q T U T a o O O O o $ U Q ) U @ # < < < w i < u 3 : Z A Z D {  .Z Z.Z.Z.Z.",
"Z.Z.Z.m A D A A N N n - 6 1 < 2 & 2 2 4 o < ^ Q T T p o O O O o $ U ^ ) J X & 8 2 4 i i * 6 1 : N N B A A ' B m Z.Z.Z.",
"Z.Z.Z.N C Z B B N A B ; 6 1 < 2 & 4 8 2 & Q Q T T T p o O O O o $ U ) ) G @ 2 8 8 4 i i $ 5 1 e S A B B B Z B N N Z.Z.",
"Z.Z.Z.' <.<.<.:.| :. .< 5 1 2 4 $ 2 4 2 $ U 8 U T T p o O O O o $ U ` ) + # 4 4 2 < K d $ 5 1 l <.<.<.<.<.<.<.O.V Z.Z.",
"Z.Z.Z.} f.f.h.f.a.f.*.; 1 1 i s # < < < @ o * Q T T a o O O O O # G Q T o & 2 < < < K d $ 3 % l e.p.a.a.a.a.a.6.Z Z.Z.",
"Z.Z.] Z ' {  .] ' ' C - = = 8 w # < 4 8 2 @ 4 b.Q U 4 o O O O O O < U y @ 4 8 4 2 2 i i $ 1 % > Z S ' ' ' ' D A m Z.Z.",
"Z.#.5.D D A S D D D B - 1 < < 2 # & < 2 2 2 < ~ ^ a O O O O O O O # U / # 2 4 < & & w i $ 1 = , D D D D D D D D [ Z.Z.",
"Z.u.g.r.r.0.r.r.r.r.$.< q 6 4 8 # & & & & < @ & P f o O O O O O O O y ) $ < < & & & w i < u 1 l r.r.r.r.r.r.r.i.k.7.Z.",
"@.O.*.6.6.r.i.i.i.i.$.< q 6 i s # $ @ & & & $ O < 7 O O O O O O O O < G & & $ $ & & f i < u 1 l 5.0.i.i.i.y.0.0.$.@.@.",
"r.| A |  .O.@.o...X.] < q 6 i s # 9 d 2 < 2 & @ & # O O O O O O O O O $ 2 < 8 2 @ & L f * u 1 e {  .O.o..... .| A :.u.",
"h. .A |  ..... .| ' C ; q 6 i s @ i d < < < $ @ & $ O O O O O O O O @ & < * 4 f 2 @ K f * u 1 e D ]  . .| | | { A <.l.",
"h. .A | { { { ' D A N $ 1 1 4 8 9 f 2 & & & & @ & $ O O O O O O O O @ & & & & w K K R d * 6 = > A S D ] | | | ] Z <.j.",
"h. .B Z Z Z Z B B B m $ = 1 < g H 8 & & & 2 d & & $ O O O O O O O O @ & & & & 8 f g g 8 $ 3 % > B B B Z Z Z Z Z A 1.j.",
"l.i.O.o.o.o.o.o.o.O.{ ; = 1 < d d * + < 2 2 7 g * $ O O O O O O O + $ $ $ 2 2 8 i i i 8 $ 3 % t o.o.o.o.o.o.o.o.:.g.l.",
"f.g.h.h.h.h.h.h.h.h.>.; = = & w i < $ & & @ < 8 & $ O O O O O O O @ & $ @ $ & * 8 w i 8 $ 1 % z a.h.h.h.h.h.f.f.h.g.f.",
"D @.<.<.<.<.<.:.@.o.D - % % & 8 w i j L k < i $ $ # O O O O O O O + $ $ $ * d L f i 8 4 # % % r  .o.:.<.<.2.o.o.o. .Z ",
"Z  .+.@.@.@.O. .| | D - % # $ 2 < 2 2 2 2 + + O O O o o o o o o o o o o o O $ 2 2 2 2 < # $ # e { { | X.@.+.@.+. .] N ",
"Z |  .O.O.O. .| ] D A : > > > : : > > > > > > > > > : : : : : : : : : : : : : > > > > > > > : r D D { | X. .o.o. .] N ",
"Z | { ] ] ] ] ] D S Z c N B A V N N N M N N N B Z N N N N N N N N N N N N N N N N N N N N N m v A A D ] ] ] ] ] | ] N ",
"N S A V V V V V V V N N S { X.| ' ' D N A S D {  .' ' ' ' ' ' ' ' ' ' ' ' D B V D ' ' ' D S Z N V V V V V V V Z A A M ",
"N B B A S A A A A A A D { O.@.O.o.o.X.S A ] X.o.+.o.o.o.o.o.o.o.o.o.o.o. .{ S S { ..o.X.| ] D A V Z S S S S S S S A M ",
"N D ]  .o.o.o.o.o.o.o.o.O.@.@.@.@.@.@.] ] o.2.u.u.u.u.u.7.@.r.d.u.u.d.r.@...] ] | O.@.@.o.o.o.| ] { | | | | | | | ] N ",
"B ] -.a.h.h.h.f.3.2.u.h.h.f.f.f.f.7.@.] ..@.7.l.l.l.l.l.g.f.j.l.l.l.l.j.h.w.| ] o.r.h.f.h.h.f.a.6.O.O.O.O.O.O.o. .] N ",
"Z  .0.l.l.l.l.c.x.g.l.c.l.l.l.l.l.g.4.] o.2.h.j.j.j.l.l.l.l.l.l.l.c.v.v.c.j.,. .w.k.l.l.l.c.l.z.x.x.x.j.h.h.h.4.@. .N ",
"A o.0.k.k.k.k.j.l.j.j.j.k.k.k.j.k.k.4. .o.@.3.4.4.3.y.k.k.k.k.k.j.l.l.l.j.j.5.X.<.4.3.7.g.l.x.j.l.l.l.j.j.j.k.f.f.5.N ",
"{  . .o.o.o.o.o.o.o.o.o.o.o.o.o.o.o. .|  . . . . . . .o.o.o.o.o.o.o.o.o.&.o. . . . . . .o.&.&.o.o.o.o.o.o.o.o.&.&. .] "
};
