/* XPM */
static char *ZXpnaWYuY29tLWdpZi1tYWtlci0z_36[] = {
/* columns rows colors chars-per-pixel */
"59 75 256 2 ",
"   c #14110F",
".  c #151210",
"X  c #191614",
"o  c #171915",
"O  c #1A1916",
"+  c #1C1C1A",
"@  c #211E1C",
"#  c #1E211D",
"$  c #24211E",
"%  c #28221F",
"&  c #1D1F22",
"*  c #1D2024",
"=  c #1D242B",
"-  c #1F2933",
";  c #232422",
":  c #2A2522",
">  c #252A24",
",  c #2D2926",
"<  c #212428",
"1  c #2C2D2A",
"2  c #312A26",
"3  c #332D2A",
"4  c #2D322C",
"5  c #2E382D",
"6  c #33312D",
"7  c #39322E",
"8  c #30392E",
"9  c #202B35",
"0  c #212E39",
"q  c #22313D",
"w  c #343433",
"e  c #3D3532",
"r  c #353A34",
"t  c #383937",
"y  c #373838",
"u  c #3B3C3B",
"i  c #413936",
"p  c #374136",
"a  c #3C433A",
"s  c #40403F",
"d  c #404D3D",
"f  c #243644",
"g  c #253748",
"h  c #263A4C",
"j  c #283C4E",
"k  c #273C50",
"l  c #283F53",
"z  c #2A4154",
"x  c #2C465E",
"c  c #2F485A",
"v  c #2D4760",
"b  c #2E4B64",
"n  c #2F4E69",
"m  c #304D66",
"M  c #304F69",
"N  c #2F506C",
"B  c #30516E",
"V  c #325573",
"C  c #335877",
"Z  c #345B7B",
"A  c #395E7C",
"S  c #434342",
"D  c #464945",
"F  c #474948",
"G  c #4C4C4B",
"H  c #445342",
"J  c #535453",
"K  c #575857",
"L  c #5B5B5B",
"P  c #616261",
"I  c #365F80",
"U  c #366184",
"Y  c #3A6485",
"T  c #37658A",
"R  c #38668B",
"E  c #39698F",
"W  c #3B6C93",
"Q  c #3B6F98",
"!  c #3F7097",
"~  c #3D729B",
"^  c #3D75A1",
"/  c #3E79A6",
"(  c #3E7BA9",
")  c #416E8F",
"_  c #416F93",
"`  c #427093",
"'  c #42749B",
"]  c #47799E",
"[  c #4277A0",
"{  c #477BA2",
"}  c #4479A2",
"|  c #477EA7",
" . c #447CA6",
".. c #437AA4",
"X. c #4A7EA3",
"o. c #497EA5",
"O. c #407CA9",
"+. c #417EAC",
"@. c #4A80A6",
"#. c #4680AB",
"$. c #4381AF",
"%. c #4981AB",
"&. c #4982AC",
"*. c #4A84AE",
"=. c #4482B1",
"-. c #4583B2",
";. c #4684B2",
":. c #4786B5",
">. c #4B86B1",
",. c #4C87B2",
"<. c #4887B4",
"1. c #4B89B6",
"2. c #4F8CB7",
"3. c #4D8AB5",
"4. c #4A89B8",
"5. c #4D8CB9",
"6. c #4D8DBB",
"7. c #518CB7",
"8. c #508DB9",
"9. c #518FBC",
"0. c #4F90BE",
"q. c #5190BC",
"w. c #5291BE",
"e. c #5595C2",
"r. c #5394C1",
"t. c #5798C6",
"y. c #589AC6",
"u. c #5B9DCB",
"i. c #609FC9",
"p. c #5DA0CD",
"a. c #62A3CD",
"s. c #64A5D0",
"d. c #67A8D2",
"f. c #68A9D2",
"g. c None",
"h. c black",
"j. c black",
"k. c black",
"l. c black",
"z. c black",
"x. c black",
"c. c black",
"v. c black",
"b. c black",
"n. c black",
"m. c black",
"M. c black",
"N. c black",
"B. c black",
"V. c black",
"C. c black",
"Z. c black",
"A. c black",
"S. c black",
"D. c black",
"F. c black",
"G. c black",
"H. c black",
"J. c black",
"K. c black",
"L. c black",
"P. c black",
"I. c black",
"U. c black",
"Y. c black",
"T. c black",
"R. c black",
"E. c black",
"W. c black",
"Q. c black",
"!. c black",
"~. c black",
"^. c black",
"/. c black",
"(. c black",
"). c black",
"_. c black",
"`. c black",
"'. c black",
"]. c black",
"[. c black",
"{. c black",
"}. c black",
"|. c black",
" X c black",
".X c black",
"XX c black",
"oX c black",
"OX c black",
"+X c black",
"@X c black",
"#X c black",
"$X c black",
"%X c black",
"&X c black",
"*X c black",
"=X c black",
"-X c black",
";X c black",
":X c black",
">X c black",
",X c black",
"<X c black",
"1X c black",
"2X c black",
"3X c black",
"4X c black",
"5X c black",
"6X c black",
"7X c black",
"8X c black",
"9X c black",
"0X c black",
"qX c black",
"wX c black",
"eX c black",
"rX c black",
"tX c black",
"yX c black",
"uX c black",
"iX c black",
"pX c black",
"aX c black",
"sX c black",
"dX c black",
"fX c black",
"gX c black",
"hX c black",
"jX c black",
"kX c black",
"lX c black",
"zX c black",
"xX c black",
"cX c black",
"vX c black",
"bX c black",
"nX c black",
"mX c black",
"MX c black",
"NX c black",
"BX c black",
"VX c black",
"CX c black",
"ZX c black",
"AX c black",
"SX c black",
"DX c black",
"FX c black",
"GX c black",
"HX c black",
"JX c black",
"KX c black",
"LX c black",
"PX c black",
"IX c black",
"UX c black",
/* pixels */
"g.g.g.g.g.g.g.g.g.g.g.g.g.g.g.g.g.g.g.g.g.g.g.g.g.g.g.g.g.g.g.g.g.g.g.g.g.g.g.g.g.g.g.g.g.g.g.g.g.g.g.g.g.g.g.g.g.g.g.",
"g.g.g.g.g.g.g.g.g.g.g.g.g.g.g.g.g.g.g.g.g.g.g.g.g.g.v v v v v v g.g.g.g.g.g.g.g.g.g.g.g.g.g.g.g.g.g.g.g.g.g.g.g.g.g.g.",
"g.g.g.g.g.g.g.g.g.g.g.g.g.g.g.g.g.g.g.g.g.g.g.x v b U W V T W W n v x x g.g.g.g.g.g.g.g.g.g.g.g.g.g.g.g.g.g.g.g.g.g.g.",
"g.g.g.g.g.g.g.g.g.g.g.g.g.g.g.g.g.g.g.g.g.n n b Z ~ ^ ( Z ~ ( / ~ R n b n b g.g.g.g.g.g.g.g.g.g.g.g.g.g.g.g.g.g.g.g.g.",
"g.g.g.g.g.g.g.g.g.g.g.g.g.g.g.g.g.g.g.x V ~ ~ ~ ^ +.$.+.Z %.<.$.+./ ~ ~ ~ U v x g.g.g.g.g.g.g.g.g.g.g.g.g.g.g.g.g.g.g.",
"g.g.g.g.g.g.g.g.g.g.g.g.g.g.g.g.g.g.x V ~ ( -.-.-.1.w.e.Y o.w.9.6.-.-.-.+./ U b x g.g.g.g.g.g.g.g.g.g.g.g.g.g.g.g.g.g.",
"g.g.g.g.g.g.g.g.g.g.g.g.g.g.g.g.x n n ~ -.<.8.8.8.| W %.A Z W W ' 2.8.8.1.;.O.V V b x g.g.g.g.g.g.g.g.g.g.g.g.g.g.g.g.",
"g.g.g.g.g.g.g.g.g.g.g.g.g.g.x B Z W V | 6.*.W W W R U Y V b Z U T W W W } 2.1.Z X.R V v g.g.g.g.g.g.g.g.g.g.g.g.g.g.g.",
"g.g.g.g.g.g.g.g.g.g.g.g.x V Z W ( -.` ' W E E T U Z V V Z M V C Z U T E E E ' _ 7.-.^ I V v g.g.g.g.g.g.g.g.g.g.g.g.g.",
"g.g.g.g.g.g.g.g.g.g.g.x n W ( ( ;.,.%.Z Z U U Z V V V V V b V V V V Z U U Z V ' ,.1.O.( ^ Z x g.g.g.g.g.g.g.g.g.g.g.g.",
"g.g.g.g.g.g.g.g.g.g.x n W ( ;.6.>.Q R I B B V V V V B n n v b B V V V V B n C T E | 6.4.( ^ Z x g.g.g.g.g.g.g.g.g.g.g.",
"g.g.g.g.g.g.g.g.g.x n W ( -.>.| Q U Z C V M B V b b v f - - 9 x b b B B n V V Z I R { &.1.O.^ Z x g.g.g.g.g.g.g.g.g.g.",
"g.g.g.g.g.g.g.g.g.n W ( -.>.! R U C V b b v x l = = - * + + + = = = q v v b b B V Z T W | 1.O.^ Z x g.g.g.g.g.g.g.g.g.",
"g.g.g.g.g.g.g.g.n W ( -.>.! U Z C V v 9 = = = * @ @ @ @ : , % @ @ @ @ = = = = j B V Z Z E | 1.( ^ Z g.g.g.g.g.g.g.g.g.",
"g.g.g.g.g.g.g.v V ^ -.>.Q R I V B x = @ : % : % 2 2 3 3 3 3 3 3 3 2 : % : % % * h B V Z T E | 1.( U v g.g.g.g.g.g.g.g.",
"g.g.g.g.g.g.x m { ;.>.Q U Z C b 9 * $ 2 3 3 e 2 , 7 e e e e e e e 3 : 7 7 3 3 % * = z V Z Z E | <.#.A x g.g.g.g.g.g.g.",
"g.g.g.g.g.g.n n Z %.W I I V v 9 ; : 2 7 7 7 e 3 : , X O O O O X @ 3 : e e 7 7 3 , : < z V Z U Y ~ U M n b g.g.g.g.g.g.",
"g.g.g.g.g.V W ~ Z V T U C v 9 : 7 2 2 7 e 3 X X X X . . . . . . . X X X : 7 7 3 : 7 2 * l V Z E Z B W ^ Z b g.g.g.g.g.",
"g.g.g.g.v E ( ;.%.C I U b 9 @ 2 7 , @ X X X . . . . . . . . . . . . . . . X X O : 7 3 % * z Z U V _ <.O.^ B g.g.g.g.g.",
"g.g.g.g.V W O.w.! Z M b q @ , 7 3 O . . . . . . . . . . . . . . . . . . . . . . X , 7 3 % * x M V T 2.:./ I b g.g.g.g.",
"g.g.g.x R ~ #.>.E C V g + , 7 3 % X . . . . . . . . . . . . . . . . . . . . . . . . , 7 3 % = n V U | 1.+.^ N g.g.g.g.",
"g.g.g.x U W 8.~ T V v - @ 7 3 ; , +   . . . . . . . . . . . . . . . . . . . . . . ; @ , 7 , & j B U T 3.;.^ N g.g.g.g.",
"g.] x x Z T 2.~ I V h O % 7 % ; 3 + X . . . . . . . . . . . . . . . . . . . . . @ w : O 7 , O - M Z U 3.;.^ n x Z y.g.",
"u.8.! V V Z 3.! C V h + % , @ ; 3 @ O X . . . . . . . . . . . . . . . . . . X X + w S @ , : + - M V U 2.-.T n T %.u.g.",
"Y W >...V V 3.~ U V h ; e , 1 w ; + O O X . . . . . .   . . . . . . . . . X X O O # u w : 7 , - M Z R 2.#.V W 2.' Y g.",
"x V ! >.Y V 2.~ Z V h ; e , $ ; > ; O O X . . . . . . . . . . . . . . . . X O + ; o # 4 , e , - M Z T 2.W B &.} U v g.",
"x Z W W Y B @.W V B h @ 3 : O t t ; + O X . . . . . . . . . . . . . . . . X O + , + o > 1 7 : - n V I &.A Z W E T v g.",
"x b n B B N C V B n h @ 7 , O S t # # O X . . . . . . . . . . . . . . . . X O O u w # > 4 e : - v b n V B B B V B v g.",
"g.x V T W Q W W Q R h @ 7 , O u y ; + o . . . . . . . . . . . . . . . . . X X + y w u r 4 e : - n V Z U W ~ ~ ~ W g.g.",
"g.x V U U Z V V V V h + 3 % O t u , O   . . . . . . . . . . . . . . . . .     4 > 1 y r 1 3 % - b V V V V U U Z n g.g.",
"g.g.v v b b b b v b h O : % O 1 y > o X . . . . . . . . . . . . . . . . .     o O w $ > 1 , @ - v v v b b b v v v g.g.",
"g.g.g.x B V V V b B h O : % X # u y ; + X . . . . . . . . . . . . . . . . . O 1 u t + 4 1 , @ - M n B V V Z b g.g.g.g.",
"g.g.g.x V I C V b B h + , % X w G t 1 ; + X . . . . . . . . . . . . . . . O + G K G 1 4 1 2 % - M M B Z I U b g.g.g.g.",
"g.g.g.x Z E U Z b B h + : @ X D J z w , @ O . . . . . . . . . . . . . . X + ; G J L S 5 > : % - M n V T W ' B g.g.g.g.",
"g.g.g.x U W W { V Z h @ 3 % O J P D w , ; O . . . . . . . . . . . . . . X + 1 D J L S 5 1 3 : - V B Z E ~ 8.V g.g.g.g.",
"g.g.g.x R ^ Q 2.C I h $ e , O D L J w , ; O . . . . . . . . . . . . . . X + 3 u J G 1 1 6 i , - V V Z E / 8.V g.g.g.g.",
"g.g.g.x R ( ~ 2.V V h + 3 , O u J L w , ; O . . . . . . . . . .     . X O @ 6 u J S # > 1 e @ - B B U W / 6.V g.g.g.g.",
"g.g.g.x R ( / 2.V B h + 7 , , y G L w , ; O . . . . . . . . . . .   . X + ; w u J S # > 4 e : - M n T / ( O.B g.g.g.g.",
"g.g.g.x I ^ ( O.B B h @ 7 , 1 4 D J w 1 ; O . . . . . . . . . . . . . X + 1 u s J a + ; 1 e : - M n T ( ( ^ n g.g.g.g.",
"g.g.g.x Z ^ ~ ~ B B h + , % S G G D w 1 ; O . . . . . . . . . . . . . X + 1 u j S u y G 1 3 @ - M n T ~ ^ ^ N g.g.g.g.",
"g.g.g.x Z ^ W ~ N B h @ 3 % t F u S t 1 ; O . . . . . . . . . . . . . X + ; w u u t t D , 3 : - M n T Q ^ ^ N g.g.g.g.",
"g.g.g.x Z ^ ~ Q n B h @ e , 1 u t t 1 ; ; O . . . . . . . . . . . . . X + + 1 1 w 4 u D 1 e : - M n U ~ ^ ^ N g.g.g.g.",
"g.g.g.x Z ^ #.W n V h + 3 : ; t t :   X X X . . . . . . . . . . . . . X X . X ; 6 u J D 4 7 % - B B Z ^ ( ^ N g.g.g.g.",
"g.g.g.x Z ^ w.Q B I h + 2 @ + w t 1 O X + . . . . . . . . . . . . . . . X O O 1 w u D a 1 2 : - V V Z ^ ( ^ N g.g.g.g.",
"g.g.g.x Z ^ w.W B I h ; i , + w D t 1 @ + X . . . . . . . . . . . . . . O + ; t S G D a 6 i 3 - V V Z ^ ( ^ N g.g.g.g.",
"g.g.g.x Z ^ r.W B I h @ 7 , + w J D w ; + + . . . . . . . . . . . . . X + $ 1 t G G y p 6 e : - V V Z ^ ( ^ N g.g.g.g.",
"g.g.g.x Z ^ ;.E n C h @ 3 : + t J D w , + + . . . . . . . . . . . . . X + ; w S J S $ r 4 7 : - B B Z ^ ( ^ N g.g.g.g.",
"g.g.g.x Z ^ E Z b B h @ 7 : + > u S t 1 @ + . . . . . . . . . . . . . X + @ 1 t D u $ 5 4 7 : - M n V U ^ ^ N g.g.g.g.",
"g.g.g.x T ^ U Z n V h @ 7 , + ; y S w 1 + X . . . . . . . . . . . . . . O + ; w t , > 4 6 e : - M n V Z ~ ^ M g.g.g.g.",
"g.g.g.x I W Z C n Z h @ 7 , + ; ; 1 1 1 + . . . . . . . . . . . . . . . X + 1 w a $ $ 1 4 e : - V V B Z T W n g.g.g.g.",
"g.g.x x Z Z V B v b h @ 3 % + ; + 1 1 1 + . . . . . . . . . . . . . . . X + w S S > > 4 1 3 : 9 b v M V C I b x g.g.g.",
"g.g.x b N N n n b C x @ 3 % + ; + 4 1 1 + . . . . . . . . . . . . . . . X + w S a 4 4 5 1 3 : q Z B n n n B n b v g.g.",
"g.g.x T O.O.O.} E O.U @ 3 % o # + + ; 1 + . . . . . . . . . . . . . . . X ; 1 4 ; > > 8 1 3 % z +.O.O.O.O.O.O.~ b g.g.",
"g.g.x _ w.r.r.9.8.w.) + : % o # # o + ; X . . . . . . . . . . . . . . . X : > ; O ; > 5 1 , @ c 2.8.8.8.8.8.8.o.m g.g.",
"g.g.Z V I R W U I U v O % @ o # # o + + X . . . . . . . . . . . . . . . . $ , ; # > > 4 1 : + 0 V Z I I I I Z B x g.g.",
"g.' { Z Z V Z Z Z Z x + : @ o # # o + O X . . . . . . . . . . . . . . . . + $ ; + ; $ > 1 , @ q Z Z Z Z Z Z Z Z Y g.g.",
"( r.r.4.4.*.1.4.4.6.E $ e , X # # + + X . . . . . . . . . . . . . . . . . . . + + $ # > 4 e : x 4.4.4.4.4.4.4.6.t.+.( ",
"( ' { &.&.1.6.6.6.6.E $ e , + # # # + X . . . . . . . . . . . . . . . . . . X + + # # 4 4 e : z &.1.6.6.6.5.>.>.' / ( ",
"<.U V E W / / ~ Q ~ V @ 7 , # # # # # X . . . . . . . . . . . . . . . . . . X # > # # 8 6 e : g E W ^ ~ Q W W R V O.6.",
"0.T V E W Q Q W T I v @ 7 , X > ; # # X . . . . . . . . . . . . . . . . . . X # > 4 5 8 6 e : f Z U W W E E E U V -.u.",
"0.T V R T T T Z Z V x + , : + > ; # # X . . . . . . . . . . . . . . . . . . X + # 4 d H 4 3 @ q V C Z U R R R U V #.u.",
"w.R n B B B B n n n l O : % > 8 ; # # X . . . . . . . . . . . . . . . . . . X + # > p a > , @ 0 n n n B B B B N V ;.u.",
"u.1.~ ~ ~ ~ ~ ~ ~ ^ Z + : % > 5 ; # + X . . . . . . . . . . . . . . . . . X X + # > r 8 > , + j ^ ~ ~ ~ ~ ~ ~ ~  .t.u.",
"r.e.r.r.r.r.r.r.r.r.` + : @ $ ; o X O X . . . . . . . . . . . . . . . . . X O O + # > 4 > , + c w.r.r.r.r.r.w.w.r.e.q.",
"I O.O.O.O.O.O.O./ ~ V O % O : > + O X . . . . . . . . . . . . . . . . . . X X X O 8 a 5 ; % O h W ~ O.O.O.O.~ Q ~ W M ",
"V W / ( ( ( ^ W E R N O @ X $ # O X . . .                                     .   O + + + @ O g R R W ~ / ^ / ^ W I x ",
"V E Q ^ ^ ~ W E U Z n * = = = = = = = = = = = = = = = = = = = = = = = = = = = = = = = = = = * h Z Z T E ~ W ~ ~ W Z x ",
"V E T U U U U U Z C n k b M V n b b b v b b b n B b b b b b b b b b b b b b v v b b b b b b x x C V Z U U U U U E I x ",
"n Z V M M M M M M M b b Z R ~ T I I Z b V Z Z T W I I I I I I I I I I I I Z b B Z I I I Z V B v M M M M M M M B C V x ",
"v n n V C V V V V V V Z R ^ ( ^ ~ ~ Q V V U ~ ^ ^ ~ ~ ~ ~ ~ ~ ~ ~ ~ ~ ~ W T V Z T ~ ~ ~ R U Z V M V C C C C C C C B x ",
"b Z U W ~ ~ ~ ~ ~ ~ ~ ~ ^ ( / ( ( ( / I U ~ $.6.6.6.6.6.$.( 6.6.6.6.0.1./ W Z U W ^ ( / ~ ~ ~ R U T E E E E E E W I x ",
"B T ..w.r.r.r.6.+.$.w.r.r.w.w.w.w.=./ U ~ ( ;.u.u.u.u.u.e.r.u.u.u.u.u.y.r.-.U U ~ 5.r.w.r.r.9.7.#.^ ^ ^ ^ ^ ^ ~ W I x ",
"V W 2.u.u.u.u.s.i.e.p.s.u.u.u.u.u.e.O.U ^ $.r.y.y.y.u.u.u.u.u.u.u.d.f.f.s.t.[ W 5.y.u.u.p.s.u.a.a.i.i.e.r.r.w.O./ E x ",
"Z ^ 1.t.t.t.t.u.u.t.t.t.t.t.t.t.t.e.O.W ^ ( #.#.#.$.6.t.t.t.t.t.t.u.u.u.t.t.| ~ +.#.$.;.e.u.a.t.u.u.u.t.t.t.t.w.w.{ b ",
"T W Q ~ ~ ~ ~ ~ ~ ~ ~ ~ ~ ~ ~ ~ ~ ~ W W W W W W W W Q ~ ~ ~ ~ ~ ~ ~ ~ ~ ' ~ W W W W W W ~ ' ' ~ ~ ~ ~ ~ ' ' ~ ' ' W U "
};
