/* XPM */
static char *ZXpnaWYuY29tLWdpZi1tYWtlci0z_32[] = {
/* columns rows colors chars-per-pixel */
"59 75 256 2 ",
"   c #0E110C",
".  c #14110F",
"X  c #151210",
"o  c #191614",
"O  c #171915",
"+  c #1A1916",
"@  c #1C1D1A",
"#  c #211E1B",
"$  c #1E221D",
"%  c #24221E",
"&  c #28221F",
"*  c #1C1F22",
"=  c #201F20",
"-  c #1E2124",
";  c #1D242B",
":  c #1F2932",
">  c #242522",
",  c #2B2522",
"<  c #262A25",
"1  c #2C2926",
"2  c #2B2B2A",
"3  c #312A27",
"4  c #342D2A",
"5  c #2C322B",
"6  c #32322E",
"7  c #39322E",
"8  c #31382F",
"9  c #202B35",
"0  c #222E39",
"q  c #22313D",
"w  c #343533",
"e  c #3D3532",
"r  c #333B32",
"t  c #393A37",
"y  c #3C3C3C",
"u  c #403835",
"i  c #344032",
"p  c #384336",
"a  c #3D443C",
"s  c #3D4A3B",
"d  c #40433F",
"f  c #414F3F",
"g  c #243645",
"h  c #243846",
"j  c #273B4E",
"k  c #273C50",
"l  c #283E52",
"z  c #2B4254",
"x  c #2C465E",
"c  c #2C485F",
"v  c #2C4760",
"b  c #2E4B64",
"n  c #2F4E69",
"m  c #304D67",
"M  c #304F6A",
"N  c #2F506C",
"B  c #30516D",
"V  c #325573",
"C  c #335877",
"Z  c #345B7B",
"A  c #385C7A",
"S  c #3A607F",
"D  c #444444",
"F  c #464846",
"G  c #4C4D4C",
"H  c #425140",
"J  c #485845",
"K  c #50514F",
"L  c #535353",
"P  c #565856",
"I  c #585856",
"U  c #5A5A5A",
"Y  c gray38",
"T  c #365F80",
"R  c #376185",
"E  c #3A6486",
"W  c #376589",
"Q  c #38668B",
"!  c #37688E",
"~  c #39698F",
"^  c #3B6C93",
"/  c #3B6F98",
"(  c #3F7096",
")  c #3D729B",
"_  c #3D75A1",
"`  c #3E79A6",
"'  c #3E7AA9",
"]  c #406E91",
"[  c #427194",
"{  c #41749A",
"}  c #45789F",
"|  c #4377A0",
" . c #457AA1",
".. c #437BA5",
"X. c #457CA5",
"o. c #477EA7",
"O. c #497DA2",
"+. c #497EA6",
"@. c #407CAB",
"#. c #427FAD",
"$. c #4680AB",
"%. c #4380AE",
"&. c #4A82AC",
"*. c #4B85AF",
"=. c #4583B1",
"-. c #4784B2",
";. c #4B87B2",
":. c #4C87B3",
">. c #4887B4",
",. c #4B88B5",
"<. c #4C88B4",
"1. c #4B8AB8",
"2. c #4D8BB8",
"3. c #4D8DBB",
"4. c #518BB6",
"5. c #508BB6",
"6. c #508DB9",
"7. c #518FBC",
"8. c #4F90BE",
"9. c #5291BE",
"0. c #5191BE",
"q. c #5595C3",
"w. c #5394C2",
"e. c #5798C6",
"r. c #5999C6",
"t. c #579AC8",
"y. c #5B9DCB",
"u. c #609FC9",
"i. c #5DA0CD",
"p. c #62A3CD",
"a. c #64A6D0",
"s. c #67A8D1",
"d. c #68A9D2",
"f. c None",
"g. c black",
"h. c black",
"j. c black",
"k. c black",
"l. c black",
"z. c black",
"x. c black",
"c. c black",
"v. c black",
"b. c black",
"n. c black",
"m. c black",
"M. c black",
"N. c black",
"B. c black",
"V. c black",
"C. c black",
"Z. c black",
"A. c black",
"S. c black",
"D. c black",
"F. c black",
"G. c black",
"H. c black",
"J. c black",
"K. c black",
"L. c black",
"P. c black",
"I. c black",
"U. c black",
"Y. c black",
"T. c black",
"R. c black",
"E. c black",
"W. c black",
"Q. c black",
"!. c black",
"~. c black",
"^. c black",
"/. c black",
"(. c black",
"). c black",
"_. c black",
"`. c black",
"'. c black",
"]. c black",
"[. c black",
"{. c black",
"}. c black",
"|. c black",
" X c black",
".X c black",
"XX c black",
"oX c black",
"OX c black",
"+X c black",
"@X c black",
"#X c black",
"$X c black",
"%X c black",
"&X c black",
"*X c black",
"=X c black",
"-X c black",
";X c black",
":X c black",
">X c black",
",X c black",
"<X c black",
"1X c black",
"2X c black",
"3X c black",
"4X c black",
"5X c black",
"6X c black",
"7X c black",
"8X c black",
"9X c black",
"0X c black",
"qX c black",
"wX c black",
"eX c black",
"rX c black",
"tX c black",
"yX c black",
"uX c black",
"iX c black",
"pX c black",
"aX c black",
"sX c black",
"dX c black",
"fX c black",
"gX c black",
"hX c black",
"jX c black",
"kX c black",
"lX c black",
"zX c black",
"xX c black",
"cX c black",
"vX c black",
"bX c black",
"nX c black",
"mX c black",
"MX c black",
"NX c black",
"BX c black",
"VX c black",
"CX c black",
"ZX c black",
"AX c black",
"SX c black",
"DX c black",
"FX c black",
"GX c black",
"HX c black",
"JX c black",
"KX c black",
"LX c black",
"PX c black",
"IX c black",
"UX c black",
/* pixels */
"f.f.f.f.f.f.f.f.f.f.f.f.f.f.f.f.f.f.f.f.f.f.f.f.f.f.f.f.f.f.f.f.f.f.f.f.f.f.f.f.f.f.f.f.f.f.f.f.f.f.f.f.f.f.f.f.f.f.f.",
"f.f.f.f.f.f.f.f.f.f.f.f.f.f.f.f.f.f.f.f.f.f.f.f.f.f.f.v v v v v f.f.f.f.f.f.f.f.f.f.f.f.f.f.f.f.f.f.f.f.f.f.f.f.f.f.f.",
"f.f.f.f.f.f.f.f.f.f.f.f.f.f.f.f.f.f.f.f.f.f.f.x v b T ^ V R ^ ^ B v x x f.f.f.f.f.f.f.f.f.f.f.f.f.f.f.f.f.f.f.f.f.f.f.",
"f.f.f.f.f.f.f.f.f.f.f.f.f.f.f.f.f.f.f.f.f.n n b Z ) _ ' Z ^ ' ` ) ! n b n b f.f.f.f.f.f.f.f.f.f.f.f.f.f.f.f.f.f.f.f.f.",
"f.f.f.f.f.f.f.f.f.f.f.f.f.f.f.f.f.f.f.x V ) ) ) _ @.%.#.Z &.>.%.%.` ) ) ) W v f.f.f.f.f.f.f.f.f.f.f.f.f.f.f.f.f.f.f.f.",
"f.f.f.f.f.f.f.f.f.f.f.f.f.f.f.f.f.f.x V ) ' =.=.=.,.7.q.E +.0.7.3.=.=.=.#.` R b x f.f.f.f.f.f.f.f.f.f.f.f.f.f.f.f.f.f.",
"f.f.f.f.f.f.f.f.f.f.f.f.f.f.f.f.x n n ) =.>.3.6.6.o.^ &.S Z ^ ^ ( <.6.6.<.-.@.Z V m f.f.f.f.f.f.f.f.f.f.f.f.f.f.f.f.f.",
"f.f.f.f.f.f.f.f.f.f.f.f.f.f.x n C ^ V ..3.*.^ ^ ^ Q R E C b Z R W ^ ^ ! | <.,.Z O.~ V v f.f.f.f.f.f.f.f.f.f.f.f.f.f.f.",
"f.f.f.f.f.f.f.f.f.f.f.f.f.V Z ^ ' =.[ { ^ ! ! W R Z V V Z M V C Z R W ! ! ! { [ 4.=._ T Z f.f.f.f.f.f.f.f.f.f.f.f.f.f.",
"f.f.f.f.f.f.f.f.f.f.f.x n ^ ' ' -.:.&.Z Z R R Z V V V V V b V V V V Z R R Z V { :.,.@.' _ Z x f.f.f.f.f.f.f.f.f.f.f.f.",
"f.f.f.f.f.f.f.f.f.f.x n ^ ' =.3.;./ Q T B B V V V V B n n v b M V V V V V n C W ! o.2.1.@._ Z x f.f.f.f.f.f.f.f.f.f.f.",
"f.f.f.f.f.f.f.f.f.x n ^ ' =.;.o./ R Z C V B B V b b v g : : 0 z b b B V n V V Z T W  .&.,.@._ Z x f.f.f.f.f.f.f.f.f.f.",
"f.f.f.f.f.f.f.f.f.n ^ ' =.;.( Q R C V b b v x l ; ; : - @ @ @ ; ; ; q v v b b B V Z W ! o.,.@._ Z v f.f.f.f.f.f.f.f.f.",
"f.f.f.f.f.f.f.f.n ^ ' =.;.( R Z Z V v 9 ; ; ; - # # # # , 1 & # # # # ; ; ; ; j B V Z Z ! o.,.' _ Z f.f.f.f.f.f.f.f.f.",
"f.f.f.f.f.f.f.x B _ =.<./ Q T V V c 9 # , & , & 3 3 4 4 4 4 4 4 3 3 , & , & & * j B V Z W ! o.,.#.R v f.f.f.f.f.f.f.f.",
"f.f.f.f.f.f.x b  .-.<./ R Z C b 0 - % 1 4 4 e 3 1 7 e e e e e e e 4 , 7 e 4 4 , - ; l V Z Z ! o.>.$.S x f.f.f.f.f.f.f.",
"f.f.f.f.f.f.n n C &.^ T R V b 0 & , 3 4 7 7 e 4 , 1 o + + + + o # 4 , e e 7 7 4 1 , > l V Z R E ( R M n f.f.f.f.f.f.f.",
"f.f.f.f.f.V ^ ) Z B W R C b 0 , 7 3 1 7 e 4 o o o X X X X X X X X o X o & 7 7 4 , 7 4 - l V Z ! Z B ^ _ Z f.f.f.f.f.f.",
"f.f.f.f.x ! ' =.&.C T R n 0 # 1 7 1 # o X X X X X X X X X X X X X X X X X o o + , 4 4 & - l Z R V ^ ,.#._ B f.f.f.f.f.",
"f.f.f.f.V ^ ' 0.( Z M b q # 1 7 4 @ X X X X X X X X X X X X X X X X X X X X X X X 1 7 4 & - x M V W :.>.` T f.f.f.f.f.",
"f.f.f.x Q ) $.;.^ Z V h @ 1 7 4 1 + X X X X X X X X X X X X X X X X X X X X X X X X 1 7 4 & ; b V T o.,.#._ B f.f.f.f.",
"f.f.f.x R ^ 6.) W V v : # 7 4 2 d < . X X X X X X X X X X X X X X X X X X X X X X w 1 1 7 1 * j B R W :.>._ B f.f.f.f.",
"f. .x x Z W <.{ T V j @ & 7 , w G 1 O X X X X X X X X X X X X X X X X X X X X X 2 I t + 4 3 + : n Z R :.-._ B x C f.f.",
"f.6.[ V V Z :.{ Z V j @ & 1 # w G 2 @ + X X X X X X X X X X X X X X X X X X o + < K G # 1 , # : n V R <.-.W n E &.y.f.",
"f.~ ;.o.V V :.{ R V j % 7 1 < a w % @ @ X X X X X X X X X X X X X X X X X X @ @ O < F 5 > 7 1 : n Z Q <.$.V ! <.} E f.",
"f.V / ;.E B :.{ Z V j # e 1 > 2 w 1 @ @ X X X X X X X X X X X X X X X X X + @ $ 2 @ < 5 > e 1 : n Z W <.[ B &.| R v f.",
"f.Z ^ ^ W B +.^ V B j # 4 , + < y 2 @ @ X X X X X X X X X X X X X X X X X + @ @ w > @ 5 > 4 , : b V T &.S Z ^ ! Q v f.",
"f.b n B B n C V B n j # 7 1 + < y < @ @ X X X X X X X X X X X X X X X X X + @ O G w $ 5 < e , : v b n V B B B V V v f.",
"f.x V W ^ ) ^ ^ / ! k @ 7 1 + > w 1 @ @ X X X X X X X X X X X X X X X X X + O $ L G w s 1 e , : n V Z R ^ ) ) ) ^ f.f.",
"f.f.B R R Z V V V V j @ 3 & + > > w $   X X X X X X X X X X X X X X X X X .   D w w 6 s < 4 , : b V V V V T R T n f.f.",
"f.f.v v b b b b v b j @ , & + @ @ < @ X X X X X X X X X X X X X X X X X X . . > O @ $ 8 < 1 # : v v v b b b v v x f.f.",
"f.f.f.x B V V V b B j @ , & + 2 w 5 2 < @ X X X X X X X X X X X X X X X X X $ y t > @ s < 1 # : n n M V V Z b f.f.f.f.",
"f.f.f.x V T Z V b B j @ 1 & O I I t w 2 > + X X X X X X X X X X X X X X X # < U I y < s < 3 # : n M M Z T R n f.f.f.f.",
"f.f.f.x Z ! R Z b B j @ , # O K L F w 2 < @ X X X X X X X X X X X X X X o > 1 G G I w s > , & : n n V W ^ } B f.f.f.f.",
"f.f.f.x R ^ ^  .V Z j # 4 , + t L L w 2 < # X X X X X X X X X X X X X X + > w G I Y w s < 4 1 : B V Z ! ( 6.C f.f.f.f.",
"f.f.f.x Q _ / 4.Z T j % e 3 + < F I w 2 < # X X X X X X X X X X X X X X + < y L I D < r < u 1 : V V Z ! _ 6.C f.f.f.f.",
"f.f.f.x Q ' ( <.C V j @ 4 3 @ < G I w 2 < # X X X X X X X X X X X X X o # < y L I 2 $ 5 < e # : B B R ^ _ 3.C f.f.f.f.",
"f.f.f.x Q ' ` <.V B j @ 7 1 t G L I t 2 < # X X X X X X X X X X X X X o > 2 D L I 5 $ 5 2 e , : n n Q ` ` @.B f.f.f.f.",
"f.f.f.x Z _ ' ..B B j @ 7 1 D F F I t 2 < # X X X X X X X X X X X X X o > t G L I 2 @ 5 < e , : n n Q ' ' _ B f.f.f.f.",
"f.f.f.x Z _ ) ) B B j @ 1 & y y a L t 2 2 # X X X X X X X X X X X X X o > t G L L 5 F a > 3 # : n n Q ) _ _ B f.f.f.f.",
"f.f.f.x Z _ ^ ) B B j @ 4 & w w t L G w 2 # X X X X X X X X X X X X X o > 2 y G G 2 G a % 4 , : n n Q ) _ _ B f.f.f.f.",
"f.f.f.x Z _ ) / B B j @ 7 3 @ $ y G 4 < < @ X X X X X X X X X X X X X o > > < w F w L a < e , : n n R ( _ _ B f.f.f.f.",
"f.f.f.x Z _ %.^ n V j @ 4 , @ @ t w X . O @ X X X X X X X X X X X X X o @ X   w G G P d < 4 , : B B Z ) ' _ B f.f.f.f.",
"f.f.f.x Z _ 0./ N T l @ 3 & O @ t w @ @ > X X X X X X X X X X X X X X X @ # + t G G a H < 1 , : V V Z _ ' _ B f.f.f.f.",
"f.f.f.x Z _ 0./ N T j > u 3 O @ y F 6 2 < @ X X X X X X X X X X X X X X # 1 2 D I I a H 1 u 4 : V V Z _ ' _ B f.f.f.f.",
"f.f.f.x Z _ 0.( N T k # 7 3 X > F I D 2 < < X X X X X X X X X X X X X o < 2 w G Y F r F 1 e , : V V Z _ ' _ B f.f.f.f.",
"f.f.f.x Z _ -.^ n C j @ 4 , O 1 G L D 2 1 > X X X X X X X X X X X X X o < 2 y I U 5 < f < 7 , : B B Z _ ' _ B f.f.f.f.",
"f.f.f.x Z _ ^ Z b B j @ 7 1 X > 5 F F w 1 > X X X X X X X X X X X X X + < 2 w G y % < r < 7 , : n n V R ) _ B f.f.f.f.",
"f.f.f.x R _ R Z n V j @ 7 3 O > < w t 2 < @ X X X X X X X X X X X X X X # 1 2 w < $ 2 5 < e , : n M V Z ) _ B f.f.f.f.",
"f.f.f.x Z ^ Z C n Z j @ 7 3 O $ % $ 2 2 < X X X X X X X X X X X X X X X @ < 2 < 2 > > 5 < e , : V V B Z W ^ n f.f.f.f.",
"f.f.f.x C Z V B v b j @ 4 , O $ $ @ 1 2 < X X X X X X X X X X X X X X X @ < D w 2 < 2 5 < 4 , : b v n V V T b x f.f.f.",
"f.f.x b N B n n b Z v # 4 & O > % @ < 2 < X X X X X X X X X X X X X X X @ 2 F w 2 5 5 8 > 4 , q Z V n n n B n b v f.f.",
"f.f.x E @.@.@...~ @.W @ 3 & X $ $ O O < > X X X X X X X X X X X X X X . @ t 5 @ % < < s < 3 & j @.@.@.@.@.@.@.) b f.f.",
"f.f.z ] 0.w.w.7.6.0.[ @ , & X @ $ O X < + X X X X X X X X X X X X X X X + t 2 X $ > < s < 1 # z <.6.6.6.6.6.6.+.M f.f.",
"f.f.A B T Q ^ R T R b @ & # X $ % @ O > O X X X X X X X X X X X X X X X . 6 2 @ > < < 5 > , # 0 B Z T T T T Z B x f.f.",
"f.{ +.Z Z V Z Z Z Z v @ , & X @ $ @ O @ X X X X X X X X X X X X X X X X . < > @ % % % 5 > 1 # q Z Z Z Z Z Z Z Z E f.f.",
"' 8.q.1.1.*.,.1.1.3.^ = 7 3 X @ $ $ O X X X X X X X X X X X X X X X X X X X X @ $ $ % 5 < e , z 1.1.1.1.1.1.1.3.t.%.' ",
"' | } &.&.,.3.3.3.3.^ = 7 3 X @ $ $ $ O X X X X X X X X X X X X X X X X X X + $ @ $ > r < e , z &.;.3.3.3.2.;.;.{ ` ' ",
",.Q V Q ^ _ ` ) / ) Z @ 7 3 O @ $ $ $ X X X X X X X X X X X X X X X X X X X O > 5 $ % s 1 e , g Q ^ _ ) / ^ ^ Q V @.3.",
"w.Q V ! ^ / / ^ W T v # 7 3 X 5 < $ $ X X X X X X X X X X X X X X X X X X X O % 5 i 5 s 1 e , q Z R ^ ^ ! ! ! R V $.y.",
"0.Q V Q W W W Z Z V x @ 1 , O 5 2 $ $ X X X X X X X X X X X X X X X X X X X + $ $ r H J < 4 # 0 V C Z R Q Q Q R V $.y.",
"w.! n B B B B n n n z @ , & 5 p < $ $ O X X X X X X X X X X X X X X X X X X O $ $ 5 a p > 1 # 0 n n n B B B B N V =.y.",
"y.,.) ) ) ) ) ) ) _ Z @ , & 2 r < > @ @ X X X X X X X X X X X X X X X X X O O $ < 5 r 8 % 1 # h _ ) ) ) ) ) ) ) X.e.y.",
"9.e.w.w.w.w.w.w.w.w.[ @ , & > < O O O @ X X X X X X X X X X X X X X X X X + @ @ @ $ 5 5 $ , # z 0.w.w.w.w.w.0.0.w.q.9.",
"Z ..@.@.@.@.@...` ( V @ # + % < $ @ @ X X X X X X X X X X X X X X X X X X O @ @ @ p p 5 @ & @ h / ) ..@.@.@.) / ( ^ M ",
"V ^ _ ' ' ' _ ^ ! Q B @ # o @ $ @ O X X X . . . . . . . . . . . . . . . . . . . X % % % @ @ + g W Q ^ ( ` _ ` _ ^ T x ",
"V Q / _ _ _ ^ ! R Z N - ; ; ; ; ; ; ; ; ; ; ; ; ; ; ; ; ; ; ; ; ; ; ; ; ; ; ; ; ; ; ; ; ; ; - g T Z W ! ) ^ ) ) ^ T v ",
"V ! W R R R R R Z C n k b n V n b b b v b b b n B b b b b b b b b b b b b b v v b b b b b b x z V V Z R R R R R ! T v ",
"n Z V M M M M M M M b b Z Q ) W T T Z b V C Z W ^ T T T T T T T T T T T T Z n B Z T T T Z C B v M M M M M M M B V V x ",
"v n n V C V V V V V V Z Q _ ' _ ) ) / V V R ) _ _ ) ) ) ) ) ) ) ) ) ) ) ^ W V Z W / ) ) ! R Z V M V C C C C C Z C V x ",
"b Z R ^ ) ) ) ) ) ) ) ) _ ' ' ' ' ' ` T R ) %.3.3.3.3.3.=.' 1.3.3.3.8.,.` ^ T R ^ _ ' ` ) ) ( Q R W ! ! ! ! ! ! ^ T v ",
"B Q | 7.w.w.w.0.#.#.0.w.w.0.w.w.0.=._ R ) ' -.y.y.y.y.y.e.w.y.y.y.y.y.y.w.;.Q R ) 2.w.0.w.w.0.5.&._ _ _ _ _ _ ) ^ T v ",
"V ^ ,.y.y.y.y.a.u.e.i.a.y.y.y.y.y.e.@.R _ #.w.y.y.y.y.y.y.y.y.y.y.s.d.d.a.t.| ^ ,.t.y.y.i.a.y.p.p.u.u.r.w.w.w.#.` ^ v ",
"Z _ ,.e.e.e.e.y.y.r.r.r.e.e.e.e.e.e.@.^ _ ' $.$.$.%.3.e.e.e.e.e.r.y.y.y.r.r.o.) #.$.%.-.e.y.p.r.y.y.y.r.r.r.e.0.w.+.b ",
"W ^ / ( ( ( ( ( ( ( ( ( ( ( ( ( ( ( ^ ^ ^ ^ ^ ^ ^ ^ / ( ( ( ( ( ( ( ( ( ( ( ^ ^ ^ ^ ^ ^ ( { { ( ( ( ( ( ( ( ( { { / R "
};
