/* XPM */
static char *ZXpnaWYuY29tLWdpZi1tYWtlci0z_41[] = {
/* columns rows colors chars-per-pixel */
"59 75 128 2 ",
"   c #0E120C",
".  c #15110F",
"X  c #151210",
"o  c #191614",
"O  c #171A15",
"+  c #1A1A16",
"@  c #1C1C1A",
"#  c #211E1C",
"$  c #1E211D",
"%  c #23211E",
"&  c #28221F",
"*  c #1D1F22",
"=  c #1E2124",
"-  c #1D242B",
";  c #1F2933",
":  c #232422",
">  c #2A2522",
",  c #252923",
"<  c #2D2925",
"1  c #212528",
"2  c #2B2C2B",
"3  c #302A26",
"4  c #342D29",
"5  c #2D312B",
"6  c #34332D",
"7  c #39322E",
"8  c #31382F",
"9  c #202B34",
"0  c #212E39",
"q  c #23313E",
"w  c #343433",
"e  c #3D3532",
"r  c #353A32",
"t  c #393B35",
"y  c #3B3C3B",
"u  c #413935",
"i  c #394436",
"p  c #3C443B",
"a  c #243644",
"s  c #253947",
"d  c #273B4D",
"f  c #273C51",
"g  c #283F52",
"h  c #2A4153",
"j  c #2C465E",
"k  c #2C485F",
"l  c #2D4760",
"z  c #2E4B64",
"x  c #2F4E69",
"c  c #304D67",
"v  c #304F69",
"b  c #2F506C",
"n  c #30516E",
"m  c #325573",
"M  c #335877",
"N  c #345B7B",
"B  c #395F7D",
"V  c #444443",
"C  c #484747",
"Z  c #464846",
"A  c #4B4B4A",
"S  c #535353",
"D  c #575957",
"F  c #5A5A5A",
"G  c #646664",
"H  c gray42",
"J  c #365F80",
"K  c #366184",
"L  c #3A6485",
"P  c #37658A",
"I  c #38668B",
"U  c #39698F",
"Y  c #3B6C93",
"T  c #3B6F98",
"R  c #3F7097",
"E  c #3D729C",
"W  c #3D75A1",
"Q  c #3E79A6",
"!  c #3E7BA9",
"~  c #416F92",
"^  c #417194",
"/  c #42749B",
"(  c #46799E",
")  c #4378A1",
"_  c #467BA1",
"`  c #447CA6",
"'  c #477EA7",
"]  c #437AA4",
"[  c #497DA3",
"{  c #497EA5",
"}  c #407DAA",
"|  c #417EAC",
" . c #4680AB",
".. c #4380AF",
"X. c #4A81A9",
"o. c #4A84AE",
"O. c #4482B1",
"+. c #4683B1",
"@. c #4785B2",
"#. c #4B86B2",
"$. c #4C87B2",
"%. c #4887B4",
"&. c #4B89B6",
"*. c #4F8BB6",
"=. c #4A89B8",
"-. c #4D8CB9",
";. c #4D8DBB",
":. c #508CB6",
">. c #508DB9",
",. c #518FBC",
"<. c #4F90BE",
"1. c #5190BC",
"2. c #5191BE",
"3. c #5595C2",
"4. c #5394C2",
"5. c #5798C6",
"6. c #5B9DCB",
"7. c #609FC9",
"8. c #5DA0CD",
"9. c #62A3CD",
"0. c #64A5D0",
"q. c #67A8D2",
"w. c #68A9D2",
"e. c None",
"r. c black",
"t. c black",
"y. c black",
"u. c black",
/* pixels */
"e.e.e.e.e.e.e.e.e.e.e.e.e.e.e.e.e.e.e.e.e.e.e.e.e.e.e.e.e.e.e.e.e.e.e.e.e.e.e.e.e.e.e.e.e.e.e.e.e.e.e.e.e.e.e.e.e.e.e.",
"e.e.e.e.e.e.e.e.e.e.e.e.e.e.e.e.e.e.e.e.e.e.e.e.e.e.e.l l l l l e.e.e.e.e.e.e.e.e.e.e.e.e.e.e.e.e.e.e.e.e.e.e.e.e.e.e.",
"e.e.e.e.e.e.e.e.e.e.e.e.e.e.e.e.e.e.e.e.e.e.e.j l z K Y m K Y Y b z j j e.e.e.e.e.e.e.e.e.e.e.e.e.e.e.e.e.e.e.e.e.e.e.",
"e.e.e.e.e.e.e.e.e.e.e.e.e.e.e.e.e.e.e.e.e.x x z N E W ! N T ! ! E I x z x z e.e.e.e.e.e.e.e.e.e.e.e.e.e.e.e.e.e.e.e.e.",
"e.e.e.e.e.e.e.e.e.e.e.e.e.e.e.e.e.e.e.j m E E E W | ..| N X.%...| ! E E E K l e.e.e.e.e.e.e.e.e.e.e.e.e.e.e.e.e.e.e.e.",
"e.e.e.e.e.e.e.e.e.e.e.e.e.e.e.e.e.e.j m E ! +.+.+.&.2.3.L { 2.,.;.+.+.+.| Q K z e.e.e.e.e.e.e.e.e.e.e.e.e.e.e.e.e.e.e.",
"e.e.e.e.e.e.e.e.e.e.e.e.e.e.e.e.j x x E +.%.>.>.>.' Y X.B N Y Y E *.>.>.&.@.} M m z e.e.e.e.e.e.e.e.e.e.e.e.e.e.e.e.e.",
"e.e.e.e.e.e.e.e.e.e.e.e.e.e.j n N Y M ' ;.o.Y Y Y I K L M z N K I Y Y Y ) *.&.N [ U m l e.e.e.e.e.e.e.e.e.e.e.e.e.e.e.",
"e.e.e.e.e.e.e.e.e.e.e.e.e.m N Y ! +.^ / Y U U I K N M M N v m M N K P U U U / ~ :.+.W J M e.e.e.e.e.e.e.e.e.e.e.e.e.e.",
"e.e.e.e.e.e.e.e.e.e.e.j x Y ! ! @.$.X.N N K K N M M M M M z m M M M N K K N M / $.&.} ! W N j e.e.e.e.e.e.e.e.e.e.e.e.",
"e.e.e.e.e.e.e.e.e.e.j x Y ! +.;.#.T I J n n M M M M n x x l z n m M M M n x M I U ' -.=.! W N j e.e.e.e.e.e.e.e.e.e.e.",
"e.e.e.e.e.e.e.e.e.j x Y ! +.#.' T K N M m v n m z z l a ; ; 9 h z z v n x m M N J I _ X.&.! W N j e.e.e.e.e.e.e.e.e.e.",
"e.e.e.e.e.e.e.e.e.x Y ! +.#.R I K M m z z l l g - - - * @ @ @ - - - q l l z z n M N I Y ' &.! E N j e.e.e.e.e.e.e.e.e.",
"e.e.e.e.e.e.e.e.x Y ! +.#.R K N M M l 9 - - - = # # # # > < & # # # @ - - - - d n M N N U ' &.! W N e.e.e.e.e.e.e.e.e.",
"e.e.e.e.e.e.e.l m W +.#.T I J m n j - # > & > & 3 3 4 4 4 4 4 4 4 3 > & > & & = d n m N I U ' &.! K l e.e.e.e.e.e.e.e.",
"e.e.e.e.e.e.j c _ @.#.T K N M z 0 = % 3 4 4 e 3 < 7 e e e e e e e 4 > 7 7 4 4 & = - h m N N U ' %. .B j e.e.e.e.e.e.e.",
"e.e.e.e.e.e.x x M X.Y J J M l 0 > > 3 7 7 7 e 4 < < + O O O + + # 4 > e e 7 7 4 < > 1 h m N K L E K v x e.e.e.e.e.e.e.",
"e.e.e.e.e.m Y E N m I K M l 9 > 7 3 3 7 e 4 + o o X X X X X X X X o X o > 7 7 4 > 7 3 1 g m N U N n Y W N e.e.e.e.e.e.",
"e.e.e.e.l U ! @.X.M J K z 9 # 3 7 < # o o X X X X X X X X X X X X X X X X o o + > 4 4 & = h N K M ~ %.} W n e.e.e.e.e.",
"e.e.e.e.m Y } 2.R N v z q # < 7 4 @ X X X X X X X X X X X X X X X X X X X X X X X < 7 4 & - j v M I $.%.Q J e.e.e.e.e.",
"e.e.e.j I T  .#.U N m s @ < 7 4 @ X X X X X X X X X X X X X X X X X X X X X X X X X < 7 4 & - z M K ' &.| W b e.e.e.e.",
"e.e.e.j K T ;.E I M l ; # 7 4 # X X X X X X X X X X X X X X X X X X X X X X X X X X o < 7 < * d n K I $.@.W b e.e.e.e.",
"e.( j j N I *.E J m d @ & 7 > X X X X X X X X X X X X X X X X X X X X X X X X X X X X + 4 < + ; v N K $.@.W x j N e.e.",
"e.>.^ m m N $.R N m d @ & < # X X X X X X X X X X X X X X X X X X X X X X X X X X + t # < > # ; v M K *.+.P x I X.6.e.",
"e.Y #.` M M $.E K m d : e < 4 , O @ X X X X X X X X X X X X X X X X X X X X X X O O 2 t , 7 < 9 v N I *. .M Y &.( L e.",
"e.m T #.L m $.E N m d : e < @ @ @ $ X X X X X X X X X X X X X X X X X X X X X O @ O O 2 2 e < ; v N P *.T n o.) K l e.",
"e.N Y Y L n { Y M n d # 4 > O A 6 @ @ X X X X X X X X X X X X X X X X X X X X @ $ @ O : w 7 > ; z m J o.B N Y U P l e.",
"e.z x n n b M m n x d # 7 < O D w @ $ X X X X X X X X X X X X X X X X X X X X @ , 5 : , r e > 9 l z x m n n n m n l e.",
"e.j m I Y T Y Y T I d # 7 < O A w @ $ X X X X X X X X X X X X X X X X X X X X @ $ @ V 2 r e > ; z m N K Y E E E Y e.e.",
"e.e.m K K N m M M m d # 4 & O A S $ O X X X X X X X X X X X X X X X X X X X X O + % y 2 8 4 & ; z m m m M K K N x e.e.",
"e.e.l l z z z z l z d @ > & O w S ,   . X X X X X X X X X X X X X X X X X X X   + V , % 8 3 # 9 l l l z z z l l l e.e.",
"e.e.e.j n M M m z n d @ > & X X V y @ X X X X X X X X X X X X X X X X X X X X @ y S : @ 8 3 # ; v x n M M N z e.e.e.e.",
"e.e.e.j m J M m z n d @ < & X X V t 2 @ X X X X X X X X X X X X X X X X X X X t S S r $ 8 4 # ; v x n N J K z e.e.e.e.",
"e.e.e.j N U K N z n d @ > # X p S w 2 > @ X X X X X X X X X X X X X X X X X @ V S S S : 8 < # ; v x m I Y ( n e.e.e.e.",
"e.e.e.j K Y Y _ m N d : 4 & O H H w 2 , # X X X X X X X X X X X X X X X X X : t A S S : 8 7 < ; n m N U E :.M e.e.e.e.",
"e.e.e.j I W T *.M J d : e < @ G H C w , % X X X X X X X X X X X X X X X X X # 2 A S w : t u < ; M M N Y ! >.m e.e.e.e.",
"e.e.e.j I ! E $.M M d @ 4 < @ A F S w , # X X X X X X X X X X X X X X X X O % 2 A S : : 8 e # ; n n K Y ! ;.m e.e.e.e.",
"e.e.e.j I ! ! *.m n d @ 7 < O , V S w , # X X X X X X X X X X X X X X X X @ , 2 A S , $ 5 e > ; x x P ! ! ] n e.e.e.e.",
"e.e.e.j J W ! ] n n d # 7 < O $ V S w , # X X X X X X X X X X X X X X X X @ < 2 A S : : 6 e > ; x x P ! ! W x e.e.e.e.",
"e.e.e.j N W E E n n d @ < & V F A t 2 2 % X X X X X X X X X X X X X X X X @ < 2 w A 2 D w 4 # ; x x P E W W b e.e.e.e.",
"e.e.e.j N E Y E b n d # 4 & y F y 2 2 2 : X X X X X X X X X X X X X X X X @ , 2 2 V , A 8 4 > ; x x P T W W b e.e.e.e.",
"e.e.e.j N W E T b n d # 7 < t D t , , , @ X X X X X X X X X X X X X X X X O , , , 2 2 A r e > ; x x K E W W b e.e.e.e.",
"e.e.e.j N W  .Y x M d @ 4 > w S t X . @ X X X X X X X X X X X X X X X X X X @ + X < A A t 7 & ; n n N W ! W b e.e.e.e.",
"e.e.e.j N W 2.T n J d # 3 # % A t @ O X X X X X X X X X X X X X X X X X X X + @ @ 2 A w r 4 > ; M M N W ! W b e.e.e.e.",
"e.e.e.j N W 2.Y n J d : u 3 % Z V 2 , + X X X X X X X X X X X X X X X X X X : 2 2 y A w t u 4 ; M M N W ! W b e.e.e.e.",
"e.e.e.j N W 2.Y n J d # e 3 % Z S w < + X X X X X X X X X X X X X X X X X + : 2 y S y 5 t u > ; M M N W ! W b e.e.e.e.",
"e.e.e.j N W @.Y x M d # 7 > % A S w 2 # X X X X X X X X X X X X X X X X X @ : 2 A S : 5 r 7 > ; n n N W ! W b e.e.e.e.",
"e.e.e.j N W U N z n d # 7 > % 5 A w 2 < o X X X X X X X X X X X X X X X X + # 2 A S % 2 t e > ; x x m K W W b e.e.e.e.",
"e.e.e.j K W K N x m d # 7 < % 2 Z A 2 , o X X X X X X X X X X X X X X X X X # 2 V 5 : 5 t u > ; x x M N E W n e.e.e.e.",
"e.e.e.j J Y N M x N d # 7 < $ , , w 2 , o X X X X X X X X X X X X X X X X X : V A $ $ , r e > ; m m n N I Y x e.e.e.e.",
"e.e.e.j N N m n l z d # 4 & $ , + y w , o X X X X X X X X X X X X X X X X X : V S : , 5 r 7 > 9 z l v m M J z j e.e.e.",
"e.e.j z b b x x z M k : 4 & $ : O y w , o X X X X X X X X X X X X X X X X X : V A 8 5 5 r 4 > q N n x x x n x z l e.e.",
"e.e.j I } } } ) U } L : 4 & @ $ O : 2 , o X X X X X X X X X X X X X X X . X : y : , 2 , r 4 & h } } } } } } } E z e.e.",
"e.e.j ~ 2.4.4.,.>.2.~ @ > & O $ $ X , > X X X X X X X X X X X X X X X X . X : 2 O : : , r 3 # h *.>.>.>.>.>.>.{ c e.e.",
"e.e.N m J I Y K J K z @ & # O $ $ X , + X X X X X X X X X X X X X X X X X X : 2 O , , 2 r < @ 0 n N J J J J N n j e.e.",
"e./ _ N N M M N N N l @ > & O $ $ X , + X X X X X X X X X X X X X X X X X X @ < O , : , r 3 # q N N N N N N N N L e.e.",
"e.4.4.=.=.o.&.=.=.;.U : 7 < O $ $ O @ X X X X X X X X X X X X X X X X X X X X @ O % $ : r e > h =.=.=.=.=.=.=.;.5.| e.",
"! ( ( o.o.&.;.;.;.;.U : 7 < $ $ @ $ @ X X X X X X X X X X X X X X X X X X X X O @ $ $ : t e > h X.&.;.;.;.-.#.#./ ! ! ",
"%.K M U Y ! ! E T E M : 7 3 , , $ $ $ X X X X X X X X X X X X X X X X X X X X @ $ $ $ , t u > a I Y W E T Y Y P m } ;.",
"<.P M U Y T T Y I J l % 7 3 @ % $ $ $ X X X X X X X X X X X X X X X X X X X X @ $ % i , r u > q N K Y Y U U Y K m  .6.",
"<.P M I I I I N N M j @ 3 > % , $ $ $ X X X X X X X X X X X X X X X X X X X X @ $ % i p t 4 # 0 m M N K I I I K m  .6.",
"<.I x n n n n x x x g @ > & , 2 $ $ $ X X X X X X X X X X X X X X X X X X X X @ $ % r i 8 < # 9 x x x n n n n x M @.6.",
"6.*.E E E E E E E W N @ > & , , $ O @ X X X X X X X X X X X X X X X X X X X X @ + : 5 8 5 < # d W E E E E E E E } 5.6.",
"4.5.4.4.4.4.4.4.4.4.^ @ > & @ % O X O X X X X X X X X X X X X X X X X X X X X O @ @ % 5 2 < @ j 2.4.4.4.4.4.2.2.4.3.1.",
"J ] } } } } } ] W T m @ & + , , @ X X X X X X X X X X X X X X X X X X X X X X X X < i 5 2 & @ s Y E ] } } } E T E Y v ",
"m Y Q ! ! ! W Y U I n @ # + % @ X X X . . . . . . . . . . . . . . . . . . . . X . X o O % # + a I I Y E ! W ! W Y J j ",
"m U T W W E Y U K N x - - - - - - - - - - - - - - - - - - - - - - - - - - - - - - - - - - - = s N N I Y E Y E E Y N l ",
"m U I K K K K K N M x f z v m x z z z l z z z x n z z z z z z z z z z z z z l l z z z z z z h h M M N K K K K K U J l ",
"x N m v v v v v v v z z N I E I J J N z m N N I Y J J J J J J J J J J J J N c n N J J J N M n l v v v v v v v n M m j ",
"l x v m M M M M M M M N I W ! W E E T M M K E W W E E E E E E E E E E E Y P M N I E E E I K N m v m M M M M M M M m j ",
"z N K Y E E E E E E E E W ! ! ! ! ! ! J K E ..;.;.;.;.;.O.! -.;.;.;.<.&.! Y N K Y W ! ! E E E I K I U U U U U U Y J l ",
"n P _ 2.4.4.4.;.| ..2.4.4.2.2.2.2.+.Q K E ! @.6.6.6.6.6.3.4.6.6.6.6.6.5.4.+.L K E -.4.2.4.4.,.:.o.W W W W W W E Y J l ",
"m Y *.6.6.6.6.0.7.5.8.0.6.6.6.6.6.4.} K W ..4.6.6.6.6.6.6.6.6.6.8.q.w.w.0.5.) Y =.6.6.6.8.0.6.9.9.7.7.5.4.4.2.} Q U l ",
"N W &.5.5.5.5.6.6.5.5.5.5.5.5.5.5.5.} Y W !  . . ...;.5.5.5.5.5.5.6.6.6.5.5.' E }  ...@.3.6.9.5.6.6.6.5.5.5.5.2.2._ z ",
"I Y T E E E E E E E E E E E E E E E Y Y Y Y Y Y Y Y T E E E E E E E E E E E Y Y Y Y Y Y E / / E E E E E E E E / / Y L "
};
