/* XPM */
static char *ZXpnaWYuY29tLWdpZi1tYWtlci0z_5[] = {
/* columns rows colors chars-per-pixel */
"59 75 256 2 ",
"   c #0A0E08",
".  c #0D100B",
"X  c #10130E",
"o  c #131512",
"O  c #161915",
"+  c #191A17",
"@  c #1B1D1A",
"#  c #221D1B",
"$  c #1E211D",
"%  c #22221E",
"&  c #28221F",
"*  c #1D1E21",
"=  c #1D2125",
"-  c #1D252B",
";  c #1F2A34",
":  c #222521",
">  c #2B2522",
",  c #252A23",
"<  c #2A2B26",
"1  c #21262B",
"2  c #2B2D2A",
"3  c #312A26",
"4  c #342D2A",
"5  c #2C322B",
"6  c #2F382D",
"7  c #34312E",
"8  c #38312E",
"9  c #30382E",
"0  c #202B33",
"q  c #222F3B",
"w  c #24313B",
"e  c #333432",
"r  c #3C3431",
"t  c #353C33",
"y  c #383837",
"u  c #3B3C3A",
"i  c #403E3D",
"p  c #364134",
"a  c #384236",
"s  c #3D443B",
"d  c #3E4A3C",
"f  c #41403F",
"g  c #404E3E",
"h  c #243442",
"j  c #26394A",
"k  c #273D52",
"l  c #293E51",
"z  c #2A4157",
"x  c #2C455C",
"c  c #2D4760",
"v  c #2E4A64",
"b  c #2F4E69",
"n  c #304F6A",
"m  c #2F506C",
"M  c #30516D",
"N  c #325573",
"B  c #335876",
"V  c #345B7B",
"C  c #385E7E",
"Z  c #3A617F",
"A  c #444543",
"S  c #454944",
"D  c #484C47",
"F  c #4B4C4A",
"G  c #445241",
"H  c #485846",
"J  c #4D514C",
"K  c #535453",
"L  c #545953",
"P  c #585A56",
"I  c #5C5D5C",
"U  c #5E625D",
"Y  c #636463",
"T  c #686767",
"R  c #666965",
"E  c #686967",
"W  c #6C6C6C",
"Q  c #6E796C",
"!  c gray45",
"~  c #787977",
"^  c #7B7B7B",
"/  c #365F80",
"(  c #366185",
")  c #3A6383",
"_  c #376489",
"`  c #38668A",
"'  c #3A698E",
"]  c #3A6C93",
"[  c #3B6F98",
"{  c #3F7097",
"}  c #3D729B",
"|  c #3D76A1",
" . c #3E78A6",
".. c #3E7AA8",
"X. c #406D8E",
"o. c #427194",
"O. c #447397",
"+. c #40729A",
"@. c #41749B",
"#. c #43759A",
"$. c #42769E",
"%. c #4377A0",
"&. c #4378A1",
"*. c #4478A1",
"=. c #447BA4",
"-. c #487DA4",
";. c #417EAD",
":. c #427DAA",
">. c #487FA8",
",. c #4A80A7",
"<. c #4380AF",
"1. c #4B84AE",
"2. c #4A82AB",
"3. c #4785B3",
"4. c #4683B2",
"5. c #4C86B1",
"6. c #4D89B5",
"7. c #4C88B4",
"8. c #4D8BB8",
"9. c #4E8BB8",
"0. c #4D8CBA",
"q. c #4C8CBA",
"w. c #508CB7",
"e. c #508DB9",
"r. c #518EBB",
"t. c #4F90BE",
"y. c #5191BE",
"u. c #5394C2",
"i. c #5798C6",
"p. c #599AC6",
"a. c #579AC8",
"s. c #5A9DCB",
"d. c #5DA1CE",
"f. c #61A1CA",
"g. c #64A6D1",
"h. c #68A9D2",
"j. c #838383",
"k. c gray54",
"l. c gray58",
"z. c #979798",
"x. c #9B9B9B",
"c. c #A2A2A2",
"v. c gray68",
"b. c gray70",
"n. c #BBBBBB",
"m. c gray76",
"M. c gray80",
"N. c #D0D0D0",
"B. c None",
"V. c black",
"C. c black",
"Z. c black",
"A. c black",
"S. c black",
"D. c black",
"F. c black",
"G. c black",
"H. c black",
"J. c black",
"K. c black",
"L. c black",
"P. c black",
"I. c black",
"U. c black",
"Y. c black",
"T. c black",
"R. c black",
"E. c black",
"W. c black",
"Q. c black",
"!. c black",
"~. c black",
"^. c black",
"/. c black",
"(. c black",
"). c black",
"_. c black",
"`. c black",
"'. c black",
"]. c black",
"[. c black",
"{. c black",
"}. c black",
"|. c black",
" X c black",
".X c black",
"XX c black",
"oX c black",
"OX c black",
"+X c black",
"@X c black",
"#X c black",
"$X c black",
"%X c black",
"&X c black",
"*X c black",
"=X c black",
"-X c black",
";X c black",
":X c black",
">X c black",
",X c black",
"<X c black",
"1X c black",
"2X c black",
"3X c black",
"4X c black",
"5X c black",
"6X c black",
"7X c black",
"8X c black",
"9X c black",
"0X c black",
"qX c black",
"wX c black",
"eX c black",
"rX c black",
"tX c black",
"yX c black",
"uX c black",
"iX c black",
"pX c black",
"aX c black",
"sX c black",
"dX c black",
"fX c black",
"gX c black",
"hX c black",
"jX c black",
"kX c black",
"lX c black",
"zX c black",
"xX c black",
"cX c black",
"vX c black",
"bX c black",
"nX c black",
"mX c black",
"MX c black",
"NX c black",
"BX c black",
"VX c black",
"CX c black",
"ZX c black",
"AX c black",
"SX c black",
"DX c black",
"FX c black",
"GX c black",
"HX c black",
"JX c black",
"KX c black",
"LX c black",
"PX c black",
"IX c black",
"UX c black",
/* pixels */
"B.B.B.B.B.B.B.B.B.B.B.B.B.B.B.B.B.B.B.B.B.B.B.B.B.B.B.B.B.B.B.B.B.B.B.B.B.B.B.B.B.B.B.B.B.B.B.B.B.B.B.B.B.B.B.B.B.B.B.",
"B.B.B.B.B.B.B.B.B.B.B.B.B.B.B.B.B.B.B.B.B.B.B.B.B.B.B.v v v v v B.B.B.B.B.B.B.B.B.B.B.B.B.B.B.B.B.B.B.B.B.B.B.B.B.B.B.",
"B.B.B.B.B.B.B.B.B.B.B.B.B.B.B.B.B.B.B.B.B.B.B.x c v V ] V V ] ] N v x x B.B.B.B.B.B.B.B.B.B.B.B.B.B.B.B.B.B.B.B.B.B.B.",
"B.B.B.B.B.B.B.B.B.B.B.B.B.B.B.B.B.B.B.B.B.b b v N [ | ..( ` ;...} ] m b b b B.B.B.B.B.B.B.B.B.B.B.B.B.B.B.B.B.B.B.B.B.",
"B.B.B.B.B.B.B.B.B.B.B.B.B.B.B.B.B.B.B.x b ] } } | ..<.<.( #.8.<.<...| } } ] b x B.B.B.B.B.B.B.B.B.B.B.B.B.B.B.B.B.B.B.",
"B.B.B.B.B.B.B.B.B.B.B.B.B.B.B.B.B.B.x b ] ..<.4.4.3.e.u.o.O.y.e.e.3.4.4.<. .` b x B.B.B.B.B.B.B.B.B.B.B.B.B.B.B.B.B.B.",
"B.B.B.B.B.B.B.B.B.B.B.B.B.B.B.B.x b b ` <.3.q.e.e.1.] =.' N ' ] [ 5.e.e.6.3.;.( M M x B.B.B.B.B.B.B.B.B.B.B.B.B.B.B.B.",
"B.B.B.B.B.B.B.B.B.B.B.B.B.B.x b B ' V { 9.5.[ ] ] ' ( _ B b V ( ( ' ] ] { 6.9.' o.@.B v x B.B.B.B.B.B.B.B.B.B.B.B.B.B.",
"B.B.B.B.B.B.B.B.B.B.B.B.B.b V `  .4.@.O.[ ' ' ` ( V B B V M M B B / ( ` ' ' O.O.1.7. .( V b B.B.B.B.B.B.B.B.B.B.B.B.B.",
"B.B.B.B.B.B.B.B.B.B.B.x v _ ....4.6.1.` B / ( / B B B B B b M B B B B / ( V B ' 5.7.<... .( v x B.B.B.B.B.B.B.B.B.B.B.",
"B.B.B.B.B.B.B.B.B.B.x v _  .<.q.7.@.` ( N b N B B B N b b v b n N B B B N b N ( ' $.6.q.;. .( v x B.B.B.B.B.B.B.B.B.B.",
"B.B.B.B.B.B.B.B.B.x v _  .<.6.>.+.( V B B M n N b b v j ; ; 0 l b b b N b M B B V ( $.>.6.;. .( v x B.B.B.B.B.B.B.B.B.",
"B.B.B.B.B.B.B.B.B.v _  .<.6.$.` ( B B b v v x x ; - - = @ # # - - - 0 x x v v M B B _ ' *.6.;. .( v B.B.B.B.B.B.B.B.B.",
"B.B.B.B.B.B.B.B.v `  .<.6.$._ V B B b q - - - = # # # # > 3 > # # # # - - - - h M B B V ` &.9.;. .( x B.B.B.B.B.B.B.B.",
"B.B.B.B.B.B.B.c n } <.6.@.` ( B N v q # > & > & < 3 4 4 4 4 4 4 4 3 > & > & > @ h b N B ( ' &.9.;.] v x B.B.B.B.B.B.B.",
"B.B.B.B.B.B.x x O.4.6.+.` B B b h = # > 4 4 r 4 > 8 r r r r r r r 4 > 4 r 4 4 > : = j M B V ` $.7.<.' x x B.B.B.B.B.B.",
"B.B.B.B.B.B.b b M -.+./ ( B n h : > 3 4 8 8 r 4 > 4 @ + @ @ + @ # 4 > 8 r 8 8 4 3 > : j M B ( ( [ ` M b b B.B.B.B.B.B.",
"B.B.B.B.B.M ` | ( M _ ` B n h : 8 4 > 4 8 4 & @ @ % , % 5 % @ : : @ + # : 8 8 4 > 4 4 : j M B ` / M ` | _ b B.B.B.B.B.",
"B.B.B.B.x ( ..<.5.C V ( M h @ > 8 4 & + @ : t 9 5 5 , , 5 % @ % % 2 9 t t % @ + & 4 4 > * j B ( B ) 7.<. .V B.B.B.B.B.",
"B.B.B.B.M `  .t.*.( M b j @ > 4 8 # o : y F J t 2 @ o O + o o o o , t s K D 5 + o > 8 4 > * l n N ( 2.q..._ m B.B.B.B.",
"B.B.B.x / } =.7.{ B B z @ > 4 8 & + : s R W J 2 O O O @ @ o o o O o o 6 T ~ D 2 % + > 8 4 > * x B V $.6.<. .B B.B.B.B.",
"B.B.B.x V ] 5.=.` B b q @ 4 8 & + 2 J E ! P 2 + @ $ $ $ @ O O @ $ @ o + A ! ! U S , + > 8 4 @ h M V ( >.8. .B B.B.B.B.",
"B.5.v x B ( 2.=.( B x @ # 4 < + 2 t E ^ T u @ @ $ $ $ $ $ + o @ : , $ o : I ! j.U 9 , + 4 4 @ = v B / >.8. .B x n y.B.",
"B.u.$.V M B >.=.B B x @ # > > % t A R I u , $ : , , : $ $ + O $ : : % @ + 5 F ! Y s 6 @ > > # = v B V 1.8.] M / *.i.B.",
"B.' 2.1.V M 2.=.( B x = 4 4 % 5 t D I e o o @ % : : $ $ $ + O $ $ $ $ $ o o @ A I S 5 @ @ 8 4 - v B _ 1.8.V ( 5.=.` B.",
"B.b ] 1.O.b ,.=./ B x = 8 8 $ 9 t 5 : + : : @ $ : , , , % + + , , : $ @ @ 2 o + 2 t t 2 @ r 4 - v B ( 1.-.M *.>.` v B.",
"B.M ] ' ' M #.$.B N x * 4 < : t 2 @ @ e K y @ @ : : : : $ + O $ : : $ @ : K F o + 5 t t $ 4 3 = v N B =.X.N ' ' ] b B.",
"B.v b M M m N N M b x * 4 4 : t 2 $ @ s ! I 2 $ , , : $ $ + O $ : , : $ A j.I O + 5 a t % 8 3 = x v b N M M N N N v B.",
"B.B.n ( ] } ] ] ] ] c * 4 4 : a 6 $ O F W F : + o $ , , % + @ , , $ o O 2 ! E e O : G d % 8 3 = v N B ( ' } } } ] B.B.",
"B.B.n ( ( V N B N N x * 3 > : G d $ O A S e K F O . X + $ O O @ X . @ F 2 e I e + $ d s $ < > = x M N N N V ( ( n B.B.",
"B.B.c v v b v v v v z @ & > : G d @ o : 2 F j.! y O .   . X X . . @ u ^ E : e o O $ t a $ > # = x v v v v b v v c B.B.",
"B.B.B.x b B B B v M x @ & > : d p O 2 : @ F j.x.k.Y F y 7 : o , S T j.l.I :   : 2 @ G d $ > # = v M b B B B b B.B.B.B.",
"B.B.B.x M / B B v M x * > > : t 5 O T P 2 F ^ c.m.n.v.x.j.A 2 ! x.n.b.k.K 2 2 j.K O G d $ < > = v M b B / ( M B.B.B.B.",
"B.B.B.x B ' ( / b M x * > & : t 5 O K ^ A u E k.v.m.M.m.z.A A z.v.n.c.j.I 5 l.v.A O G d @ > > = v M M ( ' %.B B.B.B.B.",
"B.B.B.x V ] ' *.B B x = 4 < : d t @ 2 ^ j.! j.k.z.b.N.m.l.A A z.v.v.k.j.k.^ b.! = @ G d $ 4 4 - v B N ' ] q.) B.B.B.B.",
"B.B.B.x /  .] 6.( V x = r 8 : G d $ O F k.l.k.k.k.x.b.b.l.A u k.z.l.k.k.l.z.! < o $ p a % r 4 - b V N ' } 0.) B.B.B.B.",
"B.B.B.x V ..} 5.( N x @ > 8 : G d $ $ e E j.k.k.j.k.l.l.j.f y ^ k.j.k.j.k.j.A o $ , t 6 % r > = v N V [ } 0.( B.B.B.B.",
"B.B.B.x V .. .q.Z M x * 4 8 : G R A $ @ u W k.l.k.k.j.j.^ i e ^ k.k.l.l.k.T @ O $ J J 5 < r < = v n V  . .;.B B.B.B.B.",
"B.B.B.x B }  .:.B M x * 4 8 : g Q F @ O y ! z.x.x.l.k.k.^ i e ^ k.l.x.c.l.K X O $ P L 5 % r 3 - v M V  . . .B B.B.B.B.",
"B.B.B.x N } } } B M x * > > : G U E y : F ! l.c.b.m.n.x.^ i e j.v.m.m.v.k.I e o S E S 5 @ < & = v M V } } ..B B.B.B.B.",
"B.B.B.x N } [ } B M x * 3 < : G L K 5 < K Y ! j.k.z.b.b.k.u u l.n.b.c.j.Y I s   y P s 5 @ 4 < - v M V } } ..B B.B.B.B.",
"B.B.B.x N } } } N M x * 4 8 : G p u 2 e Y I A e 2 y T k.^ u u j.! y 2 e K W K o e s 6 6 @ r 3 - v n V } } ..B B.B.B.B.",
"B.B.B.x N } <.{ M N x * < 4 : G p e , S ^ ! A @ .   @ K E e 2 F @ . . : Y k.E e 2 2 6 p $ 4 > = v N N } .. .B B.B.B.B.",
"B.B.B.x N } 0.*.M / x * < > : d 9 $ + F j.l.! e . X 5 U T e 2 K 5 . . A c.l.E y $ $ d d @ > > = b B N } .. .B B.B.B.B.",
"B.B.B.x N } 0.*.M V x = r 8 : t , $ @ F ^ l.l.! K K T ^ ! y e W T K I l.n.j.E y @ $ d d % r 8 - b V N } .. .B B.B.B.B.",
"B.B.B.x N } 0.*.M / x * 4 8 : d 6 $ : s T ^ j.j.k.j.j.z.k.i u ! ^ k.l.c.l.W K < : $ d d % r 3 = b V N } .. .B B.B.B.B.",
"B.B.B.x N } 4.} M B x * 4 4 : G p $ 5 e K E W W E W k.v.j.2 u j.j.W E W W Y u + 5 $ d d $ 4 3 - v N N } .. .B B.B.B.B.",
"B.B.B.x B } ] / b M x * 4 4 : G p $ 5 % : A I Y T ! j.! F : : I j.W T Y K 2 @ @ 5 $ t a % 8 3 - v M n ( } ..B B.B.B.B.",
"B.B.B.x V  .` V M M x * 4 8 : G p $ 5 : + @ y s K ! ! F e : o A ^ ! F u $ o $ , 5 @ 2 t % r 3 - v M M V ]  .B B.B.B.B.",
"B.B.B.x B ] / B b B x * 4 8 $ t 5 $ , , , @ O @ A ! ^ E A : : Y j.! s O X , , : : @ 5 t % r 3 = v B b B ( ] N B.B.B.B.",
"B.B.B.x N V N N v b x * 4 < $ 6 , $ 5 , 2 $ . @ F ! ! ^ T 7 2 T ! W A O O 5 2 2 2 @ 2 t % 3 3 - x v v N B / m x B.B.B.",
"B.B.B.v b M b b v B m = 3 > $ 6 , $ 5 5 5 , : S E W ! ^ W e 5 Y ! W E A , 5 5 5 2 $ 5 t $ < < - B N b b b M b b v B.B.",
"B.B.B.B :.:.:.:.] &.{ - 3 > @ t 2 @ , 2 2 , : u F Y ! ! W e 5 I ! I A u 5 , 2 2 : + d d $ < > q =.:.:.:.:.:.:.=.M B.B.",
"B.B.B.( e.y.u.y.e.r.2.- & > @ d p O : : : , $ o @ F E W E e 2 Y W S o O , : : : : @ a s $ > # w 1.w.e.e.e.e.e.5.N B.B.",
"B.B.' M / ` ] ( / / B = # > @ a t + : , 2 5 2 $ O u ! j.E e 2 W ! 7 o % 5 5 2 , , @ 5 t $ > # - M B / / / / V N v B.B.",
"B.) 1.B V B B V V V M = > > $ t , + $ % , , 2 , 2 U ^ ^ W e 7 T ^ P : , 2 , : $ $ O 5 t $ > & - B V V V V V V V ) B.B.",
"..8.i.8.8.5.5.8.8.8.=.1 4 8 : s 5 O $ $ $ : : $ 5 K F A L 2 : 5 J K : : : $ $ $ $ O 5 t % r 3 w 5.8.8.8.8.8.8.q.i.3...",
"..| $.1.1.5.q.q.q.q.=.1 4 8 : G p O $ @ @ $ $ $ , y 2 5 a , O $ 5 y : $ $ O @ $ $ O t a % r 3 w =.5.9.q.q.q.5.7.$. ...",
"8.] M ` ] | ..} [ [ _ = 4 8 : G p O @ 6 6 , , , % + @ t d , $ , @ $ , : , a 5 O @ + d d % r 3 0 ( ] } | [ [ ] ] M } q.",
"i.[ N ` ] [ [ ] ` ( N = 4 8 : G p o 6 d 6 : : : % $ $ t s , $ , @ $ : : , a g 5 O o d d % r 3 ; V ( ] ] ' ' ' ` M | a.",
"i.[ M ` ` ` ` / B B n = > < $ t 5 6 g 9 : $ $ $ $ $ $ t d : $ , @ $ $ $ $ , a g G 2 d d $ 4 & - M B B ( ` ` ` ` M | a.",
"i.} b M M M M b b b c * & > @ 6 d G a , $ $ $ : 9 5 $ t d : $ , $ 5 6 % $ % 5 a d t a 9 @ > # - v b b b M M M M m =.a.",
"s.r.| } } } } } } | ] = & > @ 6 a a t $ @ : , , , a G G d : $ a G t $ $ , $ $ t t t t 5 @ < # 0 { | } } } } } } =.u.s.",
"y.i.u.u.u.u.u.u.u.u.2.- & > @ 5 9 t 2 $ $ $ $ $ % 6 p d d : $ t a 5 $ $ $ $ $ 5 t t t 5 @ > # w 9.u.u.u.u.u.y.y.y.i.y.",
"B | :.:.:.:.:.:. .{ ( = # # @ 5 5 9 d g G H H H G p 5 t a , @ 2 6 d H G a H H d t 6 5 2 @ # # ; ' {  .:.:.:.} { [ { M ",
"b ] | ...... .] ' ` V = @ @ @ , : , , , , , , , , , , 5 9 % + : , , , 2 2 , , , , , , , + @ + ; ( ` ' ]  . . . .] _ v ",
"b ` ] | | | ] ' _ B B - - - - - - - - - - - - - - - - - - - - - - - - 0 0 - - - - - - - - - - ; V V ` ' [ ] { | ] ( v ",
"b ` ` ( ( ( ( ( B B N j v b N M b b b v v b b b M b b b b b b b b b b b b b v v b b b b b b c k N B V ( ( ( ( ( ` _ v ",
"v B B n n n n n n n b v B ( } ] / / V b M B V ( ] ( / / / / / / / / / / / V M b B / / / / B N v b n n n n n n n B B v ",
"v b b M B B B B B B B V ( } .. .} } } V N ( [ }  .} } } } } } } } } } } [ ` B B ` ] } } ] ( / B n M B B B B B B B N v ",
"v V ( ' } } } } } } } } | ............( ( } :.q.0.0.0.t.3...3.t.0.0.0.9. .} ( / ' } ....| } } ' ( _ ' ' ' ' ' ' ' _ v ",
"b ( +.q.u.u.u.u.4.:.q.u.u.y.u.u.u.3. .( ]  .<.a.s.s.s.s.i.y.i.s.s.s.s.a.u.7.] / [ 5.u.y.u.u.y.e.5.| | | | | | } ] ( v ",
"b ] <.s.s.s.s.g.f.i.s.g.s.s.s.s.s.i.4._ } :.y.a.a.a.s.s.s.s.s.s.s.g.h.h.g.s.1.] 5.i.s.s.s.g.d.d.g.f.f.p.u.u.u.4. .{ b ",
"N } 4.i.i.i.i.p.s.p.p.p.p.i.i.i.i.p.5.] }  .;.<.<.<.7.i.i.i.i.i.p.s.s.s.p.p.5.[ :.<.<.<.u.s.f.p.s.s.s.a.p.p.i.u.u.5.M ",
"_ ] ] { { { { { { { { { { { { { { { [ ] ] ] ] ] ] ] [ { { { { { { { { { { { [ ] ] ] ] ] { +.@.{ { { { { { { { +.+.{ ` "
};
