/* XPM */
static char *ZXpnaWYuY29tLWdpZi1tYWtlci0z_33[] = {
/* columns rows colors chars-per-pixel */
"59 75 256 2 ",
"   c #0F110C",
".  c #14110F",
"X  c #151210",
"o  c #191614",
"O  c #171915",
"+  c #191916",
"@  c #1C1C1A",
"#  c #211E1C",
"$  c #1E221D",
"%  c #24221F",
"&  c #28221F",
"*  c #1C1F22",
"=  c #201F20",
"-  c #1E2124",
";  c #1D242B",
":  c #1F2932",
">  c #242422",
",  c #2A2522",
"<  c #262A25",
"1  c #2C2926",
"2  c #2B2C2A",
"3  c #302A27",
"4  c #342D2A",
"5  c #2C322B",
"6  c #31312E",
"7  c #39322E",
"8  c #31392F",
"9  c #212C36",
"0  c #212E3A",
"q  c #22313E",
"w  c #333433",
"e  c #3D3532",
"r  c #343A32",
"t  c #383A37",
"y  c #373938",
"u  c #3C3C3B",
"i  c #413935",
"p  c #374135",
"a  c #384337",
"s  c #3D443B",
"d  c #3E4B3C",
"f  c #40453F",
"g  c #404D3E",
"h  c #243644",
"j  c #243748",
"k  c #273B4D",
"l  c #273C50",
"z  c #293F53",
"x  c #2A4153",
"c  c #2C465E",
"v  c #2C485F",
"b  c #2C4760",
"n  c #2E4B64",
"m  c #2F4E69",
"M  c #304D66",
"N  c #304F6A",
"B  c #2F506C",
"V  c #30516D",
"C  c #325573",
"Z  c #335877",
"A  c #345B7B",
"S  c #39607E",
"D  c #434443",
"F  c #484947",
"G  c #4B4C4B",
"H  c #504F4E",
"J  c #455342",
"K  c #504F50",
"L  c gray33",
"P  c #565856",
"I  c #5A5A5A",
"U  c #626262",
"Y  c #365F80",
"T  c #366184",
"R  c #3A6486",
"E  c #37658A",
"W  c #38668B",
"Q  c #37688E",
"!  c #39698F",
"~  c #3A6C93",
"^  c #3B6F98",
"/  c #3F7097",
"(  c #3D729B",
")  c #3D75A1",
"_  c #3E79A6",
"`  c #3E7AA9",
"'  c #406E91",
"]  c #417094",
"[  c #42749B",
"{  c #46799F",
"}  c #4378A1",
"|  c #457AA2",
" . c #447BA5",
".. c #477EA7",
"X. c #437BA4",
"o. c #497DA2",
"O. c #4A7FA6",
"+. c #407DAA",
"@. c #427FAD",
"#. c #4680AB",
"$. c #4380AE",
"%. c #4A81A9",
"&. c #4B84AE",
"*. c #4982AC",
"=. c #4583B1",
"-. c #4684B2",
";. c #4B87B2",
":. c #4C87B3",
">. c #4887B5",
",. c #4C88B3",
"<. c #4B88B5",
"1. c #4B8AB8",
"2. c #4D8BB8",
"3. c #4E8DBA",
"4. c #4D8CBA",
"5. c #518CB6",
"6. c #508DB9",
"7. c #518FBC",
"8. c #4F90BE",
"9. c #5291BE",
"0. c #5191BE",
"q. c #5595C3",
"w. c #5394C2",
"e. c #5798C6",
"r. c #579AC8",
"t. c #5B9DCB",
"y. c #609FC9",
"u. c #5DA0CD",
"i. c #62A3CD",
"p. c #64A6D0",
"a. c #67A8D1",
"s. c #68A9D2",
"d. c None",
"f. c black",
"g. c black",
"h. c black",
"j. c black",
"k. c black",
"l. c black",
"z. c black",
"x. c black",
"c. c black",
"v. c black",
"b. c black",
"n. c black",
"m. c black",
"M. c black",
"N. c black",
"B. c black",
"V. c black",
"C. c black",
"Z. c black",
"A. c black",
"S. c black",
"D. c black",
"F. c black",
"G. c black",
"H. c black",
"J. c black",
"K. c black",
"L. c black",
"P. c black",
"I. c black",
"U. c black",
"Y. c black",
"T. c black",
"R. c black",
"E. c black",
"W. c black",
"Q. c black",
"!. c black",
"~. c black",
"^. c black",
"/. c black",
"(. c black",
"). c black",
"_. c black",
"`. c black",
"'. c black",
"]. c black",
"[. c black",
"{. c black",
"}. c black",
"|. c black",
" X c black",
".X c black",
"XX c black",
"oX c black",
"OX c black",
"+X c black",
"@X c black",
"#X c black",
"$X c black",
"%X c black",
"&X c black",
"*X c black",
"=X c black",
"-X c black",
";X c black",
":X c black",
">X c black",
",X c black",
"<X c black",
"1X c black",
"2X c black",
"3X c black",
"4X c black",
"5X c black",
"6X c black",
"7X c black",
"8X c black",
"9X c black",
"0X c black",
"qX c black",
"wX c black",
"eX c black",
"rX c black",
"tX c black",
"yX c black",
"uX c black",
"iX c black",
"pX c black",
"aX c black",
"sX c black",
"dX c black",
"fX c black",
"gX c black",
"hX c black",
"jX c black",
"kX c black",
"lX c black",
"zX c black",
"xX c black",
"cX c black",
"vX c black",
"bX c black",
"nX c black",
"mX c black",
"MX c black",
"NX c black",
"BX c black",
"VX c black",
"CX c black",
"ZX c black",
"AX c black",
"SX c black",
"DX c black",
"FX c black",
"GX c black",
"HX c black",
"JX c black",
"KX c black",
"LX c black",
"PX c black",
"IX c black",
"UX c black",
/* pixels */
"d.d.d.d.d.d.d.d.d.d.d.d.d.d.d.d.d.d.d.d.d.d.d.d.d.d.d.d.d.d.d.d.d.d.d.d.d.d.d.d.d.d.d.d.d.d.d.d.d.d.d.d.d.d.d.d.d.d.d.",
"d.d.d.d.d.d.d.d.d.d.d.d.d.d.d.d.d.d.d.d.d.d.d.d.d.d.d.b b b b b d.d.d.d.d.d.d.d.d.d.d.d.d.d.d.d.d.d.d.d.d.d.d.d.d.d.d.",
"d.d.d.d.d.d.d.d.d.d.d.d.d.d.d.d.d.d.d.d.d.d.d.c b n T ~ C T ~ ~ V b c c d.d.d.d.d.d.d.d.d.d.d.d.d.d.d.d.d.d.d.d.d.d.d.",
"d.d.d.d.d.d.d.d.d.d.d.d.d.d.d.d.d.d.d.d.d.m m n A ( ) ` A ^ ` _ ( ! m n m n d.d.d.d.d.d.d.d.d.d.d.d.d.d.d.d.d.d.d.d.d.",
"d.d.d.d.d.d.d.d.d.d.d.d.d.d.d.d.d.d.d.c C ( ( ( ) +.$.@.A %.>.$.$._ ( ( ( T b c d.d.d.d.d.d.d.d.d.d.d.d.d.d.d.d.d.d.d.",
"d.d.d.d.d.d.d.d.d.d.d.d.d.d.d.d.d.d.c C ( ` =.=.=.<.7.q.R O.0.7.4.=.=.=.@._ T n c d.d.d.d.d.d.d.d.d.d.d.d.d.d.d.d.d.d.",
"d.d.d.d.d.d.d.d.d.d.d.d.d.d.d.d.c m m ( =.>.4.6.6...~ %.A A ~ ~ ( ,.6.6.,.-.+.A C M c d.d.d.d.d.d.d.d.d.d.d.d.d.d.d.d.",
"d.d.d.d.d.d.d.d.d.d.d.d.d.d.c B A ~ C  .4.&.~ ~ ~ W T R C n A T E ~ ~ ~ } ,.<.A o.! C b d.d.d.d.d.d.d.d.d.d.d.d.d.d.d.",
"d.d.d.d.d.d.d.d.d.d.d.d.d.C A ~ ` =.] [ ~ ! ! E T A C C A N C Z A T E ! ! ! [ ] 5.=.) Y A b d.d.d.d.d.d.d.d.d.d.d.d.d.",
"d.d.d.d.d.d.d.d.d.d.d.c m ~ ` ` -.:.%.A A T T A C C C C C n C C C C A T T A C [ :.<.+.` ) A c d.d.d.d.d.d.d.d.d.d.d.d.",
"d.d.d.d.d.d.d.d.d.d.c m ~ ` =.4.;.^ W Y V V C C C C V m m b n N C C C C V m Z E ! ..2.1.+.) A c d.d.d.d.d.d.d.d.d.d.d.",
"d.d.d.d.d.d.d.d.d.c m ~ ` =.;...^ T A Z C V V C n m b h : : 9 x n n V C m C C A Y E | %.<.+.) A c d.d.d.d.d.d.d.d.d.d.",
"d.d.d.d.d.d.d.d.d.m ~ ` =.;./ W T Z C n n b c z ; ; : - @ @ @ ; ; ; q b b n n V C A E ! ..<.+.) A c d.d.d.d.d.d.d.d.d.",
"d.d.d.d.d.d.d.d.m ~ ` =.;./ T A A C b 9 ; ; ; - # # # # , 1 & # # # # ; ; ; ; k V C A A ! ..<.` ) A d.d.d.d.d.d.d.d.d.",
"d.d.d.d.d.d.d.c C ) =.,.^ W Y C C c 9 # , & , & 3 3 4 4 4 4 4 4 4 3 , & , & & * k V C A E ! ..<.@.T b d.d.d.d.d.d.d.d.",
"d.d.d.d.d.d.c n | -.,.^ T A Z n 9 - % 1 4 4 e 3 1 7 e e e e e e e 4 , 7 7 4 4 , - ; z C A A ! ..>.#.S c d.d.d.d.d.d.d.",
"d.d.d.d.d.d.m m Z %.~ Y T C b 9 & , 3 4 7 7 e 4 , 1 o + + + + o # 4 , e e 7 7 4 1 , > z C A T R ( T N m n d.d.d.d.d.d.",
"d.d.d.d.d.C ~ ( A C E T Z n 9 , 7 3 1 7 e 4 o o o X X X X X X X X o X o , 7 7 4 , 7 4 - z C A ! A V ~ ) A d.d.d.d.d.d.",
"d.d.d.d.b Q ` =.%.Z Y T m 9 # 1 7 1 # o X X X X X X X X X X X X X X X X X o o + , 4 4 & - x A T C ~ <.@.) V d.d.d.d.d.",
"d.d.d.d.C ~ ` 0.( A N n q # 1 7 4 @ X X X X X X X X X X X X X X X X X X X X X X X 1 7 4 & - c N C E ,.>._ Y d.d.d.d.d.",
"d.d.d.c W ( #.;.~ A C j @ 1 7 4 , + X X X X X X X X X X X X X X X X X X X X X X X X 1 7 4 & ; n C T ..<.@.) V d.d.d.d.",
"d.d.d.c T ~ 6.( E C b : # 7 4 1 t > . X X X X X X X X X X X X X X X X X X X X X X 4 > 1 7 1 * k V T E :.-.) V d.d.d.d.",
"d.| c c A E ,.( Y C k @ & 7 , 4 D > O X X X X X X X X X X X X X X X X X X X X X , H r + 4 1 + : m A T ,.-.) N c Z d.d.",
"d.6.] C C A ,.( A C k @ & 1 # 4 D 1 @ + X X X X X X X X X X X X X X X X X X o + > F F # 1 , # : m C T ,.-.E m E %.t.d.",
"d.~ ;...C C ,.[ T C k % e 1 1 u 5 $ @ @ X X X X X X X X X X X X X X X X X X @ @ O > D 5 , 7 1 : m A W ,.#.C ! ,.{ R d.",
"d.C ^ ;.R V ,.( A C k % e 1 % < 5 < @ @ X X X X X X X X X X X X X X X X X o @ $ < @ > 5 > e 1 : m A W ,.] V *.} T b d.",
"d.A ~ ~ E V O.~ C V k # 4 , + 2 u < @ @ X X X X X X X X X X X X X X X X X + @ @ 5 $ @ 5 > 7 , : m C Y *.S A ~ ! W b d.",
"d.n m V V m Z C V m k # 7 1 + 2 u > @ @ X X X X X X X X X X X X X X X X X + @ O F y $ 5 1 e , : b n m C V V V C C b d.",
"d.c C E ~ ( ~ ~ ^ W l @ 7 1 + < y < @ + X X X X X X X X X X X X X X X X X + O $ G F r s 1 e , : m C A T ~ ( ( ( ~ d.d.",
"d.d.C T T A C C C C k @ 4 & + < 1 5 @   X X X X X X X X X X X X X X X X X .   s w w w a < 4 , : n C C C C Y T Y m d.d.",
"d.d.b b n n n n b n k @ , & + $ > > + X X X X X X X X X X X X X X X X X X . . $ + > $ 5 > 1 # : b b b n n n b b c d.d.",
"d.d.d.c V C C C n V k @ , & O < y w < > @ X X X X X X X X X X X X X X X X X @ t t < @ p < 1 # : m m N C C A n d.d.d.d.",
"d.d.d.c C Y A C n V k @ 1 & O G P t 6 , > + X X X X X X X X X X X X X X X @ > I P D < p < 3 & : m N N A Y T n d.d.d.d.",
"d.d.d.c A ! T A n V k @ , # O G L D y < > @ X X X X X X X X X X X X X X o % > G G I t a > , & : m m C E ~ { V d.d.d.d.",
"d.d.d.c T ~ ~ | C A k % 4 , + u P K y < > @ X X X X X X X X X X X X X X o % w G I U y a < 4 1 : V V A ! ( 6.Z d.d.d.d.",
"d.d.d.c E ) ^ ,.Z Y k % i 3 + 5 G P y < > @ X X X X X X X X X X X X X X o > t G P D < 5 1 i 1 : C C A ! _ 6.Z d.d.d.d.",
"d.d.d.c W ` ( ,.Z C k @ 4 3 @ 2 G I y < > @ X X X X X X X X X X X X X o @ > t G P w $ 2 < e & : V V T ~ ) 4.Z d.d.d.d.",
"d.d.d.c E ` _ ,.C V k @ 7 1 w F H I y < > @ X X X X X X X X X X X X X o > 1 u G P w $ 5 2 e , : m m W _ _ +.V d.d.d.d.",
"d.d.d.c Y ) ` X.V V k @ 7 1 u D D I y < > @ X X X X X X X X X X X X X o > y F G P w @ 2 1 e , : m m W ` ` ) B d.d.d.d.",
"d.d.d.c A ) ( ( V V k @ 1 & u s D L t 2 < @ X X X X X X X X X X X X X o > y F G G 6 D D > 3 # : m m W ( ) ) V d.d.d.d.",
"d.d.d.c A ) ~ ( V V k @ 4 & w y u G D w < @ X X X X X X X X X X X X X o > < u D F 5 F D > 4 , : m m W ( ) ) V d.d.d.d.",
"d.d.d.c A ) ( ^ V V k # 7 3 % < u D 2 > > @ X X X X X X X X X X X X X o % > > w D w G s > e , : m m T ( ) ) V d.d.d.d.",
"d.d.d.c A ) $.~ m C k @ 4 , @ > t w X . O @ X X X X X X X X X X X X X o @ X . w D F P D < 4 & : V V A ) ` ) V d.d.d.d.",
"d.d.d.c A ) 0.^ B Y l @ 3 # O % u w @ + % X X X X X X X X X X X X X X X @ @ + y F F s g < 1 , : C C A ) ` ) V d.d.d.d.",
"d.d.d.c A ) 0.^ V Y k > i 3 + % x D 2 > , @ X X X X X X X X X X X X X X @ > < D L L f g 2 i 4 : C C A ) ` ) V d.d.d.d.",
"d.d.d.c A ) 0.^ V Y l # 7 3 o < F L u < > > X X X X X X X X X X X X X o > > w D I F r g 2 e , : C C A ) ` ) V d.d.d.d.",
"d.d.d.c A ) -.~ m Z k @ 4 , + 5 G L u 2 > > X X X X X X X X X X X X X o > , u L I w < d 1 7 , : V V A ) ` ) V d.d.d.d.",
"d.d.d.c A ) ~ A n V k @ 7 1 o > w D D 2 > > X X X X X X X X X X X X X o , > 4 D D < < r 1 7 , : m m C T ) ) V d.d.d.d.",
"d.d.d.c T _ T A m C k # 7 4 O > 2 t t 2 > + X X X X X X X X X X X X X X @ > < w 2 > 2 5 1 e , : m N C A ( ) V d.d.d.d.",
"d.d.d.c Y ~ A Z m A k # 7 3 O $ > % < 2 , X X X X X X X X X X X X X X X @ > 2 2 5 > > 5 1 e , : C C V A E ~ m d.d.d.d.",
"d.d.d.c Z A C V b n k # 4 , O $ $ $ < 2 , X X X X X X X X X X X X X X X @ > u t 6 < < 5 > 4 , 9 n b m C C Y n c d.d.d.",
"d.d.c n B B m m n Z v # 4 & O > $ $ < 2 , X X X X X X X X X X X X X X X @ , D y 5 5 5 8 > 4 , q A C m m m V m n b d.d.",
"d.d.c R +.+.+.X.! +.T @ 3 & X $ $ O + < > X X X X X X X X X X X X X X . @ w 2 $ % < < s < 3 & x +.+.+.+.+.+.+.( n d.d.",
"d.d.x ' 0.w.w.7.6.0.] @ , & X $ $ O O > + X X X X X X X X X X X X X X X + w 2 O @ > < p < 1 # x ,.6.6.6.6.6.6.O.M d.d.",
"d.d.A C Y W ~ T Y T n @ & # X $ % @ + % O X X X X X X X X X X X X X X X . 2 2 $ > < < 5 > , # 0 V A Y Y Y Y A V c d.d.",
"d.[ ..A A C A A A A b @ , & X @ $ @ O @ X X X X X X X X X X X X X X X X . > > $ $ > > 5 > 1 # q A A A A A A A A R d.d.",
"` 8.q.1.1.&.<.1.1.4.! = e 3 X @ $ $ + X X X X X X X X X X X X X X X X X X X X @ $ $ % 5 1 e , x 1.1.1.1.1.1.1.3.r.$.` ",
"` } | *.*.<.4.4.4.3.~ = e 3 O @ $ $ @ X X X X X X X X X X X X X X X X X X X + @ @ $ % r 1 e , x *.;.4.4.4.2.;.;.[ _ ` ",
">.W C W ~ _ _ ( ^ ( Z @ 7 3 + @ $ $ $ O X X X X X X X X X X X X X X X X X X O % 5 $ $ s 2 e , h W ~ ) ( ^ ~ ~ W C +.3.",
"0.W C ! ~ ^ ^ ~ E Y b # 7 3 X 2 < $ $ O X X X X X X X X X X X X X X X X X X O $ 5 r 5 s 2 e , q A T ~ ~ ! ! ! T C #.t.",
"8.W C W E E E A A C c @ 1 , + 5 < $ $ O X X X X X X X X X X X X X X X X X X + $ $ 8 g J 1 4 # 0 C Z A T W W W T C #.t.",
"w.! m V V V V m m m z @ , & 5 p < $ $ O X X X X X X X X X X X X X X X X X X O $ $ 5 s a > 1 # 9 m m m V V V V B C =.t.",
"t.<.( ( ( ( ( ( ( ) A @ , & 2 r < % @ + X X X X X X X X X X X X X X X X X X O $ > 5 r 8 > 1 # k ) ( ( ( ( ( ( ( +.e.t.",
"9.e.w.w.w.w.w.w.w.w.] @ , & % < O O O + X X X X X X X X X X X X X X X X X + @ @ @ $ 2 5 % , @ c 0.w.w.w.w.w.0.0.w.q.9.",
"A X.+.+.+.+.+.X._ ( C @ # + % < @ @ + X X X X X X X X X X X X X X X X X X O @ + @ p a 5 $ & @ j ^ ( X.+.+.+.( ^ ( ~ N ",
"C ~ _ ` ` ` ) ~ ! W V @ # o @ $ + X X X X . . . . . . . . . . . . . . . . . . . X $ % $ @ @ + h W W ~ ( _ ) _ ) ~ Y c ",
"C W ^ ) ) ) ~ ! T A B - ; ; ; ; ; ; ; ; ; ; ; ; ; ; ; ; ; ; ; ; ; ; ; ; ; ; ; ; ; ; ; ; ; ; - h Y A E ! ( ~ ( ( ~ Y c ",
"C ! E T T T T T A Z m l n m C m n n n b n n n m V n n n n n n n n n n n n n b b n n n n n n x x C C A T T T T T ! Y c ",
"m A C N N N N N N N n n A W ( E Y T A n C Z A E ~ Y Y Y Y Y Y Y Y Y Y Y Y A n V A Y Y Y A Z V b N N N N N N N V C C c ",
"b m m C Z C C C C C C A E ) ` ) ( ( ^ C C T ( ) ) ( ( ( ( ( ( ( ( ( ( ( ~ E C A E ^ ( ( ! T A C N C Z Z Z Z Z Z Z C c ",
"n A T ~ ( ( ( ( ( ( ( ( ) ` _ ` ` ` _ Y T ( $.3.3.3.3.3.=.` 1.3.3.3.8.<._ ~ A T ~ ) ` _ ( ( ( W T E ! ! ! ! ! ! ~ Y b ",
"V W | 7.w.w.w.0.@.@.0.w.w.0.0.0.0.=._ T ( ` -.t.t.t.t.t.e.w.r.t.t.t.t.r.w.;.E T ( 2.w.0.w.w.0.5.*.) ) ) ) ) ) ( ~ Y b ",
"C ~ <.t.t.t.t.p.y.e.u.p.t.t.t.t.t.e.+.T ) @.w.r.r.r.t.t.t.t.t.t.t.a.s.s.p.e.} ~ <.r.t.t.u.p.t.i.i.y.y.e.w.w.0.+._ ! c ",
"A ) <.e.e.e.e.t.t.e.e.e.e.e.e.e.e.e.+.~ ) _ #.#.#.$.4.e.e.e.e.e.e.t.t.t.e.e...( @.#.$.=.e.t.i.e.t.t.t.e.e.e.e.0.0.O.n ",
"E ~ ^ ( ( ( ( ( ( ( ( ( ( ( ( ( ( ( ~ ~ ~ ~ ~ ~ ~ ~ ^ ( ( ( ( ( ( ( ( ( ( ( ~ ~ ~ ~ ~ ~ ( [ [ ( ( ( ( ( ( ( ( [ [ ^ T "
};
