/* XPM */
static char *ZXpnaWYuY29tLWdpZi1tYWtlci0z_30[] = {
/* columns rows colors chars-per-pixel */
"59 75 256 2 ",
"   c #0B0F09",
".  c #0D110C",
"X  c #14110F",
"o  c #151210",
"O  c #191614",
"+  c #161915",
"@  c #1A1916",
"#  c #1C1D1A",
"$  c #211D1B",
"%  c #1E221D",
"&  c #23211F",
"*  c #28231F",
"=  c #1D1F22",
"-  c #201F20",
";  c #1E2124",
":  c #1D242B",
">  c #1E2730",
",  c #1F2831",
"<  c #242522",
"1  c #2B2522",
"2  c #252A24",
"3  c #2D2926",
"4  c #2C2C2B",
"5  c #312A27",
"6  c #332D29",
"7  c #2D332C",
"8  c #2F382D",
"9  c #32332E",
"0  c #39312E",
"q  c #31382F",
"w  c #202B35",
"e  c #212D38",
"r  c #22313C",
"t  c #333332",
"y  c #3D3532",
"u  c #353B34",
"i  c #3B3B3A",
"p  c #403835",
"a  c #374135",
"s  c #384336",
"d  c #3B4339",
"f  c #3E4A3C",
"g  c #41403F",
"h  c #404D3E",
"j  c #243544",
"k  c #273C4E",
"l  c #273D50",
"z  c #283E52",
"x  c #2A4254",
"c  c #2C465E",
"v  c #2C4760",
"b  c #2E4B64",
"n  c #2F4E69",
"m  c #304D66",
"M  c #304F6A",
"N  c #2F506C",
"B  c #30516E",
"V  c #325573",
"C  c #345877",
"Z  c #345B7B",
"A  c #385D7B",
"S  c #3A617F",
"D  c #444443",
"F  c #454843",
"G  c #4C4C4B",
"H  c #445442",
"J  c #4A5A47",
"K  c #4F514E",
"L  c #545453",
"P  c #575957",
"I  c #585857",
"U  c #5A5A5A",
"Y  c gray39",
"T  c #676967",
"R  c #696968",
"E  c #365F80",
"W  c #366184",
"Q  c #3A6485",
"!  c #376589",
"~  c #38668B",
"^  c #3A698F",
"/  c #3A6C93",
"(  c #3B6F98",
")  c #3F7097",
"_  c #3D729B",
"`  c #3D75A2",
"'  c #3E79A6",
"]  c #3E7AA9",
"[  c #406D90",
"{  c #427195",
"}  c #41749A",
"|  c #45799F",
" . c #4277A0",
".. c #467AA0",
"X. c #447AA2",
"o. c #437AA4",
"O. c #467CA4",
"+. c #467DA6",
"@. c #427AA5",
"#. c #487CA3",
"$. c #487EA5",
"%. c #407DAB",
"&. c #427FAD",
"*. c #4A80A7",
"=. c #4680AB",
"-. c #4380AE",
";. c #4480AE",
":. c #4A82AC",
">. c #4B85AF",
",. c #4982AC",
"<. c #4583B1",
"1. c #4684B2",
"2. c #4B87B3",
"3. c #4C86B1",
"4. c #4C87B3",
"5. c #4987B5",
"6. c #4B88B5",
"7. c #4C88B4",
"8. c #4F8BB7",
"9. c #4B8AB8",
"0. c #4D8BB8",
"q. c #4D8DBB",
"w. c #518BB5",
"e. c #508CB6",
"r. c #508DB9",
"t. c #518FBC",
"y. c #4F90BE",
"u. c #5291BE",
"i. c #5191BE",
"p. c #5595C3",
"a. c #5394C1",
"s. c #5798C6",
"d. c #5999C6",
"f. c #579AC8",
"g. c #5B9DCB",
"h. c #609FC9",
"j. c #5DA0CD",
"k. c #62A3CD",
"l. c #64A6D0",
"z. c #67A8D1",
"x. c #68A9D2",
"c. c None",
"v. c black",
"b. c black",
"n. c black",
"m. c black",
"M. c black",
"N. c black",
"B. c black",
"V. c black",
"C. c black",
"Z. c black",
"A. c black",
"S. c black",
"D. c black",
"F. c black",
"G. c black",
"H. c black",
"J. c black",
"K. c black",
"L. c black",
"P. c black",
"I. c black",
"U. c black",
"Y. c black",
"T. c black",
"R. c black",
"E. c black",
"W. c black",
"Q. c black",
"!. c black",
"~. c black",
"^. c black",
"/. c black",
"(. c black",
"). c black",
"_. c black",
"`. c black",
"'. c black",
"]. c black",
"[. c black",
"{. c black",
"}. c black",
"|. c black",
" X c black",
".X c black",
"XX c black",
"oX c black",
"OX c black",
"+X c black",
"@X c black",
"#X c black",
"$X c black",
"%X c black",
"&X c black",
"*X c black",
"=X c black",
"-X c black",
";X c black",
":X c black",
">X c black",
",X c black",
"<X c black",
"1X c black",
"2X c black",
"3X c black",
"4X c black",
"5X c black",
"6X c black",
"7X c black",
"8X c black",
"9X c black",
"0X c black",
"qX c black",
"wX c black",
"eX c black",
"rX c black",
"tX c black",
"yX c black",
"uX c black",
"iX c black",
"pX c black",
"aX c black",
"sX c black",
"dX c black",
"fX c black",
"gX c black",
"hX c black",
"jX c black",
"kX c black",
"lX c black",
"zX c black",
"xX c black",
"cX c black",
"vX c black",
"bX c black",
"nX c black",
"mX c black",
"MX c black",
"NX c black",
"BX c black",
"VX c black",
"CX c black",
"ZX c black",
"AX c black",
"SX c black",
"DX c black",
"FX c black",
"GX c black",
"HX c black",
"JX c black",
"KX c black",
"LX c black",
"PX c black",
"IX c black",
"UX c black",
/* pixels */
"c.c.c.c.c.c.c.c.c.c.c.c.c.c.c.c.c.c.c.c.c.c.c.c.c.c.c.c.c.c.c.c.c.c.c.c.c.c.c.c.c.c.c.c.c.c.c.c.c.c.c.c.c.c.c.c.c.c.c.",
"c.c.c.c.c.c.c.c.c.c.c.c.c.c.c.c.c.c.c.c.c.c.c.c.c.c.c.v v v v v c.c.c.c.c.c.c.c.c.c.c.c.c.c.c.c.c.c.c.c.c.c.c.c.c.c.c.",
"c.c.c.c.c.c.c.c.c.c.c.c.c.c.c.c.c.c.c.c.c.c.c.c v b E / V W / / B v c c c.c.c.c.c.c.c.c.c.c.c.c.c.c.c.c.c.c.c.c.c.c.c.",
"c.c.c.c.c.c.c.c.c.c.c.c.c.c.c.c.c.c.c.c.c.n n b Z _ ` ] Z / ] ' _ ^ n b n b c.c.c.c.c.c.c.c.c.c.c.c.c.c.c.c.c.c.c.c.c.",
"c.c.c.c.c.c.c.c.c.c.c.c.c.c.c.c.c.c.c.c V _ _ _ ` %.-.&.Z ,.5.-.-.' _ _ _ ! v c.c.c.c.c.c.c.c.c.c.c.c.c.c.c.c.c.c.c.c.",
"c.c.c.c.c.c.c.c.c.c.c.c.c.c.c.c.c.c.c V _ ] <.<.<.6.t.p.Q #.i.t.q.<.<.<.&.' W b c.c.c.c.c.c.c.c.c.c.c.c.c.c.c.c.c.c.c.",
"c.c.c.c.c.c.c.c.c.c.c.c.c.c.c.c.c n n ( <.5.q.r.r.&./ ,.W Z / / ) 7.r.r.7.1.%.Z V m c.c.c.c.c.c.c.c.c.c.c.c.c.c.c.c.c.",
"c.c.c.c.c.c.c.c.c.c.c.c.c.c.c n C / V o.q.>./ / / ~ W Q C b Z W ! / / ^  .7.6.E #.^ V v c.c.c.c.c.c.c.c.c.c.c.c.c.c.c.",
"c.c.c.c.c.c.c.c.c.c.c.c.c.V Z / ] <.{ } / ^ ^ ! W Z V V Z n V C Z W W ^ ^ ^ } { w.1.` E Z c.c.c.c.c.c.c.c.c.c.c.c.c.c.",
"c.c.c.c.c.c.c.c.c.c.c.c n / ] ] 1.4.:.E Z W W Z V V V V V b V V V V Z W W Z V } 4.6.%.] ` Z c c.c.c.c.c.c.c.c.c.c.c.c.",
"c.c.c.c.c.c.c.c.c.c.c n / ] <.q.2.( ~ E B B V V V V B n n v b M V V V V V n C ! ^ +.0.9.%.` Z c c.c.c.c.c.c.c.c.c.c.c.",
"c.c.c.c.c.c.c.c.c.c n / ] <.2.+.( W Z C V B B V n n v j , , e x b b B V n V V Z E ! ..,.6.%.` Z c c.c.c.c.c.c.c.c.c.c.",
"c.c.c.c.c.c.c.c.c.n / ] <.2.) ~ W C V b b v c z > : , ; # # # : : : r v v b b B V Z ! ^ +.6.%.` Z v c.c.c.c.c.c.c.c.c.",
"c.c.c.c.c.c.c.c.n / ] <.7.) W Z Z V v w : : : ; $ $ $ $ 1 3 * $ $ $ $ : : : : k B V Z Z ^ +.6.] ` Z c.c.c.c.c.c.c.c.c.",
"c.c.c.c.c.c.c.c B ` <.7.( ~ E V V v w $ 1 * 1 * 5 5 6 6 6 6 6 6 6 5 1 * 1 * * = k B V Z ! ^ +.6.&.W v c.c.c.c.c.c.c.c.",
"c.c.c.c.c.c.c b ..1.7.( W Z C b e ; & 3 6 6 y 5 1 0 y y y y y y y 6 1 0 y 6 6 1 ; : z V Z Z ^ +.5.=.S c c.c.c.c.c.c.c.",
"c.c.c.c.c.c.n n C ,./ E W V b e * 1 5 6 0 0 y 6 1 3 O @ @ @ @ O $ 6 1 y y 0 0 6 3 1 < z V Z W Q ) W M n c.c.c.c.c.c.c.",
"c.c.c.c.c.V / _ A B ! W C b e < 0 5 3 0 y 6 O O O O o o o o o o o O O O * 0 0 6 1 0 6 ; z V Z ^ Z B ^ ` E c.c.c.c.c.c.",
"c.c.c.c.c ~ ] <.,.C E W n e $ 3 0 3 $ O O O o o o o o o o o o o o o o o o O O @ 1 6 6 * ; z Z W V ^ 6.&.` V c.c.c.c.c.",
"c.c.c.c.V / ] i.) E M b j $ 3 0 6 # o o o o o o o o o o o o o o o o o o o o o o o 3 0 6 * ; x M V ! 4.5.' E c.c.c.c.c.",
"c.c.c.c ! _ &.2./ Z V k # 3 0 6 4 # o o o o o o o o o o o o o o o o o o o o o o o o 3 0 6 * : b V E O.6.&.` B c.c.c.c.",
"c.c.c.c W / r.} ! C v , $ 0 6 6 G 4 X o o o o o o o o o o o o o o o o o o o o o o i 4 3 0 3 = k B W ! 4.5.` B c.c.c.c.",
"c.#.c c Z ! 7.} E V k # * 0 1 i U 4 @ O o o o o o o o o o o o o o o o o o o o o 9 R F # 6 5 @ > n Z W 4.5.` B c C c.c.",
"c.u.{ V V Z 3.} Z V k # * 3 $ i U t % # O o o o o o o o o o o o o o o o o o O # 4 U K $ 3 1 $ , n V W 7.1.~ n Q *.f.c.",
"c.^ 2.+.V V 3.} W V k $ 0 3 < F i < % % O o o o o o o o o o o o o o o o o O % % + 4 G 4 * 0 3 , n Z ! 7.<.V ^ 7.| Q c.",
"c.V ( 2.Q B 3.} Z V k $ y 5 < 7 u 4 % % O o o o o o o o o o o o o o o o o @ % % 4 # 2 7 & y 3 , n Z W 7.{ B ,.X.W v c.",
"c.C / / ! B $.( V B k # 6 1 @ # D 4 # % O o o o o o o o o o o o o o o o o @ % # u < % 7 # 6 1 , b V E :.W Z / ^ ~ v c.",
"c.b n B B n C V B n k # 0 3 @ + i 4 # % O o o o o o o o o o o o o o o o o @ % + P u % q < y 1 , v b n V B B B V V v c.",
"c.c.V ! / _ / / ( ^ l # 0 3 @ + u 4 # # O o o o o o o o o o o o o o o o o # + % U U 7 H < y 1 , b V Z W / _ _ _ / c.c.",
"c.c.B W W Z V V V V k # 6 * @ + o u % . o o o o o o o o o o o o o o o o o X . K i i 7 f & 6 1 , b V V V V E W E n c.c.",
"c.c.v v b b b b v b k # 1 * @ + . < # O o o o o o o o o o o o o o o o o o X X < + o % u & 3 $ , v v v b b b v v c c.c.",
"c.c.c.c B V V V b V l # 1 * @ t t 4 4 4 # o o o o o o o o o o o o o o o o O < F u + # H < 3 $ , n n M V V Z b c.c.c.c.",
"c.c.c.c V E Z V b B k # 3 * @ T Y i t 4 2 # o o o o o o o o o o o o o o O < 4 Y I u < H < 5 * , n M M Z E W n c.c.c.c.",
"c.c.c.c Z ^ W Z b B k # 1 $ @ I L G i 4 < & o o o o o o o o o o o o o o # < 4 G F U 7 H & 1 * , n n V ! / } B c.c.c.c.",
"c.c.c.c W / / ..V Z l $ 6 1 @ 4 G U i 4 < & o o o o o o o o o o o o o o # < i L U Y 7 H < 6 3 > B V Z ^ ) r.C c.c.c.c.",
"c.c.c.c ! ` ( w.Z E l & y 6 @ + i U i 4 < & o o o o o o o o o o o o o o # 2 F U U i < u < p 5 , V V Z ^ ` r.C c.c.c.c.",
"c.c.c.c ! ] ) 7.C V k # 6 6 # % D U i 4 < & o o o o o o o o o o o o o O & 2 F U U < % 7 < y * , B B W / ` q.C c.c.c.c.",
"c.c.c.c ! ] ' 8.V B k # 0 5 g U L U i 4 < & o o o o o o o o o o o o o @ < 4 F U U < % q 4 y 1 , n n ! ' ' %.B c.c.c.c.",
"c.c.c.c Z ` ] o.B B k # 0 3 G L F U i 4 < & o o o o o o o o o o o o o # 1 i I U U < + 7 < y 1 , n n ! ] ] ` B c.c.c.c.",
"c.c.c.c Z ` _ _ B B k # 3 * i t i U i 4 4 < o o o o o o o o o o o o o # 1 D U U I 2 G i # 5 $ , n n ! _ ` ` B c.c.c.c.",
"c.c.c.c Z ` / _ B B k # 6 * 9 2 i U G u 4 < o o o o o o o o o o o o o @ 2 4 D L I 2 P d # 6 1 , n n ! _ ` ` B c.c.c.c.",
"c.c.c.c Z ` _ ( B B k # 0 6 O X i L t < < < o o o o o o o o o o o o o # < < < u G t U d & y 1 , n n W ) ` ` B c.c.c.c.",
"c.c.c.c Z ` -./ n V k # 6 1 o . i i O . + # o o o o o o o o o o o o o @ $ o   i U U U f & 6 1 , B B Z _ ] ` B c.c.c.c.",
"c.c.c.c Z ` i.) N E z # 5 * o . i i # # < O o o o o o o o o o o o o o o # < + D U I d H & 3 1 , V V Z ` ] ` B c.c.c.c.",
"c.c.c.c Z ` i.) N E l < p 6 o . i G t 4 4 # o o o o o o o o o o o o o O < 4 4 G Y U i H < p 6 , V V Z ` ] ` B c.c.c.c.",
"c.c.c.c Z ` i.) N E l # 0 6 o + D U G t 4 4 o o o o o o o o o o o o o @ 2 4 i L R D q H < y 1 , V V Z ` ] ` B c.c.c.c.",
"c.c.c.c Z ` 1./ n C k # 6 1 o & G U F t 4 2 o o o o o o o o o o o o o @ 2 4 F Y Y < 2 H < 0 1 , B B Z ` ] ` B c.c.c.c.",
"c.c.c.c Z ` / Z b B k # 0 3 o & 4 G G t 4 1 o o o o o o o o o o o o o # 4 4 u L i + 2 s & 0 1 , n n V W _ ` B c.c.c.c.",
"c.c.c.c W ` W Z n V k # 0 6 o ; % 7 i t 4 # o o o o o o o o o o o o o O < 4 4 t # % 7 7 < y 1 , n M V Z ( ` B c.c.c.c.",
"c.c.c.c Z / Z C n Z l # 0 5 o # % + < 4 4 O o o o o o o o o o o o o o X # 4 9 & % < 2 7 & y 1 , B V B Z ! / n c.c.c.c.",
"c.c.c.c C Z V V v b k # 6 1 o % < o < 4 4 O o o o o o o o o o o o o o o # 4 G 9 % 4 4 7 # 6 1 , b v n V V E b c c.c.c.",
"c.c.c.b N B n n b C v $ 6 * o < < o < 4 4 O o o o o o o o o o o o o o o # t G 7 % 7 7 u # 6 1 r Z V n n n B n b v c.c.",
"c.c.c.Q %.%.%.o.^ %.! # 5 * o % < o X 2 < O o o o o o o o o o o o o o X # D t . % 2 2 H & 5 * k %.%.%.%.%.%.%._ b c.c.",
"c.c.c.[ i.a.a.t.r.i.{ # 1 * o # & + . < @ o o o o o o o o o o o o o o o # D 7 . % < 2 h & 3 $ x 7.r.r.r.r.r.r.,.M c.c.",
"c.c.A B E ~ / W E W b # * $ o % < % o < + o o o o o o o o o o o o o o o X u 7 + 2 2 2 q # 1 $ e B Z E E E E Z B c c.c.",
"c.} $.Z Z V Z Z Z Z v # 1 * o # % % o # + o o o o o o o o o o o o o o o X 4 < + < & < 7 # 3 $ r Z Z Z Z Z Z Z Z Q c.c.",
"c.y.p.9.9.>.5.9.9.q./ - 0 6 o # % % + o o o o o o o o o o o o o o o o o o o o # % % & 7 < y 1 x 9.9.9.9.9.9.9.q.f.-.c.",
"]  .| :.:.6.q.q.q.q./ - 0 6 o # % % % + o o o o o o o o o o o o o o o o o o # % # # < d < y 1 x :.2.q.q.q.0.2.2.} ' ] ",
"6.! V ~ / ` ] _ ( _ Z # 0 6 o + # % % + o o o o o o o o o o o o o o o o o o # < u < < H < y 1 j ~ / ` _ ( / / ~ V %.q.",
"a.! V ^ / ( ( / ! E v # 0 6 o 7 7 % % + o o o o o o o o o o o o o o o o o o # < 8 s 2 H < y 1 r Z W / / ^ ^ ^ W V ;.g.",
"i.! V ~ ! ! ! Z Z V c # 3 1 O 7 7 % % + o o o o o o o o o o o o o o o o o o # % % s H J < 6 $ e V C Z W ~ ~ ~ W V ;.g.",
"a./ n B B B B n n n x # 1 * 7 f 2 % % + o o o o o o o o o o o o o o o o o o + % & q f s # 3 $ , n n n B B B B N V ;.g.",
"g.7._ _ _ _ _ _ _ ` Z # 1 * 2 a 7 2 # # O o o o o o o o o o o o o o o o o @ + % 2 7 u q # 3 $ k _ _ _ _ _ _ _ _ @.s.g.",
"u.s.a.a.a.a.a.a.a.a.{ # 1 * < 2 + + + # O o o o o o o o o o o o o o o o o @ % # + % 7 7 # 1 $ x i.a.a.a.a.a.i.i.a.p.u.",
"Z o.%.%.%.%.%.o.' ) V # $ @ & < % # # O o o o o o o o o o o o o o o o o o @ # # % d a 4 # $ # j ( _ o.%.%.%._ ( ) / M ",
"V / ` ] ] ] ` / ^ ~ V # $ O # % # + o o o X X X X X X X X X X X X X X X X X X X o & 2 < @ # @ j ~ ~ / _ ' ` ' ` / E c ",
"V ~ ( ` ` ` / ^ W Z N ; : : : : : : : : : : : : : : : : : : : : : : : : : : : : : : : : : : : j E Z ! ^ _ / _ _ / E v ",
"V ^ ! W W W W W Z C n k b n V n b b b v b b b n B b b b b b b b b b b b b b v v b b b b b b x x V V Z W W W W W ^ W v ",
"n Z V M M M M M M M b b Z ! _ ! E E Z b V C Z ! / E E E E E E E E E E E E Z n B Z W E E Z C B v M M M M M M M B V V c ",
"v n n V C V V V V V V Z ! ` ] ` _ _ ( V V W _ ` ` _ _ _ _ _ _ _ _ _ _ _ / ! V Z ! _ _ _ ^ W Z V M V C C C C C C C V c ",
"b Z W / _ _ _ _ _ _ _ _ ` ] ] ] ] ] ' E W _ &.q.q.q.q.q.<.] 9.q.q.q.y.6.' / E W / ` ] ' _ _ ) ~ W ! ^ ^ ^ ^ ^ ^ / W v ",
"B ! X.t.a.a.a.i.&.&.i.a.a.i.a.a.i.<.` W _ ] 1.g.g.g.g.g.s.a.f.g.g.g.g.f.a.2.! W _ 0.a.i.a.a.i.e.:.` ` ` ` ` ` _ / E v ",
"V / 6.g.g.g.g.l.h.s.j.l.g.g.g.g.g.s.%.W ` &.a.f.f.f.g.g.g.g.g.g.g.z.x.x.l.f.X./ 6.f.g.g.j.l.g.k.k.h.h.d.a.a.a.&.' / v ",
"Z ` 6.s.s.s.s.g.g.d.d.d.s.s.s.s.s.s.&./ ` ' ;.;.;.-.q.s.s.s.s.s.d.g.g.g.d.d.&._ &.;.-.<.s.g.k.d.g.g.g.d.d.d.s.i.a.$.b ",
"! / ( ) ) ) ) ) ) ) ) ) ) ) ) ) ) ) / / / / / / / / ( ) ) ) ) ) ) ) ) ) ) ) / / / / / / ) } } ) ) ) ) ) ) ) ) } } ( W "
};
