/* XPM */
static char *ZXpnaWYuY29tLWdpZi1tYWtlci0z_19[] = {
/* columns rows colors chars-per-pixel */
"59 75 256 2 ",
"   c #0E110C",
".  c #14120F",
"X  c #151311",
"o  c #191614",
"O  c #161915",
"+  c #1A1916",
"@  c #1C1D1A",
"#  c #211D1B",
"$  c #1E221D",
"%  c #22221E",
"&  c #28231F",
"*  c #1E1F20",
"=  c #1E2123",
"-  c #1D242B",
";  c #1F282E",
":  c #1F2932",
">  c #232521",
",  c #2B2523",
"<  c #252A24",
"1  c #2C2A26",
"2  c #2A2D29",
"3  c #312A27",
"4  c #342D2A",
"5  c #2C332B",
"6  c #2F382E",
"7  c #32332E",
"8  c #39312D",
"9  c #30382F",
"0  c #202C35",
"q  c #212F3B",
"w  c #22303D",
"e  c #343433",
"r  c #3D3532",
"t  c #343B32",
"y  c #383A37",
"u  c #3B3C3A",
"i  c #403F3E",
"p  c #364235",
"a  c #384336",
"s  c #3B4439",
"d  c #3D4A3B",
"f  c #41423F",
"g  c #414F3F",
"h  c #41503F",
"j  c #263542",
"k  c #273845",
"l  c #253748",
"z  c #283C4E",
"x  c #273E52",
"c  c #283F54",
"v  c #294055",
"b  c #2C455D",
"n  c #2D4760",
"m  c #2E4B64",
"M  c #2F4E69",
"N  c #304F6A",
"B  c #2F506C",
"V  c #31516E",
"C  c #325573",
"Z  c #335877",
"A  c #345B7B",
"S  c #385D7B",
"D  c #434342",
"F  c #444A43",
"G  c #484947",
"H  c #4B4C4B",
"J  c #445342",
"K  c #495947",
"L  c #4B524A",
"P  c #4E5F4B",
"I  c #50514F",
"U  c #535453",
"Y  c #565955",
"T  c #585857",
"R  c gray36",
"E  c #5E615D",
"W  c #5F6060",
"Q  c gray39",
"!  c #676867",
"~  c #696967",
"^  c gray42",
"/  c #6D736C",
"(  c #706F70",
")  c gray45",
"_  c #7C7C7C",
"`  c #365F80",
"'  c #366185",
"]  c #3B6485",
"[  c #376489",
"{  c #39698E",
"}  c #3A6C93",
"|  c #3B6F98",
" . c #3E7097",
".. c #3D729C",
"X. c #3D76A2",
"o. c #3E79A6",
"O. c #3E7AA9",
"+. c #416E90",
"@. c #417195",
"#. c #447498",
"$. c #41769E",
"%. c #42759C",
"&. c #45789D",
"*. c #447AA2",
"=. c #457BA4",
"-. c #437AA4",
";. c #487BA1",
":. c #487DA4",
">. c #407DAB",
",. c #477EA8",
"<. c #417EAC",
"1. c #427DAA",
"2. c #4280AE",
"3. c #4480AE",
"4. c #4881AA",
"5. c #4A83AC",
"6. c #4482B0",
"7. c #4684B3",
"8. c #4C86B1",
"9. c #4886B4",
"0. c #4A86B2",
"q. c #4B88B3",
"w. c #4A89B6",
"e. c #4C89B5",
"r. c #4E8BB8",
"t. c #4E8DBA",
"y. c #4C8CBA",
"u. c #508CB7",
"i. c #508DB9",
"p. c #518EBB",
"a. c #4F90BE",
"s. c #5191BE",
"d. c #5394C2",
"f. c #5798C6",
"g. c #599AC6",
"h. c #5799C8",
"j. c #5A9DCB",
"k. c #5FA2CE",
"l. c #61A1CB",
"z. c #64A6D1",
"x. c #68A9D2",
"c. c #848484",
"v. c gray55",
"b. c #908F90",
"n. c gray58",
"m. c gray61",
"M. c gray63",
"N. c #A9A9A9",
"B. c gray73",
"V. c None",
"C. c black",
"Z. c black",
"A. c black",
"S. c black",
"D. c black",
"F. c black",
"G. c black",
"H. c black",
"J. c black",
"K. c black",
"L. c black",
"P. c black",
"I. c black",
"U. c black",
"Y. c black",
"T. c black",
"R. c black",
"E. c black",
"W. c black",
"Q. c black",
"!. c black",
"~. c black",
"^. c black",
"/. c black",
"(. c black",
"). c black",
"_. c black",
"`. c black",
"'. c black",
"]. c black",
"[. c black",
"{. c black",
"}. c black",
"|. c black",
" X c black",
".X c black",
"XX c black",
"oX c black",
"OX c black",
"+X c black",
"@X c black",
"#X c black",
"$X c black",
"%X c black",
"&X c black",
"*X c black",
"=X c black",
"-X c black",
";X c black",
":X c black",
">X c black",
",X c black",
"<X c black",
"1X c black",
"2X c black",
"3X c black",
"4X c black",
"5X c black",
"6X c black",
"7X c black",
"8X c black",
"9X c black",
"0X c black",
"qX c black",
"wX c black",
"eX c black",
"rX c black",
"tX c black",
"yX c black",
"uX c black",
"iX c black",
"pX c black",
"aX c black",
"sX c black",
"dX c black",
"fX c black",
"gX c black",
"hX c black",
"jX c black",
"kX c black",
"lX c black",
"zX c black",
"xX c black",
"cX c black",
"vX c black",
"bX c black",
"nX c black",
"mX c black",
"MX c black",
"NX c black",
"BX c black",
"VX c black",
"CX c black",
"ZX c black",
"AX c black",
"SX c black",
"DX c black",
"FX c black",
"GX c black",
"HX c black",
"JX c black",
"KX c black",
"LX c black",
"PX c black",
"IX c black",
"UX c black",
/* pixels */
"V.V.V.V.V.V.V.V.V.V.V.V.V.V.V.V.V.V.V.V.V.V.V.V.V.V.V.V.V.V.V.V.V.V.V.V.V.V.V.V.V.V.V.V.V.V.V.V.V.V.V.V.V.V.V.V.V.V.V.",
"V.V.V.V.V.V.V.V.V.V.V.V.V.V.V.V.V.V.V.V.V.V.V.V.V.V.n n n n n m V.V.V.V.V.V.V.V.V.V.V.V.V.V.V.V.V.V.V.V.V.V.V.V.V.V.V.",
"V.V.V.V.V.V.V.V.V.V.V.V.V.V.V.V.V.V.V.V.V.V.V.b n m A } C ` } } C n b b V.V.V.V.V.V.V.V.V.V.V.V.V.V.V.V.V.V.V.V.V.V.V.",
"V.V.V.V.V.V.V.V.V.V.V.V.V.V.V.V.V.V.V.V.V.M M m C  .X.O.A } >.O...} M m M M V.V.V.V.V.V.V.V.V.V.V.V.V.V.V.V.V.V.V.V.V.",
"V.V.V.V.V.V.V.V.V.V.V.V.V.V.V.V.V.V.V.b V | ....X.>.2.2.` ;.w.2.2.O.......[ m b V.V.V.V.V.V.V.V.V.V.V.V.V.V.V.V.V.V.V.",
"V.V.V.V.V.V.V.V.V.V.V.V.V.V.V.V.V.V.b V | O.6.6.6.9.i.d.{ &.s.p.y.7.6.6.2.O.[ m b V.V.V.V.V.V.V.V.V.V.V.V.V.V.V.V.V.V.",
"V.V.V.V.V.V.V.V.V.V.V.V.V.V.V.V.b M m } 6.9.y.i.i.4.} ,.] Z { }  .e.i.i.e.7.<.A V N b V.V.V.V.V.V.V.V.V.V.V.V.V.V.V.V.",
"V.V.V.V.V.V.V.V.V.V.V.V.V.V.b M C } C $.r.8.} } } { ' [ A m A ' ' { } { $.e.e.[ &.} C n b V.V.V.V.V.V.V.V.V.V.V.V.V.V.",
"V.V.V.V.V.V.V.V.V.V.V.V.b V A } O.6.#.#.} { { { ' A C C A V V C Z ' ' { { { @.@.q.9.o.' A m V.V.V.V.V.V.V.V.V.V.V.V.V.",
"V.V.V.V.V.V.V.V.V.V.V.b m { O.O.6.q.5.' Z ` ' A C C C C C m V C C C A ' ' A C @.8.w.<.O.X.A n b V.V.V.V.V.V.V.V.V.V.V.",
"V.V.V.V.V.V.V.V.V.V.b m { O.6.y.0...{ ' V N C C C C C M M n m N C C C C C M C [ { *.r.r.>.X.A n b V.V.V.V.V.V.V.V.V.V.",
"V.V.V.V.V.V.V.V.V.b m { O.6.q.,...' A Z C V N C M m n l : : 0 v m m N C M V C A ` [ *.4.w.>.X.A b b V.V.V.V.V.V.V.V.V.",
"V.V.V.V.V.V.V.V.V.m { O.6.e...{ ' A C M m n b v : ; : = @ @ @ - ; ; q b b m m V C A [ { =.e.>.X.A n V.V.V.V.V.V.V.V.V.",
"V.V.V.V.V.V.V.V.m { O.3.e...' A A C m 0 - - - = # # # # , 3 & # # # # - - - - l V C A A { =.r.>.X.` b V.V.V.V.V.V.V.V.",
"V.V.V.V.V.V.V.n V ..6.e...{ ' C C n 0 # , & , & 1 3 4 3 4 4 4 4 3 3 , & , & & * l M C Z [ { *.r.<.{ n b V.V.V.V.V.V.V.",
"V.V.V.V.V.V.b n &.6.e. .[ A Z m w = % 1 4 4 r 3 , 8 r r r r r r r 4 , 8 r 4 4 , = = z V A A { *.w.3.] b b V.V.V.V.V.V.",
"V.V.V.V.V.V.M M C :.} ` ' C m w > , 3 4 8 8 r 4 , 1 o + + + + o # 4 , r r 8 8 4 1 , > z V A ' ' ..[ V M m V.V.V.V.V.V.",
"V.V.V.V.V.V } X.A V [ [ Z m q > 8 3 1 8 8 4 + o o o X X X X X X X o X o & 8 8 4 , 8 4 > z V A { A V { X.' M V.V.V.V.V.",
"V.V.V.V.b [ O.6.5.A A ' V q # , 8 3 # o X o o o X X X X X X X X X X X o o X + # & 4 4 , = z A ' A { w.<.o.C V.V.V.V.V.",
"V.V.V.V.C { O.s.$.` V M k # , 8 8 , @ 7 5 @ + o X X X X X X X X X X o X % 2 u 7 o , 8 4 & = v N C [ 5.w.O.' M V.V.V.V.",
"V.V.V.b ' ..,.0.} A C x @ , 8 8 & 2 L ) L % @ o X X X X X X X X X X O O < L ^ U < @ , 8 4 & - n C ` *.w.<.o.C V.V.V.V.",
"V.V.V.b A } e.$.[ A m 0 @ 4 4 > < H ) ^ 2 @ $ @ + + X X X X X X X O $ @ @ 2 T ! R s @ , 8 3 * l V ` [ 4.w.o.C V.V.V.V.",
"V.5.n b A [ 8.$.` C c @ & 8 , % t E ) R 2 $ $ $ $ @ X X X X X X X O > > $ + u ( _ L < + 4 3 @ - m A ` 4.w.o.C b V d.V.",
"V.s.#.C V A 5.$.A C v @ & 1 & > F E H e > < < $ $ @ X X X X X X X O > > % + > Y ) Y 9 + , , # - m C ` 8.9.{ M ' :.g.V.",
"V.{ 5.,.A V 5.*.' C v > 8 3 > 6 G D $ X @ > > $ $ @ X X X X X X X O $ $ $ @ X < H T e + # 8 3 - m A [ 8.0.A [ w.*.] V.",
"V.V } 5.{ V 5.*.A C c > r 4 > t 5 @ O 2 > $ < < < @ X X X X X X X + < > $ @ > > @ 2 9 < @ r 3 - m A ' 8.$.V :.=.[ n V.",
"V.C } { [ V ;.#.C C c * 4 , > 5 @ O H U > $ > > % @ X X X X X X X O % > $ @ e 2 X @ 9 t % 4 1 - m C A 4.] C } { { m V.",
"V.n M V V B C C V M c * 8 4 > 5 $ $ E ) 2 > > % $ @ X X X X X X X O > < > < T D O $ t t % r 1 - b m M C V V C C C n V.",
"V.b V [ }  .} } } } v * 8 4 < 6 $ u Q ^ y X O $ $ @ X X X X X X X O > $ @ > D R 2 @ J s % r 1 - m C A ' }  ... .} V.V.",
"V.b V ' ' A C C C C c @ 3 , 6 d % y T e ~ 2 O X + O X X X X X X X X     y ! < e < @ g a @ 3 , - n C C C C ` ' ` M V.V.",
"V.V.n n n m m m n m c @ , , 9 d $ + e > ) R 7 $   . . . X X X X X X . $ G v.H   X @ p t @ 1 # - n n n m m m n n b V.V.",
"V.V.V.b N C C C m V v @ & , 5 p @ O O < c.m.) Y 5 > o o X X X X O @ e U ) _ D @ 2 > h s @ 1 # - m N N C C A m V.V.V.V.",
"V.V.V.b C ` A C m V v @ , , > 5 @ u 2 e _ N.n.! ! Y 4 # o X X + @ 2 R ) b.^ G Y c.u g s @ 1 & - m N N A ` ' M V.V.V.V.",
"V.V.V.b Z { ' A m V v @ , & > 5 @ Q ^ < Q n.n._ ! ~ G % o X X @ # e ! c.c.^ H _ n.e g s @ , & - m N C [ { *.C V.V.V.V.",
"V.V.V.b A } { *.C A v = 4 , 5 t $ E b.) _ v.n.v.! R u > o . X @ % u ^ n.c.c.c.c.T @ J s @ 4 1 - N C C { } i.S V.V.V.V.",
"V.V.V.b ' X.} e.S ` v > r 4 6 d % e ^ n.v.c.) ^ Q I 1 # o . X @ % e Q _ v.v.n.Q $ + p t > r 4 - V A C { ..p.S V.V.V.V.",
"V.V.V.b ' O...e.A C v @ 3 4 6 d > O G _ v.c.Q R W H , # o X X @ % e T ^ c.c.c.D O $ 6 5 % r & - M V ` } X.t.S V.V.V.V.",
"V.V.V.b ' O.O.y.Z V v @ 4 4 6 E D O @ U v.v.^ Q W H , # o X X @ % y R ^ v.c._ D O > t 5 2 r , - m N ' O.O.>.C V.V.V.V.",
"V.V.V.b A X.O.>.C V v * 8 4 6 / L O O U v.m.v.^ Q R u @ o X X @ > U ^ n.n.n._ y O > t 5 > r , - m N ' O.O.o.C V.V.V.V.",
"V.V.V.b A .. ...C V v @ , , 6 E ^ u u R v.m.m.v.^ ! D # o X X @ < R _ M.M.n.) 5 @ Y F 2 @ 3 & - m N ' ..X.O.C V.V.V.V.",
"V.V.V.b A ..| ..C V v * 4 , 9 Y Y e D T _ c.v.v.c.Q G % o X X @ 1 ! n.n.m.) T 2 . G D 2 @ 4 , - m N '  ...O.C V.V.V.V.",
"V.V.V.b A .. . .V V v * 8 4 9 a u y U ! D 5 2 D Q T D # + X X @ , Y Q e e D T u O D s 5 % r 1 - m N ` ..X.O.C V.V.V.V.",
"V.V.V.b A ..2.} M C v @ 3 , 9 a e U Q c.D O X > u U u @ + X X + # f X   @ D ) ) 2 y F t % 4 , - m V C ..O.O.C V.V.V.V.",
"V.V.V.b A ..s.$.M ` v * 3 > 5 t > G Q v.Q % X @ e Y u @ + X X + # D >   5 _ M.) < > K s @ 1 , - V A C ..O.O.C V.V.V.V.",
"V.V.V.b A ..s.$.N ` v > r 4 > < $ G Q c.n.W H y G T f # + X X @ > U Y U ) B.N.^ < $ K s % r 4 - V A C ..O.O.C V.V.V.V.",
"V.V.V.b A ..s.$.M ` v * 8 4 2 6 % 7 U ^ c.c.! U R U 4 > + X X @ % i Q c.n.m.c.H < < K s % r 1 - C A C ..O.O.C V.V.V.V.",
"V.V.V.b C ..7.} M Z v * 4 1 9 a > @ D Q ^ ^ U T R D # > + X X @ # , Y R ~ ^ ! e $ 5 K s % 4 , - M C C ..O.O.C V.V.V.V.",
"V.V.V.b Z ..} A m V v * 4 1 6 p > @ % 2 U Q ! U D D # @ o X X o @ < T ! R R D O % 2 s t % 8 1 - m N V ' ..O.C V.V.V.V.",
"V.V.V.b ` O.' A M C v * 8 4 9 p > > % O u y Q G e Y e o o X X X > G R ! R s + + < 2 t t > r 1 - m V C A } O.C V.V.V.V.",
"V.V.V.b A } A A M A v * 8 4 < 5 % < < < $ @ R U U E D + o X X o , Y Q ! H + O > > > 9 t > r 1 - M C V A [ } V V.V.V.V.",
"V.V.b b C A C C n m v * 4 , > < $ > < 2 O > E Q R R f @ o X X + > T ^ ^ G   $ 5 < < t t % 4 , - n m M C C ` M b V.V.V.",
"V.V.b n B V M M m C M = 4 , > < $ < 5 < $ Q R R R R i # + X X + > T ) ) D O 2 5 5 2 t t @ 3 , 0 Z C M M M V M m n V.V.",
"V.V.b ` >.>.>.-.{ -.} > 3 , < 2 @ < 2 < $ I 2 Y Y R u # + X X + > T ) ) O + 2 2 < > J s @ 3 , w >.>.>.>.>.>.>.X.N V.V.",
"V.V.v ] s.s.d.s.i.s.*.= , , 6 p @ % > > O X $ T Y R i @ + X X + % G R U X $ < > > > h a @ 1 # j q.u.i.i.i.i.i.5.V V.V.",
"V.] ' V ` [ } ' ` ` V * & & 5 t @ > 2 5 < O 2 _ T U y @ + X X + # > G 7 + 2 5 2 < < t t @ , # ; V Z ` ` ` ` A C b V.V.",
"V.+.4.A A C Z A A A M * , > > < @ $ > < < < > Q ! D @ # + X X + @ > H ^ @ < < > $ $ 9 t @ , & : A A A A A A A A ] V.V.",
"O.t.f.w.w.0.9.w.w.w.$.> 8 4 2 6 @ $ $ $ $ > O $ H f X @ o X X o X @ e ^ @ > > $ $ $ 9 t > r , k w.w.w.w.w.w.w.y.h.6.O.",
"O.X.&.5.5.w.y.y.y.y.$.> 8 4 9 a @ @ + $ $ $ $ O < 5 X o o X X X X O > s $ $ @ @ $ $ s t > r , j 4.0.y.y.y.r.0.0.$.O.O.",
"w.{ C { } X.O...|  .' > 8 4 6 a @ 6 p < > > $ O $ + X + o X X X X X O @ < < 5 < O $ J s % r , 0 [ } X...| | } } C -.t.",
"d.} C { } | | } { ` B = 8 4 6 p O 9 p < > > $ O $ @ X + o X X X X X O $ > > 5 a > O J s % r , 0 A ' } } { { { [ C >.j.",
"d.} C { [ [ { ` A C n @ , , < 5 6 a < $ $ $ $ O $ @ X + o X X X X X O $ $ $ % t J d P a % 4 & ; C Z A ' { { { ' V 1.g.",
"d.} M V V V V M M M b @ & , > d F 6 % $ $ < p $ > @ X + o X X X X X @ $ $ $ % 5 s d s 6 @ 1 # ; M M M V V V V V V ,.g.",
"j.y.X.............X.[ = & , > a a > O > < < 2 a > $ + + o X X X + @ $ @ @ < < 5 t t t 5 @ 1 # w ................-.d.j.",
"s.f.d.d.d.d.d.d.d.d.;.= & & $ 6 t < @ $ $ + % 5 $ $ o + o X X X O O $ @ O @ $ > 6 9 t 5 @ , # k i.d.d.d.d.d.s.s.d.d.s.",
"A O.>.>.>.>.>.-.O...A * # # $ 5 9 t g K J < p % $ @ X + o X X X X + $ % $ < s K s t 6 2 + # # q } ..-.>.>.<.......} V ",
"N } o.O.O.O.X.} { { A * # + @ < < < < < < + + X X X X o X . . X X X X X X o % < < < < > + @ + 0 [ [ {  .O.o.O.o.} ' n ",
"V { } X.X.X.} { ' A C - ; ; ; - - ; ; ; ; ; ; ; ; ; - - - - - - - - - - - - - ; ; ; ; ; ; ; - q A A [ {  .} ....} ' n ",
"V { [ ' ' ' ' ' A Z V z m M C N m m m n m m m M V m m m m m m m m m m m m m n n m m m m m m b x C C A ' ' ' ' ' { ' n ",
"m Z C N N N N N N N m m Z [  .{ ` ` A m C Z A [ } ` ` ` ` ` ` ` ` ` ` ` ` A M N A ` ` ` A Z V n N N N N N N N V C C n ",
"n M M C Z C C C C C C A [ X.O.X..... .Z C '  ...o.......................} [ Z Z [ | .. .{ ' A C N V Z Z Z Z Z Z Z C n ",
"m A ' } ................X.O.O.O.O.O.O.' ' ..<.t.t.t.t.t.6.O.w.a.t.t.a.w.O.| ' ' { X.O.O.......{ ' [ { { { { { { { ' n ",
"M ' $.i.d.d.d.s.2.<.t.d.d.s.s.s.s.6.O.' | O.6.j.j.j.j.j.f.s.g.j.j.j.j.g.d.9.{ ' ..w.d.s.d.d.s.i.5.X.X.X.X.X.X...} ' n ",
"V } 0.j.j.j.j.z.l.f.j.z.j.j.j.j.j.f.3.' ..<.d.g.g.g.j.j.j.j.j.j.j.z.x.x.z.g.,.} 9.h.j.j.j.z.j.k.l.l.l.g.d.d.d.3.O.} n ",
"C ..0.h.h.h.h.g.j.g.g.g.h.h.h.g.h.h.3.} ..O.2.3.3.2.r.h.h.h.h.h.g.j.j.j.g.g.4. .>.3.2.3.d.j.l.g.j.j.j.g.g.g.h.s.s.4.N ",
"[ } } ..............................} { } } } } } } } ..................#...} } } } } } ..#.%.................#.#.} ' "
};
