/* XPM */
static char *ZXpnaWYuY29tLWdpZi1tYWtlci0z_10[] = {
/* columns rows colors chars-per-pixel */
"59 75 256 2 ",
"   c #060A04",
".  c #080C06",
"X  c #0B0F09",
"o  c #120F0D",
"O  c #0D110B",
"+  c #13110E",
"@  c #141412",
"#  c #1A1614",
"$  c #161915",
"%  c #191A16",
"&  c #1B1D1A",
"*  c #221E1B",
"=  c #1E211D",
"-  c #22221E",
";  c #28221F",
":  c #1D1F21",
">  c #201F20",
",  c #1E2124",
"<  c #1D242B",
"1  c #1F282F",
"2  c #1F2933",
"3  c #222521",
"4  c #2B2522",
"5  c #252A24",
"6  c #2B2B26",
"7  c #212529",
"8  c #2A2D29",
"9  c #302A26",
"0  c #342E2A",
"q  c #2C3127",
"w  c #2C322A",
"e  c #2F382D",
"r  c #34322E",
"t  c #39312D",
"y  c #323A2F",
"u  c #202C34",
"i  c #212E3A",
"p  c #24323E",
"a  c #333433",
"s  c #3C3532",
"d  c #353C33",
"f  c #3C3D3B",
"g  c #403F3E",
"h  c #364134",
"j  c #394237",
"k  c #3C433B",
"l  c #3D493B",
"z  c #414E3E",
"x  c #41503F",
"c  c #243442",
"v  c #263846",
"b  c #263A4B",
"n  c #273D52",
"m  c #293F53",
"M  c #294157",
"N  c #2B445B",
"B  c #2D4760",
"V  c #2E4A64",
"C  c #2F4E69",
"Z  c #304F6A",
"A  c #2F506C",
"S  c #30516D",
"D  c #325674",
"F  c #335877",
"G  c #345B7B",
"H  c #395F7D",
"J  c #39607F",
"K  c #434543",
"L  c #484747",
"P  c #454A43",
"I  c #494847",
"U  c #4B4C4B",
"Y  c #455443",
"T  c #475845",
"R  c #485846",
"E  c #4F514E",
"W  c #50534F",
"Q  c #545453",
"!  c #555B54",
"~  c #5B5C5B",
"^  c #5E635C",
"/  c #646464",
"(  c #636E61",
")  c gray42",
"_  c #6F796E",
"`  c #70716F",
"'  c #737473",
"]  c #777876",
"[  c #7B7C7B",
"{  c #365F80",
"}  c #376285",
"|  c #3B6485",
" . c #376589",
".. c #38668B",
"X. c #3A698E",
"o. c #3A6C93",
"O. c #3B6F98",
"+. c #3E7096",
"@. c #3D729C",
"#. c #3D76A2",
"$. c #3E79A6",
"%. c #3E7AA8",
"&. c #406E92",
"*. c #447397",
"=. c #427296",
"-. c #40739A",
";. c #45759A",
":. c #41759D",
">. c #42759B",
",. c #4377A0",
"<. c #4378A1",
"1. c #4379A2",
"2. c #437AA4",
"3. c #497EA6",
"4. c #407DAC",
"5. c #427DAA",
"6. c #4380AF",
"7. c #4481AE",
"8. c #4B83AD",
"9. c #4685B3",
"0. c #4684B2",
"q. c #4D87B1",
"w. c #4A86B2",
"e. c #4B88B5",
"r. c #4C89B5",
"t. c #4C8BB8",
"y. c #4E8BB8",
"u. c #4D8CBA",
"i. c #4D8CBA",
"p. c #508CB7",
"a. c #508EBB",
"s. c #508DB9",
"d. c #4F90BE",
"f. c #5291BE",
"g. c #5394C2",
"h. c #5798C6",
"j. c #599AC6",
"k. c #579AC8",
"l. c #5B9DCB",
"z. c #5EA1CE",
"x. c #61A1CA",
"c. c #65A6D1",
"v. c #68A9D2",
"b. c #848484",
"n. c #8B8B8B",
"m. c #949394",
"M. c gray61",
"N. c #A2A2A2",
"B. c gray67",
"V. c gray70",
"C. c #BBBBBB",
"Z. c #C3C3C3",
"A. c #CBCBCB",
"S. c gray83",
"D. c None",
"F. c black",
"G. c black",
"H. c black",
"J. c black",
"K. c black",
"L. c black",
"P. c black",
"I. c black",
"U. c black",
"Y. c black",
"T. c black",
"R. c black",
"E. c black",
"W. c black",
"Q. c black",
"!. c black",
"~. c black",
"^. c black",
"/. c black",
"(. c black",
"). c black",
"_. c black",
"`. c black",
"'. c black",
"]. c black",
"[. c black",
"{. c black",
"}. c black",
"|. c black",
" X c black",
".X c black",
"XX c black",
"oX c black",
"OX c black",
"+X c black",
"@X c black",
"#X c black",
"$X c black",
"%X c black",
"&X c black",
"*X c black",
"=X c black",
"-X c black",
";X c black",
":X c black",
">X c black",
",X c black",
"<X c black",
"1X c black",
"2X c black",
"3X c black",
"4X c black",
"5X c black",
"6X c black",
"7X c black",
"8X c black",
"9X c black",
"0X c black",
"qX c black",
"wX c black",
"eX c black",
"rX c black",
"tX c black",
"yX c black",
"uX c black",
"iX c black",
"pX c black",
"aX c black",
"sX c black",
"dX c black",
"fX c black",
"gX c black",
"hX c black",
"jX c black",
"kX c black",
"lX c black",
"zX c black",
"xX c black",
"cX c black",
"vX c black",
"bX c black",
"nX c black",
"mX c black",
"MX c black",
"NX c black",
"BX c black",
"VX c black",
"CX c black",
"ZX c black",
"AX c black",
"SX c black",
"DX c black",
"FX c black",
"GX c black",
"HX c black",
"JX c black",
"KX c black",
"LX c black",
"PX c black",
"IX c black",
"UX c black",
/* pixels */
"D.D.D.D.D.D.D.D.D.D.D.D.D.D.D.D.D.D.D.D.D.D.D.D.D.D.D.D.D.D.D.D.D.D.D.D.D.D.D.D.D.D.D.D.D.D.D.D.D.D.D.D.D.D.D.D.D.D.D.",
"D.D.D.D.D.D.D.D.D.D.D.D.D.D.D.D.D.D.D.D.D.D.D.D.D.D.D.B B B B B D.D.D.D.D.D.D.D.D.D.D.D.D.D.D.D.D.D.D.D.D.D.D.D.D.D.D.",
"D.D.D.D.D.D.D.D.D.D.D.D.D.D.D.D.D.D.D.D.D.D.D.N B V G o.F G o.o.D B N N D.D.D.D.D.D.D.D.D.D.D.D.D.D.D.D.D.D.D.D.D.D.D.",
"D.D.D.D.D.D.D.D.D.D.D.D.D.D.D.D.D.D.D.D.D.C C V D O.#.%.{ X.4.%.@.o.A V C V D.D.D.D.D.D.D.D.D.D.D.D.D.D.D.D.D.D.D.D.D.",
"D.D.D.D.D.D.D.D.D.D.D.D.D.D.D.D.D.D.D.N A o.@.@.#.%.6.6.} ;.t.6.6.%.@.@.@.X.V N D.D.D.D.D.D.D.D.D.D.D.D.D.D.D.D.D.D.D.",
"D.D.D.D.D.D.D.D.D.D.D.D.D.D.D.D.D.D.N C o.%.0.0.0.9.s.g.&.*.f.s.s.9.0.0.6.$...V N D.D.D.D.D.D.D.D.D.D.D.D.D.D.D.D.D.D.",
"D.D.D.D.D.D.D.D.D.D.D.D.D.D.D.D.N C V X.0.9.i.s.s.8.o.3.X.D X.o.O.q.s.s.r.9.4.{ S S N D.D.D.D.D.D.D.D.D.D.D.D.D.D.D.D.",
"D.D.D.D.D.D.D.D.D.D.D.D.D.D.N C D o.F +.y.q.O.o.o.X. .} G V F  . .X.o.o.-.r.y. .*.*.D V D.D.D.D.D.D.D.D.D.D.D.D.D.D.D.",
"D.D.D.D.D.D.D.D.D.D.D.D.D.A F X.$.0.>.*.o.X.X.X. .G D D G S S D F }  .X.X.X.*.=.8.e.$. .F D.D.D.D.D.D.D.D.D.D.D.D.D.D.",
"D.D.D.D.D.D.D.D.D.D.D.N V ..%.%.6.r.8.| D { } { D D D D D V S D D D F } } G D o.q.e.4.%.$.{ B D.D.D.D.D.D.D.D.D.D.D.D.",
"D.D.D.D.D.D.D.D.D.D.N V ..$.6.i.r.-.X. .S Z D D D D D C C B V Z D D D D D C D } X.<.r.i.4.$.{ B D.D.D.D.D.D.D.D.D.D.D.",
"D.D.D.D.D.D.D.D.D.N V ..$.6.r.3.-. .G G D S Z D C V V b 2 2 u m V V C D C S D G G  .:.8.r.4.$.{ B D.D.D.D.D.D.D.D.D.D.",
"D.D.D.D.D.D.D.D.D.V ..$.6.r.:.X. .G D C V V N M 2 1 1 , & & & < 1 1 i N N V V S D G ..X.1.r.4.$.{ B D.D.D.D.D.D.D.D.D.",
"D.D.D.D.D.D.D.D.V ..$.6.r.:. .G G D V i < < < , * * * * 4 9 4 * * * * < < < < c S D G G  .<.y.4.#. .D.D.D.D.D.D.D.D.D.",
"D.D.D.D.D.D.D.B Z @.6.r.-.X. .D D V i * 4 ; 4 ; 6 9 0 9 0 0 0 9 9 9 4 ; 4 ; 4 & c C D F  .X.<.y.4.o.V D.D.D.D.D.D.D.D.",
"D.D.D.D.D.D.N B ;.0.r.-. .G F C c , * 4 0 0 s 0 4 t s s s s s s s 0 4 0 s 0 0 4 > , b S G G X.<.e.6.X.N D.D.D.D.D.D.D.",
"D.D.D.D.D.D.C C D 3.+.{  .D C c 3 4 9 0 t t s 0 4 9 % # % % # # & 0 4 t s t t 0 9 4 3 b S G  .} +. .S C C D.D.D.D.D.D.",
"D.D.D.D.D.S o.#.} S .. .G C p 3 t 0 6 t t 0 ; & & * % @ @ @ @ @ @ # # & 4 t t 0 4 0 0 3 b S G X.{ S  .#. .D.D.D.D.D.D.",
"D.D.D.D.D. .%.6.w.G G  .S p & 4 t 9 * & & 6 y w w w 3 @ @ @ @ @ @ @ 8 d d - & % ; 0 0 4 : b F  .F | e.4.$.F D.D.D.D.D.",
"D.D.D.D.S X.$.f.:.} S C v & 4 0 t * @ 5 K Q P w 3 @ @ $ % @ @ @ @ % d d Q P w % @ 4 t 0 4 : m Z D  .8.y.$. .C D.D.D.D.",
"D.D.D.D.{ @.2.w.O.G D m & 4 0 t * % 3 U [ / j $ $ $ $ & % @ @ @ $ $ @ 3 / ] P 5 = % 4 t 0 ; , B D G :.e.6.$.D D.D.D.D.",
"D.D.D.D.G o.q.1.X.G V i & 0 t ; % 8 E ' ' k $ % = = = = % @ @ @ & = $ % L ' ` ^ P 5 % 4 t 9 & c S G  .3.t.$.D D.D.D.D.",
"D.8.B N D  .8.1.} D M & * 0 4 % 8 d ) [ ~ = $ = = = = = % @ @ @ = 5 3 $ 5 / ' b.~ y 5 % 0 0 & , B G { 3.t.$.D N S D.D.",
"D.f.>.F S G 8.1.G D M & ; 4 ; - d P ) U 8 = = 5 5 3 = = % @ @ $ = 3 3 & & a U ' / k w & 4 4 * < B D G 8.t.o.S } 1.j.D.",
"D.X.8.6.G S 8.1. .F M , t 0 - w d U ~ 6 @ $ = 3 3 3 = = % @ @ & = = = & @ @ & L ~ P w & * t 0 < B G ..8.e.G  .9.3.| D.",
"D.C o.8.&.C 8.1.G D M , t t = y d 8 3 & 8 & & = 5 5 5 3 % @ @ 3 5 5 = & & 6 $ % 6 d d 5 & s 0 < B F } 8.1.S 2.3. .V D.",
"D.D o.X.X.S ;.:.F D M : 0 6 3 d 8 & & Q Q = $ = 3 3 3 - % @ @ = 3 3 - = 5 Q L @ % w d d = 0 6 < B D G 3.X.D o.X.o.C D.",
"D.B C S S A D D S C M : 0 0 3 d 8 = & / [ f $ 3 5 5 - = % @ @ & 3 5 5 5 I b.~ $ & w j d - s 9 < N V C D S S D D D B D.",
"D.D.S ..o.@.o.o.o.o.N : 0 0 3 j w = $ Q ) 5 - + $ 5 5 3 % @ @ 3 5 3 @ O 8 ' / a $ 3 Y l - s 9 < B D G  .X.@.@.@.o.D.D.",
"D.D.Z }  .G D D D D M : 9 4 3 Y j = $ U w d ' 3 X O @ & $ @ @ = @ O O & 5 d ~ 8 % = z j = 9 4 < B S D D D G  .} Z D.D.",
"D.D.B B B V V V B V M & ; 4 3 Y l & $ a 3 ' m.Q & @ X X + @ @ O X $ 3 / / 3 r @ $ = d h = 4 * < N B B V V V B B B D.D.",
"D.D.D.D.C D D D V S M & ; 4 3 z h $ w = 5 ) M.N.' Q k k 6 + @ & a ~ ' n.~ - O 6 5 & Y l = 4 * < B S C D D G C D.D.D.D.",
"D.D.D.D.S { G D V S M : 4 4 3 d w $ / f r ) n.C.Z.V.B.M.U o @ U b.B.Z.m.Q 6 w b.U % Y l = 6 ; < B S C G {  .S D.D.D.D.",
"D.D.D.D.D X. .G C S M : 4 ; 3 d w $ Q / 3 Q [ M.C.A.A.B.I + $ / n.Z.V.m.~ r M.B.f & Y l & 4 ; < B S S  .X.,.F D.D.D.D.",
"D.D.D.D.G o.X.1.F F N , 0 4 3 l d & 6 [ ' [ n.n.N.A.S.V.I + $ / m.C.m.n.n.b.V.) & & Y l = 9 9 < C D D X.o.i.| D.D.D.D.",
"D.D.D.D.{ $.o.r.J G N , s t 3 Y l = $ ) M.m.n.b.n.V.C.m.I + $ / n.M.n.n.m.M.) 5 $ = h j - s 0 < A G D X.@.u.| D.D.D.D.",
"D.D.D.D.{ %.@.r.H D M & 6 0 3 Y l = = Q b.n.n.n.b.n.m.n.I o $ / n.b.b.b.n.b.K $ = 5 d w - s 4 < V D G O.@.u.| D.D.D.D.",
"D.D.D.D.{ %.$.i.H S M : 0 t 3 Y ( k = 3 ~ b.m.m.n.b.b.n.I o $ / n.b.n.m.n./ & % = E U w 6 s 4 < B Z G $.$.4.G D.D.D.D.",
"D.D.D.D.F #.$.5.D S M : 0 0 3 Y _ I & % ~ m.M.M.M.n.n.n.I o $ / n.n.M.N.m.Q + $ = ~ W w 3 s 6 < B S G %.$.$.D D.D.D.D.",
"D.D.D.D.D @.@.@.D S M & 4 4 3 Y ^ ) a f ~ n.M.N.C.Z.V.n.I + $ ) N.Z.A.C.b.~ a @ I ) P w & 9 ; < B S G @.@.$.D D.D.D.D.",
"D.D.D.D.D @.O.@.D S M : 9 4 3 Y ! Q 6 K ~ / b.n.n.N.Z.B.I + @ ) C.V.B.b./ ~ f X f ~ k w & 9 4 < B S G +.@.$.D D.D.D.D.",
"D.D.D.D.D @.@.@.D S M : 0 0 3 Y h f 6 W ) Q a 8 6 K b.M.Q o $ ) m.K 8 a Q ) U @ a f y w & s 9 < B Z G +.@.$.D D.D.D.D.",
"D.D.D.D.D @.6.+.S D M : 9 6 3 Y h a 4 Q n.~ 6 O O X 8 [ Q o $ / 8 X X & / n.) a 8 8 y d - 0 4 < V D D @.%.$.D D.D.D.D.",
"D.D.D.D.D @.u.<.S { N : 6 4 3 z e = % Q m.m.Q + . % K [ Q o $ / I +   w N.n.) a = = z l & 4 4 < C G D @.%.$.D D.D.D.D.",
"D.D.D.D.D @.u.<.S { N , s t 3 d 5 = % Q b.M.m.Q U ~ ' n.Q o $ / ' Q E [ C.b.) a = = z l - s t < C G D @.%.$.D D.D.D.D.",
"D.D.D.D.D @.d.<.S { N : 0 t 3 l w = 3 E ' b.b.n.n.[ b.B.Q o $ / [ b.n.N.m.) Q 5 3 = z l - s 9 < A G D @.%.$.D D.D.D.D.",
"D.D.D.D.D @.0.+.S D N : 0 9 3 Y h = w U / ) ' ) / ' N.C.Q o $ ' n.' / ) ) / f & w = z l - 0 6 < V D D @.%.$.D D.D.D.D.",
"D.D.D.D.D @.o.{ C S M : 0 0 3 Y h = w 6 8 Q / / ) b.b./ g + @ f b.' / / Q 6 & = w & d j - t 6 < B S S } @.$.D D.D.D.D.",
"D.D.D.D.G $...G C S M : 0 t 3 Y d = w 3 @ 5 I d ) b.) a a + @ & [ [ / 8 & @ - 5 w & w d - s 9 < B S D G o.$.D D.D.D.D.",
"D.D.D.D.F o.{ G C G N : 0 0 = d 8 = 5 8 3 @ % = ) [ [ Q a + @ K b.[ ~ + + 5 5 3 3 & w d - s 9 < C D S G } o.S D.D.D.D.",
"D.D.D.N D G D D V V M : 0 6 = w 5 = 8 8 8 $ O 6 ) ' ' [ U + @ Q ' ' / = $ w w 8 8 & w d - 0 6 < B V V D F } A N D.D.D.",
"D.D.D.B C S C C V D A , 9 4 = w 5 = w w w 3 - ) ) ' ) b.Q o @ Q ' ' ) / w w w w 8 & w d = 9 4 1 D D C C A S A V B D.D.",
"D.D.D.G 5.5.5.2.X.2.+.7 9 4 = d 5 & 5 8 8 5 - Q k b./ b.Q o $ Q ) b.a ~ w 5 8 8 3 % l l = 6 4 p 2.5.5.5.5.5.5.<.S D.D.",
"D.D.D.| s.f.g.f.s.a.3.< ; 4 & l h % 3 3 3 5 $ O 6 ' / [ Q o @ Q ) ) % $ 5 3 3 3 3 & l j = 6 * p 8.p.s.s.s.s.s.8.S D.D.",
"D.D.| S {  .o. .{ { D : ; 3 & j y % 3 w w w 5 $ % ^ b.[ Q o @ Q n.U @ % 8 w 8 5 5 & w d = 4 * 1 S F { { { { G D B D.D.",
"D.X.8.F F D D F F F A , 4 4 = d 5 % = 3 5 w 5 3 a n.) n.Q o @ ! ' b.3 5 8 5 3 = = $ w d = 4 ; 1 D F F F F F F F | D.D.",
"D.t.h.t.t.w.w.t.t.t.1.7 0 t 3 l w % = = = 3 - = f ) 6 / P + @ a 8 [ 5 3 3 = = = = $ w d - s 9 p w.t.t.t.t.t.t.i.k.9.D.",
"%.#.;.8.8.w.i.i.i.i.3.7 0 t 3 Y h % = & = = = = w f & l y + @ = & K 5 = = $ & = = $ h j - s 9 p 3.w.i.i.i.y.w.w.:.$.%.",
"t.o.S X.o.#.%.@.O.@. ., 0 t 3 Y h % & w 5 3 5 5 = $ - Y d + @ w & $ 5 3 5 j w $ & % x l - s 9 u ..o.@.#.O.O.o.o.S #.i.",
"h.o.D X.o.O.O.o.X.{ S , 0 t 3 Y h $ e h 3 3 3 3 = & - Y d + @ w & = 3 3 5 j z w $ $ z l - s 9 u G  .o.o.X.X.X. .S 2.k.",
"g.o.S  . . . .{ G D V : 4 6 = d w e z 8 = = = = - & - Y d + @ w & & - = = 5 j z Y 5 z l = 9 ; 1 D F G } X.X.X. .S 2.k.",
"h.+.C S S S S C C C N : ; 4 = w l P j 5 = = = 5 j & 3 Y d + @ w = - j - = - w j l d j y & 4 * < V C C A S S S S A 5.k.",
"l.i.#.@.@.@.@.@.@.#.X., ; 4 = w j j d = 3 5 5 3 w Y z Y d + @ w Y Y 3 % 5 = - d d d d w & 6 * i +.@.@.@.@.@.@.@.2.g.l.",
"f.h.g.g.g.g.g.g.g.g.8.< ; 4 & w y d 5 = = = = = 3 j d Y d + @ w j h = & = = = w d d d w & 4 * p s.f.g.g.g.g.f.f.f.g.f.",
"D $.5.5.5.5.5.5.$.+.} , * * = w w y z R T Y Y R z w w z d + @ 5 w d Y Y j Y R l d w w 8 & * * i X.+.2.5.5.5.@.+.O.+.S ",
"C o.#.%.%.%.$.o.X.X.G : & & & 5 3 4 5 5 5 5 5 5 5 5 5 d q + @ = 5 5 5 5 8 5 5 5 5 5 5 3 % & % 2  . .X.O.$.$.$.$.o. .B ",
"C  .o.#.#.#.o.X. .G D 1 1 1 1 1 < < 1 1 1 1 1 1 1 1 1 1 1 < < 1 1 1 1 2 u 1 1 1 1 1 1 1 1 1 < i G G  .X.@.o.+.@.o. .B ",
"C X.X. . . . . .G D D b B C D S V V V B V V V C S V V V V V V V V V V V V V B B V V V V V V N n D D G  . . . . .X. .B ",
"V D D Z Z Z Z Z Z Z C B D } @.o.{ { G C S F G  .o.{ { { { { { { { { { { { G S C G { { { G F D B Z Z Z Z Z Z Z Z D D B ",
"B C C S D D D D D D D F  .@.%.$.@.@.@.F D } O.@.$.@.@.@.@.@.@.@.@.@.@.@.O. .F D  .o.@.+.o. .{ D Z S F F F F F F F D B ",
"B G  .X.@.@.@.@.@.@.@.@.#.%.%.%.%.%.%. .} @.5.i.u.u.u.u.9.%.e.d.u.u.u.t.$.@. .{ X.@.%.%.#.@.@.X. . .X.X.X.X.X.X.X. .B ",
"V  .:.s.g.g.f.f.6.5.u.g.g.f.g.g.f.9.$. .o.$.6.k.l.l.l.l.h.f.k.l.l.l.l.k.g.e.X.{ @.9.g.f.g.g.f.s.w.#.#.#.#.#.@.@.o. .B ",
"C o.6.l.l.l.l.c.x.h.l.c.l.l.l.l.l.h.0. .@.5.f.k.k.k.l.l.l.l.l.l.l.c.v.v.c.l.7.o.w.h.l.l.l.c.z.z.c.x.x.j.g.g.g.6.$.O.V ",
"D @.0.h.h.h.h.j.l.j.j.j.j.h.h.h.h.h.9.o.@.$.4.6.6.6.e.h.h.h.h.h.j.l.l.l.j.j.8.@.5.6.6.6.g.l.x.j.l.l.l.j.j.j.h.g.g.w.S ",
"..o.O.+.+.+.+.+.+.+.+.+.+.+.+.+.+.+.O.o.o.o.o.o.o.o.O.+.+.+.+.+.+.+.+.+.+.+.O.o.o.o.o.o.+.-.>.+.+.+.+.+.+.+.+.-.-.+.} "
};
