/* XPM */
static char *result[] = {
/* columns rows colors chars-per-pixel */
"75 75 215 2 ",
"   c #1D0E0B",
".  c #040B15",
"X  c #0D0D15",
"o  c #070F1B",
"O  c #0A0F1A",
"+  c #110C11",
"@  c #1C0F11",
"#  c #0D111B",
"$  c #161116",
"%  c #1D1217",
"&  c #14121A",
"*  c #1A151A",
"=  c #1E191D",
"-  c #250E0A",
";  c #27100D",
":  c #2C110C",
">  c #341208",
",  c #3D160D",
"<  c #231315",
"1  c #2B1514",
"2  c #2C1816",
"3  c #221619",
"4  c #241B1D",
"5  c #2C1D1C",
"6  c #341613",
"7  c #3A1711",
"8  c #341915",
"9  c #3C1913",
"0  c #341E1B",
"q  c #391F1A",
"w  c #35211E",
"e  c #3B241E",
"r  c #3A2520",
"t  c #471607",
"y  c #4C1604",
"u  c #40150B",
"i  c #43190E",
"p  c #4D1A0E",
"a  c #531A06",
"s  c #561804",
"d  c #531C0E",
"f  c #5C1E0C",
"g  c #441A11",
"h  c #4B1C11",
"j  c #521E10",
"k  c #591F10",
"l  c #641C03",
"z  c #6D1E04",
"x  c #631E0B",
"c  c #6A1F0A",
"v  c #731E01",
"b  c #7A1F00",
"n  c #57200D",
"m  c #462017",
"M  c #4A2117",
"N  c #43241C",
"B  c #4A2419",
"V  c #46291F",
"C  c #4C2A1E",
"Z  c #532315",
"A  c #5A2413",
"S  c #512619",
"D  c #542C1E",
"F  c #5A2C1B",
"G  c #5D301F",
"H  c #622007",
"J  c #6E2104",
"K  c #65210D",
"L  c #6C210B",
"P  c #752204",
"I  c #7C2304",
"U  c #7E2905",
"Y  c #732209",
"T  c #7A2409",
"R  c #76290F",
"E  c #7C290C",
"W  c #652814",
"Q  c #692B14",
"!  c #612E1B",
"~  c #732D15",
"^  c #63311E",
"/  c #6C321C",
"(  c #763117",
")  c #7D3215",
"_  c #73341C",
"`  c #7A361B",
"'  c #75391D",
"]  c #7C3A1E",
"[  c #402720",
"{  c #472920",
"}  c #4B2B20",
"|  c #542E20",
" . c #582F20",
".. c #573021",
"X. c #5C3221",
"o. c #643522",
"O. c #6B3721",
"+. c #6E3A23",
"@. c #743C23",
"#. c #7A3D22",
"$. c #7D4024",
"%. c #842404",
"&. c #8C2503",
"*. c #842905",
"=. c #8D2905",
"-. c #852708",
";. c #852B0B",
":. c #8B2B09",
">. c #942602",
",. c #9A2700",
"<. c #952A03",
"1. c #9C2A02",
"2. c #932D08",
"3. c #9A2F08",
"4. c #973106",
"5. c #9C3106",
"6. c #95320E",
"7. c #9C3209",
"8. c #9D3A0B",
"9. c #832E10",
"0. c #843213",
"q. c #893413",
"w. c #823C1C",
"e. c #8B3C1B",
"r. c #943C14",
"t. c #9A3C15",
"y. c #943E1A",
"u. c #9E3F18",
"i. c #A42B01",
"p. c #AA2C01",
"a. c #A43106",
"s. c #AC3205",
"d. c #AA3807",
"f. c #A43409",
"g. c #AC3609",
"h. c #A53A0B",
"j. c #AC3B0B",
"k. c #B23306",
"l. c #B53807",
"z. c #B33708",
"x. c #B43B0B",
"c. c #BB3C0B",
"v. c #A23E16",
"b. c #AC3E12",
"n. c #B13E11",
"m. c #863F20",
"M. c #8C421E",
"N. c #9A4013",
"B. c #94421D",
"V. c #9C441D",
"C. c #9D4A1F",
"Z. c #AA410E",
"A. c #B5410E",
"S. c #BE410F",
"D. c #AC4415",
"F. c #A3441B",
"G. c #A74518",
"H. c #A54B1E",
"J. c #AB4A1C",
"K. c #B54313",
"L. c #BC4412",
"P. c #B64B16",
"I. c #BD4B15",
"U. c #B44719",
"Y. c #B54B1C",
"T. c #BB4C1B",
"R. c #B6501D",
"E. c #BC511E",
"W. c #824124",
"Q. c #8B4422",
"!. c #944622",
"~. c #9B4620",
"^. c #944925",
"/. c #9D4A23",
"(. c #9E4F28",
"). c #A34D24",
"_. c #AC4E21",
"`. c #A14F28",
"'. c #A65027",
"]. c #AE5225",
"[. c #B35224",
"{. c #BC5321",
"}. c #B45728",
"|. c #BB5928",
" X c #C2410E",
".X c #C44511",
"XX c #C84510",
"oX c #C54A15",
"OX c #CB4C15",
"+X c #C34E1A",
"@X c #CB4E18",
"#X c #D04F17",
"$X c #D04F18",
"%X c #C65116",
"&X c #C3521C",
"*X c #CC521A",
"=X c #D3541B",
"-X c #D8551B",
";X c #D45A1E",
":X c #DB5A1E",
">X c #C35622",
",X c #C65823",
"<X c #CB5923",
"1X c #C35C29",
"2X c #CA5F29",
"3X c #D45B22",
"4X c #DB5D21",
"5X c #CE6026",
"6X c #CE6029",
"7X c #DC6225",
"8X c #D16229",
"9X c #D96529",
"0X c #DC6629",
"qX c #E46425",
"wX c #E06829",
/* pixels */
"4X*X&X&X3X-X@X4X<X8 k %.%.%.;.-.%.-.-.%.-.T %.T -.T T 7 X.2X+XU.b.=.U <.b.T.{.G.b.U.T.T.Y.y.4 Q.[._._._.B.B.J.[.}.C.].].[.}.[.].r 4 ).[.H.Y._.).)._.[.",
"c.p.1.1.p.g.f.k.g.g >.p.p.,.i.p.i.p.p.i.<.1.p.p.,.1.i.x Q.:Xs.g.z.i.1.,.p.p.l.a.i.i.p.i.a.g.Z j. Xg.c.x.1.1.s..X:XA.x.k.c.c.A.qX#.9  Xc.g.c.x.a.i.k..X",
"p.p.p.p.i.1.i.s.3.6 &.p.i.>.,.i.p.i.i.i.,.1.<.<.&.=.i.c Q.OXi.a.1.p.p.p.i.i.s.i.1.1.s.i.c.j.7 1.p.a.i.i.i.p.p.p.k.p.1.<.a.i.a.:Xm.1 f.p.a.a.i.i.i.i.p.",
"g.p.i.p.i.i.1.,.l ; %.,.i.i.i.,.s.p.p.p.i.=.4.1.f.i.p.L ` l.p.1.1.i.p.i.1.1.p.1.1.f.s.7.4.<.1 l i.1.,.i.p.i.p.s.i.i.1.a.d.a.4.c.' + I i.,.,.p.p.p.p.f.",
"i.p.p.i.1.p.1.f.&.7 z <.3.i.1.i.p.i.i.p.=.&.5.i.k.i.<.R K i.s.i.i.*.&.>.-.i.k.>.1.1.s.k.<.&.7 b 3.1.i.i.i.i.p.i.f.&.<.1.p.k.3.<.W 1 %.1.1.i.i.p.p.i.,.",
"p.i.s.i.,.1.i.1.,.6 a i.i.,.i.p.p.i.s.i.i.1.a.a.g.4.g.e.f 1.1.i.<.z <.f.1.i.p.i.p.p.p.k.p.>.g >.1.i.i.1.1.z.p.i.p.i.-.4.1.s.i.i.d 9 ,.i.i.i.>.i.s.p.i.",
"i.i.i.p.i.>.i.p.,.u -.k.i.a.i.p.p.p.p.k.p.1.<.1.f.i.=X).H i.s.&.I P p.i.i.i.1.i.p.i.,.,.i.<.i ,.p.i.<.,.p.i.i.p.i.,.1.1.>.=.<.i.d 7 i.p.1.<.i.i.i.i.i.",
"p.p.p.p.p.i.i.p.,.g f. Xj.l.c.5.1.s. X:XA.x.z.a.;.d.7X(.f p.p.b I &.p.p.p.p.,.>.i.p.i.1.i.&.g 1.s.p.i.i.p.p.p.p.i.>.1.p.i.1.4.i.d 7 i.p.p.i.p.p.p.p.i.",
"j h d p j h h p g & O.).u.~./.m.w.~.).`.!./.).~.!./.'.} < x i > f K x x K K x H x x f x f p $ x T Y Y E Y Y T T Y c L Y Y Y L H < & x z v L E c c Y c ",
"% g g p g h h i h h h p j j j h j 8 * m.(././././.Q././.!.Q.` e.V.B.!.^.w O C ] ] ] ` ( _ #.] _ Q n f ~ w.w.Q.} # V ..D G G G D | | | D }  .D |  .| = ",
"c 1.3.1.i.p.<.1.i.p.p.p.p.p.i.i.p.>.C 0XI.c. Xz.c.Z.OX-Xl.a.3.g.c.z.c.XXA & 9.7.f.l.k.p.g.S.c.k.i.<.1.c.z.z.:X).N 0X&X*X=X.X+XP.3X4X.Xj.f.K.@XL.OX=Xk ",
"Y i.=.>.1.i.1.1.i.i.i.i.i.,.>.p.p.&.S 9Xl.i.p.1.1.i.k.k.p.i.p.i.i.a.i.k.p . H j.p.p.1.1.i.p.p.i.i.i.p.i.f.i.XX).C qXg.p.i.1.1.p.c.c.i.i.i.i.p.f.p.p.d ",
"Y p.1.3.<.2.=.i.p.i.p.p.i.1.1.i.,.&.S K.a.5.j.f.i.1.i.s.p.i.p.p.1.1.i.=.  # %.s.4.s.f.5.i.i.p.s.p.p.i.,.1.i.l.B.C *Xj.i.s.5.1.i.i.g.p.p.i.p.>.a.p.3.1 ",
";.<.p.k.i.i.*.<.p.i.p.p.i.1.i.1.1.%.g 3.<.k.p.1.1.%.5.i.i.p.p.i.i.1.1.&., $ -.=.a.k.5.1.>.p.p.i.i.p.i.i.i.s.p.R B 7.=.d.s.5.1.&.i.i.i.p.p.a.i.,.,.b ; ",
"t.5.<.j.f.7.1.,.i.g.i.p.s.i.1.1.>.y 1 1.i.f.1.3.=.<.p.p.p.p.p.,.i.i.i.1.d # &.i.k.p.p.p.i.p.p.p.p.p.>.<.i.i.1.c 8 1.i.l.p.i.<.-.p.p.p.p.p.<.i.i.a.,.d ",
"].OXa.s.i.1.1.p.p.s.p.i.p.i.1.i.k.%.1 1.<.&.<.<.1.,.i.i.i.a.i.i.<.1.i.i.f & >.i.i.1.i.p.i.i.i.p.a.p.i.&.&.i.i.L 7 i.1.=.=.=.2.i.i.p.i.a.p.i.,.1.i.,.f ",
"}.;Xi.s.p.i.i.z.#Xl.p.1.i.s.s.a.k.1.9 <.1.<.i.p.i.<.1.p.p.p.p.p.i.i.k.p.d & -.i.,.,.i.p.,.,.p.p.p.p.i.,.%.p.p.v 8 1.3.<.1.i.i.>.,.i.p.i.p.i.,.i.g.i.k ",
"#.2X>X,X>X>X{.J.2X>XU.t.t.E.T.U.<X~.% f Y R Y b Y Y Y T -.T b T Y b T Y 1 O k %.%.%.c c T -.%.&.&.%.-.:.z Y &.g % -.&.<.>.,.<.&.>.i.i.,.,.i.,.i.,.,.g ",
"3 0 q q q w q 0 0 4 5 0 e q q 0 q 2 * % % 3 3 % 3 % % & O & & & & & $ & & & $ % % % $ X $ & & 5 q w 0 2 1 2 8 5 5 N g Z B M B B 2 < 2 2 4 8 1 1 1 3 # ",
"<.<.>.&.3.&.&.>.%.3 c &.*.>.>.>.-.&.>.3.>.>.3.<.&.>.>.j 9 T %.%.-.%.T %.%.-.-.-.-.:.z y -.x e 2X&XK.n.3.*.-.f.L.T.D.v.n.n.U.D.b.N O x Y c c R c c R b ",
"p.i.i.p.i.,.p.k.i.i %.1.<.1.p.i.>.>.i.p.i.p.p.,.i.k.p.v x i.,.,.p.p.,.,.1.p.p.p.p.a.&.,.s.>.! 7Xs.a.g.p.i.i.i.p.k.s.i.1.p.p.i.z.Z 6 i.p.p.i.i.p.p.p.p.",
"p.i.s.p.,.<.1.i.,.g &.i.=.=.<.2.i.i.p.i.a.p.i.,.<.i.i.z L i.i.i.i.p.i.i.i.i.i.i.p.,.%.i.i.&.! $Xk.i.1.i.i.i.i.i.i.i.1.1.s.i.d.S.h 6 ,.p.i.<.,.i.p.p.i.",
"i.p.p.i.<.i.i.i.>.g =.i.s.s.i.3.%.i.p.p.p.p.>.i.i.a.i.z L i.s.z.p.s.i.i.p.i.p.g.1.<.1.p.i.-.S g.p.,.i.1.p.i.i.4.i.1.1.4.d.a.2.<.g 6 ,.1.i.i.1.i.k.p.i.",
"i.i.i.s.i.i.1.<.v 6 6.=.a.s.1.a.&.3.i.i.p.p.i.i.1.>.&.u x =.1.k.i.,.>.i.s.a.p.p.a.1.i.i.p.3.h ,.s.p.i.:.P >.%.1.s.i.1.i.p.k.a.1.p < %.<.1.i.i.p.i.p.i.",
"k.p.i.p.p.1.i.s.%.2 E.x.5.g.a.1.1.p.p.s.i.i.p.,.1.p.s., c j.5.a.f.1.1.i.p.j.p.i.p.i.<.i.s.U.Z ,.1.i.=.b -.g.1.i.i.p.i.p.p.p.p.p.h X z i.1.,.i.p.i.p.g.",
"k.i.i.i.i.a.5.p.i.g 6XL.i.p.,.,.i.k.c.p.i.i.p.i.a.i.p.c R c.p.p.i.,.i.p.p.p.i.p.i.i.a.i.l.2XZ ,.s.>.%.z i.i.i.p.i.,.i.i.i.>.,.i.h < i.p.f.i.i.p.p.i.z.",
"=Xc.g.j..X.XS.oX+XB 1X;XoXOX.XoXI.*XqX.Xx.8.j.OXc.L.-X0.( z.g.l.k.p.s.A.c.z.i.,.<.k.l.z.OX8Xh 1.i.b v -.i.p.p.p.,.,.1.p.,.i.1.1.9 8 c.c.g.c.l.a.i.k..X",
"O.o.^ o.o.o.^ O...& r o.o.o.o.o.G X.o.o.X.D X.o.o.o.o.5 0 _ #.#.@.( / @.#.` Q f A W ] m.Q.o.* 8 7 @ 9 h h g h i g 7 g g g g 7 7 # * Q./.!.!.^.Q.Q.!./.",
"& r C { V V V N N { V e e V { [ V 5 o % < 1 < < 3 < < < < < < < < 3 < % o 4 w.y.y.e.e.0.w.!.y.9.L H L e.y.!.^.4 O p p k d d d p d d f f f A f f f p $ ",
"W.wX&X=X@X+X%XT.0X=XL.h.h.+XoXI.=XY.9 -.&.<.,.,.1.&.>.,.i.i.,.i.,.,.i.,.6 8 a.7.d.k.p.p.g.c.k.p.1.<.s.l.j.c.qX .7 3.1.1.i.p.i.>.i.p.p.p.p.p.1.i.p.i.9 ",
"`.;Xi.p.p.1.i.s. Xl.i.i.i.p.s.1.p.1.d 1.4.<.i.i.1.>.1.p.i.i.p.,.,.i.k.i.i + E f.i.a.1.1.p.p.i.p.p.i.i.i.a.p.-X .7 i.=.=.1.1.1.1.,.p.i.i.p.,.<.i.p.i.g ",
"!.OXa.a.a.1.1.i.p.s.p.p.i.i.1.i.k.T i i.1.:.&.=.2.i.i.i.i.j.p.i.1.1.1.,.i < 3.4.a.d.7.1.i.i.4.i.p.i.i.1.1.p. XD 7 p.i.3.<.3.=.1.p.p.i.k.i.,.1.i.1.,.g ",
"0.<.<.s.s.7.>.>.i.i.p.p.s.i.1.1.>.s i 1.i.l.i.i.&.=.s.p.i.p.i.3.i.i.f.,.g 9 >.3.k.p.1.1.>.k.1.-.,.&.<.i.i.s.i.g m 1.1.z.p.1.<.%.p.i.i.p.p.1.p.1.a.&., ",
"L 1.s.l.i.i.-.2.p.i.p.p.i.3.i.i.i.&.W 4.=.d.s.5.1.&.1.i.i.p.p.i.1.,.,.b @ 7 i.i.k.i.s.i.i.p.i.,.3.%.P 1.i.i.>.7 D j.4.a.d.f.1.1.i.d.p.i.p.i.,.,.1.z + ",
"L i.<.=.&.2.<.i.i.p.i.s.i.,.<.i.1.>./ @Xj.1.s.3.1.i.p.k.p.p.p.i.1.i.a.3.@ 7 i.i.,.i.i.i.i.i.i.i.i.i.J %.<.p.1.7 X.:Xs.a.s.<.1.i.p.k.p.i.p.i.1.f.s.i.1 ",
"L 5.2.>.i.i.1.>.1.p.i.i.p.,.,.p.s.>._ qXd.p.p.1.1.s.c.l.i.i.i.p.i.f.p.p.i 7 1.1.,.i.p.i.>.1.p.p.i.p.I I &.p.p.7 o.qXg.z.s.p.d.s.OX.Xp.1.1.s.z.s.k.z.i ",
"d >.<.<.,.i.2.>.,.i.s.1.i.f.,.1.i.&.D 0X&X*X=X+X@XP.3X4X.Xv.7.K.OXL.%X=Xg * K L Y Y Y Y L Y Y T Y P Y f > x L $ w |.[.{.{.T.{.H.|.1XY.F.N.J.Y.U.{._.0 ",
"2 N M M N h h N g 1 2 8 8 8 8 6 6 3 & } X.X.G D X.D ....| | D o.G G G D 4 & * * * * * X o & O o # & & # # # # # # * = = = = = = * * * = = = = = 3 = # ",
"{.U.J.J.R.T.U.>X[.5 0 y.N.V.y.y.q.B.~.u.;.L x E r.y.).^.5 (.[.v.u.:.Y Y 2.F.H.V.r.v.v.Q - ) B C ).~.V.).M.] B.H.'./.B.).).).(.).@.4 !.H.~./.).!.!.~._.",
"x.p.i.1.s.k.p.s.z.8 W z.a.k.p.p.i.j.c.p.i.1.1.k.z.g.c.7Xo.4Xc.f.k.s.1.1.i.p.z.z.i.i.p.p.*.a.~ E .Xz.l.c.a.1.s.l.:X.Xj.x.k.c.c.%X8Xj x.c.j.c.l.a.i.s..X",
"s.i.i.p.i.1.i.s.i.< A c.s.a.i.<.1.p.i.i.p.p.i.i.3.i.k.3XO.<Xk.a.a.i.i.p.p.p.p.p.1.<.i.a.f.c.W f k.i.f.i.p.i.p.p.k.s.i.1.1.s.i.S.2Xg i.p.f.i.i.i.i.p.s.",
"f.p.p.p.p.,.1.,.v + d a.4.s.d.f.1.i.i.4.i.p.p.i.1.i.p.K.! n.p.i.1.1.p.i.i.g.p.i.1.f.s.d.4.7.f : >.i.,.1.p.p.p.a.s.i.1.a.5.s.4.a.D.1 c i.1.,.i.p.p.p.s.",
"1.i.p.i.1.i.i.a.>.6 d >.i.k.a.1.<.,.k.<.&.>.%.>.i.i.p.,.h >.a.s.i.<.i.p.p.a.s.i.<.1.i.k.i.<.f d >.1.1.i.i.i.p.i.i.1.%.1.1.k.s.<.2.9 %.3.1.i.a.i.i.p.i.",
",.p.s.p.1.1.1.,.,.7 d p.i.k.p.s.i.p.i.i.<.5.I %.1.i.1.>.i >.,.i.1.>.a.k.i.i.i.i.i.k.i.k.p.p.x c 1.i.i.i.,.p.p.p.i.a.2.=.1.i.a.a.>.i >.i.i.i.1.i.p.p.i.",
"i.i.i.i.i.>.i.s.i.7 d i.i.,.i.i.i.i.i.i.i.p.1.z %.,.p.>.h >.p.i.I 1.p.i.i.i.i.,.i.p.i.,.,.i.f L i.p.3.,.i.p.i.i.i.1.1.3.<.&.=.1.&.h ,.p.i.>.,.p.i.i.p.",
"i.p.p.p.p.i.i.p.i.8 p i.,.,.i.p.i.>.i.p.p.p.p.P b &.p.i.g ,.p.&.&.a.p.p.k.p.i.,.1.p.i.,.1.i.k L p.p.i.i.p.p.p.p.p.,.<.i.p.i.3.1.-.i i.p.i.i.p.p.p.p.p.",
"h p h p j h h p , O % x x c c L x x L L L L L K p > f f # h a : d K f x K x x K L L L L K x 2 g T U T E 9.T E E v c L Y Y Y L L h & x c c L R c c Y Y ",
"0  .X.o.X.X.X.| o.X.X.D  .! X.G ^ w o $ 6 8 7 7 7 6 6 6 8 6 6 6 7 6 6 6 < o D V.V.F.u.t.r.~.F.v.;.R Y :.v.v.{.Q.* g d g p f x n f k f f k K k f f f < ",
"|.7X+X=X.XoXI.+XqXOXx.7.d.OX.XL.-Xt.# k 1.<.1.i.i.<.<.i.p.i.i.i.f.,.i.i.%.& q.j.a.p.p.i.s.x.l.p.i.,.1.k.g.s..X2X8 >.1.;.=.i.i.<.,.i.p.p.p.p.i.i.p.p.c ",
"8X+Xi.p.i.,.i.s. Xp.i.i.i.i.s.1.s.-.# v i.:.>.i.i.,.>.i.p.i.i.p.,.1.p.s.>.% E c.a.s.1.1.1.p.i.i.p.p.p.i.a.i.l.,Xq <.i.T &.3.:.=.&.i.i.1.p.i.>.1.s.i.c ",
"{.S.1.d.f.4.1.p.p.s.p.i.p.1.1.i.s.a o L p.1.=.&.<.<.i.i.p.i.s.i.i.,.i.1.&.% Y a.5.s.f.a.1.i.i.4.i.p.i.1.,.i.p.b.q ,.p.p.i.s.i.<.>.&.,.s.p.,.i.1.i.1.c ",
"7.=.1.k.a.i.&.<.i.a.p.p.p.i.1.1.>.y o L 1.s.z.i.1.-.<.p.i.p.p.1.1.i.i.i.%.% L <.a.k.i.1.>.i.p.&.&.>.-.1.i.g.i.&.9 <.3.k.s.i.1.>.s.i.>.i.i.1.i.i.3.,.s ",
"=.i.s.g.i.1.%.1.p.i.p.p.1.1.i.i.i.I & 0.<.<.k.i.7.<.<.i.a.p.p.p.i.,.,.>.s X c p.p.k.p.p.i.p.i.i.3.a.J %.1.i.,.%.V j.4.5.s.f.1.1.p.s.a.i.p.p.i.,.i.%.- ",
"&.i.<.:.&.2.1.i.p.p.i.s.i.1.<.i.,.%.& ^.OXa.f.a.3.i.p.p.s.p.p.i.i.3.i.z.P # b i.1.,.i.p.i.,.i.i.i.p.>.v %.i.i.&.B 3Xc.a.g.1.1.i.p.k.p.i.i.p.,.a.i.k.p ",
"-.i.2.1.i.p.<.<.i.p.i.i.i.,.1.s.s.&.& `.=Xi.p.i.1.i.s..Xk.i.i.i.p.a.i.s.1.$ c i.i.,.i.p.1.>.i.p.p.p.i.P I <.p.&.N 0XA.a.=.i.a.g..X#Xp.i.1.p.z.g.s.c.Y ",
"x &.&.&.>.>.&.&.>.1.1.>.1.3.>.,.<.L # $.0X&X3XoX+X&XT.0X*XK.8.t.+X+XL.3Xv.# 1 f f x x x K f c c K x x f , > f i * `.[.H.M.V.{.H.[.|.Y.H.r.F.Y.J.Y.[.| ",
"^ _ +._ _ _ _ +.^ 2 1 9 9 9 9 7 9 1 3 8 S  .D F F F S N } +.+.O.O.! F ^ D w w w 0 r w w e 5 o = 4 4 4 5 5 4 4 5 4 w e r r r r w = * r [ [ N [ [ [ r w ",
"@XL.j.j.L.OXc.OX,Xg c ,.,.>.3.,.,.,.1.>.>.&.>.>.>.-.>.k o.0XL.K.n.<.-.&.g..XoXD.g.x.L.L.K.v.q ).<XT.T.E.t.t.U.,X8XJ.E.E.&X,X{.8Xo.4 R.>XU.+XT.J.U.L.,X",
"g.i.i.i.i.p.f.i.p.i %.s.p.,.,.i.p.i.p.i.>.<.p.i.,.<.1.c W.-Xi.f.p.p.i.i.i.p.s.s.1.i.i.i.i.j.M 1.k.i.s.p.1.i.i.l.OXs.a.i.p.s.a.:X^.6 s.p.a.s.p.i.i.i.c.",
"s.p.p.i.a.1.1.s.2.; %.i.i.<.i.i.s.i.i.p.i.1.2.<.&.2.p.v #.OXp.i.,.p.i.p.i.1.i.i.1.3.d.i.l.g.7 -.z.i.1.i.p.i.p.s.s.p.1.1.a.s.a.#XQ.@ 3.s.i.1.i.p.i.p.k.",
"3.i.p.p.i.i.,.>.v ; %.1.i.i.1.,.p.p.i.p.1.-.1.i.g.g.i.T Q s.i.,.1.i.i.i.<.5.p.,.1.f.s.f.<.>.: s >.,.1.i.p.p.i.i.i.>.3.5.a.s.<.7.` + l ,.,.i.i.p.i.i.p.",
",.p.p.i.1.i.i.f.,.9 y >.1.i.i.a.p.i.i.i.<.&.5.a.k.1.=.0.f i.g.p.1.I I >.&.i.k.,.1.i.p.z.1.>.g %.f.i.i.1.i.p.p.i.s.<.%.i.i.l.a.1.K 1 >.a.i.i.1.i.p.p.i.",
",.i.g.p.i.>.,.i.,.i f k.i.,.i.p.p.p.s.s.p.i.1.f.d.5.S.).f ,.,.<.&.P 1.f.1.i.i.p.p.p.i.p.i.1.g >.1.i.1.1.i.s.p.i.i.i.=.2.<.2.i.p.f 6 ,.1.1.1.i.i.k.i.i.",
"i.p.i.p.i.,.i.p.i.h -.s.i.f.p.i.i.i.p.c.s.i.,.1.<.i.OX[.f p.k.&.I P p.i.i.p.,.,.p.p.1.>.1.1.g >.s.i.1.,.i.i.i.p.1.1.1.i.1.<.=.i.x 8 ,.k.i.>.,.i.i.i.p.",
">.i.,.,.3.<.,.,.>.8 u.-XL..X@Xh.7.A.OXqXI.I.oXK.y.D.7X(.i 1.>.l Y =.i.i.i.i.1.<.1.i.,.,.1.-.7 >.p.i.i.i.p.p.p.p.i.<.5.i.i.1.1.1.d 1 ,.i.i.i.p.i.p.p.p.",
"% % < % 3 3 % 3 % o w X.| |  .D C ..X.o.@.#.$.#.$.#.$.C 0 Z g 9 A A A Z g 8 6 1 6 6 6 6 6 < o 1 g g g h g g g g g 9 i p i h g 9 $ # 7 g g g g g g g g ",
"r m.m.w.( K k W ( w.w._ ( ] w.] w.! # ' <XT.U.&XG.r.D.&X9X{.R.&X&X<X>X5X^.o 2 h p p h j p p d k d d p h > ; h 1 o X.^.Q.^.!.^.Q.Q.(.!.Q.] ] ^.Q.m.^.X.",
"^.qXc.z.c.i.<.,.p.c.c.j.p.s.k.k.f.j.0 -.l.i.g.s.i.1.i.s.OXx.a.i.p.s.i.+X6X= Y i.,.i.i.p.<.1.i.p.p.p.,.I v ,.p.T * 1X=Xx. Xc.l.A.I.:Xc.s.5.a. Xz.z.XXf.",
"/.$Xi.f.i.i.p.i.i.i.s.i.1.,.p.p.x.g.1 s z.i.i.1.p.p.p.p.s.p.i.1.1.s.i..X{.= I i.,.,.i.p.i.,.i.i.i.i.%.v %.s.i.I = 1X.Xi.a.1.,.i.s.z.p.p.i.p.i.a.i.g.-.",
"e.c.i.1.,.i.p.p.i.4.i.i.i.7.g.3.f.1.1 > &.1.1.i.p.p.i.a.a.1.<.5.f.k.4.<.t.3 %.p.p.p.i.s.i.i.i.1.5.a.P &.1.1.,.I * F.g.4.s.f.1.1.i.p.p.i.p.p.1.,.i.1.t ",
"Q i.s.i.i.<.>.,.-.i.p.>.3.1.s.g.<.I % z i.1.i.i.1.p.p.i.p.5.%.1.i.s.g.1.-.% I 1.k.k.i.i.>.p.p.<.&.&.%.3.p.g.i.T * :.<.a.k.i.3.%.1.i.i.p.i.i.i.i.1.>.c ",
"x ,.i.i.<.J =.<.1.p.p.i.p.a.p.x.h.x X P 1.i.3.1.i.p.s.i.p.p.<.=.2.<.1.i.&.* U 3.3.s.f.1.1.i.a.<.i.i.p.,.,.p.p.t.% -.i.a.a.i.3.&.i.p.i.s.s.1.1.i.a.,.&.",
"x i.i.&.%.b i.a.i.i.i.i.i.i.i.1.1.P @ T p.p.1.>.i.i.i.i.i.,.,.1.1.>.=.1.-.* :. Xi.s.1.1.i.p.1.i.p.i.p.i.i.i.S.[.* %.i.-.>.<.3.1.1.p.i.i.p.i.,.,.i.i.>.",
"c p.p.%.P %.p.i.p.i.,.>.p.p.,.,.i.<.1 Y p.p.1.i.p.i.p.p.i.,.<.i.i.1.1.1.Y * 6.a.i.p.i.,.a.x.p.p.i.1.i.p.s.a..X|.* U 5.<.,.i.p.>.<.i.p.p.p.i.,.i.p.p.>.",
"g >.v y I >.>.,.a.>.>.&.>.>.>.>.>.Y $ < j d d j d d d j d d j d d d n p 1 # e.OX+X@X.X.Xn.>X*X.Xa.=.<.x.+XOXqX'.O f -.-.<.&.&.-.-.&.<.>.&.2.2.&.&.&.f "
};
