/* XPM */
static char *_e51c164e5fe4a598a016bc41cdc3c80lOEoyhSP1tH2eUg5[] = {
/* columns rows colors chars-per-pixel */
"73 73 184 2 ",
"   c None",
".  c #1E2B36",
"X  c #1F2F38",
"o  c #222E3A",
"O  c #22323A",
"+  c #243A3C",
"@  c #23413D",
"#  c #264A3E",
"$  c #29533F",
"%  c #2A5B3F",
"&  c #2F693D",
"*  c #2E633F",
"=  c #326D3E",
"-  c #32673F",
";  c #3A7E37",
":  c #35763A",
">  c #3B7D39",
",  c #39763C",
"<  c #417F3C",
"1  c #263341",
"2  c #293644",
"3  c #2D3844",
"4  c #2D3B4B",
"5  c #2A3749",
"6  c #313A46",
"7  c #323E4B",
"8  c #323E51",
"9  c #2B4541",
"0  c #2A4C41",
"q  c #36414C",
"w  c #3A434E",
"e  c #2A5140",
"r  c #2D5C40",
"t  c #315344",
"y  c #375C46",
"u  c #354454",
"i  c #3A4451",
"p  c #35445A",
"a  c #3D4855",
"s  c #316341",
"d  c #3B6545",
"f  c #3C6F43",
"g  c #3A4A67",
"h  c #414A57",
"j  c #484D59",
"k  c #444E5C",
"l  c #455E54",
"z  c #4B505D",
"x  c #465557",
"c  c #4A7A44",
"v  c #445364",
"b  c #4B5461",
"n  c #4B5C6F",
"m  c #45586C",
"M  c #515561",
"N  c #555E6C",
"B  c #4A5E72",
"V  c #5D636E",
"C  c #4D6075",
"Z  c #53667B",
"A  c #626976",
"S  c #71757D",
"D  c #666B76",
"F  c #3D8535",
"G  c #3D8138",
"H  c #42952B",
"J  c #4A9B2C",
"K  c #428D34",
"L  c #408736",
"P  c #439131",
"I  c #53A22C",
"U  c #58A52C",
"Y  c #65AD2B",
"T  c #69AF2B",
"R  c #6EB32B",
"E  c #72B62B",
"W  c #77B82A",
"Q  c #67A835",
"!  c #7DBA38",
"~  c #568D40",
"^  c #568351",
"/  c #769072",
"(  c #87BD27",
")  c #81BB28",
"_  c #8CBE27",
"`  c #ACC91C",
"'  c #A7C81E",
"]  c #BBCF17",
"[  c #B3CC19",
"{  c #B7CE16",
"}  c #92C026",
"|  c #9DC424",
" . c #A2C622",
".. c #B2CD33",
"X. c #C0D233",
"o. c #86BD44",
"O. c #91C151",
"+. c #A9CC76",
"@. c #C5D547",
"#. c #CAD85A",
"$. c #CFDB6A",
"%. c #C4D769",
"&. c #D4DF7A",
"*. c #CADB79",
"=. c #5E7791",
"-. c #536980",
";. c #6C7584",
":. c #707483",
">. c #7B7D88",
",. c #607790",
"<. c #657B92",
"1. c #788290",
"2. c #73899C",
"3. c #7D8185",
"4. c #768EA6",
"5. c #7E9EBE",
"6. c #82868A",
"7. c #848F9D",
"8. c #868994",
"9. c #979C9B",
"0. c #8A919E",
"q. c #8B96A4",
"w. c #9897A0",
"e. c #9899A4",
"r. c #879EB2",
"t. c #9DA2A7",
"y. c #98A5B5",
"u. c #8FA7BD",
"i. c #A4A4AD",
"p. c #A0ABBA",
"a. c #B0B3BC",
"s. c #B8B7BD",
"d. c #B1CF85",
"f. c #B9D393",
"g. c #BEC2BB",
"h. c #C0D79F",
"j. c #D8E28A",
"k. c #DCE599",
"l. c #CFDEB7",
"z. c #C5D1B4",
"x. c #D3E4B6",
"c. c #E6EBB6",
"v. c #E1E8A8",
"b. c #87A8CB",
"n. c #88A7C8",
"m. c #99B5CD",
"M. c #99B6D3",
"N. c #AEBAC9",
"B. c #A7B9CD",
"V. c #AAC5DC",
"C. c #A7C1D7",
"Z. c #BECAD9",
"A. c #BFC3CB",
"S. c #ACCDE8",
"D. c #ABCBE4",
"F. c #B6D4EC",
"G. c #CECFD7",
"H. c #D9DDD6",
"J. c #D2D4DB",
"K. c #CCD0D1",
"L. c #D6E2C3",
"P. c #DBE9C3",
"I. c #EAEFC3",
"U. c #E2E9DA",
"Y. c #EEF2D0",
"T. c #F2F6DC",
"R. c #CCDBEB",
"E. c #D8DCE5",
"W. c #C9DEF1",
"Q. c #CDE1F4",
"!. c #D7E8F7",
"~. c #DDECFA",
"^. c #D0E4F5",
"/. c #DEE0E5",
"(. c #EFEFEE",
"). c #E8EBE4",
"_. c #F6F9E8",
"`. c #E7EFF7",
"'. c #E5F1FC",
"]. c #ECF5FD",
"[. c #FAFCF4",
"{. c #F7FAFE",
"}. c #FDFEFF",
"|. c #F4F6F5",
/* pixels */
"                                                                                                                                                  ",
"                                                                                                                                                  ",
"                                                  2 4.v o o                                                                                       ",
"                                                o y.O b =.1 .                                                                                     ",
"                                              o V w.8 !.M.b.u .                                                                                   ",
"                                              o E.6 0.~.!.M.b.5 .                                                                                 ",
"                                            6 :.8.3 ~.~.`.y.Z <.o .                                                                               ",
"                                            o J.o a.~.~.y.1 A o n .                                                                               ",
"                                          o J.M b ~.~.~.b ;.~.N.. 5 .                                                                             ",
"                                        2 8.i.o R.~.~.p.O Z.N.N.;.2 .                                                                             ",
"                                        7 }.6 7.`.~.~.h ;.~.3 7.~.3 2 .                                                                           ",
"                                      O K.0.6 ].~.~.7.3 R.7.3 ~.~.7.3 .         7 j j j j h                                                       ",
"                                      O }.M 1.{.'.~.b 1.~.3 7.~.~.R.. .     1 o (.{.{.].].i.                                                      ",
"                                      >.}.O N.{.'.~.. Z.p.3 ~.~.~.~.q . . 7 Z M q.p.p.p.p.N i                                                     ",
"                                    i a.}.. ~.{.'.~.u ~.p.k ~.~.~.~.~.~.p.n m O 7 h h h h o o                                                     ",
"                                    i a.}.. ~.{.'.~.u Q.p.3 ~.~.~.~.F.F.r.v p 1 7.p.p.p.p.6 o                                                     ",
"                                    i a.}.o ~.].~.~.7 D.'.o p.~.~.Q.M.m.2.4 m i a a h h h v 4                                                     ",
"                                    . e.}.O N.{.'.~.b M.^.7.1 y.~.D.q 7 7 X X o V.Q.Q.W.Q.r.w                                                     ",
"                                      z }.M >.'.'.~.p.n S.W.q.y.S.r.C .       2 C.V.V.V.V.u.                                                      ",
"                                      o |.w.h ~.~.~.~.N 4.S.S.S.m.u -..         i 7 S k 1 w                                                       ",
"                                      O e.(.O p.~.~.~.~.Z 7 <.C i 5.2 .           2 E.,.2                                                         ",
"                                        o `.>.i ~.~.~.~.'.E.p.B.b.Z .             2 E.,.2     z :.7                                               ",
"                                          h }.7 N ~.~.~.~.~.R.b.=..               5 E.,.2     :.j h                                               ",
"                                          3 M /.i q N.~.~.R.n.B . o               2 E.,.2 . . 5 o o .                                             ",
"                                            O o 8.S o 7 u u o o                   2 E.,.i G.e.8 u . G.w                                           ",
"                                                3 o 7 7 3 1 O                     2 E.=.4 =.C 4 g . ,.1                                           ",
"                                                                                  5 E.,.2 . . 5 p . . 5                                           ",
"                                                                                  2 E.,.5     . 1 .                                               ",
"                                                                                  5 E.,.5     p 4 1                                               ",
"                                                                                  1 i.B 1     1 p 1                                               ",
"                                                                            O 3 M / / ^ f # O O                                                   ",
"                                                                          6 t.(.U.+.# + @ % > , +                                                 ",
"                                                                      O 3.(.(.f.E E Q ~ c t O @ > * O                                             ",
"                                                                    O 9.(.).O.E E E R E E E Q r . - : O                                           ",
"                                                                  O 9.(.(.O.E E E E E E E E E E G X & = +                                         ",
"                                                                  j (.(.f.E E E E ) ( ( ) E E E E G X : @                                         ",
"                                                                + H.).U.E E E | [ ] ] ] ] [ | W E U r + F +                                       ",
"                                                                b (.(.d.E W ` ] ] ] ] ] ] ] ]  .E W J O & @                                       ",
"                                                                0.(.(.O.E  .] ] ] ] ] ] ] ] ] ] | E U & @ &                                       ",
"                                                              + z.(.U.R } ] ] ] ] ] ] ] ] ] ] ] ] ) Y F . K +                                     ",
"                                                              O ).(.L.R ' { ] ..k.I.c.&.] ] ] ] ]  .Y H X > O                                     ",
"                                                              O (.(.L.R ` ] &.[.Y.k.v._.Y.] ] ] ] ` Y H @ : O                                     ",
"                                                              O (.(.L.E ] #.[.&.] ] ] ] Y.Y.] ] ] ` Y H @ : O                                     ",
"                                                              O (.(.L.E ] c.I.] ] ] ] ] @.[.#.] ] ` Y H @ : O                                     ",
"                                                              X (.(.L.E ] Y.k.] ] ] ] ] ] [.k.] ] ` Y H @ : O                                     ",
"                                                              O (.(.L.E ] I.k.] ] ] ] ] ] [.&.] ] ` Y H @ : O                                     ",
"                                                              O (.(.L.E ] k.T.] ] ] ] ] &.[.X.] { ` Y H @ : O                                     ",
"                                                              O (.(.L.E ] ] Y.I.@.] ] &._.k.X.$.{ ` R H @ : O                                     ",
"                                                              O (.(.L.E ] ] ] I.[.[.[._.k.j.[.Y.T...Y H @ : O                                     ",
"                                                              O (.(.L.E ] ] ] ] X.#.#.] ] @.X.] Y.%.Y H @ : O                                     ",
"                                                              X (.(.L.E ] ] ] ] ] ] ] ] ] ] ] j.T.' R H @ : O                                     ",
"                                                              O (.(.L.E ] ] ] ] ] ] ] ] ] ] j.T.X.` Y H @ : O                                     ",
"                                                              O (.(.L.E ] ] ] ] ] ] ] ] ] &.}.T.Y.*.Y H @ : O                                     ",
"                                                              O (.(.L.E { ] ] ] ] ] ] ] ] ..$.$.$...Y H @ : O                                     ",
"                                                              O H.(.L.E ` ] ] ] ] ] ] ] ] ] ] ] { ' Y H . G +                                     ",
"                                                              + z.(.).E } ] ] ] ] ] ] ] ] ] ] ] ] } Y F . L O                                     ",
"                                                                3.(.(.O.W { ] ] ] ] ] ] ] ] ] ] [ E I % # -                                       ",
"                                                                a (.(.h.E ) { ] ] ] ] ] ] ] ] { W E F X : +                                       ",
"                                                                O s.(.).! E W { { ] { { ] { ` ) W U $ @ G X                                       ",
"                                                                  a (.(.l.E E E _  .` `  .} E E R = X F +                                         ",
"                                                                    V (.(.+.E E R W R E E E E R & . G $                                           ",
"                                                                    O V (.(.d.E R R W E E E ~ @ O G $ .                                           ",
"                                                                      O h H.(.l.O.R ~ d d O X r F @                                               ",
"                                                                      D s.q S K.(.l.l e r = K e @ e                                               ",
"                                                                    6 |.P.R > # w x l l 9 + e : H H O                                             ",
"                                                                    6.[.Q H H H H H ; G H H H H H H :                                             ",
"                                                                  O H.x.E I H H H H H H H H H H H H P O                                           ",
"                                                                  o 9.+.E E E R Y U U U U U U U J H : X                                           ",
"                                                                  O o y K E E E E E E E E E E Y G $ . +                                           ",
"                                                                  + t # 2 . 9 9 d d d s s @ @ . O # s O                                           ",
"                                                                      O # s = s % % % % % s = - e + O                                             ",
"                                                                            O + X O X O O + +                                                     ",
"                                                                                                                                                  "
};
