/* XPM */
static char *_591e0f6d0e74ce8eacc839440cbe252Inbkzw15JazwHhua[] = {
/* columns rows colors chars-per-pixel */
"72 72 16 1 ",
"  c None",
". c black",
"X c #111111",
"o c #222222",
"O c gray20",
"+ c #444444",
"@ c #555555",
"# c gray40",
"$ c #777777",
"% c #888888",
"& c gray60",
"* c #AAAAAA",
"= c #BBBBBB",
"- c gray80",
"; c #DDDDDD",
": c white",
/* pixels */
"                                                                        ",
"                             ..............                             ",
"                         ......................                         ",
"                      ............................                      ",
"                    ................................                    ",
"                  ....................................                  ",
"                 ......................................                 ",
"               ..........................................               ",
"              ............................................              ",
"             ..............................................             ",
"            ................................................            ",
"           ..................................................           ",
"          ....................................................          ",
"         ......................................................         ",
"        ........................................................        ",
"       ..........................................................       ",
"       ..........................................................       ",
"      ............................................................      ",
"     ..............................................................     ",
"     ..............................................................     ",
"    ................................................................    ",
"    ................................................................    ",
"   ..................................................................   ",
"   ..................................................................   ",
"   ..................................................................   ",
"  ....................................................................  ",
"  ....................................................................  ",
"  ....................................................................  ",
"  ....................................................................  ",
" ...................................................................... ",
" .................X................X......X..............X............. ",
" ........%===%+..X*................%O....X*..............%O............ ",
" ........=...O*O.+$................=.....+$..............=............. ",
" .......+$....@$.$+..O$$XOX..O$$o..=...OO$@#$@....o$$o...=..X$$O....... ",
" .......$@....&o.*X.&%+@=*O.&%+@=oO%..$&X**#+$$..#*@+*#.O%.O*@+*@...... ",
" .......&-===;+..=.#$...o:.#$...X.##X%#..=X...=.o*....=.##.=....=...... ",
" .......=...X@*.X*.=.....=.=......%#=$..X*....=.%O....=.%O+=$$$$;...... ",
" .......=.....=.+$.=....O%.=......=&X*X.+$...O%.=.....=.=.$$++++O...... ",
" ......+$....X*.$@.*X...&#.*X...+.=..O%.$+...##.$@...$@.=.O%...o....... ",
" ......$*$$$%*O.&o.O=$$=*O.O=$$*Oo&...%O&o...%O.X*%$*#.o&..%&$%*X...... ",
" ......X++++O...X....++.X....++X..X....XX....X....O+X...X...o+O........ ",
" ...................................................................... ",
" ...................................................................... ",
"  ....................................................................  ",
"  ....................................................................  ",
"  ....................................................................  ",
"  ....................................................................  ",
"   ..................................................................   ",
"   ..................................................................   ",
"   ..................................................................   ",
"    ................................................................    ",
"    ................................................................    ",
"     ..............................................................     ",
"     ..............................................................     ",
"      ............................................................      ",
"       ..........................................................       ",
"       ..........................................................       ",
"        ........................................................        ",
"         ......................................................         ",
"          ....................................................          ",
"           ..................................................           ",
"            ................................................            ",
"             ..............................................             ",
"              ............................................              ",
"               ..........................................               ",
"                 ......................................                 ",
"                  ....................................                  ",
"                    ................................                    ",
"                      ............................                      ",
"                         ......................                         ",
"                             ..............                             ",
"                                                                        "
};
