/* XPM */
static char *result[] = {
/* columns rows colors chars-per-pixel */
"70 69 178 2 ",
"   c #000000",
".  c #0C0C0C",
"X  c #131313",
"o  c #1B1B1B",
"O  c #201E1D",
"+  c #232323",
"@  c #2C2C2C",
"#  c #2A2522",
"$  c #332E2C",
"%  c #343434",
"&  c #3C3B3B",
"*  c #3C3734",
"=  c #423B36",
"-  c #47403B",
";  c #4F453F",
":  c #51453E",
">  c #383950",
",  c #1E326A",
"<  c #20336A",
"1  c #3D4265",
"2  c #434343",
"3  c #4C4C4C",
"4  c #4F4742",
"5  c #514B47",
"6  c #544D48",
"7  c #56514E",
"8  c #545454",
"9  c #5C5C5C",
"0  c #5E5753",
"q  c #68574A",
"w  c #7B5647",
"e  c #61605F",
"r  c #7E6454",
"t  c #646464",
"y  c #6C6C6C",
"u  c #6A6568",
"i  c #727272",
"p  c #7B7B7B",
"a  c #68687C",
"s  c #970900",
"d  c #9B0B00",
"f  c #9D140A",
"g  c #A20E00",
"h  c #A61100",
"j  c #AB1400",
"k  c #A31C0D",
"l  c #AE1E05",
"z  c #B01600",
"x  c #B41A00",
"c  c #BB1C00",
"v  c #9D2315",
"b  c #BE2101",
"n  c #B3200A",
"m  c #B6321E",
"M  c #A72716",
"N  c #AB3932",
"B  c #C31D00",
"V  c #C42300",
"C  c #CB2400",
"Z  c #C42A04",
"A  c #C32A0A",
"S  c #CD2900",
"D  c #D32900",
"F  c #D82C00",
"G  c #D33400",
"H  c #DE3100",
"J  c #D63C05",
"K  c #CC390D",
"L  c #E02D00",
"P  c #E33400",
"I  c #E63A00",
"U  c #FB3E00",
"Y  c #F53C00",
"T  c #B0462E",
"R  c #B44A3E",
"E  c #DB4304",
"W  c #D34C13",
"Q  c #F44A00",
"!  c #FD4B00",
"~  c #FF4A0D",
"^  c #FA4506",
"/  c #EF5F00",
"(  c #F55402",
")  c #FF541B",
"_  c #FC6605",
"`  c #FC7602",
"'  c #F67B07",
"]  c #EC631F",
"[  c #FF6612",
"{  c #E6650B",
"}  c #E56224",
"|  c #FF6820",
" . c #E4603F",
".. c #FF7A39",
"X. c #B75047",
"o. c #886C5A",
"O. c #96735D",
"+. c #BC624E",
"@. c #BA6250",
"#. c #816960",
"$. c #8F7868",
"%. c #937C6E",
"&. c #967563",
"*. c #BF6660",
"=. c #C96651",
"-. c #FB7343",
";. c #E7754E",
":. c #CD7F7A",
">. c #FF8300",
",. c #FF8C08",
"<. c #FFA608",
"1. c #FFB10E",
"2. c #FFA61A",
"3. c #FF8A28",
"4. c #F58236",
"5. c #FB913A",
"6. c #FFA72D",
"7. c #FFBA29",
"8. c #FEA73E",
"9. c #FFC40F",
"0. c #FFC012",
"q. c #FFD912",
"w. c #FFC23A",
"e. c #FFDD33",
"r. c #9B877A",
"t. c #A08471",
"y. c #D78658",
"u. c #FC9E4D",
"i. c #FFAF5B",
"p. c #D4827A",
"a. c #F69263",
"s. c #FFAF6D",
"d. c #FFC54B",
"f. c #FFD947",
"g. c #FFE24F",
"h. c #FFC26A",
"j. c #FFC866",
"k. c #FCD56E",
"l. c #FFE37F",
"z. c #848484",
"x. c #8C8C8C",
"c. c #959595",
"v. c #9C9C9C",
"b. c #A89589",
"n. c #B09B8C",
"m. c #B19485",
"M. c #B69F90",
"N. c #BAA596",
"B. c #BDA799",
"V. c #BDA99B",
"C. c #A3A3A3",
"Z. c gray66",
"A. c gray70",
"S. c #CE8D8A",
"D. c #FFAF86",
"F. c #F5B88F",
"G. c #C7B4A7",
"H. c #CBB7AB",
"J. c #FCCA9D",
"K. c #FFD99E",
"L. c #FFEA84",
"P. c #FFED96",
"I. c #FFEB9C",
"U. c #FFEBA4",
"Y. c #FFF2A9",
"T. c #FFE7BC",
"R. c #FFF2B4",
"E. c #FFF4B8",
"W. c #C3C3C3",
"Q. c gray81",
"!. c LightGray",
"~. c #FFF6C3",
"^. c #FFF9DA",
"/. c #FFF7D6",
"(. c #FFFBE8",
"). c #FFFDF4",
"_. c #FFFFFE",
"`. c None",
/* pixels */
"`.`.`.`.`.`.`.`.`.`.`.`.`.`.`.`.`.`.`.`.`.`.`.`.`.`.`.`.`.`.`.`.`.`.`.`.`.`.`.`.`.`.`.`.`.`.`.`.`.`.`.`.`.`.`.`.`.`.`.`.`.`.`.`.`.`.`.`.`.`.",
"`.`.`.`.`.`.`.`.`.`.`.`.`.`.`.`.`.`.`.`.`.`.`.`.`.`.`.`.`.`.`.`.`.`.`.`.`.`.`.`.`.`.`.`.`.`.`.`.`.`.`.`.`.`.`.`.`.< `.`.`.`.`.`.`.`.`.`.`.`.",
"`.`.`.`.`.`.`.`.`.`.`.`.`.`.`.`.`.`.`.`.`.`.`.`.`.`.`.`.`.`.`.`.`.`.`.`.`.`.`.`.`.`.`.`.`.`.`.`.`.`.`.`.`.`.`.`.`.< `.`.`.`.`.`.`.`.`.`.`.`.",
"`.`.`.`.`.`.`.`.`.`.`.`.`.`.`.`.`.`.`.`.`.`.`.`.`.`.`.`.`.`.`.`.`.`.`.`.`.`.`.`.`.`.`.`.`.`.`.`.`.`.`.`.`.`.`.`.`.`.`.`.`.`.`.`.`.`.`.`.`.`.",
"`.`.`.`.`.`.`.`.`.`.`.`.`.`.`.`.`.`.`.`.`.`.`.`.`.`.`.`.`.`.`.`.`.`.`.`.`.`.`.`.`.`.`.`.`.`.`.`.`.`.`.`.`.`.`.`.`.`.`.`.`.`.`.`.`.`.`.`.`.`.",
"`.`.`.`.`.`.`.`.`.`.`.`.`.`.`.`.`.`.`.`.`.`.`.`.`.`.`.`.`.`.`.`.`.`.`.`.`.`.`.`.`.`.`.`.`.`.`.`.`.`.`.`.`.`.`.`.`.`.`.`.`.`.`.`.`.`.`.`.`.`.",
"`.`.`.`.`.`.`.`.`.`.`.`.`.`.`.`.`.`.`.`.`.`.`.`.`.`.`.`.`.`.`.`.`.`.`.`.`.`.`.`.< `.`.`.`.`.`.`.`.`.`.`.`.`.`.`.`.`.`.`.`.`.`.`.`.`.`.`.`.`.",
"`.`.`.`.`.`.`.`.`.`.`.`.`.`.`.`.`.`.`.`.`.`.`.`.`.`.`.`.`.`.`.`.`.`.`.`.`.`.`.`.`.`.`.`.`.`.`.`.`.`.`.`.`.`.`.`.`.`.`.`.`.`.g `.`.`.`.`.`.`.",
"`.`.`.`.`.`.`.`.`.`.`.`.`.`.`.`.`.`.`.`.`.`.`.`.`.`.`.`.`.`.`.`.`.`.`.`.`.`.`.`.`.`.`.`.`.`.`.`.`.`.`.`.`.`.`.`.`.`.`.`.`.j j `.`.`.`.`.`.`.",
"`.`.`.`.`.`.`.`.`.`.`.`.`.`.`.`.`.`.`.`.`.`.`.`.`.`.`.`.`.`.`.`.`.`.`.`.`.`.`.`.`.`.`.`.`.`.`.`.`.`.`.`.`.`.`.`.`.`.`.`.c c `.`.`.`.`.`.`.`.",
"`.`.`.`.`.`.`.`.`.`.`.`.`.`.`.`.`.`.`.`.`.`.`.`.`.`.`.`.`.`.`.`.`.`.`.`.`.`.`.`.`.`.`.`.`.`.`.`.`.`.`.`.g `.`.`.`.`.`.V C `.`.`.`.`.`.`.`.`.",
"`.`.`.`.`.`.`.`.`.`.`.`.`.`.`.`.`.`.`.`.`.`.`.`.`.`.`.`.`.`.`.`.`.`.`.`.`.`.`.`.`.`.`.`.`.`.`.`.`.`.`.`.j `.`.`.`.`.S H j `.`.`.`.`.`.`.`.`.",
"`.`.`.`.`.`.`.`.`.`.`.`.`.`.`.`.`.`.`.`.`.`.`.`.`.`.`.`.`.`.`.`.`.`.`.`.`.`.`.`.`.`.`.`.`.d `.`.`.`.`.`.A d `.`.h G ^ c `.`.`.`.`.`.`.`.< < ",
"`.`.`.`.`.`.`.`.`.`.`.`.`.`.`.`.`.`.`.`.`.`.`.`.`.`.`.`.`.`.`.`.`.`.`.`.`.`.`.`.`.`.`.`.`.d z `.`.h `.m } h d z I _ G d `.`.`.`.`.`.`.`.`.`.",
"`.`.`.`.`.`.`.`.`.`.`.`.`.`.`.`.`.`.`.`.`.`.`.`.`.`.`.`.`.`.`.`.`.`.`.`.`.`.`.`.`.`.`.`.`.X.k F l l C A u.J C ( >.! x s `.`.`.`.`.`.`.`.`.`.",
"`.`.`.`.`.`.`.`.`.`.`.`.`.`.`.`.`.`.`.`.`.`.`.`.`.`.`.`.`.`.H.H.H.`.`.`.`.`.`.`.`.`.`.`.`.X.=. .E E ! ( h.6.` 1.[ U x s s `.`.`.`.`.`.`.`.`.",
"`.`.`.`.`.`.`.`.`.`.`.`.`.`.`.`.`.`.`.`.`.`.`.`.`.`.`.`.H.n.%.o.r.n.V.`.`.`.`.`.`.d d d j V W a.D.8.,.7.l.L.e.i.^ U P B z g d `.`.`.`.`.`.`.",
"`.`.`.`.`.`.`.`.`.`.`.`.`.`.`.`.`.`.`.`.`.`.`.`.`.`.`.M.$.`.`.`.`.`.%.M.`.`.`.`.`.`.`.`.`.h G ' w.Y.P.R.(.)./...^ ! Y F c g `.`.`.`.`.`.`.`.",
"`.`.`.`.`.`.`.`.`.`.`.`.`.`.`.`.`.`.`.`.`.`.`.`.`.`.O.o.`.`.`.`.`.`.`.r &.1 , `.`.`.`.`.`.s d G <.q.P._._._.).K.j.4.m k f `.`.`.`.`.`.`.`.`.",
"`.`.`.`.`.`.`.`.`.`.`.`.`.`.`.`.`.`.`.`.`.`.`.`.`.`.O.`.`.`.`.`.`.`.`.`.w r `.`.`.`.`.`.h x G _ <.e.P._._._._._.R.k.y.R N `.`.`.`.`.`.`.`.`.",
"`.`.`.`.`.`.`.`.`.`.`.`.`.`.`.`.`.`.`.& 2 3 & & & 6 o.= `.`.`.`.`.`.`.`.`.o.t.`.`.`.`.`.z j K | 7.f.^.(._._.^.~.Y.0.` J c j `.`.`.`.`.`.`.`.",
"`.`.`.`.`.`.`.`.`.`.`.`.`.`.`.`.`.`.`.2 3 3 & * * : o.= $ $ % 3 `.`.`.`.`.`.r.`.`.`.`.`.f l ~ ` ' J.Y.g.^.^.R.2.j.s.~ ^ D z d g `.`.`.`.`.`.",
"`.`.`.`.`.`.`.`.`.`.`.`.`.`.`.`.`.`.`.2 > 3 8 5 5 4 q ; - * # O % y `.`.`.`.`.b.`.`.`.`.x P P Z p.F.9.6.U.d.T.[ Q ] ) P d `.`.`.`.`.`.`.`.`.",
"`.`.`.`.`.`.`.`.`.`.`.`.`.`.`.`.`.`.3 - - % % 2 3 8 0 0 7 5 = $ O 8 x.`.`.`.`.r.N.`.`.h V c `.S.:.{ >.-.h.( F.3.V h F D d `.`.`.`.`.`.`.`.`.",
"`.`.`.`.`.`.`.`.`.`.`.`.`.`.`.9 y y 3 2 & % @ @ + + % & 3 8 9 e u i i 9 `.`.`.`.b.B.`.`.`.`.`.`.l / G =...B =.5.Z s `.`.d `.`.`.`.`.`.`.`.`.",
"`.`.`.`.`.`.`.`.`.`.`.`.`.t y i i y 2 2 & % @ @ O o X .   . . X X X .   `.`.`.`.`.b.B.`.`.`.`.`.c J v @.K j `.;.G `.`.`.`.`.`.`.`.`.`.`.`.`.",
"`.`.`.`.`.`.`.`.`.`.`.9 y y i i i y 8 & & % @ + o o X .               `.`.`.`.`.`.`.r.B.`.`.`.d A +.&.`.j `.`.`.`.`.`.`.`.`.`.`.`.`.`.`.`.`.",
"`.`.`.`.`.`.`.`.`.`.t i i p p p p p y 9 2 % @ + o X . .               & `.`.`.`.`.`.`.u a b.m.M T %.`.`.`.`.`.`.`.`.`.`.`.`.`.`.`.`.< `.`.`.",
"`.`.`.`.`.`.`.`.9 y i i p z.x.z.p p i p y e 3 & + o . .             . 3 3 & `.`.`.`.`.`.> q w k `.`.`.`.`.`.`.`.`.`.`.`.`.`.`.`.`.`.`.< `.`.",
"`.`.`.`.`.`.`.9 i i i p x.v.C.v.x.p i i i i i y t 8 & @ o X . .   . @ 8 3 2 % `.`.`.`.`.`.`.`.`.`.`.`.`.`.`.`.`.`.`.`.`.`.`.`.`.`.`.`.`.`.`.",
"`.`.`.`.`.`.t i i i i z.Z.W.W.A.v.z.p i i i y i y y y y t 9 8 3 3 3 8 8 3 2 2 % `.`.`.`.`.`.`.`.`.`.`.`.`.`.`.`.`.`.`.`.`.`.`.`.`.`.`.`.`.`.",
"`.`.`.`.`.9 y i i i p x.A.Q.!.W.Z.z.p i i i i y y i y y t t t e 9 9 8 8 3 2 2 * @ `.`.`.`.`.`.`.`.`.`.`.`.`.`.`.< `.`.`.`.`.`.`.`.`.`.`.`.`.",
"`.`.`.`.`.y i i p z.p z.C.W.W.A.c.z.i i i i y i y y y y t t e 9 8 8 8 3 3 2 & & @ `.`.`.`.`.`.`.`.`.`.`.`.`.`.`.< `.`.`.`.`.`.`.`.`.`.`.`.`.",
"`.`.`.`.y i i p x.c.x.z.z.v.v.c.z.i i i i y i y y y t t t t 9 9 9 8 3 3 2 2 & % @ o `.`.`.`.`.`.`.`.`.`.`.`.`.`.< `.`.`.`.`.`.`.`.`.`.`.`.`.",
"`.`.`.t i i i z.C.A.C.z.p p p p i i i y y y y y y t t t t e 9 9 8 8 3 3 2 2 & % @ + X `.`.`.`.`.`.`.`.`.`.`.`.`.`.`.`.`.`.`.`.`.`.`.`.`.`.`.",
"`.`.`.y i i i z.C.A.C.z.i y i i i i i y i y y y y t t t t 9 9 9 8 8 3 3 2 & % @ @ + X `.`.`.`.`.`.`.`.`.`.`.`.`.`.`.`.`.`.`.`.`.`.`.`.`.`.`.",
"`.`.y i i i i p c.v.x.p i i i i y y y i i y t y t t t t e 9 8 8 8 3 3 2 & & % @ + o X . `.`.`.`.`.`.`.`.`.`.`.`.`.`.`.`.`.`.`.`.`.`.`.`.`.`.",
"`.`.y y y i y i i p p i i y y y y i y y y t y t t t t e 9 9 8 8 3 3 2 - & % @ @ + o X   `.`.`.`.`.`.`.`.`.`.`.`.`.`.`.`.`.`.`.`.`.`.`.`.`.`.",
"`.t y y y y y i y i y y y i y y y i y y t y t t t t 9 9 9 8 8 3 3 3 - & % % @ + o X .     `.`.`.`.`.`.`.`.`.`.`.`.`.`.`.`.`.`.`.`.`.`.`.`.`.",
"`.e t y y y y y y y y y y y y y y t y t y t t e e 9 9 9 8 8 8 3 2 2 > & % @ @ O o X .     `.`.`.`.`.`.`.`.`.`.`.`.`.`.`.`.`.`.`.`.`.`.`.`.`.",
"`.t t t y y y u y y y a y y y t t t t t t t e e 9 9 9 8 8 8 3 4 2 2 & % @ @ + o X .       `.`.`.`.`.`.`.`.`.`.`.`.`.`.`.`.`.`.`.`.`.`.`.`.`.",
"`.t t t t t y t t y t t t t y t y t t t t t 9 9 9 9 8 8 8 3 3 - 2 & % @ @ + o o . .       `.`.`.`.`.`.`.`.`.`.`.`.`.`.`.`.`.`.`.`.`.`.`.`.`.",
"9 e t t t t t t t t t t t t t t t t e t e 9 9 9 8 8 8 3 3 3 2 > & & % @ + + o X .           `.`.`.`.`.`.`.`.`.`.`.`.`.`.`.`.`.`.`.`.`.`.`.`.",
"8 9 9 e e e e t t t t t t t t e e e 9 9 9 8 9 8 8 8 3 3 2 2 2 & % % @ + o o X X             `.`.`.`.`.`.`.`.`.`.`.`.`.`.`.`.`.`.`.`.`.`.`.`.",
"8 8 9 e 9 9 e 9 9 e e 9 e 9 9 9 9 9 9 9 9 9 8 3 8 3 3 2 2 & & % % @ + + o X .               `.`.`.`.`.`.`.`.`.`.`.`.`.`.`.`.`.`.`.`.`.`.`.`.",
"3 8 8 8 8 9 9 9 9 9 9 9 9 9 9 9 9 8 9 8 8 3 8 3 3 2 2 2 & & & @ @ + + O X .                 `.`.`.`.`.`.`.`.`.`.`.`.`.`.`.`.`.`.`.`.`.`.`.`.",
"3 8 8 8 8 8 8 8 9 8 8 9 8 9 9 8 3 8 3 8 3 3 3 3 2 2 2 & & % % @ + + o X X .                 `.`.`.`.`.`.`.`.`.`.`.`.`.`.`.`.`.`.`.`.`.`.`.`.",
"& 3 3 3 3 8 8 8 8 3 8 8 8 3 8 3 8 3 3 3 3 3 2 2 2 & & % % @ @ + + o X . .                   `.`.`.`.`.`.`.`.`.`.`.`.`.`.`.`.`.`.`.`.`.`.`.`.",
"% 2 3 3 3 3 3 3 3 8 3 3 3 3 3 3 3 3 3 2 2 2 & & & % % % @ @ + o o X .                       `.`.`.`.`.`.`.`.`.`.`.`.`.`.`.`.`.`.`.`.`.`.`.`.",
"+ & & 2 2 2 4 2 3 2 3 2 3 2 3 2 2 2 2 & 2 & & % % % @ @ + + o X X . .                       `.`.`.`.`.`.`.`.`.`.`.`.`.`.`.`.`.`.`.`.`.`.`.`.",
"`.% & & 2 & > 2 2 & 2 2 2 & & 2 & & & & % % % % @ @ + + o o X X                           `.`.`.`.`.`.`.`.`.`.`.`.`.`.`.`.`.`.`.`.`.`.`.`.`.",
"`.@ % % % * * % & & & & & & & & & % % % % @ @ @ + + o o o X .                             `.`.`.`.`.`.`.`.`.`.`.`.`.`.`.`.`.`.`.`.`.`.`.`.`.",
"`.o @ @ % % % % % % % % % % % % % @ @ @ @ + + + o o o X . .                               `.`.`.`.`.`.`.`.`.`.`.`.`.`.`.`.`.`.`.`.`.`.`.`.`.",
"`.X + + @ + @ @ @ @ @ @ @ @ @ + + @ + + + o o o X X . .                                   `.`.`.`.`.`.`.`.`.`.`.`.`.`.`.`.`.`.`.`.`.`.`.`.`.",
"`.`.X o o + O O + + + + + + + + + o o o o X X X . .                                     `.`.`.`.`.`.`.`.`.`.`.`.`.`.`.`.`.`.`.`.`.`.`.`.`.`.",
"`.`.  X X o o o o o o o o o o X X o X X . . .                                           `.`.`.`.`.`.`.`.`.`.`.`.`.`.`.`.`.`.`.`.`.`.`.`.`.`.",
"`.`.`.  . X . X X X X X . X X . . . . .                                               `.`.`.`.`.`.`.`.`.`.`.`.`.`.`.`.`.`.`.`.`.`.`.`.`.`.`.",
"`.`.`.            . . .   .                                                           `.`.`.`.`.`.`.`.`.`.`.`.`.`.`.`.`.`.`.`.`.`.`.`.`.`.`.",
"`.`.`.`.                                                                            `.`.`.`.`.`.`.`.`.`.`.`.`.`.`.`.`.`.`.`.`.`.`.`.`.`.`.`.",
"`.`.`.`.`.                                                                          `.`.`.`.`.`.`.`.`.`.`.`.`.`.`.`.`.`.`.`.`.`.`.`.`.`.`.`.",
"`.`.`.`.`.                                                                        `.`.`.`.`.`.`.`.`.`.`.`.`.`.`.`.`.`.`.`.`.`.`.`.`.`.`.`.`.",
"`.`.`.`.`.`.                                                                    `.`.`.`.`.`.`.`.`.`.`.`.`.`.`.`.`.`.`.`.`.`.`.`.`.`.`.`.`.`.",
"`.`.`.`.`.`.`.                                                                `.`.`.`.`.`.`.`.`.`.`.`.`.`.`.`.`.`.`.`.`.`.`.`.`.`.`.`.`.`.`.",
"`.`.`.`.`.`.`.`.                                                            `.`.`.`.`.`.`.`.`.`.`.`.`.`.`.`.`.`.`.`.`.`.`.`.`.`.`.`.`.`.`.`.",
"`.`.`.`.`.`.`.`.`.                                                        `.`.`.`.`.`.`.`.`.`.`.`.`.`.`.`.`.`.`.`.`.`.`.`.`.`.`.`.`.`.`.`.`.",
"`.`.`.`.`.`.`.`.`.`.`.                                                `.`.`.`.`.`.`.`.`.`.`.`.`.`.`.`.`.`.`.`.`.`.`.`.`.`.`.`.`.`.`.`.`.`.`.",
"`.`.`.`.`.`.`.`.`.`.`.`.`.                                        `.`.`.`.`.`.`.`.`.`.`.`.`.`.`.`.`.`.`.`.`.`.`.`.`.`.`.`.`.`.`.`.`.`.`.`.`.",
"`.`.`.`.`.`.`.`.`.`.`.`.`.`.`.                                `.`.`.`.`.`.`.`.`.`.`.`.`.`.`.`.`.`.`.`.`.`.`.`.`.`.`.`.`.`.`.`.`.`.`.`.`.`.`.",
"`.`.`.`.`.`.`.`.`.`.`.`.`.`.`.`.`.`.                    `.`.`.`.`.`.`.`.`.`.`.`.`.`.`.`.`.`.`.`.`.`.`.`.`.`.`.`.`.`.`.`.`.`.`.`.`.`.`.`.`.`."
};
