/* XPM */
static char *_745b06f1559473dd51e69ab989e7690R3FUDUhbVLhBvRLp[] = {
/* columns rows colors chars-per-pixel */
"73 73 83 1 ",
"  c None",
". c #222E33",
"X c #253136",
"o c #29353A",
"O c #2D383D",
"+ c #2E393E",
"@ c #303B40",
"# c #323D42",
"$ c #353F44",
"% c #3A4549",
"& c #3B4549",
"* c #3A454A",
"= c #3B454A",
"- c #454F53",
"; c #475156",
": c #515B5F",
"> c #525B5F",
", c #545D61",
"< c #5B6368",
"1 c #60696D",
"2 c #6D7479",
"3 c #70777B",
"4 c #72797D",
"5 c #737A7D",
"6 c #757B7E",
"7 c #787F83",
"8 c #798085",
"9 c #7B8284",
"0 c #7E8487",
"q c #7F858A",
"w c #848A8D",
"e c #858B8F",
"r c #868C91",
"t c #898F91",
"y c #8C9193",
"u c #93989C",
"i c #959A9F",
"p c #989D9F",
"a c #9A9FA2",
"s c #9CA1A5",
"d c #9FA4A8",
"f c #A1A5A7",
"g c #A0A4A8",
"h c #A2A5A8",
"j c #A2A7A9",
"k c #A1A5AA",
"l c #A6ABAF",
"z c #ACB0B4",
"x c #B8BBBC",
"c c #BCBEBF",
"v c #B9BCC0",
"b c #BDC0C1",
"n c #C4C6C7",
"m c #C5C7C8",
"M c #C5C7CC",
"N c #C8CACA",
"B c #CACCCE",
"V c #CFD0D4",
"C c #D1D2D3",
"Z c #D0D2D6",
"A c #D1D2D6",
"S c #D2D3D7",
"D c #D3D4D5",
"F c #D4D5D6",
"G c #D6D7D7",
"H c #DADBDB",
"J c #DEDFE3",
"K c #DFE0E0",
"L c gray88",
"P c #E1E1E1",
"I c #E1E1E2",
"U c #E2E2E2",
"Y c #E3E3E4",
"T c #E3E3E5",
"R c #E4E4E6",
"E c #E6E6E8",
"W c #E7E7E9",
"Q c #E7E7EA",
"! c #E8E8EB",
"~ c #E9E9EC",
"^ c #EAEAED",
"/ c #EAEAEE",
"( c #EBEBEF",
/* pixels */
"                                                                         ",
"                                   ...                                   ",
"                                  ......                                 ",
"                                 ........                                ",
"                                ..........                               ",
"                               ............                              ",
"                              ..............                             ",
"                             siiiiiikiiiiiiil                            ",
"                             ((((((((((((((((                            ",
"                            ((((((((((((((((((                           ",
"                           ((((((((((((((((((((                          ",
"                           ((((((((((((((((((((                          ",
"                          ((((((((((((((((((((((                         ",
"                          ((((((((((((((((((((((                         ",
"                         ((((((((((((((((((((((((                        ",
"                         ((((((((((((((((((((((((                        ",
"                        ((((((((((((((((((((((((((                       ",
"                        ((((((((((d1,,2z((((((((((                       ",
"                       (((((((((M*......;M((((((((                       ",
"                       ((((((((M+........+S((((((((                      ",
"                       (((((((J*..........,((((((((                      ",
"                      ((((((((d............M(((((((                      ",
"                      ((((((((1............r((((((((                     ",
"                      ((((((((,............1((((((((                     ",
"                      ((((((((,............2((((((((                     ",
"                     (((((((((1............r((((((((                     ",
"                     (((((((((d............M(((((((((                    ",
"                     ((((((((((;..........1((((((((((                    ",
"                     ((((((((((M+........;J((((((((((                    ",
"                     (((((((((((M;......1J(((((((((((                    ",
"                    ((((((((((((((zr,,rM(((((((((((((                    ",
"                    ((((((((((((((((((((((((((((((((((                   ",
"                    ((((((((((((((((((((((((((((((((((                   ",
"                    ((((((((((((((((((((((((((((((((((                   ",
"                    ((((((((((((((((((((((((((((((((((                   ",
"                    ((((((((((((((((((((((((((((((((((                   ",
"                    ((((((((((((((((((((((((((((((((((                   ",
"                    ((((((((((((((((dM((((((((((((((((                   ",
"                    (((((((((((((((S+;((((((((((((((((                   ",
"                    (((((((((((((((2*.u(((((((((((((((                   ",
"                    ((((((((((((((v.Fb+K((((((((((((((                   ",
"                    ((((((((((((((2>LL*f((((((((((((((                   ",
"                    (((((((((((((J.FLLf;((((((((((((((                   ",
"                    (((((((((((((i=LLLL.M(((((((((((((                   ",
"                    (((((((((((((<jLLLL>u(((((((((((((                   ",
"                    (((((((((((((XGLLLLf,(((((((((((((                   ",
"                   L((((((((((((M.LLLLLM@((((((((((((E                   ",
"                  LLE(((((((((((c.LLLLLK.((((((((((((EL                  ",
"                 LLL!(((((((((((f.LLLLLL.J(((((((((((YLLL                ",
"                LLLLY(((((((((((r.LLLLLL.x(((((((((((LLLLL               ",
"               LLLLLL(((((((((((r.LLLLLL.M(((((((((((LLLLLL              ",
"              LLLLLLL(((((((((((z.LLLLLL.(((((((((((!LLLLLLL             ",
"             LLLLLLLHBSSSSSSVVVVd.LLLLLF.VVVSVVSSSSSCHLLLLLLL            ",
"            LLLLLLLLLc............HLLLLx...........+LLLLLLLLLL           ",
"           LLLLLLLLLLL-...........nLLLJ9...........6LLLLLLLLLLL          ",
"         LLLLLLLLLLLLLp...........3000t............MLLLLLLLLLLLL         ",
"        =LLLLLLLLLLLLLLeeerq77777<.X..o.577777eeeesLLLLLLLLLLLLLy        ",
"       ..LLLLLLLLLLLLLLY((((((((((+#..X<((((((((((LLLLLLLLLLLLLL5.       ",
"      ...LLLLLLLLLLLLLLLE(((((((((9..%.v(((((((((YLLLLLLLLLLLLLL5..      ",
"      ...LLLLLLLLLLLLLLLH(((((((((S.+.,(((((((((YLLLLLLLLLLLLLLL5...     ",
"     ....LLLLLLLLLLLLLLLLL(((((((((r.Xv((((((((!LLLLLLLLLLLLLLLL5....    ",
"     ....LLLLLLLLLLLLLLLLLL((((((((J*<((((((((!LLLLLLLLLLLLLLLLL5....    ",
"                            ((((((((MJ(((((((                            ",
"                             o..............                             ",
"                             ................                            ",
"                            ..................                           ",
"                           ...................                           ",
"                           ....................                          ",
"                          ......................                         ",
"                         .......................                         ",
"                         ........................                        ",
"                                                                         ",
"                                                                         "
};
