/* XPM */
static char *result[] = {
/* columns rows colors chars-per-pixel */
"75 79 245 2 ",
"   c #39241D",
".  c #3C2A26",
"X  c #3E322F",
"o  c #321F1B",
"O  c #49291E",
"+  c #5A2919",
"@  c #462B23",
"#  c #492C25",
"$  c #452D29",
"%  c #4A2E29",
"&  c #472723",
"*  c #4A3126",
"=  c #45322C",
"-  c #4B322C",
";  c #423027",
":  c #52332C",
">  c #4C3632",
",  c #4C3935",
"<  c #4D3D3B",
"1  c #443634",
"2  c #543A35",
"3  c #533D3A",
"4  c #563B35",
"5  c #522E29",
"6  c #62352A",
"7  c #4D413E",
"8  c #55423D",
"9  c #6F4332",
"0  c #3E5875",
"q  c #4C4444",
"w  c #5A4642",
"e  c #5B4C4B",
"r  c #584744",
"t  c #5C5250",
"y  c #634D49",
"u  c #654A45",
"i  c #66514B",
"p  c #685754",
"a  c #725955",
"s  c #6C615D",
"d  c #78625D",
"f  c #6D6664",
"g  c #786866",
"h  c #7A716F",
"j  c #8B3E1E",
"k  c #985437",
"l  c #AA5831",
"z  c #BD633C",
"x  c #B9673B",
"c  c #C85E3A",
"v  c #C46236",
"b  c #C86336",
"n  c #C4633B",
"m  c #C9633A",
"M  c #C2693C",
"N  c #8D5948",
"B  c #AD694B",
"V  c #BC6543",
"C  c #BD6A44",
"Z  c #B96B49",
"A  c #B56846",
"S  c #B76D55",
"D  c #AB7258",
"F  c #B97759",
"G  c #B17051",
"H  c #826B65",
"J  c #89726D",
"K  c #867977",
"L  c #957970",
"P  c #B27C65",
"I  c #AB7B67",
"U  c #A3604B",
"Y  c #C75E44",
"T  c #C36441",
"R  c #C36A44",
"E  c #C36C4B",
"W  c #CA6945",
"Q  c #C7724A",
"!  c #C67955",
"~  c #CF734D",
"^  c #C87B63",
"/  c #92817C",
"(  c #BA8D73",
")  c #B88C6D",
"_  c #CA8158",
"`  c #D4835D",
"'  c #CA8866",
"]  c #D58966",
"[  c #C58A75",
"{  c #C7947B",
"}  c #D99475",
"|  c #D68F71",
" . c #E39471",
".. c #E5A47F",
"X. c #687699",
"o. c #6D7DA9",
"O. c #897B81",
"+. c #6F8397",
"@. c #5F85BD",
"#. c #5E85B8",
"$. c #5F89AA",
"%. c #6885A9",
"&. c #7588A9",
"*. c #6484B5",
"=. c #6385BC",
"-. c #6389BD",
";. c #6B8BBB",
":. c #6B88B6",
">. c #728DBA",
",. c #748BB6",
"<. c #7792BB",
"1. c #7392B4",
"2. c #5E86C4",
"3. c #5E86C9",
"4. c #5D88C6",
"5. c #6186C5",
"6. c #6389C5",
"7. c #6B8BC3",
"8. c #6285C9",
"9. c #6489C9",
"0. c #6B89C8",
"q. c #748DC4",
"w. c #7A98C7",
"e. c #749AD7",
"r. c #6E92CC",
"t. c #7DA1D1",
"y. c #8C8584",
"u. c #958B8A",
"i. c #978885",
"p. c #9C9592",
"a. c #959191",
"s. c #A38D88",
"d. c #A69996",
"f. c #B39A92",
"g. c #ABA19D",
"h. c #B7A29F",
"j. c #8393AA",
"k. c #8698B7",
"l. c #9099AF",
"z. c #99A8BA",
"x. c #8EA4B7",
"c. c #ABA4A4",
"v. c #A8A6A7",
"b. c #B8AAA7",
"n. c #B9B6B5",
"m. c #B8AFAF",
"M. c #9A9FA1",
"N. c #D09B86",
"B. c #D9A88A",
"V. c #D8AA96",
"C. c #CFAD95",
"Z. c #E7A889",
"A. c #ECB698",
"S. c #F6B693",
"D. c #E7B290",
"F. c #C5B3AE",
"G. c #C5BCBB",
"H. c #C6B9B6",
"J. c #D4BEB9",
"K. c #CEB0A7",
"L. c #E6B9A6",
"P. c #EBBEAD",
"I. c #BFCABC",
"U. c #D8C6BA",
"Y. c #D2C2B5",
"T. c #F8C8A9",
"R. c #E7C7B9",
"E. c #F2CAB3",
"W. c #869BC3",
"Q. c #8AA7CA",
"!. c #9AA9C8",
"~. c #9CB3C8",
"^. c #9CB9DB",
"/. c #8AA8D9",
"(. c #AAB4C7",
"). c #B2B9C8",
"_. c #A7B9D5",
"`. c #B3BED7",
"'. c #A4AFC5",
"]. c #9BBBE5",
"[. c #8BADE5",
"{. c #C3BFCC",
"}. c #ABC3DC",
"|. c #B9C6D6",
" X c #BBCAD3",
".X c #9DC1F3",
"XX c #AAC6E9",
"oX c #B8C7E5",
"OX c #B3CFEE",
"+X c #9EC1D2",
"@X c #CBC3C3",
"#X c #CBC9C7",
"$X c #D2C5C3",
"%X c #D4CBC8",
"&X c #DBD2CA",
"*X c #CBD2DB",
"=X c #DCD3D2",
"-X c #D8D8D7",
";X c #CACDD5",
":X c #E6D4CD",
">X c #F8D7C8",
",X c #E3DDDC",
"<X c #E7D9D7",
"1X c #F5DDD6",
"2X c #E1CDCD",
"3X c #FBE3CC",
"4X c #E6E1DC",
"5X c #FBE8DA",
"6X c #C9D6E8",
"7X c #D7DCE7",
"8X c #D4DDF3",
"9X c #C4D3ED",
"0X c #D7E2EA",
"qX c #CCE3F8",
"wX c #D9E7F9",
"eX c #DDF4FD",
"rX c #E4E3E4",
"tX c #EAE4E4",
"yX c #EDEBEB",
"uX c #E7E6EA",
"iX c #F2EAE6",
"pX c #F3EDEC",
"aX c #F9EAE5",
"sX c #FCF3ED",
"dX c #F6F2EA",
"fX c #E4EBF3",
"gX c #E3EBFA",
"hX c #E8EAF4",
"jX c #F3EEF1",
"kX c #F8EFF8",
"lX c #EDF3F5",
"zX c #EDF4FC",
"xX c #EDF9FE",
"cX c #E6F5F8",
"vX c #F4F3F5",
"bX c #FAF5F4",
"nX c #F5F9F6",
"mX c #FAF9F6",
"MX c #F5F6F9",
"NX c #F9F6F9",
"BX c #F5FAFC",
"VX c #FAFAFB",
"CX c #ECF3EE",
"ZX c #EBDFE1",
"AX c None",
/* pixels */
"AXAXAXAXAXAXAXAXAXAXAXAXAXAXAXAXAXAXAXAXAXAXAXAXAXAXAXAXAXAXAXAXAXAXAXAXAXAXAXAXAXAXAXAXAXAXAXAXAXAXAXAXAXAXAXAXAXAXAXAXAXAXAXAXAXAXAXAXAXAXAXAXAXAXAX",
"AXAXAXAXAXAXAXAXAXAXAXAXAXAXAXAXAXAXAXAXAXAXAXAXAXAXAXAXAXAXAXAXAXAXAXAXAXAXAXAXAXAXAXAXAXAXAXAXAXAXAXAXAXAXAXAXAXAXAXAXAXAXAXAXAXAXAXAXAXAXAXAXAXAXAX",
"AXAXAXAXAXAXAXAXAXAXAXAXAXAXAXAXAXAXAXAXAXAXAXAXAXAXAXAXAXAXp * u.tXbXVXVXVXVXmXiXd.2 7 G.AXAXAXAXAXAXAXAXAXAXAXAXAXAXAXAXAXAXAXAXAXAXAXAXAXAXAXAXAXAX",
"AXAXAXAXAXAXAXAXAXAXAXAXAXAXAXAXAXAXAXAXAXAXAXAXAXAX. 2XmXxXk.6.6.9.5.8.9.5.5.6.6.;.X.xX@XVXpXo AXAXAXAXAXAXAXAXAXAXAXAXAXAXAXAXAXAXAXAXAXAXAXAXAXAXAX",
"AXAXAXAXAXAXAXAXAXAXAXAXAXAXAXAXAXAXAXAXAXAXAX= pXxX:.9.6.6.6.5.5.3.6.5.9.5.3.5.2.5.2.=.*.2.*.(.VXVX  AXAXAXAXAXAXAXAXAXAXAXAXAXAXAXAXAXAXAXAXAXAXAXAX",
"AXAXAXAXAXAXAXAXAXAXAXAXAXAXAXAXAXAXAXAXAXp BX<.9.9.9.9.6.6.9.4.6.6.5.3.5.5.5.5.5.5.4.4.5.5.3.4.6.=.gXmXn.m.AXAXAXAXAXAXAXAXAXAXAXAXAXAXAXAXAXAXAXAXAX",
"AXAXAXAXAXAXAXAXAXAXAXAXAXAXAXAXAXAXAXd zX;.=.7.9.6.e.9.e.9.9.6.8.4.5.6.6.5.3.5.2.5.5.5.5.5.5.5.5.5.5.3.~.VX:XH.AXAXAXAXAXAXAXAXAXAXAXAXAXAXAXAXAXAXAX",
"AXAXAXAXAXAXAXAXAXAXAXAXAXAXAXAXAX= VX/.-.6.7.9.-.9.9.9.9.6.4.6.6.5.6.5.2.3.5.5.5.5.3.5.2.5.5.2.5.5.2.5.5.3.!.VXO.AXAXAXAXAXAXAXAXAXAXAXAXAXAXAXAXAXAX",
"AXAXAXAXAXAXAXAXAXAXAXAXAXAXAXAXNX`.:.:.9.[.6.6.6.6.6.6.6.6.6.3.5.3.6.3.5.5.5.5.5.5.3.6.5.5.3.5.5.4.2.5.3.5.5.2.cXVX8 AXAXAXAXAXAXAXAXAXAXAXAXAXAXAXAX",
"AXAXAXAXAXAXAXAXAXAXAXAXAXAX8 BXeX>.qX>.oX6.9.9.6.5.9.6.9.6.3.6.8.6.5.6.2.5.3.5.2.5.5.2.2.5.5.5.5.5.5.5.5.5.5.3.5.*.VXh AXAXAXAXAXAXAXAXAXAXAXAXAXAXAX",
"AXAXAXAXAXAXAXAXAXAXAXAXAXe oXwX>.k.q.9.0.9.9.9.8.6.9.3.3.6.6.5.5.6.6.3.2.5.3.5.5.5.2.5.5.5.5.2.5.5.3.5.5.5.5.3.5.5.5.BXkXAXAXAXAXAXAXAXAXAXAXAXAXAXAX",
"AXAXAXAXAXAXAXAXAXAXAXAXd.MXwX<. X6.9.w.[.6.7.9.6.6.6.6.6.2.3.6.9.5.5.2.5.5.5.5.5.3.5.5.3.5.5.5.3.5.5.5.5.2.5.5.5.5.5.6.OXbXF.AXAXAXAXAXAXAXAXAXAXAXAX",
"AXAXAXAXAXAXAXAXAXAXAX%X}.&.hX7Xq.r.6.[.6.).g > H.k.6.6.2.6.4.3.3.5.5.5.3.5.2.5.2.5.5.5.5.3.3.2.5.4.3.3.8.4.9.5.5.2.2.-.6.k.VXb.AXAXAXAXAXAXAXAXAXAXAX",
"AXAXAXAXAXAXAXAXAXAXb. Xk._.z.7.:.6.W.p w % # # # % O <.9.4.6.6.5.6.5.3.5.5.5.5.3.5.2.5.5.5.3.#.7XO $ 8 :.3.4.5.5.5.5.=.6.=.<.VXm.AXAXAXAXAXAXAXAXAXAX",
"AXAXAXAXAXAXAXAXAXs xX X}.%.;._.7X* * $ 5 # 2 H u # # # fX9.2.6.5.4.5.5.2.2.5.3.5.2.-.3.@.2.%.& & @ # & @ 6X3.5.2.2.5.6.=.=.8.wXNXAXAXAXAXAXAXAXAXAXAX",
"AXAXAXAXAXAXAXAX1 BXVXVX&.xX8XuX5 - 8 # # = 5 * # * # # O p 6.6.6.3.5.5.5.5.5.5.5.5.8.2.4.9X# O O @ * H.2XF.#X*.2.e.5.5.=.OX=.q.`.mXAXAXAXAXAXAXAXAXAX",
"AXAXAXAXAXAXAXc.VXBX!.&.wX1.6X% % # % a % # # # # * O # a O . -.5.3.3.5.5.2.5.5.2.3.2.2.u.O @ O # @ @ @ @ O O . fX;.2.6.=.t.5._.%.VXs.AXAXAXAXAXAXAXAX",
"AXAXAXAXAXAXAXsXBXrXVX(.6X;.x.* - % $ $ % # * # # # # @ # b.# O *.5.5.5.5.5.3.5.3.3.~.O @ & & @ @ O O @ O # @ @ & @ &.=.].-.7.@.0Xj.BX, AXAXAXAXAXAXAX",
"AXAXAXAXAXAX, VXBXnXuXqX7Xw.8X# # : ,.w 5 # # # # # @ & O # # # # *.5.5.5.2.=.5.8 # O O @ @ @ O O @ @ & # & & O @ # @ 0.>.4.^.%.*.:.6XNXAXAXAXAXAXAXAX",
"AXAXAXAXAXAXVXVXVXlX}.xXwX0X> % : 7X3.uX# # a # # # # # # @ # = & . #.5.5.5.5.2.#X& . O @ O @ & @ & & @   s.= 2 @ @ & 0X6XoX;.xX_.fXwXjXu.AXAXAXAXAXAX",
"AXAXAXAXAXK VXVXVXVX`.lX].v.- ; '.6.6.-.# # = % # % # # @ O @ i.# # r 6.3.6.2.5.2.>.g # @ @ & @ @ 2 J # # & @ # & @ & i.oX5.#.&.*.BXxX XVXn.AXAXAXAXAX",
"AXAXAXAXAXVXVXgXfX`.*X&.k.;.q.q.q.*.7.9.* # # J * # # @ # # # @ d # # u.6.6.2.4.5.8.5.=.6.@./ @ @ # @ # @ @ O @ @ O @ s =.2.=.xX*.j.j.&.NXU.AXAXAXAXAX",
"AXAXAXAXr VXBXfXBXgXoXxXqXx.e.].=.6.8.9.W.# # # K.# # @ @ & & & # 5 @ # i '.gXp g 3 2 ;X!.'.# @ @ @ @ @ @ & O @ @ O & y.=.:.;._.|.zXwXhXVXVX$XAXAXAXAX",
"AXAXAXAXVX-XVXBXkXz.).qXr.XXOX/.!.*..X5.8.p # # # 8 @ # @ O $ O h.4XK.J.u =X-XE.F A V.L.iX@ & @ @ & # # # @ @ @ @ @ & uX/.BX/.xX&.~.zXBXMXvXh AXAXAXAX",
"AXAXAXe yXgXMXBXBXxXx.6.w.;.w.@.6.6.6.5.8.=.# O 5 # & # # # 3X5XQ F j ! R L.C D.Z.x E.S.N.BX# & @ @ O & @ @ & @ @ @ # 9X*.k.o.$.XXVXbX0XNXVXbXAXAXAXAX",
"AXAXAXd.v.BXBXcXwXcX>.cXoX;.XX6.-.r.9.6.5.=.7X# # # O # O D.Q ! n b T.m b m c S.` m b } _ N.vXO & @ @ # O @ @ @ # # # oX5.:.5.wXz.M.gXBXVXNXVXt AXAXAX",
"AXAXAXVXuXVXuX XwXcXqX_.6.5.:.6.#.5.5.6.5.8.=.% # % @ # L.B A.C m 5Xm T | b x n b v b W n ] F 7 # . & & @ # # # @ # # fX:.*.!.eX-X!.{.lXnXVXVXc.AXAXAX",
"AXAXb.m.6XlXj.eX7X:.7.;.2.@.7.9.5.5.6.5.5.8.8.& # @ @ F T V B ! 3XT b M m M n n } m b v m x x L.@ y @ # # # # * # @ @ g :.oX*.OX).zXlXbXNXnXBXbXAXAXAX",
"AXAX= G.BX0Xk.&.+.!.:.:..X6.@.5.5.8.5.5.5.5.8.& @ % >XA m W b m N.z c b b M b z m n m b m m z ` + 8 & # @ # # @ * d # O *.8X8XW.XXzXhX7XBXuXBXbXAXAXAX",
"AXAXd W.fXz.qXcX#.:.].6.@.Q.;.5.5.5.3.5.5.5.5.< # & Q v x z m sXv n b z m m b b z b m n n b b W E & # % # @ @ @ O $ $ # %.,.wXX.qXvXNXNXnXNXNXNXe AXAX",
"AXAX<X_.zXwXBX!.;.r.;.Q.5.5.8.5.0.5.5.5.6.6.5.wX# ( Z.b } E ) z z b b n b c z c n m n m m n b n ] @ O & @ # @ @ @ $ # @ ,.*.q.VXMX_.zXnXfXuXnXBXw AXAX",
"AXAXNXBX|.+.fXgX%.&.=.7.5.=.5.5.4.5.3.5.5.5.=.*XVXVX_ b z V 1Xb b n n v v v b b m b v n b m n v b @ # @ @ @ * # # * = # _.:.X.l.,.0XMXNXzXuXlXBXn.AXAX",
"AXAXmXM.6XuX8X6X;.o.7.r.8./.e.5.5.5.5.5.5.5.5.q BX' ' | V.bXW R m M m n aXVXVXsXz n m m n b n v v O @ # & % % # # % % # 6X*.>.zX9XMX-Xj.o.j.mXNXuXAXAX",
"AXAXBXxXVX~._.x.t.:./.=.].5.6.5.3.2.5.2.5.6.8.# 7 uX1XV ( ( m b b v v m ! 5XnXmXnXb n n z b v n b O # # % # & # # $ # # k.qX%.<.&.!.(.vXvXNXvXvXdXAXAX",
"AXAXBXnXvX&.=.BX@.XX-.6.8.8.5.5.5.5.5.5.5.5.:.<X* VXvXn sXV m  .S.) bXi.d.E.M S mXV.b z n z m n M l = # % # # % % & $ # ,.8.,.xX^.;X0X6XvXNXhXjXmXAXAX",
"AXAXNXBXVXfXz.5.6.9.:.-.@.5.6.5.2.=.2.5.2.-.,.$ $ 7 dXbXv m c W R.bX# r 7 # u.M z x v v v v v b m m 9 # % & % % # h.% @ =.+X>.#.9X_.8XkXvXMXvXNXvXAXAX",
"AXAXbXBXxXcXfX!.~.o.XX4.[.6.6.=.5.2.5.5.5.5.o.b.vXvXCXT 3X} n C BX$XK bX# yX  J n m n c v v n v m M b % # % % # # # # wX=.%.3.=.>.k.o.vXxX-XfX#XvXAXAX",
"AXAXdX(.cXM.k.#X|.Q.4.0.5.=.6.=.@.5.2.5.5.2.7.NXY.h.R Z W C T F VXK 2 = . Y.e G.F b n v n n v n n b b V % @ @ % 6 # & *.=.8.<.Q.7X*.tXjXz.zXkXMXiXAXAX",
"AXAXF.0XmX|.eX*X6XXXOX6.=.2.5.5.5.@.=.3.5.5.*.sXtX( R ^ W A n Z VXmX@X$ # . bX5Xb z v n c b n n n b n v A 9 $ @ % + c N #.#.MX2.8X0X;XW.MXMXvXVXm.AXAX",
"AXAX> n.VXNXbX1.%._._.;.>.7.=.5.5.5.5.5.5.5.0X%XsXC m V ~ 3Xn C C.mXNXnXNXbXbXz n b n n n n m n n n n n m n v V + m c l 1 #.X.z.hX>.gX).9XzXgX-Xr AXAX",
"AXAX< q rXvXBX}.<.<.6.*.*.5.5.5.5.2.5.@.*.p MXNXD.>Xm W M M M W b V 1XnXNXNXsXb n m m n n b n n T z n M R b T.v T m n b N uX0 o.q.(.vX).>.zXzXq f AXAX",
"AXAXAXb.#XBXmX7X7X0XoX^.5.:.5.2.5.=.5.>.9 BXbXJ.x f.{ B.M Y z ~ m z b V | Q b z n n m n c n n n b m b m b m ~ B Z m c n V F.&.:.vX0.,.vXCX7XBXJ.AXAXAX",
"AXAXAXbXq gXgXlXoXqX3.:.5.2.2.2.5.2.8XbXnXmXtXb.N.] Y m n m n n M b b n b n c n n b n n Y n n n m n n b m ~ ] K.kX[ ' R m 6 8XoXNXBXMXhX-XzXbXjXAXAXAX",
"AXAXAX3 bXlXBX XzX~.5.$.o.3.2.2.o.X bXNXNXNXsXnXD A.b z z M Q m Z.b Q n c z n n n n n n n n n n n T b A } Z B C.MXa.N.>XG V m.j.gX|.vXkXBXvXj.g.AXAXAX",
"AXAXAXy.e yXcX6X X^.:.@.qX#.7.v.sXNXNXNXNXVXvX5X! Y ! ! _ z m n m n n n n n n n n m z v c n n n n n n c A M { L.vXy.NX&XbXC.u hXrXBXrXzXfXjX7XK AXAXAX",
"AXAXAXAXtX/ ).wXqX;.w.-.#.*.w mXmXNXvXNXnXVXNXbXS D V S ! n z b n n n c z m n n n n n n n n m m n n W W z B.Z %XNX,XMXMXbXNXbX7XBXmX;XBXbXn.sXAXAXAXAX",
"AXAXAXAX. nX8X_.z.~.-.Q.'.@ - > $ # p mXVXNXNXNXvXG F V [ ! Q c n z v z n n n n n n n n v b n M m M ` W F >X| yXpXvXvXMXvXMXp ).dXfXvXvXvXyXa AXAXAXAX",
"AXAXAXAXAXsXj.OX^.wX<.@.$ # # # & . w $ NXNXNXnXNXBXV.R l N.E T z n V b n n z m n n W n n z T n z Z M W T.| F mXh vXnXNXvXNXbXhXvXhXNXlXmXvXAXAXAXAXAX",
"AXAXAXAXAX. BX6X%.W.xX3.# # # % # # % p MXMXMXvXNXnXNXA C E F M m Z._ Y F x n M n v b m m n Q m Z m R S.B.N.<XNXvXvXMXvXvXvXvXvXzXnXjXjXvXd.AXAXAXAXAX",
"AXAXAXAXAXAXbXx..Xw.Q.*.v.@ % # % $ < NXNXNXNXnXNXNXNX<X' R.Z x n Z.T R _ T n n x Q n  .M n F b ! m 3Xz V.bXvX@XNXvXvXMXvXNX@XzX*XvXcX6XNXAXAXAXAXAXAX",
"AXAXAXAXAXAX= nXoXqX:.5.o.c.& # # d.NXNXvXNXvXNXMXnXNXNXdX@XL.( ] V P A.F V E v A Z Z M z V A P.x D.F L MXvX-XMXnXvXvXvXvXvXG.iXMXnXMXvXi AXAXAXAXAXAX",
"AXAXAXAXAXAXAX/ BX5.=.-.6.6XNXu.bXnXNXNXNXNXNXNXMXNXNXNXmXiXaXD 5XG C J.' B.D T.! T.' A C V m V B >X,XsXjXMXMXMXvXvXvXvXvXyXNXjXjXvXjXCXAXAXAXAXAXAXAX",
"AXAXAXAXAXAXAXAXbX(.8.3.=.7.c.NXvXNXNXNXNXNXNXNXvXNXNXvXmXvXbXbXvXvXvXpX4X/ sX[ V.k ) P f.M ~ P.C.CXvXvXvXvXvXvXvXjXvXvXvX,XjXpXjX;XvXu.AXAXAXAXAXAXAX",
"AXAXAXAXAXAXAXAXe nXk.3.5.5.8.f NXbXvXnXNXvXNXvXNXvXvXkX=XvXNXvXvXe a y.-X$XmXU.sX1XV.E K.D bXbXnXnXMXvXvXvXvXvXvXvXvXvXvXvXK 3 ).nX< AXAXAXAXAXAXAXAX",
"AXAXAXAXAXAXAXAXAX. BXo.=.=.5.=.@XbXq jXnXvXbXNXbXu.H.bXvXvXvXvXvXNXbXvXvXvXvXvXvXvXaXsXbXvXvXvXvXvXvXvXvXvXvXvXvXvXvXvXnXv.vX% $ G.AXAXAXAXAXAXAXAXAX",
"AXAXAXAXAXAXAXAXAXAX= bX=.=.=.5.X vXvXbXvXiXp.<XvXvXnXnXnXNXvXbXbXbXbXbXbXbXbXvXmXvXbXvXvXvXvXNX-XnXvXvXvXvXvXvXvXvXvXvXvXpXvX* 1Xr AXAXAXAXAXAXAXAXAX",
"AXAXAXAXAXAXAXAXAXAXAX1 NX=.#.=.*.i.yXMXMXNXvXNXBXnXvXnXjX. d.iXvXvXvXiX1 ,XvXvXpX,X$X%XtXvXvXjXvXvXvXvXvXvXvXvXvXvXvXvXvXlXe tXiX@ AXAXAXAXAXAXAXAXAX",
"AXAXAXAXAXAXAXAXAXAXAXAX= MX*.=.@.=.#X-Xp.iXf u.K 7 8 <XbXMXNXMXvXvXvX#Xm.vXbXv.vXvXvXvXMXvXvXvXvXvXvXvXvXvXjXvXvXvXvXkXjXvXiXsX= @ AXAXAXAXAXAXAXAXAX",
"AXAXAXAXAXAXAXAXAXAXAXAXAX$ bX!.5.*.@.2.5.*.,.=.6.5.q vXNXvXMXMXvXvXvXjXG.vXh vXvXvXjXvXvXvXvXvXvXvXvXvXvXvXvXvXlXvXvXvXvX@XsX$ s.> AXAXAXAXAXAXAXAXAX",
"AXAXAXAXAXAXAXAXAXAXAXAXAXAXt dXzX2.5.=.5.=.5.2.k.#XaXMXMXvXvXvXvXvXvXvXmXpXq vXvXvXvXvXvXvXvXvXvXvXvXjXlXvXlXvXlXkXjXMXw iXrXX F.g.AXAXAXAXAXAXAXAXAX",
"AXAXAXAXAXAXAXAXAXAXAXAXAXAXAXAXd.bX*.=.=.*.@X% % u vXvXvXvXvXvXvXkXvXvXnXvXlXvXvXvXvXvXvXvXvXvXjXlXjXvXvXvXvXvXkXvXpX6 V jXg f d.AXAXAXAXAXAXAXAXAXAX",
"AXAXAXAXAXAXAXAXAXAXAXAXAXAXAXAXAX= vXzX`.# % # # F.#XvXvXvXvXvXvXMXlXvXvXvXvXvXvXvXvXvXjXvXvXjXvXvXlXvXvXvXvXjXlXs Z c pXtX#XX L % AXAXAXAXAXAXAXAXAX",
"AXAXAXAXAXAXAXAXAXAXAXAXAXAXAXAXAXAXAX3 vX> # # 5 d H.vXvXvXjXvXvXvXvXvXvXvXvXvXvXvXvXvXvXvXvXlXvXvXkXvXlXvXkX,XN V R V I jXh h $ - = AXAXAXAXAXAXAXAX",
"AXAXAXAXAXAXAXAXAXAXAXAXAXAXAXAXAXAXAXAX1X3 vX% # d c.m.VXvXvXvXvXvXvXvXvXvXvXjXlXvXjXvXjXlXvXjXvXjXvXzXvXiX+ T n V ! F U.kX,XpX5 % % AXAXAXAXAXAXAXAX",
"AXAXAXAXAXAXAXAXAXAXAXAXAXAXAXAXAXAXAX= @X% > . sX= % yXvXvXvXvXvXvXM.jXvXvXvXvXvXvXvXvXkXvXvXvXvXjXjXJ 9 V n  .M x N.A m.n.vX% * % - = AXAXAXAXAXAXAX",
"AXAXAXAXAXAXAXAXAXAXAXAXAXAXAXAXAX$X# # % = d.,XE.N % rXjXnXvXvXvXvXbXf vXjXjXvXjXvXvXjXvXjXvXvXu.+ V M n n R Z.C ! :X' K vX% % - % - - AXAXAXAXAXAXAX",
"AXAXAXAXAXAXAXAXAXAXAXAXAXAXAXAXAX# - % & tX<XyX:X' n V P 9 $ d.yXvXvXjXvXvXvXjXvXpXjXrXa # U Z n n V z M n z M A D.E.D sX= % % % - % 5 AXAXAXAXAXAXAX",
"AXAXAXAXAXAXAXAXAXAXAXAXAXAXAXAX- % % # 4 % %X=XyX1XV n A.b z z n V A B U B.D U D ' V T z n z z M n n V W V M ] D.A.V.b.= % % % % % % % AXAXAXAXAXAXAX",
"AXAXAXAXAXAXAXAXAXAXAXAXAXAXAXp % L % % # = > t NXN.( ! B z A z M n n n M V m Z T.c m T V V M n n n M n z z z B.T L.&X$ % % % % : - - # AXAXAXAXAXAXAX",
"AXAXAXAXAXAXAXAXAXAXAXAXAXAXAX- % $ % % g . 3 , y.bXU.z D _ M V n M n z n M T Q V } R C Q D.A W ~ | T A B.] _ ) P - = * - % : % % - % * f AXAXAXAXAXAX",
"AXAXAXAXAXAXAXAXAXAXAXAXAXH.# : % i % $ % U.g > = vX,Xz 3XF V z z z T T n z n n V V ' Z ' F E V Z V z Z.F >XP - 5 % % : % % % % % u # % 5 AXAXAXAXAXAX",
"AXAXAXAXAXAXAXAXAXAXAXAX% = y - % @ F.% 2 2 &X% - p . { E R { v E V V m 5XM B n Z Z ] } F Z S.L.z | T.z P.: - % % > % - : - % 4 * 5 - 7 u w AXAXAXAXAX",
"AXAXAXAXAXAXAXAXAXAX2 u % 4 - F.- = u p p :Xq 3 , $ > d = # D ' P z C L.z R T A.Z ..M B ( L.( ) S 6 u % 4 5 J : : 5 / : % % - # i.a # - s.- %XAXAXAXAX",
"AXAXAXAXAXAXAXAXr 1 2 # > @ 3 i r a p.p g , g.U.X y . g.i r = 7 * # L U x E.G E.) V./ u ; $ u # $ $ 3 % : i - - i > - : % > % g 8 % 7 p s a i AXAXAXAX",
"AXAXAXAXAXAX/ g H - > m.i.L i.,X> <XtXyX=Xn.-Xp.4XtX%XH.i.$ a y 2 i., e # f a.<Xb.p , g.- F.3 w F.2 , % y g $ 4 i a a = > w 3 F.$Xw s.g d.g c.AXAXAXAX",
"AXAXAXAXAXF.L . & w w s.o $ w , d.v.tX,XAXAXh iX%Xp.d.,X,XiXG.pXp iX%X,Xf <Xd.h i < y %X$X$Xp $ , m.i H b.< - = @ J.8 :Xa = > = K r q 4XtXaXi.AXAXAXAX",
"AXAXAXAX< d.p v.<XG.G.8 ,Xe <Xv.@X,Xn.rXAX).%XAXAXAXpXd.jXc.#XpX< #X=X=Xu.,Xf a.n.#Xv.p f J.#Xe K $X@X2XY.<X, s.K i.p :X2 d.=Xg.s.y.pXjXy.@XAXAXAXAXAX",
"AXAXAXAXyXX p.< y.=Xp.f &Xg.f AXG.AXAXAXAXAX-XyXAXAXAXc.AX=X-XG.AXyXp.m.rXAXAX#X/ n.K rX%X%X=Xi.iX%X7 %Xt :XtXu.F.g s G.h pXd.sXtXAXm.m.AXAXAXAXAXAXAX",
"AXAXAXAXAXAXAXAXAXAXAXAXAXAXAXAXAXAXAXAXAXAXAXAXAXAXAXAXAXAXAXAXAXAXAXAXAXAXAXAXAXAXAXAXAXAXAXAXAXAXAXAXAXAXAXAXAXAXAXAXAXAXAXAXAXAXAXAXAXAXAXAXAXAXAX"
};
