/* XPM */
static char *ebf76a89b80144b5941ea329a7d79f639vGodxDlNwlCmmNF[] = {
/* columns rows colors chars-per-pixel */
"76 76 227 2 ",
"   c None",
".  c #44271F",
"X  c #45281F",
"o  c #502B1F",
"O  c #452720",
"+  c #452820",
"@  c #492D25",
"#  c #492F28",
"$  c #4D332C",
"%  c #4C3027",
"&  c #583428",
"*  c #4F3730",
"=  c #4E3934",
"-  c #533B35",
";  c #553E39",
":  c #513730",
">  c #532D21",
",  c #673C2C",
"<  c #56413C",
"1  c #5A433D",
"2  c #724737",
"3  c #5A4641",
"4  c #5D4944",
"5  c #5C4B47",
"6  c #5E504D",
"7  c #624C46",
"8  c #624F4B",
"9  c #64514D",
"0  c #6B5249",
"q  c #795344",
"w  c #645451",
"e  c #6A5652",
"r  c #6B5C5A",
"t  c #695955",
"y  c #715E59",
"u  c #6D615E",
"i  c #73625D",
"p  c #6E6363",
"a  c #746C6D",
"s  c #7A6E6B",
"d  c #756764",
"f  c #7B716E",
"g  c #716B71",
"h  c #7D7473",
"j  c #7A767B",
"k  c #6F6871",
"l  c #975337",
"z  c #93492D",
"x  c #A55432",
"c  c #B75B34",
"v  c #A4512E",
"b  c #B3613D",
"n  c #C76236",
"m  c #C96235",
"M  c #C6653A",
"N  c #C96639",
"B  c #C6693E",
"V  c #C9693D",
"C  c #8A5A46",
"Z  c #99634D",
"A  c #996B58",
"S  c #8B6658",
"D  c #B56D4C",
"F  c #85736C",
"G  c #9B7365",
"H  c #827573",
"J  c #887C7A",
"K  c #8F766D",
"L  c #AA7E6A",
"P  c #C66C43",
"I  c #C86D43",
"U  c #C76F49",
"Y  c #C87047",
"T  c #C6734C",
"R  c #C9744C",
"E  c #C77047",
"W  c #C77751",
"Q  c #C57954",
"!  c #CA7A54",
"~  c #C77E5B",
"^  c #CA7E5A",
"/  c #CB7650",
"(  c #8D817E",
")  c #91817D",
"_  c #B8846B",
"`  c #A48679",
"'  c #BF8F79",
"]  c #CA815E",
"[  c #C6815E",
"{  c #C58462",
"}  c #CA8563",
"|  c #CB8B6B",
" . c #C78A6B",
".. c #CA8E71",
"X. c #CB9174",
"o. c #CC967B",
"O. c #C9977D",
"+. c #D19476",
"@. c #D18F70",
"#. c #787986",
"$. c #6B7C9C",
"%. c #59729F",
"&. c #7A8397",
"*. c #5C82BC",
"=. c #7B8BA8",
"-. c #7A92B8",
";. c #6F8BB4",
":. c #5D87C5",
">. c #5D88C6",
",. c #5F8AC8",
"<. c #638BC5",
"1. c #698EC4",
"2. c #6189C5",
"3. c #6D91C5",
"4. c #6990C8",
"5. c #7395C4",
"6. c #7698C6",
"7. c #7C9BC6",
"8. c #7C9CC9",
"9. c #7697C7",
"0. c #888488",
"q. c #958A87",
"w. c #9C928E",
"e. c #858A9B",
"r. c #9D9492",
"t. c #959395",
"y. c #968F90",
"u. c #A49D9B",
"i. c #A29997",
"p. c #A99288",
"a. c #B3A49C",
"s. c #A8A29F",
"d. c #8995A9",
"f. c #9499A6",
"g. c #889CB7",
"h. c #8C96AB",
"j. c #ABA4A3",
"k. c #A9A7A8",
"l. c #B3ADAB",
"z. c #B1A8A6",
"x. c #B6B0AF",
"c. c #B9B1AF",
"v. c #BBB5B3",
"b. c #BDBABA",
"n. c #B8B7B8",
"m. c #A8AFB7",
"M. c #96A7BE",
"N. c #CD9D82",
"B. c #D19E83",
"V. c #CCA28B",
"C. c #D5A289",
"Z. c #D4AC96",
"A. c #D9B19C",
"S. c #CBA793",
"D. c #D9B9A8",
"F. c #C2BDBC",
"G. c #C4B9B4",
"H. c #CAB4A8",
"J. c #C6C1BE",
"K. c #DCC5B7",
"L. c #E1C4B4",
"P. c #819EC6",
"I. c #85A1C5",
"U. c #85A2CA",
"Y. c #8AA5CB",
"T. c #8DA9CB",
"R. c #8CA4C4",
"E. c #93ACCC",
"W. c #98AEC9",
"Q. c #9CB3CE",
"!. c #97B0CE",
"~. c #94AED1",
"^. c #9BB3D2",
"/. c #8FAAD0",
"(. c #A1B5CD",
"). c #A9BACF",
"_. c #BBBEC5",
"`. c #A6BBD3",
"'. c #ABBDD3",
"]. c #A2B7D3",
"[. c #B0BFD4",
"{. c #AFC0D5",
"}. c #B3C3D4",
"|. c #B4C5DA",
" X c #BCCADA",
".X c #BAC7D7",
"XX c #BFCEE2",
"oX c #C5C3C2",
"OX c #CAC6C4",
"+X c #CECCCB",
"@X c #C8C7C7",
"#X c #D2CECC",
"$X c #D8CAC2",
"%X c #D8D1CB",
"&X c #C2CEDB",
"*X c #C0CCD6",
"=X c #C5D1DD",
"-X c #CCD5DE",
";X c #D5D3D2",
":X c #D9D6D5",
">X c #DCDBDB",
",X c #D6D8DA",
"<X c #E3CEC1",
"1X c #E6D5CB",
"2X c #E6DDD6",
"3X c #ECE3DD",
"4X c #E2E0DE",
"5X c #CBD6E1",
"6X c #CED9E3",
"7X c #C6D4E2",
"8X c #D4DCE4",
"9X c #D7DEE6",
"0X c #DDE3E9",
"qX c #DBE1E6",
"wX c #E3E3E3",
"eX c #E2E7EB",
"rX c #E5EAED",
"tX c #ECECEC",
"yX c #EBE8E5",
"uX c #F1ECE9",
"iX c #F5F1EE",
"pX c #EBEEF1",
"aX c #E6EBF0",
"sX c #EEF1F2",
"dX c #F3F4F3",
"fX c #FEFEFE",
"gX c #F8F7F7",
/* pixels */
"                                                                                                                                                        ",
"                                                                                                                                                        ",
"                                                                x.x.x.x.F._._._.n.m.l.l.l.x.                                                            ",
"                                                        l.u.y.k.h.e.%.%.*.:.>.2.:.:.:.<.P.^.|.m.k.l.                                                    ",
"                                                    z.8X[.;.<.:.%.:.>.>.:.>.>.>.>.>.>.>.>.:.:.>.3./.[.k.                                                ",
"                                              k.oXqX~.:.:.:.:.>.,.:.>.>.:.>.>.>.>.>.>.>.>.:.2.:.2.>.:.1.`.k.j.                                          ",
"                                          l.@X6X8.>.>.>.:.:.>.>.,.,.>.>.>.>.>.>.>.>.>.>.>.:.:.:.2.>.4.>.5.9.].m.                                        ",
"                                        k.aXU.>.>.>.:.>.:.:.>.>.,.,.>.>.>.>.>.>.>.>.>.>.2.:.:.>.>.>.:.>.4.<.<.7.0Xu.                                    ",
"                                      ;X|.<.:.:.>.>.>.>.>.>.>.>.,.>.>.>.>.>.>.>.>.>.>.>.:.:.>.>.>.>.:.>.,.<.6.T.9.Q.b.                                  ",
"                                  r.aXY.,.,.:.:.>.>.>.>.>.>.>.>.,.,.>.>.>.>.>.>.>.>.>.>.>.>.>.>.>.>.>.:.,.,.6.;.7.P.E.-Xi.                              ",
"                                x.qX3.2.>.>.>.>.>.>.>.>.>.>.>.>.>.>.>.>.>.>.>.>.>.>.>.>.>.>.:.>.:.>.:.:.:.<.9.2.9.Y.5.'..Xu.                            ",
"                              b.XX:.<.:.>.>.>.>.>.>.>.:.:.>.2.:.>.>.>.>.>.>.>.>.>.>.>.>.>.:.<.>.:.<.-.=.=.6.:.2.2.5.Q.).Q.8Xj.                          ",
"                            F.XX<.:.2.2.2.:.:.:.<.&.k #.-.:.:.:.>.>.>.>.>.>.>.>.>.>.>.>.>.>.2.2.=.9 O O + ; e.=.9.2.3.R.E.'.-Xu.                        ",
"                          v.5X<.3.2.:.:.>.2.:.5.k X . . + j 1.:.>.>.>.>.>.>.>.>.>.>.>.>.>.>.1.k X X @ : ; O X y 3 #.R.7.I..X6X8Xi.                      ",
"                        z.6X/.1.P.4.2.2.2.2.].h 3 < - # O O r -.:.,.:.>.>.>.>.>.>.>.>.>.:.-.5 O O X + X + 3 $ @ : + 6 Q.W.Q. X=XeXi.                    ",
"                      k.pXE.T.<.1.9.>.>.-.h * O O O O . O O O ; =.>.:.:.>.>.>.>.>.>.>.>.;.= * $ X X + + + + % - X + . 0.E. X`.5X0X>X                    ",
"                      >X5XQ.Y.P.3.9.U.&.$ + + + + + + + + X + X + #.9.:.:.:.>.>.>.:.:.-.* * 4 + O + + X + + + s $ O O a P..X5XpXpX0Xv.                  ",
"                    x.0X].U.T.E.3.7.d.@ + + + O X X X + + + + + X O = p -.>.>.>.:.*.-.- X 9 X + + + + O + X + #.e.+ + 8 E.`.6X6XrXsXsXu.                ",
"                    dX5X5X{.T.5.Q.U.k X O % - < ; : X + + + + X X + O p 4.:.>.:.:.-.< X 7 @ . . + + X + - + X -.<.J O O n.`.=X.XXXsXgX+X                ",
"                  J.8XqX XE.'.T.-.Y.9 X O O X . X # ; ; - 1 7 7 e k =.2.>.>.>.>.-.6 . < - . . + X + + $ : X 1 3.4.<.e.r H Q.}.-XsXsXsXgXu.              ",
"                l.fX=X0X}.Q.'.E.9.P.7 + + + + + O O X X O . 0.<.2.2.9.P.6.:.:.5.w O 3 = . + + + + X + 3 + . #.:.5.1.8.5.U.Q.R.5X&XqX,XdX:X              ",
"                n.gXsX7X-X}.`.P.7.P.e O + O O + O : + + O + @ f.0.p.a.q.q.l.t.5 . O . . . + + + + + 3 O + - 5.>.2.<.1.3.7.U.`..XqXqX0XqXfXj.            ",
"                gXsX8XsX0X X'.Y.~.1.p O O X + X X X - X O O O i.D.B.+.{ N.o.1XD Z _ D.c.p.- . + + - % + + &.:.:.<.3.9.1.P.9.W.&X XqXsXgXdXx.            ",
"              l.gXgXpXrX=X(.`.I.E.9.g X + + + + + + $ : X X q.<X[ @.R ! R T I Y !  .Q T o.V.0 . $ % + + r <.:.:.>.2.2.9.E.P.Q.P. X6X0X0X9XoX            ",
"              +XdXgXeX7X}.rX}.!.U.3.k X + + + + + . . 1 O 8 D.W B m m M / N I n V ! } I / o.X.# + X X X =.:.>.>.>.2.3.3.2.9.T.U..X=X0X8XsX4Xs.          ",
"              gXfXdXfXrX=X0XQ.!.P.1.r X X + X + + . + 1 . H.P W N N N N I m m / B N B.} / { ^ L @ + O # 8.:.>.>.>.>.>.1.<.4.7.P.I..X{. X0X0Xj.          ",
"            l.fXsXdXgXrX=X.XQ.W.[.E.$ X @ + X + + + O ; 2 W N m m N m n N N I m m m I C.N E I I L @ O 1 4.:.>.>.>.>.>.2.2.<.5.7.7.{.{.=X=X6Xx.          ",
"            v.fXfXsXaXsXrX}.Q.^.Q.g.X - . + + + + + + 1 x m m m m m n m N M N m N N m @.] N / R | S X 9 :.:.>.>.>.>.>.2.4.<.3.8.!.Y.{.!.}.qX.X          ",
"            F.gXsXpXsXtX=X X7XQ.T.$.+ ; + + X + + + . & D m m m m m m m m N m m N m m m A.P E I E _ : a :.:.>.>.>.>.<.2.>.<.9.3.4.6.{.{.qX,Xn.z.        ",
"            :XsX0XpXrXqX X`.0X`.1.q.+ ; X + + + X + o > m m m m m m m m N N m m m N N m R A.R N E L.;Xe.:.>.>.>.>.:.>.>.2.<.4.<.T.T.Q.}.=X&X.Xz.        ",
"            dXfXqX5X XrX6X).6XR.T.#.+ ; + + + + + O O > m m m m m m m m C.1X2XA.m m V m I A.+.} }  .uXb.:.:.>.>.>.>.:.<.4.2.>.<.8.7.).&XrX-Xn.k.        ",
"            fXgXfXgXqX8X X}.U.6.P.0.+ 3 X + + X + + + , m m m m V m m D.fXfX<X@.N m m m N I 2X} @.gXc.h 2.:.>.>.>.>.:.:.>.<.<.<.U.-.E.).=XrXn.z.        ",
"            gXdXdXgX8X-X6XE.E.6.1.e.+ 3 . X X X X X X v m m m V m m I iXC.} V.K K <Xo.Y I V | A.D.dX3 i.-.:.:.2.>.>.>.>.>.>.2.4.5.6.(.`.}.rXJ.j.        ",
"            gXfXsXgXfX XQ.{.5.T.5.P.@ $ - X X X X o 2 m m m m m m m V R I p.@ e J e fX+.m N N Z.L.+X) 1 =.:.:.:.>.>.>.2.>.>.1.8.9.U.E.*X6XrXJ.z.        ",
"            sXdXqXqX9X-X XQ.P.6.9.1.k . , O X X X o c m m m m m m m m N O.q.q.: OXF G.1XR N ! [ D.G.:Xw.P.:.>.>.>.>.:.2.2.<.1.Y.7.!.'.6X,X5Xk.k.        ",
"            rXfXrX0X8XqX X-XT.P.1.1.t.> @ O X . X v m m m m N N m m N V 2Xq.i d 1 4 l.fXE R B R | D.G.2X;.:.>.>.:.2.:.>.2.<.<.U.R.{. X).rX8Xk.j.        ",
"            #XgXsXqX XqX{.}.7.M.;.h.D c > X & z v m m m m m m m m m m m ] yXu.J w.%XfX1XY / ] Y ^ ] 2Xw.-.>.>.>.>.:.>.>.>.<.2.8.T. X.X X=XrXl.          ",
"            u.,XrX X-X-X X{.E.$.g.G m c v c m m m m m m m m m m m m m m N 1XfXfXfXfXL.] N R ] P R ] C.yXi.5.>.>.>.:.>.2.<.5.4.~.P.`.'.sXyX>Xs.          ",
"            n.n.rX}.qX{. X^.-.g.q.c m c c N | Y V m m m m m m m m m m m m } <XuX1X+.B N N m V ^ T o.{ <XfXa.=.2.:.>.:.2.<.2.1.P.'.(.'. XaXOX0.          ",
"            b.oXqXsX0X.X.X=XE.M.G N N N L D.R N m m m m m m m m m m m m m m m N m m N N N m I P ]  .B.K.dXfXOXf.<.2.>.>.<.<.<.9.^.E.&X8X0Xk.r.          ",
"              @X-X9XrX5X{.6X'.j.c ~ } o.J.uXC.N Q I m N m m m m m m m m m m m m m N m I m N m V B ^ { 2X3XfXfXiXk.-.:.>.:.1.7.3.R.7X}.8Xm.+Xu.          ",
"              n.@XdXtXsXrX6X*Xa._ %X%XdXz.1XC.Y R E N m m m m m m m m m m m m m m N N V m m P X.! X.X.1X1XfXfXfXfX@Xd.<.2.6.*.P.Q.R.Q.=Xk.v.            ",
"              n.@XtX0XgXtX0X8Xi.2XyXgXfXj.gXS...Q N V m m m m m m m m m m m m m m m m m Y M B ~ Q } | 3XfXfXfXdXb.#XyXj.-.3.3.6.E.Q.(.9Xl.h             ",
"                @XdXfX0XrXtX}.F.fXfXfXfXl.gXL.} } N T N m m m m m m m m m m m m m n N N N R Q [ Q C.K.gXfXfXfXfXb.J y 9 5 =.9.8.W.I.Q.8Xb.r.            ",
"                k.yXfXdXsXgX+XOXfXfXfXfX,XsXL.| Q T P V N m N m m N m m m V m N m V N N I B { ..Q <XfXfXfXfXfXi 1 J J d ; : 7.9.7.E.R.=Xv.              ",
"                  gXfXgXgX X@XwXfXfXfXfXfXJ.uXV.Q } V B I N N m m m m N V m V ^ P I R E [ T [ ..3XfXfXfXfXfXfXe X X o X + . -.~.7.^.`.rXr.              ",
"                  b.aX0XfX0Xn.:XfXfXfXfXfXuX>XuXD.R o.N E m R m m V N I m m N / T B T n [ A.O.A.fXfXfXfXfXfXfXOXJ $ X + + < 6.8.7.I. Xv.                ",
"                    rXfXgXdXb.oXfXfXfXfXfXfXuXfXgXK. .T R { ^ R m / Y R R } | @.| o.R R X.<X%XfXfXfXfXfXfXfXfXfXgX0 X + 4 e.6.6.9.E.dXi.                ",
"                    l.gXdXgXn.:X>XfXfXfXfXfXfXfXfXfXuXZ.B.E I / Q [ / } O.N.N. .Z.o.A.L.Z.3XfXfXfXfXfXfXfXfXfXfXfXdXj.c.m.1.<.9.3.6Xr.                  ",
"                      +XdXpXv.#X>XfXfXfXfXfXfXfXfXfXfXgXL.K. .W | O. ._ _ J.a.1XyX2XfXfXfXfXfXfXfXfXfXfXfXfXfXfXfXfXtXb.-.,.>.<. XF.                    ",
"                        tX>Xe v.tXfXfXfXfXfXfXfXfXfXfXfXfXfX<XD.H.o.S.3X:XiX2X@X@Xv.z.b.+X;XJ.s.wXfXfXfXfXfXfXfXfXF.OX-.>.:.2.T.wX                      ",
"                        j.F O v.yXfXfXfXfXfXfXfXfXfXfXfXfXfXdXfXuXuXiXfXfXfXfXfXfXfXfXfXsXtXdXiX#Xl.v.yXfXiXpX+XJ.wXf.:.2.>.6.aXy.                      ",
"                          h : c.:XfXfXfXfXfXfXfXfXfXfXfX:X:X;X;XwXyXwX;XF.G.v.l.q.r.l.l.OXiXfXfXfXfXfX#XoX>XfXfXfX:X-.>.:.9.aXy.                        ",
"                        q.F ( q.dXfXfXfXfXfXfXfXfXfXfXfXfXfXfXgX4X:X:XyXgX>XJ.b.+X;X2XfXyXF.k.z.;XgXfXfXfX2XpX:Xb.g.>.,.6.aXy.                          ",
"                        q.$ v.r.fXfXfXfXfXfXfXfXfXfXfXfXfXfXfXfXfXfXfXfXyXtX+X@X>XfXfXfXfXfXfXfXi.&.e.f.k.k.d.h.5.:.>.U.yXy.                            ",
"                          8 H :Xr.iXfXfXfXfXfXfXfXfXfXfXfXfXfXfXfXfXfXfXfX;X@X#XgXfXfXfXfXfXfXfX>Xg.*.2.:.:.>.:.:.:.`.>Xr.                              ",
"                          9 0.#XgXZ #XgXfXfXfXfXfXfXfXfXfXfXfXfXfXfXfXfXfXyX:XgXfXfXfXfXfXfXfXfXgX$ t #.6.:.>.>.5.6Xb.                                  ",
"                        H 7 w.J.yX} D ` dXfXfXfXfXfXfXfXfXfXfXfXfXfXfXfXfXfXfXfXfXfXfXfXfXfXfXfX,Xw O . # k 9.].wXr.                                    ",
"                        X 7 i.J.dXD.P Q S OXfXfXfXfXfXfXfXfXfXfXfXfXfXfXfXfXfXfXfXfXfXfXfXfXfXfXOX8 O + X : 2Xx.                                        ",
"                      7 O X w.;XyXZ.} R n x G ;XfXfXfXfXfXfXfXfXfXfXfXfXfXfXfXfXfXfXfXfXfXfXfXtXz.; + . F z.d                                           ",
"                      X X + e l.>XK.^ X.N I m x A G.gXfXfXfXfXfXfXfXfXfXfXfXfXfXfXtXfXfXfXfXfX#Xs @ d ) u + ( J                                         ",
"                      X X O X q.%X%XT B.I / N m N c l ` G.dXfXfXfXfXfXfXfXfXfXtXl.tXfXfXfXfXfXoXd G L ;Xh S 7 . 8                                       ",
"                    s X X X X X i.3X~ } { I m P N N M n c l A p.l.#XuXfXfXfXfXfXfXgX4XoXa.` A Z M | D.:X0.q.% + + t                                     ",
"                    y X O X X X o J H.~  .! N B I n N m m m m N M c l l A Z A l l z v c n N P T U Z.iXJ.j.3 % + + +                                     ",
"                    3 + + @ + + + X 8 a.| | ! V Y V B N N m V V N N m R R I N m m m m m R V P | V.D.pXJ.s % % @ $ % %                                   ",
"                    # : @ + + + + + X o y S./ Y ^ ] ^ W m R P Y E } ] | V V m m m N N N T V | } C.yXOXH < 8 < # $ + @ 3                                 ",
"                  e * $ @ + # @ + X X X + # C _ Q Y N Y ^ [ ^ ^ Q ] T V N N m B m I V n R } Q [ 1XG.9 9 < d 1 4 < # @ ; w                               ",
"                  5 < % + : - @ @ + X X @ @ # + 0 z { ] ~ C./ ] P o.E ] M Y I X.Y P N Q R ..D Z 7 < 1 6 h < 6 1 $ - - < % $ 0.                          ",
"                u 5 8 < = r : $ @ @ @ * + * @ + % % % 1 2 A ` D.O.X.] o.! E P E | P W O.l 0 1 * < < u d t.f p r a 5 < 4 ; * + 1                         ",
"                H t a u w = ; : @ $ % % # : $ ; * - 1 1 1 < < # e e 0 q K q q C S i * 6 s 5 d w u w h       h     h t p * < = 9 3 4                     ",
"                        p J i * y i = 3 - 3 = t 6 < 9 9 4 9 < r w p h h 0.t.0.  j J f d h J p J                     t h d r 6 6 - t 9 s                 ",
"                          3 h s 3 4 r 4 p w 5 w a s f u 4 6 a y.  J       0.          u q.                            f     h ( d h   p                 ",
"                                  p t.h   h   J f y.    h s                                                                       0.                    ",
"                                                                                                                                                        ",
"                                                                                                                                                        ",
"                                                                                                                                                        "
};
