/* XPM */
static char *result[] = {
/* columns rows colors chars-per-pixel */
"76 76 227 2 ",
"   c #2D1D19",
".  c #35221E",
"X  c #352825",
"o  c #3D3534",
"O  c #44271F",
"+  c #45281F",
"@  c #502B1F",
"#  c #452720",
"$  c #452820",
"%  c #492D25",
"&  c #492F28",
"*  c #432F29",
"=  c #4C332C",
"-  c #483029",
";  c #583428",
":  c #4E3731",
">  c #463B39",
",  c #533B35",
"<  c #553E39",
"1  c #513730",
"2  c #532D21",
"3  c #673C2C",
"4  c #55413C",
"5  c #59433D",
"6  c #4D413F",
"7  c #724737",
"8  c #423F40",
"9  c #4C4443",
"0  c #5A4641",
"q  c #5D4944",
"w  c #534C4B",
"e  c #5C4D49",
"r  c #534643",
"t  c #5A514E",
"y  c #5C5453",
"u  c #624D48",
"i  c #64514C",
"p  c #6B5249",
"a  c #795344",
"s  c #635552",
"d  c #6B5752",
"f  c #645D5B",
"g  c #6B5C59",
"h  c #685956",
"j  c #69615E",
"k  c #73625D",
"l  c #6D6565",
"z  c #746B6C",
"x  c #776966",
"c  c #716B71",
"v  c #7B7576",
"b  c #776F6F",
"n  c #975337",
"m  c #93492D",
"M  c #A55432",
"N  c #B75B34",
"B  c #A4512E",
"V  c #B3613D",
"C  c #C76236",
"Z  c #C96235",
"A  c #C6653A",
"S  c #C96639",
"D  c #C6693E",
"F  c #C9693D",
"G  c #8A5A46",
"H  c #99634D",
"J  c #996B58",
"K  c #8B6658",
"L  c #B56D4C",
"P  c #85736C",
"I  c #9B7365",
"U  c #857A77",
"Y  c #8F766D",
"T  c #AA7E6A",
"R  c #C66C43",
"E  c #C86D43",
"W  c #C76F49",
"Q  c #C87047",
"!  c #C6734C",
"~  c #C9744C",
"^  c #C77047",
"/  c #C57954",
"(  c #CA7A54",
")  c #C77E5B",
"_  c #CA7E5A",
"`  c #C87751",
"'  c #8B817E",
"]  c #91817D",
"[  c #B8846B",
"{  c #A48679",
"}  c #BF8F79",
"|  c #CA815E",
" . c #C6815E",
".. c #C58462",
"X. c #CA8563",
"o. c #CB8B6B",
"O. c #C78A6B",
"+. c #CA8E71",
"@. c #CB9174",
"#. c #CC967B",
"$. c #C9977D",
"%. c #D19476",
"&. c #D18F70",
"*. c #787986",
"=. c #6B7C9C",
"-. c #59729F",
";. c #847F81",
":. c #7A8397",
">. c #5C82BC",
",. c #7B8BA8",
"<. c #7A92B8",
"1. c #6F8BB4",
"2. c #5D87C5",
"3. c #5D88C6",
"4. c #5F8AC8",
"5. c #638BC5",
"6. c #698EC4",
"7. c #6189C5",
"8. c #6D91C5",
"9. c #6990C8",
"0. c #7395C4",
"q. c #7698C6",
"w. c #7C9BC6",
"e. c #7C9CC9",
"r. c #7697C7",
"t. c #8A8587",
"y. c #968985",
"u. c #858A9B",
"i. c #9C9594",
"p. c #999596",
"a. c #9B918F",
"s. c #A39997",
"d. c #A99288",
"f. c #B3A49C",
"g. c #A8A19F",
"h. c #8995A9",
"j. c #889CB7",
"k. c #9098A8",
"l. c #A9A6A7",
"z. c #B3ADAC",
"x. c #B2A9A6",
"c. c #B7B1AF",
"v. c #BBB5B3",
"b. c #BDBABA",
"n. c #B6B6B9",
"m. c #A7AFB9",
"M. c #96A7BE",
"N. c #CD9D82",
"B. c #D19E83",
"V. c #CCA28B",
"C. c #D5A289",
"Z. c #D4AC96",
"A. c #D9B19C",
"S. c #CBA793",
"D. c #D9B9A8",
"F. c #C1BDBB",
"G. c #C4B9B4",
"H. c #CAB4A8",
"J. c #C6C1BE",
"K. c #DCC5B7",
"L. c #E1C4B4",
"P. c #819EC6",
"I. c #85A1C5",
"U. c #85A2CA",
"Y. c #8AA5CB",
"T. c #8DA9CB",
"R. c #8CA4C4",
"E. c #93ACCC",
"W. c #98AEC9",
"Q. c #9CB3CE",
"!. c #97B0CE",
"~. c #94AED1",
"^. c #9BB3D2",
"/. c #8FAAD0",
"(. c #A4B7CE",
"). c #BBBEC5",
"_. c #A6BBD3",
"`. c #ABBDD3",
"'. c #A2B7D3",
"]. c #B0BFD4",
"[. c #AFC0D5",
"{. c #B3C3D4",
"}. c #B4C5DA",
"|. c #BCCADA",
" X c #BAC7D7",
".X c #BFCEE2",
"XX c #C6C3C2",
"oX c #CAC6C4",
"OX c #CDCCCB",
"+X c #C8C7C7",
"@X c #D2CECC",
"#X c #D8CAC2",
"$X c #D8D1CB",
"%X c #C2CEDB",
"&X c #C0CCD6",
"*X c #C5D1DD",
"=X c #CCD5DE",
"-X c #D5D3D2",
";X c #D9D6D5",
":X c #DCDBDB",
">X c #D6D8DA",
",X c #E3CEC1",
"<X c #E6D5CB",
"1X c #E6DDD6",
"2X c #ECE3DD",
"3X c #E2E0DE",
"4X c #CBD6E1",
"5X c #CED9E3",
"6X c #C6D4E2",
"7X c #D4DCE4",
"8X c #D7DEE6",
"9X c #DDE3E9",
"0X c #DBE1E6",
"qX c #E3E3E3",
"wX c #E2E7EB",
"eX c #E5EAED",
"rX c #ECECEC",
"tX c #EBE8E5",
"yX c #F1ECE9",
"uX c #F5F1EE",
"iX c #EBEEF1",
"pX c #E6EBF0",
"aX c #EEF1F2",
"sX c #F3F4F3",
"dX c #FEFEFE",
"fX c #F8F7F7",
"gX c None",
/* pixels */
"gXgXgXgXgXgXgXgXgXgXgXgXgXgXgXgXgXgXgXgXgXgXgXgXgXgXgXgXgXgXgXgXgXgXgXgXgXgXgXgXgXgXgXgXgXgXgXgXgXgXgXgXgXgXgXgXgXgXgXgXgXgXgXgXgXgXgXgXgXgXgXgXgXgXgXgX",
"gXgXgXgXgXgXgXgXgXgXgXgXgXgXgXgXgXgXgXgXgXgXgXgXgXgXgXgXgXgXgXgXgXgXgXgXgXgXgXgXgXgXgXgXgXgXgXgXgXgXgXgXgXgXgXgXgXgXgXgXgXgXgXgXgXgXgXgXgXgXgXgXgXgXgXgX",
"gXgXgXgXgXgXgXgXgXgXgXgXgXgXgXgXgXgXgXgXgXgXgXgXgXgXgXgXgXgXgXw v i.z.c.n.).).J.b.z.s.c w gXgXgXgXgXgXgXgXgXgXgXgXgXgXgXgXgXgXgXgXgXgXgXgXgXgXgXgXgXgXgX",
"gXgXgXgXgXgXgXgXgXgXgXgXgXgXgXgXgXgXgXgXgXgXgXgXgXgXgXw p.m.}.^.e.6.2.2.3.2.2.2.2.-.-.,.j.l.a.t.w gXgXgXgXgXgXgXgXgXgXgXgXgXgXgXgXgXgXgXgXgXgXgXgXgXgXgX",
"gXgXgXgXgXgXgXgXgXgXgXgXgXgXgXgXgXgXgXgXgXgXgXgXgXp.)./.9.3.2.2.3.3.3.3.3.3.3.3.3.3.3.2.-.>.7.1.].7Xi.gXgXgXgXgXgXgXgXgXgXgXgXgXgXgXgXgXgXgXgXgXgXgXgXgX",
"gXgXgXgXgXgXgXgXgXgXgXgXgXgXgXgXgXgXgXgXgXgXw l._.9.2.3.7.3.3.3.3.3.3.3.3.3.3.3.3.3.2.2.4.2.2.2.2.7.~.8XJ.t gXgXgXgXgXgXgXgXgXgXgXgXgXgXgXgXgXgXgXgXgXgX",
"gXgXgXgXgXgXgXgXgXgXgXgXgXgXgXgXgXgXgXgXgXl.'.q.0.2.5.3.3.3.3.2.3.3.3.3.3.3.3.3.3.3.4.4.4.4.4.2.2.3.2.2.e.5X+X9 gXgXgXgXgXgXgXgXgXgXgXgXgXgXgXgXgXgXgXgX",
"gXgXgXgXgXgXgXgXgXgXgXgXgXgXgXgXgXgXgX;.9Xe.5.5.9.2.3.3.3.3.2.2.3.3.3.3.3.3.3.3.3.3.3.4.4.4.2.4.2.2.3.2.3.3.U.pXi.gXgXgXgXgXgXgXgXgXgXgXgXgXgXgXgXgXgXgX",
"gXgXgXgXgXgXgXgXgXgXgXgXgXgXgXgXgXgXb.Q.r.T.q.9.3.3.3.3.2.4.2.2.3.3.3.3.3.3.3.3.3.3.3.3.3.3.3.2.3.3.3.3.3.2.3.5.}.-XgXgXgXgXgXgXgXgXgXgXgXgXgXgXgXgXgXgX",
"gXgXgXgXgXgXgXgXgXgXgXgXgXgXgXgXy =XE.P.r.1.q.3.3.3.3.3.2.2.2.2.3.3.3.3.3.3.3.3.3.3.3.3.3.3.3.3.3.3.3.3.3.3.3.3.4.U.eXc gXgXgXgXgXgXgXgXgXgXgXgXgXgXgXgX",
"gXgXgXgXgXgXgXgXgXgXgXgXgXgXgXv  X`.q.Y.r.5.9.5.3.3.4.3.2.3.2.2.3.3.3.3.3.3.3.3.3.3.3.3.3.3.3.3.3.3.3.3.3.3.2.3.3.3.8.8Xp.gXgXgXgXgXgXgXgXgXgXgXgXgXgXgX",
"gXgXgXgXgXgXgXgXgXgXgXgXgXgXy.8XW.(.Q.0.5.4.5.e.,.,.<.5.2.2.5.2.3.3.3.3.3.3.3.3.3.3.3.3.3.2.2.2.3.3.3.3.2.3.3.3.3.3.7.7..Xx.gXgXgXgXgXgXgXgXgXgXgXgXgXgX",
"gXgXgXgXgXgXgXgXgXgXgXgXgXt.=X{.!.R.9.5.q.u.u., O O O i ,.5.2.2.3.3.3.3.3.3.3.3.3.3.3.3.3.3.2.3.<.c c ,.9.2.3.2.7.2.7.2.5.|.z.gXgXgXgXgXgXgXgXgXgXgXgXgX",
"gXgXgXgXgXgXgXgXgXgXgXgXb 5X7X}.R.w.R.*.0 g % + , 1 & $ # z 0.2.3.3.3.3.3.3.3.3.3.3.3.3.3.3.5.v $ # O X l q.2.3.2.2.7.7.9.5.5Xl.gXgXgXgXgXgXgXgXgXgXgXgX",
"gXgXgXgXgXgXgXgXgXgXgXt 9X*X|.Q.E.Q.e + , % : 5 # + + O + + q <.3.3.3.3.3.3.3.3.3.3.3.3.2.<.f # O & < 5 5 P '.7.5.7.5.9.I.9./.5X' gXgXgXgXgXgXgXgXgXgXgX",
"gXgXgXgXgXgXgXgXgXgXgX:X9X*X`.|./.t.# + + , = # # # # # + = = 4 ,.3.3.3.3.3.3.3.3.3.3.3.1.< # # O O # O + + 1 v <.2.3.0.6.5.Y.E.aXt gXgXgXgXgXgXgXgXgXgX",
"gXgXgXgXgXgXgXgXgXgXx.eXiXiX=X}.U.z # # : z # O # # $ $ $ # q : = <.2.2.3.3.3.3.2.2.w.*.$ + # # $ $ $ + # # # $ & u.U.0.8.P.T.(.5X:XgXgXgXgXgXgXgXgXgXgX",
"gXgXgXgXgXgXgXgXgXy aXaXeX5X=X_.W.i + $ u.*.$ + $ $ # $ # $ $ i O : <.3.3.3.3.3.<.l 1 # $ $ # # + $ $ $ # # # $ O & j.w.6.E.T.P.^.9Xi.gXgXgXgXgXgXgXgXgX",
"gXgXgXgXgXgXgXgXgX@XfXiX|. X*X[.n.+ O *.6.<.O $ , $ + $ $ + + % u O 5 <.3.3.3.3.6.l # # + + O O + + O 1 , < < 2 O O l U.^.0.T.].4X4XsXgXgXgXgXgXgXgXgXgX",
"gXgXgXgXgXgXgXgXz fXaXiXaX*X{.^.v g u.1.6.9.0 $ : = $ $ $ $ # + , < # u 8.2.3.3.2.5.,.z d u u 5 , 4 4 & # # # $ O O p Y.0.T.`.E.|.7X0Xb.gXgXgXgXgXgXgXgX",
"gXgXgXgXgXgXgXgX;XfX0X0X*X6XR.!.Y.8.w.6.0.3.*.O # 5 % $ # + + + + 1 5 # h 6.2.3.r.P.r.5.7.6.t.O + + + $ + $ $ + # # u w.r.E.`.Q.{.9X=XdX9 gXgXgXgXgXgXgX",
"gXgXgXgXgXgXgXf fX0X9X9X0X{.[.Y.w.8.6.6.7.2.0., + + 0 $ $ + + + + O X # # e p.l.y.d.f.a.t.k.& O $ + $ 1 $ $ $ # # # d P.w.P._.}.=X6XaXsXc.gXgXgXgXgXgXgX",
"gXgXgXgXgXgXgXz.sXsXaX9X X|.!.w.I.9.0.8.7.2.7.:.+ # - , # $ + , a.H.D.+.H L ,X#.N...@.B.D.s.# # $ + , + + $ $ $ # # l 8.E.R.`.|.9XaX0XaXfXgXgXgXgXgXgXgX",
"gXgXgXgXgXgXgXXX7XeX9X>X|.w.^.e.T.w.7.5.3.2.2.6.g + + - = + p V.#.! ( O.` W W W ^ ( ~ &.| ,Xy.O $ 1 = $ + $ $ + $ $ c 0.E.P._.(.*XpXpXfXfXt.gXgXgXgXgXgX",
"gXgXgXgXgXgXj 0XsX:XeX*X XI.T.0.5.8.8.7.3.3.3.3.,.# # # + & @.#.~ E X.( E S E F ~ F Z Z F ` D.s # 5 + + $ + # # $ $ z 6.U.W. XwX{.*XwXfXfX+XgXgXgXgXgXgX",
"gXgXgXgXgXgXi.eX9X|._.|.I.U.e.9.5.6.3.2.3.3.3.3.r.& # # + T  . .` X.B.S F ~ Z Z E F S Z F ~ R H.+ 5 + $ $ $ $ # # $ g 6.P.^.Q.9X6XeXfXsXdXdXgXgXgXgXgXgX",
"gXgXgXgXgXgXc.5X*X*X[._.e.e.0.5.3.5.2.2.3.3.3.2.9.5 # & [ D F ~ Z C.E Z Z Z E S S Z Z S Z Z S ~ 7 < $ $ $ + + # & O = E.{.W.'. X*XeXfXfXaXdXf gXgXgXgXgX",
"gXgXgXgXgXgX X0X[.Q._.T.Q.e.8.5.5.5.2.3.3.3.3.3.7.s $ K o.~ ` Z | &.Z F Z Z Z F S Z Z Z Z Z Z Z n 5 + $ $ $ + + O , O j.~.^.^.{.wXaXpXaXfXdXp.gXgXgXgXgX",
"gXgXgXgXgX> n.5X0X`.[.q.6.0.0.5.3.5.7.3.3.3.3.3.2.c 1 T E F ~ Q A.S Z Z F Z Z Z Z Z Z Z Z Z Z Z L , + + # $ $ + + 4 # :.T.W.4X%X*XrXaXaXaXfXb.gXgXgXgXgX",
"gXgXgXgXgXy +X*X%X{.^.Y.T.5.6.5.3.3.2.2.3.3.3.3.2.u.;XL.Q S ~ A.~ Z Z S Z Z Z Z S Z Z Z Z Z Z Z Z @ + + $ + + % O 4 # t.6._.9X_.|.0XeXeXwXaX;XgXgXgXgXgX",
"gXgXgXgXgXb n.=XwX&X_.<.U.5.4.2.6.5.3.3.3.3.3.3.2.b.rXo.o.| %.A.E Z S Z Z A.1X<XC.S Z Z Z Z Z Z Z 2 + @ # $ # # + 4 # *.T.T.5X_.5XeX|.4X0XdXfXgXgXgXgXgX",
"gXgXgXgXgXv n.eX*X[.W.0.U.5.6.5.3.3.2.3.3.3.3.3.7.P c.fX&.X.1XF S S Z Z S &.<XdXdXA.Z Z F Z Z Z Z 3 O O # # # # # 5 + t.P.0.U.{.|.7X0XfXdXfXdXgXgXgXgXgX",
"gXgXgXgXgXv XXpX{.`.'.q.8.5.3.3.3.2.3.3.3.3.2.2.<.s.5 sXD.A.o.A E E #.,XY Y V.o.C.uXQ Z Z F Z Z Z B + + + + + + + u # u.6.r.E.E.5X*X0XfXfXfXfXgXgXgXgXgX",
"gXgXgXgXgXb F.9X5X|.E.R.q.e.9.3.7.3.3.3.3.3.2.2.,.4 ] +X,XZ.S Z S %.fXd U d & d.E ` S S S Z Z Z Z Z 7 + + + + + , = % P.0.T.0.`.(. XfXfXaXdXfXgXgXgXgXgX",
"gXgXgXgXgXj z.=X>X5X`.!.w.Y.1.9.3.5.3.2.3.3.2.2.P.a.-XH.D.| _ Z ~ <XG.P oX, ] y.} A Z Z Z Z Z Z Z Z Z @ + + + + 3 O z 6.q.w.P.Q. X5X0X8X0XsXaXgXgXgXgXgX",
"gXgXgXgXgXw l.8XwX_.|.[.Y.U.5.5.7.3.2.7.2.3.2.2.,.1XG.L.o.~ F ~ ~ dXz.u 5 x k y.2XS S Z Z S Z Z Z Z Z B + + + O @ 2 u.6.5.P.T.4X X8X7XeXeXfXwXgXgXgXgXgX",
"gXgXgXgXgXgXz.eX*X X X|.T.q.5.6.4.3.3.3.2.2.2.7.<.d.1X..) D | / Q <XdX$Xa.] s.tX| S Z Z Z Z Z Z Z Z Z Z B m ; O 2 N L h.8.M.w.{.[.5X.X9XaXfX@XgXgXgXgXgX",
"gXgXgXgXgXgXg.:XrXaX[._.I.!.8.8.5.7.3.3.2.2.2.8.p.tXB.) ! W | ~ Z _ L.dXdXdXdX<XZ Z Z Z Z Z Z Z Z Z Z Z C C C N B N C I j.=.W.[.|.>X4X X9X-Xl.gXgXgXgXgX",
"gXgXgXgXgXgX' +XeX|._.Q.[.e.8.5.5.5.3.3.7.7.<.f.dX,X..N.! _ D S S S E %.<XyXL.o.Z Z Z Z Z Z Z Z Z Z Z Z S ^ o.A N N C N y.j.1.'.|.`.7X[.aXn.a.gXgXgXgXgX",
"gXgXgXgXgXgXt.x.9X7X&XE.Q.8.6.5.5.2.3.3.6.k.J.dXfXK.N.+.| E F Z S S Z Z Z S Z S Z Z Z Z Z Z Z Z Z Z Z Z S A ~ D.T Z E C I m.E.*X|.}.pXiX0XXXf gXgXgXgXgX",
"gXgXgXgXgXgXr OXm.5X X6XU.8.e.6.3.3.7.<.l.aXdXdX2X1X .) D E S S Z Q Z Z Z Z Z Z Z Z Z Z Z Z Z Z Z S Z F / Z C.tXF.B.o.( V l._.5X[.4XeX8X=X+XgXgXgXgXgXgX",
"gXgXgXgXgXgXgXc.l.6XQ.I.^.I.>.q.7.6.h.oXdXdXdXdX<X<X@.@.` @.E Z Z F S S Z Z Z Z Z Z Z Z F Z S Z Z Z S ! ! E Z.<Xx.fX#X,X[ f.%X5XwXiXiXaX+Xn.gXgXgXgXgXgX",
"gXgXgXgXgXgXgXz c.8X(._.E.0.9.9.<.g.eX@XF.sXdXdXdX1XX.../ ) A S Q S Z Z Z Z Z Z Z Z Z Z Z Z Z Z Z Z F S ` +.V.fXl.dXfXtX3Xs.8X0XiXfX9XiXOXU gXgXgXgXgXgX",
"gXgXgXgXgXgXgX6 b.>XQ.P.E.w.0.h.r s g U v.fXdXdXdXdX,XC./ | ` ~ Z Z S Z Z Z Z Z Z Z Z Z Z Z Z Z Z Z ` S X.X.L.fXx.dXdXdXdXJ.{.rXeXwXfXfXoXgXgXgXgXgXgXgX",
"gXgXgXgXgXgXgXgXv.6XR.E.P.r.P., < x U U q k dXdXdXdXdX<X/ +...D E S Z F Z Z Z F Z Z Z S S Z S Z S F F ` / o.K.uX:XdXdXdXdXJ.@XfXsXaXdXeXi.gXgXgXgXgXgXgX",
"gXgXgXgXgXgXgXgX9 eX_.Q.q.E.<.+ + + @ O O d dXdXdXdXdXdX2X@...! | ~ ~ ^ E _ S Z F S Z Z Z Z S Z E F S O./ N.uXJ.dXdXdXdXdX3XOX|.fXfXdXfXgXgXgXgXgXgXgXgX",
"gXgXgXgXgXgXgXgXgXz.|.P.P.w.r.4 + + O 1 U oXdXdXdXdXdXdXfXA.#.A.| C ! F ! ` Z Z Z E S F Z Z ~ Z Q S #.( D.tX:XrXdXdXdXdXdX-Xn.0XdX9XpXz.gXgXgXgXgXgXgXgX",
"gXgXgXgXgXgXgXgXgXo sXW.r.q.r.u.u + O u dXdXdXdXdXdXdXdXdXfX$X,X@.^ ~ $.o.@.o.O.~ ~ ^ ~ Z ~ _ ..~ ! O.K.sXdXuXdXdXdXdXdXdXJ.F.sXfXdXwXgXgXgXgXgXgXgXgXgX",
"gXgXgXgXgXgXgXgXgXgXU 5X9.0.5.9.z.c.l.sXdXdXdXdXdXdXdXdXdXdXdX2XZ.K.A.#.A.@.$.$.$.O.! | ( ` D W #.Z.yXfXdXdXdXdXdXdXdXdX:X;Xv.fXaXfXU gXgXgXgXgXgXgXgXgX",
"gXgXgXgXgXgXgXgXgXgXgXF.|.9.3.5.q.b.rXdXdXdXdXdXdXdXdXdXdXdXdXdXdXdXdX1XyX<Xf.J.[  .} #.O./ X.K.,XdXdXdXdXdXdXdXdXdXdXdX:X@Xv.aXsXoXgXgXgXgXgXgXgXgXgXgX",
"gXgXgXgXgXgXgXgXgXgXgXgXwXY.3.7.2.<.oXF.dXdXdXdXdXdXdXdX1Xl.J.;XOXv.z.v.J.XX3XsX;X2XZ.#.H.L.,XdXdXdXdXdXdXdXdXdXdXdXdXdXrXb.d :XrXgXgXgXgXgXgXgXgXgXgXgX",
"gXgXgXgXgXgXgXgXgXgXgXgXt rXq.3.5.3.k.qXF.@XaXaXdXrXv.z.@XsXsXrXaXdXdXdXdXdXdXdXfXdXuXyXtXdXsXdXdXdXdXdXdXdXdXdXdXdXdXdXtXn.$ P l gXgXgXgXgXgXgXgXgXgXgX",
"gXgXgXgXgXgXgXgXgXgXgXgXgXl pXr.3.2.<.;XdXdXdX:XXX@XfXdXdXdXdXrXoXx.z.s.y.z.b.G.F.$XqXrXqX-X-X-X-XdXdXdXdXdXdXdXdXdXdXdX-Xv., P gXgXgXgXgXgXgXgXgXgXgXgX",
"gXgXgXgXgXgXgXgXgXgXgXgXgXgXl pXq.3.3.j.b.;XrX:XdXdXdXfX$Xx.x.F.tXdXqX$XOXG.F.;XdXtX;X-X1XfXdXdXdXdXdXdXdXdXdXdXdXdXdXdXfXy.' b   gXgXgXgXgXgXgXgXgXgXgX",
"gXgXgXgXgXgXgXgXgXgXgXgXgXgXgXj eXU.3.3.0.k.k.l.l.k.u.:.i.dXdXdXdXdXdXdX:X+XOXrXrXdXdXdXdXdXdXdXdXdXdXdXdXdXdXdXdXdXdXdXdXi.c.1   gXgXgXgXgXgXgXgXgXgXgX",
"gXgXgXgXgXgXgXgXgXgXgXgXgXgXgXgX0 8X_.3.2.3.2.2.>.3.5.j.:XdXdXdXdXdXdXdXfX@X+X@XdXdXdXdXdXdXdXdXdXdXdXdXdXdXdXdXdXdXdXuXi.;XP u gXgXgXgXgXgXgXgXgXgXgXgX",
"gXgXgXgXgXgXgXgXgXgXgXgXgXgXgXgXgXgXv.8X0.2.2.2.e.*.d = fXdXdXdXdXdXdXdXdXfX;XtXdXdXdXdXdXdXdXdXdXdXdXdXdXdXdXdXdXdXOXH uX@Xt.u gXgXgXgXgXgXgXgXgXgXgXgX",
"gXgXgXgXgXgXgXgXgXgXgXgXgXgXgXgXgXgXgXb wX_.0.c & # # s :XdXdXdXdXdXdXdXdXdXdXdXdXdXdXdXdXdXdXdXdXdXdXdXdXdXdXdXaXd.L O.tXF.a.u . gXgXgXgXgXgXgXgXgXgXgX",
"gXgXgXgXgXgXgXgXgXgXgXgXgXgXgXgXgXgXgXgXgXz.:X: # $ # u oXdXdXdXdXdXdXdXdXdXdXdXdXdXdXdXdXdXdXdXdXdXdXdXdXdXdXoXG / R D.sXXXs.u + gXgXgXgXgXgXgXgXgXgXgX",
"gXgXgXgXgXgXgXgXgXgXgXgXgXgXgXgXgXgXgXgXgXgXx x.P # $ < z.rXdXdXdXdXdXdXdXdXdXdXdXdXdXdXdXdXdXdXdXdXdXdXdX$XY N D ~ | Z.tX$Xa.# + . gXgXgXgXgXgXgXgXgXgX",
"gXgXgXgXgXgXgXgXgXgXgXgXgXgXgXgXgXgXgXgXgXo ] + g ' x & x @XdXdXdXdXdXrXdXdXdXdXdXdXdXdXdXdXdXdXdXdXfXv.J M Z E F @.| K.1Xx.d # + + gXgXgXgXgXgXgXgXgXgX",
"gXgXgXgXgXgXgXgXgXgXgXgXgXgXgXgXgXgXgXgX. + 5 x U -XT I x XXfXdXdXdXdXrXc.rXdXdXdXdXdXdXdXdXdXfXG.{ n N Z Z F ` W B.! $X-Xy.# # + + gXgXgXgXgXgXgXgXgXgX",
"gXgXgXgXgXgXgXgXgXgXgXgXgXgXgXgXgXgXgX  + $ & y.] ;XD.X.C H I { f.XX1XdXdXdXdXdXdXfXtX@Xz.d.J n N Z F S S Q Z Q  .X.) 2Xs.+ # # O $   gXgXgXgXgXgXgXgXgX",
"gXgXgXgXgXgXgXgXgXgXgXgXgXgXgXgXgXgXgX$ $ + & 5 f.{.uXZ.W ~ R Z C N B m n n J H J n B N D S Z Z Z Z S Z E A Z ` O.) D.U + # # # $ O X gXgXgXgXgXgXgXgXgX",
"gXgXgXgXgXgXgXgXgXgXgXgXgXgXgXgXgXgX% & : % = - b F.rXD.V.o.E F ~ Z Z Z Z Z S E ` ` Z S Z F S S S Z D S Q A | o.o.d.p + $ + + % + + * gXgXgXgXgXgXgXgXgX",
"gXgXgXgXgXgXgXgXgXgXgXgXgXgXgXgXgX* % # = % 4 i 5 P oXtXB.X.o.F ! Z F F Z Z Z A E X.| X.~ Q E ~ Z ` _  ._ E / V.K $ $ $ + % + + % , & gXgXgXgXgXgXgXgXgX",
"gXgXgXgXgXgXgXgXgXgXgXgXgXgXgXgX4 < $ = 4 q 0 x < i i F.<X..) O.~ C E E Z F C Z S R ^ _ ) ( | | | Q Z E  .[ G % + + $ O % % % $ & = = : gXgXgXgXgXgXgXgX",
"gXgXgXgXgXgXgXgXgXgXgXgXgXgXX = - 4 , , = 0 e 5 v e 4 < u H ! O.E / S E E @.E E A | ^ #.E | ( #. .| ..n p $ % $ & $ + & + & , 1 + & 5 u gXgXgXgXgXgXgXgX",
"gXgXgXgXgXgXgXgXgXgXgXgXgX- # : , q 4 e z g l l y e 6 4 4 = 5 7 n $./ E O.^ W ! ( #.X.@.$.H.{ J 7 7 - = = + - = $ 1 % $ - = , j , 5 i q r gXgXgXgXgXgXgX",
"gXgXgXgXgXgXgXgXgXgXgX* q s , 4 , l s y gXgXf gXgXgXo s k r l i b t = k P G a a Y a a d d - 5 4 4 5 0 , : , 1 1 & & & = & : , : s y w h s gXgXgXgXgXgXgX",
"gXgXgXgXgXgXgXgXgX> e d , e i t * l f gXgXgXgXgXgXgXgXgXgX6 w t > > e f y gXy p.t.v v g s h 5 i q s t , t h , 5 , q , j h , l v s gXgXgXgXgXgXgXgXgXgXgX",
"gXgXgXgXgXgXgXgXgXr gXf l f 9 gXgX> gXgXgXgXgXgXgXgXgXgXgXgXgXgXo 6 gXgXgXgXgX9 gXgXgXw gXc l t 0 9 r e b s e s j q g q 4 o X 0 gXgXgXgXgXgXgXgXgXgXgXgX",
"gXgXgXgXgXgXgXgXgXgXgX> gXgXgXgXgXgXgXgXgXgXgXgXgXgXgXgXgXgXgXgXgXgXgXgXgXgXgXgXgXgXgXgXgXgXgXo 9 gXgX;.b j gX> gXf 9 > gXgXgXgXgXgXgXgXgXgXgXgXgXgXgXgX",
"gXgXgXgXgXgXgXgXgXgXgXgXgXgXgXgXgXgXgXgXgXgXgXgXgXgXgXgXgXgXgXgXgXgXgXgXgXgXgXgXgXgXgXgXgXgXgXgXgXgXgXgXgXgXgXgXgXgXgXgXgXgXgXgXgXgXgXgXgXgXgXgXgXgXgXgX",
"gXgXgXgXgXgXgXgXgXgXgXgXgXgXgXgXgXgXgXgXgXgXgXgXgXgXgXgXgXgXgXgXgXgXgXgXgXgXgXgXgXgXgXgXgXgXgXgXgXgXgXgXgXgXgXgXgXgXgXgXgXgXgXgXgXgXgXgXgXgXgXgXgXgXgXgX",
"gXgXgXgXgXgXgXgXgXgXgXgXgXgXgXgXgXgXgXgXgXgXgXgXgXgXgXgXgXgXgXgXgXgXgXgXgXgXgXgXgXgXgXgXgXgXgXgXgXgXgXgXgXgXgXgXgXgXgXgXgXgXgXgXgXgXgXgXgXgXgXgXgXgXgXgX"
};
