/* XPM */
static char *result[] = {
/* columns rows colors chars-per-pixel */
"75 75 194 2 ",
"   c #5F2E08",
".  c #5D3609",
"X  c #612F09",
"o  c #65310A",
"O  c #6B350B",
"+  c #643809",
"@  c #6E3B0E",
"#  c #71370C",
"$  c #74390C",
"%  c #7C3D0D",
"&  c #673410",
"*  c #6C3912",
"=  c #6C3816",
"-  c #723C11",
";  c #7A3C11",
":  c #723E1E",
">  c #73400F",
",  c #7E4E0E",
"<  c #6E570C",
"1  c #645D0B",
"2  c #6D580C",
"3  c #74530D",
"4  c #7A520E",
"5  c #70580D",
"6  c #764213",
"7  c #7B4314",
"8  c #7E4B13",
"9  c #7B4519",
"0  c #456F07",
"q  c #4B6508",
"w  c #476F08",
"e  c #4A6D08",
"r  c #55650A",
"t  c #5C630A",
"y  c #526909",
"u  c #477008",
"i  c #497109",
"p  c #4F780D",
"a  c #53720C",
"s  c #5A720F",
"d  c #517A0F",
"f  c #537D11",
"g  c #5A7B12",
"h  c #60600B",
"j  c #61720F",
"k  c #6E6F12",
"l  c #746B13",
"z  c #647210",
"x  c #697614",
"c  c #777417",
"v  c #7E482A",
"b  c #823F0E",
"n  c #86420E",
"m  c #8C450F",
"M  c #834A0E",
"N  c #8A480F",
"B  c #90470F",
"V  c #90480F",
"C  c #834513",
"Z  c #8C4613",
"A  c #8D4A15",
"S  c #844B19",
"D  c #884C1A",
"F  c #904712",
"G  c #934B13",
"H  c #9B4E16",
"J  c #924B1D",
"K  c #855216",
"L  c #8E5919",
"P  c #945116",
"I  c #9B5317",
"U  c #94521A",
"Y  c #9B561A",
"T  c #915C1A",
"R  c #9F591B",
"E  c #A14F1D",
"W  c #A25617",
"Q  c #A4531C",
"!  c #AB541F",
"~  c #A25A1B",
"^  c #AA5D1C",
"/  c #B35A1F",
"(  c #96621B",
")  c #9E6A1E",
"_  c #817219",
"`  c #88731B",
"'  c #97741D",
"]  c #AE611D",
"[  c #A7691E",
"{  c #B1621D",
"}  c #A8741F",
"|  c #924E22",
" . c #955620",
".. c #9C5B24",
"X. c #95532C",
"o. c #945D2B",
"O. c #834D34",
"+. c #965632",
"@. c #985735",
"#. c #9A5B3C",
"$. c #AC5520",
"%. c #A05E26",
"&. c #B35C24",
"*. c #B85E24",
"=. c #B65E28",
"-. c #99612E",
";. c #9C6430",
":. c #AC6422",
">. c #A4632B",
",. c #BB632B",
"<. c #B56828",
"1. c #B36C2C",
"2. c #A47222",
"3. c #AB7623",
"4. c #AF7A24",
"5. c #B47424",
"6. c #B17A25",
"7. c #B8772B",
"8. c #A76D36",
"9. c #AC723B",
"0. c #B77030",
"q. c #BD7432",
"w. c #B2773E",
"e. c #B3783F",
"r. c #C1732F",
"t. c #C56C32",
"y. c #C96D32",
"u. c #C47632",
"i. c #C77C37",
"p. c #CC7D36",
"a. c #CD743A",
"s. c #CC7D3A",
"d. c #D1793A",
"f. c #D4793E",
"g. c #8E5741",
"h. c #8F5843",
"j. c #975C42",
"k. c #965E4B",
"l. c #9D6244",
"z. c #9C624D",
"x. c #9B6752",
"c. c #9C6853",
"v. c #A0654E",
"b. c #A1684E",
"n. c #B57A42",
"m. c #A06650",
"M. c #A26B54",
"N. c #A26F58",
"B. c #A5745B",
"V. c #A8785F",
"C. c #A77960",
"Z. c #AA7C63",
"A. c #D67C41",
"S. c #D97F43",
"D. c #568113",
"F. c #5B8616",
"G. c #5D8917",
"H. c #5E8B19",
"J. c #618D1A",
"K. c #79891F",
"L. c #65921D",
"P. c #84821D",
"I. c #89841F",
"U. c #998B24",
"Y. c #B68328",
"T. c #BD852B",
"R. c #B3932E",
"E. c #C2852C",
"W. c #C58E2F",
"Q. c #C58A30",
"!. c #CE8139",
"~. c #D4843B",
"^. c #D8873D",
"/. c #D7883E",
"(. c #D9893F",
"). c #C69233",
"_. c #CC9A35",
"`. c #D19636",
"'. c #D19937",
"]. c #D59E39",
"[. c #D99F3A",
"{. c #D6A03A",
"}. c #DAA23B",
"|. c #BC834C",
" X c #D68042",
".X c #DA8044",
"XX c #DB8C43",
"oX c #DF924A",
"OX c #C38B55",
"+X c #E18E42",
"@X c #E49245",
"#X c #E2964D",
"$X c #E29750",
"%X c #E39952",
/* pixels */
"w d J.L.L.L.L.L.J.e w w w w e w w w 5 m m m m m m m m m m m m m m m m m m m m m m m m m m m m m m m m m m m m m m m N m m m m m m m m m m m m m m m m ",
"w p L.L.L.L.L.L.F.i w w w w w w w w < m m m m m N M m m m m m m m m m m m m m m m m m m m m m m m m m m m m m m m V V G m m m m m N m m V m m m m m m ",
"w p L.L.L.L.L.L.F.i w w w w w w w w < m m m M < t 3 m m m m m m m m m m m m m m B m B B m m m m m m m m m m m H ^ W ^ ~ P n N m G W W ~ ~ R m N m m m ",
"w p L.L.L.L.L.L.F.i i i w w w w w w < F N 5 y w h N m m m m m m m B F F F B m m B b B B m m m m m m m m m m m W ] R R R Y # b B ^ ] ~ R ~ ~ Z O N m m ",
"w p L.L.L.L.L.L.F.w p D.i w w w w w 5 M t w u r M m m m m H Q / $.*.*.*.*./ ! Q H F F b B b F b m m m m m m F ^ ^ R R R R $ % G { ^ R R R R A O m m m ",
"w p L.L.L.L.L.L.F.w w G.F.w w w w w 1 t w w w 3 m F Q ,.t.d.A.A.A.f.f.f.d.a.a.y.t.$.$.E b F F F m m m m m m H { R R R R R C % I { R R R R R P O b m m ",
"w p J.L.L.L.L.L.F.i w g J.F.w w w w e w w w 2 H &.y.d..XS.A.a.t.,.=.=.=.=.=.&.&.$.$.$.! F % b F m m m m m m W ^ R R R R R G # ~ ] R R R R R R # % m m ",
"w p J.L.L.L.L.L.F.u w p J.J.F.w w w w w w t ~ y.f..XS.y.,.&.$.$.$.$.$.$.$.$.$.$.$.$.$.$.! b ; b m m m m m B ^ ^ R R R R ~ P # ^ ^ R R R R R R 7 $ m m ",
"w p L.L.L.L.L.L.F.i w w d L.L.f i w w w y 4 <..XS.A.=.$.$.$.$.$.$.$.$.$.$.$.$.$.$.$.$.$.$.E # b m m m m m m W ^ R R R R R A - ] ~ R R R R R R C O m m ",
"w d L.L.L.L.L.L.F.i u w i D.L.J.i w w w y y ;.S.S.t.$.$.$.$.$.$.$.$.$.$.$.$.$.$.$.$.$.$.$.$.b O n m m m m m V ^ R R ~ R P # 6 ] ~ R R R R R ~ - # m m ",
"w p L.L.L.L.L.L.F.u w w w i D.L.f w w w u w ` S.S.,.$.$.$.$.$.$.$.$.$.$.$.$.$.$.$.$.$.$.$.$.E o # N m m m m m H Y G A 7 $ $ N W ^ R R R ~ R A O % m m ",
"w p L.L.L.L.L.L.F.i w w w w i p d w w w w w _ S.S.,.$.$.$.$.$.$.$.$.$.$.$.$.$.$.$.$.$.$.$.$.E O o n m m m m m m Z C n n n m m B W R R I P C @ $ N m m ",
"w p J.L.L.L.L.L.F.w w w w w w w u i w w 0 0 k s.A.=.$.$.$.$.$.$.$.$.$.$.$.$.$.$.$.$.$.$.$.$.F o o b m m m m m m m m m m B m m m m F n 7 % % b m m m m ",
"w p L.L.L.L.L.L.F.i w w w p D.F.f f p w w 0 k A.A.$.$.$.$.$.$.$.$.$.$.$.$.$.$.$.$.$.$.$.$.b O X # m m m m m m m m m m m m m m m m m m m m m m m m m m ",
"w p L.L.L.L.L.L.F.i w w p G.L.L.D.D.F.i f d c A.,.$.$.$.$.$.Q E E E E E $.Q $.! E E b b # X & $ m m m m m m m m m m m m m m m m m m m m m m m m m m m ",
"w d L.L.L.L.L.L.F.i w u F.L.L.L.p f L.d p H.K.3.:.E | b ; # O O O # $ ; ; ; ; ; # & O & # ; b b m m m m m m m m m m m m m m m m m m m m m m m m m m m ",
"w p L.L.L.L.L.L.F.u w d L.L.J.d w d L.J.i d J.K.c * + . + $ % b b n m n n b % b % b b N m m m m m m m m m m m m m m m m m m m m m m m m m m m m m m m ",
"w p J.L.L.L.L.L.F.i i G.L.D.i w w i J.L.D.i G.L.L.x r q r 3 M m m m m m m B m m m m m m m m m m m m m m m m m m m m m m m m m m m m m m m m m m m m m ",
"w d J.L.L.L.L.L.F.w p J.F.i w w w i J.L.G.w f J.L.L.J.f u w r 8 m m m m m m m m m m m m m Z m B m m m m m m m m m m m m m m m m m m m m m m m m m m m ",
"w i L.L.L.L.L.L.F.w f J.i u w w i w F.L.F.w w p D.L.L.L.F.p w e h M m m m m m m m m m m m m m m m m m m m m m m m m m m m m m m m m m m m m m m m m m ",
"w d L.L.L.L.L.L.G.i F.f w w w w w w g L.F.w e q w p D.J.L.J.F.p u y 2 M m m m m m m m m m m m m m m m m m m m m m m m m m m m m m m B m m m m m m m m ",
"w d L.L.L.L.L.L.F.i D.p w u w w w w d J.F.w w < < r w i f F.J.J.F.p w y 3 m m m m m m m m m m m m m m m m m m m m m m m m m m m m m m m m m m m m m m ",
"w d L.L.L.L.L.L.F.i D.e w w w w w w r J.G.w w 1 m n , 1 r e w p d F.d e < m m m m m m m m m m m m m m m m m m m m m m m m m m m m m m m m m m m m m m ",
"e d L.L.L.L.L.L.F.i p w u w u w w w 1 s H.p w e , m m m N M 4 < 1 1 5 M m m m m m m m m m m m m m m m m m m m N m m m m m m m m m m m m m m m m m m m ",
"e d J.L.L.L.L.L.J.w u w u w w w w w < 1 F.d u u 1 m m m m m m B B m B m m m m m m m m m m m m m m m m m m m m m m m m m m m m m m m m m m m m m m m m ",
"w i L.L.L.L.L.L.G.i w w w w w w w w 5 M s F.i u e M m m m m m m m m m m m m m m m m m m m m m m m m m m m m m m m m m m m m m m m m m m m m m m m m m ",
"w a L.L.L.L.L.L.F.u w w w w w w w w < m 4 g i u w 1 m m m m m m m m m m m m m m m m m m m m m m m m m m m m m m m m m m m m m m m m m m m m m m m m m ",
"w d L.L.L.L.L.L.F.u u w w w u w w w 5 m N 4 a u w y M m m m m m m m m m m m m m m m m m m m m m m m m m m m m m m m m m m m m m m m m m m m m m m m m ",
"w p J.L.L.L.L.L.G.u w w w w w w w w < m m m M t w w < m m m m m m m m m m m m m m G G N n n N m m m m m m m m m m m m m m m m m m m m m m m m m m m m ",
"w p L.L.L.L.L.L.F.u u w w w w w w w 5 m m m m N 2 y r M m m m m m m m N m B H :.r.!.!.<.# o O n m m m m m m m m m m m m m m m m m m m m m m m m m m m ",
"w p J.L.L.L.L.L.F.e u w u w w u w w 5 m m m m m m , t 5 m m m N m F I Q <.u.~.(.XX(.(./.U   X % B m m m m m m m m m m m m m m m m m m m m m m m m m m ",
"w p L.L.L.L.L.L.G.u u w w w w w w w < m m m m m m m N 3 N m m G <.p.^.XXXXXXXXXX(././.(.>.o X $ m m m m m m m m m m m m m m m m m m m m m m m m m m m ",
"0 d L.L.L.L.L.L.G.u w w w w w u w w 5 m m m m m m m m N N m J i.@X#X$X$X$X@X@XXX/././.(.q.o   O m m m m m m m m m m m m m m m m m m m m m m m m m m m ",
"0 d L.L.L.L.L.L.G.e w w w w w w w w < m m m m m m m m m m m q.%X%X%X#X@X@X@X@X(./././.(.i.-   O N m m m m m m m m m m m m m m m m m m m m m m m m m m ",
"0 a L.L.L.L.L.L.F.u w u u w w w w w < m m m m m m m m m m H XX%X%X@XXX@X+X@X(.(./././././.S   o n m m m m m m m m m m Z m m m m m m m m m m m m m m m ",
"0 d L.L.L.L.L.L.G.u w w w w w w w w < B m m m m m m m m m :.$X%XoX(.(./.^./././././././.(.>.X X % m m m m m m m m m P %.G b m m m m m m m m m m m m m ",
"w a L.L.L.L.L.L.F.e u u w w w w w w < m m m m m m m m m m r.%X%XXX/././.^./././.(.(./.!.>.; X O n m m m m m m m G >.n.OXn.9 O b m m m m m m m m m m m ",
"w d L.L.L.L.L.L.F.u 0 u w w w u w w 5 m m m m m m m m m B p.%X%XXX/././.^./././.!.1. .- o O b m m m m m m m m A 8.|.OXOXOXn.7 # m m m m m m m m m m m ",
"u p J.L.L.L.L.L.G.u u 0 w u w w w w < m m m m m m m m m F ~.%X%XXX X/./.XX~.q.T ; o O $ n m B m m m m m m m m %.|.OXOX|.e.n.;.o % m m m m m m m m m m ",
"0 p L.L.L.L.L.L.G.e u e w w w u w w 5 m m m m m m m m m G ~.#X%XXX/././.q.D O X O % m m m m m m m m m m m m G n.OXOX|.w.w.n.8.* $ m m m m m m m m m m ",
"0 d L.L.L.L.L.L.G.u 0 u u 0 w w w w < m m m m m m m m m F p.%X%XXX~.XXq.-   X % m m m m m m m m m m m m m N >.OXOXOXn.w.w.w.8.- O m m m m m m m m m m ",
"0 a J.L.L.L.L.L.F.u 0 e w w w w w w 5 m m m m m m m m m B u.%X%XXX~.~.L   X % m m m m m m m m m m m m m m Z w.OX|.n.w.w.w.w.9.* o m m m m m m m m m m ",
"u p L.L.L.L.L.L.G.u w w u u u w w w 5 m m m m m m m m N G p.#X%X^.^.s.*   O m m m m m m m m m m m m m m m Y |.OXn.w.w.w.9.n.8.o o n m m m m m m m m m ",
"w d L.L.L.L.L.L.G.e w w w e w w w w < m m m m m m m m N <.+X#X#XXXXX0.+   $ m m m m m m m m m m m m m m Z >.OX|.w.w.w.w.e.n.o.o O m m m m m m m m m m ",
"0 d L.L.L.L.L.L.F.u w w w w w w w w 5 m m m m m m m m F p.+X$XoX/.^.%.X X b m m m m m m m m m m m m m m Z 9.OXn.w.w.w.w.e.e.S   O m m m m m m m m m m ",
"0 d L.L.L.L.L.L.G.u w u w w w w w w < m m m m m m b b H ~.+X$X#X(./. .  o m m m m m m m m m m m m m m m G n.|.e.w.w.w.w.e.8.* X % m m m m m m m m m m ",
"w a L.L.L.L.L.L.F.u w w w w w w w w < m m m m m Z O X C ^.+X$X@X^./.S   O m m m m m m m m m m m m m m m U |.|.w.w.w.e.w.w.|   + m m m m m m m m m m m ",
"u p L.L.L.L.L.L.F.w w w w w w w w w 5 m m m m m $ * + O u.@X#XXX(.!.7   $ Z m m m m m m m m m m m m m m U |.|.w.w.w.9.n.-.& X $ m m m Z Z Z m m m m m ",
"w p L.L.L.L.L.L.G.u w w u w w w 0 e < m m m m m L } T O 7 u.XXXX(.i.O X % m m m m m m m m m m m m m m m Y n.n.w.w.w.9.o.O   O m Z J +.j.j.#.J Z N m m ",
"w d J.L.L.L.L.L.G.u w w w w u w u 0 < B m m B ( } 4.} T + o D 1.!.0.O $ m m m m m m m m m m m m m m m m m >.w.n.w.o.9 X   O b D #.c.m.m.v.v.j.Z m m m ",
"0 p L.L.L.L.L.L.G.u w w u w w w 0 e < m m m P 5.3.3.4.3.K     o 7 S b m m m m m m m m m m m m m m m m m m Z ....9 o X o $ m F v.C.Z.C.C.V.c.k.v b m m ",
"0 p L.L.L.L.L.L.G.u w w w w w w 0 0 < B m m [ 5.3.3.3.3.} 7 o   X O b m m m m m m m m m m m m m m m m m N m m m % $ % m m Z X.B.Z.C.c.x.M.B.z.O.O b m ",
"w a L.L.L.L.L.L.F.u w u w w w w u u < m V V 5.6.3.3.3.3.3.} 8 o X X X % m m m m m m m m m m m m m m m m m m m m m m B m m Z v.Z.C.x.k.k.k.z.z.g.o % m ",
"w p L.L.L.L.L.L.F.u u u u w w u e 0 < B V W 6.6.3.3.3.3.3.3.2.K o X X X # b m m m m m m m m m B m m m m m m m m m m m m m X.B.Z.c.k.k.k.k.k.k.h.= # N ",
"w p J.L.L.L.L.L.G.u w p a u w w e 0 < m m [ T.} 3.3.3.3.3.3.3.3.T O X X X o $ m m m m m m m m m m m m m m m m m m m m m Z l.Z.B.k.k.k.k.k.k.k.k.: O m ",
"w d L.L.L.L.L.L.F.u w d D.w w w 0 0 < B B } E.4.3.3.3.3.3.3.3.3.3.( # X X X X O m m m m m m m m m m m m m m m m m m m m | B.Z.c.k.k.k.k.k.k.k.k.: X b ",
"w d L.L.L.L.L.L.F.e u d J.u w w w w < m V 5.W.T.3.3.3.3.3.3.3.3.3.3.) > o   o   % m m m m m m m m m m m m m m m m m m Z #.Z.B.z.k.k.k.k.k.k.k.k.: X b ",
"w d L.L.L.L.L.L.G.u u d L.d w w w w < m P } P.R.T.3.3.3.3.3.3.3.3.3.3.2.8     o $ m m m m m m m m m m m m m m m m m m | B.V.z.k.k.k.k.k.k.k.k.h.& X b ",
"w a L.L.L.L.L.L.G.u 0 g L.F.w w w w 5 N 2 a P.{.'.6.3.3.3.' } 3.3.3.3.3.2.*     O m m m m m m m m m m m m m m m m m Z l.Z.M.k.k.k.k.k.k.k.k.k.O.X O n ",
"w d L.L.L.L.L.L.G.u 0 D.L.J.u w w 0 1 h u x _.}.'.Y.' _ k x ' 3.3.3.3.3.4.8     O m m m m m m m m m m m m m m m m m X.B.V.z.k.k.k.k.k.k.k.k.k.: X O m ",
"w p L.L.L.L.L.L.G.u u D.L.L.d u w w w w z Y._.R.I.z p p p ` 3.3.3.3.3.3.4.T o   o m m m m m m m m m m m m m m m B J b.Z.N.k.k.k.k.k.k.k.k.k.O.X X % m ",
"w p J.L.L.L.L.L.G.e u D.L.L.F.u w w w y l c s i 0 i F.d c 3.3.3.3.3.3.3.3.) o   X b m m m m m m m m m m m m m m G j.V.Z.b.z.k.k.k.k.k.k.k.h.* X O m m ",
"w p L.L.L.L.L.L.F.u w F.L.L.J.p u w u e w 0 w i f J.D.j 2.3.3.3.3.3.3.3.3.2.> o X % B m m m m m m m m m m m m Z @.N.Z.B.v.v.k.k.k.k.k.k.g.:   X % m m ",
"w p L.L.L.L.L.L.G.u u D.L.L.L.d w w w w w u f G.L.F.d ' 3.3.3.3.3.3.3.3.3.3.K   X $ m m m m m m m m m m m m m X.b.C.Z.v.z.v.k.k.k.k.g.v & X X # m m m ",
"w p J.L.L.L.L.L.G.u w d L.L.L.F.u u w w p F.L.L.G.i _ } 4.3.3.3.3.3.3.3.3.3.( o   O N m m m m m m m m m m m m X.b.B.M.v.v.k.k.j.O.: O X   X % m m m m ",
"w p L.L.L.L.L.L.F.u w i J.L.L.J.e u i D.J.L.L.F.i c 3.} 3.3.3.3.3.3.3.3.3.3.) O   o N m m m m m m m m m m m m Z J X.@.@.X.X.J Z # o o O $ b m m m m m ",
"e p J.L.L.L.L.L.F.u w w d F.L.F.u a J.L.L.L.D.i I.).Y.4.3.3.3.3.3.3.3.3.3.3.3.6 X o n m m m m m m m m m m m m m m m m m B m m m b m b m m m m m m m m ",
"w p L.L.L.L.L.L.G.u w w w w d d p J.L.L.J.d a U.{.}.{.'.).W.T.Y.4.3.3.4.3.3.3.K X X % m m m m m m m m m m m m m m m m m m m m m B m B m m m m m m m m ",
"w d L.L.L.L.L.L.G.u w w i d d d i p g g a 1 L E.}.}.}.}.{.{.{.{.'.).T.6.4.3.3.( X X $ m m m m m m m m m m m m m m m m m m m m m m m m m m m m m m m m ",
"w d L.L.L.L.L.L.G.e w w f L.L.D.u u 2 M , N m G :.E.'.[.}.{.].].}.}.}.}._.W.T.3.# X % m m m m m m m m m m m m m m m m m m m m m m m m m m m m m m m m ",
"w a L.L.L.L.L.L.G.u u i J.J.J.p u w 2 m m m m m N V I [ 7.E.E.Q.W.`.].}.}.}.}.).S % m m m m m m m m m m m m m m m m m m m m m m m m m m m m m m m m m ",
"u p L.L.L.L.L.L.F.u e d J.d i w u u 2 Z m m m m B m m N m F G G P Y { E.`.].'.:.N N m m m m m m m m m m m m m m m m m m m m m m m m m m m m m m m m m ",
"w p L.L.L.L.L.L.F.u w d D.w w w w w < B m m m m m m m m m m m m m m m N I ~ I m m m m m m m m m m m m m m m m m m m m m m m m m m m m m m m m m m m m ",
"w p L.L.L.L.L.L.G.u u d d w w w w w < m m m m m m m m m m m m m m m m m m N m m m m m m m m m m m m m m m m m m m m m m B m m m m m m Z m m m m m m m ",
"w p J.L.L.L.L.L.J.u u d i w w w w w 2 m m m m m m m m m m m m m m m m m m m m m m m m m m m m m m m m m m m m m m m m m m m m m m m m m m m m m m m m "
};
