/* XPM */
static char *result[] = {
/* columns rows colors chars-per-pixel */
"75 75 176 2 ",
"   c #5F2E09",
".  c #612F09",
"X  c #643109",
"o  c #6B340B",
"O  c #6D3B0B",
"+  c #71370C",
"@  c #733A0D",
"#  c #7C3D0D",
"$  c #7B3C11",
"%  c #5E5C09",
"&  c #67420A",
"*  c #634C0A",
"=  c #73410F",
"-  c #7E470E",
";  c #7D4D0D",
":  c #6F550A",
">  c #645D0B",
",  c #6A5A0B",
"<  c #74540D",
"1  c #7A510D",
"2  c #7D5B0A",
"3  c #754210",
"4  c #7C4411",
"5  c #7C4913",
"6  c #456E07",
"7  c #4B6508",
"8  c #476F08",
"9  c #4B6D08",
"0  c #546609",
"q  c #5B630A",
"w  c #526B09",
"e  c #5F680D",
"r  c #467008",
"t  c #4A730A",
"y  c #4F780E",
"u  c #52740C",
"i  c #517A0F",
"p  c #5C7A0E",
"a  c #537D11",
"s  c #60620B",
"d  c #6E6708",
"f  c #61690D",
"g  c #6A6909",
"h  c #746608",
"j  c #7B6509",
"k  c #746C0B",
"l  c #7E680A",
"z  c #637A0E",
"x  c #6C7B0D",
"c  c #71770F",
"v  c #607D11",
"b  c #803F0D",
"n  c #85410E",
"m  c #8C450F",
"M  c #834C0B",
"N  c #8C4B0D",
"B  c #83530D",
"V  c #87590F",
"C  c #91530B",
"Z  c #955C0A",
"A  c #985D0C",
"S  c #824213",
"D  c #8D4611",
"F  c #854C14",
"G  c #8E4A12",
"H  c #904711",
"J  c #934B12",
"K  c #9A4D15",
"L  c #914718",
"P  c #944919",
"I  c #9A4C1B",
"U  c #8C5517",
"Y  c #8D5919",
"T  c #955115",
"R  c #9B5316",
"E  c #9C5917",
"W  c #945218",
"Q  c #925E1A",
"!  c #9F591B",
"~  c #A04F1C",
"^  c #A05517",
"/  c #A4521C",
"(  c #AB551E",
")  c #A25A1B",
"_  c #AA5E1B",
"`  c #836509",
"'  c #8D6209",
"]  c #876C0D",
"[  c #8B690C",
"{  c #956008",
"}  c #9A640C",
"|  c #9F680E",
" . c #8E6411",
".. c #9E6313",
"X. c #986A16",
"o. c #96621D",
"O. c #867614",
"+. c #9B7214",
"@. c #A0690F",
"#. c #A46716",
"$. c #A36B11",
"%. c #AC611D",
"&. c #AB6B1E",
"*. c #B0621D",
"=. c #A77014",
"-. c #AC7316",
";. c #AB7A16",
":. c #AF7618",
">. c #B1771A",
",. c #B57B1C",
"<. c #B87D1E",
"1. c #AC5520",
"2. c #B05721",
"3. c #B35B25",
"4. c #A26D20",
"5. c #BD642C",
"6. c #A67121",
"7. c #AB7623",
"8. c #AF7924",
"9. c #B37523",
"0. c #B37A25",
"q. c #BA7D25",
"w. c #B67B28",
"e. c #BC7D2A",
"r. c #C1652B",
"t. c #C56A2F",
"y. c #C46B33",
"u. c #C96F34",
"i. c #CD7236",
"p. c #CD7339",
"a. c #D1753A",
"s. c #D4793E",
"d. c #D77D42",
"f. c #D97F43",
"g. c #568113",
"h. c #5A8515",
"j. c #5D8817",
"k. c #5E8A18",
"l. c #6E8414",
"z. c #618E1A",
"x. c #7E8210",
"c. c #65921D",
"v. c #898512",
"b. c #938913",
"n. c #AD8818",
"m. c #B58B19",
"M. c #A19118",
"N. c #B69519",
"B. c #B99619",
"V. c #BB991A",
"C. c #BD8127",
"Z. c #B68029",
"A. c #BB842B",
"S. c #BA9E20",
"D. c #B7A226",
"F. c #C29D1D",
"G. c #C3852D",
"H. c #C28A2E",
"J. c #C48B30",
"K. c #CA8E32",
"L. c #C69031",
"P. c #CD9334",
"I. c #CF9836",
"U. c #D19736",
"Y. c #D39A35",
"T. c #D69E39",
"R. c #D89F39",
"E. c #C6A425",
"W. c #C8A827",
"Q. c #CDAD2B",
"!. c #CFB12F",
"~. c #D7A03A",
"^. c #DAA23B",
"/. c #CCB433",
"(. c #D8BA37",
"). c #D9BC38",
/* pixels */
"8 8 8 8 8 8 8 8 8 8 8 8 8 8 8 8 8 8 8 8 8 8 8 8 8 8 8 8 8 8 8 8 8 8 8 8 8 8 8 8 t 8 8 8 8 8 8 8 8 8 8 8 r t r t t t t t t t t t t t t t 8 8 t 8 8 8 8 ",
"t t 8 8 8 8 8 8 8 8 8 8 8 8 8 8 8 8 8 8 8 8 8 8 8 8 8 8 8 8 8 8 8 8 8 t t 8 t t t u y y a a a g.h.h.h.j.k.k.k.k.k.z.z.z.z.z.z.c.k.z.k.z.j.j.h.h.g.a i ",
"z.z.h.g.a i t t t 8 8 8 8 8 8 8 8 t 8 8 t 8 8 t t y u i i a a a a h.h.k.k.k.z.z.z.c.z.c.c.c.c.c.c.c.c.c.c.c.c.c.c.c.c.c.c.c.c.c.c.c.c.c.c.c.c.c.c.c.c.",
"c.c.c.c.c.c.z.z.z.k.z.j.j.j.j.k.h.j.z.z.z.z.z.z.z.z.c.c.c.c.c.c.c.c.c.c.c.c.c.c.c.c.c.c.c.c.c.c.c.c.c.c.c.c.c.c.c.c.c.c.c.c.c.c.c.c.c.c.c.c.c.c.c.c.c.",
"c.c.c.c.c.c.c.c.c.c.c.c.c.c.c.c.c.c.c.c.c.c.c.c.c.c.c.c.c.c.c.c.c.c.c.c.c.c.c.c.c.c.c.c.c.c.c.c.c.c.c.c.c.c.c.c.c.c.c.c.c.c.c.c.c.c.c.c.c.c.c.c.c.c.c.",
"c.c.c.c.c.c.c.c.c.c.c.c.c.c.c.c.c.c.c.c.c.c.c.c.c.c.c.c.c.c.c.c.c.c.c.c.c.c.c.c.c.c.c.c.c.c.c.c.c.c.c.c.c.c.c.c.c.c.c.c.c.c.c.c.c.c.c.c.c.c.c.c.c.c.c.",
"c.c.c.c.c.c.c.c.c.c.c.c.c.c.c.c.c.c.c.c.c.c.c.c.c.c.c.c.c.c.c.c.c.c.c.c.c.c.c.c.c.c.c.c.c.c.c.c.c.c.c.c.c.c.c.c.c.c.c.c.c.c.c.c.c.c.c.c.c.c.c.c.c.c.c.",
"c.c.c.c.c.c.c.c.c.c.c.c.c.c.c.c.c.c.c.c.c.c.c.c.c.c.c.c.c.c.c.c.c.c.c.c.c.c.c.c.c.c.c.c.z.z.z.j.k.h.h.h.g.g.a a a a a a a a a a g.h.h.h.j.k.z.z.c.c.c.",
"j.z.c.c.c.c.c.c.c.c.c.c.c.z.c.c.c.c.c.c.c.c.z.c.c.c.c.c.c.c.c.c.c.c.z.z.j.h.h.h.i i i u y y i y 8 8 8 8 8 8 8 8 8 8 8 8 8 8 8 8 8 8 8 8 t t t y i a h.",
"8 t t t a a g.h.j.z.k.z.z.z.z.z.z.z.z.z.z.z.z.j.h.h.h.h.g.i i y t t t t 8 8 8 8 8 8 8 r 8 8 y h.a t 8 8 8 8 8 8 8 8 8 8 8 8 8 8 8 8 8 8 8 8 8 8 6 8 8 ",
"8 8 8 8 t t 8 8 8 8 t 8 t t t t t t t t 8 8 8 t 8 8 8 8 8 8 8 8 8 8 8 8 8 8 8 8 8 8 8 8 8 8 8 i z.h.t 8 8 8 8 8 8 8 8 8 8 8 8 8 8 8 8 t 8 8 8 8 8 8 8 ",
"8 8 8 t t h.t t 8 8 8 8 8 8 8 8 8 8 8 8 8 8 8 8 8 8 8 8 8 8 8 8 8 8 8 8 8 8 8 8 8 8 8 8 8 8 8 8 a z.z.a t 8 8 8 8 8 8 8 8 8 8 8 8 8 t i 8 8 8 8 8 8 8 ",
"8 8 8 8 8 h.h.9 8 8 8 8 8 8 8 8 8 8 8 8 8 8 8 8 8 8 8 8 8 8 8 8 8 8 8 8 8 8 8 8 8 8 8 8 8 8 8 8 8 a c.z.h.t t 8 8 8 8 8 8 8 9 8 8 u h.t 8 8 8 8 8 8 8 ",
"8 8 8 8 8 a z.a 8 8 8 8 8 8 8 8 8 8 8 8 8 8 8 8 8 8 8 8 8 8 8 8 8 8 8 8 8 8 8 8 8 8 8 8 8 8 8 8 8 t h.c.c.z.a t 8 8 8 8 8 8 8 8 t z.h.8 8 8 8 8 8 8 8 ",
"8 8 8 8 8 t z.z.i 8 8 8 8 8 8 8 8 8 y i g.g.h.a i i y y t t t 8 8 8 8 8 8 8 8 8 8 r 8 8 8 8 8 8 8 8 t h.c.c.c.k.u r 8 8 8 8 8 t z.z.y 8 8 8 8 8 8 8 8 ",
"8 8 8 8 8 8 h.c.z.t 8 8 8 8 8 8 i j.z.c.c.c.c.c.c.c.z.h.h.i 8 8 8 8 8 8 8 8 8 8 8 8 8 8 8 8 8 8 8 8 8 t k.c.c.c.z.g.t 8 8 8 8 j.c.a 8 8 8 8 8 8 8 8 8 ",
"8 8 8 8 8 8 y c.c.j.t 8 8 8 t h.c.c.c.c.c.z.c.z.h.a i t t 8 8 8 8 8 8 8 8 8 8 8 8 8 8 8 8 8 8 8 8 8 8 8 t k.c.c.c.c.g.8 8 8 t z.z.t 8 8 8 8 8 8 8 8 8 ",
"8 t 8 8 8 8 t z.c.c.a 8 8 t z.c.c.c.c.c.z.a t 8 8 8 8 8 8 8 8 8 8 8 8 8 8 8 8 8 8 8 8 8 8 8 8 8 8 8 8 8 8 t z.c.c.c.k.t 8 8 t a y 8 8 8 8 8 8 8 8 8 8 ",
"> 9 8 8 8 8 8 g.z.c.t 8 8 h.c.c.c.c.z.a t 8 8 8 8 8 8 8 8 8 8 8 8 8 8 8 8 8 8 8 8 8 8 8 8 8 8 8 8 8 8 8 8 8 y j.c.c.k.r 8 8 8 8 8 8 8 8 8 8 8 8 9 0 > ",
"D ; , 0 8 8 8 r a h.t 8 t z.c.c.c.h.t t 8 8 8 8 8 8 8 8 8 8 8 8 8 8 8 8 8 8 8 8 8 8 8 8 8 8 8 8 8 8 8 8 8 8 8 8 t y a 8 8 8 r 8 8 8 8 9 w q > < M m m ",
"m m D M < w r r 8 8 8 8 h.c.c.c.h.t 8 8 8 8 8 8 8 8 8 8 8 8 8 8 8 8 8 8 8 8 8 8 8 8 8 8 8 8 8 8 8 8 8 8 8 8 8 8 8 8 8 8 t a a 8 0 q 8 9 ; m m m D m m ",
"m m m m : 9 8 r 8 8 8 t a k.z.h.8 8 8 8 8 8 8 8 8 8 8 8 8 8 8 8 8 8 8 8 8 8 8 8 8 8 8 8 8 8 8 8 8 8 8 8 8 8 8 8 8 8 9 9 h.c.j.8 1 m , 8 , m m m m m m ",
"m m m , 8 8 8 8 8 8 a t 8 t t 8 8 8 8 8 r t 8 8 8 8 8 8 8 8 8 8 8 8 8 8 8 8 8 8 8 8 8 8 8 8 8 8 8 8 8 8 8 8 9 q : < ; e z.c.z.t > m m < 0 < m m m m m ",
"m m F 9 8 8 8 8 8 8 a z.a t q q 0 9 8 8 8 w 9 8 8 8 8 8 8 8 8 8 8 8 8 8 8 8 8 8 8 8 8 8 8 u u v l.c , < , < M D D D D f z.c.z.8 q m m m 1 > M m m m m ",
"m m : 8 8 8 8 8 8 8 a c.c.h.> D m B 2 j ' [ [ l g w 9 9 8 9 9 9 8 9 9 w p p z z x x x.v.b.M.D./.(.E...m m m m m m m D e k.c.g.r < m m m m ; 1 m m m m ",
"m m q r 8 8 8 8 8 t k.c.c.z.w V Z } @.-.>.>.,.>.=.' M M M ; ; ; ; ; V n.S.V.N.N.B.B.B.B.V.B.B.W.).!.m.J m m m m m m D f c.k.t w m m m m m m m m m m m ",
"m F 0 8 8 8 9 > 8 t k.c.c.c.i ] -.,.<.<.m.<.<.<.<.:.A D H m m m m m =.F.V.V.N.V.B.B.B.B.B.B.B.B.!.(.F...m m m m m m m e z.j.r , m m m m m m m m m m m ",
"m ; 9 8 8 0 < m q r g.c.c.z.t O.<.<.,.>.:.-.:.>.<.<.=.Z m m m m m m -.F.B.B.B.V.B.B.B.B.B.B.B.B.W.).E.$.b m m m m m m e z.a 9 ; m m m m m m m m m m m ",
"m < 8 8 q ; m m : r y c.c.k.t k @.@.} } { { { } | :.<.=.Z m m m m m @.B.B.B.B.B.B.B.B.B.B.B.B.B.E.).E.V - m m m m m D e k.t q D m m m m H m m m m m m ",
"m > 8 , M D m m M 8 t k.c.j.8 d { A A { { { { { Z } -.<.$.C m m m m H ;.B.B.B.B.B.B.B.B.B.B.B.B.W.Q.n.O = m m m m m m e g.8 < m m m m m m m m m m m m ",
"M > 1 m D m m m D 0 6 g.c.g.r h { { { { { { { { { { } >.:.{ G m m m m M n.V.B.B.B.B.B.N.B.B.B.B.V.N.B X n m m m m m m e t 0 M D m m m m m m m m m m m ",
"m m m m m m m m D % 6 a c.a 9 l { { { { { { { { { { { =.<.| N D m m m b - +.B.V.B.V.V.V.V.B.V.V.B. .X @ m m m m m m D q r : m D m m m m m m m m m m m ",
"m m m m m m m m m * 6 u z.y w { { { { { { { { { { { { @.<.@.C m m m m m m # B  .X.| +.+.+.+.+. .1 X + m m m m m m m m q 8 M D m m m m m m m m m m H m ",
"m m m m m m m m m & 6 t j.t g { { { { { { { { { { { { | >.} C m m m m m m b + X X X X X X X X X . o n m m m m m m m m 0 s m m m m m m m m m m m m m m ",
"m m m m m m m m m O 7 r g.t ` { { { { { { { { { { { { } -.} N m m m m m m m m n b b b b # # b b n n m m m m m m m m m q < m m m m m m m m m m m m m m ",
"m m m m m m m m m o 0 r i g { { { { { { { { { { { { { @.-.Z N m m m m m m m m m H H b m m m m m m m m m m m m m m m m , m m m m m m m m m m m m m m m ",
"m m m m m m m m m O > 6 u ' { { { { { { { { { { { { { @.$.C m m m m m m m m m m m m m m m m m m m m m m m m m m m m D M m m m m m m m m m m m m m m m ",
"m m m m m m m m m o , r ` { { { { { { { { { { { { { { } Z N m m m m m m m m m m m m m m m m m m m m m m m m m m m m D m m m m m m m m m m m m m m m m ",
"m m m m m m m m n O : h { { { Z { { { { { { { { { { { { C N m m m m m m m m m m m m m m m m m m m m m m m m m m m m m m m m m m m m m m H m m m m m m ",
"m m m m m m m m N o X ; M M M M M M M 2 M M M M M M M ; n m m m m m m m m m m m m m m m m m m m m m m m m m m m m m m m m m m m m m m m m m m m m m m ",
"m m m m m m m m m + . . . . . . . . . . . . . . . . . o b m m m m H m m m m m m m m m m m m m m m m m m m m m m m m m m m m m m m m m m m m m m m m m ",
"m m m m m m m m m b + X o o X o o o o X o o X o o o o # H K / / ( ( ( ( ( / K K m m m m m m m m m m m m m m m m m m m m m m m m m m m m m m m m m m m ",
"m m m m m m m m m m m m b b H m n n m m m m m b H P ~ 3.t.p.s.s.s.s.s.a.p.i.t.5.3.( K J H m D D m m m m m m m m m m m m m m m m m m m m m m m m m m m ",
"m m m m m m m m m m m m H H m m N N m m m H H K 3.u.d.d.f.f.s.p.u.t.5.t.y.y.y.y.u.3.2.2.K b m D m m m m m m m m m m m m m m m m m m m m m m m m m m m ",
"m m m m m m m m m m m m m m m m m m m m m m H t.d.d.f.d.5.3.2.1.1.( ( 1.1.1.1.1.( ( 1.1.( $ b D m m m m H K J G D D D L J T R W K G G m m m m m m m m ",
"m m m H m m m m m m m m m m m m m m m m m m ^ i.d.d.y.1.1.1.1.1.1.1.1.1.1.1.1.1.( 2.1.1.1.I + b m m D &.G.U.K.G.e.w.w.e.J.K.P.I.U.K.G.0.#.J m m m m m ",
"m m m m m m m m m m m m m m m m m m m m m m K u.d.d.2.1.1.1.1.1.1.1.1.1.1.1.1.1.1.1.1.1.1.( D o n m ! U.^.^.^.^.^.R.R.T.R.R.R.^.^.^.^.^.T.q.E m m m m ",
"m m m m m m m m m m m m m m m m m m m m m m K u.d.d.1.1.1.1.1.1.1.1.1.1.1.1.1.1.1.1.1.1.1.2.~ o @ + o.L.I.U.T.T.R.R.R.R.R.R.T.T.R.R.^.^.^.R.C.R m m m ",
"m m m m m m m m m m m m m m m m m m m m m m J u.f.u.1.1.1.1.1.1.1.1.1.1.1.1.1.1.1.1.1.1.1.1.1.$ X . @ 6.7.0.0.0.Z.Z.Z.A.A.A.A.A.A.A.I.~.~.~.Y.0.N m m ",
"m m m m m m m m m m m m m m m m m m m m m m H u.f.r.1.1.1.1.1.1.1.1.1.1.1.1.1.1.1.1.1.1.1.1.1.b   .   Y 7.7.7.7.7.7.7.7.7.7.7.7.7.7.7.A.~.^.^.H.E m m ",
"m m m m m m m m m m m m m m m m m m m m m m K a.d.2.1.1.1.1.2.2.1.1.1.1.1.1.1.1.1.1.1.1.1.1.~ o   X   @ 6.7.7.7.7.7.7.7.7.7.7.7.7.7.7.7.L.^.^.P.&.m m ",
"m m m m m m m m m m m m m m m m m m m m m m K r.r.2.1.1.1./ ~ ~ / ~ 1.1.1.1.1.2.1.1.1.1.1.P + . X X   X Y 7.7.7.7.7.7.7.7.7.7.7.7.7.7.7.A.~.^.~.>.H m ",
"m m m m m m m m m m m m m m m m m m m m m m H ( ( D b $ + + o o + + $ b D L I I P L b $ o . . o - + . . @ 6.7.7.7.7.7.7.7.7.7.7.7.7.7.7.H.~.^.Y.9.D m ",
"m m m m m m m m m m m m m H m m m m m m m m m m D o . o + $ b b b b b b # + + o o X X o + # b m D b . . X Q 7.7.7.7.7.7.7.7.7.7.7.7.7.7.J.~.^.Y.0.J m ",
"m m m m m m m H m m m m m m m m m m m m m m m m D b m m D m m m m m L D m m m m b m S D m m H m m m o . . 3 6.7.7.7.7.7.7.7.7.7.7.7.7.7.J.~.~.U.q.T m ",
"m m m m m m m m m m m m m m m m m m m m m m m m m m D m b H m m m m m D m m m m m m m D m m m m m m # . . X Q 7.7.7.7.7.7.7.7.7.7.7.7.7.J.~.^.I.q.R m ",
"m m m m m m m m m m m m m m m m m m m m m m m m m m m m m m m m m m m m m m m m m m m m m m m m m m m X X   = 6.7.7.7.7.7.7.7.7.7.7.7.7.Z.T.~.Y.q.E m ",
"m m m m m m m m m m m m m m m m m m m m m m m m m m m m m m m m m m m m m m m m m m m m m m m m m m m @     X o.8.7.7.7.7.7.7.7.7.7.7.7.7.Z.I.Y.C.E m ",
"m m m m m m m m m m m m m m m H m m m m m m m m m m m m m m m m m m m m m m m m m m m m m m m m m m m b X .   3 7.7.7.7.7.7.7.7.7.7.7.7.7.7.w.H.C.E m ",
"m m m H m m m m m m m m m m m m m m m m m m m m m m m m m m m m m m m m m m m m m m m m m m m m m m m m o   X X 5 6.7.7.7.7.7.7.7.7.7.7.7.7.7.Z.G.E m ",
"m m m m m m m m m m m m m m m m m m m m m m m m m m m m m m m m m m m m m m m m m m m m m m m m m m m m #         O Y 4.8.7.7.7.7.7.7.7.7.7.7.0.C.R m ",
"m m m m m m m m m m m m m m m m m m m m m m m m m m m m m m m m m m m m m m m m m m m m m m m m m m m m n X   X       = o.4.7.7.7.7.7.7.7.7.7.0.0.T m ",
"m m m m m m m m m m m m m m m m m m m m m m m m m m m m m m m m m m m m m m m m m m m m m m m m m m m m m # X X   X . . . 3 o.6.:.7.7.7.7.7.7.0.0.H m ",
"m m m m H ^ ^ ^ J m m m m m m m m m m m m m m m m m m m m H m m m m m m m m m m m m m m m m m m m m m m m m D # O X . . .   X 3 o.7.7.7.7.7.7.0.&.N m ",
"m m m K _ %.%.*.%._ R J m m G K R J H m m m m m m m m m m m m m m m m m m m m m m m m m m m m m m m m m m m m H m b # X . . . . X F 6.7.7.7.7.7.) m m ",
"m m J ^ ^ ) ) ) ) %.*.%.H H ^ %.%.*.*.^ R H m m m m m m m m m m m m m m m m m m m m m m m m m m m m m m m m m m m m m m # + X . . . 5 #.7.7.7.7.J m m ",
"m m m E ! ! ) E ! ! ! %.J R ) ! ! ) _ _ *.R m m m m m m m m m m m m m m m m m m m m m m m m m m m m m m m m m m m m m m m m b @ X . . @ o.7.6.U m m m ",
"m m b R ! ! ! ) ! ! ! ) J K ! ! ! ! ! ! ) R m m m m m m m m m m m m m m m H m m m m m m m m m m m m m m m m m m m m m m m m m m m + . . O F 5 # m m m ",
"m m # P ) ! ! ! ! ! ! 1.J D ) ! ! ! ! ! ) ) m m m m m m m m m m m m m m m m m m m m m m m m m m m m m m m m m m m m m m m m m m m m # o   . X b m m m ",
"m D # F ! ! ! ! ! ) ) ) G 4 ! ! ! ! ! ! ! ) D m m m m m m m m m m m m m m m m m m m m m m m H m m m m m m m m m m m m m m m m m m m m n @ O # D m m m ",
"m m n O W ! ) ) ! W U G D @ W ) ) ! ! ! R T m m m m m m m m m m m m m m m m m m m m m m m m m m m m m m m m m m m m m m m m m m m m m m m m m m m m m ",
"m m D @ o 4 D 4 @ o o # D # O D W G S @ @ D m m m m m m m m m m m m m m m m m m m m m m m m m m m m m m m m m m m m m m m m m m m m m m m m m m m m m ",
"m m m m # o o @ # n m m m m @ o o + # b b m m m m m m m m m H m m m m m m m m m m m m m m m m m m m m m m m m m m m m m m m m m m m m m m m m m m m m ",
"m m m m m m m m m m m m m m m m m m m H m m m m m m m m m m m m m m m m m m m m m m m m m m m m m m m m m m m m m m m m m m m m m m m m m m m m m m m ",
"m m m m m m m m m m m m m m m m m m m m m m m m m m m m m m m m m m m m m m m m m m m m m m m m m m m m m m H m m m m m m m m m m m m m m m m m m m m "
};
