/* XPM */
static char *result[] = {
/* columns rows colors chars-per-pixel */
"75 75 66 1 ",
"  c #0E0006",
". c #150005",
"X c #1B0005",
"o c #230105",
"O c #2C0104",
"+ c #2D0904",
"@ c #340104",
"# c #3C0104",
"$ c #350904",
"% c #3C0B04",
"& c #440103",
"* c #4C0103",
"= c #440C04",
"- c #4B0C03",
"; c #530103",
": c #5C0103",
"> c #530D03",
", c #5C0903",
"< c #4D1003",
"1 c #541203",
"2 c #5B1503",
"3 c #5E1803",
"4 c #640102",
"5 c #6C0202",
"6 c #640B02",
"7 c #6C0902",
"8 c #730402",
"9 c #790702",
"0 c #740902",
"q c #7B0A02",
"w c #641403",
"e c #6C1402",
"r c #621903",
"t c #6C1903",
"y c #731402",
"u c #7B1402",
"i c #741C02",
"p c #7C1C02",
"a c #7D2002",
"s c #830D01",
"d c #841301",
"f c #8C1301",
"g c #841C02",
"h c #8C1C01",
"j c #931601",
"k c #941B01",
"l c #9B1D01",
"z c #A11F01",
"x c #842202",
"c c #8C2302",
"v c #932401",
"b c #9C2301",
"n c #932902",
"m c #9C2901",
"M c #A32301",
"N c #AB2501",
"B c #A32A01",
"V c #AB2B01",
"C c #B12700",
"Z c #B32A00",
"A c #BA2E00",
"S c #AB3101",
"D c #B43201",
"F c #BB3300",
"G c #C23500",
"H c #C53900",
/* pixels */
"ANbzCVMAV$&;:;4::::;:::;:;;O1Dbkd4:4dlbfdhllki+amcvvpgvmMxmmmmmm%+cbcvvvcvb",
"s55589889@:8845555854485455*xZ89q54588s0558589&sfqss558lCddqsfsGp@jssss889j",
"955555887O:5544585554544:45*pz88555555854585sq@585855558q554588Zio888755559",
"95588444&X:5554588555:74085*eq5455555554809804X=854855898555988de.*54485559",
"55585557:O*7555855584,55984,*50556::,584558944O*745585558:655q54*o:75558554",
"55q545554O@554555898448005qi&4554*485555888854@47555598585:75085&O475545955",
"555544584@,958555589854588Mn&58:*;855554554454@45544585554444:65#@585445855",
"885585585@0fqsf558fZfsq06qAn&85;;:858544555454@48845558554585475#@585485585",
"####&###@.wvggxyygcvgxchxxn1o&@O&*****&&&*&*&@X&;;;,;;;;***;*;*&oX&***>*&;;",
"o@##@@#@@####&#&#@oancvxvgxcgpwpxpxx$.<yeew,6yee;&&,eya-.=11122-<<1>-1><2<o",
"*5745554588555558:=HlsfssdzNs85qfqsj*X60qqq8qfs9545ssqZn=GMMMlMjAAjs9jljlV*",
"*54:5544555554488:-Fs584459q55555088@ =u88455885555505jv1G955545ss55558058#",
";5574765558955554:-f8800555985584556X.:959055588555545sp<M9885555955584587o",
":48955:4855555575;%449855;555585545:OX:48855:8885555585,%049955,588585554*o",
"u7598054885885444@o55057,48558545554#X45988858858844585*@45q506:9558545504#",
"mM88545888555555q,o45,44555558854584&.:555555455855::55*O54464455559554454&",
"BN89858qzs54589895@47455544585554588&.:5445844555555;88;O47445544555554595&",
"iDBVMbmbDBkudmvjVxo&*;;;;;;;:;;:;;;;O.&;:;*>:;:4:::,*;;@o::6444:4484475444@",
"o@$$$$$$$O$$%%$%$OXXoooooXoX.XXXXXXX...oXX..XXX$$%@OOO@$@%#-===&OooOOoOoOo.",
"47::5::4:o&:::4::4474444:44@@;:;:::;:44::4*@:&%DMfd8;40flgqddfhd=X&**;;;*;;",
"585554595@:5445544555554488;*5545554555585:48:>A808855559855558q-O585555588",
"558554554@:5664455558854455**5445555555884;55:1N95455555555488qs#O485445855",
"558575554@:59857:8558545505**58s5045858954585:-q5547555555508857@O455555955",
"85585544*O748985:485585554:O&45955458885555584#49854;4;794458q84#X;75558555",
"q5588658,Ovs598545885555459O*q889555895555459k=4454*,95555595855# *7445558q",
"955555585#Dj58445qs85555058*;f85545885555585qD=484;*555554555:55@o898555559",
"zdqdjjfll=DCblflkMGjd7qljhN66q9s908df9544qsslF%45*;:558844554454@Ofsqss989j",
"rw33ww3r1X%r3rr322rw312333r$$tettwwtte>*&>etarX@OX@##@@@@@@@@@@@.oacaxxxagc",
"o=--=====<=======$.Xoooooooooooooooo.Otppuyeygp6;*;euxc+.@#&##&##&&&&&&&&#X",
"aGMNMbblGBjqqbljNv@:44444:4584485444O$589885ss95548s9sG1O57455545885584585@",
"nV855459jq55550084#45445544555544595$.,q88445855555588V2@54645545555554594@",
"xl888555595555559,@54646455559554454@X4089855585585448f-@55745,5555q545544@",
"w479054658558554:#@58q50,48555555504@@45q855485:4645505@&45q854,955555577:O",
">58q55:4858555558:>548955:585585554*.@55q58558557;;4554O1q588054595558445*.",
"*5444645558954454:3Mq595558985584787X@554455445585*;484@3Cq884558955555897o",
"*54455445555544884wG955448ss55558858@O454557455855;;:85O3Gq99809zj5759999q#",
"#4444544455558445;-HMMzlljAZju0jljlB#X****;;;*;;;;;=O&*X$SmBBmmcSBvguvbhbb+",
"O#==##%##OOOOO@OOOX<212>2>111>>221,>ooXoooo..X.....X..X..oOOo+Ooooo+++o++oX",
"bbhhmbkMm@$uggpueuxg6;*,ypcx$cmgu4;;7dch0du2.w=<vgghgeghnxgccvvntOxvpxggpxv",
"s5550900q@>988858ss8545qq9dGwFs0q94558qq5588,8,,jsss858sClssqssbF=ssqss889j",
"885555588X=f888448555555500VwVq55555588554880f*&950555589854485jZ$788755559",
"85588454*.&8588055555585458f2d5545855q85550858&o4545855985458958h+*55485559",
"55585575:O#45q854495:4:45584#48854858585455q54&#4745585585,559944@;75558555",
"45q554574@#58q59455578;;555:@:5544898555595q85&*4555488558467505:@455545985",
"555544585@#544555445555*;584@485;5885554555445&*5844555555454:65:@485445555",
"585585585O#544555458855;;:84@48::8858854555455&*8854855854455545:@585488588",
"##@###@#@.X&&*&**&*;;***#o&&X@#X&*&&&&&*******O@;;;,,::,**;;**;*#X&***;**;;",
"$2232311222>12223%..OO@OOOOOO@OOOOOOo.>gghpuyghp4;;5dgmao@&@@&&&&&&&&*&&&#o",
"VFlNjlklGld0qzjfNu.&5444544588558455:o7888858q98555990jD$:5668544585585558*",
"Dl555459f85555058:.*544555:555554488:X,j88545855555588sV@45;,54::455554585*",
"Mf880775895557559#.*5446445558854554:X*8580855585555458d@45088544:49545554*",
"y45985:485558554:@.;78q55:7855555575:o*48q55:584:::5588:@47985448544555574#",
"458q55:5855855555;Xw779874458558544:@.;88958555450*:454;%d589854588558544:X",
":5,44645558854554:Xcl88557589555578q>.*544585455584*,58;=Zd505558985554079#",
":7445544555554488:XnN585459k955580584o*545555458855;*48:=Gf86509kz8558q99s;",
"&::444::454447444*.iFMNMbzlGMjqubljCgXo&&&&&&&&**&&&@o&@ovbvpgbcbVvh0hbhkB-",
"2wwwwwww2OOO@@@@@ooO->->>--=<ttww>>,<%%%$%%%=$Xo+++$+++++$%%=%%%oo%=%=====$",
"MjddllfbM@*44:544554:44:44:#3Fjfd4:4qhbdqdhffu$hVkbbudvMDvBmbVBF3OmVkbbhhkV",
"955555858@:8844555554455445*aB508555558845558q=58008545sl985880Zco88898555s",
"955554586o:4544588555474:65;tl85555555555598s0O,955555598854888MaX797455559",
"55588544&o:5855485585,75995;>85447555884588844O@4545855854578957w.&44558559",
"558548504@@:455855854:859567&5985:;4:584558q54@:7555555586:55q85*O405555555",
"488544454@&955555598555895fh&454:*505555585554@:4554595555476455&O445455q55",
"555554595@,85855558f854475zB&59:*;555544854454@48844555554455465&O495445555",
"45447444:@uNfklu9fbGvlkgpfFv@5:&;:54855455444:O45558588844585455#O555585588",
"ooooooooX.$3111><12rtiiiaii<$=%$*--*@OOOOOOOOO.O@@@#@@@@@@@@@#@@X.O@@@#@@@@",
"%gyy6*&*6yye6etey2.wVlkbpqhbFblMbVBZcXo@#@@##@@&####oo#O.3cxcxxpacxpeixppc2",
"xFsqs5458sfq80q98q$:98985458ls87588lDo>555584558855;*45;oSNdfsddkAs988fssk0",
"cz50555555854585sqO&q85755588855598jBO;54455545555:*;85;oSl585459q85555859:",
"uf54458585545895q5oo:445885884458957uo:58858555480*:554;og9580545885585455O",
">5855544:58475884;X*5755555580;55885:o;489554884:::4588;X668955:555555555,&",
"&4854*,44585588sy&.;4555588555466755:X,5598045575585458uo:5005468558845555:",
"&554;*88555555554;X;8844555554455465;o4f89545855555585fmX:5,:4544555854485:",
"*58;;;555544554454O*5548855854455445*o0855555985545888kVo;75558445855844884",
"@:*@:44454:444:44;XO###&##&&#####&&@O.yllzlffBMj844slzGn.#:::::4::44:44:::&"
};
