/* XPM */
static char *result[] = {
/* columns rows colors chars-per-pixel */
"75 75 193 2 ",
"   c #5F2D09",
".  c #5F3109",
"X  c #602E09",
"o  c #64320A",
"O  c #6B350B",
"+  c #6C3C0A",
"@  c #71370B",
"#  c #743A0C",
"$  c #7C3D0D",
"%  c #6E3A11",
"&  c #763D11",
"*  c #793F11",
"=  c #5A4A0A",
"-  c #5D5808",
";  c #6E4008",
":  c #784F07",
">  c #73430A",
",  c #744908",
"<  c #7C4E0D",
"1  c #6F570C",
"2  c #655D0B",
"3  c #6A5A0C",
"4  c #7C5407",
"5  c #74540D",
"6  c #79510D",
"7  c #754116",
"8  c #7C4013",
"9  c #794419",
"0  c #7E491C",
"q  c #7B5911",
"w  c #466F07",
"e  c #476F08",
"r  c #4B6D08",
"t  c #556709",
"y  c #5C620A",
"u  c #526A09",
"i  c #5C6C0E",
"p  c #467008",
"a  c #4B730A",
"s  c #4F780E",
"d  c #52730B",
"f  c #5A740A",
"g  c #507A0E",
"h  c #5C7212",
"j  c #537D11",
"k  c #597A12",
"l  c #62630C",
"z  c #6A640C",
"x  c #626B0F",
"c  c #687807",
"v  c #627308",
"b  c #697408",
"n  c #767A08",
"m  c #7A7D08",
"M  c #676E12",
"N  c #786514",
"B  c #637214",
"V  c #687616",
"C  c #6C7F1B",
"Z  c #72751B",
"A  c #717A19",
"S  c #797321",
"D  c #823F0E",
"F  c #85420E",
"G  c #8C450F",
"H  c #844A0E",
"J  c #8C490F",
"K  c #904A0F",
"L  c #825C07",
"P  c #81540F",
"I  c #8C510C",
"U  c #8C5C0B",
"Y  c #90570C",
"T  c #905C0B",
"R  c #814412",
"E  c #8E4711",
"W  c #8A4B12",
"Q  c #884A17",
"!  c #924C13",
"~  c #885414",
"^  c #955312",
"/  c #9B5614",
"(  c #995A12",
")  c #95521A",
"_  c #9A561C",
"`  c #9F591B",
"'  c #A05517",
"]  c #A15718",
"[  c #A25A1B",
"{  c #AA5E1B",
"}  c #866206",
"|  c #8A6706",
" . c #8A6806",
".. c #876908",
"X. c #926F06",
"o. c #92640A",
"O. c #936B08",
"+. c #877307",
"@. c #957206",
"#. c #9A7606",
"$. c #9E7906",
"%. c #9B7508",
"&. c #986712",
"*. c #987013",
"=. c #A17C06",
"-. c #A16613",
";. c #A56C14",
":. c #AF611D",
">. c #AA7515",
",. c #A27B15",
"<. c #AE7B16",
"1. c #B17F16",
"2. c #854F21",
"3. c #875021",
"4. c #8D5524",
"5. c #8F5827",
"6. c #9D5B24",
"7. c #955E2C",
"8. c #A05E27",
"9. c #8B7328",
"0. c #92752E",
"q. c #9D6531",
"w. c #9F7634",
"e. c #9C7E35",
"r. c #A4632B",
"t. c #A9672D",
"y. c #A16732",
"u. c #A36A35",
"i. c #AC6C34",
"p. c #A17D37",
"a. c #AC743A",
"s. c #A57C38",
"d. c #AB793B",
"f. c #B17237",
"g. c #B2773E",
"h. c #B3783E",
"j. c #BB7C3F",
"k. c #B57B43",
"l. c #BA7D43",
"z. c #568113",
"x. c #5A8515",
"c. c #5D8817",
"v. c #5F8A18",
"b. c #628E1A",
"n. c #6A881B",
"m. c #65921D",
"M. c #6A901F",
"N. c #6F8E22",
"B. c #738D23",
"V. c #7B8926",
"C. c #6B9020",
"Z. c #8C8207",
"A. c #968507",
"S. c #9B8607",
"D. c #A68307",
"F. c #AA8407",
"G. c #A48907",
"H. c #AD8A07",
"J. c #AE8708",
"K. c #B48D07",
"L. c #AB8516",
"P. c #AF8B17",
"I. c #B28417",
"U. c #B58C18",
"Y. c #BA8D18",
"T. c #B69219",
"R. c #B99619",
"E. c #BC9A1C",
"W. c #8E842F",
"Q. c #958132",
"!. c #C09619",
"~. c #C39C1B",
"^. c #C7A11F",
"/. c #C8A11F",
"(. c #C19B21",
"). c #C4A323",
"_. c #C9A524",
"`. c #CDA927",
"'. c #CDAC2A",
"]. c #D1AE2B",
"[. c #CFB02F",
"{. c #D3B432",
"}. c #D6B936",
"|. c #D9BA36",
" X c #DBBD39",
".X c #BC8046",
"XX c #BC824B",
"oX c #BF8752",
"OX c #BF8954",
"+X c #C38B55",
"@X c #C58F5A",
"#X c #C6905D",
"$X c #C89461",
/* pixels */
"G G G G G G G G G G G G G G G G G G G G G G G G G G G G G G G G G G G G G G G G G G G G G G G G G G G G G G G J y u u u u u u r r u b.n.m.b.b.m.b.r r ",
"G G G G G G G G G G G G G G G G G G G G G G G G G G G G G G G G G G G G G G G G G G G G G G G G G G ~ P W G G 6 r e e e e e w w e g m.m.m.m.m.m.x.e e ",
"G G G G G G G G G G G G G G G G G G G G G G G G G G G G G G G G G G G G G G G G G G G G G G G G G G E N A P G l e e e e e e e e e z.m.m.m.m.m.m.k e e ",
"G G G G G G G G G G G G G G G G G G G G G G G G G G G G G G G G G G G G G G G G G G G G G G G G G G E J Z b.N r e e e e e e e e e x.m.m.m.m.m.m.g e e ",
"G G G G G G G G G G G G G G G G G G G G G G G G G G G G G G G G G G G G G G G G G G G G G G G R G G G G W C m.x.a e e e e e e e a c.m.m.m.m.m.m.s p e ",
"G G G G G G G G G G G G G G G G G G G G G G G G G G G G G G G G G G G G G G G G G G G G G G G E G G G G G P b.m.b.j e e e e e e a b.m.m.m.m.m.v.a e e ",
"G G G G G G G G G G G G G G G G G G G G G G G G G G G G G G G G G G G G G G G G G G D # @ & Q ) _ _ ! G G 3 g b.m.m.z.a e e e e g m.m.m.m.m.m.x.p e e ",
"G G G G G G J ! ^ ^ ( ( ( ( ( ^ ^ ! K G G G G G G G G G G G G G G G G G G G G G G $ o X 0 u.g.a.g.g.g.t.~ t p g c.m.b.a e e w r g m.m.m.m.m.m.x.e e e ",
"G F F ^ -.>.I.U.U.T.R.R.T.T.T.T.U.U.I.<.>.&.( ! K D K D K K ! D G G G G G G G G D X X R a.k.g.g.g.g.j.j.9.e e e a j b.s e e e e x.m.m.m.m.m.m.g e e e ",
"F O O *.R.R.R.R.R.R.R.R.R.R.R.R.R.R.R.).)._.(.(.Y.;.' K D D K K G G G G G G G G O X % u.g.g.g.g.g.g.g.d.B a s s a e g s e e e e x.m.m.m.m.m.m.g e e e ",
"F o o *.R.R.R.R.R.R.R.R.R.R.R.R.R.R.R.).].}. X X|.`.!.1.' D K D G G G G G G G $ X X 7.k.g.g.g.g.g.g.g.0.j b.m.b.b.j e e e e e a c.m.m.m.m.m.m.a e e e ",
"D o X P R.R.R.R.R.R.R.R.R.R.R.R.R.R.R.R.R.).{. X X|.`.!.1.' D K G G G G G G F o X & a.a.g.g.g.g.g.g.d.B.m.m.m.m.x.a a e e e e a b.m.m.m.m.m.b.a e e e ",
"F o X + L.E.R.R.R.R.R.R.R.R.R.R.R.R.R.R.R.R.~.{. X X|./.~.-.D K G G G G G G $ X o 7.k.g.g.g.g.g.g.p.B.b.m.m.b.j a g c.s e e e a m.m.m.m.m.m.b.e e e e ",
"G o X o *.R.R.R.R.R.R.R.R.R.R.R.R.R.R.R.R.R.R.~.|. X|.`.!.>.K D G G G G G F o X 9 a.g.g.g.g.g.k.e.N.C.b.c.g a e a b.m.b.a e e g m.m.m.m.m.m.x.a e e e ",
"G O X X P R.R.R.R.R.R.R.R.R.R.R.R.R.R.R.R.R.!.!.]. X X].~.<.G G G G G K G # X o q.k.a.g.g.g.a.Q.C.m.v.g a e e e j m.m.b.e e e j m.m.m.m.m.m.x.e e e e ",
"G O X X , T.R.R.R.R.R.R.R.R.R.R.R.R.R.R.R.R.!.!.]. X|.].~.<.G G G G G G G o X 7 a.k.g.g.g.g.e.b.N.C a p e e e e x.m.m.c.e e e j m.m.m.m.m.m.z.e e e e ",
"G @ X X + P.E.R.R.R.R.R.R.R.R.R.R.R.R.R.R.R.R.R.].|. X].~.>.G G G G G G # o   7.h.g.g.g.h.Q.m.W.e.B e e e e e e j C.m.z.p p p z.m.m.m.m.m.m.z.e e e e ",
"G # X X + P.R.R.R.R.R.R.R.R.R.R.R.R.R.R.R.R.R.E.{. X X].~.;.G G G G G G O   % u.g.g.g.g.Q.N.W.d.0.r e e e e e e z.C.m.z.p p e x.m.m.m.m.m.m.j e e e e ",
"G # X X + L.~._._.).(.E.R.R.R.T.R.R.R.R.R.T.R.'. X X|.`.!.;.G G G G E D o X Q k.g.h.g.e.V.Q.h.g.Z e e e e e e e g m.m.s e e e x.m.m.m.m.m.m.j e e e e ",
"G D o X o 6 *.E.'.{.}.}.{.'.'.(.E.E.E.R.E.).[.}. X X X`.!./ G G G G E $ X o 7.k.g.g.s.W.d.k.a.a.h e e e e e e e s m.m.a e e p c.M.m.m.m.m.m.j e e e e ",
"G F @ X X   o 6 ,.R.).'.}. X X}.}.}.{.}.}.}. X X X X|.~.Y.! G E G G G # X o u.g.g.d.s.d.g.g.g.0.e e e e e e e e a C.v.a e e a v.m.m.m.m.m.b.s e e e e ",
"G G G $ @ O o X o P ,.R.).[.}.}. X X X X X X X X X X].~.I.G F G G G G # X O u.k.g.g.g.g.g.g.g.S w e e e e e e e a b.v.e e e e v.m.m.m.m.m.b.s e e e e ",
"G G G G G F D # O X o P *.R.~.'.[.{.|.}.}.|.|.|.|.{./.!.&.# % 4.6.8.8.Q X o 7.g.g.g.g.g.a.k.k.B e e e e e e e e a v.x.e e e a v.m.m.m.m.m.m.s e e e e ",
"G G G G G G E E G R $ O + 6 *.L.R.E.E.E.E.^.).^.~.~.!.>.# O 7.k.+X@X+X+X4.X 9 a.g.g.k.g.a.k.w.u w e e e e e e e a v.z.e e e a v.m.m.m.m.m.b.s e e e e ",
"G G G G G G G G G G G G G $ @ # q o.*.L.Y.Y.Y.I.1.-./ $ o 5.XX#X@XoXoX$Xl.8 o 0 u.g.g.g.g.k.9.e e e e e e e e e p x.j e e e a b.m.m.m.m.m.b.a e e e e ",
"G G G G G G G G G G G G G G G G F F R W K ! K J G G D o 9 k.#XOXk.k.k.OX@X_ D o % q.g.g.g.g.S w e e e e e e e e p g s e e e a b.m.m.m.m.m.b.a e e e e ",
"G G G G G G G G G G G G G G G G G G E G G G G G G G @ O q.OXl.g.g.g.g.XX@X6.G $ X % y.k.g.g.Z w e e e e e e e e p a a e e e a b.m.m.m.m.m.b.s e e e e ",
"G G G G G G G G G G G G G G G G G G G G G G G G G $ X 2.k.k.k.g.g.g.g.XX$X6.G E @ X 9 a.g.g.h w e e e e e e e e p p p e e e a b.m.m.m.m.m.m.s e e e e ",
"G G G G G G G G G G G G G G G G G G G G G G G G G O O u.k.g.g.g.g.g.k.XX$Xr.G E F O X 5.a.a.h w e e e e e e e e e e e e e e a b.m.m.m.m.m.b.a e e e e ",
"G G G G G G G G G G G G G G G G G G G G G G G G G X 9 a.g.g.g.g.g.g.a.XX$Xr.G G G D o O q.s.h w e e e e e e e e e e e e e e a b.m.m.m.m.m.b.s e e e e ",
"G G G G G G G G G G G G G G G G G G G E G G G G $ o 2.k.g.g.g.g.g.g.g.l.$Xt.G G G G D # * 7.h w e e e e e e e a e e e e e p a v.m.m.m.m.m.b.s e e e e ",
"G G G G G G G G G E G G G G G G G G G G G G G G D X & a.g.g.g.g.a.k.k.l.@Xi.G G G G G G G H u e e e e e e e e e e e e e e p a v.m.m.m.m.m.m.a e e e e ",
"G G G G G G G G G G G G G G G G G G G G G G G G F = o 7 q.g.g.g.g.g.g.l.@Xi.E E G G G G G H t p p p p e p e e e e e e e e e a v.m.m.m.m.m.m.s e e e e ",
"G G G G G G G G G G G G G G G G G G G G G G G G 5 e = o O q.g.g.g.g.g.l.@Xf.G G G G G G G G y p p r e e e e e e e e e e e e a v.m.m.m.m.m.m.s r e e e ",
"G G G G G G G G G G G G G G G G G G G G G G G G y p t + X 0 g.g.h.j.j.j.@Xg.E G G G G G G G 2 p e e e e e e e e e e e p e e p c.m.m.m.m.m.m.g e e e e ",
"G G G G G G G G < 6 G G G G G G G G G G G G G < r p t R o O u.g.l.j.j.j.+Xk.E G G G G G G G 5 p e e e e e e e e e e r p e e a c.m.m.m.m.m.m.g e e e e ",
"G G G G G G G G G 2 2 H G G G G G G G G G G G 3 e p t W $ X 4.k.j.j.j.j.+Xl.! E G G G G G G H u e p e e e e e e e e e e e e e c.m.m.m.m.m.m.j e e e e ",
"G G G G G G G G G H t r 3 H G G G G G G G G H u e a i E G O 7 g.j.j.j.j.+X+X! E G G G G G G G y p e e e e p e e e e e e e e e x.m.m.m.m.m.m.j e e e e ",
"G G G G G G G G G G 5 r e u 5 H G G G G G G 1 p p j l G G $ O y.j.j.j.j.+XXX! E G G G G G G G 5 r e e e e e e e e e e e e e e x.m.m.m.m.m.m.j e e e e ",
"G G G G G G G G G G G 2 e e e t 5 G G G E H y p a z.3 G G G @ 3.j.j.j.j..Xl.) D G G G G G G G H u e e e e e e e r e e e e e e z.m.m.m.m.m.m.z.e e e e ",
"G G G G G G G G G G G H t p e e r 2 H G G 6 e e j x.5 G G G D & f.j.j..X.Xf.! G G G G G G G G G z e e e e e e e p e e e e e e g m.m.m.m.m.m.z.e e e e ",
"G G G G G G G G G G G G 6 r e e e e y H G 2 e e c.k 6 G G G G F _ t.i.j.f.6.G G G G G G G G G G 6 r e e e e e e e e p e e e a g m.m.m.m.m.m.x.e e e e ",
"G G G G G G G G G G G G E 3 e e e e e 2 H u e s b.k F E G G G G D ! G ! E E G G G G G G G G G G G y e e e e e e e e e e e e r g m.m.m.m.m.m.c.e e e e ",
"G G G G G G G G G G G E G G 2 e e e e e y e e j m.i G E G G G G ! D K D G G G G G G G G G G G G G 1 e e e e e e e e e e e e e s m.m.m.m.m.m.v.a e e e ",
"G G F < 6 H H H E G G E G E G 2 e w e e p e a v.b.z E D G G G G D ! G G G G G G G G G G G G G G G H u e e e e e e e e e e e e s b.m.m.m.m.m.v.a e e e ",
"G G E < 2 u u f x l 2 1 5 : H H 1 u e e p e j m.x.5 E E G G G G ! D G G G G G G G G G G G G G G G G 2 e e e e e e e e e e e p a b.m.m.m.m.m.b.a e e e ",
"G G G G E 5 y s x.v.b.b.c.x.n.k M B s e e e z.b.g : G G J H H H K H H H < H 4 : < 5 5 < G G G G G G < r e e e e e e e e e e e a b.m.m.m.m.m.b.a e e e ",
"G G G G G G W 5 t g x.m.m.m.m.m.m.m.m.s e p c.z.e y 5 y u u u r y t r r r r r e u 2 5 J G G G G G G G y e e e e e e e e e e e e v.m.m.m.m.m.b.a e e e ",
"G G G G G G G F > - r a x.m.m.m.m.m.m.b.s a g a e e r e e e e p e a a g j j f 2 < G G G G G G G G G G 5 r e e e e e e e e e e r c.m.m.m.m.m.m.s e e e ",
"G G G G G G # O : L ..b d s z.m.m.m.m.m.c.a e e e e e e a a a j z.c.b.b.V N W G G G G G G G G G G G G H r w e e e e e e e e e e c.m.m.m.m.m.m.s e e e ",
"G G G G F @ + 4 X.=.D.K.A.c e s g z.z.x.c.k r e p r e a c.b.b.b.m.b.V q W G G G G G G G G G G G G G G G 2 w e e e e e e e e e e z.M.m.m.m.m.m.j e e e ",
"G G G D O + L =.K.K.K.K.K.K.Z.c v v z y a e e e p p g b.M.m.b.b.M 6 H G G G G G G G G G G G G G G G G G 6 r e e e e e e e e e e j m.m.m.m.m.m.z.w e e ",
"G G $ o , | D.K.K.K.K.K.K.K.K.K.K.$.o.t e p e e e e g x.z.k x 6 G G G G G G G G G G G G G G G G G G G G G t e e e e e e e e e e j m.m.m.m.m.m.z.e e e ",
"G F o o } =.K.K.K.K.K.H.F.H.K.K.K.=.+.e e e e e e e e e t 5 G G G G G G G G G G G G G G G G G G G G G G G 2 e e e e e e e e e e g m.m.m.m.m.m.x.e e e ",
"G F o o } J.K.K.K.F.#. . .X.J.K.K.J.b e r p e e e e e e r 1 J G G G G G G G G G G G G G G G G G G G G G G 6 r e e e e e e e e e s b.m.m.m.m.m.x.e e e ",
"G G O X L  .#.D.=. .|  . .| #.K.K.G.d e e p e e e e e e e e l H G G G G G G G G G G G G G G G G G G G G G H u e e e e e e e e e s m.m.m.m.m.m.x.e e e ",
"G G O X 4  . . . . . . . . . .F.K.S.e w w e r p e e e e e e e t 6 G G G G G G G G G G G G G G G G G G G G G y p e e e e e e e e a b.m.m.m.m.m.b.a e e ",
"G G O . 4  . . . . . . . . . .$.K.S.d w e e r u e e e e e e e e r 3 G G G G G G G G G G G E G G G G G G G G 5 r e e e e e e e e a v.m.m.m.m.m.b.a e e ",
"G G @ . :  . . . . . . . . . .@.K.G.f e e e u 6 l u e e e e e e e r y H G G G G G G G G G G G G G G G G G G < r e e e e r e e e e v.m.m.m.m.m.b.a e e ",
"G G # . ,  . . . . . . . . . . .D.K.v w e e r 4 G H H 5 1 2 y t u r r t 6 J G G G G G G G G G G G G G G G G H r e e e e p e e e a c.m.m.m.m.m.b.a e e ",
"G G $   ;  . . . . . . . . . . .$.K.m e e e e 5 G G G G G G G G H < < 1 3 < G G G G G G G G G G G G G G G G G y p e e p p e e e a x.m.m.m.m.m.b.s e e ",
"G G $ X ; |  . . .|  . . . . . .X.K.Z.r e e e 5 G G G G G G G G G G G G G G G G G G G G G G G G G G G G G G G 2 p e e p e e e p e z.m.m.m.m.m.m.s e e ",
"G G $ X + }  . . .|  . . . .|  . .F.G.d e e e 5 G G G G G G G G G G G G G G G G G G G G G G E G F G G G G G G 1 e e e r e e e e a j m.m.m.m.m.m.g e e ",
"G G F X + }  .|  . . .|  . . . . .$.H.f e e r < G G G G G G G G G G G G G G G G G G G G G D # $ R W ^ ! G G G 6 r e e e e e e e e j m.m.m.m.m.m.j e e ",
"G G F o O }  . . . . . . . . . . .X.H.n.p e r < G G G G G G G G G G G G G G G G G G G G E O 8 ` ` ` ` :.! G G < r e e e e e e e r j m.m.m.m.m.m.z.e e ",
"G G F o X L  . . . .|  . . .|  . . .F.S.r p f U G G J G G G G G G G G G G G G G K G G G $ @ ` ` ` ` ` [ { G G H r e e e e e e e r g m.m.m.m.m.m.z.e e ",
"G G G O X L  . . . . . . . . . .| | =.F.f r v o.G G G G G G G G G G G G G G G G G G G G $ & ` ` ` ` ` [ { ! G H u e e e e e e e e s b.m.m.m.m.m.x.e e ",
"G G G O X 4  . .|  . . .|  . . . .| X.K.c r m %.J G G G G G G G G G G G G G G G G G G G D & / ` ` ` ` { { G G G t p e e e e e e e s b.m.m.m.m.m.x.e e ",
"G G G @ X :  . . . . . . . .|  . . . .F.Z.w A.=.T G G G G G G G G G G G G G G G G G G G G # ) [ [ [ [ :./ G G G y p p e e e e e e a b.m.m.m.m.m.x.p e ",
"G G G @ X :  . . . .|  . . . . . . . .=.S.f G.=.o.G G G G G G G G G G G G G G G G G G G G @ Q [ / [ [ :.! G G G y w p e e e e e e s m.m.m.m.m.m.v.e e ",
"G G G $   ,  . .|  . . . . .|  .|  .| #.H.n #.@.O.G G G G G G G G G G G G G G G G G G G G @ W [ [ [ { { G G G G 2 w e e e e r e e a m.m.m.m.m.m.v.e e ",
"G G G $   ; |  . . . . . .|  . . . . . .D.+. .X.T G G G G G G G G G G G G G G G G G G G G G E / [ [ ] ! G G G G 2 e e e e e e e e a b.m.m.m.m.m.v.a e ",
"G G G F @ O 4 }  . .|  .| |  . . . . . .#.O.o.I G G G G G G G G G G G G G G G G G G G G G G G J E G G G G G G G 3 e e e e e e e e a b.m.m.m.m.m.v.a e ",
"G G G G F D @ > : L } } | |  .|  . .o.T Y K G G G G G G G G G G G G G G G G G G G G G G G G G G E G G G G G G G 3 e e e e e e e e a b.m.m.m.m.m.b.a e ",
"G G G G G G G F F $ F H H I I I I K J G G G G G G G G G G G G G G G G G G G G G G G G G G G G G G G G G G G G G 2 e e e e e e a e a b.m.m.m.m.m.v.a e "
};
