/* XPM */
static char *result[] = {
/* columns rows colors chars-per-pixel */
"75 75 179 2 ",
"   c #5F2E09",
".  c #612F09",
"X  c #643109",
"o  c #6B340B",
"O  c #6D3B0B",
"+  c #71370C",
"@  c #733A0D",
"#  c #7C3D0D",
"$  c #7B3C11",
"%  c #5E5C09",
"&  c #65470A",
"*  c #73410F",
"=  c #7E470E",
"-  c #7D4E0D",
";  c #6F550A",
":  c #645D0B",
">  c #6A5A0B",
",  c #74540D",
"<  c #7A510D",
"1  c #754210",
"2  c #7B4511",
"3  c #7C4913",
"4  c #456E07",
"5  c #4B6508",
"6  c #476F08",
"7  c #4B6D08",
"8  c #546609",
"9  c #5B630A",
"0  c #526B09",
"q  c #5F680D",
"w  c #467008",
"e  c #4A730A",
"r  c #4F780E",
"t  c #52740C",
"y  c #517A0F",
"u  c #5C7A0E",
"i  c #537D11",
"p  c #60620B",
"a  c #6E6708",
"s  c #61690D",
"d  c #6A6909",
"f  c #746608",
"g  c #7B6509",
"h  c #746C0B",
"j  c #7E680A",
"k  c #637A0E",
"l  c #6C7B0D",
"z  c #71770F",
"x  c #607D11",
"c  c #823F0E",
"v  c #86420E",
"b  c #8C450F",
"n  c #834C0B",
"m  c #8C4B0E",
"M  c #90470F",
"N  c #90480F",
"B  c #83530D",
"V  c #87590F",
"C  c #91530B",
"Z  c #955C0A",
"A  c #985D0C",
"S  c #824213",
"D  c #8B4514",
"F  c #854C14",
"G  c #8E4C14",
"H  c #904711",
"J  c #934B13",
"K  c #9A4D15",
"L  c #914718",
"P  c #944919",
"I  c #9A4C1B",
"U  c #885C10",
"Y  c #8D5919",
"T  c #955115",
"R  c #9B5316",
"E  c #9C5917",
"W  c #945218",
"Q  c #9B561A",
"!  c #925E1A",
"~  c #9F591B",
"^  c #A04F1C",
"/  c #A05517",
"(  c #A4521C",
")  c #AB551E",
"_  c #A25A1B",
"`  c #AA5E1B",
"'  c #836509",
"]  c #8D6209",
"[  c #876C0D",
"{  c #8B690C",
"}  c #956008",
"|  c #9A640C",
" . c #9F680E",
".. c #8E6411",
"X. c #906612",
"o. c #9E6313",
"O. c #986A16",
"+. c #96621D",
"@. c #867614",
"#. c #9B7214",
"$. c #A0690F",
"%. c #A46716",
"&. c #A36B11",
"*. c #AC611D",
"=. c #AB6B1E",
"-. c #B0621D",
";. c #A77014",
":. c #AC7316",
">. c #A37C15",
",. c #AB7A16",
"<. c #AF7618",
"1. c #B1751B",
"2. c #B57B1C",
"3. c #B87D1E",
"4. c #AC5520",
"5. c #B05721",
"6. c #B35B25",
"7. c #A26D20",
"8. c #BC642D",
"9. c #A67121",
"0. c #AB7623",
"q. c #AF7924",
"w. c #B47624",
"e. c #B37A25",
"r. c #B97D25",
"t. c #BC7D2A",
"y. c #C1652B",
"u. c #C56A2F",
"i. c #C46B33",
"p. c #C96F34",
"a. c #CD7236",
"s. c #CD7339",
"d. c #D1753A",
"f. c #D4793E",
"g. c #D77D42",
"h. c #D97F43",
"j. c #568113",
"k. c #5A8515",
"l. c #5D8817",
"z. c #5E8A18",
"x. c #6E8414",
"c. c #618E1A",
"v. c #7E8210",
"b. c #65921D",
"n. c #898512",
"m. c #938913",
"M. c #AB8C17",
"N. c #AD8818",
"B. c #B58B19",
"V. c #A19118",
"C. c #B69519",
"Z. c #B99619",
"A. c #BB991A",
"S. c #BD8127",
"D. c #B68029",
"F. c #BB842B",
"G. c #BA9E20",
"H. c #B7A226",
"J. c #C29D1D",
"K. c #C3852D",
"L. c #C28A2E",
"P. c #CA8E32",
"I. c #C69031",
"U. c #CD9334",
"Y. c #CF9836",
"T. c #D19736",
"R. c #D39A35",
"E. c #D69E39",
"W. c #D89F39",
"Q. c #C6A425",
"!. c #C8A827",
"~. c #CDAD2B",
"^. c #CFB12F",
"/. c #D7A03A",
"(. c #DAA23B",
"). c #CCB433",
"_. c #D8BA37",
"`. c #D9BC38",
"'. c #DB8145",
/* pixels */
"6 y b.b.b.b.b.b.k.6 6 6 6 6 6 6 6 6 : b b b b b b b b b b b b b b b b b b b b b b b b b b b b b b b b b b b b b b b b b b b b b b b b D b b b b b b b ",
"6 i b.b.b.b.b.b.i 6 6 6 6 6 6 6 6 6 8 D b b b b b b b b b b b b b b b b b b b b b b b b b b b b b b b M b J T E E E E E T T T b b b b b b b b b b b b ",
"6 j.b.b.b.b.b.b.y 6 6 6 6 6 6 6 6 6 7 - b b b b b b b b b b b b b b b b b b b b b b b b b b b b N / =.=.w.w.r.r.r.S.S.K.S.r.1.=.%.J b b b b b b b b b ",
"6 k.b.b.b.b.b.c.r 4 6 6 6 6 6 6 6 6 7 < b b b b b b b b b b b b b b b b b b b b b b b b b b b E w.L.T.R.R.R.R.R.Y.R.L.r.0.e.e.q.0.0.W @ c b b b b b b ",
"6 k.b.b.b.b.b.c.e 6 6 6 6 6 6 6 6 6 6 : b b b n - b b b b b b b b b b b b b b b b b b b b b E K.R.(.(.(.(.(./.(./.Y.e.0.0.0.0.0.0.0.9.3 . # b b b b b ",
"w l.b.b.b.b.b.c.w 6 6 w 6 6 6 6 6 6 6 9 b b < : - b b b b b b b N b b b b b b b b b b b b N S.(.(.(./././.(././.E.F.q.0.0.0.0.0.0.0.0.F . o b b b b b ",
"w l.b.b.b.b.b.l.w w 7 w 6 6 6 6 6 6 6 0 - : 0 < b b b b b b b b b b b b b b b b b b b b b %.R.(.(.R.I.L.F.I.I.L.F.0.0.0.0.0.0.0.0.0.+.o . # b b b b b ",
"e c.b.b.b.b.b.l.7 e w y e 6 6 6 6 6 6 7 7 7 , b b b b b b b b b b b b b b b b b b M b b b w.(.(./.F.0.0.0.0.0.0.0.0.0.0.0.0.0.0.0.7.*   o v b b b b b ",
"e l.b.b.b.b.b.k.7 w 6 r k.j.e w 6 6 6 6 6 > b b b b b b b b b b b b b b b b b b b b b b N L.(./.U.0.0.0.0.0.0.0.0.0.0.0.0.0.0.0.7.2 . X # b b b b b b ",
"e c.b.b.b.b.b.j.6 6 6 6 e c.c.j.e 6 6 w 9 D b D b b b b b b b b b b b b b b b b b b b b N I.(.(.F.0.0.0.0.0.0.0.0.0.0.0.0.0.0.0.F . X + b b b b b b b ",
"e c.b.b.b.b.b.j.6 6 6 6 w e c.b.c.r 6 6 8 < : 9 , n b b M b b b b b b b b b b b b b b b T Y.(./.F.0.0.0.0.0.0.0.0.0.0.0.0.0.q.+.. . o c b b b b b b b ",
"r c.b.b.b.b.b.i 6 6 6 6 7 6 r l.c.i 6 w 6 7 e w 7 8 > - b b b b b b b b b b b b b b b b ! Y.(.(.F.0.0.0.0.0.0.0.0.0.0.0.0.0.0.1 . . @ b b b b b b b b ",
"w c.b.b.b.b.b.i 6 6 6 6 w w w w e e w w r l.b.z.j.r 6 7 9 , n D b b b b b b b b b b b b R P.W.'.F.0.0.0.0.0.0.0.0.0.0.0.0.0.X.X . . c b b b b b M M b ",
"e c.b.b.b.b.b.i 6 6 6 6 w 7 7 w 6 6 7 w j.b.b.b.b.c.k.i e w 8 > n b M D b b b b b b b b R P.W.W.F.0.0.0.0.0.0.0.0.0.0.0.0.=.*   . + b b b b b b c M b ",
"e c.b.b.b.b.b.y 6 6 6 6 6 6 w w w w 6 w w k.b.z.z.b.c.c.z.j.r w 7 9 < n b b b b b b b b J K.E.W.F.0.0.0.0.0.0.0.0.0.0.0.0.Y . . . c b b b M b b b b b ",
"r c.b.b.b.b.b.i 6 6 w w 7 6 6 6 7 w w w w 7 q s s q s q q q q 9 9 9 9 > n D b b b b b b J F.E.W.F.0.0.0.0.0.0.0.0.0.0.0.9.* . . o c b b b b b b b b b ",
"e c.b.b.b.b.b.i 6 6 6 6 6 6 6 e k.l.l.i 7 7 - D b b b b b v b b b b b b b b b b b b b b D t.W.W.F.0.0.0.0.0.0.0.0.0.0.q.Y       @ M b b b b b b b b b ",
"w c.b.b.b.b.c.i 6 6 6 6 6 6 6 j.b.b.c.r w 6 < b b b b b b b b b b b b b b b b b b b b b b w.W.(.D.0.0.0.0.0.0.0.0.0.q.9.O     X c b b b b b b b b b b ",
"e c.c.b.b.b.b.i 6 6 6 6 6 w r c.b.b.c.r 6 6 > b b b b b b b b b b b b b b b b b b b b b b t.(.(.D.0.0.0.0.0.0.0.0.0.0.3 X .   O b b b b b b b b b b b ",
"e c.b.b.b.b.b.i 6 6 6 6 6 7 l.b.b.b.l.w 6 6 9 b b b b b b b b b b b b b b b b b b b b b H K.(.E.q.0.0.0.0.0.0.0.0.! 1 .   X X $ b b b b b b b b M b b ",
"7 c.b.b.b.b.b.i 6 6 6 6 w i b.b.b.z.r 6 6 6 7 n b b b b b b b b b b b b b b b b b b b M J P.(.R.D.0.0.0.0.0.9.! 1 X . .     o S b b b b b b b b c M b ",
"7 c.b.b.b.b.b.i 6 6 6 6 r c.b.b.l.r 6 6 6 6 6 ; M b b b b b b b b b b b b b b b b b b b J T.(.R.0.0.0.0.9.! 1 X . . . . X X # D b b b b b b b b b M b ",
"w l.b.b.b.b.b.k.6 6 7 w l.b.b.l.e w 6 6 6 6 7 > b b b S c # S M b b b b b b b b b b b b J K.(.U.q.0.9.Y *     . . . . o # v b b b b b b b b b b b b b ",
"w l.b.b.b.b.b.k.6 6 w i b.b.k.e 6 e 6 6 6 6 6 , D C o. .U O . @ v b b b b b b b b b b b D 7.T.U.9.Y *           o + c b b b b b b b M b b b b b b b b ",
"6 k.b.b.b.b.b.k.6 6 r z.b.k.w 6 6 6 6 6 6 6 6 > o.B.G.Q.Q.N.B . O v b b b b b b b b b b b M ~ ! @ . . . . . + # v b b b b b b b b b b b b b b b b b b ",
"6 k.b.b.b.b.b.l.6 6 l.c.i w 7 6 6 6 6 6 6 6 6 z Q.^._.`._.~.C...X o b b b b b b b b b b b b b + . . . . @ c b b b b b b b b b b b b b b b b b b b b b ",
"6 k.b.b.b.b.b.l.6 i c.i 6 6 6 w 6 6 6 6 6 6 6 x._.`.^.!.Q.!.J.Z.< . c b b b b b b b b b b b b @ X . . . c b b b b b b b b b b b b b b b b b b b b b b ",
"6 j.b.b.b.b.b.l.e k.i 6 6 6 6 6 6 6 6 6 6 6 6 x ).Q.A.Z.C.Z.Z.A.X.X c b b b b b b b b b b c o o $ $ o   o b b b b b b b b b b b b b b b b b b b b b b ",
"w i b.b.b.b.b.c.i r 6 6 6 6 6 6 6 6 6 6 6 6 6 t H.A.Z.Z.Z.Z.Z.A.#.. # b b b b b b b b b $ + D ^ 4.4.( + . c b b b b b b b b b b b b b b b b b b b b b ",
"6 i b.b.b.b.b.b.r 7 6 6 6 6 6 6 6 6 6 6 6 6 6 t V.Z.Z.Z.Z.Z.Z.Z.#.X # M b b b b b b b b $ I 4.4.4.4.4.P . # b b b b b b b b b b b M b b b b b b b b b ",
"6 i c.b.b.b.b.c.e 6 6 6 6 6 6 6 6 6 6 6 6 6 6 w m.Z.Z.Z.Z.Z.Z.Z.#.X # b b b b b b b D K 4.4.4.4.4.4.4.4.o + b b b b b b b b b b b b b b b b b b b b b ",
"6 i b.b.b.b.b.c.r 6 6 6 6 6 6 6 6 6 6 6 6 6 6 6 n.Z.Z.Z.Z.Z.Z.Z.#.X # b b b b b b b H 4.4.4.4.4.4.4.4.4.# o b b b b b b b b b b b b b b b b b b b b b ",
"4 r b.b.b.b.b.b.r 6 w 7 6 6 6 6 6 6 6 w 6 6 6 6 v.Z.Z.Z.Z.Z.Z.A.#.X # b b b b b b b ^ 5.) 5.4.4.) 4.4.4.c o v b b b b b b b b b b b b b b b b b b b b ",
"7 y b.b.b.b.b.b.y 6 w w 7 6 6 6 6 6 6 6 6 6 6 6 l Z.Z.Z.Z.Z.Z.Z.#.X c b b b b b b b ) 6.4.) 4.4.4.4.4.4.L . c D b b b b b b b b b b b b b b b b b b b ",
"6 e c.b.b.b.b.b.i 7 4 w 4 w 6 6 7 w 4 6 6 7 6 4 l Z.Z.Z.Z.Z.Z.A.O.X c b b b b b b M 6.i.4.4.4.4.4.4.4.4.I o b b b b b b b b b b b b b b b b b b b b b ",
"6 e c.b.b.b.b.b.j.w w 7 w w 6 w 6 w w 6 6 6 6 4 k Z.Z.Z.Z.Z.Z.A.] X v D b b b b b J y.i.4.4.4.4.4.4.4.5.I o b b b b b b b b b b b b b b b b b b b b b ",
"6 e c.b.b.b.b.b.k.6 6 6 6 6 6 6 6 6 6 6 6 6 6 4 u C.A.Z.Z.Z.Z.A.B + b b b b b b b K u.p.4.4.4.4.4.4.4.4.I + b b b b b b b b b b b b b b b b b b b b b ",
"6 w c.b.b.b.b.b.k.6 6 6 6 6 6 6 6 6 6 6 6 6 6 6 u A.A.Z.Z.Z.A.#.@ b b b M b b b b ( p.p.4.4.4.4.4.4.4.4.P @ b b b b b b b b b b b b b b b b b b b M b ",
"7 w l.b.b.b.b.b.l.w 6 6 6 6 6 6 6 w 6 6 6 6 w 4 u A.A.Z.Z.Z.>.= b b b b b b b b b ) s.i.4.4.4.4.4.4.4.4.D # D b b b b b b b M b b b b b b b b b b b b ",
"w w l.b.b.b.b.b.c.w w 6 6 6 6 6 6 6 6 6 6 6 w 4 t M.J.A.A.,.b b b b b b b b b b D ) d.8.( 4.4.4.4.4.4.4.c $ b b b b b b b b b b b M b b b b b b b b b ",
"6 6 k.b.b.b.b.b.c.w w w 7 w 6 6 6 6 6 6 w 6 6 6 7 U ;.<.%.M b b b b b b b b b b b ) d.y.4.4.4.4.4.4.4.) $ c b b b b b b b b b b b b b b b b b b b b b ",
"7 w k.b.b.b.b.b.b.w 7 w 6 w w 6 6 6 6 6 6 6 6 6 7 - c H b b b b b b b b b b b b b ` f.i.4.4.4.4.4.4.4.) + c b b b b b b b b b b b b b b b b b b b b b ",
"w w j.b.b.b.b.b.c.r w w 6 6 w 6 6 6 6 6 6 6 6 6 7 - b b b b b b b b b b b b b b D ) f.p.4.4.4.4.4.4.4.^ + c M b b b b b b b b b b b b b b b b b b b b ",
"6 6 j.b.b.b.b.b.b.r 6 7 6 6 7 w 6 6 6 6 6 6 6 6 7 - b b b b b b b b b b b b b b b ( f.a.4.4.4.4.4.4.4.^ o c b b b b b b b b b b b b b b b b b b b b b ",
"6 6 i b.b.b.b.b.b.y w w 7 w w w 6 6 w 6 6 w 6 6 7 - b b b D b C C C C b b b b b b R f.f.5.4.4.4.4.4.4.^ o # H b b b b b b b b b M b b b b b b b b b b ",
"6 6 i b.b.b.b.b.b.i 7 w w w e y 6 6 6 6 6 6 6 6 7 - b b b C A  .$.| | Z C m b b b K a.g.6.4.4.4.4.4.5.^ o @ D b b b b b b M b b b b b b b b b b b b b ",
"6 6 i c.b.b.b.b.b.i w w w 7 e k.w 7 6 6 6 6 6 6 7 n b b Z $.<.2.2.2.:.:.&.Z Z v b H u.'.8.4.4.4.4.4.4.) + + b b b b b b b b b b b b b b b b b b b b b ",
"6 6 r b.b.b.b.b.b.j.6 7 w w e c.e w 6 6 6 6 6 6 7 - b Z :.3.2.;.$.| | $.$.| } - X c 6.'.s.6.4.4.4.4.4.4.# o b b b b b b b b b b b b b b b b b b b b b ",
"6 6 r c.b.b.b.b.b.k.6 6 6 6 r c.r 4 w w w 6 6 6 0 B A :.3.:.| } } } } } } } } B   o ) f.g.i.6.5.4.4.4.4.c o c b b b b b M b b b b b b b b b b b b b b ",
"6 6 r c.b.b.b.b.b.l.6 6 6 6 r b.u 6 w w 6 6 6 6 0 ] :.2.<.| } } } } } } } } } n . o J a.h.h.f.d.i.8.6.4.L + b b b b b b b b b b b b b b b b b b b b b ",
"6 6 e c.b.b.b.b.b.l.w w 6 6 i b.j.w 6 6 6 6 6 6 d &.3.2. .} } } } } } } } } } n . o b 6.h.h.h.h.h.h.g.y.( b b b b b b b b b b b b b b b b b b b b b b ",
"6 7 e c.b.b.b.b.b.l.w 7 7 6 i b.c.w 6 6 6 6 6 w j 2.3.1.| } } } } } } } } } } n   o b I u.d.a.p.p.p.s.y.( M b b b b b b b b b b b b b b b b b b b b b ",
"6 6 e z.b.b.b.b.b.l.w 6 6 6 j.b.b.t w w 6 6 w 7 { 2.2.:.| } } } } } } } } } } n . o c b J K K J P P J K M M b b b b b b b b b b b b b b b b b b b b b ",
"6 6 e c.b.b.b.b.b.l.e 6 6 6 j.b.b.y w w 6 6 6 7 { 2.3.:.} } } } } } } } } } } n . o b b b b b b b b b b b b b b b b b b b b b b b M R / _ _ J D b M b ",
"6 6 w z.b.b.b.b.b.c.w 6 6 6 j.b.b.c.e w 6 6 6 7 ' 2.2.:.} } } } } } } } } } } n . X b b b b b b b b b b b b b b b b b b b b b b b R -._ _ _ ~ + c b b ",
"6 6 e l.b.b.b.b.b.c.e 6 6 6 i b.b.b.y 7 4 w 6 6 g :.3.2.| } } } } } } } } } } n . o b b b b b b b b b b b b b b b b b b b b b b b / ` ~ ~ _ ~ @ c b b ",
"6 6 e z.b.b.b.b.b.c.e 6 6 6 r c.b.b.c.e w w 6 6 V $.3.2.| } } } } } } } } } } - . o c b b b b b b b b b b b b b b b b b b b b b N ` ` ~ ~ ~ ~ 2 # b b ",
"w 6 w l.b.b.b.b.b.c.e 6 6 6 6 l.b.b.b.k.e 6 w 7 B | 2.3.$.} } } } } } } } } } n . o b M b b b b b b b b b b b b b b M H b b b b J -._ _ ~ ~ ~ G + b b ",
"6 6 w l.b.b.b.b.b.c.e 6 6 6 6 i b.b.b.b.k.e 4 8 n Z ,.3.$.} } } } } } } } } } n . o c b b b b b b b b b b b b b b b b c b b b b R *.~ ~ ~ ~ _ W o b b ",
"6 6 e z.b.b.b.b.b.c.e 6 6 6 6 6 k.b.b.b.b.k.6 : v C [ @.h f f ' ] } } } } } } n . o b b b b b b b b b b b b b b b b b M b b b b K *.~ _ ~ ~ ~ G o b b ",
"6 6 w l.b.b.b.b.b.c.e 6 6 6 6 6 e c.b.b.b.c.e 9 p 0 t r w w w 6 0 d ' } } } } n . o c b b b b b b b b b b b b b b b b b b b b b b _ _ _ ~ ~ W + # b b ",
"6 6 e l.b.b.b.b.b.z.e 6 6 6 6 6 w e k.c.b.c.w w j.c.b.c.c.l.j.j.t e t d ] } } n . o b M b M b b b b b b b b b M b b b b b b b b b N R J F S @ # v b b ",
"6 6 6 l.b.b.b.b.b.z.e 7 6 6 6 6 6 6 w t j.j.4 j.b.b.b.b.b.b.b.b.c.l.j.r t g } B . o c b b b b b b b b b b b b b b b b b b b b b D N J J J J b b b b b ",
"6 6 6 l.b.b.b.b.b.z.w 6 6 6 6 6 6 6 w 6 w w r z.b.b.b.b.c.c.j.j.r e e 6 6 6 a - . o D b b b b b b b b b b b b b b b b b b b b b J ` ` ` _ _ D # b b b ",
"6 6 7 l.b.b.b.b.b.l.e 6 6 6 6 6 e i r e 6 6 i i i l.z.j.r w w w 4 5 5 5 : > ; X   o b b b b b b b b b b b b b b b M b b b b b b / -._ ~ ~ _ G o b b b ",
"6 6 e z.b.b.b.b.b.l.6 6 6 6 6 e z.b.c.k.w 6 6 6 w w e 4 w 7 8 % & & O O + + + o o v b b b b b b b b b b b b b b b b b b b b b M ` *.~ ~ ~ ~ W o c b b ",
"6 6 e z.b.b.b.b.b.k.6 6 6 6 i c.b.b.c.i 6 6 6 6 7 7 7 9 ; - D b b b b b b v b b b b b b b b b b b b b b b b b b b b b b b b b N -._ _ ~ ~ ~ ~ @ c b b ",
"6 6 r c.b.b.b.b.b.k.6 6 6 i c.b.b.c.i 6 6 w 6 6 w w 9 D b b b b b b b b b b b b b b b b b b b b b b b b b b b b b b b b b b b R -./ _ ~ ~ ~ ~ S + b b ",
"6 6 r c.b.b.b.b.b.i 6 e k.c.z.l.i e 6 6 6 6 6 6 6 6 7 < b b b b b b b b b b b b b b b b b b b b b b b b b b b b b b b b b b M / *.~ ~ ~ ~ ~ _ F o b b ",
"6 6 r b.b.b.b.b.b.i r k.l.i e 6 6 6 6 6 0 7 6 7 6 6 6 7 < H b b b b b b b b b b b b b b b b b b b b b b b b b b b b b b b b b / *.~ ~ ~ ~ ~ _ 2 o b b ",
"6 6 i b.b.b.b.b.b.i e e 6 4 6 6 6 6 6 6 , ; 4 6 6 6 6 6 9 n b b b b b b b b b b b b b b b b b b b b b b b b b b b b b b b b b N ` _ ~ ~ ~ ~ W O # b b ",
"6 6 j.b.b.b.b.b.b.r 6 6 6 6 6 6 6 6 6 8 F D > 7 6 6 6 6 7 > b b b b b b b b b b b b b b b b b b b b M b b b b b b b b b b b b b K _ Q Q W D + @ b b b ",
"6 6 l.b.b.b.b.b.c.e 6 6 6 6 6 6 6 6 7 : b b D n > % 8 7 7 7 < D b b b b b b b b b b b b b b b b b b b b b b b b b b b b b M b b b D b = # # c b b b b ",
"6 7 l.b.b.b.b.b.c.e 6 6 6 6 6 6 6 7 7 n b b b b b D n - , : : b b b b b b b b b b b b b b b b b b b b b b b b b b b b b b b b b b b b b b b b b b b b ",
"w e c.b.b.b.b.b.l.e 6 6 6 6 6 6 6 w p b b b b b b b b b b b n b b b b b b b b b b b b b b b D b b b b b b b b b b b b b b b b b b b b b b b b b b b b "
};
