/* XPM */
static char *result[] = {
/* columns rows colors chars-per-pixel */
"75 75 194 2 ",
"   c #5F2E08",
".  c #5D3609",
"X  c #612F09",
"o  c #65310A",
"O  c #6B350B",
"+  c #643809",
"@  c #6E3B0E",
"#  c #71370C",
"$  c #74390C",
"%  c #7C3D0D",
"&  c #673410",
"*  c #6C3912",
"=  c #6C3816",
"-  c #723C11",
";  c #7A3C11",
":  c #723E1E",
">  c #73400F",
",  c #7E4E0E",
"<  c #6E570C",
"1  c #645D0B",
"2  c #6D580C",
"3  c #74530D",
"4  c #7A520E",
"5  c #70580D",
"6  c #764213",
"7  c #7B4314",
"8  c #7E4B13",
"9  c #7B4519",
"0  c #456F07",
"q  c #4B6508",
"w  c #476F08",
"e  c #4A6D08",
"r  c #55650A",
"t  c #5C630A",
"y  c #526909",
"u  c #477008",
"i  c #497109",
"p  c #4F780D",
"a  c #53720C",
"s  c #5A720F",
"d  c #517A0F",
"f  c #5D7710",
"g  c #537D11",
"h  c #5A7B12",
"j  c #60600B",
"k  c #61720F",
"l  c #6E6F12",
"z  c #746B13",
"x  c #697614",
"c  c #777417",
"v  c #7E482A",
"b  c #813F0D",
"n  c #85410E",
"m  c #8C450F",
"M  c #834A0E",
"N  c #88480F",
"B  c #834513",
"V  c #8D4612",
"C  c #8D4A14",
"Z  c #844B19",
"A  c #884C1A",
"S  c #904713",
"D  c #934B13",
"F  c #9B4E16",
"G  c #924B1D",
"H  c #9E4E1C",
"J  c #855216",
"K  c #8E5919",
"L  c #945116",
"P  c #9B5317",
"I  c #94521A",
"U  c #9B561A",
"Y  c #915C1A",
"T  c #9F591B",
"R  c #A14F1D",
"E  c #A25617",
"W  c #A4531C",
"Q  c #AB541F",
"!  c #A25A1B",
"~  c #AA5D1C",
"^  c #96621B",
"/  c #9E6A1E",
"(  c #817219",
")  c #88731B",
"_  c #97741D",
"`  c #AE611D",
"'  c #A7691E",
"]  c #B1621D",
"[  c #A1771E",
"{  c #924E22",
"}  c #885122",
"|  c #955620",
" . c #9D5C25",
".. c #95532C",
"X. c #945D2B",
"o. c #834D34",
"O. c #865037",
"+. c #965632",
"@. c #985735",
"#. c #9A5B3C",
"$. c #AC5520",
"%. c #B35C24",
"&. c #B85E24",
"*. c #B65E28",
"=. c #9F7520",
"-. c #9C6430",
";. c #AC6422",
":. c #A86626",
">. c #A46F21",
",. c #A3622A",
"<. c #BB632B",
"1. c #B56828",
"2. c #B36C2C",
"3. c #A47222",
"4. c #AB7623",
"5. c #AF7A24",
"6. c #B47424",
"7. c #B17A25",
"8. c #A76D36",
"9. c #AC723B",
"0. c #B77030",
"q. c #BD7432",
"w. c #B2773E",
"e. c #B3783F",
"r. c #C1732F",
"t. c #C56C32",
"y. c #C96D32",
"u. c #C47632",
"i. c #C77C37",
"p. c #CC7D36",
"a. c #CD743A",
"s. c #CC7D3A",
"d. c #D1793A",
"f. c #D4793E",
"g. c #8E5741",
"h. c #8F5843",
"j. c #925A44",
"k. c #9C5E41",
"l. c #965E4B",
"z. c #9D6244",
"x. c #9C624D",
"c. c #9B6752",
"v. c #9C6853",
"b. c #A0654E",
"n. c #B57A42",
"m. c #B67B44",
"M. c #A06650",
"N. c #A26B54",
"B. c #A26F58",
"V. c #A5745B",
"C. c #A8785F",
"Z. c #A77960",
"A. c #AA7C63",
"S. c #D67C41",
"D. c #D97F43",
"F. c #568113",
"G. c #5B8616",
"H. c #5D8917",
"J. c #5E8B19",
"K. c #618D1A",
"L. c #79891F",
"P. c #65921D",
"I. c #84821D",
"U. c #998B24",
"Y. c #B68328",
"T. c #BD852B",
"R. c #B3932E",
"E. c #C2852C",
"W. c #C58E2F",
"Q. c #C58A30",
"!. c #CE8139",
"~. c #D4843B",
"^. c #D8873D",
"/. c #D7883E",
"(. c #D9893F",
"). c #C69233",
"_. c #CB9434",
"`. c #CC9A35",
"'. c #D19636",
"]. c #D19937",
"[. c #D59E39",
"{. c #D99F3A",
"}. c #D6A03A",
"|. c #DAA23B",
" X c #BC834C",
".X c #DA8044",
"XX c #DB8C43",
"oX c #DF924A",
"OX c #C38B55",
"+X c #E18E42",
"@X c #E49245",
"#X c #E2964D",
"$X c #E29750",
"%X c #E39952",
/* pixels */
"w w w w e w w w w w e 0 w e w e 0 i 0 0 w w 0 w w 0 i 0 0 w w 0 0 w 0 0 w 0 w w u e 0 0 e 0 0 0 i 0 w w 0 0 i 0 w w 0 0 0 0 w w w w w w w w e 0 e e w ",
"p p p p d d p p p p d d p p p p p d d p p a p p a p p d d d a p p d p a d p p a d d d p p p p a p p p a p p p p p a p p a p p d p d p p d p d d p p p ",
"K.P.K.P.P.P.P.P.K.P.P.K.K.P.K.P.P.P.P.P.P.P.K.P.P.P.P.K.P.P.P.P.P.K.P.P.P.P.P.P.P.P.P.P.P.P.K.P.P.P.P.P.P.P.P.P.P.P.P.P.P.K.P.P.P.P.P.P.K.P.K.P.P.P.K.",
"P.P.P.P.P.P.P.P.P.P.P.P.P.P.P.P.P.P.P.P.P.P.P.P.P.P.P.P.P.P.P.P.P.P.P.P.P.P.P.P.P.P.P.P.P.P.P.P.P.P.P.P.P.P.P.P.P.P.P.P.P.P.P.P.P.P.P.P.P.P.P.P.P.P.P.",
"P.P.P.P.P.P.P.P.P.P.P.P.P.P.P.P.P.P.P.P.P.P.P.P.P.P.P.P.P.P.P.P.P.P.P.P.P.P.P.P.P.P.P.P.P.P.P.P.P.P.P.P.P.P.P.P.P.P.P.P.P.P.P.P.P.P.P.P.P.P.P.P.P.P.P.",
"P.P.P.P.P.P.P.P.P.P.P.P.P.P.P.P.P.P.P.P.P.P.P.P.P.P.P.P.P.P.P.P.P.P.P.P.P.P.P.P.P.P.P.P.P.P.P.P.P.P.P.P.P.P.P.P.P.P.P.P.P.P.P.P.P.P.P.P.P.P.P.P.P.P.P.",
"P.P.P.P.P.P.P.P.P.P.P.P.P.P.P.P.P.P.P.P.P.P.P.P.P.P.P.P.P.P.P.P.P.P.P.P.P.P.P.P.P.P.P.P.P.P.P.P.P.P.P.P.P.P.P.P.P.P.P.P.P.P.P.P.P.P.P.P.P.P.P.P.P.P.P.",
"P.P.P.P.P.P.P.P.P.P.P.P.P.P.P.P.P.P.P.P.P.P.P.P.P.P.P.P.P.P.P.P.P.P.P.P.P.P.P.P.P.P.P.P.P.P.P.P.P.P.P.P.P.P.P.P.P.P.P.P.P.P.P.P.P.P.P.P.P.P.P.P.P.P.P.",
"G.G.G.G.G.G.G.G.J.H.G.G.G.G.G.G.G.G.G.G.G.G.G.G.G.G.G.G.G.G.G.G.H.H.G.G.G.G.G.G.G.G.G.G.G.G.G.G.G.G.G.G.G.G.G.G.H.H.G.G.G.G.G.H.G.G.H.G.G.G.G.H.G.G.G.",
"e 0 i w i w i w u i i w i w i i w i i i u i e i i u u i u u i i i 0 i i w i i i i w i i e i u u i i e i i i i w 0 i i w i w 0 i e w u u i u u i i u e ",
"i 0 w w w w w w u i w w w w 0 w w w w w e e 0 0 e 0 0 w u e w w w 0 0 0 w w i w w w 0 w w w w w 0 w w p g G.G.F.p i 0 i w w w w w w w w u i p i u u e ",
"d g g p i w w w u i g F.G.G.F.F.F.d d d d i 0 i u u i 0 e u w w w i 0 i w w 0 w w w w w w 0 i w w w w w w p d K.P.H.d i i w w w w w w p F.H.g i w w e ",
"i p G.K.K.g i w p K.P.P.P.P.P.P.P.P.K.d p w w w u i 0 0 w w w w w w w w w w w w w w w w w i w w w e 0 u w w w i G.P.K.G.i 0 0 w w w g H.P.F.u w w w e ",
"i e w g K.P.g w H.P.P.P.P.P.P.K.F.d i 0 0 i w w e 0 w w w w w w w w w w i w w w i w w w 0 e w w w w u u w w w i i F.P.P.K.p w w i F.P.P.F.i u w w u w ",
"w w w i H.P.g p P.P.P.P.K.G.d i w w w w w w w w w w w i 0 w w 0 w w w w 0 w w w 0 w w w 0 w w w u w w w w w w w w i K.P.P.F.w w G.P.P.F.i w w u w w e ",
"w w w w p F.g g H.H.H.g i w w i w w w w w w w w w w w 0 i w w 0 i 0 w w w w w w w w w w i 0 w w w w w w w w w w w w d P.P.G.w d K.K.g i w w w w w w w ",
"w w w w w u i p 0 i i w w w w w i 0 0 w w 0 w w 0 0 u e 0 i 0 i w w w w w w w w w w w w w w w w w w w i w w w w w w w p F.g w g g i i w w w w w w w w ",
"w w w e w w p K.p i 0 w w w 0 e w w 0 e w i w w e e u u e 0 e e w w w w w w w w w w w w w w w i w w w 0 w w w w i i g g F.g i w w w w w u w w w w w w ",
"2 < 2 < 5 1 h P.J.i 0 e w w w 1 < 2 2 5 < 5 5 2 < < < < 2 2 2 < 5 < 5 5 < 2 5 5 < < 5 5 2 2 2 2 2 < 2 1 t a g G.K.K.P.K.F.p w w w u w w e 1 < 2 < < 2 ",
"m m m m m 8 h P.P.F.0 u w y w j m m m m m m m m m m m m m m m m m m m m m m m m m m m m m m m m V M 1 s K.P.P.P.P.P.K.g i u w w w e u w w t N V m m V ",
"m m m m m M a K.P.P.a u e z l 0 2 D m m m m N m m m m m m m m m m m m m m m m m m m m m m m m m 4 s G.K.H.G.F.G.H.F.i p g w w w e q q i i 0 t N m m m ",
"m m m m m m 1 d P.P.G.u 0 x Y.x a [ 6.6.` P D m m m m m m m m m m m m m m m m m m m m m m m m 4 h F.g i u e w e w w g J.g w 0 w e r 4 t i 0 i 2 m m m ",
"m m m m m m K a F.P.P.d 0 f `.`.I.I.W.E.E.6.6.' P m m m m m m m m m m m m m m m m m m m m m 4 a p i w w w e e e g G.P.L.c l l ( _ =.<.P 2 w 0 r M m m ",
"m m m m N D E.U.i G.P.K.i i R.|.|.R.Y.5.5.5.5.5.6.^ m m m m m m m m m m m m m m m m m m m V t u 0 0 w e t 5 e p K.P.L.3.s.s.S.S.~..XD.y.F 4 r w < m m ",
"m m m m m ' |.}.I.p G.P.F.0 I.].].Y.4.4.4.4.4.4.4.4.K $ n m m m m m m m m m m m m m m m m 2 e u w e 1 M m < i F.P.P.c :.<.S.S.S.S.D..XS.%.V M j t m m ",
"m m m m C E.|.|.).c p G.K.p k Y.Y.4.4.4.4.4.4.4.4.4.3.@ O n m m m m m m m m m m m m m m M e w y 2 M m m N r p P.P.x * R $.%.*.<.<.t.S.D.t.S n N 5 N m ",
"m m m m P ].|.{.Y.4.c a F.G.a _ 4.4.4.4.4.4.4.4.4.4.^ o X % m m m m m m m m m m m m m N t r 2 M m m m m 4 e F.P.K.r & { $.$.$.$.$.$.<.S.f.W m m n m m ",
"m m m m ;.|.|.`.7.4.4._ k d p ( 4.4.4.4.4.4.4.4.4.Y + O B P S m m m m m m m m m m m m 3 5 M m m m m V n 1 i K.P.g q . b $.$.$.$.$.$.$.a.D.*.m m m m m ",
"m m m m 7.|.|.).4.4.4.4.[ c a x 4.4.4.4.4.4.4.3.J o 9 u.^.^.p.1.D m S D S m m m V n m M m m m m m m m M t g P.H.u r + ; $.$.$.$.$.$.Q <.D.y.D m m m m ",
"m m m D E.|.}.W.4.4.4.4.4.4.) l [ 4.4.4.4.5.>., X O u.@X@XXX+XXXp.u.~.~.!.p.r.1.F V m m m m m m m m m M e G.K.p w 3 $ # $.$.$.$.$.$.$.%.f.d.F m m m m ",
"m m m D E.[.{.E.4.4.4.4.4.4.4._ [ 4.4.4.4.4.M X   A XX#X#X#X#X$X%X%X%X%X%X%X#X#XXXq.F m m m m m m m m 3 i K.F.w t N ; O H $.$.$.$.$.$.%.a.f.W m m m m ",
"m m m D E.{.[.7.4.4.4.4.4.4.4.4.4.4.4.4.4.M X X o 2.(.+XoX#X#XoX#X$X%X%X%X%X%X%X%X#Xi.D m m m m m m m 5 p K.d e 3 V b O H $.$.$.$.$.$.$.y.f.$.m m m m ",
"m m m L Q.|.].5.4.4.4.4.4.4.4.4.4.4.4.4.Y o X   7 !.^./.^.(.(.^.(.XXXXXXXXXXXXoX$X%X@X1.m m m m m m m 2 F.G.0 j N m n O R $.$.$.$.$.$.$.*.S.%.m m m m ",
"m m m T '.|.).4.4.4.4.4.4.4.4.4.4.4.4.^ + X X O A 0.i.!././.(.^.^.^././.~././.XX@X$X$X!.S m m m m m m 1 F.p e M m m n O R $.$.$.$.$.$.$.*.S.&.m m m m ",
"m m m ;.|.|.T.4.4.4.4.4.4.4.4.4.4.4./ @ X X o b % O * 7 Z U ,.0.p.XX/./././././.+X#X$X^.P n m m m m m 3 d i 2 m m m n $ W $.$.$.$.$.$.$.*.f.%.S m m m ",
"m m m E.|.{.Y.4.4.4.4.4.4.4.4.4.4.>.6 X X X % m m $ X       X o - I q./././././.+X#X$XXX! m m m m m m M a y M m m m n % Q $.$.$.$.$.$.$.*.S.&.S m m m ",
"m m L _.|.`.4.4.4.4.4.4.4.4.4.4.>.8 X X   O m m m m % $ O o X       - q.XX/././.+X@X#XXX;.m m m m m m m 2 3 m m m V b ; Q $.$.$.$.$.$.$.&.d.&.S m m m ",
"m m E {.|.W.4.4.4.4.4.4.3./ Y 8 $ o X X o n m m m m m m m m n $ o o X A !./././.+X@X#X+Xu.S m m m m m m m m m m m S b ; Q $.$.$.$.$.$.$.&.y.%.S m m m ",
"m m P ].}.T.4.4.4./ ^ J > O X X   X X X $ m m m m m m m m m S m m % o o 0.XX/./.XX+X@XXX~.P m m m m m m m m m m m m % ; $.$.$.$.$.$.$.$.&.a.Q m m m m ",
"m m m 4.).4.^ J 6 & o   X X X   X X o O m m m m m m m m m m m m m m % X | /././.^.^.+XXX(.] m m m m m m m m m m m m % $ Q $.$.$.$.$.$.$.%.y.W m m m m ",
"m m m m M @ o X       X X o O O @ $ b n m m m m m m m m m m m m m m m O 6 !./././././.XXXXu.m m m m m m m m m m m m % # Q Q $.$.$.$.$.$.%.<.F m m m m ",
"m m m m $ X X X o O O $ % b n n m m m m m m m m m m m m m m m m m m m % o 0.^./././././.^.p.D m m m m m m m m m m m % O H Q $.$.$.$.$.$.$.$.F m m m m ",
"m m m m m % $ b n m m m m m m m m m m m m m m m m m m m m m m m m m m m O | /././.XX/././.!.D m m m m m m m m m m m b X V $.$.$.$.$.$.$.$.$.S m m m m ",
"m m m m m m m V m m m m m m m m m m m m m m m m m m m m m m m m m m m m $ - !././.^.^.^./.2.m m m m m m m m m m m m m O b $.$.$.$.$.$.$.$.R m m m m m ",
"m m m m m m m m m m m m m m m m m m m m m m m m m m m m m m m m m m m m n o :.^.~.p.q.:.} $ n m m m m m m m m m S b b # = $.$.$.$.$.$.R B m m m m m m ",
"m m m m m m m m m m m m m m m m m m m m m m m m m m m m m m m m m m m m m O $ ,.A * o X X o n m m m m m m m m m S F b b X b $.$.$.$.R ; % N m m m m m ",
"m m m m m m m m m m m m m m m m m m m m m m m m m m m m m m m m m m m m m % o X X   X o o O m m m m m m m m S S b S F b o O G R H V O % n m m m m m m ",
"m m m m m m m m m m m m m m m m m m m m m m m m m m m m m m m m m m m m m m O X o O O # $ N m m m m m m S b S b S S b b # X o O O o % m m m m m m m m ",
"m m m m m m m m m m m m m S m m m m m m m m m m m m m m m m m m m m m m m m n b m m m m m m m m m m m m m m m m m m m m m $ o o # n N m m m m m m m m ",
"m m m m m m m m m m m m m m m m m m m m m m m m m m m m m m m m m m m m m m m m m m m m m m m m m m m m m m m m m m m m m m b b m m m m m m m m m m m ",
"m m m m m m m m m m m m m m m m m m m m m m m m m m m m m m m V m m m m m m m m m m m m m m m m m m m m m m m m m m m m m m S m m m m m m m m m m m m ",
"m m m m m m m m m m m m m m m m m m m m m m m m m m m m n m m m m m m m m m m m m m m m m m m m m m m m m m m m m m m m S m m m m m m m m m m m m m m ",
"m m m m m m m m m m m m m m m m m m m m m m m m m m U | I D V m m m m m m m m m m m m m m m m m m m m m m m m m m m m m m m m m m m m m m m m m m m m ",
"m m m m m m m m m m m m m m m m m m m m m m m m S :.n.m. Xm.n.,.U S m m m m m m m m m m m m m m m m m m m m m m m m m m m m m m m m m m m m m m m m m ",
"m m m m m m m m m m m m m m m m m m m m m m m m  .w.m. X X XOXOX Xe.,.S m m m m m m m m m m m m m m S m m m m m m m m m m m m m m D E ~ E F m m m m m ",
"m m m m m m m m m C ....m m m m m m m m m m m n  .n.e.w.w.w.n.m.OXOXOXn.! D m m m m m m m m m m m m m m m m m m m m m m m m m m D ~ ~ ~ ] ] ` ! F m m ",
"m m m m m m m m m G b.b.+.S V V m m m m m m m % 9 w.w.w.w.w.w.w.m. XOXOX X9.D m m m m m m m m m m m m m m m m m m m m m m m m m U ! T T T T ! ` ~ m m ",
"m m m m m m m m m ..B.A.B.#.G m m m m m m m m % X X.w.w.w.w.w.w.e.m. XOXOX X,.m m m m m m m m m m m m m m m m m m m m m m m m b I T T T T T T T E m m ",
"m m m m m m m m m @.N.A.A.A.b...C m m m m m m b X 9 9.w.w.w.w.w.e.w.e. XOXOXn.I m m m m m m m m m m m m m m m m m m m m m m m b N T T T T T T T ~ S m ",
"m m m m m m m m m @.b.N.V.A.A.V.z.G V m m m m n O X X.w.w.w.w.w.e.w.w.e. XOXOX .m m m m m m m m m m m m m m m m m m m m m m m m n T T T T T T T ~ S m ",
"m m m m m m m m m +.x.b.b.b.B.C.A.B.#.{ V m m m $ X O X.n.w.w.w.w.w.w.w.n.OXn.C m m m m m m m m m m m m m m m m m m m m m m m m $ I ! ! T T T P P m m ",
"m m m m m m m m m { b.b.x.l.l.b.B.A.A.V.z...D m b O X * } 8.w.n.w.w.w.n.n.9.9 n m m m m m m m m m m m m m m m m m m m m m m m m $ @ A L C M $ # n m m ",
"m m m m m m m m m G b.l.l.l.l.l.l.x.V.A.A.C.b...S b O X X * } X.8.8.9.8.-.7 $ V m m m m m m m m m m m m m m m m m m m m m m m m V % $ $ $ $ % n N m m ",
"m m m m m m m m m V j.l.l.l.l.l.l.l.l.c.V.A.A.V.b.G m $ X X   X + * - * + O n m m m m m m m m m m m m m m m m m m m m m m m m m E ` ` ~ ! P D m m m m ",
"m m m m m m m m m # o.l.l.l.l.l.l.l.l.l.l.v.Z.A.Z.j.V m n % O O O O O # % m m m m m m m m m m m m m m m m m m m m m m m m m m E ` ! ! ~ ` ] ] ~ D m m ",
"m m m m m m m m b O : l.l.l.l.l.l.l.l.l.l.l.x.Z.A.x.G m m m m n n m m m m m m m m m m m m m m m m m m m m m m m m m m m m m C ! T T T T T ! ~ ` E m m ",
"m m m m m m m m n O & g.l.l.l.l.l.l.l.l.l.l.l.v.A.N.+.m m m m m m m m m m m m m m m m m m m m m m m m m m m m m m m m m m m B T T T T T T T T ! E m m ",
"m m m m m m m m n O X v l.l.l.l.l.l.l.l.l.l.x.v.A.N.#.V m m m m m m m m m m m m m m m m m m m m m m m m m m m m m m m m m m % I T T T T T T T T ~ m m ",
"m m m m m m m m m $ X & g.l.l.l.l.l.l.l.l.l.l.v.A.M.k.C m m m m m m m m m m m m m m m m m m m m m m m m m m m m m m m m m m % L T T T T T T T T ! m m ",
"m m m m m m m m m b O X : g.l.l.l.l.l.l.l.l.x.B.c.x.@.V m m m m m m m m m m m m m m m m m m m m m m m m m m m m m m m m m m % B T T T T T T T ! E m m ",
"m m m m m m m m m m $ X X * O.l.l.l.l.l.l.l.l.x.l.#.G m m m m m m m m m m m m m m m m m m m m m m m m m m m m m m m m m m m n O L T T T ! I A V C m m ",
"m m m m m m m m m m m $ X X X : o.g.l.l.l.j.h.O.v C m m m m m m m m m m m m m m m m m m m m m m m m m m m m m m m m m m m m m % o 6 n 7 $ + O O n m m ",
"m m m m m m m m m m m m b O X X X * = : : = & O % V m m m m m m m m m m m m m m m m m m m m m m m m m m m m m m m m m m m m m m % O O $ % n m m m m m ",
"m m m m m m m m m m m m m n $ # O X X O o $ $ n m m m m m m m m m m m m m m m m m m m m m m m m m m m m m m m m m m m m m m m m m m m m m m m m m m m ",
"m m m m m m m m m m m m m m m m b b b b m m m m m m m m m m m m m m m m m m m m m m m m m m S m m m m m m m m m m m m m m m m m m m m m m m m m m m m "
};
