/* XPM */
static char *result[] = {
/* columns rows colors chars-per-pixel */
"75 75 194 2 ",
"   c #5F2E08",
".  c #5D3609",
"X  c #612F09",
"o  c #65310A",
"O  c #6B350B",
"+  c #643809",
"@  c #6E3B0E",
"#  c #71370C",
"$  c #74390C",
"%  c #7C3D0D",
"&  c #673410",
"*  c #6C3912",
"=  c #6C3816",
"-  c #723C11",
";  c #7A3C11",
":  c #723E1E",
">  c #73400F",
",  c #7E4E0E",
"<  c #6E570C",
"1  c #645D0B",
"2  c #6D580C",
"3  c #74530D",
"4  c #7A520E",
"5  c #70580D",
"6  c #764213",
"7  c #7B4314",
"8  c #7E4B13",
"9  c #7B4519",
"0  c #456F07",
"q  c #4B6508",
"w  c #476F08",
"e  c #4A6D08",
"r  c #55650A",
"t  c #5C630A",
"y  c #526909",
"u  c #477008",
"i  c #497109",
"p  c #4F780D",
"a  c #53720C",
"s  c #5A720F",
"d  c #517A0F",
"f  c #5D7710",
"g  c #537D11",
"h  c #5A7B12",
"j  c #60600B",
"k  c #6E6F12",
"l  c #746B13",
"z  c #647210",
"x  c #697614",
"c  c #777417",
"v  c #7E482A",
"b  c #823F0E",
"n  c #86420E",
"m  c #8C450F",
"M  c #834A0E",
"N  c #8A480F",
"B  c #90470F",
"V  c #90480F",
"C  c #834513",
"Z  c #8C4613",
"A  c #8D4A15",
"S  c #844B19",
"D  c #884C1A",
"F  c #904712",
"G  c #934B13",
"H  c #9B4E16",
"J  c #924B1D",
"K  c #9E4E1C",
"L  c #855216",
"P  c #8E5919",
"I  c #945116",
"U  c #9B5317",
"Y  c #94521A",
"T  c #9B561A",
"R  c #915C1A",
"E  c #9F591B",
"W  c #A14F1D",
"Q  c #A25617",
"!  c #A4531C",
"~  c #AB541F",
"^  c #A25A1B",
"/  c #AA5D1C",
"(  c #96621B",
")  c #9E6A1E",
"_  c #817219",
"`  c #88731B",
"'  c #97741D",
"]  c #AE611D",
"[  c #A7691E",
"{  c #B1621D",
"}  c #A8741F",
"|  c #924E22",
" . c #87512D",
".. c #955620",
"X. c #9C5B24",
"o. c #95532C",
"O. c #945D2B",
"+. c #834D34",
"@. c #965632",
"#. c #985735",
"$. c #9A5B3C",
"%. c #AC5520",
"&. c #B35C24",
"*. c #B85E24",
"=. c #B65E28",
"-. c #99612E",
";. c #9C6430",
":. c #AC6422",
">. c #A66924",
",. c #A4632B",
"<. c #BB632B",
"1. c #B56828",
"2. c #B36C2C",
"3. c #A47222",
"4. c #AB7623",
"5. c #AF7A24",
"6. c #B47424",
"7. c #B17A25",
"8. c #A76D36",
"9. c #AC723B",
"0. c #B77030",
"q. c #BD7432",
"w. c #B2773E",
"e. c #B3783F",
"r. c #C56C32",
"t. c #C96D32",
"y. c #C47632",
"u. c #C77C37",
"i. c #CC7D36",
"p. c #CD743A",
"a. c #CC7D3A",
"s. c #D1793A",
"d. c #D4793E",
"f. c #8E5741",
"g. c #8F5843",
"h. c #975C42",
"j. c #965E4B",
"k. c #9D6244",
"l. c #9C624D",
"z. c #9B6752",
"x. c #9C6853",
"c. c #A0654E",
"v. c #A1684E",
"b. c #B57A42",
"n. c #B97F47",
"m. c #A06650",
"M. c #A26B54",
"N. c #A26F58",
"B. c #A5745B",
"V. c #A8785F",
"C. c #AA7C63",
"Z. c #D67C41",
"A. c #D97F43",
"S. c #568113",
"D. c #5B8616",
"F. c #5D8917",
"G. c #5E8B19",
"H. c #618D1A",
"J. c #79891F",
"K. c #65921D",
"L. c #84821D",
"P. c #89841F",
"I. c #998B24",
"U. c #B68328",
"Y. c #BD852B",
"T. c #B3932E",
"R. c #C2852C",
"E. c #C58E2F",
"W. c #C58A30",
"Q. c #CE8139",
"!. c #D4843B",
"~. c #D8873D",
"^. c #D7883E",
"/. c #D9893F",
"(. c #C69233",
"). c #CB9434",
"_. c #CC9A35",
"`. c #D19636",
"'. c #D19937",
"]. c #D59E39",
"[. c #D99F3A",
"{. c #D6A03A",
"}. c #DAA23B",
"|. c #BC834C",
" X c #AB8066",
".X c #D68042",
"XX c #DB8C43",
"oX c #DF924A",
"OX c #C38B55",
"+X c #E18E42",
"@X c #E49245",
"#X c #E2964D",
"$X c #E29750",
"%X c #E39952",
/* pixels */
"m m m m m m m m m m m m m m m m m m m m m m m m m m m m m m m Z m m m m m m m m m m m m m m m m m m m m Z Z n n b b m m m m m m m m m m m m m m m m m ",
"m m m m m m m m m m m m m m m m m m m m m m m m m m m m m m m m m m m m m m m m m m m m m m m m m m m N % O o o o o o O % n m m m m m m m m m m m m m ",
"m m m m N n % $ O O % m m m m m m m m m m m m m m m m m m m m m m m m m m m m m m m m m m m m m m m % O & = : : = & o X o o % m m m m m m m m m m m m ",
"m m m O O O $ 7 8 % o $ m m m m m m m m m m m m m m m m m m m m m m m m m m m m m m m m m m m m m A v +.g.g.j.g.j.g.+.: X X X # m m m m m m m m m m m ",
"m m Z A A I T E E E A O b m m m m N V m m m m m m m m m m m m m m m m m m V m m m m m m m m m m J $.j.l.l.j.j.j.j.j.j.j.+.= X X % m m m m m m m m m m ",
"m m U ^ E E E E E E ^ C % m m m m m m m m m m m m m m m m m m m m m m m m m m m m m m m m m m m $.l.x.N.z.j.j.j.j.j.j.j.j.g.: X X b m m m m m m m m m ",
"m Z / ^ E E E E E E E I % m m m m m m m m m m m m m m m m m m m m m m m m m m m m m m m m m m Z h.c.V.N.j.j.j.j.j.j.j.j.j.l.#.& X % m m m m m m m m m ",
"m m Q ^ E E E E E E E T % m m m m m m m m m m m m m m m m m m m m m m m m m m m m m m m m m m N $.M.C.z.j.j.j.j.j.j.j.j.j.j.j.v X o m m m m m m m m m ",
"m m Q ^ E E E E E E E T N m m m m m m m m m m m m m m m m m m m m m m m m m m m m Z m m m m m m o.M.C.z.j.j.j.j.j.j.j.j.j.j.j.f.& o Z m m m m m m m m ",
"m m Q { ^ ^ E E E E ^ ^ Z m m m m m m m m m m m m m m m m m m m m m m m m m m m m n n m m m m m J c.C.V.l.j.j.j.j.j.j.j.j.j.j.j.: o n m m m m m m m m ",
"m m G / { { ] / ^ ^ / ^ m m m m m m m m m m m m m m m m m m m m m m m m m m % $ O o o o # % n m Z $.C. XV.z.j.j.j.j.j.j.j.j.j.j.v * m m Z m m m m m m ",
"m m m V G U ^ ] :.] Q m m m m m m m m m m m m m m m m m m m m m m m m m m O o * - * O o     O $ n J k.B. XC.B.x.j.j.j.j.j.j.j.j.#.Z m m m m m m m m m ",
"m m m % 7 $ # $ $ % m m m m m m m m m m m m m m m m m m m m m m m m m N O 6 ;.8.9.8.8.O.S *   X O n Z @.c.B.C.V.B.l.j.j.j.j.j.j.j.J B m m m m m m m m ",
"m m n $ $ C A I D $ $ m m m m m m m m m m m m m m m m m m m m m m m m N S 9.b.9.e.e.e.e.b.8. .o X O m m A o.k.B.C.C.M.c.j.l.j.z.c.o.m m m m m m m m m ",
"m m I T E E ^ E E I $ n m m m m m m m m m m m m m m m m m m m m m m m G b.OXb.b.w.w.w.w.w.e.w.-.O X $ m m m F | $.N.C.C.N.m.m.c.l.@.m m m m m m m m m ",
"m G ^ E E E E E E E C n m m m m m m m m m m m m m m m m m m m m m m m ,.|.OX|.b.w.w.w.w.w.w.w.e.O.o o n m m Z m F | h.B.C.C.B.m.c.#.m m m m m m m m m ",
"m V / E E E E E E E Z % m m m m m m m m m m m m m m m m m m m m m m Z U n.OXOX|.e.e.e.e.w.w.w.w.9.9   % m m m m m m G o.v.V. XC.M.#.m m m m m m m m m ",
"m V ^ ^ E E E E E E J N m m m m m m m m m m m m m m m m m m m m m m m m ,.|.OXOX|.e.w.e.w.w.w.w.w.-.o % m m m m m m m m J h.B.V.B.o.m m m m m m m m m ",
"m m ^ ] ^ ^ E E ^ ^ Q m m m m m m m m m m m m m m m m m m m m m m m m m F 8.OXOXOX|.b.e.w.w.w.w.w.9.9 $ m m m m m m m m m G @.c.c.J m m m m m m m m m ",
"m m H Q ] ] ] / / / G m m m m m m m m m m m m m m m m m m m m m m m m m Z F X.b.OXOX|.|.e.w.w.w.w.w.X.m m m m m m m m m m m m o.o.G m m m m m m m m m ",
"m m m m V U Q / Q G m m m m m m m m m m m Z m m m m m m m m m m m m m m m m m G ,.b.|.OXOX|.|.|.b.e.X.m m m m m m m m m m m m m m m m m m m m m m m m ",
"m m m m m m m m m m m m m m m m m m m m m m m m m m m m m m m m m m m m m m m m m Z X.,.9.b.|.n.e.,.G m m m m m m m m m m m m m m m m m m m m m m m m ",
"m m m m m m m m m m m m m m m m m m m m m m m m m m m m m m m m m m m m m m m m m m m m Z G U X.Y m m m m Z m m m m m m m m m m m m m m m m m m m m m ",
"m m m m m m m m m m m m m m m m m m m m m m m m m m m m m m m m m m m m m m m m m m m m m m m m Z m m m m m m m m m m m m m m m m m m m m m m m m m m ",
"m m m m m m m m m m m m B B B m m m m m m m m m m m m m m m m m m m m m m m m m m m m m m m m m m m m m m m m m m m m m m m m m m m m m m m m m m m m ",
"m m m m m m m m m m m n b b B m m m m m m m m m m m m m m m m m m m m m m m m m m m m m m m m m m m m m m m m m m m m m m m m m m m m m m m m m m m m ",
"m m m m m m m m m m # o o # b Z m m m m m m m m m m m m m m m m m n n % n m m m m m m m m m m m m m m m m m m m m m m m m m m m m m m m m m m m m m m ",
"m m m m m m m m % o o o X X # F m m m m m m m m m m m m m n % @ O O o   O m Z m m m m m m m m m m m m m m m m m m m m m m m m m m m m m m m m m m m m ",
"m m m m m m m $ O Z W W F & X b m m m m m m m m m m m m m O o           o % m m m m m m m m m m m m m m m m m m m m m m m m m m m m m m m m m m m m m ",
"m m m m m m % ; W %.%.%.%.F X % B m m m m m m m m m m m n o   o o $ D ,.$ O m m m m m m m m m m m m m m m m m m m m m m m m m m m m m m m m m m m m m ",
"m m m m m m C ~ %.%.%.%.%.~ O # m m m m m m m m m m m m N @ J ,.q.Q.!./.,.O n m m m m m m m m m m m m m m m m m m m m m m m m m m m m m m m m m m m m ",
"m m m m m H ~ ~ %.%.%.%.%.%.; & m m m m m m m m m m m m m 1.^.^.XX^.^.^.Q.- $ m m m m m m m m m m m m m m m m m m m m m m m m m m m m V m m m m m m m ",
"m m B B F %.%.%.%.%.%.%.%.%.F X n m m m m m m m m m m m G !././.!.^.^.^.^...O N m m m m m m m m m m m m m m m m m m m m m m m m m N 7 % % % m m m m m ",
"m m B b H %.%.%.%.%.%.%.%.%.K o % m m m N m m m m m m m G i././.^.^.^.^.^.0.o % m m m m m m m m m m m m m m m m m m m m n b % $ O O o X X X $ Z m m m ",
"m m B B W <.&.%.%.%.%.%.%.%.~ = % m m m m m m m m m m m m y.XX/.^.^.^.^.~.Q.6 O m m m m m m m m m m m m m m m m % % O o o X X X       o X @ M Z m m m ",
"m m B b ! t.&.%.%.%.%.%.%.%.W ; b m m m m m m m m m m m m :./.XXXX^.^.^././...X % m m m m m m m m m m m m m m O X X X X X X X X o O 6 L ( } W.6.m m m ",
"m m m m %.t.=.%.%.%.%.%.%.%.~ ; % m m m m m m m m m m m m H !.XX@X@X/.^.~./.q.o o $ Z m m m m m m m m m m m % X o     o o O $ L ( ) 4.4.4.Y.}.`.U m m ",
"m m m B *.p.=.%.%.%.%.%.%.%.~ ; n m m m m m m m m m m m m B y.XX@X@X+X^.^.^.!.D   o o % b n m Z m m m m m b o X   o @ 8 R ) 3.4.4.4.4.4.4.W.}.[.E m m ",
"m m m B &.p.=.%.%.%.%.%.~ ~ ~ ; n m m m m 3 2 m m m m m m m :.XX#X@XXX/./.^.XXq.-     X o o O $ % m m m m O X X   8 3.4.4.4.4.4.4.4.4.4.4.'.}.`.I N m ",
"m m m B &.Z.=.%.%.%.%.%.~ ~ ~ $ n m m m N r e M B m m m m m ! XX%X@X@X^.^.^.^.!.q.Y - o         o $ m m $ X X X 6 3.4.4.4.4.4.4.4.4.4.4.7.[.}.R.m m m ",
"m m m F *.d.=.~ %.%.%.%.%.%.~ # m m m m 2 u d 5 m m m m m m U ~.%X#X@X~.^.^.^.^.^.^.u.0.,.Y D 7 - o b b o X X @ ) 4.4.4.4.4.4.4.4.4.4.4.Y.}.[.>.m m m ",
"m m m B *.d.=.~ %.%.%.%.%.%.W O n m m , e a S.1 m m m m m m G i.#X%X@X~..XXX^.^.^.^././.XX!.!.Q.u.0.D O X   O ( 4.4.4.4.4.4.4.4.4.4.4.4.(.}.).T m m m ",
"m m m B &.Z.<.%.%.%.%.%.%.%.W O b m m 1 u D.S.2 m m m m m m m 1.oX%X%XoXXXXXXXXXXXXX/./.XX^././.~.Q.6 X X o R 4.4.4.4.4.4.4.4.4.4.4.4.7.'.}.W.U m m m ",
"m m m m ~ Z.r.%.%.%.%.%.%.%.W O b m 4 e p G.p 2 m m m m m m m G u.%X%X%X%X%X%X%X$X%X%XoXoX@XoXXXXX2.o X o L 4.4.4.4.4.4.4.4.4.4.4.4.4.U.{.].W.G m m m ",
"m m m m ! d.p.%.%.%.%.%.%.%.W O % m t u D.G.i 4 m m m m m m m m G q.XX$X%X%X%X%X%X$X#X#X#X%X$X#X+XD X X M 3.4.4.4.4.} ' 4.4.4.4.4.4.4.Y.[.[.R.G b m m ",
"m m m m H s.Z.*.%.%.%.%.%.%.%.# # 5 0 d K.D.e , m m m m m m m m m m U :.q.i.i.!.Q.y.Q./.+X@X@X@Xy.o o 7 3.4.4.4.4.7.' z ` 4.4.4.4.4.4.W.[.[.R.G B m m ",
"m m m m F r.A.<.%.%.%.%.%.%.%.; + y i F.K.g r m m m m m m m m N N m m m m B F G m m I 1.i.~.!.y.7 o L 3.4.4.4.4.4.4.4.x a c } 3.4.4.4.(.[.[.6.Z m m m ",
"m m m m Z *.A.p.%.%.%.%.%.%.%.Z . q d K.H.i 1 m m m m m m M 3 3 m m m m m m m m m m m m V U C O O P 4.4.4.4.4.4.4.4.4._ p d f ' 4.4.7._.{.{.] m m m m ",
"m m m m m W s.A.<.%.%.%.%.%.%.J . r H.K.D.e 4 m m m m M 2 r t N m m m m m m m m m m m m m b X o ( 4.4.4.4.4.4.4.4.4.4.' a D.S.a _ } Y.{.{.].U m m m m ",
"B N 3 n m G r.A.Z.r.<.<.&.%.%.! > x K.H.p r N Z m , 1 r e e , m m m m m m m m m m m m m m m o @ 3.4.4.4.4.4.4.4.4.4.5.5.f p H.D.i c (.{.}.R.B m m m m ",
"m N t t , m &.d.A.A.A..XZ.p.0.:.c K.K.D.w 2 Z 8 1 y 0 0 0 2 m m m m m m m m m m m m m m m m b % R 4.4.4.} 4.7.} 4.R.].].P.u S.K.F.p L.{.}.} m m m m m ",
"m m < w r 4 H t.A.A.Z.Z.Z.Z.a.3.J.K.H.i q < j e w w w w t m m m m m m m m m m m m m m m m m m m m E 4.7.7.4.7.} U.T.{.}.T.i i G.K.D.i I.R.I m m m m m ",
"m m M y w e 2 E <.3.` _ k k c J.H.F.g w e e w u w w i s 4 Z m m m m m m B m m m m m m m m m m m m m I [ 6.6.R.R.E.L.L._._.f u d K.K.S.a P m m m m m m ",
"m m m < e w e t 4 r w w w w g G.g e w w w w i i g S.h 4 m m m m Z m m m m m m m m m m m m m m m m m m m V Q ] } 6.} a x U.x u u D.K.K.p j m m m m m m ",
"m m m m t 0 w w y y w w w i g p i S.F.D.S.D.G.H.D.s 4 m m m m m B B m m B m m m m m m m m m m m m m m m m m m V V G 2 0 k l u u p K.K.G.y M m m m m m ",
"m m m m N r w w w w w w w w i p H.K.K.K.K.K.G.s 1 M Z m m m m B b B b m B b B m m m m m B m m m m m m m m m m m m m m j e y u u u S.K.K.h , Z Z m m B ",
"2 2 5 < < 1 e w w w w w w p S.H.K.H.G.D.g a r 1 2 < 2 2 2 2 2 2 3 5 5 < < 5 < < 2 2 2 2 2 2 2 2 < < < < < 5 < 5 2 2 2 1 e 0 0 u w i G.K.h 2 2 2 2 2 2 ",
"w w w w w w w w w w w w i g S.g p p i i w i e u w u e w w u e w u u u e 0 u u 0 w w e u w w w u u u 0 e 0 u 0 u u u u e 0 e u u w w p G.p u w w w w w ",
"w w w w w w w w w p g d w g S.d i 0 w w w w w w w w w w w w w w u u u u u u u u w w w w w w w w u u u u u u 0 0 u u u u e u e 0 u i u p i 0 w w w w w ",
"w w w w w w w i g H.H.d w F.K.K.d w w w w w w w u w u w w w w u u u e u e 0 e u u w w w w w w w u u 0 e u u e u u u e u 0 u p d F.G.F.g d D.p 0 w w u ",
"w w w w w w i S.K.K.S.i w S.K.K.G.i w w w u w u w w w w w w w w w w w w 0 w w w w w w w e w w w e u u e u u u e u u u i d D.H.K.K.K.K.p g K.G.e u w w ",
"w w w w w i S.K.K.S.i w w p H.K.K.S.i w w w w e w w w u u w w w u w w w e w w w w w w u w w w w 0 0 u 0 u u u u u d S.H.K.K.K.K.K.K.D.e p K.K.g w w w ",
"e w w w i S.H.H.d i w w w w p S.K.K.D.i w w 0 0 w u w w w w u w w w w w w w w w w u w w w w w w w 0 u u 0 u p S.H.K.K.K.K.K.K.K.K.H.p w u g H.H.S.d i ",
"w w e p g G.S.p w w w w w w w i d F.K.G.S.i i w w w w w w w w w w w w w w w w w w w w u w w w w w e 0 e e u p d d d S.S.S.D.D.S.g i w w w u i d g g g ",
"e w w p p w w w w w w w w w 0 w w i p g D.S.g p 0 0 0 w w w w w w w w w w w u w w w w w u w w w w w u w w 0 0 e w w w w w w u u 0 w u u u u u u w w u ",
"w 0 w w 0 0 i w w w i w w i w i i w w w i i p i w w w i i w w i w i i i u w u u i u w i u u i w u i i i u i 0 i i e w w w i u i u i u i u u u u e i e ",
"F.D.F.D.D.F.D.D.F.F.F.G.D.G.D.F.D.F.D.F.G.D.D.G.F.F.D.F.F.F.D.D.F.D.D.G.D.F.D.F.D.F.D.D.F.D.G.G.D.D.F.D.D.D.D.F.D.F.F.G.D.D.D.F.D.F.D.D.D.D.D.D.D.D.D.",
"K.K.K.K.K.K.K.K.K.K.K.K.K.K.K.K.K.K.K.K.K.K.K.K.K.K.K.K.K.K.K.K.K.K.K.K.K.K.K.K.K.K.K.K.K.K.K.K.K.K.K.K.K.K.K.K.K.K.K.K.K.K.K.K.K.K.K.K.K.K.K.K.K.K.K.",
"K.K.K.K.K.K.K.K.K.K.K.K.K.K.K.K.K.K.K.K.K.K.K.K.K.K.K.K.K.K.K.K.K.K.K.K.K.K.K.K.K.K.K.K.K.K.K.K.K.K.K.K.K.K.K.K.K.K.K.K.K.K.K.K.K.K.K.K.K.K.K.K.K.K.K.",
"K.K.K.K.K.K.K.K.K.K.K.K.K.K.K.K.K.K.K.K.K.K.K.K.K.K.K.K.K.K.K.K.K.K.K.K.K.K.K.K.K.K.K.K.K.K.K.K.K.K.K.K.K.K.K.K.K.K.K.K.K.K.K.K.K.K.K.K.K.K.K.K.K.K.K.",
"K.K.K.K.K.K.K.K.K.K.K.K.K.K.K.K.K.K.K.K.K.K.K.K.K.K.K.K.K.K.K.K.K.K.K.K.K.K.K.K.K.K.K.K.K.K.K.K.K.K.K.K.K.K.K.K.K.K.K.K.K.K.K.K.K.K.K.K.K.K.K.K.K.K.K.",
"K.K.K.K.K.K.K.K.K.K.K.K.K.K.K.K.K.K.K.K.K.K.K.K.K.K.K.K.K.K.K.K.K.K.K.K.K.K.K.K.K.K.K.K.K.K.K.K.K.K.K.K.K.K.K.K.K.K.K.K.K.K.K.K.K.K.K.K.K.K.K.K.K.K.K.",
"K.H.K.K.H.K.K.H.K.K.K.K.H.H.K.H.K.H.K.H.K.K.H.K.K.K.H.K.K.K.K.H.K.H.K.K.K.H.K.K.K.K.K.H.K.K.K.H.K.K.K.K.H.K.K.H.K.K.K.H.H.K.K.H.K.K.K.K.H.K.K.K.K.K.K.",
"g p p p p p p p p p p p p p d p p p p p p p d p p p p p p p p p p p p p p g p i i p p p p p p p d d p p p p p p p p p p p p p p d s p p p p a p p p p ",
"e w w w 0 e e w 0 e 0 w w e w w w w 0 e e e w w w w w w w w w w w w w w e w e 0 w w e e w w w w w w 0 e e w 0 e w w w w e w w w w w 0 w w w w w 0 0 0 "
};
