/* XPM */
static char *result[] = {
/* columns rows colors chars-per-pixel */
"75 75 186 2 ",
"   c #5F2E09",
".  c #612E09",
"X  c #65320A",
"o  c #6B340B",
"O  c #6B380B",
"+  c #71370B",
"@  c #74390C",
"#  c #7B3C0D",
"$  c #6D3A11",
"%  c #7A3C11",
"&  c #6C4208",
"*  c #764309",
"=  c #774808",
"-  c #7D4E0D",
";  c #6E570C",
":  c #645D0B",
">  c #6C590C",
",  c #7B5307",
"<  c #7F5807",
"1  c #73550C",
"2  c #7A500D",
"3  c #754116",
"4  c #7A4215",
"5  c #7D481B",
"6  c #7E5D13",
"7  c #466F07",
"8  c #4E6308",
"9  c #476F08",
"0  c #4A6D08",
"q  c #5C6D07",
"w  c #556609",
"e  c #5B630A",
"r  c #526A09",
"t  c #467008",
"y  c #4B730B",
"u  c #4F780E",
"i  c #53710A",
"p  c #507A0F",
"a  c #5A7111",
"s  c #537D11",
"d  c #6C6B07",
"f  c #60600B",
"g  c #66670B",
"h  c #7B6A07",
"j  c #796A08",
"k  c #726712",
"l  c #7B6314",
"z  c #647317",
"x  c #6C721B",
"c  c #6A7B1B",
"v  c #787520",
"b  c #813F0D",
"n  c #803F12",
"m  c #85420E",
"M  c #8C450F",
"N  c #844A0E",
"B  c #8D4A0E",
"V  c #90470F",
"C  c #904A0F",
"Z  c #8E570A",
"A  c #885A0D",
"S  c #91530B",
"D  c #945D09",
"F  c #995E0D",
"G  c #844613",
"H  c #8B4515",
"J  c #874F11",
"K  c #8C4B14",
"L  c #834C1E",
"P  c #914711",
"I  c #924B12",
"U  c #9C4E16",
"Y  c #914718",
"T  c #9C4D1B",
"R  c #855411",
"E  c #885615",
"W  c #945211",
"Q  c #9D5216",
"!  c #9A5B12",
"~  c #965219",
"^  c #9F591B",
"/  c #A04F1C",
"(  c #A5531C",
")  c #AA541F",
"_  c #A25B1B",
"`  c #AB5D1C",
"'  c #B1591F",
"]  c #886406",
"[  c #846906",
"{  c #8B6806",
"}  c #8F6808",
"|  c #906D06",
" . c #956008",
".. c #9B630C",
"X. c #926A08",
"o. c #957206",
"O. c #9A7606",
"+. c #9F7A07",
"@. c #8C6111",
"#. c #87641D",
"$. c #926712",
"%. c #9D6312",
"&. c #936912",
"*. c #9B7313",
"=. c #A16A0F",
"-. c #A17C07",
";. c #A16712",
":. c #A46D12",
">. c #AE611D",
",. c #A77014",
"<. c #AA7215",
"1. c #AD7B16",
"2. c #AF7618",
"3. c #AD7818",
"4. c #B17F17",
"5. c #B17719",
"6. c #B57B1C",
"7. c #875022",
"8. c #8A5323",
"9. c #9C5C26",
"0. c #AC5520",
"q. c #B05720",
"w. c #B35B24",
"e. c #B65E28",
"r. c #976625",
"t. c #9C632F",
"y. c #8C742B",
"u. c #9D6431",
"i. c #A6652C",
"p. c #A8652B",
"a. c #A9652B",
"s. c #BB6026",
"d. c #BD642B",
"f. c #A36A34",
"g. c #A86C35",
"h. c #A47637",
"j. c #A87937",
"k. c #AD733B",
"l. c #B27337",
"z. c #B2773E",
"x. c #B4783E",
"c. c #BB7C3F",
"v. c #C1662C",
"b. c #C36A2F",
"n. c #C36A31",
"m. c #CA6F34",
"M. c #CB7137",
"N. c #CE7339",
"B. c #D1773B",
"V. c #D47A3E",
"C. c #D67B40",
"Z. c #D97E43",
"A. c #568113",
"S. c #5A8515",
"D. c #5C8817",
"F. c #5E8A19",
"G. c #658418",
"H. c #6D841A",
"J. c #628E1B",
"K. c #65921D",
"L. c #968008",
"P. c #A68007",
"I. c #AA8407",
"U. c #A58A07",
"Y. c #AF8907",
"T. c #B48D07",
"R. c #A88216",
"E. c #B28017",
"W. c #B58519",
"Q. c #B48D18",
"!. c #B8881D",
"~. c #B69319",
"^. c #B99619",
"/. c #BC9A1C",
"(. c #C09B1D",
"). c #C49E21",
"_. c #C6A425",
"`. c #C8A220",
"'. c #C8A827",
"]. c #CDAC2A",
"[. c #D3B22F",
"{. c #D5B532",
"}. c #D7B936",
"|. c #D8BB37",
" X c #DBBD39",
".X c #DB8145",
/* pixels */
"9 9 9 9 9 9 9 9 9 9 9 9 9 9 9 t 9 9 9 9 9 9 9 9 9 9 9 9 9 9 9 9 9 9 9 9 9 9 9 9 9 9 9 9 9 9 9 9 9 9 9 9 9 9 9 9 9 9 9 9 9 9 9 9 9 9 9 9 9 9 9 9 9 9 9 ",
"9 9 9 9 t 9 9 9 9 9 9 9 9 9 t 0 9 9 9 9 9 9 9 9 9 9 9 9 9 9 9 9 9 9 7 0 9 9 9 t 9 9 9 9 9 9 9 9 9 9 9 9 9 9 9 9 9 t 0 9 9 7 9 9 9 9 t y 9 y 9 y p y p ",
"9 t 9 9 9 9 9 9 9 t 9 9 9 9 9 9 9 9 t t 9 9 9 9 9 9 9 9 9 9 0 t 9 9 9 0 9 9 9 9 9 9 9 9 9 9 9 9 9 t 9 9 9 t t u p p p s s s s S.S.S.S.F.J.J.J.J.J.K.K.",
"9 9 9 9 9 9 9 9 9 9 9 9 9 9 t 9 9 0 t t 9 9 9 9 9 9 9 9 9 9 9 t 9 9 t y t y y t y u u p p s s S.S.S.S.S.F.J.J.K.J.J.J.J.K.K.K.J.K.K.K.K.K.K.K.K.K.K.K.",
"9 9 9 9 9 9 9 9 9 9 9 9 9 9 9 9 9 9 9 t 0 9 9 t y p p p p s s A.S.S.S.S.J.J.F.J.K.K.K.J.K.K.K.K.K.K.K.K.K.K.K.K.K.K.K.K.K.K.K.K.K.K.K.K.K.K.K.K.K.K.K.",
"9 9 9 t 9 9 9 9 9 9 9 9 9 9 9 9 9 9 t y p A.F.J.J.K.K.K.K.K.K.K.K.K.K.K.K.K.K.K.K.K.K.K.K.K.K.K.K.K.K.K.K.K.K.K.K.K.K.K.K.K.K.K.K.K.K.K.K.K.K.K.K.K.K.",
"9 9 9 9 9 9 9 9 9 9 9 9 7 0 9 t y p D.K.K.K.K.K.K.K.K.K.K.K.K.K.K.K.K.K.K.K.K.K.K.K.K.K.K.K.K.K.K.K.K.K.K.K.K.K.K.K.K.K.K.K.K.K.K.K.K.K.K.K.K.K.K.K.K.",
"9 9 9 9 9 9 9 t 9 9 9 9 7 0 p S.J.K.K.K.K.K.K.K.K.K.K.K.K.K.K.K.K.K.K.K.K.K.K.K.K.K.K.K.K.K.K.K.K.K.K.K.K.K.K.K.K.K.K.K.K.K.K.K.K.K.K.K.K.K.K.K.K.K.K.",
"9 9 9 9 9 9 9 9 9 9 t t p S.J.K.K.K.K.K.K.K.K.K.K.K.K.K.K.K.K.K.K.K.K.K.K.K.K.K.K.K.K.K.K.K.K.K.K.K.K.K.K.K.K.K.K.K.K.K.K.K.K.K.K.K.K.K.K.K.K.J.J.S.A.",
"9 9 9 9 9 9 9 9 9 9 t A.J.K.K.K.K.K.K.K.K.K.K.K.K.K.K.K.K.K.K.K.K.K.K.K.K.K.K.K.K.K.K.K.K.K.K.K.K.K.K.K.K.K.K.K.K.K.K.K.K.K.K.K.K.K.J.S.A.A.p y 0 9 9 ",
"9 9 9 9 9 9 7 7 9 y S.K.K.K.K.K.K.K.K.K.K.K.K.K.K.K.K.K.K.K.K.K.K.K.K.K.K.K.K.K.K.K.K.K.K.K.K.K.K.K.K.K.K.K.K.K.K.K.K.J.F.S.S.s p y y t 7 9 9 9 7 0 9 ",
"9 9 9 9 9 9 7 0 u J.K.K.K.K.K.K.K.K.K.K.K.K.K.K.K.K.K.K.K.K.K.K.K.K.K.K.K.K.K.K.K.K.K.K.K.K.K.K.K.K.K.J.J.J.F.S.s s p y y 9 9 0 9 9 9 9 9 9 9 9 7 7 9 ",
"9 9 9 9 9 9 9 u J.K.K.K.K.K.K.K.K.K.K.K.K.K.K.K.K.K.K.K.K.K.K.K.K.K.K.K.K.K.K.K.K.K.J.J.J.J.D.S.S.s s y y t t 9 9 9 9 9 9 9 9 9 9 9 9 t 9 9 9 9 9 9 9 ",
"9 9 9 9 9 9 u J.K.K.K.K.K.K.K.K.K.K.K.K.K.K.K.K.K.K.K.K.K.K.K.K.K.K.J.J.F.J.S.S.S.s u u u t 9 9 9 9 9 9 9 9 t 9 9 9 9 9 9 9 9 9 9 9 9 9 9 9 9 9 9 9 9 ",
"9 9 9 9 9 y S.K.K.K.K.K.K.K.K.K.K.K.K.K.K.K.K.K.K.K.K.K.K.J.F.S.s s u t t 9 9 9 9 9 0 9 9 9 9 9 9 9 9 9 9 9 9 9 9 9 9 9 9 9 9 9 9 9 9 9 9 9 9 9 9 9 9 ",
"9 9 9 9 9 A.K.K.K.K.K.K.K.K.K.K.K.K.K.K.K.K.K.K.K.J.F.A.p y 9 9 9 9 9 9 9 9 9 9 9 9 9 9 9 9 9 9 9 9 9 9 9 9 9 9 9 9 9 9 9 9 9 9 9 9 9 9 9 9 9 9 9 9 9 ",
"9 9 9 9 u J.K.K.K.K.K.K.K.K.K.K.K.K.K.K.K.K.J.D.p u 9 9 9 9 9 9 9 9 9 9 9 9 9 9 9 9 9 9 9 9 9 9 9 9 9 9 9 9 9 9 9 9 9 9 9 9 9 9 7 7 7 t t t 7 t t t t ",
"9 9 7 0 S.K.K.K.K.K.K.K.K.K.K.K.K.K.K.K.J.s u 9 9 9 9 9 9 9 9 9 9 9 9 9 9 9 9 9 9 9 9 9 9 9 9 7 9 9 9 9 7 7 9 9 9 9 9 9 9 t 7 t 7 7 7 t 9 0 0 8 8 e : ",
"9 9 9 u J.K.K.K.K.K.K.K.K.K.K.K.K.K.J.s y 9 9 9 9 9 9 9 9 9 9 9 9 9 9 9 9 9 7 9 9 9 9 9 9 9 0 7 9 9 9 9 7 t 7 7 9 y 0 i i i q q g d d j h h [ & . m M ",
"9 9 9 A.K.K.K.K.K.K.K.K.K.K.K.K.K.D.y 9 9 9 9 9 9 9 9 9 9 9 9 9 t 9 t 9 9 9 7 t t t 9 9 9 9 0 0 0 r w e f : : > 1 h L.U.+.[ { { { { { { { { { = . # M ",
"9 7 9 J.K.K.K.K.K.K.K.K.K.K.K.J.s 9 9 9 9 9 9 9 9 9 9 9 9 9 9 9 9 t t t 0 r r e e f : > ; 1 - - G N B H M M M M K  .-.T.T.o.{ { { { { { { { [ = . # M ",
"9 7 u K.K.K.K.K.K.K.K.K.K.K.F.u 9 9 9 9 9 9 9 9 9 9 9 9 9 9 t t 0 e : ; - N N M M M M M M M M M M M M M M M M M M S X.-.T.I.{ { { { { { [ { { = . @ M ",
"9 9 A.K.K.K.K.K.K.K.K.K.K.J.u 9 9 9 9 9 9 9 9 9 9 9 9 9 t 9 w > E W Q U H M M M M M M M M M M M M M M M M M M M M B } o.Y.T.-.{ { { { { { { { , . + M ",
"9 9 S.K.K.K.K.K.K.K.K.J.J.u 9 9 9 9 9 9 9 9 9 9 9 9 9 0 e 1 B ( ` _ _ _ K # M M M M M M M M M M M M M M M M M M M M D | +.T.T.-.{ { { | o.o.] * o m M ",
"9 t J.J.K.K.K.K.K.K.K.K.s 9 9 9 9 9 9 9 9 9 9 9 9 9 r 1 N M V ` _ _ ^ ^ K O M M M M M M M M M M M M M M B M M M M M B X.X.I.T.T.I.P.Y.I.O.< O + M M M ",
"9 y J.K.K.K.K.K.K.K.K.D.9 9 9 9 9 9 9 9 9 9 t 9 9 e N M M M U >._ ^ ^ _ ~ O M M M M M M M M M M M M M M H M M M M M M D } o.T.T.T.I.O.{ , O + M M M M ",
"9 y J.K.K.K.K.K.K.K.K.u 9 9 9 9 9 9 9 9 9 9 7 7 : M M M M M Q >.^ ^ ^ ^ ^ # b M M M M M M M M M M M M M M M M M M M M B  .} | O.o.{ { < O # M M M M M ",
"9 u K.K.K.K.K.K.K.K.D.9 9 9 9 9 9 9 9 9 9 7 0 : M M M M M B >.` ^ ^ ^ ^ ^ % # M M M M M M M M M M M M M M M M M M M M M B D } X.X.X.A m M B M M M M M ",
"9 p J.K.K.K.K.K.K.K.s 9 9 9 9 9 9 9 9 9 9 9 : M M M M M M B ` _ ^ ^ ^ ^ ^ % # H M M M M M M M M M M M M M M M M M M M M M M B B Z B H M M M M M M M M ",
"0 p K.K.K.K.K.K.K.J.y 9 9 9 9 9 9 9 9 9 9 w N V M M M M M H Q ` ^ ^ ^ ^ K O b M M M M M M M M M M M M M M M M M M M M M M M M M M M M M M M M M M M M ",
"0 u J.K.K.K.K.K.K.D.9 9 9 9 9 9 9 9 9 9 9 1 M M M M M M M M M Q ^ W ~ G O # M M M M M M M M M M M M M M M M M M M M M M M M M M M M M M M M M M M M M ",
"7 y K.K.K.K.K.K.K.S.9 9 9 9 9 9 9 9 9 9 f H M M M M M M M M M M H m # b M M M M M M M M M M M M M M M M M M M M M M M M M M M M M M M M M M M M M M M ",
"7 u K.K.K.K.K.K.K.s 9 9 9 9 9 9 9 9 9 9 1 M M M M M M M M M M M M M M M M M M M M M M M M M M M M M M M M M M M M M M M M M M M M M M M M M M M M M M ",
"7 u K.K.K.K.K.K.K.p 9 9 9 9 9 9 9 9 9 e M M M M M M M M M M M M M M M M M M M M M M M M M M M M M M M M M M M M M M M M M M M M M M M M M M M M M M M ",
"7 u K.K.K.K.K.K.K.u 9 9 9 9 9 9 9 9 9 1 M M M M M M M M M M M M M M M M M M M M M M M M M M B B B M M M M M M M M M M M M M M M M M M M M M M M M M M ",
"0 u K.K.K.K.K.K.K.y 9 9 9 9 9 9 9 9 0 - M M M M M M M M M M M M M M M M M M M M M M M V C S F ..D D S M M M M M M M M M M M M M M M M M M M M M M M M ",
"7 u J.K.K.K.K.K.K.y t t 9 9 9 9 9 9 w N M M M M M M M M M M M M M M M M M M M M M M M S ..<.2.2.,.=.=.D S B M M M M M M M M M M M M M M M M M M M M M ",
"7 u J.K.K.K.K.K.J.y 9 t 9 9 9 9 9 9 e M M M M M M M M M M M M M M M M M M M M M M M S =.5.6.2.<.,.<.<.,. .D # # M M M M M M M M M M M M M M M M M M M ",
"9 u K.K.K.K.K.K.K.y t 9 9 9 9 9 9 9 > M M M M M M M M M M M M M M M M M M M M M V S ,.6.5.=... . . . ... . .= . @ M M M M M M M M M M M M M M M M M M ",
"9 u K.K.K.K.K.K.K.i 9 9 9 9 9 9 9 9 > M M M M M M M M M M M M M M M M M M M M M D <.6.5..... . . . . . . . .* . + M M M M M M M M M M M M M M M M M M ",
"7 u K.K.K.K.K.K.J.y 9 9 9 9 9 9 9 9 ; M M M M M M M M M M M M M M M M M M M M S :.6.6.=. . . . . . .D  . . .* . + M M M M M M M M M M M M M M M M M M ",
"7 u K.K.K.K.K.K.K.y 9 9 9 9 9 9 9 9 ; M M M M M M M M M M M M M M M M M M M M F 6.6.2... . . . . . . . . ...* . + M M M M M M M M H M M M M M M M M M ",
"7 u J.K.K.K.K.K.J.y 9 t 9 9 9 9 9 9 > M M M M M M M M M M M M M M M M M M M B ;.6.6.<. . . . . . . . . . . .* . + M M M M M B m @ o # m M M M M M M M ",
"7 u J.K.K.K.K.K.K.y 9 7 9 9 9 9 9 9 ; M M M M M M M M M M M M M M M M M M M B ;.6.6.,. . . . . . . . . . . .* . + M M M B ..1.R.*.- X O m M M M M M M ",
"9 u K.K.K.K.K.K.K.y 7 7 9 9 9 9 9 9 ; M M M M M M M M M M M M M M M M M M M B ;.6.6.,. . . .D  . . . . . . .* . + B M I 1.(.'.].].~.@.o X b M M M M M ",
"9 s J.K.K.K.K.K.K.y 0 t 9 9 9 9 9 9 ; M M M M M M M M M M M M M M M M M M M M F 6.6.<. . . . . . . . . . . .* . + M I !.[.}. X|.|.]./.*.o X M M M M M ",
"7 u K.K.K.K.K.K.J.y 9 9 9 9 9 9 9 9 ; M M M M M M M M M M M M M M M M M M M B D 2.6.5... . . . . . . . . . .* . + M 3.{. X}.'././._./.^.2 . m M M M M ",
"9 u K.K.K.K.K.K.K.y 9 9 9 9 9 9 9 9 ; M M M M M M M M M M M M M M M M M M M M S ,.6.5... . . . . . . . . . .* . @ S ).|.}./.^.^.^.^.^./.A X m M M M M ",
"9 u J.K.K.K.K.K.K.u 9 9 9 9 9 9 9 9 1 M M M M M M M M M M M M M M M M M M M M B =.5.5.=. .D  . . . . . . . .= . + =.]. X'.^.^.^.^.^.^./.X.X b M M M M ",
"9 u K.K.K.K.K.K.J.y 9 9 9 9 9 9 9 9 > M M M M M M M M M M M M M M M M M M M M M S 2.6.=. . . . . . . . . . .* . + <.[.|.(.^.^.^.^.^.^.^.&.X b M M M M ",
"9 u J.K.K.K.K.K.J.y 9 9 9 9 9 9 9 9 ; V M M M M M M M M M M M M M M M M M M M M S =.6.=. . . . . . .D  . . .*   + E.[.}.(.^.^.^.^.^.^.^.&.  # M M M M ",
"9 p K.K.K.K.K.K.J.u 9 9 9 9 9 9 9 9 ; M M M M M M M M M M M M M M M M M M M M M B ..4.,. . . . . . . . .D  .*   + E.[.|./.^.^.^.^.^.^.^.&.X m M M M M ",
"9 u K.K.K.K.K.K.J.y 9 t 9 9 9 9 9 9 > M - - M M M M M M I ~ ^ ~ ~ P m M M M M M M S =.=. . . . . . . . . . .=   + 4.[.|.(.^.^.^.^.^.^.^.&.. b M M M M ",
"9 u J.K.K.K.K.K.J.u 9 9 9 9 9 9 9 7 ; N f N M M M M P p.l.x.x.z.z.g.L O # M M M M B  . . . . . . . . . . . .=   + <.]. X_.^.^.^.^.^.^.^.$.. b M M M M ",
"9 u J.K.K.K.K.K.J.u 9 9 9 9 9 9 7 0 > : e M M M M M a.c.c.x.z.z.x.x.g.4 . # M M M M D D D D  . . . . . . .Z O . + ! (. X'.^.^.^.^.^.^.^.A o N M M M M ",
"9 u K.K.K.K.K.K.J.y 9 9 9 9 9 9 7 7 r 0 1 M M M M 9.c.c.x.x.x.x.k.z.x.g.@ . b M M V V S N * * @ * @ * @ * X . X b V W.[.[.^.^.^.^.^.^.^.E o M M M M M ",
"9 u K.K.K.K.K.K.J.y 9 9 9 9 9 9 9 9 9 9 N M M M H a.c.c.z.z.h.y.y.z.z.z.u.$ o G M M M M M b b b b b b b b # m M M M ! (.[.(.^.^.^.^.^.Q.4 # M M M M M ",
"9 u K.K.K.K.K.K.K.y u t 9 9 9 9 9 9 t e M M M M M f.c.k.y.x u x h.x.z.z.z.u.4 O # M M M M M M M M M M M M M M M M M M <.].`.^.^.^.^.~.@.# M M M M M M ",
"9 u K.K.K.K.K.K.J.y y s 9 9 9 9 9 9 t > M H M M N #.v a 0 9 z h.x.z.z.z.z.x.z.8.X + M M M M M M M M M M M M M M M M M C W.`.(.^.^.~.X.m M M M M M M M ",
"9 u K.K.K.K.K.K.K.y y F.y 9 9 9 9 9 9 - M B 2 : w 0 9 9 9 z h.z.z.z.z.z.z.x.x.k.3   @ M M M M M M M M M M M M M M M M M S E.(.(.Q.%.m M M M M M M M M ",
"9 u J.K.K.K.K.K.J.y 9 D.S.t 9 9 9 t w - > w 0 t 9 7 9 t z h.z.z.z.z.z.z.z.z.z.z.5   O M M M M M M M M M H M M M V V V V V C ! ;.C V M M M M M M M M M ",
"9 u J.K.K.K.K.K.J.y 9 S.K.p t 9 9 9 e w t t t t 9 p s c h.z.z.z.z.z.z.z.z.z.z.k.% . + H M M M M M M V P U ) ) w.w.w.' ' ) ( / P V V M M M M M M M M M ",
"9 u K.K.K.K.K.K.J.y 9 s K.D.y 9 9 9 0 0 7 t y p F.F.c j.x.z.z.z.z.z.z.z.z.z.z.u.X . # M M H M C U ) d.m.B.C.C.B.B.N.M.M.M.m.b.v.' / / V M M M M M M M ",
"9 u K.K.K.K.K.K.J.y 9 p K.K.s 9 9 7 t t u A.F.K.S.z j.c.z.z.z.z.z.z.z.z.z.x.x.7.. o m M M M Q s.N.C.B.M.n.e.e.w.q.' w.w.e.w.e.w.w.) ' / b M M M M M M ",
"9 u K.K.K.K.K.K.J.y 9 y J.K.J.y t y p D.J.K.K.s w t.c.c.z.z.z.z.z.z.z.z.z.x.f.$ . # H M M P v.Z.Z.n.w.0.0.) 0.0.0.0.0.0.0.0.) 0.0.0.0.0.n @ H M M M M ",
"9 u J.K.K.K.K.K.J.y 9 y J.K.J.u s F.K.K.K.J.u w N p.c.c.z.z.z.z.z.z.z.z.x.k.L   X m M M M P n..XM.0.0.0.0.0.0.0.0.0.0.0.0.0.0.0.0.0.0.0.0.% # M M M M ",
"9 u J.K.K.K.K.K.J.y 9 9 p J.J.s J.K.K.K.D.y w - B i.c.c.z.z.z.z.z.z.z.z.x.u.X . # M M M M P b..Xn.0.0.0.0.0.0.0.0.0.0.0.0.0.0.0.0.0.0.0.0.T o b V V M ",
"9 u J.K.K.K.K.K.J.u 9 9 9 u s s F.J.K.s 9 0 2 H M i.c.c.z.z.z.z.z.z.z.z.k.3   O M M M M M C v..Xn.0.0.0.0.0.0.0.0.0.0.0.0.0.0.0.0.0.0.0.0.) % o b M M ",
"9 u K.K.K.K.K.K.J.y 9 9 9 9 s p y y u 9 9 9 f - M p.c.x.z.z.z.z.z.x.z.z.8.. X b M M M M M M d..Xd.0.0.0.0.0.0.0.0.0.0.0.0.0.0.0.0.0.0.0.0.q.n X b M M ",
"9 u K.K.K.K.K.K.J.y 9 9 9 9 D.K.D.s 9 9 9 9 9 0 > ~ l.x.z.z.z.z.z.x.x.u.o . # M M M M M M M v..Xd.0.0.0.0.0.0.0.0.0.0.0.0.0.0.0.0.0.0.0.0.0.Y . @ M M ",
"9 u K.K.K.K.K.K.F.y 9 9 9 t F.K.K.K.s 9 9 9 9 9 7 w #.l.c.x.z.x.x.x.u.O . + M M M M M M M P n.V.e.0.0.0.0.0.0.0.0.0.0.0.0.0.q.0.0.0.0.0.0.( + . @ M M ",
"9 u K.K.K.K.K.K.J.y 9 9 9 y F.K.K.K.K.S.y 9 9 9 7 7 0 g r.i.i.f.9.7.$ o # H M M M M M M M P s.v.0.0.0.( T T T T / ( ) 0.0.0.) ) 0.0.0./ Y @ . . b M M ",
"9 u J.K.K.K.K.K.J.y 9 9 9 9 s K.K.K.K.K.F.S.u 9 7 7 7 7 0 ; H M M m m M M M M M M M M M M M U ( H % + o o o o o o @ % n n Y Y Y n % + o . . + b M M M ",
"9 u K.K.K.K.K.K.F.0 9 9 9 9 y s S.S.H.c H.H.G.G.S.p p y 9 9 e - M M M M M M M M M M M M M M M M % o o % # b b m m m b # # @ @ + + o o % b b b V M M M ",
"0 u J.K.K.K.K.K.J.0 9 9 9 9 9 9 t 7 > K J E R 6 A l l k g > : : N M M M M M M M V M M M V M M M M M H M M M M M M M P H M M M M n P n P V M V V M M M "
};
