/* XPM */
static char *result[] = {
/* columns rows colors chars-per-pixel */
"75 75 194 2 ",
"   c #5F2D09",
".  c #5F3109",
"X  c #602E09",
"o  c #64320A",
"O  c #6B350B",
"+  c #6C3C0A",
"@  c #71370B",
"#  c #74390C",
"$  c #7C3D0D",
"%  c #6E3A11",
"&  c #763D11",
"*  c #793F11",
"=  c #5A4A0A",
"-  c #5D5808",
";  c #6E4008",
":  c #784F07",
">  c #73430A",
",  c #744908",
"<  c #7D4E0D",
"1  c #6F570C",
"2  c #655D0B",
"3  c #6A5A0C",
"4  c #7C5407",
"5  c #74540D",
"6  c #79510D",
"7  c #754116",
"8  c #7C4013",
"9  c #794419",
"0  c #7E491C",
"q  c #7B5911",
"w  c #466F07",
"e  c #476F08",
"r  c #4B6D08",
"t  c #556709",
"y  c #5C620A",
"u  c #526A09",
"i  c #5C6C0E",
"p  c #467008",
"a  c #4B730A",
"s  c #4F780E",
"d  c #52730B",
"f  c #5A740A",
"g  c #507A0E",
"h  c #5C7212",
"j  c #537D11",
"k  c #597A12",
"l  c #62630C",
"z  c #6A640C",
"x  c #626B0F",
"c  c #7F6E08",
"v  c #687807",
"b  c #627308",
"n  c #697408",
"m  c #767A08",
"M  c #7A7D08",
"N  c #676E12",
"B  c #786514",
"V  c #637214",
"C  c #687616",
"Z  c #6C7F1B",
"A  c #72751B",
"S  c #717A19",
"D  c #797321",
"F  c #803F0D",
"G  c #84410E",
"H  c #8C450F",
"J  c #844A0E",
"K  c #8C490F",
"L  c #825C07",
"P  c #81540F",
"I  c #8C510C",
"U  c #8C5C0B",
"Y  c #90570C",
"T  c #905B0B",
"R  c #814412",
"E  c #8E4610",
"W  c #8B4A11",
"Q  c #884A17",
"!  c #924C12",
"~  c #955312",
"^  c #9B5614",
"/  c #995A12",
"(  c #95521A",
")  c #9B561C",
"_  c #9F591B",
"`  c #A15618",
"'  c #A25A1B",
"]  c #AA5E1B",
"[  c #866206",
"{  c #8A6706",
"}  c #8A6806",
"|  c #926F06",
" . c #91630A",
".. c #936B08",
"X. c #877307",
"o. c #957206",
"O. c #9A7606",
"+. c #9E7906",
"@. c #9B7508",
"#. c #986712",
"$. c #987013",
"%. c #A17C06",
"&. c #A57D08",
"*. c #A16613",
"=. c #A56C14",
"-. c #AF611D",
";. c #A07714",
":. c #AA7515",
">. c #A27B15",
",. c #AE7B16",
"<. c #B17F16",
"1. c #854F21",
"2. c #8D5524",
"3. c #8F5827",
"4. c #9D5B24",
"5. c #955E2C",
"6. c #A05E27",
"7. c #946226",
"8. c #99612E",
"9. c #8B7328",
"0. c #92752E",
"q. c #9D6531",
"w. c #9C7E35",
"e. c #A4632B",
"r. c #A9672D",
"t. c #A16732",
"y. c #A36A35",
"u. c #AC6C34",
"i. c #A17D37",
"p. c #AC743A",
"a. c #A57C38",
"s. c #AB793B",
"d. c #B17237",
"f. c #B2773E",
"g. c #B3783E",
"h. c #BB7C3F",
"j. c #B57B43",
"k. c #BB7D41",
"l. c #568113",
"z. c #5A8515",
"x. c #5D8817",
"c. c #5F8A18",
"v. c #628E1A",
"b. c #6A881B",
"n. c #65921D",
"m. c #6A901F",
"M. c #6F8E22",
"N. c #738D23",
"B. c #7B8926",
"V. c #6B9020",
"C. c #8C8207",
"Z. c #968507",
"A. c #9B8607",
"S. c #A68307",
"D. c #AA8407",
"F. c #A48907",
"G. c #AD8A07",
"H. c #AE8708",
"J. c #B48D07",
"K. c #AB8516",
"L. c #AF8B17",
"P. c #B28417",
"I. c #B28B17",
"U. c #B5841B",
"Y. c #B58C18",
"T. c #BA8D18",
"R. c #B69219",
"E. c #B99619",
"W. c #BC9A1C",
"Q. c #8E842F",
"!. c #958132",
"~. c #C0971A",
"^. c #C39C1B",
"/. c #C7A11F",
"(. c #C8A11F",
"). c #C19B21",
"_. c #C4A323",
"`. c #C9A524",
"'. c #CDA927",
"]. c #CDAC2A",
"[. c #D1AE2B",
"{. c #CFB02F",
"}. c #D3B432",
"|. c #D6B936",
" X c #D9BA36",
".X c #DBBD39",
"XX c #BC8046",
"oX c #BC824B",
"OX c #BF8752",
"+X c #C38B55",
"@X c #C58F5A",
"#X c #C6905D",
"$X c #C8925E",
"%X c #C89461",
/* pixels */
"r e e r r p p p r p r p p e e e e e e e e e e e e e e e e e e p e e e e e e e e e e e e e e e e e e e e p r p e e e e e e e e e e e e e e e e e e e e ",
"a e e w p p r p r p p p e e e e e e e e e e e e e e e e e e e e e e e e e e e e p e e e e e e e e e e e e e p e e e e r e e e e e e e e p p e e p a a ",
"c.z.l.s a p p p e e e r p r e e e e e e e e e e e e e e p e p p e e e e e e e e e e e e e r p e e e e e e e p r p p s a s s j j l.l.l.x.v.x.x.v.x.v.v.",
"v.n.n.n.v.v.x.l.j g s p p p e e e e e e e e e e e e e e p p p p e e e e r e e e e p r e p a a s s s j j l.z.z.c.v.v.v.v.v.n.n.n.n.n.n.n.n.n.n.n.n.n.m.",
"n.n.n.n.n.n.n.n.n.n.n.v.v.x.z.l.j j j g g s s a s a a s a a s a s s s j j j j l.l.x.x.c.c.v.v.v.v.n.n.n.n.n.n.n.n.n.n.n.n.n.n.n.n.n.n.n.n.n.n.n.n.n.n.",
"v.n.n.n.n.n.n.n.n.n.n.n.n.n.n.n.n.n.n.n.n.n.v.n.v.v.v.v.n.n.v.v.v.n.v.n.n.n.n.n.n.n.n.n.n.n.n.n.n.n.n.n.n.n.n.n.n.n.n.n.n.n.n.n.n.n.n.n.n.n.n.n.n.n.n.",
"m.n.n.n.n.n.n.n.n.n.n.n.n.n.n.n.n.n.n.n.n.n.n.n.V.n.n.n.n.n.n.n.n.n.n.n.n.n.n.n.n.n.n.n.n.n.n.n.n.n.n.n.n.n.n.n.n.n.n.n.n.n.n.n.n.n.n.n.n.n.n.n.n.n.n.",
"v.m.n.n.n.n.n.n.n.n.n.n.n.n.n.n.n.n.n.n.n.n.n.n.n.n.n.n.n.n.n.V.n.n.n.n.n.n.n.n.n.n.n.n.n.n.n.n.n.n.n.n.n.n.n.n.n.n.n.n.n.n.n.n.n.n.n.n.n.n.n.n.n.n.n.",
"v.n.n.n.n.n.n.n.n.n.n.n.n.n.n.n.n.n.n.n.n.n.n.n.n.n.n.n.n.n.n.n.n.n.n.n.n.n.n.n.n.n.n.n.n.n.n.n.n.n.n.n.n.n.n.n.n.n.n.n.n.n.n.n.m.n.n.n.v.n.v.n.v.v.v.",
"u s l.z.x.v.n.n.n.n.n.n.n.n.m.n.n.n.n.n.n.n.n.n.n.n.n.n.n.n.n.n.n.n.n.n.n.n.n.n.n.n.n.n.n.n.n.n.n.n.n.n.n.n.v.n.v.v.c.c.z.l.l.j g g s s a a a a a a a ",
"u p r p p a s j l.x.c.v.n.n.n.n.n.n.n.n.n.n.n.n.n.n.n.n.n.n.V.n.n.n.V.n.n.n.n.n.n.n.n.n.v.v.v.c.c.z.l.j j j s a a p p p e p p r e e e e p e e e p e r ",
"r e p p r p e e p p p a a s g l.l.z.x.x.c.c.c.v.v.v.v.v.v.c.v.c.c.c.c.x.z.z.z.l.j j g j s s p p p e e e e e e e e e r p e p r p e e e e p p e e e e p ",
"u e e e e e r e e e e e p e e e e e e p p p a a a a a a a a a a p p p a p r p e e e e e e e e e r e e e p r p e e p e e e r p p e e e e e e e e e e e ",
"u e e e e e p p e e e e p e e e e e e e r e e e p p p p e e e e p p r p p p p r e e e e e r e e p p p r e e p e e p r e e e e e e e e e e e e e e e e ",
"u e e e e e e e e e e e r p p p e e r e p p e e e e p p e e e e p r p p e e e e e e e e e e e e e e p e e e e e e e e e e e e e e e e e e e e e e e e ",
"u e e e e w r a g s e w g x.v.v.z.j g s a p e e e e e e e e e e p p p r e e p e e e e e e e e e e e p e e e e e e e e p e e e e e e e e e e e e e e e ",
"u e r p p p l.n.v.g e p c.n.n.n.n.n.n.v.c.c.z.j j s r e e e e e e e e e e e e e p p e e e e e p e e e e e e e e e e e p e e e e p p e w r p e e e e e ",
"u e p p r j n.n.l.p j s g v.n.m.n.n.n.n.n.v.v.c.z.j a e e e e e r e e e p e e e e r e e e e e p e e e e e e e e e e e w e e e e p p p p p p e w p p e ",
"- e w r a v.n.x.r p c.x.p a j x.z.l.g g g s p p e e e e e e e e p p e e e r e e e e e p e e e r e e e e e e e e e e r p p p e r u u u y y y l 2 2 3 2 ",
"W 5 - a z.n.v.s w s v.n.l.p p p p e r w e p p p e e e e e e e e e e e w p p e e e e e e e e e e e p p r e e e e p e r u y 2 1 5 6 J G H H H H H H H H ",
"H H K B n.v.g e e g n.n.v.p p p e e e e e e e e e e e e e e e e e e e e p p e e e e e e e e e e e e e e e e r u l 5 < J H H H H H H H H H H H H H H H ",
"H W P b.b.P 1 u p a v.n.n.j e r e e e e e e e e e e e e e e e e e e e e r e e e e e e e e e e e e e e r t 2 6 J H H H H H H H H H H E E H H H H H H H ",
"H W S S W H H Q 9.V j n.n.x.p p e e e e e e e e e e e e e e e e e e e e e e e w r p e e e e w p e u 2 5 G H H H H H H H H H H H ! ] ] ] ` ! E E H H H ",
"H B B W H H H r.k.s.0.B.n.v.s e e e e e e e e e e e e e e e e e r e e p e e e p p e e e e e r y 5 J E H H H H H H H H H H H H ! ] ' ] ] -.-.] ! H H H ",
"H K H H H F ( d.k.f.j.p.N.n.c.p w r e e e r p e e e e e e e e e p p e e e e e e e e w p u 2 < H E E H H H H H H H H H H H H H ~ ' _ _ _ _ ' -.^ H H H ",
"H H H H H H ) f.f.f.f.f.i.N.n.Z V r w e e p p e e e e e r w e e e e w p e e e e w e y 5 J H H H H H H H H H H H H H H H H H H Q _ _ _ _ _ _ ' ` H H H ",
"H H H H E E 4.p.f.f.f.f.f.!.V.N.i.0.A h r p p p p e e e w w w w e e e p e e r r 2 6 K H H H H H H H H H H H H H H H H H H H G R _ _ _ _ _ _ ' ' E H H ",
"H H H H E F ( p.f.f.f.f.f.f.!.V.Q.s.p.p.0.D h u e e e e w w w w p p p r r y 5 J H H H H H H H H H H H H E H H H H H H H H H G $ ) ' _ _ ' _ _ _ H H H ",
"H H H H H H Q j.f.f.f.f.f.f.f.!.n.Q.f.f.j.f.p.i.9.D A V h h h u u y 2 5 J H H H H H H H H H H H H H H H H H H H H H H H H H H # G _ _ _ ( W W E H H H ",
"H H H H H H & y.f.f.f.f.f.f.f.f.!.M.w.f.f.f.f.f.j.j.f.p.p.a.7.R J H H H H H H H H H H H H H H H H H H H H H H H H H H H H H H G O @ > # # @ # H H H H ",
"H H H H H H + Q p.j.f.f.f.f.f.f.p.w.B.a.f.g.f.f.f.f.f.f.p.q.& E H H H H H H H H H H H H H H H H H H H H H H H H H H H H H H H H G F $ 8 H H H H H H H ",
"H H H H H H # X 0 y.f.f.f.f.f.f.j.f.!.Q.p.g.f.f.f.f.f.p.3.O # E H H H H H H H H H H H H H H J K H H H H H H H H H H H H H H H H H H H H H H H H H H H ",
"H H H H H H F o   % 3.u.g.f.f.f.f.f.f.i.i.f.f.f.f.f.t.9 X O F H H H H H H H H H H H H H H H 5 5 H H H H H H H H H H H H H H H H H H H H H H H H H H H ",
"H H H H H H H F o   o 7 5.p.f.f.f.f.f.f.f.f.f.f.f.q.O X O $ H H H H H H H H H H H H H H H H 6 y H H H H H H H H H H H H H H H K H H H H H H H H H H H ",
"H H H H H H H H 8 O     o 9 8.p.f.f.f.f.f.f.f.f.y.% X # G H H H H H H H H H H H H H H H H F J u < H H H H H H H H H H H H H H H H H H H H H H H H H H ",
"H H H E H H H K H G $ O X X o 8 5.p.f.f.j.f.j.p.9 O $ H H H H H H H H H H H H H H H H H H E P r 3 H H H H H H H H H H H H H H H H H H H H H H H H H E ",
"H H H H H H H H H H H G $ o X X X % 1.5.y.y.q.9 o F E H H H G H F E E ! ! ! ! ( ! H H H H H < r f J H H H H H H H H H H H H H H H H H H H H H H H H H ",
"H H H H H H H H H H H H H G $ o X X X X o O X X R ) 4.4.e.r.u.u.d.d.j.j.k.+Xk.k.d.6.H H H H < r j B H H H H H H H H H E J H H H H H H H H H H H H H H ",
"H H H H H H H H H H H H H H H G $ O X X X X X 2.j.+X#X%X%X%X%X$X$X#X+X+X+X@X@Xk.XXd.E H H H < r j C J H H H H H H H H 5 1 H H H H H H H H H H H H H H ",
"H H H H H H H H H H H H H H H H H E F $ # # Q OX%X+XOXoXoXoXXXj.k.k.k.k.k.k.k.k.XXd.! H H H < u g v.q H H H H H H H J u 1 H H H H H H H H H H H H H H ",
"H H H H H H H H H H H H H H H H H H H H H H 6.$XOXj.p.f.f.f.f.f.j.f.k.h.h.h.h.h.h.d.E H H H J r a v.C H H H H H H K y r 6 H H H H H H H H H H H H H H ",
"H H H H H H H H H H H H H H H H H H H H H H e.@XOXj.p.j.f.f.f.f.d.j.g.h.h.h.h.h.k.r.H H H H J r p x.v.6 H H H H H 3 r r < H H H H H H H H H H H H H H ",
"H H H H H H H H H H H H H H H H H H H H E E 6.+X@Xj.f.f.f.f.f.f.f.f.g.k.h.h.k.k.d.) H H H H < u p l.n.N H H H H 6 r e u J H H H H H H H H H H H H H H ",
"H H H H H H H H H H H H H H H H H H H H H F ( j.@XOXf.f.f.f.f.f.f.j.d.g.g.f.t.1.# G E H H H J u p j n.x.6 H E J t e e t H H H H H H H H H H H H H H H ",
"H H H H H H H H H H H H H H H H H H H H H H # 5.j.%Xj.j.f.f.f.f.f.j.j.t.2.7 O O F H H H H H J u r s n.v.x H K y e e e y H H H H H H H E H H H H H H H ",
"H H H H H H H H H H H ! ` :.<.<.:.=.*.^ ! H # O 3.j.@Xj.f.f.f.f.f.q.0 O X O $ H H H H H H H J u p a c.n.k 6 1 r e e e 2 H H H H H H H H H H H H H H H ",
"H H H H H H H H H H ~ P.^.^.^.^.^.^.^.~.T.P.#.# X 9 y.j.f.f.f.f.q.O X O * E H H H E H H H H K u p p z.V.z.u r e e e e 1 H H H H H H H H H H H E H H H ",
"H H H H H H H H H H <.^./.`.'.[.'.'.'.`.^.^.~.:.* o O 1.y.p.j.p.* X @ R E G H H H H H H H E H y p p s v.l.e e e e e r 6 H H H H H H H H H H H H H H H ",
"H H H H H H H H H ^ ~.'. X.X.X.X.X.X.X.X|.[./.~./ F @ X O 9 Q 7 . = u t t i l 3 5 6 J K H H E 5 r e e s g w e e e e r J H H H H H H H H H H H H H H H ",
"H H H H H H H H H =.[. X.X.X.X.X.X.X.X.X.X.X}./.*.H G F @ o o X = r e e p a j z.z.k f i z 5 6 y p p e e p p e e e e r J H H H H H H H H H H K E H H H ",
"H H H H H H H H H U. X.X.X X}.[.{.{..X.X.X.X X(.<.H H H H G F F G 5 y r p p e p j z.n.n.v.x.g e e e e e e r e e e e y H H H H H H H K K Y T ..T H H H ",
"H H H H H H H H ~ ~. X.X}._.E.E.E.W._.|..X.X X(.P.E H H H H H H E E E < 2 u r e p p s k v.v.v.l.p e e p e e p e e u 5 < 5 5 5 < < U ..@.&.%.o...I H H ",
"H E H H H H H H / _..X}.~.E.E.E.E.E.E.{..X.X|._.T.! H H H H H H H H H H H J 1 t r e e e e g z.x.j r r e e e e e r r r r e e r w r f b m A.F.O.} T K H ",
"H H H H H H H H *.`.|._.E.E.E.E.E.E.E._.|..X|._.T.~ H H H H H H H H H H H H H H 6 l r e e e e e a a k a e e e e e e r e e e e e w w w w w f m X...I H ",
"H H H H H H H H :._.{.E.E.E.E.E.E.E.E.W.|..X|._.P.I H H H H H H H H H H H H H H E E J y p e p p s c.c.p e p w e e e e e w p e e w w f v C.A.F.D.%.Y H ",
"H H H H H H H K ,.W._.E.E.E.E.E.E.E.E.W.}..X|.W.K.H H H H H H H H H H H H H H H H J 2 r p p p s c.n.z.y y p e e e e e e w p d b M Z.G.J.H.%.O.} } T H ",
"H H H H H H H K P.W.W.E.E.E.E.E.E.E.E.W.}..X|.W.$.G H H H H H H H H H H H H H H J y p e p e s n.n.n.l.z } c n f p d f v M C.F.G.J.S.+.| } } { } }  .K ",
"H H H H H H H ! I.E.E.E.E.E.E.E.E.E.E.W.}..X}.W.#.G H H H H H H H H H H H H H H 2 e w e w u V n.n.n.l.b O.&.H.F.Z.A.D.J.J.J.S.+.o.} { { } } { } } } K ",
"H H H H H H H ~ Y.E.E.E.E.E.E.E.E.E.E.).|..X{.R.P G H H H H H H H H H H H H H 5 e e w p r 5 C n.n.n.g b J.J.J.J.J.J.J.D.+.o.} } { } } } } } } } } } I ",
"H H H H H H G ~ R.E.E.E.E.E.E.E.E.E.E._..X.X].K.> H H H H H H H H H H H H E J t p e e p 2 J V n.n.n.a v J.J.J.J.D.%.| } } } } } } } } } } } } } } } Y ",
"H H H H H H H / R.E.E.E.E.E.E.E.E.E.E._..X|.W.$.# H H H H H H H H H H H H H 5 e e e e 2 J J b.n.n.z.a C.J.J.H.o.} } { } { } { } } } } } } } } } } { I ",
"H H H H H H H / E.E.E.E.E.E.E.E.E.E.E.]..X].R.< $ E H H H H H H H H H H H J u e e r 1 H H < l.n.n.a v G.J.J.| { } } } { } } { } } } } { } } { } } } I ",
"H H H H H H H / E.E.E.E.E.E.E.E.E.E.E.}..X_.;.O G H H H H H H H H H H H H 1 e e t 6 H H H 5 x.n.z.a Z.J.J.D.} } } } } } } { } } } { } } } } } } { { J ",
"H H H H H H H / R.E.E.E.E.E.E.E.E.E.W.|.].R.P O E H H H H H H H H H H H J u r 2 J H H H E 1 v.v.s n J.J.J.H.X.} } } { } } } } { } } } } { } } } { [ J ",
"H H H H H H H / E.E.E.E.E.E.E.E.E.E.W.|._.>.O $ K G H H H H H H H H H K 2 u 6 H H H H H E 3 v.z.a X.D.J.J.J.O.} } } } } } } } } } } } } } } { } } U G ",
"H H H H H H H / R.E.E.E.E.E.E.E.E.E.`.}.E.P o 8 H H H H H H H H H H H < 2 J E H H H H H E l v.s - L +.J.J.J.H.} } } { } } } } { } } } { } } } } } L > ",
"H H H H H H H ~ T.E.E.E.E.E.E.E.E.R.`.].;.O O H H H H H H H H H H H J J G H H H H H H H H i l.u > , o.J.J.J.J.%.} } } } } } } } { } } } } } } } } : G ",
"H H H H H H H K T.E.E.E.E.E.E.E.E.W._.W.<   # H H H H H H H H H H H K H H H H H H H H H H f s 5 F O 4 %.J.J.J.S.} } } } { } } } } } } } } { } } [ > G ",
"H H H H H H H H P.E.E.E.E.E.E.E.W.E.W.$.O o $ H H H H H H H H H H H E H H H H H H H H H J u t K H # + L D.J.J.O.} { } } } } } } } } } } } } } { 4 # H ",
"H H H H H H H H :.E.E.E.E.E.E.R.L.L.K.6   O H H H H H H H H E H H H H H H H H H H H H H J u 6 H H K O + { S.D.} } } } } } { { [ [ L L 4 : , , ; o F H ",
"H H H H H H H H #.E.E.E.L.$.P > ; + + o . @ E H H H H H H H H H H H H H H H H H H H H H 5 2 H H H H G O , [ [ L 4 4 : , , + + O o o X X X       O H H ",
"H H H H H H H H ~ ;.$.P + X X X       .   * E E H H H H H H H H H H H H H H H H H H H H 6 < H H H H H G o o o o X X X X X X X X o o O O @ # # $ G H H ",
"H H H H H H H H H O X X X X   X X X X X @ H H H H H H H H H H H H H H H H H H H H H H H K H H H H H H H $ X o O O O @ # $ $ F F G K G H H H H H H H H ",
"H H H H H H H H G O X o o O O O @ # $ F K H H H H H H H H H H H H H H E H H H H H H H H G H H H H H H H H G G H H H H H H H H H K H H H H H H H H H H ",
"H H H H H H H H H H G F G G H H H H E H G H H H H H H H H H H H H H H H H H H H H H H H H H H H H H H H H H H H H H H H H H H H H H H H H H H H H H H "
};
