/* XPM */
static char *_81744d5a06049418a32318693153476guZKsqwBczu2DtNI[] = {
/* columns rows colors chars-per-pixel */
"72 72 151 2 ",
"   c None",
".  c #848C9B",
"X  c #87909E",
"o  c #89919E",
"O  c #8C94A3",
"+  c #9097A6",
"@  c #9299A7",
"#  c #949CAA",
"$  c #989FAD",
"%  c #97A0AD",
"&  c #9AA1AE",
"*  c #9DA5B1",
"=  c #9FA8B3",
"-  c #A0A7B3",
";  c #A3AAB6",
":  c #A6ADB9",
">  c #A9AFBA",
",  c #A7B0BC",
"<  c #ACB2BD",
"1  c #B0B5BF",
"2  c #AEB5C0",
"3  c #B1B6C1",
"4  c #B4BAC5",
"5  c #B8BEC7",
"6  c #B6BDC9",
"7  c #B9BFC9",
"8  c #BDC2CC",
"9  c #BEC5D0",
"0  c #BFC5D0",
"q  c #BEC5D1",
"w  c #BFC5D1",
"e  c #BEC6D0",
"r  c #BFC6D0",
"t  c #BFC7D0",
"y  c #BEC6D1",
"u  c #BFC6D1",
"i  c #BFC7D1",
"p  c #BDC5D0",
"a  c #BFC5D0",
"s  c #C0C5CD",
"d  c #C0C5CF",
"f  c #C1C6CE",
"g  c #C3C8CF",
"h  c #C0C5D0",
"j  c #C0C5D1",
"k  c #C0C6D0",
"l  c #C1C6D0",
"z  c #C0C7D0",
"x  c #C1C7D0",
"c  c #C0C6D1",
"v  c #C1C7D1",
"b  c #C2C7D1",
"n  c #C0C6D2",
"m  c #C1C6D2",
"M  c #C0C7D2",
"N  c #C1C7D2",
"B  c #C0C7D3",
"V  c #C2C7D3",
"C  c #C2C7D0",
"Z  c #C1C8D1",
"A  c #C2C9D1",
"S  c #C1C8D2",
"D  c #C2C8D2",
"F  c #C3C9D2",
"G  c #C2C8D3",
"H  c #C3C8D3",
"J  c #C2C9D3",
"K  c #C3C9D3",
"L  c #C3CAD2",
"P  c #C4C9D1",
"I  c #C4C9D3",
"U  c #C4CAD3",
"Y  c #C5CAD3",
"T  c #C2C8D4",
"R  c #C2C9D4",
"E  c #C3CAD4",
"W  c #C5CAD4",
"Q  c #C4CBD4",
"!  c #C5CBD4",
"~  c #C6CBD4",
"^  c #C6CCD5",
"/  c #C7CCD6",
"(  c #C7CDD6",
")  c #C5CAD2",
"_  c #C8CDD6",
"`  c #C8CDD7",
"'  c #C8CED6",
"]  c #C8CFD7",
"[  c #C9CFD7",
"{  c #CACED6",
"}  c #CACFD6",
"|  c #CACFD7",
" . c #CBCFD7",
".. c #C9CED5",
"X. c #C7CDD8",
"o. c #CACFD8",
"O. c #CACFD8",
"+. c #CBD0D7",
"@. c #CBD1D7",
"#. c #CCD0D7",
"$. c #CBD0D8",
"%. c #CBD0D9",
"&. c #CBD1D9",
"*. c #CCD0D8",
"=. c #CDD1D8",
"-. c #CCD1D9",
";. c #CDD1D9",
":. c #CDD2D9",
">. c #CDD1DA",
",. c #CDD2DA",
"<. c #CED2DA",
"1. c #CED3DA",
"2. c #CED2DB",
"3. c #CED3DB",
"4. c #CFD3DB",
"5. c #CFD4DA",
"6. c #CED2D9",
"7. c #D1D4DB",
"8. c #D0D4DC",
"9. c #D1D4DC",
"0. c #D0D5DC",
"q. c #D1D5DC",
"w. c #D1D6DC",
"e. c #D1D6DD",
"r. c #D3D6DC",
"t. c #D2D7DD",
"y. c #D3D7DE",
"u. c #D4D7DD",
"i. c #D2D6DC",
"p. c #D4D8DD",
"a. c #D4D8DE",
"s. c #D4D8DF",
"d. c #D5D8DF",
"f. c #D5D9DF",
"g. c #D6D9DE",
"h. c #D6D9DF",
"j. c #D6DADE",
"k. c #D6DADF",
"l. c #D7DADF",
"z. c #D7DBDF",
"x. c #D5D8DE",
"c. c #D6D9E0",
"v. c #D7DAE0",
"b. c #D7DBE0",
"n. c #D7DAE0",
"m. c #D9DBE1",
"M. c #D9DCE1",
"N. c #DADDE2",
"B. c #DDE0E5",
"V. c #DEE1E5",
"C. c #DEE1E8",
/* pixels */
"                                                                                                                                                ",
"                                                        8 8 < < = : ; ; ; - ; = : > 6 7                                                         ",
"                                                  5 < 2 5 0 p 8 8 q 0 0 0 p 0 p p 8 6 2 ; - 3                                                   ",
"                                            8 3 4 8 p F ^ ^ X.^ ^ Q Q l p w 0 p 6 6 p w V p 6 : - 4                                             ",
"                                        7 3 8 0 T ^ O.-.-.-.%.+.Q q p q 0 l 0 p O.w 0 0 8 8 8 4 8 2 % 2                                         ",
"                                    8 4 8 T  .-.4.c.y.y.7.-.T F l q 7 6 5 p p 6 X.p 6 p p p p 8 6 6 2 2 = 2                                     ",
"                                  6 0 T ^ 3.l.l.t.l.-.4.F F f l 8 8 8 p 0 q 0 0 7 p p p p 6 8 X.w p p 6 6 2 %                                   ",
"                              8 5 ^ ^ 3.y.v.7. .-.%.%.8 F F t 8 8 7 8 6 8 0 w T p p p p p 4 3 4 p p p 6 q w 2 * 2                               ",
"                            5 0 F y.v.l.l.' ' ' ' ^ 8 T F 0 p 8 6 7 6 w F t 8 5 , ; - * - : * & & % & * : 6 3 7 q >                             ",
"                          4 l -.t.l.v.t.y.%.y.@.Q P -.F F V 0 8 w p R 6 < - = & & $ % $ & ; : - 2 * ; % % % # % % 2 #                           ",
"                        7 l -.y.l.l.l.l.N.y.-.-.@.l.C.8 8 l T 0 T 6 6 > & # % @ + + + # @ & : ; * ; : % * % $ $ + * X #                         ",
"                      l T -.l.l.l.N.N.m.l.y.7.Q O.-.T 4 Q O.^ l 4 > 2 2 : : @ + + + # + % = - ; = * * * % # & = @ = = % #                       ",
"                    5 T 3.v.N.m.V.N.N.l.9.9.Q ' 3 2 5 0 P Q 8 3 2 2 < < < < - & % & & - - ; ; ; ; ; * * * $ $ ; # @ $ * + X                     ",
"                  5 5.z.m.N.N.V.C.N.l.7.7.~ m l 0 p 6 p 4 < > 4 2 : : - > : - - = = : > > : : ; ; * * - * * $ # * @ # @ # * @                   ",
"                8 0 z.z.N.B.V.V.m.u.7. .~ Q q q p 8 8 2 - : < 1 3 : : : : ; - - - - : : : > : ; ; ; * ; * = % X O @ % O O $ O *                 ",
"              f 0 X.l.B.N.C.N.m.u.7. .~ ~ P q p 7 6 ; = * & > < 2 > ; > - ; : - : - - - ; : > : 2 : ; : = = * O . . O ; * % @ . >               ",
"              f Q y.b.V.V.N.l.t.7.7.-.' ' l q 7 4 * & - * - : < 1 > : : : ; : : > ; ; ; > > > > : 2 ; : - : - + o X . . $ $ : # O               ",
"            8 O.y.N.N.V.V.v.y.t.7.-.' ' P l p 5 - * - : * : < < > > > : : ; : > > ; > - ; ; > > ; : : : > - - $ O . . X # # # # . #             ",
"          P Q ^ N.N.V.C.V.b.t.4.-.+.+.^ T T 6 - - - - < < 1 < 1 1 > > > : : > > > > > ; ; ; ; > ; : 2 ; > > : : $ + o + $ + & # O O 2           ",
"          8 Q y.N.B.N.N.b.c.4.4.-.+.^ P V l ; - - : : < 1 4 4 5 4 1 1 > > : < > > > > - - - - - ; - - : < : : > : & + O * * 3 & # # +           ",
"        f T %.v.N.N.N.B.v.%.%.%.-.' Q F 0 < : : : : : < 3 3 3 5 4 1 < < 1 1 1 1 1 > : - - - - & * * ; ; > > > 2 > > 4 - - - ; - 2 % X 2         ",
"        8 O.4.v.b.b.N.N.4.+.%.%.' O.Q T 2 , : : > < 1 1 4 4 4 4 4 5 1 1 1 1 3 1 1 > > ; - * $ & & & & & - : > > 2 > > > ; ; - & @ * + @         ",
"      P Q l.l.l.t.c.n.4.%.] O.%.' Q ^ 4 > > > > > 1 3 4 7 7 5 5 7 4 3 3 4 5 5 5 1 1 > : - * & & & & * & - - ; > > : ; ; ; ; - > + * ; # 4       ",
"      8 T %.t.t.t.4.%.^ ^ X.] ^ Q ^ 8 , > , < < < 1 4 4 7 7 7 7 7 4 3 5 5 5 5 5 5 1 > > ; - * & & - * * * - ; : 2 ; ; : ; ; ; 2 = * * # #       ",
"      8 Q  .u.y.%.O.Q Q ^ F Q ^ ~ V 2 > < < < < < 3 4 4 7 8 7 7 8 5 8 8 8 8 8 s 7 5 1 < : - - * & - - - - - ; : > ; - - > > - - 2 ; & @ O       ",
"    F %. .-.y.7.^ ^ 0 8 T T ^ X.Q 4 < 2 1 1 3 3 3 3 4 5 7 8 s s s 8 8 8 s 8 s 8 5 5 1 1 < > : - ; ; ; : : : : > 2 > : - * & - * = ; * @ + 2     ",
"    8 -.-.7.y.9.' l 2 : 8 T ^ T 8 > < < 1 3 3 3 3 4 4 7 8 s s s s s f f s s s s f 8 5 1 1 1 ; ; ; : : < 1 < 1 4 2 < ; - - - * - * * * & + &     ",
"    7 Q ' -.3.-.P 5 , > 4 X.^ F 2 2 2 3 3 3 3 4 4 4 7 8 8 8 s f f f f f l l s P f 8 5 5 3 1 3 > > > < 1 1 1 4 3 2 2 2 ; ; : - - * ; & % % +     ",
"   .l -.O.-.-.-.T < < < 3 O.%.5 2 2 3 3 4 4 4 5 5 5 5 8 8 8 8 f P g g g P P P P g f 8 8 5 5 3 1 1 1 1 s 7 7 7 7 4 3 < , < ; - - * 2 * = = @ 5   ",
"  P Q -. .'  .O.8 < 1 3 < ' T 2 < 3 3 3 4 4 4 7 7 7 5 8 8 8 f l P P P g P P P P ~ g g f s 5 4 4 1 4 4 s 8 8 8 7 5 4 1 < < : : : - 6 = : & @ 2   ",
"  8 ' O.7.' ~ Q 2 < 2 3 3 X.4 3 3 3 3 4 4 4 4 4 7 7 8 7 8 8 f P P ~ g ..~ ~ ~ P ~ ~ ~ P s s s s 7 4 f f f s 8 8 7 5 4 < < > : : = 6 ; ; > # :   ",
"  8 y.-.-.P Q H < 2 3 3 4 8 3 4 4 4 6 4 4 7 7 7 8 8 8 8 8 5 P P ~ ~ ~ ..~ ~  .....~ ~ ..~ P g g g g g f f f s 8 5 > < 1 < , : > ; 2 4 * & & -   ",
"  3 c.y. .O.l m 2 3 3 3 5 5 4 5 7 5 5 5 5 7 7 8 7 s 8 j 7 5 7 m ~ 8 g ) { { =. .........~ ....~ g g P g f f f s 4 < 3 4 1 < > > : > 2 * # * #   ",
"  3 X. .-.~ V 7 < 3 3 3 5 4 5 5 7 7 7 5 7 8 8 8 f f m g g 5 4 4 4 5 s ) { {  .=...#...........~ g g 7 s ~ P f f 4 1 3 5 3 3 < < : : 3 < * * @   ",
"  6 X. . .' j 3 > 3 3 4 5 4 5 8 s 7 8 7 7 8 8 8 f 8 g g g 8 4 4 4 5 8 {  .=.=.=.#.@.#.#. . ...~ s s s 7 P f f s s s 7 5 5 3 < < : : < > : * O   ",
"  4 O.7. .~ j 3 > 3 4 5 4 5 8 f f 7 7 7 8 8 f f f f g g g W g 7 8 s { =.=.=.=.7.@.#.#.#. .=.=. . .g 7 4 5 s s s 7 s s s 7 4 3 3 < : 2 > < * $   ",
"  4 O.%.{ I V > > 2 3 7 4 5 7 f f f 7 7 8 C C C C g g ..g ........{ =.=.=.=.=.7.7.#.5.5.=.=.=.@. . .7 5 4 5 3 7 s 7 s s 8 4 1 3 < 2 3 > 2 = $   ",
"  4 %.%.*.I l > > < 3 5 5 5 5 8 8 f f g C g g W g g g W ....~ *.=.=.=.=.=.=.=.7.7.7.7.#.=.7.=.=.=.=.g 5 4 3 3 3 5 7 s s 5 3 3 8 2 4 6 > $ * &   ",
"  3 ^ %...I l - > < 4 7 4 5 5 7 f 8 f f g C g { ) { { ......*.=.=.=.=.=.7.7.7.7.r.7.7.7.r.=.=.7.=.=. .s 4 4 < 1 1 4 s g 7 4 4 3 4 4 2 3 $ * $   ",
"  3 ^ -.{ H j - - 3 7 4 5 4 7 f 8 8 f f f g g g ) ) { ) ..*.=.=.=.=.7.=.7.7.7.7.p.7.7.7.7.r.7.=.7.=.7...g 5 1 1 1 4 s P s 7 7 4 7 4 3 8 2 * *   ",
"  8 Q 3.%.Q 8 = ; < 7 7 5 3 8 8 7 8 8 f f C f g { ) ........=.=.=.7.=.r.7.r.7.r.7.r.r.r.r.r.r.7.7.5.7.=.=.~ 7 5 7 7 7 ..g s s 4 5 3 4 4 4 * >   ",
"  5 X.4.%.^ 6 = > 4 8 4 7 < 7 7 7 8 8 f f f f f P ........{ ..*.7.7.7.r.7.7.r.r.r.m.r.r.r.r.r.7.7.7.7.=.=.7.....~ ..g  .s s s ~ 7 4 8 = > * 2   ",
"  g P y.3.O.4 * > < 3 3 5 4 < 4 5 8 C g g g C C C ..............7.=.7.7.7.r.r.r.d.g.g.r.u.u.r.u.7.7.7.7.=.r.@. .=...~ ~ P s s P 7 5 4 = ; = 7   ",
"  ' 8 3.4.X.7 : > < 3 3 1 $ 3 3 4 5 8 C g f f f C C C ..........=.{ =.r.d.7.d.d.r.g.g.g.u.u.u.u.r.r.r.7.r.r.7.@. .....g P P s s 8 7 6 : ; = q   ",
"    4 3.c.3.6 > < < < > 3 3 3 5 5 4 5 8 C C C 8 f g ~ ..{ { ....g { { u.u.u.d.d.g.g.m.u.u.d.d.d.r.r.r.r.7.r.7.@.=. ...~ g P s s 8 7 4 2 ; =     ",
"    2 O.3.4.8 : > > > 3 1 5 3 5 7 8 7 5 g C C f g ) ~ ..g { { ..f { { r.u.u.d.u.u.g.g.m.d.d.d.d.r.p.p.r.7.u.7.@.=. ...~ P s s s 7 5 2 ; & ;     ",
"    8 0 X.4.X.2 > > ; 1 > > 3 5 5 f 8 8 f C f C P P g { ~ g ~ f f { 7.r.u.u.u.m.g.g.c.m.d.d.d.d.p.p.r.r.7.u.r.=.=.=.~ ~ ~  .m ~ 7 7 4 > = 7     ",
"      4 R 3.3.5 > > > < 3 > 3 5 4 5 8 f f f g g P g g ~ f f f f f g 7.7.u.u.u.u.u.c.g.m.l.l.l.d.l.p.p.r.r.r.7.7.=.=.7.'  .P P ~ 3 q > > ;       ",
"      3 Q T 4.8 < < > , , < 3 5 7 5 7 7 s s s P P P P P ~ ~ g f g 8 g #.y.t.7.l.l.u.u.l.v.u.v.v.l.t.l.7.l.r.7.5.5.5.#.g ~ ~ g 8 5 4 ; > 2       ",
"      l 8 T ] X., , : 3 > < 4 4 8 8 5 5 7 7 s s g s s g g ~ ~ 8 8 g g ..@.r.l.l.t.l.l.v.v.l.l.t.t.l.t.l.p.r.7.7.@.l.+.g ~ g ~ 8 8 < ; > 8       ",
"        < F X.4.4 < > < < < 1 8 7 8 7 4 7 s s s s P P s g g g f 8 g ~ ..-.l.p.p.l.l.c.y.v.m.t.l.l.l.l.r.z.r.7.7.7.5...~ +.~ g 8 8 : > >         ",
"        8 8 T T 8 < < < 3 < < 5 7 8 7 4 4 7 7 s s s s s f f f f g ~ ....5.7.p.p.l.t.c.v.v.v.v.l.7.l.t.r.p.r.7.7.7.#.~ ~ +.g 8 ~ 4 2 > 8         ",
"          < p T 8 1 < < 1 3 4 5 5 5 5 4 4 5 5 8 7 8 7 g g s s f g ....7.r.p.r.p.u.t.l.u.l.t.m.t.l.r.p.p.r.r.7.7.=. .' ' P f P 3 2 : ,           ",
"          8 6 0 l 4 < > , 1 3 8 8 4 3 4 4 4 4 5 8 7 7 7 s s f f g g 7.7.7.l.7.p.7.l.u.u.t.l.v.v.l.t.p.=.~ 7.=.=.....~ P ~ g 8 < 4 : f           ",
"            < 8 q 8 > < < < 3 < P 3 < 1 1 3 4 5 7 7 7 s s P l f  . .@.7.7.7.y.l.r.u.y.u.l.r.p.j.7.-.7.8 8 =.@.......~ @.8 5 8 8 > >             ",
"              2 0 0 < , - > 1 < 4 3 < < 3 1 4 5 7 3 3 7 8 P .. .=.@.=.=.@.7.5.7.l.u.7.y.7.r.7.@.@.....; 4 ..=.#...g F F 8 7 3 2 *               ",
"              7 2 8 p : : > 2 2 4 4 3 < 1 2 4 4 4 < : 1 7 7 P .. . .@.=.=.=.7.7.7.7.r.p.r.7.5.#...g ~ ; 4 @.~ ' P g 8 5 3 2 5 = 3               ",
"                > 4 w 2 : = > 2 3 3 4 3 3 3 3 4 4 > : 1 7 s P ~ ......#.=.=.=.=.#.7.#.#.@.@.+.~ g l.s , 5 g g P g 8 8 3 3 < 3 :                 ",
"                  ; 6 2 3 ; = > 1 < 3 4 4 4 4 4 4 7 4 5 s P ~ ............#.=.=.#.5.#.#.....g 8 r.4 & , 8 ..~ F 8 5 5 4 2 ; ,                   ",
"                    > 4 > ; = > < < 3 4 4 4 4 5 5 8 s f g P P P g ~ ........=.#.#.#.#...~ g ~ g N.8 < < P g f 8 8 5 3 , < <                     ",
"                      : * = * ; : < < < > 3 < 3 4 7 7 s s s g P ~ ..~ ....#.#.#.#.#.....#.#...< - % 1 g f 8 8 5 4 4 < : <                       ",
"                        ; * ; = - : > 1 3 3 3 3 5 1 7 7 7 s s s g g g g g ..............g ~ 1 ; : 8 f ~ 8 0 f 8 3 2 > <                         ",
"                          ; * ; - - : > 1 1 > 3 4 3 5 5 7 s 7 s s 4 s g g g g g ~ ~ g ..+.+.8 g 8 ~ g g T l 5 4 2 > <                           ",
"                            > * $ - : 4 < > 3 < 1 > < 1 5 7 7 7 s g s s g g g g ~ g g #.~ F ~ 8 ~ g f 8 8 2 2 > > 2                             ",
"                              5 * & - ; 4 , 4 > < < 2 > 3 4 4 7 8 5 8 8 8 s f f f P ~ g f F f P P 8 4 5 2 2 2 : f                               ",
"                                  : * * - : ; < < 2 2 6 < 3 3 5 4 4 7 4 8 7 8 f g f 8 f f 8 8 8 5 7 4 4 < > 2                                   ",
"                                    5 - - ; : < > < < > , < 3 5 4 5 6 7 4 5 8 4 8 8 8 8 8 P P 5 4 < < 3 2 l                                     ",
"                                        5 - - ; > 2 3 3 < < 2 4 7 7 3 7 8 8 7 5 3 5 5 8 8 4 2 < < < < 8                                         ",
"                                            8 > - & & 1 4 < 1 3 2 > 2 2 4 3 4 3 2 3 < 4 < < < : 2 l                                             ",
"                                                  4 : * = : : > > ; > > : < > < 8 8 < - : 2 8                                                   ",
"                                                        8 8 3 < - = ; ; ; - : - < 2 8 F                                                         ",
"                                                                                                                                                "
};
