/* XPM */
static char *result[] = {
/* columns rows colors chars-per-pixel */
"75 75 178 2 ",
"   c #5F2E09",
".  c #612F09",
"X  c #643109",
"o  c #6B340B",
"O  c #6D3B0B",
"+  c #71370C",
"@  c #733A0D",
"#  c #7C3D0D",
"$  c #7B3C11",
"%  c #5E5C09",
"&  c #65470A",
"*  c #73410F",
"=  c #7E470E",
"-  c #7D4E0D",
";  c #6F550A",
":  c #645D0B",
">  c #6A5A0B",
",  c #74540D",
"<  c #7A510D",
"1  c #754210",
"2  c #7B4511",
"3  c #7C4913",
"4  c #456E07",
"5  c #4B6508",
"6  c #476F08",
"7  c #4B6D08",
"8  c #546609",
"9  c #5B630A",
"0  c #526B09",
"q  c #5F680D",
"w  c #467008",
"e  c #4A730A",
"r  c #4F780E",
"t  c #52740C",
"y  c #517A0F",
"u  c #5C7A0E",
"i  c #537D11",
"p  c #60620B",
"a  c #6E6708",
"s  c #6A6909",
"d  c #746608",
"f  c #7B6509",
"g  c #7E680A",
"h  c #6C7B0D",
"j  c #71770F",
"k  c #747E0F",
"l  c #607D11",
"z  c #823F0E",
"x  c #86420E",
"c  c #8C450F",
"v  c #834C0B",
"b  c #8C4B0E",
"n  c #90470F",
"m  c #90480F",
"M  c #83530D",
"N  c #87590F",
"B  c #91530B",
"V  c #955C0A",
"C  c #985D0C",
"Z  c #824213",
"A  c #8B4514",
"S  c #854C14",
"D  c #8E4C14",
"F  c #904711",
"G  c #934B13",
"H  c #9A4D15",
"J  c #914718",
"K  c #944919",
"L  c #9A4C1B",
"P  c #8C5517",
"I  c #885C10",
"U  c #8D5919",
"Y  c #955115",
"T  c #9B5316",
"R  c #9C5917",
"E  c #945218",
"W  c #9B561A",
"Q  c #925E1A",
"!  c #9F591B",
"~  c #A04F1C",
"^  c #A05517",
"/  c #A4521C",
"(  c #AB551E",
")  c #A25A1B",
"_  c #AA5E1B",
"`  c #836509",
"'  c #8D6209",
"]  c #8B690C",
"[  c #956008",
"{  c #9A640C",
"}  c #9F680E",
"|  c #8E6411",
" . c #906612",
".. c #9E6313",
"X. c #986A16",
"o. c #96621D",
"O. c #867614",
"+. c #9B7214",
"@. c #A0690F",
"#. c #A46716",
"$. c #A36B11",
"%. c #AC611D",
"&. c #AB6B1E",
"*. c #B0621D",
"=. c #A77014",
"-. c #AC7316",
";. c #A37C15",
":. c #AB7A16",
">. c #AF7618",
",. c #B1751B",
"<. c #B57B1C",
"1. c #B87D1E",
"2. c #AC5520",
"3. c #B05721",
"4. c #B35B25",
"5. c #A26D20",
"6. c #BC642D",
"7. c #A67121",
"8. c #AB7623",
"9. c #AF7924",
"0. c #B47624",
"q. c #B37A25",
"w. c #B97D25",
"e. c #B67B28",
"r. c #BC7D2A",
"t. c #C1652B",
"y. c #C56A2F",
"u. c #C46B33",
"i. c #C96F34",
"p. c #CD7236",
"a. c #CD7339",
"s. c #D1753A",
"d. c #D4793E",
"f. c #D77D42",
"g. c #D97F43",
"h. c #568113",
"j. c #5A8515",
"k. c #5D8817",
"l. c #5E8A18",
"z. c #6E8414",
"x. c #618E1A",
"c. c #65921D",
"v. c #898512",
"b. c #938913",
"n. c #AB8C17",
"m. c #AD8818",
"M. c #B58B19",
"N. c #A19118",
"B. c #B69519",
"V. c #B99619",
"C. c #BB991A",
"Z. c #BD8127",
"A. c #B68029",
"S. c #BB842B",
"D. c #BA9E20",
"F. c #B7A226",
"G. c #C29D1D",
"H. c #C3852D",
"J. c #C28A2E",
"K. c #C48B30",
"L. c #CA8E32",
"P. c #C69031",
"I. c #CD9334",
"U. c #CF9836",
"Y. c #D19736",
"T. c #D39A35",
"R. c #D69E39",
"E. c #D89F39",
"W. c #C6A425",
"Q. c #CDAD2B",
"!. c #CFB12F",
"~. c #D7A03A",
"^. c #DAA23B",
"/. c #CCB433",
"(. c #D4B734",
"). c #D8BA37",
"_. c #D9BC38",
"`. c #DB8145",
/* pixels */
"c c c c c c c c c c c c c c c c c c c c c c c c c c c c c c c c c c c c c c c c c c c c c c c c c c c c c c c c c c c c c c c c c c c c c c c c c c c ",
"c c c c c c c c c c c c c c c c c c c c c c c c c c c c c c c c c c c c c c c c c c c c c c c c c c n c c c c c c c c c c c c c c A c c c c c c c c c ",
"c c c c c c c c c c c c c c c c c c c c c c c c c c c c c c c c c c c c n c c c c c c c c c c c c c c c c c z # # + o o @ c c c c x = + o o # c c c c ",
"c c c c c c c c c c c c c c c c c c c c c c c c c c c c c c c c c c c c c c c c c c c c c c c c c c c c c c @ @ Z D E S + # c # o o @ Z A 2 o + c c c ",
"c c c c c c c c c c c c c c c c c c c c c c c c c c c c c c c c c c c c c c c c c c c c c c c c c c c c c H W ! ! ) ! ) K @ A G D E ! ! ! ) E O z c c ",
"c c c c # o @ x c c c c c c c c c c c c c c c c c c c c c c c c c c c c c c c c c c c c c c c c c c c c c ) ) ! ! ! ! ! ! 2 D _ ) ! ! ! ! ! ! A # c c ",
"c c c z .     o # c c c c c c c c c c c c c c c c c c c n c c c c c c c c c c c c c c c c n c c c c c c c ) ) ) ! ! ! ! ! S G _ ! ) ! ! ! ! ! E # c c ",
"c c c # 3 S O   . + x c n c c c c c c c c c c c c c c c c c c c c c c c c c c c c c c c c c c c c c c c c ^ ) ) ! ! ! ! ! E G ) ! ! ! ! ! ! ) W # A c ",
"c c A P 7.8.X.* . . X @ x c c c c c c c c c c c c c c c c n c c c c c c c c c c c c c c c c c c c c c c c T *.%._ ! ! ! _ T G ) ) ! ! ) ! ! ^ R c c c ",
"c A G 7.8.8.8.5.2 .     X o # c c c c c c c c c c c c c c c c c c c c c c c c c c c c c c c c c c c c c c n T / _ %.%._ R n m _ *.%.) ) ! ! ) ) m c n ",
"c c #.9.8.8.8.8.7.S X   .   . o @ z c c c c c c c c c c c c c c c c c c c c c c c c c c c c c c c c c c c c c c n H T H n c n G ^ _ *.*.%.%._ T c c c ",
"c n 7.9.8.8.8.8.8.8.o.3 X   . . X X o # c c c c c c c c c c c c c c c c c c c c c c c c c c c c c c c c c c c c c c c c c c c c c m m T / T m c c c c ",
"c G 0.q.8.8.8.8.8.8.8.7.Q 1 X         X o # c c c c c c c c c c c c c c c c c c c c c c c c c c c c c c c c c c c c c c c c c c c c c c c c c c c c c ",
"c G q.q.8.9.8.8.8.8.8.8.8.&.U *     X     o z c c c c c c c c c c c c c c c c c n c c c c c c c c c c c c c c c c c c c c c c c c c c c c c c c c c c ",
"c R Z.q.8.8.8.8.8.8.8.8.8.8.8.&.P O . . . . # c c c c c c c c c c c n c c c c c c c c c c c c c c c c c c c c c c c c c c c c c c c c c c c c c c c c ",
"c R H.q.8.8.8.8.8.8.8.8.8.8.8.8.8.&.S . . . o c c c c c c c c c c c c c c c c c c c c c c c c c c c c c c c c c c c c c c c c c c c c c c c c c c c c ",
"c R Z.J.q.8.8.8.8.8.8.8.8.8.8.8.8.9.7.1 . . X z n c c c c c c c c c c c c c c c c c c c c c c c c c c c c c c c c c c c c c c c c c c c c c c c c c c ",
"c R w.T.T.S.8.8.8.8.8.8.8.8.8.8.8.8.8.o.X X . + c c c c c c c c c c c c c c c c c c c c c c c c c c c c c c c c c c c c c c c c c c c c c c c c c c c ",
"c R w.T.~.R.A.8.8.8.8.8.8.8.8.8.8.8.8.7.1 . . X z n c c c c c c c c c c c c c c c c c c c c c c c c c c c c c c c c c c c c c c c c c n c c c c c c c ",
"c Y w.T.~.~.K.8.8.8.8.8.8.8.8.8.8.8.8.8.Q X . X # c c c c c c c c c c c c c c c c c c c c c c c c c c c c c c c c c c c c c c c c c c c c c c c c c c ",
"c Y w.T.^.~.P.8.8.8.8.8.8.8.8.8.8.8.8.8.7.1     o c c n c c c A z z c z A A n c c c n c A c c c x c c c c c c c c c c c c c c c c c c c c c c c c c c ",
"c G 0.T.^.~.S.8.8.8.8.8.8.8.8.8.8.8.8.8.8.Q . . o z c z z # + o o o o + + + # # z z z z $ $ + o X + c c c c c c c c c c c c c c c c c c c c c c c c c ",
"c m 0.T.^.~.P.8.8.8.8.8.9.8.8.8.8.8.8.8.8.7.@   . + # o . . + $ z J L L L J J z $ + o o o o + @ z J ( ( n c c c c c c c c c c c c c c c c c c c c c c ",
"c b 8.T.^.^.S.8.8.8.8.8.8.8.8.8.8.8.8.8.8.9.U X . o . . + K ~ 2.2.( 3.( 2.2.2.2.2.( ~ ~ ~ ~ 2.2.3.3.t.t.H c c c c c c c c c c c c c c c c c c c c c c ",
"c c &.I.^.^.P.8.8.8.8.8.8.8.8.9.8.8.8.8.8.8.7.@   X   O ~ 3.2.2.2.2.2.2.2.2.2.2.2.2.2.2.2.2.2.2.2.4.d.s.G c c c c c c c c c c c c c c c c c c c c c c ",
"c c R H.^.^.T.S.9.8.8.8.8.8.8.7.8.8.8.8.8.8.8.U X   . $ 2.2.2.2.2.2.2.2.2.2.2.2.2.2.2.2.2.2.2.2.( 6.g.i.F c c c n c c c c c c c c c c c c c c c c c c ",
"c c m 0.T.^.^.R.I.S.S.S.S.S.S.S.S.A.e.9.9.9.9.7.@ . X $ 2.2.2.2.2.2.2.2.2.2.2.2.2.2.2.2.2.2.2.2.2.u.g.p.G n c c c c c c c c c c c n c c c c c c c c c ",
"c c c R H.T.^.^.~.~.~.R.E.E.E.E.~.~.~.~.Y.U.U.I.o.+ + o ~ 2.2.2.2.2.2.2.2.2.2.2.2.2.2.2.2.2.2.2.2.a.g.i.G c c c c c c c c c c c c c c c c c c c c c c ",
"c c c c R Z.T.^.^.^.^.^.^.E.R.R.R.~.^.^.^.^.^.Y.o.A c o A 2.2.2.2.2.2.2.2.2.2.2.2.2.2.2.2.2.2.2.4.f.f.p.H c c c c c c c c c c c c c c c c c c c c c c ",
"c c b c c G _ w.J.I.I.U.I.L.K.Z.e.e.r.H.L.Y.H.&.A A c z + L 2.2.2.2.2.2.2.2.2.2.2.2.2.2.2.2.2.2.u.f.g.s.H c c c c c c c c c c c c c c c c c c c c c c ",
"c c c c c c c c A G Y Y T Y G G A c c F G G G c c c c c z $ / 2.2.2.2.2.2.2.2.2.2.2.2.2.3.4.y.a.g.`.f.u.H x c c c n c c c c c c c c c c c c c c c c c ",
"c c c c c c c c c c c c c c A c c c c c F c c c c c c c c c H 2.4.4.u.u.i.u.u.6.6.u.u.i.f.g.`.g.d.i.4.~ c c c c c c c c c c c c c c c c c c c c c c c ",
"c c c c c c c c c c c c c c c c c c c c c c c c c c c c c c n G L ( 4.t.y.y.p.s.d.d.d.d.d.s.y.4./ m b c x b x x b x x b x x x x c c c c c c c c c c c ",
"c c c c c c c c c c c c c c c c c c c c c c c c c c c c c c c c c A F H ~ / ( ( ( ( ( ( T H n z o o o o o o o o o o o o o o o o o x c c c c c c c c c ",
"c b c c c c c c c c c c c c c c c c c c c c c c c c c c c c c c c c c c c c n c c c c c c c c X   . . . . . . .   . . . .   . . . + c c c c c c c c c ",
"n A c c c c c c c c c c c c c c c c c c c c c c c c c c c c c c c c c c c c c c c c c c c c x - v v v v M v v v v v v v v v v - X o c c c c c c c c c ",
"c c c c c c c c c c c c c c c c c c c c c c c c c c c c c c c c c c c c c c c c c c c c c c V [ [ [ [ [ [ [ [ [ [ [ [ [ [ [ [ a ; + c c c c c c c c c ",
"c c c c c c c c c c c c c c c c c c n c c c c c c c c c c c c c c c c c c c c c c c c c c b [ { [ [ [ [ [ [ [ [ [ [ [ [ V [ f 7 > + x c c c c c c c c ",
"c c c c c c c c c c c c c c A v c c c c c c c c c c c c c c c c c c c c c c c c c c c c c B $.@.[ [ [ [ [ [ [ [ [ [ [ [ [ ' t 6 % o c c c c c c c c c ",
"c c c c c c c c c c c c c b x > c c c c c c c c c c n c n c c c c c n c c c c c c c c c b V :.} [ [ [ [ [ [ [ [ [ [ [ [ [ a y w 8 o c c c c c c c c c ",
"c c c c c c c c c c c c c c < 9 c c c c c c c c c c z z # z # # z z z z c c c c c c c c m { -.{ [ [ [ [ [ [ [ [ [ [ [ [ ` t h.w 5 o c c c c c c c c c ",
"c c c c c c c c c c c c c c 9 9 c c c c c c c c Z o . . . X X X X . X X + c c c c c c c B { ,.} [ [ [ [ [ [ [ [ [ [ [ [ s w x.w 4 & c c c c c c c c c ",
"c c c c c c c c c c c c c v 7 9 x c c c c c c x o X v  .+.+.+.+.+.+.{ ] M 1 x c c c c c B @.<.@.[ [ [ [ [ [ [ [ [ [ [ ' 0 r x.r 7 & c c c c c c c c c ",
"c c c c c c c c c c c c c > w 9 b c c c c c c @ . | B.C.V.V.C.C.V.C.V.C.C.+.= c c c c c B @.<.=.[ [ [ [ V [ [ [ [ [ [ ` 6 h.c.y 4 % c c c c c c A x b ",
"c c c c c c c c c c c c x 0 r q c c c c c c x X M B.D.C.V.V.V.V.V.V.V.V.V.V.;.b c c c c c C ,.,.{ [ [ [ [ [ [ [ [ [ [ d 6 h.c.j.w q x c c c c A < : x ",
"c c c c c n c c c c c c , w h.q c c c c c c # O m.Q.W.V.V.V.V.V.V.V.V.V.V.V.V.:.b c c c c B $.<.-.{ [ [ [ [ [ [ [ [ [ a 6 k.c.x.w 6 < A c b x > 6 : b ",
"c c c c c c c c c c c A 9 e l.q c c c c c c # I W._.W.V.V.V.V.V.V.V.V.V.V.V.V.C.@.c c c c c V -.M.>.@.{ [ [ [ [ { @.$.g 6 x.c.c.r w ; c c < 9 w w , c ",
"c c c c c c c c c c c v 7 i l.q c c c c c c c +.W._.W.V.V.V.V.V.V.V.V.V.V.V.V.C.-.c c c c c c V =.<.<.,.>.>.>.<.<.1.M.O.e x.c.c.h.w 9 c , 0 4 w 7 v c ",
"c c c c c c c c c c b > w k.c.q c c c c c c c ..G.).!.C.V.V.V.V.V.V.V.V.C.C.C.G.=.A c c c c c b C >.1.1.1.1.<.1.<.<.-.] t x.c.c.x.6 7 : 7 4 6 6 8 b c ",
"c c c c c c c c c c x 8 r x.l.q c c c c c c c m M.(._.W.C.C.C.V.V.V.V.V.B.C.C.n.N v - - - - v v v V =.,.<.<.,.-.@.{ V M t x.c.c.x.e 6 6 6 6 6 6 9 A c ",
"c c c c < v c c c c , 6 h.c.c.q c c c A c A c c ..W.)./.F.N.b.v.k k h l u u u 0 7 7 7 7 7 7 7 7 7 0 s g ] ] ] f N M b c p j.c.c.i 6 6 6 6 6 6 6 ; c c ",
"c c c c x : , c c b 9 w k.c.x.q c c c A v ; > , > j z.u t t e 6 6 6 4 4 4 w 6 6 6 6 6 6 6 6 6 6 4 4 w w 7 7 6 6 6 7 8 9 9 7 h.x.i 6 6 6 6 6 4 7 - c c ",
"c c c c c - 8 , c c > r c.c.c.q v , > 9 0 6 7 6 w 4 4 4 4 w 6 6 7 6 6 6 6 6 6 6 6 6 6 6 6 6 6 6 w 6 6 6 6 6 6 6 6 6 4 6 6 6 6 e i 6 6 6 6 4 6 : A c c ",
"c c c c c c : 7 > x < 7 j.c.h.6 7 6 6 6 w 6 w 6 4 w 6 6 6 6 6 6 6 6 6 6 6 6 6 6 6 6 6 6 6 6 6 6 6 6 6 6 6 w 6 6 6 6 6 j.x.x.j.6 6 6 6 6 6 7 , A c c c ",
"c c c A c c < 0 6 9 8 6 i h.w w 4 4 6 6 4 6 6 6 w 6 6 6 6 6 w 6 6 6 6 6 6 6 6 6 6 6 6 6 6 6 6 6 6 6 6 6 6 6 6 6 6 7 j.c.c.c.j.6 w w 6 6 6 0 , S c c c ",
"c c v , > 9 7 6 4 w 4 6 6 6 w w i t r w 6 w 6 6 6 6 6 6 6 6 6 6 6 6 6 6 6 6 6 6 6 6 6 6 6 6 6 6 6 6 6 6 6 6 6 6 e k.c.c.c.c.e 4 e h.y 6 6 4 6 8 > v c ",
": 9 0 6 4 w 6 6 w 6 4 6 6 6 6 w k.x.x.x.t 4 6 6 6 6 w 6 6 6 6 6 6 6 6 6 6 6 6 6 6 6 6 6 6 6 6 6 6 6 6 6 6 4 e y x.c.c.c.c.j.6 6 r c.x.i 6 6 6 6 6 5 p ",
"w w 6 6 6 6 6 6 6 6 r i w 6 6 e x.c.c.c.x.r 6 w 6 6 6 w 6 6 6 6 6 6 6 w 6 6 6 6 6 6 6 6 6 6 6 6 6 6 6 6 e h.x.c.c.c.c.c.x.e 6 6 i c.c.x.e 6 6 6 6 6 6 ",
"w w 6 6 6 6 6 6 w r x.x.e 6 6 6 j.c.c.c.c.k.e w 6 6 w 7 6 6 6 6 6 6 6 6 6 6 6 6 6 6 6 6 6 6 6 e y y j.x.c.c.c.c.c.c.c.j.e 6 6 6 e k.c.c.i 6 6 6 6 6 6 ",
"w 4 6 6 w 6 6 6 6 h.c.k.e 6 6 6 e h.x.c.c.c.k.w 6 6 6 6 6 6 6 6 6 6 6 6 w 6 6 6 6 6 6 6 e y j.x.c.c.c.c.c.c.c.c.c.k.y 6 6 6 6 6 6 e l.c.j.6 6 6 6 6 6 ",
"4 6 6 6 6 6 6 6 r x.x.t 6 6 6 6 6 6 r k.c.c.x.k.e 6 6 6 6 6 6 6 6 6 6 6 7 6 w 6 6 6 6 6 e e e e e y y h.h.h.h.y y 6 6 6 6 6 6 6 6 6 i c.x.e 6 6 6 6 6 ",
"w 6 6 6 6 6 6 6 i k.r 6 6 6 6 6 6 6 6 w j.x.c.c.j.6 6 6 6 6 6 w 6 6 w 6 w 6 6 6 6 6 6 6 6 6 7 6 6 6 6 6 6 6 6 6 6 6 6 6 6 6 6 6 6 6 6 i c.y 6 6 6 6 6 ",
"6 6 6 6 6 6 6 e k.r 6 6 6 6 6 6 6 6 6 6 6 t k.x.c.i 6 6 w 6 6 6 6 6 6 6 6 6 6 6 6 6 6 6 6 6 6 6 6 6 6 6 6 6 6 6 6 6 6 6 6 6 6 6 6 6 6 6 h.j.6 6 6 6 6 ",
"6 6 6 6 6 6 6 y e 4 6 6 6 6 6 6 6 6 6 6 6 4 e i x.c.y 6 w 7 6 6 6 6 6 6 6 6 6 6 6 6 6 6 6 6 6 6 6 6 6 6 6 6 6 6 6 6 6 6 6 6 6 6 6 6 6 6 e j.r 6 6 6 6 ",
"6 w w 6 6 6 6 w 6 6 6 6 6 6 6 6 6 6 6 6 6 6 6 6 r j.x.r 4 6 6 6 6 6 6 6 6 6 6 6 6 6 6 6 4 4 6 7 7 e 4 e w e e e e e e e e e r e 4 e 6 e 4 r e 4 7 6 6 ",
"6 6 6 w 6 6 6 w 6 6 6 6 6 6 6 6 6 6 6 6 6 4 6 6 6 6 i j.r 4 6 6 6 6 6 6 6 6 6 e e e r r i i i i j.j.l.l.l.k.l.l.l.c.x.x.x.l.l.l.k.j.k.j.h.i y r e e e ",
"h.i i t e e e 6 6 6 6 6 6 6 6 7 4 4 7 4 7 e 6 7 6 6 e r i r r r y i i h.j.j.j.x.x.x.c.c.c.c.c.c.c.c.c.c.c.c.c.c.c.c.c.c.c.c.c.c.c.c.c.c.c.c.c.c.x.l.k.",
"c.c.c.x.x.x.k.j.j.j.i i i i i i i i i i i i h.j.j.j.j.l.x.x.x.x.c.c.c.c.c.c.c.c.c.c.c.c.c.c.c.c.c.c.c.c.c.c.c.c.c.c.c.c.c.c.c.c.c.c.c.c.c.c.c.c.c.c.c.",
"c.c.c.c.c.c.c.c.c.c.c.c.c.c.c.c.x.c.c.c.c.c.c.c.c.c.c.c.c.c.c.c.c.c.c.c.c.c.c.c.c.c.c.c.c.c.c.c.c.c.c.c.c.c.c.c.c.c.c.c.c.c.c.c.c.c.c.c.c.c.c.c.c.c.c.",
"c.c.c.c.c.c.c.c.c.c.c.c.c.c.c.c.c.c.c.c.c.c.c.c.c.c.c.c.c.c.c.c.c.c.c.c.c.c.c.c.c.c.c.c.c.c.c.c.c.c.c.c.c.c.c.c.c.c.c.c.c.c.c.c.c.c.c.c.c.c.c.c.c.c.c.",
"c.c.c.c.c.c.c.c.c.c.c.c.c.c.c.c.c.c.c.c.c.c.c.c.c.c.c.c.c.c.c.c.c.c.c.c.c.c.c.c.c.c.c.c.c.c.c.c.c.c.c.c.c.c.c.c.c.c.c.c.c.c.c.c.c.c.c.c.c.c.c.c.c.c.c.",
"c.c.c.c.c.c.c.c.c.c.c.c.c.c.c.c.c.c.c.c.c.c.c.c.c.c.c.c.c.c.c.c.c.c.c.c.c.c.c.c.c.c.c.c.c.c.c.c.c.c.x.c.l.l.l.l.k.l.k.k.k.k.k.k.l.l.l.l.c.c.c.c.c.c.c.",
"c.c.c.c.c.c.c.c.c.x.c.c.c.c.c.c.c.c.c.c.c.c.c.c.c.c.c.c.c.c.c.c.c.x.x.l.x.l.l.j.j.j.h.i i i r r r e e e e e e e 6 6 7 e e 6 6 6 e 6 e e r r i i j.l.c.",
"i i h.h.j.x.x.j.x.x.x.x.x.x.x.x.x.l.l.l.l.l.k.k.j.j.h.h.h.i i i r r r e e e e 6 e 7 6 6 6 6 6 6 4 4 6 6 6 6 6 6 6 6 6 6 6 6 6 6 6 6 6 6 6 6 6 6 6 e e ",
"6 6 6 w 6 6 w e e e e e e e r e e e e e e e 6 7 e 6 6 6 7 4 4 4 6 6 6 6 6 6 6 6 4 6 6 6 6 6 e 4 6 6 6 6 6 6 6 6 6 6 6 6 6 6 6 6 6 6 6 6 6 6 6 6 6 6 6 "
};
