/* XPM */
static char *result[] = {
/* columns rows colors chars-per-pixel */
"75 75 182 2 ",
"   c #5F2E09",
".  c #612E09",
"X  c #65320A",
"o  c #6B340B",
"O  c #6B380B",
"+  c #71370B",
"@  c #74390C",
"#  c #7B3C0D",
"$  c #6D3A11",
"%  c #7A3C11",
"&  c #6C4208",
"*  c #764309",
"=  c #7C410C",
"-  c #764B08",
";  c #7D4E0D",
":  c #6E570C",
">  c #645D0B",
",  c #6C590C",
"<  c #7B5307",
"1  c #7F5807",
"2  c #73550C",
"3  c #7A500D",
"4  c #7A4215",
"5  c #7D481B",
"6  c #7E5D13",
"7  c #466F07",
"8  c #4E6308",
"9  c #476F08",
"0  c #4A6D08",
"q  c #5C6D07",
"w  c #556609",
"e  c #5B630A",
"r  c #526A09",
"t  c #467008",
"y  c #4B730B",
"u  c #4F780E",
"i  c #53710A",
"p  c #507A0F",
"a  c #5A7111",
"s  c #537D11",
"d  c #6C6B07",
"f  c #60600B",
"g  c #66670B",
"h  c #7B6A07",
"j  c #796A08",
"k  c #676510",
"l  c #726712",
"z  c #7B6314",
"x  c #647317",
"c  c #6C721B",
"v  c #6A7B1B",
"b  c #803F0D",
"n  c #803F12",
"m  c #84410E",
"M  c #8C450F",
"N  c #844A0E",
"B  c #8D4A0E",
"V  c #8E570A",
"C  c #91530B",
"Z  c #945D09",
"A  c #995E0D",
"S  c #844613",
"D  c #8D4612",
"F  c #874F11",
"G  c #8D4B13",
"H  c #834C1E",
"J  c #914711",
"K  c #924B12",
"L  c #9C4E16",
"P  c #914718",
"I  c #914818",
"U  c #9C4D1B",
"Y  c #855411",
"T  c #955211",
"R  c #9D5216",
"E  c #9A5B12",
"W  c #9F591B",
"Q  c #A04F1C",
"!  c #A5531C",
"~  c #AA541F",
"^  c #A25B1B",
"/  c #AB5D1C",
"(  c #886406",
")  c #846906",
"_  c #8B6806",
"`  c #8F6808",
"'  c #906D06",
"]  c #956008",
"[  c #9B630C",
"{  c #926A08",
"}  c #957206",
"|  c #9A7606",
" . c #9F7A07",
".. c #8C6111",
"X. c #87641D",
"o. c #926712",
"O. c #9D6312",
"+. c #936912",
"@. c #9B7313",
"#. c #A16A0F",
"$. c #A17C07",
"%. c #A16712",
"&. c #A46D12",
"*. c #AE611D",
"=. c #A77014",
"-. c #AA7215",
";. c #AD7B16",
":. c #AF7618",
">. c #AD7818",
",. c #B17F17",
"<. c #B17719",
"1. c #B57B1C",
"2. c #875022",
"3. c #8A5323",
"4. c #9C5C26",
"5. c #AC5520",
"6. c #A35F26",
"7. c #AF5922",
"8. c #B05720",
"9. c #B35B24",
"0. c #B65E28",
"q. c #976625",
"w. c #9C632F",
"e. c #8C742B",
"r. c #9D6431",
"t. c #A6652C",
"y. c #A9652B",
"u. c #BB6026",
"i. c #BD642B",
"p. c #A36A34",
"a. c #A86C35",
"s. c #A47637",
"d. c #A87937",
"f. c #AD733B",
"g. c #B27337",
"h. c #B2773E",
"j. c #B4783E",
"k. c #BA7B3F",
"l. c #C1662C",
"z. c #C36A31",
"x. c #CA6F34",
"c. c #CB7137",
"v. c #CE7339",
"b. c #D1773B",
"n. c #D47A3E",
"m. c #BC7D40",
"M. c #D67B40",
"N. c #D97E43",
"B. c #568113",
"V. c #5A8515",
"C. c #5C8817",
"Z. c #5E8A19",
"A. c #658418",
"S. c #6D841A",
"D. c #628E1B",
"F. c #65921D",
"G. c #9D8007",
"H. c #A68007",
"J. c #AA8407",
"K. c #A58A07",
"L. c #AF8907",
"P. c #B48D07",
"I. c #A88216",
"U. c #B28017",
"Y. c #B58519",
"T. c #B48D18",
"R. c #B8881D",
"E. c #B69319",
"W. c #B99619",
"Q. c #BC9A1C",
"!. c #C09B1D",
"~. c #C49E21",
"^. c #C6A425",
"/. c #C8A220",
"(. c #C8A827",
"). c #CDAC2A",
"_. c #D3B22F",
"`. c #D5B532",
"'. c #D7B936",
"]. c #D8BB37",
"[. c #DBBD39",
"{. c #DB8145",
/* pixels */
"9 7 9 9 7 0 7 7 7 7 0 0 7 7 7 7 y 7 7 7 7 9 7 7 9 9 9 9 9 9 9 9 9 7 9 0 7 9 9 9 9 0 7 7 9 9 9 9 9 9 9 9 9 9 9 9 9 9 9 9 9 9 9 9 9 9 9 9 9 9 9 9 9 9 9 ",
"u u u u p p u u p y p p u u u y y p y p u p u u u u u u u u u p u u u u y p u u u u y p u y y y y y y 9 9 9 9 9 9 9 9 9 9 9 9 9 9 9 9 9 9 9 t 0 t 9 9 ",
"D.F.D.F.F.F.F.F.D.D.F.F.F.F.F.F.F.F.F.F.D.F.F.F.F.F.D.F.D.F.F.F.D.F.F.F.F.F.D.D.F.F.F.F.F.F.F.F.F.Z.Z.C.s u y 9 9 9 9 9 9 9 9 9 9 9 9 9 9 9 9 9 9 9 9 ",
"F.F.F.F.F.F.F.F.F.F.F.F.F.F.F.F.F.F.F.F.F.F.F.F.F.F.F.F.F.F.F.F.F.F.F.F.F.F.F.F.F.F.F.F.F.F.F.F.F.F.F.F.F.F.Z.B.u 9 9 9 9 9 9 9 9 9 9 9 9 9 9 9 9 9 9 ",
"F.F.F.F.F.F.F.F.F.F.F.F.F.F.F.F.F.F.F.F.F.F.F.F.F.F.F.F.F.F.F.F.F.F.F.F.F.F.F.F.F.F.F.F.F.F.F.F.F.F.F.F.F.F.F.F.D.V.u y 9 9 9 9 9 9 9 9 9 9 9 9 9 9 9 ",
"F.F.F.F.F.F.F.F.F.F.F.F.F.F.F.F.F.F.F.F.F.F.F.F.F.F.F.F.F.F.F.F.F.F.F.F.F.F.F.F.F.F.F.F.F.F.F.F.F.F.F.F.F.F.F.F.F.F.D.s y 9 9 9 9 9 9 9 9 9 9 9 t 9 t ",
"F.F.F.F.F.F.F.F.F.F.F.F.F.F.F.F.F.F.F.F.F.F.F.F.F.F.F.F.F.F.F.F.F.F.F.F.F.F.F.F.F.F.F.F.F.F.F.F.F.F.F.F.F.F.F.F.F.F.F.F.C.y 9 9 9 9 9 9 9 9 9 9 9 9 0 ",
"F.F.F.F.F.F.F.F.F.F.F.F.F.F.F.F.F.F.F.F.F.F.F.F.F.F.F.F.F.F.F.F.F.F.F.F.F.F.F.F.F.F.F.F.F.F.F.F.F.F.F.F.F.F.F.F.F.F.F.F.F.Z.u 9 9 9 9 9 9 y 9 t 9 9 t ",
"Z.Z.Z.D.Z.D.D.F.D.D.D.D.D.F.D.D.F.D.F.D.D.F.D.F.F.D.D.F.D.F.D.F.D.D.D.F.D.D.D.D.F.F.F.F.F.F.F.F.F.F.F.F.F.F.F.F.F.F.F.F.F.F.D.u 9 9 9 9 9 t 9 9 9 9 9 ",
"9 y y y y y y y y y y y y y y y y y y y y y y y y y y y y y y y u y u y y u u u u u p V.Z.D.F.F.F.F.F.F.F.F.F.F.F.F.F.F.F.F.F.Z.y 9 9 9 9 9 9 9 9 9 9 ",
"9 9 9 9 9 9 9 9 9 9 9 9 9 9 9 y y y 9 9 y 9 9 9 y 7 9 9 y 7 9 9 9 9 9 9 9 9 9 9 9 9 9 9 9 y s C.F.F.F.F.F.F.F.F.F.F.F.F.F.F.F.F.C.9 9 9 9 9 9 9 9 9 9 ",
"9 9 9 9 9 9 9 9 9 9 u u s V.Z.Z.B.0 9 9 7 7 9 9 7 7 9 9 9 7 9 9 9 9 9 9 9 9 9 9 9 9 9 9 9 9 9 9 u C.F.F.F.F.F.F.F.F.F.F.F.F.F.F.F.s 9 9 9 9 9 9 9 9 9 ",
"9 9 9 9 9 9 9 9 s Z.F.F.F.F.V.y 9 9 9 9 9 9 9 9 9 9 9 9 9 9 9 9 9 9 9 9 9 9 9 9 9 9 9 9 9 9 9 9 9 9 s D.F.F.F.F.F.F.F.F.F.F.F.F.F.D.u 0 9 9 9 9 9 9 9 ",
"9 9 9 y 9 9 9 u D.F.F.F.Z.u 9 9 9 9 9 9 9 9 9 9 9 9 9 9 9 9 9 9 9 9 9 9 9 9 9 9 9 9 9 9 9 9 9 9 9 9 0 u D.F.F.F.F.F.F.F.F.F.F.F.F.F.V.9 9 9 9 9 9 9 9 ",
"9 y s Z.Z.C.s s Z.F.D.s 9 9 9 9 9 9 7 y 9 9 9 9 9 9 9 9 9 9 9 9 9 9 9 9 9 9 9 9 9 9 9 9 9 9 9 9 9 9 9 9 y Z.F.F.F.F.F.F.F.F.F.F.F.F.D.u 9 9 9 9 9 9 9 ",
"9 s F.F.F.F.p s s u y 9 9 9 9 9 9 9 7 9 9 9 9 9 9 9 9 9 9 9 9 9 9 9 9 9 9 9 9 9 9 9 9 9 9 9 9 9 9 9 9 9 9 u F.F.F.F.F.F.F.F.F.F.F.F.F.C.9 9 9 9 9 9 9 ",
"9 V.F.F.F.C.y C.F.p t y 7 7 9 9 9 9 9 9 9 9 9 9 9 9 9 9 9 9 9 9 0 7 7 7 9 9 9 9 9 9 9 9 9 9 9 9 9 9 9 9 9 9 s F.F.F.F.F.F.F.F.F.F.F.F.F.y 9 9 9 9 9 9 ",
"9 V.F.F.F.p y Z.F.Z.y t 9 9 9 7 9 9 9 9 9 9 9 9 9 y 9 9 9 9 9 9 9 7 7 7 y 9 9 9 9 9 9 9 9 9 9 9 9 9 9 9 9 9 9 V.F.F.F.F.F.F.F.F.F.F.F.F.s 9 9 9 9 9 9 ",
", S.F.F.V.t p F.F.F.s t 0 e w 0 9 9 9 w : : : , : : : : : : : : : , , , > > w 0 9 9 9 9 9 9 9 9 9 9 9 9 9 9 9 y D.F.F.F.F.F.F.F.F.F.F.F.C.9 9 9 9 9 9 ",
"G v F.V.9 9 t B.F.F.V.t 9 w ; ; , w 0 0 > N M D M M M M M M M J M M M M M M S ; : w 0 9 9 9 9 9 9 9 9 9 9 9 9 9 s F.F.F.F.F.F.F.F.F.F.F.F.y 9 9 9 9 9 ",
"F S.Z.y 7 9 9 9 V.F.F.u 9 t > D M M ; 2 e e ; M M M M M M M M M M M M M M M M M M M 3 e 7 7 0 9 9 9 9 9 9 9 9 9 y D.F.F.F.F.F.F.F.F.F.F.F.s 9 9 9 9 9 ",
"F S.V.9 9 9 0 0 u Z.F.B.9 0 w S M M M M M N ; M M M M M M M M M M M M M M M M M M M M M < r 7 9 9 9 9 9 9 9 9 9 9 s F.F.F.F.F.F.F.F.F.F.F.B.9 9 9 9 9 ",
"Y A.u 0 9 9 e ; w u F.Z.y 9 9 5 M M M M M M M M M M M M M M M M M M M M M M M M M M M M M N f y 9 9 9 9 9 9 9 9 9 y F.F.F.F.F.F.F.F.F.F.F.C.t 9 9 9 9 ",
"Y Z.y 9 9 0 ; D ; w s F.s 9 t > M M M M M M M M M M M M M M M M M M M M M M M M M M M M M M M > 9 9 9 9 9 9 9 9 9 9 Z.F.F.F.F.F.F.F.F.F.F.Z.t 9 9 9 9 ",
"6 V.9 9 9 , m D D ; w V.V.t t r N J M M M M M M M M M M M M M M M M M M M M M M M M M M M M M M > 9 9 t 9 9 9 9 9 9 s F.F.F.F.F.F.F.F.F.F.D.y 9 9 9 9 ",
"z s 9 9 e H 6.t.t.t.q.x V.u t t X.y.y.4.D M M M M M M M M M M M M M M M M M M M M M M M M M M M D e 9 9 9 9 9 9 9 9 y D.F.F.F.F.F.F.F.F.F.F.y 7 9 9 9 ",
"z u 9 0 z m.m.m.m.m.M.s.v B.t t v {.k.k.y.K M M M M D M M M M M M M M M M M M M M M M M M M M M D N w t 9 9 9 9 9 9 9 C.F.F.F.F.F.F.F.F.F.F.p 7 9 9 t ",
"l y 9 k p.m.m.m.j.k.k.j.s.v t t r g.k.k.k.t.M M M M M M M M M M M M M M M M M M M M M M M M M M M D 2 9 9 9 9 9 9 9 9 s F.F.F.F.F.F.F.F.F.F.s 0 9 9 9 ",
"g 9 8 q.k.h.m.r.j.j.h.j.h.s.x t t e.m.m.m.r.K M M M M M M M M M M M M M M M M M M M M M M M M M M M N e t 9 9 9 9 9 9 u F.F.F.F.F.F.F.F.F.F.s 7 9 t 9 ",
"> 9 : t.h.h.m.m.h.j.h.h.d.m.s.x t c m.s.m.m.U M M M M M M M M M M M M M M M M M M M M M M M M B M M M 2 9 9 9 9 9 9 9 y D.F.F.F.F.F.F.F.F.D.s 0 9 9 9 ",
"> e S t.h.m.f.s.h.h.h.h.m.m.m.r.x a s.m.r.m.H M M M M M M M M M M M M M M M M M M M M M J R / / ^ L J M w 9 9 9 9 9 9 0 Z.F.F.F.F.F.F.F.F.F.s 9 0 9 9 ",
", 3 D t.m.f.m.m.h.h.h.h.m.s.p.m.s.c e.m.m.m.3.b M M M M M M M M M M M M M M M M M M M M R / ^ / / *./ ^ , 9 9 9 9 9 9 9 C.F.F.F.F.F.F.F.F.F.V.t t 9 9 ",
"D J n w.s.m.m.p.h.h.h.h.f.f.m.p.h.s.e.h.j.g.L M M M M M M M M M M M M M M M M M M M M D ^ W W W W ^ ^ y.Y 0 9 9 9 9 9 9 s F.F.F.F.F.F.F.F.F.s 0 t 9 9 ",
"J n n 2.m.m.p.m.h.h.h.h.h.m.f.m.h.h.h.h.j.a.B M M M M M M M M M M M M M M M M M M M M m K ^ W W W W W / T w 9 9 9 9 9 9 s D.F.F.F.F.F.F.F.F.V.9 9 9 t ",
"D M % $ w.m.p.m.h.h.h.h.h.h.p.m.h.h.h.h.f.H m M M M M M M M M M M M M M M M M M M M M b K W W W W W W ^ R > 9 9 9 9 9 9 u D.F.F.F.F.F.F.F.F.Z.9 9 9 9 ",
"M M 5 $ $ 3.m.m.h.h.h.h.h.h.m.s.h.h.h.p.4 o M M M M M M M M M M M M M M M M M M M M M b S ^ W W W W ^ ^ L : 9 9 9 9 9 9 y D.F.F.F.F.F.F.F.F.Z.y 9 9 9 ",
"M M M # . o 3.m.h.h.h.h.m.p.m.m.h.h.r.$ . b M M M M M M J M M M M M M M M M M M M M M N @ I W W W T G G D ; 0 0 9 9 9 9 y Z.F.F.F.F.F.F.F.F.Z.9 9 9 t ",
"M M M M @ X . % r.h.h.h.m.p.p.m.h.p.$ X # M M M M M M M J b M M M M M M M M M M M M M M # O @ # @ O + @ D N 0 9 9 9 9 9 9 C.F.F.F.F.F.F.F.F.Z.9 9 9 0 ",
"M M M M n n     $ 5 p.h.m.m.m.m.h.5 X = M M M M M M M M M J B B B M M M M M M M M M M M D = # # b M M M M N w 9 9 9 9 9 9 C.F.F.F.F.F.F.F.F.D.y 9 t 9 ",
"M M M M n H 5 $     $ 5 w.m.p.m.3.o m M M M M M M M J C Z [ #.#.%.A C M M M M M M M M M M D M J J M M M M N e 9 9 9 9 9 9 V.F.F.F.F.F.F.F.F.D.y 9 9 9 ",
"M M M M M M M M b + . . o @ n % X # M M M B M B C Z [ &.<.1.1.1.1.1.=.Z J M M M M M M M M M M M M M M M M M e 9 9 9 9 9 9 s F.F.F.F.F.F.F.F.D.y 9 9 9 ",
"M M M M M M M M L b b . . . . X @ D M M M B C [ #.:.<.1.1.1.1.1.1.1.1.-.C M M M M M M M M M M M M M M M M M > 9 9 9 9 9 9 s F.F.F.F.F.F.F.F.D.u 9 9 9 ",
"M M M M M M M M J b b b b b + b M M M M Z ] #.:.1.1.<.,.<.:.=.=.=.<.1.1.=.C B M M M M M M M M M M M M M M M > 9 9 9 9 9 9 p F.F.F.F.F.F.F.F.F.u 9 9 9 ",
"M M M M M M M M J b L L b b b b M M M B Z ] #.-.#.#.#.[ ] Z Z ] ] [ %.<.1.&.C M M M M M M M M M M M M M M M , 9 9 9 9 9 9 u D.F.F.F.F.F.F.F.F.s 9 9 9 ",
"M M M M M M M M b L b b M M M M M M m N Z ] ] ] ] ] ] ] ] ] ] ] ] ] ] [ <.1.[ B M M M M M M M M M M M M M M 2 9 9 9 9 9 9 y D.F.F.F.F.F.F.F.F.s 9 9 9 ",
"M M M K J M D J Q n L b M M M M M M m * ] ] ] ] ] ] ] ] ] ] ] ] ] ] ] ] #.1.=.C M M M M M M M M M M M M M M 2 0 9 9 t 9 9 y Z.F.F.F.F.F.F.F.F.s 9 9 9 ",
"M M Q 0.z.l.i.l.x.x.l.Q M M M M M M b # ] ] ] ] ] ] ] ] ] ] ] ] ] ] ] ] [ <.<.A B M M M M M M M M M M M M M 3 0 9 9 9 9 t 0 Z.F.F.F.F.F.F.F.F.s 9 9 9 ",
"M M ! l.n.{.N.{.N.~.n.u.J M M M M M b * Z Z ] ] ] ] ] ] ] ] ] ] ] ] ] ] ] -.:.] B M M M M M M M M M M M M D ; 0 9 9 9 9 9 9 V.F.F.F.F.F.F.F.F.s 9 9 9 ",
"M # D 8.9.i.z.z.z.c.N.v.U D M M M M b @ ] ] ] ] ] ] ] ] ] ] ] ] ] ] ] ] Z =.=.Z B M M M M D M M M M M M M M ; 0 0 9 9 9 9 9 V.F.F.F.F.F.F.F.F.V.t 9 9 ",
"M o # ~ 5.5.5.5.5.5.i.M.5.D M M M M b * ] ] ] ] ] ] ] ] ] ] ] ] ] ] ] ] ] =.=.C M M M M M B M M M M M M M M N r 9 9 9 9 9 9 s F.F.F.F.F.F.F.F.V.9 9 9 ",
"D + + 5.5.5.5.5.5.5.7.M.i.J M M M M # * Z ] ] ] ] ] ] ] ] ] ] ] ] ] ] ] ] -.#.V M M M M M M M M M M M M M M M w 9 9 9 9 9 9 u F.F.F.F.F.F.F.F.Z.t 9 9 ",
"M @ o Q 5.5.5.5.5.5.5.c.x.K m M M M b * ] ] ] ] Z ] ] ] ] ] ] ] ] ] ] ] ] =.[ B M M M M M M M M M M M M M M M e 9 9 9 9 9 9 u D.F.F.F.F.F.F.F.Z.y 9 9 ",
"M # o U 5.5.5.5.5.5.5.i.b.L M M M M b @ ] ] ] ] ] ] ] ] ] ] ] ] ] ] ] ] ] ] C M M M M M M M M M M M M M M M M e 9 9 9 9 9 9 y D.F.F.F.F.F.F.F.Z.t 9 9 ",
"M b X U 5.5.5.5.5.5.5.i.n.~ M M M M b O V ] ] ] ] ] ] ] ] ] ] ] ] ] ] ] Z Z B M M M M M M M M M M M M M M M M > t 9 9 9 9 9 y Z.F.F.F.F.F.F.F.Z.y 9 9 ",
"M b o U 8.5.5.5.5.5.5.0.n.7.M M M M b X O * * * * * * * * * * * * * = * * * M M M M M M M M M M M M M M M M M > t 9 9 9 9 9 9 C.F.F.F.F.F.F.F.D.y 9 9 ",
"M M o U 5.5.5.5.5.5.5.9.b.9.M M M M m X .     . . . . . . . . . . . . . . # M M M M M M M M M M M M M M M M M : 9 9 9 9 9 9 9 V.F.F.F.F.F.F.F.D.y 9 9 ",
"J b + Q 8.5.5.5.5.5.5.9.M.9.D D M M M m + + @ @ @ + + @ + + + @ @ + + + # M M M M M M M M M M M M M M M D D B 2 9 9 9 9 9 9 9 B.F.F.F.F.F.F.F.D.u 9 9 ",
"J n + Q 5.5.5.5.5.5.5.7.c.9.M M M M M B E &.<.U.,.:.%.T M M M M M M M M M M M M M M M M M M M M M M M D B V ] j 9 9 9 9 9 9 9 p F.F.F.F.F.F.F.F.u 9 9 ",
"M b % ~ 5.5.5.5.5.5.5.7.v.9.D M J M E Y.~.)._._._._.).~.>.B M M M M M M M M M M M M M M M M M M M M B Z { { $. .y 7 7 9 9 9 9 u D.F.F.F.F.F.F.F.u 7 9 ",
"J b n 5.5.5.5.5.5.5.5.7.v.8.M M B :.!._.].[.].].'.'.[.[.'.R.B D M M M M M M M M M M M M M M M M B V { { } H.P.K.i 7 0 t 9 9 7 y D.F.F.F.F.F.F.F.u 7 9 ",
"M # D 5.5.5.5.5.5.5.8.9.v.~ M C R.)._._.(.^.Q.Q.!.!.(.`.]._.I.B M M M M M M M M M M M M M M D B ] ` '  .L.P.P.G.i 9 9 9 9 9 9 y Z.F.F.F.F.F.F.F.s 0 9 ",
"M + P 5.~ 5.5.5.5.~ ~ 0.x.! B ,./.^.!.W.W.W.W.W.W.W.W.Q.'.].!.O.M M M M M M M M M M M M M M M V ` | K.P.P.J.} ) r 9 9 9 9 9 9 7 V.F.F.F.F.F.F.F.s 9 9 ",
"M + P 5.5.5.5.5.5.5.~ 0.l.Q E !.Q.W.W.W.W.W.W.W.W.W.W.W.^.[.^.;.B M M M M M M M M M M M M M B { } P.P.P. ._ _ _ q 7 9 9 9 9 9 9 V.F.F.F.F.F.F.F.s 9 9 ",
"M o P 5.5.5.5.5.5.5.8.0.u.L A !.W.W.W.W.W.W.W.W.W.W.W.W.!.].).I.m M M M M M M M M M M M M M B { } P.P.$._ _ _ _ q 7 9 9 9 9 9 9 s F.F.F.F.F.F.F.V.9 9 ",
"M o S 5.5.5.5.5.5.5.5.8.8.D C R.W.W.W.W.W.W.W.W.W.W.W.W.~.'.).@.@ M M M M M M M M M M M M M B ` } P.L._ _ _ _ _ g 7 7 7 y 7 9 9 p F.F.F.F.F.F.F.B.0 t ",
"M o % 5.5.5.5.5.5.5.5.8.! D M O.E.W.W.W.W.W.W.W.W.W.W.W./.).E.< + M M M M M M M M M M M M M B { _ J.J._ _ _ _ _ d 7 7 7 7 7 9 9 y D.F.F.F.F.F.F.V.7 9 ",
"M o + 5.5.5.5.5.5.5.5.8.L M M m o.W.W.W.W.W.W.W.W.W.W.W.Q.Q...X # M M M M M M M M M M M M M B V _  .L._ ) _ _ _ d 7 9 9 y 7 9 9 y D.F.F.F.F.F.F.V.y 9 ",
"M + o Q 5.5.5.5.5.5.5.! J M M M m ..T.W.W.W.W.Q.W.W.W.W.W.@.X O M M M M M M M M M M M M M M M N 1 _ H.} _ _ _ _ j 9 9 9 7 7 9 9 9 C.F.F.F.F.F.F.C.y 9 ",
"J n . P 5.5.5.5.5.~ n b M M M M M # * Y ....+.+.+.+.o...3 X O b M M M M M M M M M M M M M M M M O < | } _ _ _ _ h y 9 9 y 9 9 9 7 V.F.F.F.F.F.F.C.0 7 ",
"J n . @ Q 8.5.5.U # # D M M M M M M # X X X . . X . . . X o b D M M M M M M M M M M M M M M M M m O 1 _ _ _ _ _ h 0 9 9 7 9 9 9 9 p F.F.F.F.F.F.D.y 9 ",
"M M o . + P n n o @ M M M M M M M M M M N b b b b b b b m M M M M M M M M M M M M M M M M M M M M @ O ( _ _ _ _ ) 0 9 9 7 9 9 9 9 p F.F.F.F.F.F.D.y 7 ",
"M M % . . . . + b M M M M M M M M M M M M M J M J M M M M M M M M M M M M M M M M M M M M M M M M M @ & < - * & & 8 9 9 9 9 9 9 7 y F.F.F.F.F.F.D.y 9 ",
"M M M # + @ b M M M M M M M M M M M M M M M M M M M M M M M M M M M M M M M M M M M M M M M M M M M m o . . . . X 8 7 7 9 9 9 9 9 y C.F.F.F.F.F.F.y 9 ",
"M M M M M M J M M M M M M M M M M M M M M M M M M M M M M M M M M M M M M M M M M M M M M M M M M M M m @ # # # m e 7 7 9 9 9 9 9 9 V.F.F.F.F.F.D.p 9 ",
"M M M M M M M M M M M M M M M M M M M M M M M M M M M M M M M M M M M M M M M M M M M M M M M M M M M M M M M M M > 7 7 9 9 7 7 9 9 B.F.F.F.F.F.F.p 9 "
};
