/* XPM */
static char *result[] = {
/* columns rows colors chars-per-pixel */
"75 75 205 2 ",
"   c #5F2E09",
".  c #612E09",
"X  c #64320A",
"o  c #6B340B",
"O  c #6B3B0B",
"+  c #71370B",
"@  c #74390C",
"#  c #7B3C0D",
"$  c #6D3A11",
"%  c #7A3C11",
"&  c #6E4108",
"*  c #764B07",
"=  c #764309",
"-  c #7B440A",
";  c #7C4C0C",
":  c #6E570C",
">  c #645D0B",
",  c #6D580C",
"<  c #7B5307",
"1  c #7F5807",
"2  c #74540D",
"3  c #7A500D",
"4  c #754115",
"5  c #7C4716",
"6  c #7E5D13",
"7  c #456F07",
"8  c #476F08",
"9  c #4A6D08",
"0  c #556609",
"q  c #5C620A",
"w  c #516809",
"e  c #477008",
"r  c #497209",
"t  c #4F780D",
"y  c #53730D",
"u  c #5B730E",
"i  c #517A0E",
"p  c #5C7411",
"a  c #537D11",
"s  c #65610D",
"d  c #676510",
"f  c #786413",
"g  c #657215",
"h  c #6C7617",
"j  c #727213",
"k  c #7D7317",
"l  c #813F0D",
"z  c #803F12",
"x  c #85420E",
"c  c #8C450F",
"v  c #834B0E",
"b  c #8D4A0E",
"n  c #90470F",
"m  c #904A0F",
"M  c #815C07",
"N  c #8E530C",
"B  c #88590A",
"V  c #91540B",
"C  c #935D09",
"Z  c #995E0D",
"A  c #8B4514",
"S  c #834C17",
"D  c #8C4B14",
"F  c #914711",
"G  c #924B12",
"H  c #9C4E16",
"J  c #914718",
"K  c #914818",
"L  c #9C4D1B",
"P  c #845214",
"I  c #885915",
"U  c #955211",
"Y  c #9B5115",
"T  c #9B5A14",
"R  c #965219",
"E  c #9B561C",
"W  c #925E1A",
"Q  c #9F591B",
"!  c #A04F1C",
"~  c #A5521C",
"^  c #AA541F",
"/  c #A25B1B",
"(  c #AB5D1C",
")  c #B1591F",
"_  c #866206",
"`  c #896706",
"'  c #8A6806",
"]  c #8F6708",
"[  c #906E06",
"{  c #956008",
"}  c #9B630C",
"|  c #936B08",
" . c #947106",
".. c #997606",
"X. c #9E7A06",
"o. c #9B7209",
"O. c #9D7808",
"+. c #8C6111",
"@. c #87641D",
"#. c #9D6312",
"$. c #936912",
"%. c #956619",
"&. c #9B651D",
"*. c #8B741B",
"=. c #867B1B",
"-. c #9A7517",
";. c #92751D",
":. c #9A751F",
">. c #A16A0F",
",. c #A17C07",
"<. c #A27B08",
"1. c #A16712",
"2. c #A46D12",
"3. c #A9661D",
"4. c #AA7215",
"5. c #AD7B16",
"6. c #A97419",
"7. c #AF7618",
"8. c #B17F17",
"9. c #B17719",
"0. c #B57B1C",
"q. c #875022",
"w. c #8A5323",
"e. c #9C5C26",
"r. c #AC5520",
"t. c #A35F26",
"y. c #AF5922",
"u. c #B35B24",
"i. c #99652A",
"p. c #8C742B",
"a. c #9E7520",
"s. c #9D6431",
"d. c #A66827",
"f. c #A6652C",
"g. c #BB6026",
"h. c #BD642B",
"j. c #A57621",
"k. c #AB7623",
"l. c #AE7924",
"z. c #B37622",
"x. c #B47C26",
"c. c #B57F28",
"v. c #A36A34",
"b. c #A86C35",
"n. c #A47637",
"m. c #A87937",
"M. c #AD733B",
"N. c #B27337",
"B. c #B2773E",
"V. c #B4783E",
"C. c #BB7C3F",
"Z. c #C2672D",
"A. c #C36A31",
"S. c #CA6F34",
"D. c #CB7137",
"F. c #CE7339",
"G. c #D1773B",
"H. c #D47A3E",
"J. c #D87D42",
"K. c #568113",
"L. c #5B8716",
"P. c #5C8817",
"I. c #5E8A18",
"U. c #658418",
"Y. c #6D841A",
"T. c #618C1A",
"R. c #65921D",
"E. c #A68107",
"W. c #AB8507",
"Q. c #AF8807",
"!. c #AC8508",
"~. c #AF8808",
"^. c #B48D07",
"/. c #B58D08",
"(. c #B79008",
"). c #B89008",
"_. c #A88216",
"`. c #B48619",
"'. c #B69319",
"]. c #B99619",
"[. c #BC9A1C",
"{. c #928120",
"}. c #B78129",
"|. c #BC842A",
" X c #B4922D",
".X c #C09B1D",
"XX c #C1872A",
"oX c #C28B2F",
"OX c #C68F30",
"+X c #CA9232",
"@X c #C89833",
"#X c #D29935",
"$X c #D59E39",
"%X c #D89F39",
"&X c #C6A425",
"*X c #C8A524",
"=X c #CDAC2A",
"-X c #D3B22F",
";X c #D7A03A",
":X c #DBA13B",
">X c #D5B532",
",X c #D7B936",
"<X c #D8BB37",
"1X c #DBBD39",
"2X c #DB8145",
/* pixels */
"c c c c c c c c c c c c c c c c b c c c c c c c c c c c c c c c c c c c c c c c c c c c c c c c c c c c c c c c c c c c c c c c c c c c c c c c c c c ",
"c c c c c c c c c c c c c c c c x x l l # # @ l c c c c c c c c c c c c c c c c c c c c c c c c c c c c c c c c c c c c c c c c c c c c n c c F c c c ",
"c c c c c x x x x # # + + O o X . . . X . .   o x c c c c c c c c c c c c c c c c c c c c c c c c c c c c c c c c c c c c c c c c c F l l + + l c c c ",
"c c c c x X X . . .   . . X X X O O & & * * < O @ c c c c c c c c c c c c c b c c c c c c c c c c c c n c c c c c c c c c c c c c n l o . . . . # c n ",
"c c c c + X O O & * * < 1 1 _ _ _ ` ` ' ' ' ' _ O @ x c c c c c c c c c c c c c c c c c c c x x x l x l l x x b c c c c c c c c A # o % z A @ . o c c ",
"c c c x & _ ` ` ` ' ' ' ' ' ' ' ' ` ' ' ' ' ' [ M o x c c c c c c c c c c c c c c c c c # o . . . . . . . . X X # c c c c c c c % % L ^ u.r.~ + . l c ",
"c c c # < ' ' ' ` ` ' ' ' ' ` ' ' ' ` ' ' ' '  . .1 + x c c c c c c c c c c c c c c c x X o < +.| $.$.$.$.{ +.P = # c c c c c x z r.r.r.r.r.r.K . # n ",
"c c c # 1 ' ' ' ' ' ` ' ' ` ' ' ' ' ' ' ' ' '  .W.' M x c c c c c c c c c c c c c b x o X -.].].].[.[.].].[.].].'.+.x c c c c ~ r.r.r.r.r.r.r.! o % c ",
"c c c = ` ' ' ' ' ' ' ' ` ' ' ` ' ' ' ` ' ' ' [ Q.X.' B c c c c c c c c c c c c c c # X +.[. X].].].].].].].].].'.'.$.c c c H r.r.r.r.r.r.r.r.^ + + c ",
"c c c - ' ' ' ' ' ` ' ' ' ' ' ' ' ' ' ' ' ' ' ' E.W.' ] b c c c c c c c c c c c c c + ; ].=X*X].].].].].].].].].'.].'.#.c c ~ r.r.r.r.r.r.r.r.r.% X c ",
"c c c =  .[ ' ' ' ` ' ` ` ' ' ' ' ' ' ' ' ' ' ' !.^. .| N A c c c c c c c c c c c c @ o.=X,X[.].].].].].].].].].].].].'.U F ) u.r.r.r.r.r.r.r.r.z o c ",
"c c c *  .X.' ' ' ' ' ' ' ' ' ` ' ' ' ' ` ' ' ,.^.^. .| b c c c c c c c c c c c c D x _.=X,X&X].].].].].].].].].].].]..X#.F h.u.r.r.r.r.r.r.r.r.K + c ",
"c c c -  .E.' ' ' ' ' ' ' ` ' ' ' ' ' ' ' ' <.^.^.Q. .] b c c c c c c c c c c c c c c 5.&X1X&X].].].].].].].].].].]..X.XT H A.u.r.r.r.r.r.r.^ r.K + A ",
"c c c - ' W.X.' ' ' ' ' ' ' ' ' ' ' ' '  .E.^.^.W. .| C c c c c c c c c c c c c c c c #.[.<X,X[.].].].].].].].]..X*X.X8.m ~ D.u.r.r.r.r.r.r.r.) J + A ",
"c c c - ` W.W.' ' ' ' ' ' ' ` ` ' ' ..E.^.^.Q.X.[ ' ] b c c c c c c c c c c c c c c c b 5.>X1X>X=X.X[.[..X*X=X-X>X=X`.U c ) D.u.r.r.r.r.r.r.r.r.z # n ",
"c c b x ` E.^...` ' ' ' ' ' ' ..E.!.^.^.^.E...| | V b c c c c c c c c c c c c c c c c c G `.,X1X<X<X>X,X<X1X<X>X.X4.m c c ) G.u.r.r.r.r.r.r.r.r.z l c ",
"c c c x M X.^.!. .` ' ' ' X.W.^.^.^./.!.O.[ | C b b c c c c c c c c c c c c c c c c c c c m 9..X=X-X-X>X-X=X.X`.T n c c n ) F.u.r.r.r.r.r.r.r.^ % z F ",
"c c c c B ..^.^.E.' ' ..W.^.^./.)./.<.| C N b A c c c c c c c c c c c c c c c b c c c c c c n V 1.7.8.`.8.>.Z n c n c c c ) D.) r.r.r.r.r.r.r.~ + z c ",
"c c c c b [ ^.^./.Q.!./.^.^.)./.,.| N c c c c c c c c c c c c c c c c c c c # + + + + + @ + + + + + + + + + + l c c c c n u.G.u.r.r.r.r.r.r.r.L + l c ",
"c c c c b ] E.^./././.(.).).!.o.C A A c c c c c c c c c c c c c c c c c c # . .   . . . . . . X   .     . . . X l n c c c u.G.u.r.r.r.r.r.r.r.L + l n ",
"c c c c c C X.^.(.(.(.).!...{ N c c c c c c c c c c c c c c c c c c c c b = = - * - = = x = = = = = - - = = O . l c c c c ( J.u.r.r.r.r.r.r.r.L o l c ",
"c c c c c b  .^.).(.~.O.| C D c c c c c c c c c c c c c c c c c c c c c b C C C C C { { { { { { { C { { { { B O l c c c c ^ J.h.r.r.r.r.r.r.r.L o l c ",
"c c c c c c C X.!.X. .{ N A c c c c c c c c c c c c c c c c c c c c c c V { { { { { { { { { { { { { { { { { { @ l c c c c H F.Z.r.r.r.r.r.r.r.L X # c ",
"c c c c c c D | { C N c c c c c c c c c c c c c c c c c c c c c c c c c } 2.{ C { { { { { { { C { { { { { C C = l c c c c K S.D.r.r.r.r.r.r.r.! o % c ",
"c c c c c c c b c c c c c c c c c c c c c c c c c c c c c c c c c c c V >.4.C { { { { { C { { { { { { { { { C = # c c c c n h.H.u.r.r.r.r.r.r.r.+ o c ",
"c c c c c c c c c c c c c c c c c c c c c c c c c c c c c c c c c c b C >.2.C { { { { { { { { { { { { C { { { @ l c c c c c ^ H.A.r.r.r.r.r.r.r.% o c ",
"c c c c c c c c c c c c c c c c c c c c c c c c c c c c c c c c c c b C 4.2.{ { { { { { { { { { { { { { { { { = l c c c c c H F.J.F.A.A.Z.h.u.y.A # n ",
"c c c c c c c c c c c c c c c c c c c c c c c c c c c c c c c c c c b C 9.7.{ { { { { { { { { { { { { { { { { @ l c c c c c m g.J.2X2X2XJ.2XJ.Z.~ A c ",
"c c c c c c c c c c c c c c c c c c c c c c c c c c c c c c c c c c n C 9.9.{ { { { { { { { { { { { C { { { C = l c c c c c c ! Z.A.Z.Z.h.Z.S.u.H c c ",
"c c c c c c c c c c c c c c c c c c c c c c c c c c c c c c c c c b n V 4.0.2.{ { { { { { { { { { { { { { { { = l c c c c c c c F n F n n n F F c c n ",
"c c c c c c c c c c c c c c c c c c c c c c c c c c c c c c c c c c n n >.9.9.>.{ { { { { { { { { { { { { { C v c c c c c c c c c c c c c c c c c c c ",
"c c c c c c c c c c c c c c c c c c c c c c c c c c c c c c c c c c l n V 2.0.9.>.{ { { { { { } } >.2.4.2.{ { b c c c c c c c c c c c c c c c c c c c ",
"c c c c c c c c c c c c c c c c c c c c c c c c c c c c c c c c c c c c c V >.0.0.0.4.4.4.4.9.0.0.0.0.9.>.{ C c c c c @ o + # x c c c c c c c c c c c ",
"c c c c c c c c c c c c c c c c c c c c c c c c c c c c c c c c c c c c c c V 4.0.0.0.0.0.0.0.0.0.4.>.} V m c c c c + . . . . o @ x c c c c c c c c c ",
"c c c c c c c c c c c c c c A c c c c c c c c c c c c c c c c c c c c c c c n C 2.8.0.0.0.0.4.2.} C V n c c c c c # o 4 5 % X .   o @ A c c c c c c c ",
"c c c c c c A x x l l x x x x x x x x c c c c c c c c c c c c c c c c c c c c n m Z >.>.>.Z C m m n c c c c c n x o w.M.B.M.v.q.$ . . $ l c c c c c n ",
"c c c c v # o X . X X X X X X X X X o l c c c c c c l # @ x A c c c c c c c c c c c b b b b c c c c c c c c A l $ 5 B.B.B.B.B.B.b.S X   X # c c c c c ",
"c c c l o X X X X X X X X X X X X X   # c c c @ O + % # % X # A c c c c c c c c c c c c c c c c c c c c c c # . $ s.B.B.B.B.B.B.B.B.s.4 .   + A c c c ",
"c c l X O 5 %.&.&.&.&.&.&.&.&.&.&.&.O o c c D D D R E Q Q R + c c c c c c c c c c c c c c c c c c c c c c l . O s.B.B.B.B.B.B.B.B.B.B.M.w.X X % c c c ",
"c x o S 3.k.k.l.l.k.k.l.k.k.k.l.k.l.P . # c Y / Q Q Q Q Q Q x l c c c c c c c c c c c c c c c c c c c c x o 5 v.B.B.B.B.B.B.B.B.B.B.B.B.B.s.$ o c c c ",
"c x %.k.k.k.k.k.k.k.k.k.j.k.j.j.k.k.i.o + c Y / Q Q / Q Q Q G - c c c c c c c c c c c c c c c c c c c c x S M.B.B.B.B.B.B.B.B.B.B.B.B.B.B.B.s.$ c c b ",
"n &.k.k.k.k.k.k.k.k.k.k.k.k.a.a.k.k.6.4 X x H / Q / Q Q Q / R x c c c c c c c c c c c c c c c c c c c c A b.B.B.B.B.B.B.B.B.B.B.B.B.B.B.B.B.B.q.x c A ",
"G z.z.}.+X+Xl.k.k.k.k.k.k.k.k ;.k.k.k.W X @ U ( / / / T Q Q Q A c c c c c c c c c c c c c c c c c c c c E B.B.B.p.n.B.B.B.B.B.B.B.B.B.B.B.B.B.e.c c ; ",
"T c.OX;X$X$Xc.k.k.k.k.k.k.a.0 *.k.k.k.j.O o m ~ ) 3.( ( / ( Y c c c c c c c c c c c c c c c c c c c c A E B.B.B.p.g n.B.B.B.B.B.B.B.B.B.B.B.B.s.c 3 , ",
"Q c.$X$X$X#Xc.j.k.k.k.k.k.k t ;.k.k.k.k.P . l c m H / ( ( H n c c c c c c c c c c c c c c c c c c c c c E V.V.V.n.y g n.B.B.B.B.B.B.B.B.V.V.V.f.x q > ",
"Q x.+X;X$X#Xl.k.k.k.k.k.6.g a ;.k.k.k.k.&.o @ c c c c c c c c c c c c c c c c c c c c c c c c c c c c c L V.V.B.B.h e g n.B.B.B.B.B.B.B.B.V.V.f., 8 > ",
"U x.oX;X;X@Xl.k.k.k.k.k.*.t P.;.k.k.k.k.k.= X x c c c c c c c c c c c c c c c c c c c c c c c c c c c c K N.C.V.B.p.r e g n.V.B.V.V.V.V.V.V.C.%.w e s ",
"G z.|.$X;XoXa.a.k.k.k.j.g L.U.;.k.k.k.k.k.W . # c c c c c c c c c c c c c c c c c c c c c c c c c c c c A s.C.C.V.B.p e r h n.C.C.C.V.C.V.C.N.d e r f ",
"G z.+X$X;X|.j.k j.l.k.;.y T.T.;.k.k.k.k.k.6.$ o A c c c c c c c c c c c c c c c c c c c c c c c c c c c c D f.C.C.C.k e e K.h m.|.C.C.C.C.V.@.9 8 t f ",
"b 3.#X:X;X+Xl.j *.k.j.j a R.U.;.l.6.k.k.j.j.; o c c c c c c c c c c c c c c c c c c c c c c c c c c c c c c G e.f.d.@.9 e t P.g i.f.b.f.t.R 0 e 8 a f ",
"c T #X:X:X;X|.=.p j.:.t I.R.I.:.x.l.}.}.c.}.i.x c c c c c c c c c c A c c c c c c c c c c c c c c c c c c c c c n c x w 7 e I.L.0 v c A c , 9 9 e L.6 ",
"c m z.%X:X:X:X Xy {.=.t R.R.T. X;X;X;X;X%X+Xz.G c c c c c c c c c c c c c c c c c c c c c c c c c c c c c c c c c c c , 7 7 K.R.a 0 v A ; 9 7 7 r U.P ",
"c c G z.+X%X:X#Xp u u K.R.R.T. X:X:X;X@X@XXX3.c c c c c c c c c c c c c c c c c c c c c c c c c c c c c c c c c c c c 3 7 7 r I.R.a 0 3 q 8 8 8 t T.P ",
"c c c G / z.|.XXh 7 r P.R.R.L.I %.=.h j 6.3.G c c c c c c c c c c c c c c c c c c c c c c c c c c c c c ; v c c c c c x 0 e r K.R.I.r 8 8 8 8 e L.Y.v ",
"c 2 2 x b n G H d e i R.R.P.r 0 9 8 0 v D c c c c c c c c c c c n n c c n n n n c c c c c c c A c c c c ; > q 2 v b A A , 8 e t T.R.L.r 8 8 8 r I.Y.D ",
"c v q 0 > 2 v c < e t R.R.L.8 8 8 0 v c c c c A c c c c c n c c l n l n n l n l c n c c c c n A c c l n n v > 9 9 0 , 3 3 0 7 r P.R.R.K.r 8 8 K.R.Y.b ",
": : > 9 8 8 9 > > 9 e L.L.r r e 7 q : : : : : : , , , , , , , , 2 2 , , , , , , , , , : : : , : , , , , , , , 0 9 7 7 9 0 q 9 e a R.R.T.t r K.R.R.h , ",
"8 8 8 8 8 8 8 8 e 9 r K.t t P.K.t 7 9 7 7 r 7 7 9 8 8 8 9 8 8 8 e e 9 e 8 8 e 9 7 r 8 8 8 8 8 8 8 8 8 8 8 8 7 r 9 7 7 7 9 e 7 e r I.R.T.r a R.R.R.P.8 ",
"8 8 8 8 8 8 8 8 e t P.R.t i R.R.P.r 8 8 7 e 7 e e 8 8 8 e 8 8 8 9 8 8 8 e 8 8 8 8 8 8 8 8 8 8 8 8 8 8 8 8 8 8 8 e 9 e r 8 8 8 8 8 a T.P.r P.R.R.R.L.8 ",
"8 8 8 8 8 8 7 r 8 i R.T.r t R.R.R.K.8 8 9 e 9 e 8 8 8 8 8 8 8 8 e e 8 8 8 8 8 8 8 8 8 8 r 7 8 8 8 8 8 8 8 8 8 8 7 7 e 7 8 7 r 8 t t a a a R.R.R.R.K.8 ",
"r 8 8 r 9 e e 8 r I.I.t 8 9 i T.R.R.t 8 8 8 e 9 8 8 8 8 8 e 8 e e 8 8 8 8 8 8 8 8 8 8 8 8 8 8 8 8 8 8 8 8 8 8 8 8 8 8 8 8 8 r a I.R.T.a a L.I.I.K.e e ",
"9 7 8 7 7 7 7 8 a R.t 8 8 8 8 t P.R.L.r 8 8 e 8 8 e 8 8 8 8 9 e 8 8 8 8 8 8 8 e 8 7 8 8 8 8 8 7 8 8 8 8 8 8 8 8 8 8 8 8 r t P.R.R.R.R.t 8 7 r r e 7 e ",
"8 8 8 8 e e 7 r L.t 8 8 8 8 8 8 r L.R.K.8 8 8 e 8 8 8 8 8 8 8 8 8 8 e 8 9 8 8 8 r 7 8 8 8 8 8 r 8 8 8 8 8 8 8 8 8 8 8 t P.T.R.R.T.I.a 8 8 8 8 8 r 8 7 ",
"8 8 8 8 9 7 7 t t 7 8 8 e 8 8 8 e r i I.r 8 8 8 8 8 8 e 8 8 e 8 8 8 8 e e 8 8 8 8 8 8 8 8 8 8 8 8 8 8 8 8 8 8 8 8 r a P.P.P.a t t r 7 8 8 8 8 8 7 7 7 ",
"8 8 7 7 9 7 e r 8 8 8 8 8 8 e 7 7 7 7 a a r 8 8 8 8 7 7 8 e 7 r 8 8 8 8 8 8 e 7 r e 7 7 7 7 9 7 7 9 e e 9 7 7 r 8 t t 8 8 8 8 8 8 8 7 9 7 7 9 e 8 8 8 ",
"9 r e 7 e r r e 8 8 8 8 r 8 9 7 r r 9 7 r 8 r 8 7 r e 7 r 9 r 7 8 8 8 8 8 8 e 9 9 e r r r 7 e r r e e e e r r 7 8 8 8 8 8 8 8 7 8 8 r 7 r e 7 r 8 8 8 ",
"P.P.P.P.L.P.P.L.P.L.I.I.P.P.P.P.L.P.P.P.P.P.P.P.P.P.P.P.L.P.P.P.I.P.L.I.P.P.P.P.L.P.P.L.P.P.P.I.P.P.L.L.L.L.L.L.P.P.P.I.P.P.P.P.P.P.P.P.L.P.P.P.P.P.P.",
"R.R.R.R.R.R.R.R.R.R.R.R.R.R.R.R.R.R.R.R.R.R.R.R.R.R.R.R.R.R.R.R.R.R.R.R.R.R.R.R.R.R.R.R.R.R.R.R.R.R.R.R.R.R.R.R.R.R.R.R.R.R.R.R.R.R.R.R.R.R.R.R.R.R.R.",
"R.R.R.R.R.R.R.R.R.R.R.R.R.R.R.R.R.R.R.R.R.R.R.R.R.R.R.R.R.R.R.R.R.R.R.R.R.R.R.R.R.R.R.R.R.R.R.R.R.R.R.R.R.R.R.R.R.R.R.R.R.R.R.R.R.R.R.R.R.R.R.R.R.R.R.",
"R.R.R.R.R.R.R.R.R.R.R.R.R.R.R.R.R.R.R.R.R.R.R.R.R.R.R.R.R.R.R.R.R.R.R.R.R.R.R.R.R.R.R.R.R.R.R.R.R.R.R.R.R.R.R.R.R.R.R.R.R.R.R.R.R.R.R.R.R.R.R.R.R.R.R.",
"R.R.R.R.R.R.R.R.R.R.R.R.R.R.R.R.R.R.R.R.R.R.R.R.R.R.R.R.R.R.R.R.R.R.R.R.R.R.R.R.R.R.R.R.R.R.R.R.R.R.R.R.R.R.R.R.R.R.R.R.R.R.R.R.R.R.R.R.R.R.R.R.R.R.R.",
"R.R.R.R.R.R.R.R.R.R.R.R.R.R.R.R.R.R.R.R.R.R.R.R.R.R.R.R.R.R.R.R.R.R.R.R.R.R.R.R.R.R.R.R.R.R.R.R.R.R.R.R.R.R.R.R.R.R.R.R.R.R.R.R.R.R.R.R.R.R.R.R.R.R.R.",
"R.R.T.R.R.T.R.R.T.R.R.R.T.R.R.T.R.R.T.R.R.R.T.R.R.R.T.R.R.R.T.R.R.R.T.R.R.T.R.R.T.R.R.R.T.R.R.T.R.R.R.R.R.T.R.R.R.T.R.R.R.T.R.R.R.T.R.R.T.R.R.R.T.R.R.",
"t t t t t t t t t t t t t t t t t t t t t t t t t t t t t t t t t t t t t t t t t t t t t t t t a y t t t t t t t t t t t t t t a t t t t t t t t t t ",
"8 8 8 8 8 8 8 8 8 8 8 8 8 9 8 8 8 8 8 8 8 8 8 9 8 8 8 8 8 8 8 8 9 8 8 9 8 8 8 8 8 8 8 8 8 8 8 8 7 7 7 7 7 8 7 9 8 8 9 7 8 8 8 8 7 9 7 7 8 8 8 8 8 7 9 "
};
