/* XPM */
static char *result[] = {
/* columns rows colors chars-per-pixel */
"75 75 200 2 ",
"   c #5F2E09",
".  c #612E09",
"X  c #64320A",
"o  c #6B340B",
"O  c #6B3B0B",
"+  c #71370B",
"@  c #74390C",
"#  c #7B3D0D",
"$  c #6D3A11",
"%  c #7A3C11",
"&  c #6E4108",
"*  c #764B07",
"=  c #764309",
"-  c #7C440B",
";  c #7C4D0C",
":  c #6E570C",
">  c #645D0B",
",  c #6D580C",
"<  c #7B5307",
"1  c #7F5807",
"2  c #74540D",
"3  c #7A500D",
"4  c #754115",
"5  c #7C4716",
"6  c #456F07",
"7  c #476F08",
"8  c #4A6D08",
"9  c #556609",
"0  c #5C620A",
"q  c #516809",
"w  c #477008",
"e  c #497209",
"r  c #4F780D",
"t  c #53730D",
"y  c #5B730E",
"u  c #517A0E",
"i  c #5C7411",
"p  c #537D11",
"a  c #65610D",
"s  c #61710F",
"d  c #676510",
"f  c #786413",
"g  c #657215",
"h  c #6C7617",
"j  c #727213",
"k  c #7D7317",
"l  c #787520",
"z  c #803F0D",
"x  c #803F12",
"c  c #84410E",
"v  c #8C450F",
"b  c #834B0E",
"n  c #8D4A0E",
"m  c #815C07",
"M  c #8E530C",
"N  c #88590A",
"B  c #91540B",
"V  c #935D09",
"C  c #995E0D",
"Z  c #8D4612",
"A  c #834C17",
"S  c #8D4A13",
"D  c #914711",
"F  c #924B12",
"G  c #9C4E16",
"H  c #914718",
"J  c #9C4D1B",
"K  c #845214",
"L  c #885915",
"P  c #955211",
"I  c #9B5115",
"U  c #9B5A14",
"Y  c #965219",
"T  c #9B561C",
"R  c #925E1A",
"E  c #9F591B",
"W  c #A04F1C",
"Q  c #A5521C",
"!  c #AA541F",
"~  c #A25B1B",
"^  c #AB5D1C",
"/  c #866206",
"(  c #896706",
")  c #8A6806",
"_  c #8F6708",
"`  c #906E06",
"'  c #956008",
"]  c #9B630C",
"[  c #936B08",
"{  c #947106",
"}  c #997606",
"|  c #9E7A06",
" . c #9B7209",
".. c #9D7808",
"X. c #8C6111",
"o. c #87641D",
"O. c #9D6312",
"+. c #936912",
"@. c #956619",
"#. c #9B651D",
"$. c #8B741B",
"%. c #867B1B",
"&. c #9A7517",
"*. c #92751D",
"=. c #9A751F",
"-. c #A16A0F",
";. c #A17C07",
":. c #A27B08",
">. c #A46D12",
",. c #A7661A",
"<. c #AA7215",
"1. c #AD7B16",
"2. c #A97419",
"3. c #AF7618",
"4. c #B17F17",
"5. c #B17719",
"6. c #B57B1C",
"7. c #875022",
"8. c #8A5323",
"9. c #9C5C26",
"0. c #AC5520",
"q. c #A35F26",
"w. c #AF5922",
"e. c #B35B24",
"r. c #99652A",
"t. c #8C742B",
"y. c #9E7520",
"u. c #9D6431",
"i. c #A66827",
"p. c #A6652C",
"a. c #BB6026",
"s. c #BD642B",
"d. c #A57621",
"f. c #AB7623",
"g. c #AE7924",
"h. c #B37622",
"j. c #B47C26",
"k. c #B57F28",
"l. c #A36A34",
"z. c #A86C35",
"x. c #A47637",
"c. c #AD733B",
"v. c #B27337",
"b. c #B2773E",
"n. c #BA7B3F",
"m. c #C2672D",
"M. c #C36A31",
"N. c #CA6F34",
"B. c #CB7137",
"V. c #CE7339",
"C. c #D1773B",
"Z. c #D47A3E",
"A. c #BC7D40",
"S. c #D87D42",
"D. c #568113",
"F. c #5B8716",
"G. c #5C8817",
"H. c #5E8A18",
"J. c #658418",
"K. c #6D841A",
"L. c #618C1A",
"P. c #65921D",
"I. c #A68107",
"U. c #AB8507",
"Y. c #AF8807",
"T. c #AC8508",
"R. c #B48D07",
"E. c #B58D08",
"W. c #B79008",
"Q. c #B89008",
"!. c #B48619",
"~. c #B69319",
"^. c #B99619",
"/. c #BC9A1C",
"(. c #928120",
"). c #BA8027",
"_. c #B78129",
"`. c #BC842A",
"'. c #B4922D",
"]. c #C09B1D",
"[. c #C1872A",
"{. c #C28B2F",
"}. c #C49E21",
"|. c #C68F30",
" X c #CA9232",
".X c #C89833",
"XX c #D29935",
"oX c #D59E39",
"OX c #D89F39",
"+X c #C6A425",
"@X c #C8A524",
"#X c #CDAC2A",
"$X c #D3B22F",
"%X c #D7A03A",
"&X c #DBA13B",
"*X c #D5B532",
"=X c #D7B936",
"-X c #D8BB37",
";X c #DBBD39",
":X c #DB8145",
/* pixels */
"7 7 7 7 7 7 7 7 7 7 7 7 7 7 7 7 7 7 7 e 7 7 6 7 7 6 8 6 7 7 7 6 8 6 8 6 6 7 7 8 7 7 7 8 6 6 6 7 8 7 7 7 7 7 7 6 8 7 7 7 7 7 7 7 7 7 7 7 7 7 7 7 7 6 8 ",
"r r r r r u r r r r r u r r r r u u u e u u u u u u u e u u u u u e u u u e u u u u u u e u u u u e u u u u u u u e u u u e u u r u r r r r r u r r r ",
"P.P.L.P.P.P.P.P.L.P.P.P.P.P.L.L.P.P.P.P.L.P.P.L.P.P.L.P.P.P.P.P.L.P.P.P.P.P.L.L.P.P.P.P.P.P.L.P.L.P.L.P.P.P.P.P.P.P.P.L.P.L.L.P.P.P.P.P.L.P.P.P.P.L.L.",
"P.P.P.P.P.P.P.P.P.P.P.P.P.P.P.P.P.P.P.P.P.P.P.P.P.P.P.P.P.P.P.P.P.P.P.P.P.P.P.P.P.P.P.P.P.P.P.P.P.P.P.P.P.P.P.P.P.P.P.P.P.P.P.P.P.P.P.P.P.P.P.P.P.P.P.",
"P.P.P.P.P.P.P.P.P.P.P.P.P.P.P.P.P.P.P.P.P.P.P.P.P.P.P.P.P.P.P.P.P.P.P.P.P.P.P.P.P.P.P.P.P.P.P.P.P.P.P.P.P.P.P.P.P.P.P.P.P.P.P.P.P.P.P.P.P.P.P.P.P.P.P.",
"P.P.P.P.P.P.P.P.P.P.P.P.P.P.P.P.P.P.P.P.P.P.P.P.P.P.P.P.P.P.P.P.P.P.P.P.P.P.P.P.P.P.P.P.P.P.P.P.P.P.P.P.P.P.P.P.P.P.P.P.P.P.P.P.P.P.P.P.P.P.P.P.P.P.P.",
"P.P.P.P.P.P.P.P.P.P.P.P.P.P.P.P.P.P.P.P.P.P.P.P.P.P.P.P.P.P.P.P.P.P.P.P.P.P.P.P.P.P.P.P.P.P.P.P.P.P.P.P.P.P.P.P.P.P.P.P.P.P.P.P.P.P.P.P.P.P.P.P.P.P.P.",
"P.P.P.P.P.P.P.P.P.P.P.P.P.P.P.P.P.P.P.P.P.P.P.P.P.P.P.P.P.P.P.P.P.P.P.P.P.P.P.P.P.P.P.P.P.P.P.P.P.P.P.P.P.P.P.P.P.P.P.P.P.P.P.P.P.P.P.P.P.P.P.P.P.P.P.",
"F.F.F.F.F.F.F.F.L.G.F.F.F.F.F.F.F.F.F.F.F.F.F.F.F.F.F.F.F.F.F.F.L.F.F.F.F.F.F.F.F.F.F.F.F.F.F.F.F.F.F.G.F.G.F.G.L.G.F.F.F.F.F.F.F.F.F.F.F.F.F.F.F.F.F.",
"8 7 e e 7 e w e e 8 7 7 w e w 7 e e e e e 6 6 e 6 e e 6 e 7 e e e e 7 e e 7 e 7 e 6 6 e 6 e e 6 e 7 e 6 6 e e 6 e e 7 e e e e 6 7 e e 7 e w e w e w w ",
"w 7 7 w 7 7 7 7 7 7 7 7 7 7 e e u e 7 7 6 7 7 7 7 7 7 7 7 7 7 7 7 7 7 7 6 e 7 7 7 7 7 7 7 7 7 6 7 7 7 7 e e D.u 7 e 7 7 7 7 6 7 7 7 w w 7 7 7 7 7 7 7 ",
"7 7 7 7 7 7 7 7 7 e r r p F.H.H.u e 7 7 7 7 7 7 6 e 7 7 7 7 7 7 7 7 7 7 7 7 7 7 7 6 e 7 7 7 7 e 7 7 7 7 7 7 e H.u e 7 7 7 7 7 7 7 7 r r 7 7 7 7 7 7 7 ",
"w 7 7 7 w w 7 7 p H.L.P.P.P.F.r 7 7 7 7 7 7 7 7 7 7 7 7 7 7 7 7 6 e 7 7 7 7 7 7 7 7 e 6 6 7 7 7 7 7 7 7 7 7 7 u P.F.e e 7 7 7 7 w r F.e 7 7 7 7 7 7 7 ",
"7 7 w w w w 7 r L.P.P.P.H.r 7 7 7 7 7 7 7 7 7 7 7 7 7 7 7 7 7 7 7 7 7 7 6 7 7 7 7 7 7 7 7 7 7 7 7 7 7 7 7 7 7 e F.P.L.e 7 7 7 7 r H.p w 7 7 w 7 7 7 7 ",
"7 e D.H.H.G.p p L.P.L.p 7 7 7 7 7 7 e 7 7 7 6 6 7 7 7 7 7 7 7 7 7 7 7 7 e 7 7 7 7 7 7 7 7 7 7 7 7 7 6 6 7 7 7 7 e P.P.L.u e 7 u P.H.e 7 7 7 7 7 7 7 7 ",
"7 p P.P.P.P.u p p r e 7 7 7 7 7 7 7 6 7 7 7 e 7 7 7 7 7 7 e 7 7 7 7 7 7 7 7 7 7 7 7 7 7 7 7 7 7 7 7 7 e 7 7 7 7 e D.P.P.P.e e L.P.p 8 w 7 7 7 7 w 7 7 ",
"7 F.P.P.P.H.e H.P.p 7 7 w 7 7 7 7 7 7 7 7 7 7 7 7 7 7 7 7 7 7 7 7 6 7 7 7 7 6 e e 6 6 6 6 8 8 6 7 7 7 7 7 7 7 7 6 e H.P.P.u r L.L.e e w 8 6 7 7 7 7 7 ",
"7 F.P.P.P.u e L.P.H.e 7 7 7 7 7 7 7 7 7 7 7 7 7 7 e 7 7 7 7 7 7 7 e 7 6 7 7 7 6 6 6 8 8 6 6 6 6 7 7 7 7 7 7 7 7 7 w r D.H.u r D.e e 7 6 w w 7 w 7 w 7 ",
", J.P.P.D.w r P.P.P.p w 7 0 9 8 7 7 7 9 : : : , : : , , , 2 , , : , 2 , , : 2 , : : : : : : : : , 2 , , 2 , , , : 0 8 7 w r F.D.e 8 > a q 8 w 8 > : , ",
"Z K.P.D.8 7 7 D.P.P.G.w 7 9 5 3 > 0 8 8 > b Z Z v v v v v v v v v v v v v v v v v n D v v v v v v v v v v v v Z ; 9 w w 7 F.P.L.e 7 2 v b 2 > 9 0 b v ",
"K K.H.r w 7 7 w F.P.L.r 7 7 : H v v b : 0 0 ; Z v v v v v v v v v v v v v v v v v v v v v v v v v v v v v v n ; 9 w 8 q r L.P.P.r 6 d P D D v S 3 2 n ",
"K K.D.w 7 7 8 8 r L.P.D.7 7 9 5 v v v v Z b ; Z v v v v v v v v v v v v v v v v v v v v v v v v v v v v F ,.2.j h %.@.L p P.P.L.e 6 j [.`.f.,.D v v v ",
"K J.r 7 e w 0 3 q u P.L.e 7 7 4 v v v v v v Z v v v v v v v v v v v v v v v v v v v v v v v v v v v v v ,.[..X.X%X&XOX'.J.P.P.F.t y i XX&XOX Xh.F v v ",
"N J.e 7 7 q ; v 5 q p P.p 7 7 d v v v v v v v v v v v v Z v v v v v v v v v D v v v v v v v v v v v v F h. X%X%X&X%XOX'.L.P.L.r %.(.u '.&X&X&X%Xh.Z v ",
"f J.7 7 6 , v v v ; 9 D.G.w w 8 b Z v v Z v v v v v v v v v v v v v v v v v v v v v v v v v v v v v Z z #.k._._._.j.k.=.L.P.G.t y.d.i %.{.oX&X&XXX~ v ",
"f p 7 7 9 P i.p.p.p.r.g G.p w w o.p.i.9.D D v v v v v v v v v v v v v v v v v v v v v v v v v v v v v o ; f.f.f.d.f.f.*.L.P.u j f.f.$.j f.|.%X&XXX,.n ",
"f r 7 8 o.b.n.n.A.A.`.c.h D.7 6 k n.n.n.p.F v v v v v v v v v v v v v v v v v v v v v v v v v v v v v o $ d.f.f.f.f.f.*.L.L.u *.f.f.d.k d.{.oXoX|.h.D ",
"f e 7 d v.A.n.n.A.A.A.A.x.g 7 6 i v.n.n.n.q.v Z v v v v v v v v v v v v v v v v v v v v v v v v v v Z # . L f.f.f.f.f.*.L.F.g 2.f.f.f.y.d.{.%XoX`.h.P ",
"d 7 q r.b.b.b.b.A.A.A.A.c.x.g 6 e t.l.A.A.u.F Z v v v v v v v v v v v v v v v v v v v v v v v v v v v z X 4 f.f.f.f.f.*.F.u $.f.f.f.f.d.f. X%XoX{.j.I ",
"> 7 : p.b.b.b.b.u.A.l.A.A.c.x.g 6 l A.A.A.A.J D v v v v v v v v v v v v v v v v v v v v v v v n v v v v @ X #.f.f.f.f.*.p s d.f.f.f.f.f.g.XXoX%X Xj.U ",
"> 0 b p.b.b.b.b.A.A.x.l.c.c.c.x.g t x.A.A.A.7.z v v v v v v v v v v v v v v v v v v v v v I ^ ^ ~ W D D c . K 2.f.f.f.*.e k f.f.f.f.f.f.j.oXoX%XXX).~ ",
", ; v p.b.b.b.b.A.x.A.A.c.A.A.c.x.g t.A.l.A.8.z v v v v v v v v v v v v v v v v v v v v ~ ^ ~ ^ ^ ^ ^ ~ Z o O i.f.f.f.*.y d.f.f.f.f.f.d.k.oX%XoX Xj.U ",
"D x x u.A.A.l.A.b.b.c.A.x.A.A.l.A.u.l A.b.b.G v v v v v v v v v v v v v v v v v v v v Z T E E E E ~ ~ ^ F # X R f.f.f.$.k f.f.f.f.f.f.f.j. X|.`.g.h.F ",
"D x x 7.c.l.A.A.b.b.b.c.A.A.l.A.A.A.A.l.b.z.n v v v v v v v v v v v v v v v v v v v v c Y ~ E E E E ~ ~ G c . - d.f.f.=.=.f.f.f.f.f.f.f.f.f.f.f.f.#.v ",
"D v 5 $ u.A.A.u.b.b.A.c.c.A.x.A.x.A.A.A.z.A z v v v v v v v v v v v v v v v v v v v Z c S ~ E E T ~ E q.I v + o r.f.f.f.f.f.f.f.f.f.f.g.f.f.f.f.R c v ",
"v v 5 $ $ 8.A.A.b.b.c.c.A.l.A.x.A.l.A.z.5 o v v v v v v v v v v v v v v v v v v v v v # b ~ E E ~ T ~ ~ G Z - . L 3.g.f.f.f.f.f.f.f.f.g.f.f.=.A o v v ",
"v v v # . $ 7.A.b.b.b.b.c.A.A.A.A.A.u.$ . z v v v v v v v v v v v v v v v v v v v v v c @ F ~ ~ E F S S Z Z v X $ @.#.#.#.#.#.#.#.#.#.#.#.K o X # Z v ",
"v v v v + . . % u.b.b.b.A.c.u.A.x.u.$   z v v v v v v v v v v v v v v v v v v v v v v v # o @ - @ @ o # Z n v @ . . X X X X X X o X X X . . o z v v v ",
"v v v v x x     $ 5 l.b.A.A.b.b.A.7.  4 v v v v v v v v n D D B v v v v v v v v v v v v Z c # # c c v v v v v c X X . X X X X X X . . X X # b v v v v ",
"v v v v x 7.4 $     $ 7.l.c.c.c.7.$ x x v v v v v v n B B C -.>.-.C B n v v v v v v v v v v v v Z v v v v v v v c c c c c c c c z z c c Z D v v v v v ",
"v v v v v v v v z o . . o % 5 %   % v v v v v n B V -.-.5.5.6.6.6.6.<.V n v v v v v v v v v v v v v v v v v v v Z v v v v v D v v v v v v v v v v v v ",
"v v v v v v v v D z @ X .       + x v v D n B C -.<.5.6.6.6.6.6.6.6.6.<.B v v v v v v v v v v v v v v v v v v v v v v v v v v v v v v v v v v v v v v ",
"v v v v v v v v v v D z # + o # z z D D B ' -.5.6.6.5.5.5.5.>.>.<.5.6.6.>.B v v v v v v v v v v v v v v v v v v v v v v v v v v v v v v v v v v v v v ",
"v v v v v v v v v v D D v v v v D D D D ' ' >.<.>.-.-.-.' ' V ' V C -.5.6.>.B v v v v v v v v v v v v v v v v v v v v v v v v v v v v v v v v v v v v ",
"v v v v v v v v v v v z v v v v v v v b ' ' ' ' ' ' ' ' ' ' ' ' ' ' ' -.3.5.] n v v v v v v v v v v v v v v v v v v v v v v v v v v v v v v v v v v v ",
"v v v F D D D v F F D D v v v v v v z = ' ' ' ' ' V ' ' ' V ' ' ' ' ' ' -.6.<.B v v v v v v v v v v v v v v v v v v v v v v v v v v v v v v v v v v v ",
"v v W e.M.m.m.m.m.N.m.G v v v v v v z # ' ' ' ' ' ' ' ' ' ' ' ' ' ' V ' ] 5.5.C n v v v v v v v v v v v v v v v v v v v v v v v v v v v v v v v v v v ",
"v v Q m.S.S.S.S.:XS.Z.a.n v v v v n z = V V ' ' ' ' ' ' ' ' ' ' ' ' ' ' ' <.3.' D v v v v v v v v v v v v v v v v v v v v v v v v v v v v v v v v v v ",
"v # Z 0.e.m.M.M.M.B.S.B.J Z v v v v z = V ' ' ' ' ' ' ' ' ' ' ' ' ' ' ' V <.<.V n v v v v v v v v v v v n v v v v v v v v v v v v v v v v v v v v v v ",
"v o x ! 0.! ! 0.! 0.s.S.0.Z v v v n z @ V ' ' V ' ' ' ' ' V ' ' ' ' ' ' V <.>.V n v v v v v v v v v v v v v v v v v v v v v v v v v v v v v v v v v v ",
"Z + + ! 0.0.0.0.0.0.e.S.s.Z v v v v z = ' ' ' ' ' ' ' ' ' ' ' ' ' ' ' ' V <.-.B Z v v v v v v v v v v v v v v v v v v v v v v v v v v v v v v v v v v ",
"v + o Q 0.0.0.0.0.0.! B.N.D v v v v # @ ' ' ' ' ' V ' ' ' ' ' ' ' ' ' ' ' >.V n v v v v v v v v v v v v v v v v v v v v v v v v M V ] ' n v v v v v v ",
"Z # o W 0.0.0.0.0.0.0.s.C.G v v v v z = V ' ' ' ' ' ' ' ' ' ' ' ' ' ' ' ' ' B v v v v v v v v v v v v v v v v v v v v v v Z M ' [ ;.Y.:.V v v v v v v ",
"v z X J 0.0.0.0.0.0.0.s.Z.Q v v v v z o V ' ' ' ' ' ' ' ' ' ' ' ' ' ' ' ' V n v v v v v v v v v v v v v v v v v v v v Z n V [ ..R.Q.Q.R.} n v v v v v ",
"v v X J 0.0.0.0.0.0.0.e.Z.e.v v v v z X o = = = - = = = = = = = = = - = = # v v v v v v v v v v v v v v v v v v v v Z n [ ..T.W.Q.Q.R.R.;.N v v v v v ",
"v z o W 0.0.0.0.0.0.0.e.C.e.v v v v c X     . . . . . . . . . . . . . . . # v v v v v v v v v v v v v v v v v v v n B  .I.E.Q.W.R.R.R.R.U._ v v v v v ",
"D z + W 0.0.0.0.0.0.0.e.S.e.Z Z v v v z + + @ + + + + @ + + + + + + + + # v v v v v v v v v v v v v v v v v v v M ] ;.E.Q.W.R.R.Y.Y.R.R.R.` b v v v v ",
"D x + Q 0.0.0.0.0.0.0.w.B.w.v v v v v n P <.5.!.4.3.>.P v v v v v v v v v v v v v v v v v v v v v v v Z n M ' [ :.Y.W.W.R.R.U.} ) ` ;.R.R.} N v v v v ",
"v z % ! 0.0.0.0.0.0.0.w.V.w.Z v v v C !.].#X$X$X$X$X#X}.1.F v v v v v v v v v v v v v v v v v v v v n N [ [ | T.E.R.R.R.T.| ) ) ) ) ` U.R.;.m v v v v ",
"D z z 0.0.0.0.0.0.0.0.e.V.e.v v P <.].$X;X;X-X-X*X-X;X;X*X!.F n v v v v v v v v v v v v v v v v Z V [ [ } I.R.R.R.Y.I.} ) ) ) ) ) ) ) } R.;.( c v v v ",
"v # x e.0.0.0.0.0.0.e.e.B.0.v B !.#X$X$X@X@X]./.].].@X=X;X*X1.n v v v v v v v v v v v v v v Z n ' ` ) ;.Y.R.R.I.} ) ) ( ) ) ) ) ( ) ) ) U.U.) - v v v ",
"v + H 0.0.0.0.0.0.0.0.e.N.Q D 4.@X@X/./.^.^.^.^.^.^./.'.*X;X].O.v v v v v v v v v v v v v v v N ) } U.W.R.U.{ ) ) ) ) ) ) ) ) ) ) ) ) ( } Y.) b v v v ",
"v + H 0.0.0.0.0.0.0.0.e.m.W C ]./.^.^.^.^.^.^.^.^.^.^.^.@X;X@X1.v v v v v v v v v v v v v v n [ { Y.E.R.;.) ( ) ) ) ) ) ) ) ) ) ) ) ) ) ` I.` * c v v ",
"z + H 0.0.0.0.0.0.0.0.e.m.D O.].^.^.^.^.^.^.^.^.^.^.^.^.'.;X#XI.b v v v v v v v v v v v v v n [ { R.R.;.) ) ) ) ) ) ) ) ) ) ) ) ) ) ) ) ) ;.{ = v v v ",
"v + x 0.0.0.0.0.0.0.0.e.w.v P !.^.^.^.^.^.^.^.^.^.^.^.^.].-X#X&.@ v v v v v v v v v v v v v F ` ` R.T.) ) ) ) ) ( ) ) ( ) ) ) ( ) ) ) ) ( { { * v v v ",
"v o % 0.0.0.0.0.0.0.0.0.Q v v ] ~.^.^.^.^.^.^.^.^.^.^.^.+X#X~.; + v v v v v v v v v v v v v n ` ) U.U.) ) ) ) ) ) ) ) ) ) ) ) ) ) ) ) ) ) ) ) * v v v ",
"v + + ! 0.0.0.0.0.0.! w.W v v v +.~.^.^.^.^.^.^.^.^.^.^././._ X # Z v v v v v v v v v v v v v N ( | T.` ) ) ) ) ) ) ) ) ( ) ) ) ) ) ) ) ) ) / = v v v ",
"v + o Q 0.0.0.0.0.0.0.Q v v v v # V ~.^.^.^./.^.^.^.^.^.^.&.X o v v v v v v v v v v v v v v v b m ) U.` ) ) ) ) ( ) ) ( ) ) ) ( ( ) ) ( ) ) m # v v v ",
"D x . H 0.0.0.0.! Q Z x v v v v Z # - K X.+.+.+.+.+.[ R 3 o X c v v v v v v v v v v v v v v v v O < { { ) ) ) ) ) ( ) ) ) ) ) ) ) ) ) ) ) ) < # v v v ",
"D z . @ Q 0.0.0.J % + Z v v v v v v # X .   . X . . . . . o c v v v v v v v v v v v v v v v v v c o 1 ` ) ) ) ) ) ) ) ) ) ) ) ) ) ) ) ) / / O c v v v ",
"v z o . + H H % o # v v v v v v v v v v b c z z c z z z z b v v v v v v v v v v v v v v v v v v v @ O / ) ) ) ) ( / / / m m 1 < * * & & O X + v v v v ",
"v D % .   . . o z v v v v v v v v v v v v v v v v D v v v v v v v v v v v v v v v v v v v v v v v v + O < * * & & O O o X . X .     . . . o c v v v v ",
"v v v z + @ z v v v v v v v v v v v v v v v v v v v v v v v v v v v v v v v v v v v v v v v v v v v c o . . . . . X X o o o + + + # c c v c v v v v v ",
"v v v v v v D v v v v v v v v v v v v v v v v v v v v v v v v v v v v v v v v v v v v v v v v v v v v c @ # # z z c z v v v v v v v v v v v v v v v v ",
"v v v v v v v v v v v v v v v v v v v v v v v v v v v v v v v v v v v v v v v v v v v v v v v v v v v v v v v v v v v v v v v v v v v v v v v v v v v "
};
