/* XPM */
static char *result[] = {
/* columns rows colors chars-per-pixel */
"75 75 197 2 ",
"   c #5F2D09",
".  c #5F3109",
"X  c #602E09",
"o  c #64320A",
"O  c #6B350B",
"+  c #6C3C0A",
"@  c #71370B",
"#  c #743A0C",
"$  c #7C3D0D",
"%  c #6E3A11",
"&  c #763D11",
"*  c #793F11",
"=  c #5A4A0A",
"-  c #5D5808",
";  c #6E4008",
":  c #784F07",
">  c #73430A",
",  c #744908",
"<  c #7C4E0D",
"1  c #6F570C",
"2  c #655D0B",
"3  c #6A5A0C",
"4  c #7C5407",
"5  c #74540D",
"6  c #79510D",
"7  c #785A0A",
"8  c #754116",
"9  c #7C4013",
"0  c #794419",
"q  c #7E491C",
"w  c #7B5911",
"e  c #466F07",
"r  c #476F08",
"t  c #4B6D08",
"y  c #556709",
"u  c #5C620A",
"i  c #526A09",
"p  c #5C6C0E",
"a  c #467008",
"s  c #4B730A",
"d  c #4F780E",
"f  c #52730B",
"g  c #5A740A",
"h  c #507A0E",
"j  c #5C7212",
"k  c #537D11",
"l  c #597A12",
"z  c #62630C",
"x  c #6A640C",
"c  c #626B0F",
"v  c #687807",
"b  c #627308",
"n  c #697408",
"m  c #767A08",
"M  c #7A7D08",
"N  c #676E12",
"B  c #786514",
"V  c #637214",
"C  c #687616",
"Z  c #6C7F1B",
"A  c #72751B",
"S  c #717A19",
"D  c #797321",
"F  c #823F0E",
"G  c #85420E",
"H  c #8C450F",
"J  c #844A0E",
"K  c #8C490F",
"L  c #904A0F",
"P  c #825C07",
"I  c #81540F",
"U  c #8C510C",
"Y  c #8C5C0B",
"T  c #90570C",
"R  c #905C0B",
"E  c #814412",
"W  c #8E4711",
"Q  c #8A4B12",
"!  c #884A17",
"~  c #924C13",
"^  c #885414",
"/  c #955312",
"(  c #9B5614",
")  c #995A12",
"_  c #95521A",
"`  c #9A561C",
"'  c #9F591B",
"]  c #A05517",
"[  c #A15718",
"{  c #A25A1B",
"}  c #AA5E1B",
"|  c #866206",
" . c #8A6706",
".. c #8A6806",
"X. c #876908",
"o. c #926F06",
"O. c #92640A",
"+. c #936B08",
"@. c #877307",
"#. c #957206",
"$. c #9A7606",
"%. c #9E7906",
"&. c #9B7508",
"*. c #986712",
"=. c #987013",
"-. c #A17C06",
";. c #A16613",
":. c #A56C14",
">. c #AF611D",
",. c #A07714",
"<. c #AA7515",
"1. c #A27B15",
"2. c #AE7B16",
"3. c #B17F16",
"4. c #854F21",
"5. c #8D5524",
"6. c #8F5827",
"7. c #9D5B24",
"8. c #955E2C",
"9. c #A05E27",
"0. c #99612E",
"q. c #8B7328",
"w. c #92752E",
"e. c #9D6531",
"r. c #9C7E35",
"t. c #A4632B",
"y. c #A9672D",
"u. c #A16732",
"i. c #A36A35",
"p. c #AC6C34",
"a. c #A17D37",
"s. c #AC743A",
"d. c #A57C38",
"f. c #AB793B",
"g. c #B17237",
"h. c #B2773E",
"j. c #B3783E",
"k. c #BB7C3F",
"l. c #B57B43",
"z. c #BA7D43",
"x. c #568113",
"c. c #5A8515",
"v. c #5D8817",
"b. c #5F8A18",
"n. c #628E1A",
"m. c #6A881B",
"M. c #65921D",
"N. c #6A901F",
"B. c #6F8E22",
"V. c #738D23",
"C. c #7B8926",
"Z. c #6B9020",
"A. c #8C8207",
"S. c #968507",
"D. c #9B8607",
"F. c #A68307",
"G. c #AA8407",
"H. c #A48907",
"J. c #AD8A07",
"K. c #A78008",
"L. c #AE8708",
"P. c #B48D07",
"I. c #AB8516",
"U. c #AF8B17",
"Y. c #B28417",
"T. c #B38918",
"R. c #B58C18",
"E. c #BA8D18",
"W. c #B69219",
"Q. c #B99619",
"!. c #BC9A1C",
"~. c #8E842F",
"^. c #958132",
"/. c #C09619",
"(. c #C39C1B",
"). c #C7A11F",
"_. c #C8A11F",
"`. c #C19B21",
"'. c #C4A323",
"]. c #C9A524",
"[. c #CDA927",
"{. c #CDAC2A",
"}. c #D1AE2B",
"|. c #CFB02F",
" X c #D3B432",
".X c #D6B936",
"XX c #D9BA36",
"oX c #DBBD39",
"OX c #BC8046",
"+X c #BC824B",
"@X c #BF8752",
"#X c #BF8954",
"$X c #C38B55",
"%X c #C58F5A",
"&X c #C6905D",
"*X c #C8925E",
"=X c #C89461",
/* pixels */
"r s b.M.M.M.M.M.n.s r s r r r r r r 3 H H H H H H H H H H H H H H H H H H H H H H H H H H H H H H H H H H H H H K K K U U U I J J $ F H H H H H H H H ",
"r s n.M.M.M.M.M.n.s r r r r r r r a 2 H H H W H H H H H H H H H H H H H H H H H H H H H H H H H H H H H H L T R O........... .| | 4 : # @ F H H H H H ",
"r s b.M.M.M.M.M.n.s a r r r r r r a 2 H H H H H H H H H H H H H H H H H H H H H W H H H H H H H H H H L O.+.$.#..................... . .4 o @ G H H H ",
"r s b.M.M.M.M.M.n.s r r r r r r r a 2 H H H H ~ ] ] } [ Q H H H H H H H H H H H H H H H H H H H H H R o...@.H................. ..... .....; . $ H H H ",
"r a b.M.M.M.M.M.n.s r r r r r r r a 2 H H H W } } [ ' { Q @ H H H H H H H H H H H H H H H H H H H K +.+.$.m H.$. .........................; X $ H H H ",
"r r v.M.M.M.M.M.n.d r r r r r r r r u H W H ~ >.{ { ' ' Q @ H H H H H H H H H H H H H H H H H H H H O.-.H.g D.%........... ........... ...,   # H H H ",
"r s c.M.M.M.M.M.M.d r r r r r r r r u H H H ] } { ' ' { _ # E H H H H H H H H H H H H H H H H H H H R K.D.r @.J..... ........... .........4 X @ H H H ",
"r r c.M.M.M.M.M.n.d r r r r r r r r y H H W } } { ' ' ' ' # G H H H H H H H H H H H H H H H H H H H L &.M r m J.#............. ....... ...4 X + H H H ",
"r r v.M.M.M.M.M.M.d r r r r r r r r y H H W } { ' ' ' ' ' * $ H H H H H H H H H H H H H H H H H H H H  .b e g H.$.........................4 X O G H H ",
"r r x.M.M.M.M.M.M.d r r r r r r r r t J H H } } ' ' ' { ` # $ H H H H H H H H H H H H H H H H H H H H Y f e t S.G......... ....... .......P o o G H H ",
"r r x.M.M.M.M.M.M.h r r r r r r r r t < H H ~ } { ' { ` E O H H H H H H H H H H H H H H H H H H H H H J t e e M J.#................... ...| o o G H H ",
"r r k M.M.M.M.M.M.k r r r r r r r r r 5 H H W ~ / Q E $ # G H H H H H H H H H H H H H H H H H H H H H 4 t e e b J.%... ....... ........... .+ X G H H ",
"r r h M.M.M.M.M.M.k r r r r r r r r r 1 H H H H W F G H H H H H H H H H H H H H H K H H H H H H H H H 5 r r r f H.F....................... .+ X F H H ",
"r r h M.M.M.M.M.M.x.r r r r r r r r a 2 H H H H W H H H H H H H H H H H H H H H H H H H H H H H H H H 5 r r r r A.P.#..... ..... ...........+ X $ H H ",
"r r h n.M.M.M.M.M.v.r r r r r r r r r u H H H H H H H H H H H H H H H H H J 3 5 6 J J H H H H H H H H 5 r r e e M P.%......... ....... .....> X $ H H ",
"r r s n.M.M.M.M.M.v.s r r r r r r r e y J H H H H H H H H H H H H H H H H H 5 y r t i y u 2 1 5 J J H < t r r e v P.F..................... ., X # H H ",
"r r s n.n.M.M.M.M.b.s r r r r r r r r t < H H H H H H H H H H H H H H H H H H J u r a e a r r r r i u 6 t r r r g J.P.#.....................:   @ H H ",
"r r r n.M.M.M.M.M.n.s r r r r r r r r r 1 H H H H H H H H H H H H H H H H H H H Q 1 r e r r r r r r r i i r r r t D.P.%............. .......4 . @ H H ",
"r r s n.M.M.M.M.M.n.s r r r r r r r r r 2 H H H H H H H H H H H H H H H H H H H H H < y r r r r r r r r r r r r t S.P.G......... ...........4 o O H H ",
"r r r n.M.M.M.M.M.n.s r r r r r r r r r i J H H H H H H H H H H H H H H H H H H H H Q J 2 r r r r r r r r r r r g H.P.P.#....... .o.-.G.$...P o o G H ",
"r r r c.M.M.M.M.M.M.h r r r r r r r r r r : W H H H H H H H H H H H H H H H H H H H H H K 1 t r r r r r r r r r n L.P.P.H.o.....$.H.P.P.P.G.| o o G H ",
"r r r c.M.M.M.M.M.M.h r r r r r r r r r r 2 H H H H H H H H H H H H H H H H H H H H H H K 6 y r r r r r r r r r X.K.P.P.P.P.F.P.P.P.P.P.P.-.| o o G H ",
"r r r x.M.M.M.M.M.M.h r r r r r r r r r r y J H H H H H H H H H H H H H H H H H H H H < c l x.x.d r r r r r r u ..$.J.P.P.P.P.P.P.P.P.P.K..., o $ H H ",
"r a s l M.M.M.M.M.M.k r r r r r r r r r r t < H H H H H H H H H H H H H H H H H H 6 N v.M.M.M.b.h r r r r r s u x b v v A.P.P.P.P.P.P.%.P + O G H H H ",
"r r r h M.M.M.M.M.M.c.r r r r r r r r r r r 2 H H H H H H H H H H H H H H H H 7 N n.M.M.M.n.c.d r r r r r g v.v.x.x.d d a v S.J.H.-.o.4 + O G H H H H ",
"r r r h M.M.M.M.M.M.c.r r r r r r r r r r r i J H H H H H H H H H H H H J B C n.n.n.x.h d d r e r r r r r s b.M.M.M.M.n.c.d s n X.| , O # H H H H H W ",
"r r r h M.M.M.M.M.M.v.s r r r r r r r r r r r 5 H H H H H H H H H H < 3 g k x.d s t r a r r r e r r r s k s d n.M.M.M.M.M.M.v.d f - # G H H H H H H H ",
"r r r s n.M.M.M.M.n.n.r r r r r r r r r r r r u H H H H H H H J 5 z t r t r t t t t t i i i i u 6 u a k v.a r h M.M.M.M.M.M.M.n.c.d i 1 H H H H H H H ",
"r r r s n.M.M.M.M.M.n.s r r r r r r r r r r r t < H H H H H H < 6 , : < < < < J J J J J J H J Q W : d n.x.r r r d c C C m.c.n.v.b.b.c.d u 5 H H H H H ",
"r r r s n.M.M.M.M.M.n.s r r r r r r r r r r r r 2 H H H H H H H Q W W H W W W W W H H H H H F H W 5 c.Z.h r r r r i 1 J < : 5 5 x z c j i i 2 < H H H ",
"r r r r b.M.M.M.M.M.M.d r r r r r r r r r r r r y J H H H H H H W W H H H H H H H H H H H H H H W z b.b.s r r r r r r 2 H H H H H H H K J < 6 6 H H H ",
"r r r s v.M.M.M.M.M.M.d r r r r r r r r r r r r r 5 H H H H H H H H H H H H H H H H H H H H H H Q p Z.c.r r u r r r r r 2 H H H H H H H H H H H H H H ",
"r r r r v.M.M.M.M.M.M.h r r r r r r r r r r r r a u K H H H H H H H H H H H W ~ W H H H H H H H H l n.d r t J 2 r r r r r 3 H H H H H H H H H H H H H ",
"r r r r c.M.M.M.M.M.M.h r r r r r r r r r r r r r t 6 H H H H H H H H H H 7.g.g.g.y._ G H H H H < l v.r e z H J u r r r r t < H H H H H H H H H H H H ",
"r r r r x.M.M.M.M.M.M.k r r r r r r r r r r r r r r 2 H H H H H H H H H ~ g.OXOXk.z.s.& F H H H 1 c.h r r 6 H H J u r r r r y J H H H H H H H H H H H ",
"r r r r x.M.M.M.N.M.M.x.r r r r r r r r r r r r r r i J H H H H H H H F ( g.$Xk.k.k.k.! @ H H H 3 c.s r u H H H H H 5 u r r r 2 H H H H H H H H H H H ",
"r r r r x.M.M.M.M.M.M.c.r r r r r r r r r r r r r r r 5 H H H H ~ F ~ F _ +X$Xk.k.k.k.u.O $ H H z x.a r 5 H H H H H H J 1 i r t 5 H H H H H H H H H H ",
"r r r r x.M.M.M.M.M.M.v.r r r r r r r r r r r r r r a u H H H H F ~ F ~ ~ $X$Xk.k.k.z.h.8 O G H p s a i J H H H H H H H H J 1 i y J H H H H H H H H H ",
"r r r r h M.M.M.M.M.M.v.r r r r r r r r r r r r r r r t J H W H ~ L W F W +X$Xk.k.k.k.j.6.X $ H y a a 2 H H H H H H H H H H H J 2 2 J H H H H H H H H ",
"r r r r h M.M.M.M.M.M.v.r r r r r r r r r r r r r r r r 6 F H H L F W F W z.$Xk.k.k.k.l.i.O O E y a i 6 H H H H H H H H H H H H H 6 < H H H H H H H H ",
"r r r r h M.M.M.M.M.M.v.r r r r r r r r r r r r r r r r 2 Q H H L H H H ~ k.%Xk.k.g.k.l.s.q X O y r u H H H H H H H H H H H H H H H K H H H H H H H H ",
"r r r r f M.M.M.M.M.M.n.r r r r r r r r r r r r r r r e u W H H H H H H F k.%Xk.k.l.p.l.l.e.O X = t 5 H H H H H H H H H H H H H H H H H H H H H H H H ",
"r r r r d M.M.M.M.M.M.n.r r r r r r r r r r r r r r r r y J W H H H H H F g.*Xz.l.l.l.l.s.h.u.& . = J H H H H H H H H H H H H H H H H H H H H H H H H ",
"r r r r s M.M.M.M.M.M.v.d r r r t r r r r r r r r r r e i J F H H H H H F p.*Xz.p.g.l.g.l.l.l.i.& X G H H H H H H H H H H H H H H H H H H H H H H H H ",
"r r r r d n.M.M.M.M.M.n.d r r r r r r r r r r r r r r e i 8.* @ F W ~ W F y.=XOXl.g.l.l.s.g.g.l.4.X 9 H H H H H H H H H H H H H H H H H H H H H H H H ",
"r r r r s n.M.M.M.M.M.n.s r r r r r r r r r r r r r r r j f.e.O @ F F ~ W y.=X+Xl.l.g.l.l.l.l.s.0 o G H H H H H H H H H H H H H H H H H H H H H H H H ",
"r r r r d n.M.M.M.M.M.n.s r r r r r r r r r r r r r r r j f.h.5.X O F F F t.*X+Xp.l.l.s.s.g.l.u.O O H H H H H H H H H H H H H H H H H H H H H H H H H ",
"r r r r s M.M.M.M.M.M.n.d r r r r r r r r r r r r r r e V f.l.p.F X # F ~ >.*X+Xl.g.g.l.l.l.l.4.X F H H H H H H H H H H H H H H H H H H H H H H H H H ",
"r r r r d M.M.M.M.M.M.n.s a r r s s r r r r r r r r r e A h.h.l.u.% X F H 7.%X@Xh.f.l.l.OX$Xu.O @ H H H K H H H H H H H H H H H H H H H H H H H H H H ",
"r r r r s n.M.M.M.M.M.n.s a r r d k r r r r r r r r r r D h.h.h.l.t.% o F _ %X%Xl.f.l.#X&Xl.0 o F H H K L L ~ K G F F W H H H H H H H H H H H H H H H ",
"r r r r d n.M.M.M.M.M.n.r r r r k c.r r r r r r r r r r q.h.h.h.s.h.i.0 X E z.=X@X@X&X#XOX5.X $ ( :.3.Y.R.E.T.I.,.*.6 > # $ F W H H H H H H H H H H H ",
"r r r r s M.M.M.M.M.M.v.d r r r k b.r r r r r r r r a t a.l.h.h.h.h.l.s.0 X 5.+X%X%X#Xl.0.O # <./.(._.(.).'.`.(.!.!.Q.I.*.< O O # G H H H H H H H H H ",
"r r r r f M.M.M.M.M.M.n.r r r r c.n.s r r r s r r r e j f.h.h.h.l.h.h.h.e.X X ! 9.t.7.5.# # [ (.(. XXXXXXXXXXX.X.X X{.{.(.W.1.w o o O # G G H W H H H ",
"r r r r d M.M.M.M.M.M.n.r r r r b.n.s r r r r r r r r D h.h.h.h.h.h.h.h.i.O X # H H H H H L Y.(.}.oXoXoXoXoXoXoXoXoXoXoX.X{.`.Q.I.6 o     O @ $ H H H ",
"r r r r d M.M.M.M.M.M.v.r r r d n.M.d r r r r r r r r w.l.h.h.s.d.f.h.l.i.o   # H H H H H L /.(.XXoXoXoXoXXXXX X X.X.XoXoXoXXX{.'.W.I.6 o       O H H ",
"r r r r d M.M.M.M.M.M.v.r r r d n.n.d r r r r r r r j s.h.h.d.~.d.h.h.h.8.X X $ H H H H H ( /._.oXoXoXoX}.`.(.Q.!.Q.!.'.{.{. X.X.X|.{.`.=.< o . o F H ",
"r r r r h M.M.M.M.M.M.v.r r r h M.M.k r a r r r r a A f.h.r.C.r.h.h.h.h.!   X F H H H H H ;.(.[.oXoXoX'.Q.Q.Q.Q.W.Q.Q.Q.Q.Q.!.!.(.'.{.].!.I.%   X # H ",
"r r r r x.M.M.M.M.M.M.c.r r r h M.M.x.a r r r r r t w.f.~.B.r.h.h.h.l.s.%   O W H H H H H :.(.[.oXoX XQ.Q.Q.Q.Q.Q.Q.Q.Q.Q.Q.Q.Q.Q.Q.W.W.Q.U.+   X @ H ",
"r r r r x.M.M.M.M.M.M.x.r r r c.M.M.x.r r r r r r V r.~.Z.w.h.h.h.h.l.8.X X # W H H H H H <.(.[.oXoX{.Q.Q.Q.Q.Q.Q.Q.Q.Q.Q.Q.Q.Q.Q.Q.Q.Q.Q.U.; o X @ H ",
"r r r a c.M.M.M.M.M.M.h r r r v.M.M.c.r r r r r a Z B.M.^.l.h.h.h.h.s.* X O F W H H H H H 2.(.}.oXoX|.Q.Q.Q.Q.Q.Q.Q.Q.Q.Q.Q.Q.Q.Q.Q.Q.Q.Q.W.,   X @ H ",
"r r r r c.M.M.M.M.M.M.h r r s n.M.M.x.r r r a d b.M.Z.^.f.l.h.h.h.h.8.o X # W H H H H H H 3.(.{.oXoX X!.Q.Q.Q.Q.Q.Q.Q.Q.Q.Q.Q.Q.Q.Q.Q.Q.Q.Q.I X X O H ",
"r r r r v.M.M.M.M.M.M.d r r r n.M.b.s r s k v.M.M.B.r.l.h.h.h.h.h.h.0 X X G H H H H H H H <.(.[.oXoX.X'.Q.Q.Q.Q.Q.Q.Q.Q.Q.Q.Q.Q.Q.Q.Q.Q.Q.Q.=.o X O G ",
"r r r r v.M.M.M.M.M.M.d r r r h b.k s x.b.M.M.M.V.a.f.h.h.h.h.h.h.8.X X $ H H H H H H H H *.!.)..XoXoX X!.Q.Q.Q.Q.Q.Q.Q.Q.Q.Q.Q.Q.Q.Q.Q.Q.Q.I.+ X O G ",
"r r r d n.M.M.M.M.M.n.t r r r r s s c.M.M.M.b.C.f.h.h.h.h.h.h.l.s.& X O F H H H H H H H H W Y.(.{.oXoXoX X'.Q.Q.Q.Q.Q.Q.Q.Q.Q.Q.Q.Q.Q.Q.Q.Q.W.I X X F ",
"r r r d n.M.M.M.M.M.n.s r r r r r h n.n.n.n.l w.h.h.h.h.h.h.h.j.6.X X $ W H H H H H H H H H ~ 3./.}.oXoXXX.X|.'.Q.Q.Q.Q.Q.Q.Q.Q.Q.Q.Q.Q.Q.Q.Q.=.X X F ",
"r r r h M.M.M.M.M.M.v.r r r r d h r r d d d V h.h.j.h.h.h.h.j.i.+ X O W H H H H H H H H H H H H ) :.Y./.].].'.`.Q.Q.Q.Q.Q.Q.Q.Q.Q.Q.Q.Q.Q.Q.Q.1.O O H ",
"r r r h M.M.M.M.M.M.x.r r r r h n.k r r r r q.k.j.j.j.h.f.l.f.!   o F H H H H H H H H H H H H H H H H L ( *.<.2.Y.R.R.R.W.W.Q.Q.Q.Q.R.R.Y.<.;.T F H H ",
"r r r x.M.M.M.M.M.M.h r r r r s n.M.v.h r y ^ y.j.j.g.h.h.i.q . o $ H H H H H H H H H H H H H H H H H H H H W W L L / / ) ) ) ) ) / / ~ H H H H H H H ",
"r a r c.M.M.M.M.M.M.h r r r r r c.M.M.n.h 3 H H ~ ` 7._ ! & O # G H H H H H H H H H H H H H H H H H H H H H H H H H H H H H H H H H H H H H H H H H H ",
"r a s v.M.M.M.M.n.n.s r r r r r s h n.M.n.6 H H W H F H H H H H H H H H H H H H H H H H H H H H H H H H H H H H H H H H H H H H H H H H H H H H H H H ",
"r r d M.M.M.M.M.M.n.s r r r r r r r d c.M.m.Q H H H H H H H H H H H H H H H H H H H H H H H H H H H H H H H H H H H H H H H H H H H H H H H H H H H H ",
"r r f M.M.M.M.M.M.c.r r r r r r r r r t B m.A K H H H H H H H H H H H H H H H H H H H H H H H H H H H H H H H H H H H H H H H H H H H H H H H H H H Q ",
"r r x.M.M.M.M.M.M.x.r r r r r r r r r u K ^ S B H H H H H H H H H H H H H H H H H H H H H H H H H H H H H H H H H H H H H H H H H H H H H H H H H H H ",
"r r v.M.M.M.M.M.M.h r r r r r r r r r 5 H W Q w Q H H H H H H H H H H H H H H H H H H H H H H H H H H H H H H H H H H H H H H H H H H H H H H H H H H ",
"i t v.M.n.n.n.M.n.i i i i t i i y i u H H H H H H H H H H H H H H H H H H H H H H H H H H H H H H H H H H H H H H H H H H H H H H H H H H H H H H H H "
};
