/* XPM */
static char *result[] = {
/* columns rows colors chars-per-pixel */
"75 75 194 2 ",
"   c #5F2D09",
".  c #5F3109",
"X  c #602E09",
"o  c #64320A",
"O  c #6B350B",
"+  c #6C3C0A",
"@  c #71370B",
"#  c #743A0C",
"$  c #7C3D0D",
"%  c #6E3A11",
"&  c #763D11",
"*  c #793F11",
"=  c #5A4A0A",
"-  c #5D5808",
";  c #6E4008",
":  c #784F07",
">  c #73430A",
",  c #744908",
"<  c #7C4E0D",
"1  c #6F570C",
"2  c #655D0B",
"3  c #6A5A0C",
"4  c #7C5407",
"5  c #74540D",
"6  c #79510D",
"7  c #785A0A",
"8  c #754116",
"9  c #7C4013",
"0  c #794419",
"q  c #7E491C",
"w  c #7B5911",
"e  c #466F07",
"r  c #476F08",
"t  c #4B6D08",
"y  c #556709",
"u  c #5C620A",
"i  c #526A09",
"p  c #5C6C0E",
"a  c #467008",
"s  c #4B730A",
"d  c #4F780E",
"f  c #52730B",
"g  c #5A740A",
"h  c #507A0E",
"j  c #5C7212",
"k  c #537D11",
"l  c #597A12",
"z  c #62630C",
"x  c #6A640C",
"c  c #626B0F",
"v  c #687807",
"b  c #627308",
"n  c #697408",
"m  c #767A08",
"M  c #7A7D08",
"N  c #676E12",
"B  c #786514",
"V  c #637214",
"C  c #687616",
"Z  c #6C7F1B",
"A  c #72751B",
"S  c #717A19",
"D  c #797321",
"F  c #823F0E",
"G  c #85420E",
"H  c #8C450F",
"J  c #844A0E",
"K  c #8C490F",
"L  c #904A0F",
"P  c #825C07",
"I  c #81540F",
"U  c #8C510C",
"Y  c #8C5C0B",
"T  c #90570C",
"R  c #905C0B",
"E  c #814412",
"W  c #8E4711",
"Q  c #8A4B12",
"!  c #884A17",
"~  c #924C13",
"^  c #885414",
"/  c #955312",
"(  c #9B5614",
")  c #995A12",
"_  c #95521A",
"`  c #9A561C",
"'  c #9F591B",
"]  c #A05517",
"[  c #A15718",
"{  c #A25A1B",
"}  c #AA5E1B",
"|  c #866206",
" . c #8A6706",
".. c #8A6806",
"X. c #876908",
"o. c #926F06",
"O. c #92640A",
"+. c #936B08",
"@. c #877307",
"#. c #957206",
"$. c #9A7606",
"%. c #9E7906",
"&. c #986712",
"*. c #987013",
"=. c #A17C06",
"-. c #A17A08",
";. c #A16613",
":. c #A56C14",
">. c #AF611D",
",. c #A07714",
"<. c #AA7515",
"1. c #A27B15",
"2. c #AE7B16",
"3. c #B17F16",
"4. c #854F21",
"5. c #875021",
"6. c #8D5524",
"7. c #8F5827",
"8. c #9D5B24",
"9. c #955E2C",
"0. c #A05E27",
"q. c #946226",
"w. c #99612E",
"e. c #8B7328",
"r. c #92752E",
"t. c #9D6531",
"y. c #9C7E35",
"u. c #A4632B",
"i. c #A9672D",
"p. c #A16732",
"a. c #A36A35",
"s. c #AC6C34",
"d. c #A17D37",
"f. c #AC743A",
"g. c #A57C38",
"h. c #AB793B",
"j. c #B17237",
"k. c #B2773E",
"l. c #B3783E",
"z. c #BB7C3F",
"x. c #B57B43",
"c. c #BA7D43",
"v. c #568113",
"b. c #5A8515",
"n. c #5D8817",
"m. c #5F8A18",
"M. c #628E1A",
"N. c #6A881B",
"B. c #65921D",
"V. c #6F8E22",
"C. c #7B8926",
"Z. c #6B9020",
"A. c #8C8207",
"S. c #968507",
"D. c #9B8607",
"F. c #A68307",
"G. c #AA8407",
"H. c #A48907",
"J. c #AD8A07",
"K. c #A78008",
"L. c #AE8708",
"P. c #B48D07",
"I. c #AB8516",
"U. c #AF8B17",
"Y. c #B28417",
"T. c #B38918",
"R. c #B58C18",
"E. c #BA8D18",
"W. c #B69219",
"Q. c #B99619",
"!. c #BC9A1C",
"~. c #8E842F",
"^. c #958132",
"/. c #C09619",
"(. c #C39C1B",
"). c #C8A11F",
"_. c #C19B21",
"`. c #C4A323",
"'. c #CDA927",
"]. c #CDAC2A",
"[. c #D1AE2B",
"{. c #CFB02F",
"}. c #D3B432",
"|. c #D6B936",
" X c #D9BA36",
".X c #DBBD39",
"XX c #BC8046",
"oX c #BC824B",
"OX c #BF8752",
"+X c #BF8954",
"@X c #C38B55",
"#X c #C58F5A",
"$X c #C6905D",
"%X c #C89461",
/* pixels */
"H H H H H H H H H H H H H H H H H H H H H H H H H H H H H H H H H H H H H H H H H H H H H H H H H H H H H H H H H H H H H H G F F H H H H H H H H H H ",
"H H H H H H H H H H H H H H H H H H H G G G H H H H H H H H H H H H H H H H H H H H H H H H H H H H H H H H H $ # # # O o O o X X O G H H H H H H H H ",
"H H H H H H H H H H G F $ $ $ $ @ + O O o o $ H H H H H H H K H H H H H H H H H H H H H H H H H H H H H H H O o X X X X X X X X X O G H H H H H H H H ",
"H H G $ $ # @ O o o o X X X X   X X X X O o o F H H H H H < 6 H H H H H H H H H H H H H H H H H H H H H H $ X   X X X X X X + I *.,.U H H H H H H H H ",
"H H + X   X . X o o o + + + , , : 4 4 P P  ., O G H H H H 2 5 H H H H H H H H H H H H H H H H H H H H H H @   o + + + > I *.T.Q.Q.Q.;.H H H H H H H H ",
"H $ o ; > , : 4 4 P | |  . . . .........L.=. .+ @ H H H 6 t J H H H H H H H H H H H H H H H Q H H H H H H O   < I.U.R.W.Q.Q.Q.Q.Q.Q.2.H H H H H H H H ",
"H # 4 ...................... .........%.P.P.F.P o # H K y i J H H H H H H H H H H H H H H H H H H H H H $ X o 1.!.!.Q.Q.Q.Q.Q.Q.Q.Q.Y.H H H H H H H H ",
"H # | .................... ...........K.P.P.P.%.4 + G 5 s p K H H H H H H H H H H H H H H H H H H H H H # X I !.`.Q.Q.Q.Q.Q.Q.Q.Q.Q.T.~ H H H H H H H ",
"G : ..................................%.P.P.P.P.o., > y b.c H H H H H H H H H < K H H H H H H H H H W W O o S.].'.Q.Q.Q.Q.Q.Q.Q.Q.Q.E./ H H H H H H H ",
"> 4 ....................................J.P.P.P.-.| - h m.z H H H H H H H J 2 < H H H H H H H H H H F F X w Q.}.`.Q.Q.Q.Q.Q.Q.Q.Q.Q.W.) H H H H H H H ",
"G |  .................................| $.P.P.P.L.X.t b.M.x H H H H H K 5 y 2 H H H H H H H H H H H W # O 1.`.}._.Q.Q.Q.Q.Q.Q.Q.Q.Q.Q.) H H H H H H H ",
"J  ...X...................................P.P.P.J.b h B.m.1 H H H H J 2 t i J H H H H H H H H H H H W O I Q.{.|.!.Q.Q.Q.Q.Q.Q.Q.Q.Q.Q.) H H H H H H H ",
"J  . . ...................................K.P.P.S.s n.B.m.5 W H H 6 y a e 1 H H H H H H H H H H H H F @ *.`..X}.!.Q.Q.Q.Q.Q.Q.Q.Q.Q.W.) H H H H H H H ",
"U  .......| ...... ........... .........o.P.P.J.v d M.B.b.< W G 1 t e e i J H H H H H H H H H H H H $ < W.{..X].Q.Q.Q.Q.Q.Q.Q.Q.Q.Q.W.) H H H H H H H ",
"U  ...................................$.L.P.P.A.s b.B.B.b.J Q 2 t s r t 1 H H H H H H H H H H H W W # &.`.|..X`.Q.Q.Q.Q.Q.Q.Q.Q.Q.Q.W.) H H H H H H H ",
"U  ... ....... .................o.%.G.P.P.P.P.v d B.B.B.C J 2 e e e r y J H H H H H H H H H H H F W > I.`..X.X`.Q.Q.Q.Q.Q.Q.Q.Q.Q.Q.W./ H H H H H H H ",
"U ...... ............. ...o.%.F.P.P.P.P.P.P.P.v h B.B.B.C 3 t e s e t 5 H H H H H H H H H H H H H F ^ W.{..X|.!.Q.Q.Q.Q.Q.Q.Q.Q.Q.Q.W./ H H H H H H H ",
"K  . . ....... .....#.%.F.P.P.P.J.D.S.H.J.=.$.b v.B.B.B.V t e a r e 2 H H H H H H H W H H H H H H F &.!.}..X|.!.Q.Q.Q.Q.Q.Q.Q.Q.Q.Q.T.Q H H H H H H H ",
"K O. . . . ...#.%.G.P.P.H.A.M v g s t g n @...x v.B.Z.M.f a a t r u J H H H H H H H H H H H H H H G ,.!.|..X}.Q.Q.Q.Q.Q.Q.Q.Q.Q.!.Q.Y.H H H H H H H H ",
"K  ...o.#.=.G.P.H.S.M b f e e e e e e e e t y z n.Z.m.h e t e t 2 J H H H H H H H H H H H H H H H K I.!.|..X}.!.Q.Q.Q.Q.Q.Q.Q.Q.`.(.2.H H H H H H H H ",
"H R %.G.H.H.A.v g s e e e r r r r r r r e e e t m.m.d e e e a u < H H H H H H H H H H H H H H H H L R.!. X.X X!.Q.Q.Q.Q.Q.Q.Q.Q.{.`.<.H H H H H H H H ",
"H K +.@.m g r e e r r r r r r r r r r r e e t t l s t a t e e t t 2 5 H H H H H H H H H H H H H H ~ E.(. X.X X`.Q.Q.Q.Q.Q.Q.Q.`. X'.;.W H H H H H H H ",
"H H R ..$.G.D.M c i t r r r t t i t e e e e e e r r k n.v.k s e e e t u 1 J H H H H H H H H H H H L E.). X.X.X].Q.Q.Q.Q.Q.Q.!.}..X_.) H H H H H H H H ",
"H H U +.o.=.=.$. .Y I 6 5 5 5 < 6 i a a t e t e e e a v.M.B.m.v.d e r r t i 3 J H H H H H H H F H L T.). X.X.X.X`.!.Q.Q.Q.`.}..X.X/.~ H H H H H H H H ",
"H H H R +.O.T L K H H H H H H H u r r r a a e a a a a e h n.M.B.M.b.h s a a a t u 5 J F F F W W H H 3.(. X.X.X.X.X}.].].}..X.X.X XY.W H H H H H H H H ",
"H H H W K H H H H H H H H H H J i e r r t a e t e t t u 6 5 x c l l b.b.k s a a a t = X X X @ F H H ;.(.}..X.X.X.X.X.X.X.X.X.X.X'.:.W H H H H H H H H ",
"H H H H H H H H H H H H H H H < t r r r a a d d e e t 5 H H H H J < 5 3 z p y y i = . % 5.0 O X @ F ( /.).[. X X.X.X.X.X.X.X X'./.) H H H H H H H H H ",
"H H H H H H H H H H H H H H H 5 r r r r a a b.M.d e a u H H H H W W H H H H E J + o 8 f.l.k.a.4.O X F <.(.(.).).].].'.].'.'.`.(.3.H H H H H H H H H H ",
"H H H H H H H H H H H H H H H 5 r r r r t y b.B.b.a e y E H H H H H H W H H $ o X O t.x.k.k.k.x.a.0 X @ &.3.E./.(.(./.(.(.(./.Y./ H H H H H H H H H H ",
"H H H H H H H H H H H H H H H 3 r r r e 1 6 l B.M.s e i J H H H H H H W F o o O q t.l.l.k.k.k.x.@Xx.7.O # H ~ ( ;.:.<.2.3.<.;.L H H H H H H H H H H H ",
"H H H H H H H H H H H H H H K u r r r z Q W c m.M.d a i J H H H H H F O O 0 7.a.f.x.k.k.k.k.f.x.c.$XoXw.$ W H H H H H H H H H H H H H H H H H H H H H ",
"H H H H H H H H H H H H H H H y a r y J W F < N.Z.k a t J H H H H F & 5.t.j.l.x.k.k.k.k.k.k.x.f.x.OX$Xx._ F H H H H H H H H H H H H H H H H H H H H H ",
"H H H H H H H H H H H H H H J i a t J W H H Q N B.b.t t J H H H H _ j.z.z.z.z.z.l.k.k.k.k.k.k.k.k.x.#XOX8.W W H H H H H H H H H H H H H H H H H H H H ",
"H H H H H H H H H H H H H H < t s 1 H H H H F 7 M.m.e i J H H H H i.z.z.z.z.z.z.z.k.k.k.k.k.k.x.k.k.OX#Xu.H W H H H H H H H H H H H H H H H H H H H H ",
"H H H H H H H H H H H H H H < r u H H H H H H H V M.s t < W H H W s.z.z.z.z.z.z.z.k.k.x.k.x.k.f.f.x.+X#X0.H W W H H H H H H H H H H H H H H H H H H H ",
"H H H H H H H H H H H H H H 1 i J H H H H H H H 7 M.d t J H H H ~ k.XXz.z.z.z.z.z.c.x.c.c.oXc.OXOX+X%XoX! # # $ F H H H H H H H H H H H H H H H H H H ",
"H H H H H H H H H H H H H H 1 5 H H H H H H H H Q C v.r < H H H ~ j.XXXX@X@X@X@X#X#X#X#X%X%X%X#X#X@Xc.6.X X   X X O $ H H H H H H H H H H H H H H H H ",
"H H H H H H H H H H H H H H J K H H H H H H H H W w v.t < H H H F 0.j.z.@X@Xc.z.k.j.j.s.s.u.u.0.8.` E X o O o   X X X o # F H H H H H H H H H H H H H ",
"H H H H H H H H H H H H H H H H H H H H H H H H H J f t < H H H F ~ ~ _ _ ~ W W W H H H H H H H H F o 0 w.p.p.9.! % X X X o $ F H H H H H H H H H H H ",
"H H H H H H H H H H H H H H H H H H H H H H H H H W 2 t < H H H ~ F L F H H H H H H H H H H H H $ o 0 j.x.x.x.x.x.f.9.0 o X X o $ H H H H H H H H H H ",
"H H H H H H H H H H H H H H H H H H H H H H H H H H J i < H H H F F L L H H H K H H H H H H G # X % a.k.k.k.k.l.k.k.k.f.9.8 X X X O F H H H H H H H H ",
"H H H H H H H H H H H H H H H H H H H H H H H H H H H u 5 H H H ~ L F L H H H H H H H H H F o X % t.l.k.k.x.h.l.k.k.x.k.x.f.9.& X X X $ H H H H H H H ",
"H H H H H H H H H H H H H H H H H H H H H H H H H H H 5 < H H H H H L W H H H H H H H H E o o 0 p.k.k.k.k.k.g.g.k.k.k.k.k.k.x.f.7.% X o F H H H H H H ",
"H H H H H H H H H H H H H H H H H H H H H H H H H H W J < H H H H H H H H H H H H H H H # O 7.f.x.k.k.k.k.k.f.~.y.k.k.k.k.k.k.l.x.a.q X $ H H H H H H ",
"H H H W H H H $ $ $ H H H H H H H H H H H H H H H H H H H H H H H H L W H H H H H H H H 9 w.x.f.k.k.k.k.k.k.k.g.C.^.x.k.k.k.k.x.k.x.f.q O H H H H H H ",
"H H H G $ @ # # * + O G H H H H H H H H H H H H H H H H H H H H H H F L H H H H H H K J q.h.f.f.k.k.k.k.k.k.k.k.^.V.r.k.k.k.k.k.k.k.k.p.* H H H H H H ",
"H H W W J ! _ ' ' ' 9 # H H H H H H H H H H H H H H H H H H H H H H H L H H J : 2 u y i f j j V A D e.d.f.x.l.l.c.~.Z.^.k.k.k.k.k.k.x.f.! W H H H H H ",
"H H W [ { { ' { ' ' ' $ H H H H H H H H H H H H H H H H H H H H H H H F G 2 i e r e e e e e r e e e r i V A r.f.k.l.C.M.y.k.k.k.k.k.k.f._ H H H H H H ",
"H H H [ { ' ' ' ' ' { E E H H H H H H H H H H H H H H H W F H W Q < 2 y e s r r r r r r r r r r r r r r e e r j D r.y.V.V.y.x.f.k.k.k.k.` H H H H H H ",
"H H W [ { { ' ' ' { { W H H H H H H H H H H H H H H H H W W J 5 u r r r e r r r r r r r r r r r r r r r r r r r e r V Z Z.V.y.f.k.k.k.k._ H H H H H W ",
"H H H ] } { ' { ' { { _ H H H H H H H H H H H H H H H H < 2 y r e e r r r r r r r r r r r r r r r r r r r r r r r r e r n.B.C.g.l.l.x.j.~ H H H H Q H ",
"H H H ~ } >.} } { { { / H H H H H H H H H H H H H J 5 u t r r r r e r r r r r r r r r r r r r r r r r r r r r r r r r r h M.Z.C.r.k.z.i.W H H K B B H ",
"H H H H H ~ ] } } } ~ H H H H H W H H H H W Q 6 2 i r r r r r r r r r r r r r r r s t e r r r r r r r r r r r r e e a a a n.B.B.b.V e.^ H H J A S K H ",
"H H H H H L H H W H H H H H H H W W H J < 3 y t e e r r r r r r r r r r r r r r r r e e r r r r r r r r r r r r r e e a a h B.B.M.s r y 1 I N.N.I H H ",
"H H H H H H H H H H H H H H H J < 1 2 i e e r r e e e e r r r r r r r r r r r r r r r r r r r r r r r r r r r r r r a a a s n.Z.B.d r r d M.Z.A W W H ",
"H H H H H H H H H J < < 1 2 u i t e e e e e r r e e t e r r r r r r r r r r r r r r r r r r r r r r r r r r r r r r a a a a v.B.M.s r d M.B.b.t u 5 H ",
"3 3 2 2 2 u u y i i t t r e e a r r r r r r r r r r r r r r r r r r r r r r r r r r r r r r r r r e a a s s s h k k b.b.v.s s n.m.r s n.Z.m.s a a t u ",
"e a a a a a r r r r r r r r e a r r r r r r r r r r r r r r r r r r r r r r r r r r r r r r r r s k b.n.m.M.Z.Z.B.Z.B.B.B.n.h s k r k Z.Z.h a a a t i ",
"e r r r r r r r r r r r t e e t r r r r r r r r r r r r r r r r r r r r r r r r r r r r r r r r s h k v.b.n.m.M.B.B.B.B.B.B.n.s e h M.M.b.a a a e r i ",
"r r r r r r r r r r r r a e a a r r r r r r r r r r r r r r r r r r r r r r r r r r r r r r r r e e a a a a s d h v.b.n.m.m.d a e d k s a a a a r r i ",
"r r r r r r r r r r r r a a a e r r r r r r r r r r r r r r r r r r r r r r r r r r r r r r r a r r r r r r r r r r r r s s a a r r r r r r r r r r i ",
"r r r r r r r r s r r r e t a t r r r r r r r r r r r r r r r r r r r e r r r r r e r r r r r a r r r r r r r r r r r t a a e e r e r r r r r r r r i ",
"r r a r r r r r e e e r e a a e r r r r r r r r r r r r r r e r r r t a e e s t a s a s s s s s s s s s s r a r r r e e e e t a e t r r r r r r r r t ",
"s r r r r r r r r r a a t a t e r r r r r r r r r r r s s s s d k k k v.b.b.b.m.m.m.M.M.M.M.M.m.M.M.M.m.M.m.m.m.b.b.v.k k h d s s r r r r r r r r r i ",
"r r a a a a a a a e e e r r a a a s s s s h v.v.v.b.n.n.M.M.M.B.B.B.B.B.B.B.B.B.B.B.B.B.B.B.B.B.B.B.B.B.B.B.B.B.B.B.B.B.Z.B.B.m.n.n.b.v.s s s a e e i ",
"s s s s d s s d d h k k v.v.b.n.n.m.M.B.B.B.B.B.B.B.B.B.B.Z.B.B.B.B.B.B.B.B.B.B.B.B.B.B.B.B.B.B.B.B.B.B.B.B.B.B.B.B.B.B.B.B.B.B.B.B.B.B.B.m.n.n.k d i ",
"M.m.m.M.B.m.B.B.M.B.B.B.Z.B.B.B.B.B.B.B.B.B.B.B.B.B.B.B.B.B.B.B.B.B.B.B.B.B.B.B.B.B.B.B.B.B.B.B.B.B.B.B.B.B.B.B.Z.M.B.B.B.B.B.B.B.B.B.B.B.B.B.B.B.B.M.",
"Z.B.Z.B.B.B.B.B.B.B.B.B.Z.B.B.B.B.B.B.B.B.B.B.B.B.B.B.B.B.B.B.B.B.B.Z.B.B.B.B.B.B.B.B.B.B.B.B.B.B.B.B.B.B.B.B.B.B.B.B.B.B.B.B.B.B.B.B.B.B.B.B.B.B.Z.M.",
"B.B.B.B.B.B.B.B.B.B.B.B.B.B.B.B.B.Z.B.B.B.B.B.B.B.B.B.B.B.B.B.B.B.B.B.B.B.B.Z.M.B.B.B.B.B.B.B.B.B.B.B.Z.B.B.B.B.B.B.B.B.B.B.B.B.B.B.B.B.B.B.B.B.B.B.M.",
"B.B.B.B.B.B.B.B.B.B.Z.B.B.B.B.B.B.B.B.B.B.B.B.B.B.B.B.B.B.B.B.B.B.Z.B.B.B.B.M.Z.B.B.B.B.B.m.M.M.m.B.m.M.B.B.M.B.B.Z.B.B.B.B.B.Z.B.B.B.B.B.B.B.B.Z.B.M.",
"B.B.B.B.B.B.B.B.B.B.B.B.B.B.B.B.B.B.B.B.B.B.B.B.B.B.M.M.M.M.M.n.b.b.b.v.v.h k k d d d d s d s d d s d d s d k h k k k b.b.n.m.M.M.B.B.B.B.B.B.B.B.B.Z.",
"B.B.B.B.B.B.B.B.B.B.B.B.B.B.Z.M.M.m.m.n.n.b.v.v.h v.d d s s a a a e e a a a r r a a a a a a e e a a r e t e r e r e e e e a s s d d v.v.n.n.B.B.B.B.M.",
"m.m.m.m.m.m.b.b.b.v.v.k k h d s s s s a r r r r a a e r r a r r r r r r r r r r r r r r r r r r a t a a r r r r r s e e r r r r a a e e s s s k k m.m.",
"s s s s a s t a e e e e r r e t r r e r r r r r a a e e r r r r r r r r r r r r r r r r r r r r a e r e r r r r r r r r r r r r a a e e r r e r e e r ",
"a a a a a a t e r r e r r r r r r r r r r r r r a e e e r r r r r r r r r r r r r r r r r r r r r r r r r r r r r r r r r r r r e e e e a e a t e t t "
};
