/* XPM */
static char *result[] = {
/* columns rows colors chars-per-pixel */
"75 75 188 2 ",
"   c #5F2E09",
".  c #612E09",
"X  c #65320A",
"o  c #6B340B",
"O  c #6B380B",
"+  c #71370B",
"@  c #74390C",
"#  c #7B3C0D",
"$  c #6D3A11",
"%  c #7A3C11",
"&  c #6C4208",
"*  c #764309",
"=  c #774808",
"-  c #7D4E0D",
";  c #6E570C",
":  c #645D0B",
">  c #6C590C",
",  c #7B5307",
"<  c #7F5807",
"1  c #73550C",
"2  c #7A500D",
"3  c #754116",
"4  c #7A4215",
"5  c #7D481B",
"6  c #7E5D13",
"7  c #466F07",
"8  c #4E6308",
"9  c #476F08",
"0  c #4A6D08",
"q  c #5C6D07",
"w  c #556609",
"e  c #5B630A",
"r  c #526A09",
"t  c #467008",
"y  c #4B730B",
"u  c #4F780E",
"i  c #53710A",
"p  c #507A0F",
"a  c #5A7111",
"s  c #537D11",
"d  c #6C6B07",
"f  c #60600B",
"g  c #66670B",
"h  c #7B6A07",
"j  c #796A08",
"k  c #676510",
"l  c #726712",
"z  c #7B6314",
"x  c #647317",
"c  c #6C721B",
"v  c #6A7B1B",
"b  c #787520",
"n  c #813F0D",
"m  c #803F12",
"M  c #85420E",
"N  c #8C450F",
"B  c #844A0E",
"V  c #8D4A0E",
"C  c #90470F",
"Z  c #904A0F",
"A  c #8E570A",
"S  c #885A0D",
"D  c #91530B",
"F  c #945D09",
"G  c #995E0D",
"H  c #844613",
"J  c #8B4515",
"K  c #874F11",
"L  c #8C4B14",
"P  c #834C1E",
"I  c #914711",
"U  c #924B12",
"Y  c #9C4E16",
"T  c #914718",
"R  c #914818",
"E  c #9C4D1B",
"W  c #855411",
"Q  c #945211",
"!  c #9D5216",
"~  c #9A5B12",
"^  c #965219",
"/  c #9B561C",
"(  c #9F591B",
")  c #A04F1C",
"_  c #A5531C",
"`  c #AA541F",
"'  c #A25B1B",
"]  c #AB5D1C",
"[  c #B1591F",
"{  c #886406",
"}  c #846906",
"|  c #8B6806",
" . c #8F6808",
".. c #906D06",
"X. c #956008",
"o. c #9B630C",
"O. c #926A08",
"+. c #957206",
"@. c #9A7606",
"#. c #9F7A07",
"$. c #8C6111",
"%. c #87641D",
"&. c #926712",
"*. c #9D6312",
"=. c #936912",
"-. c #9B7313",
";. c #A16A0F",
":. c #A17C07",
">. c #A16712",
",. c #A46D12",
"<. c #AE611D",
"1. c #A77014",
"2. c #AA7215",
"3. c #AD7B16",
"4. c #AF7618",
"5. c #AD7818",
"6. c #B17F17",
"7. c #B17719",
"8. c #B57B1C",
"9. c #875022",
"0. c #8A5323",
"q. c #9C5C26",
"w. c #AC5520",
"e. c #AF5922",
"r. c #B05720",
"t. c #B35B24",
"y. c #B65E28",
"u. c #976625",
"i. c #9C632F",
"p. c #8C742B",
"a. c #9D6431",
"s. c #A6652C",
"d. c #A8652B",
"f. c #A9652B",
"g. c #BB6026",
"h. c #BD642B",
"j. c #A36A34",
"k. c #A47637",
"l. c #A87937",
"z. c #AD733B",
"x. c #B27337",
"c. c #B2773E",
"v. c #B4783E",
"b. c #BB7C3F",
"n. c #C1662C",
"m. c #C36A2F",
"M. c #C36A31",
"N. c #CA6F34",
"B. c #CB7137",
"V. c #CE7339",
"C. c #D1773B",
"Z. c #D47A3E",
"A. c #D67B40",
"S. c #D97E43",
"D. c #568113",
"F. c #5A8515",
"G. c #5C8817",
"H. c #5E8A19",
"J. c #658418",
"K. c #6D841A",
"L. c #628E1B",
"P. c #65921D",
"I. c #9D8007",
"U. c #968008",
"Y. c #A68007",
"T. c #AA8407",
"R. c #A58A07",
"E. c #AF8907",
"W. c #B48D07",
"Q. c #A88216",
"!. c #B58519",
"~. c #B48D18",
"^. c #B8881D",
"/. c #B69319",
"(. c #B99619",
"). c #BC9A1C",
"_. c #C09B1D",
"`. c #C49E21",
"'. c #C6A425",
"]. c #C8A220",
"[. c #C8A827",
"{. c #CDAC2A",
"}. c #D3B22F",
"|. c #D5B532",
" X c #D7B936",
".X c #D8BB37",
"XX c #DBBD39",
"oX c #DB8145",
/* pixels */
"7 u P.P.P.P.P.P.D.0 9 9 9 9 9 9 7 f N N N N N N N N N N N N N N N N N N N N N N N N N N N N N N N N N N N N N N N N N N N N N N N N N N N N N N N N C ",
"7 u L.P.P.P.P.P.F.y 9 9 9 9 9 9 7 e M # # # @ M N N N N N N N N N N N N N N N N N N N N N N N N N N N N N N N N N N N N N N N N N N N N N N N N N N N ",
"7 u L.P.P.P.P.P.H.y 7 9 9 9 9 9 7 8 X . .     o M N N N N N N N N N N N N N N N N N N N N N N N N N N N N N N N N N N N N N N N N N I n n + + n N N N ",
"7 y P.P.P.P.P.P.L.y 7 7 9 9 9 9 7 8 & & = , , O @ N N N N N N N N N N N N N N N N N N N N N N N N N N N N N N N N N N N N N N N C J n o . . . X # N N ",
"9 y L.L.P.P.P.P.L.p 9 9 9 9 9 9 9 i } | | | | { O @ V V N N N N N N N N N N N N N N N N J M M M M M # M n M M N N N N N N N N N m % + % J J @ . o N N ",
"7 y L.P.P.P.P.P.P.s 9 9 9 9 9 9 9 0 h | | } | .., O # N N N N N N N N N N N N N N N N N M o     .   X X . . X o # N N N N N N N @ % E w.w.w._ @ . n N ",
"9 9 L.P.P.P.P.P.P.F.9 9 9 9 9 9 7 9 h | | | | +.@.< + N N N N N N N N N N N N N N N N M X O , $.O.=.=.=.=.&.$.W * # N N N N N M J ` w.w.w.w.w.R . n N ",
"9 9 G.P.P.P.P.P.P.G.9 9 9 9 9 9 0 0 d | | | | +.Y.| < B N N N N N N N N N N N N N N M o X -.(.(.(.(.).(.(.(.(.(.~.$.n N N N I ! w.w.w.w.w.w.w.) o # N ",
"7 t H.P.P.P.P.P.P.L.0 7 7 9 9 9 t t d | | | | | E.#.| S N N N N N N N N N N N N N N # . %.).).(.(.(.(.(.(.(.(.(.(./.=.N J N Y ` w.w.w.w.w.w.w._ + + N ",
"0 7 F.P.P.P.P.P.P.L.y 9 9 9 9 9 t t d | | | | | Y.T.|  .A N N N N N N N N N N N N N + - (.{.'./.(.(.(.(.(.(.(.(.(.(./.*.N N _ [ w.w.w.w.w.w.w.w.% X N ",
"t 9 F.P.P.P.P.P.P.P.s 9 9 9 9 9 t t g | | | |  .T.W.+. .V N N N N N N N N N N N N N @ -.{..X).(.(.(.(.(.(.(.(.(.(.(.(.~.Q C [ r.w.w.w.w.w.w.w.w.m o N ",
"9 9 F.P.P.P.P.P.P.P.s 9 0 9 9 9 7 t q | | | | #.W.W.@...V N N N N N N N N N N N N N M Q.{..X`.(.(.(.(.(.(.(.(.(.(.(.(._.~ U h.y.w.w.w.w.w.w.w.w.T + N ",
"9 9 D.P.P.P.P.P.P.P.F.9 9 9 9 9 t 7 q | |  .:.W.W.E.+. .N N N N N N N N N N N N N N N 3.[..X'.(.(.(.(.(.(.(.(.(.(._._._.~ ) m.y.w.w.w.w.w.w.w.w.T + J ",
"9 9 s P.P.P.P.P.P.P.F.t 9 t 9 9 7 7 r } @.Y.W.W.T.@. .F N N N N N N N N N N N N N N N o._..X|.`.(.(.(.(.(./.(.(._.]._.6.Z _ N.y.w.w.w.w.w.w.w.w.T + N ",
"9 9 s P.P.P.P.P.P.P.H.y 9 9 9 9 t t i I.E.W.E.#... .X.V N N N N N N N N N N N N N N N V 3.}.XX|.[._.).)._.].{.}.}.{.!.D N [ B.t.w.w.w.w.w.w.w.w.J # N ",
"9 9 p P.P.P.P.P.P.P.L.y 9 9 9 9 t t i R.W.Y.@.....A V N N N N N N N N N N N N N N N N N U ^.|.XXXX.X X X.XXXXX|._.2.C N V [ V.t.w.w.w.w.w.w.w.w.% n C ",
"9 9 u L.P.P.P.P.P.P.P.u 9 9 9 9 9 9 y U.:.O.O.F N N N N N N N N N N N N N N N N N N N N N Z 7._.{.|.|.}.}.{._.!.~ C N N C [ V.t.w.w.w.w.w.w.w.` % m I ",
"9 9 u P.P.P.P.P.P.P.P.s 9 9 9 9 9 9 0 j F D L J N N N N N N N N N N N N N N N V N N N N N C C D >.5.6.6.6.;.G Z N C N N N t.V.[ w.w.w.w.w.w.w._ + m N ",
"9 9 y L.P.P.P.P.P.P.P.s 9 9 9 9 9 9 9 1 N N N N N N N N N N N N N N N N N N # + + + + + + + + + + + @ @ + + + M N N N N C t.V.r.w.w.w.w.w.w.w.E + n N ",
"9 9 y L.P.P.P.P.P.P.P.F.9 9 9 9 9 9 9 ; N N N N N L N N N N N N N N N N N @ . X . . . . . . . .               X M N N N N t.Z.t.w.w.w.w.w.w.w.E + n C ",
"9 9 y L.P.P.P.P.P.P.P.H.9 9 9 9 9 9 7 : N N N N N N N N N N N N N N N N V * * * * * * * = = * = * * * * * * O . n N N N N ] A.t.w.w.w.w.w.w.w.E o n N ",
"9 9 y H.P.P.P.P.P.P.P.H.0 9 9 9 9 9 7 : N N N N N N N N N N N N N N N N Z F F F F X.X.X.X.X.X.X.X.X.X.X.X.X.A O n N N N N ` A.h.w.w.w.w.w.w.w.E o n N ",
"9 9 9 H.P.P.P.P.P.P.P.H.y 9 9 9 9 9 t e N N N N N N N N N N N N N N N N D X.X.X.X.X.X.X.X.X.X.X.X.X.X.X.X.X.X.@ n N N N N Y C.M.w.w.w.w.w.w.w.E o % I ",
"9 9 y H.P.P.P.P.P.P.P.P.u 9 9 9 9 9 7 e N N N N N N N N N N N N N N N V X.2.X.X.X.X.X.X.X.X.X.X.F X.X.X.X.X.X.* n N N N N T N.N.w.w.w.w.w.w.w.) o + N ",
"9 9 9 F.P.P.P.P.P.P.P.P.s 9 7 9 9 9 t w N N N N N N N N N N N N N N N D ;.2.F X.X.X.X.X.X.X.X.X.X.X.X.X.X.X.X.* n N N N N C h.Z.t.w.w.w.w.w.w.w.+ o N ",
"9 9 9 F.P.P.P.P.P.P.P.P.s 9 9 9 9 9 7 r M N N N N N N N N N N N N N C F ;.1.X.X.X.X.X.X.X.X.X.X.X.X.X.X.X.X.F @ n N N N N N ` Z.M.w.w.w.w.w.w.w.% o N ",
"9 9 9 F.P.P.P.P.P.P.P.P.D.9 9 9 7 7 y 0 B N N N N N N N N N N N N N V F 2.2.X.X.X.X.X.X.X.X.X.X.X.X.X.X.X.X.X.* n N N N N N Y V.S.B.M.M.h.h.y.e.J # C ",
"9 9 9 D.P.P.P.P.P.P.P.P.F.9 9 9 9 7 0 0 - N N N N N N N N N N N N N C F 4.2.X.X.X.X.X.X.X.X.X.X.X.X.X.X.X.X.X.@ # N N N N N C g.S.oXoXoXS.oXA.n._ J N ",
"9 9 9 s P.P.P.P.P.P.P.P.H.y 9 9 9 9 9 9 - J N N N N N N N N N N N N Z F 7.7.X.F X.X.X.X.X.X.X.X.X.X.X.X.X.X.X.* n N N N N N N ) n.N.m.n.n.n.m.y.Y N C ",
"9 9 9 s P.P.P.P.P.P.P.P.H.y 9 9 9 9 9 9 2 C N N N N N N N N N N N N V D 2.8.;.X.X.X.X.X.X.X.X.X.X.X.X.X.X.X.X.* M N N N N N N N I C C C C C I I N N N ",
"9 9 9 p P.P.P.P.P.P.P.P.L.y 9 9 9 9 9 9 ; N N N N N N N N N N N N N N Z o.8.8.o.X.X.X.X.X.X.X.X.X.X.X.F X.X.F B N N N N N N N N N N N N N N N N N N N ",
"9 9 9 p P.P.P.P.P.P.P.P.P.u 9 9 9 9 9 7 > N N N N N N N N N N N N N N N D 1.8.7.;.X.X.X.X.X.X.o.o.;.,.1.;.X.X.V N N N N N N N N N N N N N N N N N N N ",
"9 9 7 u P.P.P.P.P.P.P.P.L.p 9 9 7 t y t : N N N N N N N N N N N N N N N N D ;.8.8.7.2.1.1.2.7.8.8.8.8.7.;.X.F V N N J @ o + # M N N N N N N N N N N N ",
"9 9 9 u L.P.P.P.P.P.P.P.P.s 9 9 9 7 7 7 : N N N N N N N N N N N N N N N N N D 2.8.8.8.8.8.8.8.8.8.2.;.F D Z N N N N @ . . . . X @ M N N N N N N N N N ",
"9 9 9 y L.P.P.P.P.P.P.P.P.s 9 9 9 9 9 7 e N N N N N N N N N N N N N N N N N C F 1.8.8.8.8.8.7.1.o.D D Z N N N N N n . 3 5 % o .   X # N N N N N N N N ",
"9 9 9 u L.P.P.P.P.P.P.P.P.D.9 9 9 9 9 7 w M N N N N N N N N N N N N N N N N N N D G ;.;.>.G F Z Z C N V N N N N n o 0.x.z.z.j.9.$     o M N N N N N C ",
"9 9 9 y L.L.P.P.P.P.P.P.P.G.9 9 9 7 7 7 w N J N N N n # # n N N N N N N N N N N N N V V V N N N V V N N N N N n X 5 c.c.c.c.c.c.j.P O   X # N J N N N ",
"9 9 9 9 L.P.P.P.P.P.P.P.P.G.9 9 9 y 9 9 0 B N # o @ @ # 4 o # N N N N N N N N N N N N N N N N N N N N N N N # X $ j.c.c.c.c.c.c.c.c.a.3 .   @ N N N N ",
"9 9 9 y L.L.P.P.P.P.P.P.P.L.9 9 9 9 9 9 0 - L L L ^ ( ( ( L + N N N N N N N N N N N N N N N N N N N N N N # . $ a.c.c.c.c.c.c.c.c.c.c.z.0.X X @ N N N ",
"9 9 9 9 L.P.P.P.P.P.P.P.P.L.y 9 9 9 9 9 7 ; ! ( ( ( ( ( ( ( H 4 C N N N N N N N N N N N N N N N N N N N N o 4 j.c.c.c.c.c.c.c.c.c.c.c.c.c.i.$ o N N N ",
"9 9 9 9 G.P.P.P.P.P.P.P.P.P.y 9 9 9 9 9 t : ! ' ( ( ( ( ( ( L M N N N N N N N N N N N N N N N N N N N N M P z.c.c.c.c.c.c.c.c.c.c.c.z.c.c.v.a.O N N N ",
"9 9 9 9 D.P.P.P.P.P.P.P.P.P.s 9 9 9 9 9 t w ^ ' ( ( ( ( ( ( Q M N N N N N N N N N N N N N N N N N N N N I j.c.c.c.c.c.c.c.c.c.c.c.c.c.c.c.c.c.9.M N N ",
"9 9 9 9 F.P.P.P.P.P.P.P.P.P.s 9 9 9 9 9 9 0 S ] ] ( ( ( ( ( ( N N N N N N N N N N N N N N N N N N N N N ^ c.c.c.p.k.c.c.c.c.c.c.c.c.c.c.c.c.v.i.M N - ",
"9 9 9 9 D.P.P.P.P.P.P.P.P.P.F.9 9 9 9 9 9 9 ; _ ] <.<.] ' <.! N N N N N N N N N N N N N N N N N N N N N / v.c.v.p.x k.c.c.c.c.c.c.c.c.c.c.c.v.a.N - > ",
"9 9 7 0 s P.P.P.P.P.P.P.P.P.G.9 9 9 9 9 9 9 w N V ! ' ] ] ! N N N N N N N N N N N N N N N N N N N N N N / v.c.c.k.a x k.c.c.c.c.c.c.c.c.c.c.c.s.B e : ",
"9 9 9 9 s P.P.P.P.P.P.P.P.P.L.y 9 9 9 7 9 9 y 1 N N N N N N N N N N N N N N N N N N N N N N N N N N N N ! v.v.c.c.c 9 x k.v.c.c.c.c.c.c.c.c.c.s.; 9 > ",
"9 9 9 9 s P.P.P.P.P.P.P.P.P.P.p 9 9 7 7 t 7 7 w N N N N N N N N N N N N N N N N N N N N N N N N N N N N L x.b.c.c.p.y 9 x k.v.c.c.c.c.c.c.c.b.q.w 7 k ",
"9 9 9 9 s P.P.P.P.P.P.P.P.P.P.s 9 9 y 7 t 0 0 0 ; N N N N N N N N N N N N N N N N N N N N N N N N N N N J s.b.b.b.z.a t t v k.b.b.b.b.b.b.b.z.g 7 y l ",
"9 9 9 9 s L.P.P.P.P.P.P.P.P.P.J.9 9 9 9 9 9 9 9 w B J N N N N N N N N N N N N N N N N N N N N N N N N N N L f.b.b.b.b 7 0 p v l.b.b.b.b.b.b.%.0 7 p z ",
"9 9 9 9 p L.P.P.P.P.P.P.P.P.P.L.y 9 9 9 9 9 9 9 t e N N N N N N N N N N N N N N N N N N N N N N N N N N N N I q.f.f.%.0 7 u G.x u.d.f.f.s.Q w 7 7 s 6 ",
"9 9 9 9 y L.P.P.P.P.P.P.P.P.P.P.s 9 9 9 9 9 9 9 7 7 : N N N N N N N N N N N N N N N N N N N N N N N N N N N N N V N V w 7 7 H.F.w B J J M > 7 9 y D.6 ",
"9 9 9 9 9 L.P.P.P.P.P.P.P.P.P.P.F.9 9 9 9 9 9 9 7 7 0 : N N N N N N N N N N N N N N N N N N N N N N N N N N N N N N N : 7 7 D.P.s w - J - 0 7 9 y H.W ",
"9 9 9 9 9 G.P.P.P.P.P.P.P.P.P.P.L.u 0 7 9 9 9 9 y 7 7 9 : B N N N N N N N N N N N N N N N N N N N N N N N N N N N N N 2 0 7 y H.L.p w 2 e t 9 9 u J.W ",
"9 9 9 9 9 D.P.P.P.P.P.P.P.P.P.P.P.s 7 7 9 9 9 9 7 7 7 y 7 w 2 J C N N N N N N N N N N N N N N N N N N N - B N N N N N N w 7 7 F.P.L.y 0 0 9 9 t F.K.B ",
"9 9 9 9 9 s L.P.P.P.P.P.P.P.P.P.P.L.y 9 9 9 9 9 9 9 9 9 7 7 9 f 2 M N N N N C C N N N N N N N N N N N C - : e 1 - L N N > t 7 u L.P.H.9 0 t t y L.K.K ",
"9 9 9 9 9 y L.P.P.P.P.P.P.P.P.P.P.P.s 9 9 9 9 9 9 9 9 9 7 7 9 9 9 e ; B N C n C n C N N N N C J N N N n N B : 0 0 e > 2 - w 7 t H.P.P.s t t t F.P.K.L ",
"9 9 9 9 9 y F.P.P.P.P.P.P.P.P.P.P.P.L.u 9 9 9 9 9 9 9 9 9 9 9 9 y 7 9 0 w f : > > > ; > 1 > ; > ; ; ; ; > ; > w 7 7 7 9 w e 9 9 s P.P.L.u 9 D.P.P.v ; ",
"9 9 9 9 9 t s P.P.P.P.P.P.P.P.P.P.P.P.D.9 9 9 9 9 9 9 9 9 9 9 9 7 7 9 9 9 t t 9 9 9 9 9 7 y 9 9 9 7 y 9 9 9 t 9 9 7 9 9 9 9 9 9 9 L.P.L.y p P.P.P.F.9 ",
"9 9 9 9 9 9 y L.P.P.P.P.P.P.P.P.P.P.P.P.s 9 9 7 9 9 9 9 9 9 9 9 7 9 9 9 9 9 9 9 9 9 9 9 7 9 9 9 9 9 9 9 9 9 9 9 9 9 9 9 9 9 9 9 9 s P.H.y H.P.P.P.F.9 ",
"9 9 9 9 9 9 7 F.P.P.P.P.P.P.P.P.P.P.P.P.L.u 9 9 y 9 9 9 9 9 9 9 9 9 9 9 9 9 9 9 9 9 9 9 7 7 9 9 9 9 9 9 9 9 9 9 9 9 9 9 9 9 9 9 y u p s p P.P.P.P.s 9 ",
"9 9 9 9 9 9 9 u P.P.P.P.P.P.P.P.P.P.P.P.L.L.u 7 0 9 9 9 9 9 9 9 9 9 9 9 9 9 9 9 9 9 9 9 9 9 9 9 9 9 9 9 9 9 9 9 9 9 7 0 9 9 y s L.P.H.p p H.H.H.D.y t ",
"9 9 9 9 9 9 9 9 G.P.P.P.P.P.P.P.P.P.P.P.P.L.L.p 7 7 9 9 9 9 9 9 9 9 9 9 9 9 9 9 9 9 9 9 9 9 9 9 9 9 9 9 9 9 9 9 9 7 7 0 9 p L.L.P.P.L.u t 9 t y 9 9 t ",
"t t 9 9 9 9 9 9 u L.P.P.P.P.P.P.P.P.P.P.P.P.P.L.s 9 9 9 9 9 9 9 9 9 9 9 9 9 y 7 9 9 9 9 9 9 9 9 7 7 9 9 9 9 9 9 9 9 9 p F.L.P.L.L.L.p 9 9 9 9 9 9 9 9 ",
"9 0 9 9 9 9 9 9 y s P.P.P.P.P.P.P.P.P.P.P.P.P.P.P.F.u y 9 9 9 9 9 9 9 9 9 9 9 7 9 9 9 9 9 9 9 9 7 y 9 9 9 9 9 9 7 y s F.L.F.s p y y 9 9 9 9 9 9 9 9 9 ",
"9 9 9 9 9 0 t 9 9 y F.P.P.P.P.P.P.P.P.P.P.P.P.P.P.P.P.G.s y 0 9 9 9 9 9 9 9 9 9 9 9 9 9 9 9 9 9 9 9 9 9 9 9 9 9 t y u y t t t t 9 9 9 9 9 9 9 9 9 9 9 ",
"9 9 9 9 9 t 9 9 9 9 u H.P.P.P.P.P.P.P.P.P.P.P.P.P.P.P.P.P.L.F.F.s p u y u y u y y y y u y u u y u y u u t u y y y u y y y y y y y y y y y y y y y 9 9 ",
"t 9 9 9 9 9 t 9 9 9 9 u L.P.P.P.P.P.P.P.P.P.P.P.P.P.P.P.P.P.P.P.P.P.P.P.L.L.P.L.L.L.L.L.L.P.L.P.H.L.L.L.H.P.H.P.L.L.P.L.L.L.L.L.L.L.L.L.L.L.L.L.L.L.H.",
"9 9 9 9 9 9 9 9 9 9 9 9 u H.P.P.P.P.P.P.P.P.P.P.P.P.P.P.P.P.P.P.P.P.P.P.P.P.P.P.P.P.P.P.P.P.P.P.P.P.P.P.P.P.P.P.P.P.P.P.P.P.P.P.P.P.P.P.P.P.P.P.P.P.L.",
"t 9 9 9 9 9 9 9 9 9 9 9 7 y H.P.P.P.P.P.P.P.P.P.P.P.P.P.P.P.P.P.P.P.P.P.P.P.P.P.P.P.P.P.P.P.P.P.P.P.P.P.P.P.P.P.P.P.P.P.P.P.P.P.P.P.P.P.P.P.P.P.P.P.P.",
"0 9 9 9 9 9 0 t 9 9 9 9 9 7 y D.L.P.P.P.P.P.P.P.P.P.P.P.P.P.P.P.P.P.P.P.P.P.P.P.P.P.P.P.P.P.P.P.P.P.P.P.P.P.P.P.P.P.P.P.P.P.P.P.P.P.P.P.P.P.P.P.P.P.P.",
"t 9 9 9 9 9 t 9 9 9 9 9 9 9 9 9 u F.L.P.P.P.P.P.P.P.P.P.P.P.P.P.P.P.P.P.P.P.P.P.P.P.P.P.P.P.P.P.P.P.P.P.P.P.P.P.P.P.P.P.P.P.P.P.P.P.P.P.P.P.P.P.P.P.P.",
"9 9 9 9 9 t 9 9 9 9 9 9 9 9 9 9 7 9 u s L.P.P.P.P.P.P.P.P.P.P.P.P.P.P.P.P.P.P.P.P.P.P.P.P.P.P.P.P.P.P.P.P.P.P.P.P.P.P.P.P.P.P.P.P.P.P.P.P.P.P.P.P.P.P.",
"t 9 9 9 0 t t 9 9 9 9 9 9 9 9 9 9 9 9 9 9 u s F.H.L.H.P.L.P.P.L.L.L.P.P.L.P.L.L.L.P.P.L.L.P.L.P.P.P.P.P.L.L.P.L.P.P.P.L.L.P.P.L.P.P.P.P.P.P.P.L.P.P.P.",
"9 9 9 9 9 9 7 9 9 9 9 9 9 9 9 9 9 9 9 9 9 9 9 9 0 u u u u u u p u u u u u u u u u p u u p p p u p p u u u u u u u u u u u u u u p u u y u y u u u u u ",
"9 9 9 9 t 9 9 9 t 0 9 t 9 t 9 9 9 9 9 9 9 9 9 9 9 9 9 9 9 9 9 9 9 9 9 9 9 9 9 9 9 9 9 9 9 9 9 9 9 9 9 9 7 9 9 9 9 9 t 9 9 7 9 9 9 9 9 9 9 9 9 9 9 9 9 "
};
