/* XPM */
static char *result[] = {
/* columns rows colors chars-per-pixel */
"75 75 203 2 ",
"   c #5F2E09",
".  c #612E09",
"X  c #64320A",
"o  c #6B340B",
"O  c #6B3B0B",
"+  c #71370B",
"@  c #74390C",
"#  c #7B3C0D",
"$  c #6D3A11",
"%  c #7A3C11",
"&  c #6E4108",
"*  c #764B07",
"=  c #764309",
"-  c #7B440A",
";  c #7C4C0C",
":  c #6E570C",
">  c #645D0B",
",  c #6D580C",
"<  c #7B5307",
"1  c #7F5807",
"2  c #74540D",
"3  c #7A500D",
"4  c #754115",
"5  c #7C4716",
"6  c #456F07",
"7  c #476F08",
"8  c #4A6D08",
"9  c #556609",
"0  c #5C620A",
"q  c #516809",
"w  c #477008",
"e  c #497209",
"r  c #4F780D",
"t  c #53730D",
"y  c #5B730E",
"u  c #517A0E",
"i  c #5C7411",
"p  c #537D11",
"a  c #65610D",
"s  c #61710F",
"d  c #676510",
"f  c #786413",
"g  c #657215",
"h  c #6C7617",
"j  c #727213",
"k  c #7D7317",
"l  c #813F0D",
"z  c #803F12",
"x  c #85420E",
"c  c #8C450F",
"v  c #834B0E",
"b  c #8D4A0E",
"n  c #90470F",
"m  c #904A0F",
"M  c #815C07",
"N  c #8E530C",
"B  c #88590A",
"V  c #91540B",
"C  c #935D09",
"Z  c #995E0D",
"A  c #8B4514",
"S  c #834C17",
"D  c #8C4B14",
"F  c #914711",
"G  c #924B12",
"H  c #9C4E16",
"J  c #914718",
"K  c #9C4D1B",
"L  c #845214",
"P  c #885915",
"I  c #955211",
"U  c #9B5115",
"Y  c #9B5A14",
"T  c #965219",
"R  c #9B561C",
"E  c #925E1A",
"W  c #9F591B",
"Q  c #A04F1C",
"!  c #A5521C",
"~  c #AA541F",
"^  c #A25B1B",
"/  c #AB5D1C",
"(  c #B1591F",
")  c #866206",
"_  c #896706",
"`  c #8A6806",
"'  c #8F6708",
"]  c #906E06",
"[  c #956008",
"{  c #9B630C",
"}  c #936B08",
"|  c #947106",
" . c #997606",
".. c #9E7A06",
"X. c #9B7209",
"o. c #9D7808",
"O. c #8C6111",
"+. c #87641D",
"@. c #9D6312",
"#. c #936912",
"$. c #956619",
"%. c #9B651D",
"&. c #8B741B",
"*. c #867B1B",
"=. c #9A7517",
"-. c #92751D",
";. c #9A751F",
":. c #A16A0F",
">. c #A17C07",
",. c #A27B08",
"<. c #A16712",
"1. c #A46D12",
"2. c #A9661D",
"3. c #AA7215",
"4. c #AD7B16",
"5. c #A97419",
"6. c #AF7618",
"7. c #B17F17",
"8. c #B17719",
"9. c #B57B1C",
"0. c #875022",
"q. c #8A5323",
"w. c #9C5C26",
"e. c #AC5520",
"r. c #A35F26",
"t. c #AF5922",
"y. c #B35B24",
"u. c #99652A",
"i. c #8C742B",
"p. c #9E7520",
"a. c #9D6431",
"s. c #A66827",
"d. c #A6652C",
"f. c #BB6026",
"g. c #BD642B",
"h. c #A57621",
"j. c #AB7623",
"k. c #AE7924",
"l. c #B37622",
"z. c #B57F28",
"x. c #A36A34",
"c. c #A86C35",
"v. c #A47637",
"b. c #A87937",
"n. c #AD733B",
"m. c #B27337",
"M. c #B2773E",
"N. c #B4783E",
"B. c #BB7C3F",
"V. c #C2672D",
"C. c #C36A31",
"Z. c #CA6F34",
"A. c #CB7137",
"S. c #CE7339",
"D. c #D1773B",
"F. c #D47A3E",
"G. c #D87D42",
"H. c #568113",
"J. c #5B8716",
"K. c #5C8817",
"L. c #5E8A18",
"P. c #658418",
"I. c #6D841A",
"U. c #618C1A",
"Y. c #65921D",
"T. c #A68107",
"R. c #AB8507",
"E. c #AF8807",
"W. c #AC8508",
"Q. c #AF8808",
"!. c #B48D07",
"~. c #B58D08",
"^. c #B79008",
"/. c #B89008",
"(. c #A88216",
"). c #B48619",
"_. c #B69319",
"`. c #B99619",
"'. c #BC9A1C",
"]. c #928120",
"[. c #BA8027",
"{. c #B78129",
"}. c #BC842A",
"|. c #B4922D",
" X c #C09B1D",
".X c #C1872A",
"XX c #C28B2F",
"oX c #C49E21",
"OX c #C68F30",
"+X c #CA9232",
"@X c #C89833",
"#X c #D29935",
"$X c #D59E39",
"%X c #C6A425",
"&X c #C8A524",
"*X c #CDAC2A",
"=X c #D3B22F",
"-X c #D7A03A",
";X c #DBA13B",
":X c #D5B532",
">X c #D7B936",
",X c #D8BB37",
"<X c #DBBD39",
/* pixels */
"c c c c A n c c c c l A n c n c A c c n c n A n c c c c c n c c c n c c c n c c c n v , > > a f f f P M L L b b , 6 e 8 6 7 7 7 7 7 K.Y.Y.Y.Y.Y.Y.r 6 ",
"c c c c A z l @ o o o + + @ # l z z x x l l # @ o o # c c c c c c c c c c c c c A A c 3 0 8 e e r u H.U.U.I.I.I.P.J.H.p e 7 7 7 6 6 K.Y.Y.Y.Y.Y.Y.u 8 ",
"c c c # o . . o @ % z J J J z z @ @ @ o o X o o + l z ~ Q n c c c c c c c c c c x x S A v 2 8 6 7 7 8 e r H.U.Y.Y.Y.Y.Y.H.7 7 7 6 e K.Y.Y.Y.Y.Y.U.r 6 ",
"c c l X . @ J ! ~ ~ e.t.( e.e.e.e.e.K K K K Q ! ~ e.e.V.y.F c c c c c c c x # o $ q.w.a.d.d.u.a 8 7 e 7 e e e H.Y.Y.Y.Y.L.e 7 7 e 6 K.Y.Y.Y.Y.Y.U.u 6 ",
"c c @ . @ Q e.e.~ e.e.e.e.e.e.e.e.e.e.e.e.e.e.e.e.e.y.G.C.F c c c c c c c + . $ a.M.N.N.N.N.N.M.+.9 6 6 e 6 6 e p Y.Y.Y.L.e e 6 7 e J.Y.Y.Y.Y.Y.Y.u 8 ",
"c c @ . A e.e.e.e.e.e.e.e.e.e.e.e.e.e.e.e.e.e.e.e.~ C.G.V.A c c c c c c # . o a.N.M.M.M.M.M.N.B.N.D , q 6 6 8 6 7 p K.Y.K.6 7 7 7 7 J.Y.Y.Y.Y.Y.U.u 7 ",
"c c l . A e.e.e.e.e.e.e.e.e.e.e.e.e.e.e.e.e.e.e.e.e.C.G.g.n c c c c x l X . q.M.M.M.M.M.M.M.M.B.B.d.x ; 0 8 8 e r e e p p 7 7 7 7 e L.Y.Y.Y.Y.Y.Y.r 6 ",
"c c c o % e.e.e.e.e.e.e.e.e.e.e.e.e.e.e.e.e.e.e.e.e.C.G.V.n c c c c A @ . 4 c.M.M.M.M.M.M.M.M.B.B.d.n c 3 8 e H.Y.U.J.p p r 7 7 7 7 K.Y.Y.Y.Y.Y.Y.u 7 ",
"c c c l o K ~ t.e.e.e.e.e.e.e.e.e.e.e.e.e.e.e.e.e.e.Z.G.V.n c c c c # . $ a.M.M.M.M.M.M.M.M.M.B.B.d.A ; q r J.Y.Y.Y.Y.p L.U.p 7 7 e J.Y.Y.Y.Y.Y.U.r 8 ",
"c c c c # % ~ ~ e.e.e.e.e.e.e.e.e.e.e.e.e.e.e.e.e.e.S.G.V.n c c c x o . 5 M.M.M.M.M.M.M.M.M.M.N.B.s.v 9 r L.Y.Y.Y.L.p u Y.Y.L.e 7 7 J.Y.Y.Y.Y.Y.Y.r 6 ",
"c c c c l # A ~ e.e.e.t.e.e.e.e.~ ~ ( ~ e.e.e.e.y.C.+XG.V.n c c A @ . o x.N.M.M.M.M.M.M.M.M.M.B.B.u.9 p Y.Y.U.K.p e 7 e L.Y.Y.e 7 e L.Y.Y.Y.Y.Y.Y.u 6 ",
"c c c c c c x Q e.e.y.y.y.y.y.y.y.~ y.y.y.g.g.A.G.G.S.f.Q c c c x X . 0.M.M.M.M.M.M.M.M.M.M.M.B.b.h J.Y.U.H.r 7 7 7 7 7 p Y.Y.u 7 7 J.Y.Y.Y.Y.Y.U.r 6 ",
"c c c c c c c n H ! ( V.Z.Z.A.S.S.S.S.F.F.F.D.Z.y.y.Q n c c c c # X X x.N.M.M.M.M.M.M.M.M.M.M.v.I.K.K.u e e 7 7 7 7 e 7 e K.Y.p 7 7 L.Y.Y.Y.Y.Y.Y.r 6 ",
"c c c c c c c c c c c F K ! e.( y.y.y.y.( ~ Q F l F n l c c c c + . % n.M.M.M.M.M.M.M.M.M.M.v.h H.e e 6 7 e 6 9 0 7 7 7 e u Y.H.7 7 J.Y.Y.Y.Y.Y.Y.u 8 ",
"c c c c c c c c c c G <.^ n n n c n n c c x c c l n n l c c c c o   5 M.M.M.M.M.M.M.M.M.M.v.g e 8 6 e 6 8 0 , ; 9 6 7 7 7 7 J.L.7 7 L.Y.Y.Y.Y.Y.U.r 7 ",
"c c c c c c c c x @.~. X X7.I l c c c c c n n n n n n F c c c c # . 4 n.N.M.M.M.M.M.M.M.v.g w w 6 e 9 > 3 v A ; 7 7 7 7 7 7 r K.e 7 L.Y.Y.Y.Y.Y.Y.r 6 ",
"c c c c c c c l } _.`.`.'.&X).m c c c c c c c c c c c c c c c c x + o q.M.M.M.M.M.M.M.n.g 7 e i k +.D A c c c > 7 7 7 7 7 7 7 p r 6 J.Y.Y.Y.Y.Y.Y.r 7 ",
"c c c c c c # P _.`.`.`.`.&X*X4.b c c n n c c c c c c c c c c c n A # o 5 x.M.M.M.M.v.g t h i.b.B.d.c b c c b 0 7 7 7 7 7 7 e e r 6 J.Y.Y.Y.Y.Y.Y.r 7 ",
"c c c c A # - _.`.`.`.`.`.'.=XoXZ c c l x l l l l l l l l l c c c c c l X $ a.M.M.M.i.i.v.M.N.B.B.d.c c c c v 8 7 7 7 7 7 7 7 7 6 e K.Y.Y.Y.Y.Y.U.r 7 ",
"c c c c x X B `.`.`.`.`.`.`.=X=X).n l X . O @ @ = @ # = = = x V c c A F z . $ x.M.M.M.M.M.M.N.A.B.w.c c c c 2 8 9 7 7 7 7 7 7 7 6 6 K.Y.Y.Y.Y.Y.Y.r 7 ",
"c c c c x . O.`.`.`.`.`.`.`.*X<X XZ + . O B C C [ C [ [ C [ C [ V b c c c # . 5 n.M.M.M.N.N.B.B.d.m c c c c 0 > , 7 7 7 7 7 7 7 6 8 K.Y.Y.Y.Y.Y.Y.u 7 ",
"c c c c x X #.`.`.`.`.`.`.`.oX<X*X:.+   = C [ [ C [ [ [ [ [ [ [ [ m c c c c # o 5 c.M.M.N.N.m.r.G c c c c v > v , 7 7 7 7 7 7 7 6 e J.Y.Y.Y.Y.Y.U.r 8 ",
"c c c c l . #.`.`.`.`.`.`.`.|.<X=X7.@ . = [ [ [ [ [ [ [ [ [ [ 1.:.V c c c c c c l F q.w.R T G c c c c c c ; 3 c , 7 7 7 7 7 7 7 7 e K.Y.Y.Y.Y.Y.Y.u 6 ",
"c c c n l X #.`.`.`.`.`.`.`.'.>X:X7.@ . = [ [ [ [ [ [ [ [ [ [ 3.8.[ m c c c c n n n n l c x A c c c c c c c c c , 7 7 7 7 7 7 e 7 e K.Y.Y.Y.Y.Y.Y.r 6 ",
"c c c c x . } '.`.`.`.`.`.`.'.>X:X7.@ . = [ [ [ [ [ [ C [ [ [ 1.9.:.V c c c c c c c c c c c c c c c c c c c c n , 7 7 7 7 7 7 7 6 8 K.Y.Y.Y.Y.Y.U.r 8 ",
"c c c c l . #.`.`.`.`.`.`.`.oX,X=X6.+ . = [ [ [ [ [ [ [ [ [ [ :.9.6.C c c c c c c c c c c c c c c c c c c c c c , 7 7 7 7 7 7 7 6 e J.Y.Y.Y.Y.Y.Y.r 7 ",
"c c c n l . #.`.`.`.`.`.`.`.%X<X*X<.+ . - [ [ [ [ [ [ [ [ [ C :.9.9.:.m c c c c c c c c c c c c c c c c c c c c , 7 7 7 7 7 7 7 6 e K.Y.Y.Y.Y.Y.Y.r 7 ",
"c c c c l X O.`.`.`.`.`.`.'.>X<X XV + . = [ [ [ [ [ [ [ [ C C [ 8.9.:.V c c c c c c c c c c c c c c c c c c c c , 7 7 7 7 7 7 7 6 8 K.Y.Y.Y.Y.Y.Y.r 7 ",
"c c c c x . 3 `.'.oX|.oX&X:X<X:X8.n + . = C [ [ [ [ [ [ [ [ [ :.8.9.6.C c c c c c c c c c c c c c c c c c c c c : 7 7 6 7 6 6 7 7 e K.Y.Y.Y.Y.Y.U.r 6 ",
"c c c c x o X =.'.*X>X,X<X,X:X).n n + . = [ [ [ [ [ [ [ [ [ [ [ 3.9.9.Z c c c c c c c c c c c c c c c c c c c c : 7 7 e 7 e 7 7 7 7 K.Y.Y.Y.Y.Y.Y.u 7 ",
"c c c c n l o o O.`.*X*X&XoX4.G c c @ . = [ [ [ C [ [ [ C [ [ [ 3.9.8.:.m c c c c c c c c c c c c c c c c c c c : e 7 7 7 7 7 7 7 7 K.Y.Y.Y.Y.Y.U.r 7 ",
"c c c c c c l o X ; =.(.(.{ b c c c + . = [ [ [ [ [ [ [ [ [ [ [ 3.9.9.:.b c c c c c c c c c c c c c c c c c c c : 6 7 7 7 7 7 7 7 7 K.Y.Y.Y.Y.Y.Y.u 7 ",
"c c c c c c c c # o + x b c c c c c + . - [ [ [ [ [ [ [ [ [ [ [ 3.9.9.:.m c c c c c c c c c c c c c c c c c c c 2 6 7 7 7 7 7 7 6 e J.Y.Y.Y.Y.Y.Y.r 7 ",
"c c c c c c c c c c b c c c c c c c + . = [ [ [ [ [ [ [ [ [ [ { 8.9.8.Z n c c c c c c c c c c c c c c c c c c c , 6 7 6 7 7 6 e e 6 J.Y.Y.Y.Y.Y.Y.r 7 ",
"c c c c c c c c c c c c c c c c c c + . - [ [ [ [ [ [ [ [ [ [ :.9.9.1.m c c c c c c c c c c c c c c c c c c c c , 6 8 e 7 7 7 7 6 8 K.Y.Y.Y.Y.Y.U.r 7 ",
"c c c c c c c c c c c c c c c c c c + . = [ [ [ [ [ C [ [ [ { 8.9.3.C n c c c c c c c c c c c c c c c c c c c c : e 6 6 7 7 7 7 e 6 K.Y.Y.Y.Y.Y.Y.r 7 ",
"c c c c c c c c c c c c c c c c c c # . = C [ [ [ C [ [ { :.8.9.3.V b c c c c c c c c c c c c c c c c c c c c c : 7 7 7 7 7 7 7 7 e J.Y.Y.Y.Y.Y.Y.u 7 ",
"b c c c c c c c c c c c c c c c c c x # = C [ 1.3.3.3.3.8.9.9.1.V c c c c c c c c c c c c c c c c c c c c c c c : 7 7 7 7 7 7 7 7 6 J.Y.Y.Y.Y.Y.Y.r 7 ",
"c c c c c c c c c c c c c c c c c c c c c b V Z :.1.3.3.8.3.{ V c c c c c c c c c c c c c c c c c c c c c c c c : e 7 7 7 7 7 e 7 e L.Y.Y.Y.Y.Y.U.r 6 ",
"c c c c c c c c c c c c c c c c c c c c c c c c V C C Z C V b c c c c c c c c c c c c c c c c c c c c c c c c c , 6 7 7 7 7 7 6 7 e K.Y.Y.Y.Y.Y.Y.r 7 ",
"c c c c c c c c c c c c c c c c c c c c c c c c c b b b b c c c c c c c c c c c c c c c c c c c c c c c c c c n , 8 7 7 7 7 7 7 6 e J.Y.Y.Y.Y.Y.U.r 6 ",
"c c c c c c c c c c c c c c c c c c c c c c c c c c A c c c c c c c c c c c c c c c c c c c c c c c c c c c c c : 6 7 6 7 7 7 7 e 6 J.Y.Y.Y.Y.Y.Y.r 8 ",
"c c c c c c c c c c c c c c c c c c c c c c c c c c c c c c c c c c c c c c c A c c c c c c c c c c c c c c c c : 6 e 6 7 7 7 7 6 8 K.Y.Y.Y.Y.Y.Y.r 7 ",
"c c c c c c c c c c c c c c c c c c c c c c c c c c c c c c c c c c c c c c x l l x c c c c c c c c c c c c c c : e 6 e 7 7 6 e e 6 K.Y.Y.Y.Y.Y.Y.r 7 ",
"c c c c c c c c c c c c c c c c c c c c c c c c c c c c c c c c c c c c c # @ S G T R W c c c c c c c c c c c c : 7 7 7 7 7 7 7 7 7 K.Y.Y.Y.Y.Y.U.r 7 ",
"c c c c c c c c c c c c c c c c c c c c c c c c c c c c c c c c c c c c l o D ^ W ^ W / U c c c c c c c c c c c : 7 7 7 7 7 7 7 7 e J.Y.Y.Y.Y.Y.Y.r 7 ",
"c c c c c c c c c b b b c c c c c c c c c c c c c c c c c c c c c c c c # @ ^ W W W W ^ / b c c c c c c c c c c : e 7 7 6 e 7 7 7 7 L.Y.Y.Y.Y.Y.U.r 7 ",
"c c c c c c x v C ' ] } ' C N c c c c c c c c c c c c c c c c c c c c c # # W W W W W / / c c c c c c c c c c c : 6 7 7 7 7 7 7 7 7 L.Y.Y.Y.Y.Y.Y.r 7 ",
"c c c c c l + M ` ` | | | ` ' m c c c c c c c c c c c c c c c c c c c c x @ R W W W / / ! c c c c c c c c c c c 2 6 7 7 7 7 7 7 7 e J.Y.Y.Y.Y.Y.Y.r 7 ",
"c c c x @ X 1 `  .R.!.!.E. .` C c c c c c c c c c c c c c c c c c c c c x + T W W ^ ^ / U c c c c c c c c c c c , 6 6 e e 6 7 7 7 7 J.Y.Y.Y.Y.Y.Y.r 7 ",
"c c x # O 1  .T.E.R.R.!.~.R.] } b c c c c c c c c c c c c c c c c c c c A O D ^ W W ^ / m c A c A x c c c c c n , 6 e 6 7 7 7 7 7 e L.Y.Y.Y.Y.Y.U.r 7 ",
"c x o O ) ] | ] ] ` ` >.!.!.>.} C c c c c c c c c c c c c c c c c c c c c # D ^ W / / ^ c c x # + o l G c c c c : 8 6 8 7 7 7 7 7 e J.Y.Y.Y.Y.Y.Y.r 7 ",
"c @ . < ` ` ` ` _ ` ` ` >.!.W.| } b A c c c c c c c c c c c c c c c c c c c c U U U G b l @ X . o L %.k.2.G c c : 7 7 7 7 7 e 6 7 e J.Y.Y.Y.Y.Y.Y.r 7 ",
"c # . * ` ` ` ` ` ` ` ` ` R./.,.} N c c c c c c c c c c c c c c c c c c c c c c c x # o . X = E 2.j.{.+X}.2.c n : 7 7 7 7 7 7 7 7 e J.Y.Y.Y.Y.Y.Y.r 7 ",
"c # . * ` ` ` ` ` ` _ ` ` | !.!...[ c c c c c c c c c c c c c c c c c c c c x # + X . O S %.h.j.h.j.{.-X@X5.G c : e 7 7 7 e 7 e p e L.Y.Y.Y.Y.Y.U.r 7 ",
"c l . & ` ` ` ` ` ` ` ` ` ' T.~.W.} b c c c c c c c c c c c c c c c c c x # o . o 4 E h.j.j.k.j.j.j.{.-X|.j v A : 6 7 7 7 e p L.u 7 L.Y.Y.Y.Y.Y.Y.r 7 ",
"x x . & _ ` ` ` _ ` ` ` _ _  .!.~...N A c c c c c c c c c c c c c c c x o . + L u.5.k.j.j.j.j.j.j.h.k.-X-Xh 9 ; : e 7 7 r L.Y.p 7 7 K.Y.Y.Y.Y.Y.U.r 7 ",
"c x X O _ ` ` ` ` ` ` ` ` ` ` E.~.!.[ b c c c c c c c c c c c c c c c x . X $.k.j.j.j.j.j.j.j.j.j.j.{.-X;X*.7 9 0 6 e H.U.Y.H.e 7 e J.Y.Y.Y.Y.Y.Y.r 6 ",
"c x X O ) ` ` ` ` ` ` _ ` ` ` T.~.^.,.N c c c c c c c c c c c c c c c x X X %.j.j.j.j.j.j.j.j.k.j.j.{.-X;X$.8 7 6 r K.Y.Y.L.e e 7 7 K.Y.Y.Y.Y.Y.Y.r 7 ",
"b x X X ) _ ` ` _ ` ` ` ` ` `  .~.^.~.X.b b c c c c c c c c c c c c c x . X %.j.j.p.&.&.-.-.-.-.-.-.p.|.|.O.q 7 7 H.Y.Y.U.r 7 7 7 7 J.Y.Y.Y.Y.Y.U.r 7 ",
"n c o X M ` ` ` ` ` ` ` ` ` ` ` E.!.^.R.[ b c c c c c c c c c c c c A l X X %.j.j.p.j y t p K.U.U.U.P.U.U.J.q 7 e L.Y.Y.u 7 7 7 7 e L.Y.Y.Y.Y.Y.Y.r 7 ",
"c c o . M ` ` ` ` _ ` ` ` ` ` ` ..~.^.~.o.C c A c c c c c c c c c c c x . X %.k.j.j.j.p.k s u H.U.Y.Y.Y.Y.Y.U.J.e r p r e 7 7 7 7 7 K.Y.Y.Y.Y.Y.Y.r 7 ",
"c c + . < ` _ ` ` _ ` ` ` ` ` ` ` R.~./.W.} N x c c c c c c c c c c c x X X %.j.j.j.j.j.k.5.&.g u r K.Y.Y.Y.Y.Y.J.e e e 7 7 7 7 7 7 L.Y.Y.Y.Y.Y.U.r 7 ",
"c c @ . < ` ` ` ` ` ` ` ` ` ` ` _  .!.^.^.,.[ b c c c c c c c c c c c x X X %.k.j.j.j.j.j.j.j.j.&.j t r H.L.Y.Y.J.H.Y.L.r 7 7 7 7 7 L.Y.Y.Y.Y.Y.Y.r 7 ",
"c c # . * ` _ ` ` _ ` ` _ ` ` ` ` ` E.!./.Q.} b c c c c c c c c c c c l X X %.j.k.j.j.j.j.j.j.j.j.j.;.].r e r r 6 r L.Y.U.r 7 7 7 7 K.Y.Y.Y.Y.Y.U.u 7 ",
"c n # . * _ _ ` ` ` ` ` ` ` ` ` _ ] E.!././.,.C c c c c c c c c c c c l X X %.j.j.j.j.j.j.j.j.j.j.j.j.i.t 6 6 6 6 e e p L.U.r 7 7 7 K.Y.Y.Y.Y.Y.Y.r 7 ",
"c c x . & _ ` ` ` ` ` ` ` ` ` ` ] T.!.!.~./.R.' c c c c c c c c c c c x . X %.j.j.j.j.j.j.j.j.j.h.&.s 8 i j d 3 > 7 e 7 e p J.r 7 7 J.Y.Y.Y.Y.Y.Y.r 7 ",
"c c x . O _ ` ` ` ` ` ` _ _ `  .E.!.!.!.!.!.>.' b c c c c c c c c c c x X X %.k.j.j.j.j.j.j.j.p.k j *.|.-X.XG c > 7 7 7 e 7 e r e e J.Y.Y.Y.Y.Y.U.r 6 ",
"c c x X O ) _ _ ` ` ` ` `  .R.!.!.!.!.T.>.X.C b c c c c c c c c c c c c o X $.j.j.j.k.{.z.j.k.h.5.j.XX;X;X}.G v q 7 7 7 7 7 e 7 6 e K.Y.Y.Y.Y.Y.Y.r 7 ",
"c c c o X ) ` ` ` ' |  .R.W.R.R... .] _ C b c c c c c c c c c c c c c c % X L h.j.k.OX$X$X#X+X|.}.+X$X;X-X8.m 2 7 7 7 7 7 6 6 7 7 e K.Y.Y.Y.Y.Y.Y.r 7 ",
"c c c # @ + < 1 ) ' | | ] ' _ ) M B b b c c c c c c c c c c c c c c c c x o o 2.j.j.OX-X$X$X-X-X;X;X;X;X+X^ c > 7 7 7 7 7 7 7 7 7 7 K.Y.Y.Y.Y.Y.U.u 7 ",
"c c c c b x - = - - * = ; ; - x x b c c c c c c c c c c c c c c c c c c A x X L j.j.}.-X-X-X$X$X-X;X;X;Xl.G v 9 7 7 7 7 7 7 7 7 7 e K.Y.Y.Y.Y.Y.Y.r 7 ",
"c c c c c c c c c c x c c c c c c c c c c c c c c c c c c c c c c c c c c c l o E k.j.OX#X+XOX}.OX#X#Xl.G c 3 0 > e 6 e 7 7 7 7 7 e J.Y.Y.Y.Y.Y.Y.r 7 ",
"c c c c c c c c c c c c c c c c c c c c c c c c c c c c c c c c c c c c c c c x x %.l.z.[.z.l.l.j.s.Y m x c 2 v 2 6 7 6 7 7 7 7 7 7 J.Y.Y.Y.Y.Y.Y.r 7 ",
"c c c c c c c c c c c x c c c c c c c c c c c c c c c c c c c c c c c c c c c c c c I W W Y I I G n c c c c b c : 7 7 7 7 7 6 e e 6 J.Y.U.Y.Y.Y.U.r 7 "
};
