/* XPM */
static char *result[] = {
/* columns rows colors chars-per-pixel */
"75 75 205 2 ",
"   c #5F2E09",
".  c #612E09",
"X  c #64320A",
"o  c #6B340B",
"O  c #6B3B0B",
"+  c #71370B",
"@  c #74390C",
"#  c #7B3C0D",
"$  c #6D3A11",
"%  c #7A3C11",
"&  c #6E4108",
"*  c #764B07",
"=  c #764309",
"-  c #7B440A",
";  c #7C4C0C",
":  c #6E570C",
">  c #645D0B",
",  c #6D580C",
"<  c #7B5307",
"1  c #7F5807",
"2  c #74540D",
"3  c #7A500D",
"4  c #754115",
"5  c #7C4716",
"6  c #456F07",
"7  c #476F08",
"8  c #4A6D08",
"9  c #556609",
"0  c #5C620A",
"q  c #516809",
"w  c #477008",
"e  c #497209",
"r  c #4F780D",
"t  c #53730D",
"y  c #5B730E",
"u  c #517A0E",
"i  c #5C7411",
"p  c #537D11",
"a  c #65610D",
"s  c #61710F",
"d  c #676510",
"f  c #786413",
"g  c #657215",
"h  c #6C7617",
"j  c #727213",
"k  c #7D7317",
"l  c #787520",
"z  c #813F0D",
"x  c #803F12",
"c  c #85420E",
"v  c #8C450F",
"b  c #834B0E",
"n  c #8D4A0E",
"m  c #90470F",
"M  c #904A0F",
"N  c #815C07",
"B  c #8E530C",
"V  c #88590A",
"C  c #91540B",
"Z  c #935D09",
"A  c #995E0D",
"S  c #8B4514",
"D  c #834C17",
"F  c #8C4B14",
"G  c #914711",
"H  c #924B12",
"J  c #9C4E16",
"K  c #914718",
"L  c #9C4D1B",
"P  c #845214",
"I  c #885915",
"U  c #955211",
"Y  c #9B5115",
"T  c #9B5A14",
"R  c #965219",
"E  c #9B561C",
"W  c #925E1A",
"Q  c #9F591B",
"!  c #A04F1C",
"~  c #A5521C",
"^  c #AA541F",
"/  c #A25B1B",
"(  c #AB5D1C",
")  c #B1591F",
"_  c #866206",
"`  c #896706",
"'  c #8A6806",
"]  c #8F6708",
"[  c #906E06",
"{  c #956008",
"}  c #9B630C",
"|  c #936B08",
" . c #947106",
".. c #997606",
"X. c #9E7A06",
"o. c #9B7209",
"O. c #9D7808",
"+. c #8C6111",
"@. c #87641D",
"#. c #9D6312",
"$. c #936912",
"%. c #956619",
"&. c #9B651D",
"*. c #8B741B",
"=. c #867B1B",
"-. c #9A7517",
";. c #92751D",
":. c #9A751F",
">. c #A16A0F",
",. c #A17C07",
"<. c #A27B08",
"1. c #A16712",
"2. c #A46D12",
"3. c #A9661D",
"4. c #AA7215",
"5. c #AD7B16",
"6. c #A97419",
"7. c #AF7618",
"8. c #B17F17",
"9. c #B17719",
"0. c #B57B1C",
"q. c #875022",
"w. c #8A5323",
"e. c #9C5C26",
"r. c #AC5520",
"t. c #A35F26",
"y. c #AF5922",
"u. c #B35B24",
"i. c #99652A",
"p. c #8C742B",
"a. c #9E7520",
"s. c #9D6431",
"d. c #A66827",
"f. c #A6652C",
"g. c #BB6026",
"h. c #BD642B",
"j. c #A57621",
"k. c #AB7623",
"l. c #AE7924",
"z. c #B37622",
"x. c #B47C26",
"c. c #B57F28",
"v. c #A36A34",
"b. c #A86C35",
"n. c #A47637",
"m. c #A87937",
"M. c #AD733B",
"N. c #B27337",
"B. c #B2773E",
"V. c #B4783E",
"C. c #BB7C3F",
"Z. c #C2672D",
"A. c #C36A31",
"S. c #CA6F34",
"D. c #CB7137",
"F. c #CE7339",
"G. c #D1773B",
"H. c #D47A3E",
"J. c #D87D42",
"K. c #568113",
"L. c #5B8716",
"P. c #5C8817",
"I. c #5E8A18",
"U. c #658418",
"Y. c #6D841A",
"T. c #618C1A",
"R. c #65921D",
"E. c #A68107",
"W. c #AB8507",
"Q. c #AF8807",
"!. c #AC8508",
"~. c #B48D07",
"^. c #B58D08",
"/. c #B79008",
"(. c #B89008",
"). c #B48619",
"_. c #B69319",
"`. c #B99619",
"'. c #BC9A1C",
"]. c #928120",
"[. c #BA8027",
"{. c #B78129",
"}. c #BC842A",
"|. c #B4922D",
" X c #C09B1D",
".X c #C1872A",
"XX c #C28B2F",
"oX c #C49E21",
"OX c #C68F30",
"+X c #CA9232",
"@X c #C89833",
"#X c #D29935",
"$X c #D59E39",
"%X c #D89F39",
"&X c #C6A425",
"*X c #C8A524",
"=X c #CDAC2A",
"-X c #D3B22F",
";X c #D7A03A",
":X c #DBA13B",
">X c #D5B532",
",X c #D7B936",
"<X c #D8BB37",
"1X c #DBBD39",
"2X c #DB8145",
/* pixels */
"7 r T.R.R.R.R.R.P.7 7 7 7 7 7 7 7 7 , v n v v v v F H U R T / T H G v v v v v v v v v v v v v v v v v v v v v v v v v v v v v v v v v v v v v v v v v ",
"7 r R.R.R.R.R.R.P.e 7 7 7 e 7 7 7 7 2 b 2 v v m Y 3.z.z.z.x.[.x.z.&.b c v v v v v v v v v v v v v v v v v v v v v v v v v v v v m m v v v v v v v v v ",
"7 r R.R.R.R.R.R.L.7 7 7 7 7 7 7 7 7 > 0 2 v H z.#X#XOX.XXX@X#X+Xl.k.W o z v v v v v v v v v v v v v v v v v v v v v v v v v v v v z v v v m v v v v v ",
"7 r R.R.R.R.R.R.L.7 7 7 7 7 7 7 7 7 8 9 b G z.%X:X;X$X$X$X;X;X$X{.l.k.D . z v v v v v v v v v v v v v v v v v v v v c c - - - * * * = # # z v v v v v ",
"7 r R.R.R.R.R.R.L.w 7 7 7 7 7 7 7 7 7 > v / @X:X:X;X;X;X;X%X$X;X@Xk.k.3.o o S v v v v v v v v v v v v v v v v n b V N _ ' ' [  . .' _ N < O O c v v v ",
"6 r R.R.R.R.R.R.L.e 7 7 7 7 7 w 7 7 7 2 M 0.;X:X$X+XXXXX+X#X#X$X+Xk.k.k.P . # v v v v v v v v v v v v v n n B ] [ ..,.E.Q.Q.W.X.[ ' ' ' ' _ X o v v v ",
"6 r T.R.R.R.R.R.L.e 7 7 7 7 7 7 7 6 q b H }.:X:XXXk.j.j.k.l.c.c.l.k.k.k.&.X o v v v v v v v v v v v v M Z  .<.W.^.~.^.^.W...' ' ' ' ' ' ' ` O . z v v ",
"8 r R.R.R.R.R.R.L.7 e r e 7 7 7 7 6 0 v J .X#X|.=.j k :.k.k.k.j.k.k.k.k.&.X X z v v v v v v v v v v n ] ,.~.^.^.~.~.Q...' ' ' ' ' ' ' ' ' ` O . z m v ",
"7 r R.R.R.R.R.R.L.e 7 r L.p e e 7 7 > 3 d j i t s *.j.k.k.k.k.k.k.k.k.k.&.X X c v v v v v v v v v v v | Q.(.^.^.~.,.[ ' ' ' ' ' ' ' ` ' ' ` & . z v v ",
"7 u R.R.R.R.R.R.L.w 7 7 r I.I.p e 7 8 7 6 6 u ].j.k.k.k.k.k.k.k.k.k.k.k.i.X X c v v v v v v v v v v v Z ,./.(.^.~.[ ' ' ' ' ' ' ' ' ' ' ' ` * . # v v ",
"7 r R.R.R.R.R.R.L.7 7 7 w r T.R.T.e e e u 7 y =.:.k.k.k.k.k.k.k.k.k.k.k.&.o X z v v v v v v v v v v v n | ~.(.^.W.' ' ' ' ' ' ' ' ` ' ' ' ' *   # v v ",
"7 r R.R.R.R.R.R.L.e 7 7 w w r T.R.K.P.R.R.T.K.r q j ;.j.k.k.k.k.k.k.k.k.&.X . z v v v v v v v v v v S n Z X./.^.~. .' ' ' ` ' ' ' ' ` ' ' ' <   @ v v ",
"7 r T.R.R.R.R.R.L.w 7 7 7 7 7 e e e P.R.R.R.R.T.P.p u g *.j.k.k.k.k.k.k.&.X X - v v v v v v v v v v v v B | W.(.~.W.' ' ' ' ' ' ' ' ' ' ' ' 1 X + v v ",
"7 u R.R.R.R.R.R.L.7 7 7 7 7 e r u u e P.T.R.R.R.R.R.T.L.u i =.:.k.k.k.k.&.X X c v v v v v v v v v v v v v Z O.^./.~.,.' ` ' ' ` ` ' ' ` ' ' N . + v v ",
"7 r R.R.R.R.R.R.L.e 7 7 7 7 p T.R.T.7 6 t L.T.T.P.T.T.U.U.p r y k a.k.k.&.X X c v v v v v v v v v v v v v n { W.(.~.W.' ' ' ' ' ' ' ' ' ' ' N . o c v ",
"7 r R.R.R.R.R.R.L.w 7 7 7 r T.R.R.K.7 6 q I |.|.:.;.;.;.;.;.*.*.*.;.k.k.&.X X c v v v v v v v v v v v v v n n o.~./.~...` ' ` ' ' ' ' ' ' ' _ o X v v ",
"6 u R.R.R.R.R.R.L.e 7 7 e I.R.R.I.r 7 7 8 %.:X%Xc.k.k.k.k.k.k.k.k.l.k.l.&.X . c v v v v v v v v v v v v v v v B E./.^.,.' ' ' ' ' ' ' ' ' ' ` O . c v ",
"6 r R.R.R.R.R.R.L.w 7 e L.R.T.K.e w 0 q 7 =.:X%Xx.k.k.k.k.k.k.k.k.k.k.7.%.X X c v v v v v v v v v v v v v v v v | Q.^.Q.[ ' ' ' ' ' ' ' ' ' ` O . c v ",
"8 r T.R.R.R.R.R.L.w w p T.L.r 7 7 7 : b q h ;X%Xx.k.k.k.k.k.k.k.k.k.i.I O . X c v v v v v v v v v v v v v v v v B <.^.^...' ' ' ' ' ' ' ' ' ` & . c v ",
"6 r T.R.R.R.R.R.L.7 u P.p e 7 7 7 w , S b j @X;Xc.k.k.k.k.k.k.d.W 4 o . X # c v v v v v v v v v v v v v v v v v S | !./.E.' ' ' ' ' ' ' ' ' ' & . z v ",
"7 u R.R.R.R.R.R.L.e p r e 7 7 7 7 7 : m H 6.@X$X{.k.k.k.6.&.P O . X + z v v v v v v v v v v v v v v v v v v v v n { X.^.~. .' ' ' ' ' ' ' ' ' * . # v ",
"8 p R.R.R.R.R.R.L.e e 7 7 7 7 7 7 7 : v n 3.}.+X{.k.j.I 4 X X o # z v v v v v v v v v v v v v v v v v v v v v v v C | ,.^.E.' ' ' ' ' ' ' ' ' * . @ m ",
"7 r R.R.R.R.R.R.L.7 7 7 7 7 w 7 7 7 , v v F 3.z.&.b o X X @ z v H Y Y J n S v v v v v v v v v v v v v v v v v v v n ] o.W.~.,.' ' ' ' ` ' ' ' < . @ v ",
"6 r R.R.R.R.R.R.L.e 7 7 7 7 7 7 7 7 , v v v v H c o o # c v m ( 3./ / / F @ v v v v v v v v v v v v v v v v v v v v Z [ ,.^.^.,.' ' '  . .[ N & o z v ",
"6 r T.R.R.R.R.R.I.e 7 7 7 7 7 7 7 7 , v v v v v v v v v v v M ( ( Q Q Q S + v v v v v v v v v v v v v v v v v v v v n | ' !.^.~.W.,.~.W.o.1 o @ c n v ",
"8 r R.R.R.R.R.R.P.8 7 7 w 7 7 7 7 7 2 v v v v v v v v v v v Y ( / Q Q / R o v v v v v v v v v v v v v v v v v v v v v B [ ..Q.~.~.Q...' 1 X @ v v v v ",
"7 r R.R.R.R.R.R.L.e 7 e 7 7 7 w 7 7 , v v v v v v v v v v v ~ 3.Q Q Q Q Q # # v v v v v v v v v v v v v v v v v v v v n { '  . .[ ' ] N + - v v v v v ",
"7 r R.R.R.R.R.R.L.7 7 7 7 7 7 7 7 7 , v v v v v v v v v v M ( / Q Q Q Q / 4 # v v v v v v v v v v v v v v v v v v v v v F Z | | | ] V b v v v v v v v ",
"6 r R.R.R.R.R.R.L.w 7 7 7 7 7 7 7 7 , v v v v v v v v v v v ( / Q Q Q Q Q % # v v v v v v v v v v v v v v v v v v v v v v v n n B n v v v v v v v v v ",
"8 r R.R.R.R.R.R.L.e 7 7 7 7 7 7 7 7 2 v v v v v v v v v v v J 3.Q Q Q Q F o z v v v v v v v v v v v v v v v v v v v v v v v v v v v v v v v v v v v v ",
"6 r R.R.R.R.R.R.L.e 7 7 7 7 7 7 7 7 , m v v v v v v v v v v v Y Q R R c + # v v v v S n v v v v v v v v v v v v v v v v v v v v v v v v v v v v v v v ",
"6 r T.R.R.R.R.R.L.w 7 7 7 7 7 7 7 7 , v v v v v v v v v v v v v S c # c c v v v v v v v v v v v v v v v v v v v v v v v v v v v v v v v v v v v v v v ",
"7 u R.R.R.R.R.R.L.7 7 7 7 7 7 7 7 7 : v v v v v v v v v v v v v S v v v v v v v v v v v v v v v v v v v v v v v v v v v v v v v v v v v v v v v v v v ",
"7 u R.R.R.R.R.R.L.e 7 7 7 7 7 7 7 7 : v v v v v v v v v v v v v v v v v v v v v v v v v v v v m v v v v v v v v v v v v v v v v v v v v v v v v v v v ",
"7 u R.R.R.R.R.R.L.e e 6 7 7 7 7 7 7 : v v v v v v v v v v v v v v v v v v v v v v v v v v v n M n v v v v v v v v v v v v v v v v v v v v v v v v v v ",
"6 u R.R.R.R.R.R.L.w 7 7 7 7 7 7 7 7 : v v v v v v v v v v v v v v v v v v v v v v v v m M C Z Z Z C C n v v v n v v v v v v v v v v v v v v v v v v v ",
"6 u R.R.R.R.R.R.L.w w w 7 7 7 7 7 7 , v v v v v v v v v v v v v v v v v v n v v v v v C >.4.9.7.4.2.>.{ C C c n v v v v v v v v v v v v v v v v v v v ",
"6 t R.R.R.R.R.R.L.e w w 7 7 7 e 7 7 : m v v v v v v v v v v v v v v v v v v v v v m C >.9.0.9.4.2.4.4.2.Z Z # # v v v v v v v v v v v v v v v v v v v ",
"6 r R.R.R.R.R.R.L.7 w 6 7 7 7 7 6 6 : v v v v v v v v v v v v v v v v v v v v v m C 2.0.9.>.} Z { { { } Z { - . @ v v v v v v v v v v v v v v v v v v ",
"6 r R.R.R.R.R.R.L.8 6 w 7 7 7 7 7 6 2 v v v v v v v v v v v v v v v v v v v v v Z 4.0.7.>.Z { { { { { { { { - . + v v v v v v v v v v v v v v v v v v ",
"6 t R.R.R.R.R.R.L.7 7 7 7 7 7 7 7 7 , v v v v v v v v v v v v v v v v v v v v C >.0.0.>.{ { { { { { { { { { = . + v v v v v v v v v v v v v v v v v v ",
"6 r R.R.R.R.R.R.P.7 7 7 7 7 7 7 7 7 2 v v v v v v v v v v v v v v v v v v v v A 0.0.9.} { { { { { { { { { { = . + v v v v v v v v v v v v v v v v v v ",
"7 r R.R.R.R.R.R.P.7 7 7 7 7 7 7 7 7 , m v v v v v v v v v v v v v v v v v v n 1.0.0.4.{ { { { { { { { Z { { = . + v v v v v n c @ o # v v v v v v v v ",
"7 t T.R.R.R.R.R.P.7 7 7 7 7 7 7 7 7 , v v v v v v v v v v v v v v v v v v v n 1.0.0.2.{ { Z { { { { { { { { = . + v v v v #.5.E.-.; X o c v v v v v v ",
"6 r R.R.R.R.R.R.L.7 7 7 6 e 7 7 6 6 2 v v v v v v v v v v v v v v v v v v v n 1.0.0.4.Z { { { { { Z { { { Z = . + v v U 5. X*X-X=X`.+.X X z v v v v v ",
"7 r R.R.R.R.R.R.P.7 7 7 7 7 7 7 e 6 , v v v v v v v v v v v v v v v v v v v v A 0.).4.Z { { { { { { { { { { = X + v U ).-X<X1X<X,X=X'.-.o X v v v v v ",
"7 u R.R.R.R.R.R.L.7 7 7 7 7 7 7 6 7 , v v v v v v v v v v v v v v v v v v v n Z 9.0.9.A { { { { { { { { { { = . + v 5.>X1X>X&X|.'.&X'.`.3 X c v v v v ",
"6 r R.R.R.R.R.R.L.e 7 7 7 7 7 7 7 7 , v v v v v v v v v v v v v v v v v v v v B 2.0.0.} Z { { { { { { { { { = . + C oX1X>X X`.'.`.`.`.`.+.. z v v v v ",
"7 r R.R.R.R.R.R.T.7 7 7 7 7 7 7 7 7 , v v v v v v v v v v v v v v v v v v v v n } 9.0.} { { { { { Z { { { Z = . + >.=X1X*X`.`.`.`.`.`.`.$.X z v v v v ",
"7 u R.R.R.R.R.R.P.7 7 7 7 7 7 7 7 7 , v v v v v v v v v v v v v v v v v v v v n Z 9.0.>.{ { { { { { { { { { = . @ 4.-X<X X'.`.`.`.`.`.`.$.X c v v v v ",
"6 r R.R.R.R.R.R.P.7 7 7 7 7 7 7 7 7 2 v v v v v v v v v v v v S v v v v v v v v C >.0.2.{ { { Z { { { { { { =   @ 8.-X,X'.`.`.`.`.`.`.`.$.. z v v v v ",
"7 u T.R.R.R.R.R.P.7 7 7 7 7 7 7 7 6 , v v v v v v v v v v v v v v v v v v v v v M A 8.2.{ { { { { { Z } { { =   + ).-X>X'.`.`.`.`.`.`.`.$.X z v v v v ",
"7 t R.R.R.R.R.R.L.7 7 7 7 7 7 7 7 w , v 3 ; v v v v v v H R E E R F v v v v v v v C >.>.{ { { { { { { { { { -   + 8.-X<X X`.`.`.`.`.`.'.$.. c v v v v ",
"6 r R.R.R.R.R.R.L.e 7 7 7 7 7 7 7 7 : b a b v v v v H f.N.V.V.N.B.b.D X # v v v v M { { { { { { Z { { { { { = . + 2.=X1X&X`.`.`.`.`.`.`.+.. c v v v v ",
"6 e R.R.R.R.R.R.L.e 7 7 7 7 7 7 w 7 , > 0 v v v v M f.C.C.B.B.B.B.V.M.4 . # v v v v Z { { { Z Z { { { { { V O . + T  X<X=X`.`.`.`.`.`.`.+.X c v v v v ",
"6 u R.R.R.R.R.R.L.e 7 7 7 7 e 7 6 6 9 6 2 v v v v e.C.C.V.V.B.V.B.B.V.v.@ . z m v v M M c = = = - @ = @ @ O . X z M ).-X-X`.`.`.`.`.`.`.V X v v v v v ",
"7 u R.R.R.R.R.R.L.w 6 6 7 7 7 7 7 7 7 8 b S v v S f.C.V.B.B.n.p.p.M.B.V.s.$ X c v v v v v c # z z z z z z z z c v v A oX>X'.`.`.`.`.`._.= # v v v v v ",
"7 u R.R.R.R.R.R.L.w r 7 7 7 7 7 7 7 w 0 n S v v S v.C.M.p.l t g n.V.B.B.B.v.5 o # S v v v v v v v v v v v v v v v v v 4.=X*X`.`.`.`._.+.# v v v v v v ",
"7 u R.R.R.R.R.R.L.w r K.7 7 7 7 7 7 7 , v v v v b @.l i 7 7 g n.B.B.B.B.V.V.B.w.X + v v v v v v v v v v v v v v v v v M ). X X`.'._.$.c v v v v v v v ",
"6 u R.R.R.R.R.R.L.w e I.e 7 7 7 7 7 7 3 v b ; , 0 8 7 7 7 g n.B.B.B.B.B.B.B.V.M.% . @ v v v v v v v v v v v v v v v v v U 8. X X).#.c v v v v v v v v ",
"7 r R.R.R.R.R.R.L.7 7 T.L.7 7 7 7 7 9 ; > 9 w w 7 7 7 w g n.B.B.B.B.B.B.B.B.B.M.5 . o S v v v v v v v v S v v v v m m m m m A #.M m v v v v v v v v v ",
"7 t R.R.R.R.R.R.L.7 7 L.R.u 7 7 7 7 0 9 7 w w w e r K.h n.B.B.B.B.B.B.B.B.V.B.B.4   @ S v v v v v v m m J r.y.u.) u.u.) ) ~ ! G v m v v v v v v v v v ",
"6 r T.R.R.R.R.R.L.7 7 u R.P.r 6 7 7 7 7 7 7 e K.P.I.h n.B.B.B.B.B.B.B.B.B.V.V.s.o . # m v v v m J ^ h.S.G.J.J.G.G.G.F.F.F.F.Z.g.) ~ J m v v v v v v v ",
"6 u R.R.R.R.R.R.L.7 7 u R.R.u 6 7 7 7 7 r K.I.R.L.g m.C.B.B.B.B.B.B.B.B.B.V.V.q.. X c v v v Y g.F.H.H.D.A.u.u.u.y.r.u.u.u.g.u.u.u.r.r.~ z v v v v v v ",
"7 t T.R.R.R.R.R.L.w w e R.R.I.e 6 e u P.R.R.R.u 9 i.C.C.B.B.B.B.B.B.B.B.B.V.v.$   @ S v v m Z.J.J.A.u.r.r.^ r.r.r.r.r.r.r.r.^ r.r.r.r.r.x @ S v v v v ",
"6 r R.R.R.R.R.R.L.e w e T.R.R.r K.I.R.R.R.T.u 9 P d.C.C.B.B.B.B.B.B.B.B.V.M.q.  X c v v v H A.2XD.^ r.r.r.r.r.r.r.r.r.r.r.r.r.r.r.r.r.r.r.% # v v v v ",
"6 r R.R.R.R.R.R.L.e 7 7 u T.T.K.R.R.R.R.P.e 9 ; v d.C.V.B.B.B.B.B.B.B.B.V.s.X X # v v v v m A.2XA.r.r.r.r.r.r.r.r.r.r.r.r.r.r.r.r.r.r.r.^ L o z v v v ",
"7 u R.R.R.R.R.R.L.7 7 7 7 r K.u P.T.R.K.e 8 3 m v d.J.B.B.B.B.B.B.B.B.B.M.4   o v v v v m m Z.2XA.r.r.r.r.r.r.r.r.r.r.r.r.r.r.r.r.r.r.r.r.^ % o v v v ",
"6 u R.R.R.R.R.R.L.e 7 7 7 7 u u e e r 6 6 7 0 3 v t.C.C.B.B.B.B.B.B.B.B.w.X X z v v v v v v Z.J.A.r.r.r.r.r.r.r.r.r.r.r.r.r.r.r.r.r.r.r.r.r.S . # z m ",
"7 u R.R.R.R.R.R.L.7 7 7 7 7 P.R.I.u e 7 7 7 w q > R V.C.V.B.B.B.B.B.V.s.X . # v v v v v v v Z.2Xh.^ r.r.r.r.r.r.r.r.r.r.r.r.r.r.r.r.r.r.r.r.S . # v m ",
"7 u R.R.R.R.R.R.P.7 7 7 7 e T.R.R.R.K.7 7 7 7 7 6 9 @.N.C.C.B.B.V.V.f.$ . @ v v v v v v v G A.H.u.r.r.r.r.r.r.r.^ r.r.r.r.r.^ r.r.r.r.r.r.~ @ . + v v ",
"7 e R.R.R.R.R.R.P.7 7 6 6 e P.R.R.R.R.K.e e 7 7 6 8 8 d @.f.f.s.e.q.$ X # v v v v v v v v H u.Z.r.r.r.~ ! L L L ! ^ ^ r.r.r.y.^ r.r.r.! K @ . . z v v ",
"7 u R.R.R.R.R.R.P.7 7 7 7 7 K.R.R.R.R.R.T.L.u e 6 7 w 6 8 2 n v c c c v v v v v v v v v v v ! ~ S % @ o X o o o o + % x S K K K x % @ o o . o # v v v ",
"7 u T.R.R.R.R.R.P.7 7 7 7 7 8 K.K.L.Y.Y.Y.Y.U.T.K.p r e 7 7 9 3 v v m v v v v v v v v v v v v v % X + @ # z z v z v z z # + + o o o + % z z v v v v v ",
"6 u R.R.R.R.R.R.L.7 7 7 7 7 7 7 7 7 , n b P P P I f f f > > > , b v v m v v v v v v m v v v v v v v S S v v v v v v S v v v v v G z x G m z S G v v m "
};
