/* XPM */
static char *result[] = {
/* columns rows colors chars-per-pixel */
"75 75 198 2 ",
"   c #5F2E08",
".  c #5D3609",
"X  c #612F09",
"o  c #65310A",
"O  c #6B350B",
"+  c #643809",
"@  c #6E3B0E",
"#  c #71370C",
"$  c #74390C",
"%  c #7C3D0D",
"&  c #673410",
"*  c #6C3912",
"=  c #6C3816",
"-  c #7A3C11",
";  c #723E1E",
":  c #73400F",
">  c #7E4E0E",
",  c #6E570C",
"<  c #645D0B",
"1  c #6D580C",
"2  c #74530D",
"3  c #7A520E",
"4  c #70580D",
"5  c #764213",
"6  c #7B4314",
"7  c #7E4B13",
"8  c #7B4519",
"9  c #456F07",
"0  c #4B6508",
"q  c #476F08",
"w  c #4A6D08",
"e  c #55650A",
"r  c #5C630A",
"t  c #526909",
"y  c #477008",
"u  c #497109",
"i  c #4F780D",
"p  c #53720C",
"a  c #5A720F",
"s  c #517A0F",
"d  c #5D7710",
"f  c #537D11",
"g  c #5A7B12",
"h  c #60600B",
"j  c #61720F",
"k  c #6E6F12",
"l  c #746B13",
"z  c #647210",
"x  c #697614",
"c  c #777417",
"v  c #7E482A",
"b  c #823F0E",
"n  c #86420E",
"m  c #8C450F",
"M  c #834A0E",
"N  c #8A480F",
"B  c #90470F",
"V  c #90480F",
"C  c #834513",
"Z  c #8C4613",
"A  c #8D4A15",
"S  c #844B19",
"D  c #884C1A",
"F  c #904712",
"G  c #934B13",
"H  c #9B4E16",
"J  c #924B1D",
"K  c #9E4E1C",
"L  c #855216",
"P  c #8E5919",
"I  c #945116",
"U  c #9B5317",
"Y  c #94521A",
"T  c #9B561A",
"R  c #915C1A",
"E  c #9F591B",
"W  c #A14F1D",
"Q  c #A25617",
"!  c #A4531C",
"~  c #AB541F",
"^  c #A25A1B",
"/  c #AA5D1C",
"(  c #B35A1F",
")  c #96621B",
"_  c #9E6A1E",
"`  c #817219",
"'  c #88731B",
"]  c #97741D",
"[  c #AE611D",
"{  c #A7691E",
"}  c #B1621D",
"|  c #A8741F",
" . c #924E22",
".. c #955620",
"X. c #9C5B24",
"o. c #95532C",
"O. c #945D2B",
"+. c #834D34",
"@. c #965632",
"#. c #985735",
"$. c #9A5B3C",
"%. c #AC5520",
"&. c #A05E26",
"*. c #B35C24",
"=. c #B85E24",
"-. c #B65E28",
";. c #99612E",
":. c #9F7520",
">. c #9C6430",
",. c #AC6422",
"<. c #A4632B",
"1. c #BB632B",
"2. c #B56828",
"3. c #B36C2C",
"4. c #A47222",
"5. c #AB7623",
"6. c #AF7A24",
"7. c #B47424",
"8. c #B17A25",
"9. c #B8772B",
"0. c #A76D36",
"q. c #AC723B",
"w. c #B77030",
"e. c #BD7432",
"r. c #B2773E",
"t. c #C1732F",
"y. c #C56C32",
"u. c #C96D32",
"i. c #C47632",
"p. c #C77C37",
"a. c #CC7D36",
"s. c #CD743A",
"d. c #CC7D3A",
"f. c #D1793A",
"g. c #D4793E",
"h. c #8E5741",
"j. c #8F5843",
"k. c #975C42",
"l. c #965E4B",
"z. c #9D6244",
"x. c #9C624D",
"c. c #9B6752",
"v. c #9C6853",
"b. c #A0654E",
"n. c #A1684E",
"m. c #B57A42",
"M. c #B97F47",
"N. c #A06650",
"B. c #A26B54",
"V. c #A26F58",
"C. c #A5745B",
"Z. c #A8785F",
"A. c #A77960",
"S. c #AA7C63",
"D. c #D67C41",
"F. c #D97F43",
"G. c #568113",
"H. c #5B8616",
"J. c #5D8917",
"K. c #5E8B19",
"L. c #618D1A",
"P. c #79891F",
"I. c #65921D",
"U. c #84821D",
"Y. c #89841F",
"T. c #998B24",
"R. c #B68328",
"E. c #BD852B",
"W. c #B3932E",
"Q. c #C2852C",
"!. c #C58E2F",
"~. c #C58A30",
"^. c #CE8139",
"/. c #D4843B",
"(. c #D8873D",
"). c #D7883E",
"_. c #D9893F",
"`. c #C69233",
"'. c #CB9434",
"]. c #CC9A35",
"[. c #D19636",
"{. c #D19937",
"}. c #D59E39",
"|. c #D99F3A",
" X c #D6A03A",
".X c #DAA23B",
"XX c #BC834C",
"oX c #AB8066",
"OX c #D68042",
"+X c #DA8044",
"@X c #DB8C43",
"#X c #DF924A",
"$X c #C38B55",
"%X c #E18E42",
"&X c #E49245",
"*X c #E2964D",
"=X c #E29750",
"-X c #E39952",
/* pixels */
"m m m m m m m m m Z m m m m m m m m m m m m m m m m m m m m m m m m m m m m m m m m m m m m m m m m m m m m m B , 9 y y y q u s q u H.I.I.I.I.I.I.s q ",
"m m m m m m m m m m m m m m m m m m m m m m m m m m m m m m m m m m m m m m m m m m m m m m m m m m m m m m m m , 9 y y y q s s q y H.I.I.I.I.I.I.p q ",
"m m m m m m m m m m m m m m m m m m m m m m m m m m m m m m m m m m m m U ^ I m B m Z Z m m m m m m m m m m m m , w 9 9 y y H.s q y J.I.I.I.I.I.I.i q ",
"m m m m m m m m m m m m m m m m m m m m m m m m m m m m m m m m m m m 7.[.}.[.Q.{ T G G G F m m m m m m m m m m , w w 9 u s L.s q y J.I.I.I.I.I.I.p q ",
"m m m m m m m m m m m m m m m m m m m m m m m m m m m m m m m m m $ S `..X.X.X.X.X'.~.~.~.9.7.,.T B B m m m m m 1 q y p L.I.L.u q y H.I.I.I.I.I.L.i q ",
"m m m m m m m m m m m m m m m m m m m m m m m m m m m m m m m m % X @ 4.R.!.[..X.X.X.X|.|..X.X.X{.Q.{ I m m M > 1 q y H.I.I.s q q u H.I.I.I.I.I.I.i q ",
"m m m m m m m m m m m m m m m m m m m m m m m m m m m m m m m m %   o ) 5.5.6.R.E.'.].|. X X.X.X.X.X.XQ.R h p d g i u s s s u q q y J.I.I.I.I.I.I.i 9 ",
"m m m m m m m m m m m m m m m m m m m m m m m m m m m m m m m B % X   L 5.5.5.5.5.5.5.R.E.!.`.].}..X XT.p i L.I.I.K.s s s q q q y y J.I.I.I.I.I.L.s y ",
"m m m m m m B b m m Z Z m Z m Z F m m m m m m m m m m m m m m V n X X : 5.5.5.5.5.5.5.5.4.6.5.6.R.!.Y.u G.I.I.I.K.i y J.I.H.s q y y J.I.I.I.I.I.I.i q ",
"m m m B m b % O o o # S J  .@.@.@.o. .Z m m m m m m m m m m m m m o X @ _ 5.5.5.5.5.5.5.5.5.5.5.5.c i H.I.I.L.G.u 9 y K.I.I.L.y y y J.I.I.I.I.I.I.p q ",
"m m m b % X X X o 8 v j.l.x.x.b.N.V.b.o.m m m m m m m m m m m m m O X X ) 5.5.5.5.5.5.5.5.5.5.5.c p J.I.I.H.i 9 y y y J.I.I.I.f 9 y J.I.I.I.I.I.I.i q ",
"m m m $ X X & +.h.l.l.l.x.b.b.N.S.S.b.o.m m m m m m m m m Z m m m $ X X L 5.5.5.5.5.5.5.5.5.5.] p J.I.L.s q q q y y q f I.I.I.G.w w J.I.I.I.I.I.L.i q ",
"m m % X X = h.l.l.l.l.l.l.x.b.C.oXV.#.F m m m m m m m m m m m m m % X X $ 4.5.5.5.5.5.5.5.5.| d G.L.G.u 9 9 9 9 q q q i L.I.I.H.q u H.I.I.I.I.I.I.i 9 ",
"m m o X = k.l.l.l.l.l.l.l.l.N.Z.Z.k.G m m m m m m m m m m m m m m b o X + { 5.5.5.5.5.5.5.4.c s H.i 9 y d c l t q q q y H.I.I.H.q y H.I.I.I.I.I.L.s y ",
"m % X X +.l.l.l.l.l.l.l.l.l.B.S.n.J m m m m m m m m m m m m m m m n o X o R 5.5.5.5.5.5.5.' s i i j Y.W.].R.k q q q q q f I.I.G.q y J.I.I.I.I.I.I.i q ",
"m # X ; l.l.l.l.l.l.l.l.l.b.Z.Z.O.m m m m m m m m m m m m m m m m m o X   7 5.5.5.5.5.5.:.z k ` ] 6.}. X].x q < < q q q y L.I.G.y y H.I.I.I.I.I.L.s q ",
"b O X +.l.l.l.l.l.l.l.l.l.V.S.k.Z m m m m m m m m m m m m m m m m m # X X $ 4.5.5.5.5.5.4.] 5.5.5.8.[. XU.t 4 N 1 w 9 y w G.I.G.q y J.I.I.I.I.I.I.p 9 ",
"b X & h.l.l.l.l.l.l.l.l.x.A.V. .m m m m m m m m m m m m m m m m m m $ X X X 6 | 6.5.5.5.6.5.5.5.5.5.E.W.U.| U m 1 9 9 y y s L.G.y y H.I.I.I.I.I.I.s 9 ",
"b X ; l.l.l.l.l.l.l.l.l.C.S.$.Z m m m m m m m m m m m m m m m m m B 6 X o X X : _ 5.5.5.5.5.5.5.5.5.6.R.!.7.B m 1 9 w y 9 y J.G.9 y J.I.I.I.I.I.I.i y ",
"b O ; k.l.l.l.l.l.l.l.c.S.C...Z m m m m m m m m m m m m m m m m m m n O X X X X @ ) 5.5.5.5.5.5.5.5.5.6.Q.| m m 1 w 9 w w 9 G.i w w J.I.I.I.I.I.L.s q ",
"m o ; l.l.l.l.l.l.l.l.C.S.z.Z m m m m m m m m m m m m m m m m m m m m m $ o X X X O P 5.5.5.5.5.5.5.5.5.Q.{ m m 1 q q q 9 y i i q u H.I.I.I.I.I.I.s q ",
"m O = l.x.l.l.l.l.l.v.S.C.o.m m m m m m m m m m m m m m m m m m m m m m m b O o X X o L 4.5.5.5.5.5.5.6.8.U m B 1 q q y w y 9 u q y H.I.I.I.I.I.L.i y ",
"m % & h.l.c.l.l.l.x.S.S.b.A m m m m m m m m m m m m m m m m m m m m m m m m m $ o X o X 7 4.5.5.5.5.5.6.7.V B m , y y q y y 9 w q y L.I.I.I.I.I.I.i 9 ",
"m b = +.l.V.V.c.v.Z.S.Z.o.m Z n % % % m m m m m m m m m m m m m m m m m m m m m n O     o 8 4.5.5.5.5.8.{ B m m , q y y y 9 u 9 q y H.I.I.I.I.I.I.p 9 ",
"m m b v x.c.Z.S.S.S.Z.z.A n $ O X o 6 X.X.F m m m m m m m m m m m m m m m m m m % S 6 X X X L 5.5.5.| 7.H m m m , y y q q q q y y y J.I.I.I.I.I.I.p q ",
"m m m Z k.x.x.B.B.x.$.J n O X X 6 ;.q.m.r.<.m m m m m m m m m m m m m m m m m $ O w./.3.S O o R 5.5.6.) m m m m , y q q q q q q y y H.I.I.I.I.I.L.s q ",
"m m m m J #.k.$.@.J m m O   + O.q.m.r.r.m.r.Y m m m m m m m m m m m m m m m % X # p.).).%Xi.6 o ) | I m m m m m 1 y q q q q q q y y J.I.I.I.I.I.I.i q ",
"m m m m m Z F m m m m $ X & O.m.r.r.r.r.XXM.X.m m m m m m m m m m m m m m m $   6 /.).@X*X&Xi.O o @ $ m m m m B , y q q q y q q 9 w J.I.I.I.I.I.I.i q ",
"m m m m m m m m m m n o   D r.r.r.r.r.r.XXXXT m m m m m m m m m m m m m m m O   D (.).#X=X&X(.C   o m m m m m m , q q q q y q q y y J.I.I.I.I.I.L.i 9 ",
"m m m m m m m m m m %   * 0.r.r.r.r.r.r.XXm.F m m m m m m m m m m m m m m n o   ..).).*X=X%X(.G 6 m m m m m m m , y q q q q q q y y J.I.I.I.I.I.I.i y ",
"m m m m m m m m m m O   D m.r.r.r.r.r.r.XXq.Z m m m m m m m m m m m m m m b o X <.).).*X*X%Xa.V m m m m m m m m , y q q q q q q y y K.I.I.I.I.I.I.p y ",
"m m m m m m m m m m O o ;.m.r.r.r.r.r.XX$X0.m m m m m m m m m m m m m m m $ X o 3.(.@X*X*X%X} m m m m m m m m B , y y q q q q y 9 y H.I.I.I.I.I.L.s q ",
"m m m m m m m m m n O o 0.r.r.r.r.m.m.$XXXT m m m m m m m m m m m m m m m O X $ Q.@XOX=X=X^.I m m m m m m m m m 4 q q q q q q q q y H.I.I.I.I.I.I.p y ",
"m m m m m m m m m m o * q.r.r.r.r.m.XX$Xm.F m m m m m m m m m m m m m m $ o   Y ).).@X=X-Xi.m m m m m m m m m B , q q q q q q q q u H.I.I.I.I.I.I.s y ",
"m m m m m m m m m m O * q.q.r.r.r.XX$X$X<.m m m m m m m m m m m m m m % o   # e.).).@X-X-X^.m m m m m m m m m m , q q q q q q y q y J.I.I.I.I.I.I.p q ",
"m m m m m m m m m m # @ q.r.r.m.XX$X$Xm.G m m m m m m m m m m m m % O o O D e.).).OX@X-X*X/.G m m m m m m m m m , q q q q q q q y y J.I.I.I.I.I.I.s q ",
"m m m m m m m m m m % O >.m.m.XX$X$X$XX.m m m m m m m m m m n % O o 5 ..e./.@X/.).).@X-X-Xa.F m m m m m m m m m , q y q y q q q q u H.I.I.I.I.I.L.i 9 ",
"m m m m m m m m m m m O 8 q.XX$X$XXX0.G m m m m m m m m 6 O o $ ..w.^.).).).).).).OX@X-X-Xa.F m m m m m m m m B , q q q q q y q q y H.I.I.I.I.I.I.i 9 ",
"m m m m m m m m m m m n # 8 m.$Xm.<.G Z m m m m m m n O X $ <.^.).).).).).).).).(.(.%X-X-Xt.m m m m m m m m m m 1 y q q q q q q q y L.I.I.I.I.I.I.i 9 ",
"m m m m m m m m m m m m m n A &.Y m m Z m m m m m m % X   <.).).).).).).).).).).(.@X*X-X-X,.m m m m m m m m m m , y q q y q q q y w H.I.I.I.I.I.L.s w ",
"m m m m m m m m m m m m m m m m m m m m m m m m m m n o   D /.).).).).)._.%X%X&X%X&X-X-X@XU m m m m m m m m m B , y y q q q q y q y H.I.I.I.I.I.L.i q ",
"m m m m m m m m m m m m m m m m m m m m m m m m m m n O X $ d.).).).(.@X&X&X&X&X*X=X-X-Xe.m m m m m m m m m m m , y q q q q q q q y J.I.I.I.I.I.L.s q ",
"m m m m m m m m m m m m m m m m m m m m m m m m m m m O X + e.).).).).@X&X*X*X*X*X*X*Xa.G m N N m m m m m m m m , y y q q q q q q y L.I.I.I.I.I.I.s q ",
"m m m m m m m m m m m m m m m m m m m m m m m m m m m $ X X <.@X).).).@X@X#X@X_.).a.2.F m m N 2 m m m m m m m m , y q q q y q q q y H.I.I.I.I.I.I.p q ",
"m m m m m m m m m m m m m m m m m m m m m m m m m m m % o X D (.).)._._./.i.,.! U F m m m m m , r 3 m m m m m B , q q q q y q q q y H.I.I.I.I.I.I.i q ",
"m m m m m m m m m m m m m m m m m m m m m m m m m m m n O o # 3.^.^.i.,.U B m m m m m m m m m N e 0 1 m m m m m , y q q q q q q y y H.I.I.I.I.I.I.i q ",
"m Z m m m m m m m m m m m m m m m m m m m m m m m m m m m n m m G G B m B m m m m m m m m m m m 1 y y r 3 m m m , y q q q q q q q y J.I.I.I.I.I.L.i q ",
"m m m m m m m m m m m m m m m m m m m m m m m m m m m m m m m m m m m m m m m m m m m m m m m m M t 9 9 a 3 m B , y y q q q q y q y H.I.I.I.I.I.I.i q ",
"m m m m m m m m m m m m m m m m m m m m m m m m m m m m m m m m m m m m m m m m m m m m m m m m m < q y u g 3 m 1 q q q q q q q q y H.I.I.I.I.I.I.s q ",
"m m m m m m m m m m m m m m m m m m m m m m m m m m m m m m m m m m m m m m m m m m m m m m m m m M t q y H.a M , q q q y q q q q q H.I.I.I.I.I.I.s q ",
"m m m m m m m m m m m m m m V m m m m m m m Z m m m m m m m m m m m m m m m m m m m m m m m m m m m < 9 q s G.1 1 q q q q q y q q q L.I.I.I.I.I.L.i w ",
"m m m m m m m m m m m m m m m m m m m m m m m m m m m m m m m m m m m m Z m N M 1 1 1 1 2 M Z Z m m > w q i L.a < q q q y q q q i u H.I.I.I.I.I.L.s q ",
"m m m m m m m m m m m m m m m m m B m m m m m m m m m m m m m m m m m m m m 1 w s G.G.i u w r < > N m h q 9 L.H.r q q q q q q y f u H.I.I.I.I.I.I.s q ",
"m m m m m m m m m m m m m m m m m m m m m m m m m m m m m m m m m m m m m m 2 t y i H.L.L.H.f u q e 1 , q y H.I.s q q y q q q i H.u H.I.I.I.I.I.L.s q ",
"m m m m m m m m m m m m m m m m m m m m m m m m m m m m m m m m m m m m m m m N 1 w 9 i H.L.I.L.G.i y 0 q q H.I.f q q q q y q f H.q L.I.I.I.I.I.I.p y ",
"m m m m m m m m m m m m m m m m m m m m m m m m m m m m m m m m m m m m m m m m m M h q q i H.I.I.L.H.i q q H.I.H.q q q q y y K.f q H.I.I.I.I.I.L.s q ",
"m m m m m m m m m m m m m m m m m m m m m m m m m m m m m m m m m m m m m m m m m m m > e w q f L.I.I.I.f q K.I.L.y q q q q H.L.s q H.I.I.I.I.I.I.i 9 ",
"m m m m m m m m m m m m m m m m m m m m m m m m m m m m m m m F m m m m m m m m m m m B m , t 0 e x I.I.H.u f I.L.i q q y H.I.J.u y H.I.I.I.I.I.I.p 9 ",
"m m m m m m m m m m m m m m m m m m m m m m m m m m B m B m Z b n b % % b b n n b Z m b % $ o . X = c P.I.f q K.I.s y s K.I.I.s y y J.I.I.I.I.I.L.i 9 ",
"m m m m m m m m m m m m m m m m m m m m m m m m m m F b b % # & o o # - - - - $ $ O O O O O - Z J %.,.4.P.K.i s L.g s I.I.I.H.y y y J.I.I.I.I.I.I.i 9 ",
"m m m m m m m m m m m m m m m m m m m m m m m m m B b % X X # b Z K ! ~ %.~ ~ W W W W W  .%.%.%.%.%.w.s.c s f i H.G.G.I.I.L.y q y y H.I.I.I.I.I.I.i q ",
"m m m m m m m m m m m m m m m m m m m m m m m m m b # X O F W %.%.%.%.%.%.%.%.%.%.%.%.%.%.%.%.%.%.%.s.D.k q y y i f f H.G.s q q q y H.I.I.I.I.I.I.i q ",
"m m m m b % % : n G m m m m m m F m m m m m m m B b X X J %.%.%.%.%.%.%.%.%.%.%.%.%.%.%.%.%.%.%.%.*.D.D.l y q q q q q q q y q q q y H.I.I.I.I.I.I.i 9 ",
"m m m $ @ C I T T ^ ^ V m m N n b b m m m m m B B b o O W %.%.%.%.%.%.%.%.%.%.%.%.%.%.%.%.%.%.%.%.2.OXOX` q q q q q f s y q q q y y H.I.I.I.I.I.I.p 9 ",
"m m % O A E ^ E T ^ [ T m $ $ C D I T G m m m m m m # o ! ~ %.%.~ %.%.%.%.%.%.%.%.%.%.%.%.%.%.%.%.1.F.+X' q q q q q s L.H.y q q q u J.I.I.I.I.I.I.i q ",
"m m O % E E E E E ^ ^ [ % $ I ^ ^ T ^ / G m m m m m n o Z ~ %.%.%.%.%.%.%.%.%.%.%.%.%.%.%.%.%.%.%.y.+XF.4.e e q y q i L.I.G.u q q q J.I.I.I.I.I.I.i q ",
"m m O n E E E E ^ T ^ } $ L T T E E ^ / Q m m m m m m % # W %.%.%.%.%.%.%.%.%.%.%.%.%.%.%.%.~ %.1.D.F.F.1.3 w q q q q f I.I.s q q q H.I.I.I.I.I.I.i q ",
"m m # 6 E E E E T ^ / / $ I ^ ^ E T T [ / m m m m m m m % - ! %.%.%.%.~ %.~ ~ %.%.%.~ %.%.*.1.s.F.F.D.u.E h q q y y w y G.I.L.u q u H.I.I.I.I.I.I.p q ",
"m m 6 $ T E T ^ E E [ ^ @ I ^ E E E T [ Q m m m m m m m Z $ b %.%.%.( %.*.-.=.=.-.-.y.y.s.g.D.+Xf.y.*.H 1 q q q w q q q u G.I.f q y J.I.I.I.I.I.L.s q ",
"m m n O Y ^ E E E T } T $ C E E E E ^ [ I m m m m m m m m m m K ~ ( y.y.s.s.g.g.g.g.D.g.g.s.y.=.! F m 2 q q q r < q q q q u G.L.u y H.I.I.I.I.I.I.i q ",
"m m n O D E E E T [ } G % $ T ^ E E [ / V m m m m m m m m m m m B G W ! ~ *.=.=.=.=.*.~ ! H F B m m N t 9 q r C 4 q q q q q y G.p 9 H.I.I.I.I.I.I.i q ",
"m m m @ N ^ E ^ ^ [ / m n # T T E ^ [ E m B m m m m m m m m m m m m m m m m F F F B m m m m m m m m h y t 1 N Z , q q q q q q u i y L.I.I.I.I.I.L.i q ",
"m m m m m T / Q Q Q G m m n I / / ^ ^ G m m m m m m m m m m m m m m m m m m m m m m m m m m m m m 4 r , N m m m 1 q q q q q q q q y J.I.I.I.I.I.I.p 9 ",
"m m m m m m m m V m m m m m m V B F B m m m m m m m m m m m m m m m m m m m m m m m m m m m m m m M m m m m m m 1 q 9 9 q q q q q 9 H.I.I.I.I.I.I.s q ",
"m m m m m m m m m m m m m m m m m m m m m m m m m m m m m m m m m m m m m m m m m m m m m m m m m m m m m m m m , q q q w q q q q y J.I.I.I.I.I.I.s q "
};
