/* XPM */
static char *result[] = {
/* columns rows colors chars-per-pixel */
"75 75 179 2 ",
"   c #5F2E09",
".  c #612F09",
"X  c #643109",
"o  c #6B340B",
"O  c #6D3B0B",
"+  c #71370C",
"@  c #733A0D",
"#  c #7C3D0D",
"$  c #7B3C11",
"%  c #5E5C09",
"&  c #65470A",
"*  c #73410F",
"=  c #7E470E",
"-  c #7D4E0D",
";  c #6F550A",
":  c #645D0B",
">  c #6A5A0B",
",  c #74540D",
"<  c #7A510D",
"1  c #7D5B0A",
"2  c #754210",
"3  c #7B4511",
"4  c #7C4913",
"5  c #456E07",
"6  c #4B6508",
"7  c #476F08",
"8  c #4B6D08",
"9  c #546609",
"0  c #5B630A",
"q  c #526B09",
"w  c #5F680D",
"e  c #467008",
"r  c #4A730A",
"t  c #4F780E",
"y  c #52740C",
"u  c #517A0F",
"i  c #5C7A0E",
"p  c #537D11",
"a  c #6E6708",
"s  c #61690D",
"d  c #6A6909",
"f  c #746608",
"g  c #7B6509",
"h  c #7E680A",
"j  c #637A0E",
"k  c #6C7B0D",
"l  c #71770F",
"z  c #747E0F",
"x  c #607D11",
"c  c #823F0E",
"v  c #86420E",
"b  c #8C450F",
"n  c #834C0B",
"m  c #8C4B0E",
"M  c #90470F",
"N  c #90480F",
"B  c #83530D",
"V  c #91530B",
"C  c #955C0A",
"Z  c #985D0C",
"A  c #824213",
"S  c #8B4514",
"D  c #854C14",
"F  c #8E4C14",
"G  c #904711",
"H  c #934B13",
"J  c #9A4D15",
"K  c #914718",
"L  c #944919",
"P  c #9A4C1B",
"I  c #8C5517",
"U  c #885C10",
"Y  c #8D5919",
"T  c #955115",
"R  c #9B5316",
"E  c #9C5917",
"W  c #945218",
"Q  c #9B561A",
"!  c #9F591B",
"~  c #A04F1C",
"^  c #A05517",
"/  c #A4521C",
"(  c #AB551E",
")  c #A25A1B",
"_  c #AA5E1B",
"`  c #836509",
"'  c #8D6209",
"]  c #876C0D",
"[  c #8B690C",
"{  c #956008",
"}  c #9A640C",
"|  c #9F680E",
" . c #8E6411",
".. c #9E6313",
"X. c #986A16",
"o. c #96621D",
"O. c #867614",
"+. c #9B7214",
"@. c #A0690F",
"#. c #A46716",
"$. c #A36B11",
"%. c #AC611D",
"&. c #AB6B1E",
"*. c #B0621D",
"=. c #A77014",
"-. c #AC7316",
";. c #A37C15",
":. c #AB7A16",
">. c #AF7618",
",. c #B1751B",
"<. c #B57B1C",
"1. c #B87D1E",
"2. c #AC5520",
"3. c #B05721",
"4. c #B35B25",
"5. c #A26D20",
"6. c #B86026",
"7. c #BC642D",
"8. c #A67121",
"9. c #AB7623",
"0. c #AF7924",
"q. c #B47624",
"w. c #B37A25",
"e. c #B97D25",
"r. c #B67B28",
"t. c #BC7D2A",
"y. c #C1652B",
"u. c #C56A2F",
"i. c #C46B33",
"p. c #C96F34",
"a. c #CD7236",
"s. c #CD7339",
"d. c #D1753A",
"f. c #D4793E",
"g. c #D77D42",
"h. c #D97F43",
"j. c #568113",
"k. c #5A8515",
"l. c #5D8817",
"z. c #5E8A18",
"x. c #6E8414",
"c. c #618E1A",
"v. c #7E8210",
"b. c #65921D",
"n. c #898512",
"m. c #938913",
"M. c #AB8C17",
"N. c #AD8818",
"B. c #B58B19",
"V. c #A19118",
"C. c #B69519",
"Z. c #B99619",
"A. c #BB991A",
"S. c #BD8127",
"D. c #B68029",
"F. c #BB842B",
"G. c #B7A226",
"H. c #C29D1D",
"J. c #C3852D",
"K. c #C28A2E",
"L. c #C48B30",
"P. c #CA8E32",
"I. c #C69031",
"U. c #CD9334",
"Y. c #CF9836",
"T. c #D19736",
"R. c #D39A35",
"E. c #D69E39",
"W. c #D89F39",
"Q. c #C6A425",
"!. c #C8A827",
"~. c #CDAD2B",
"^. c #CFB12F",
"/. c #D7A03A",
"(. c #DAA23B",
"). c #CCB433",
"_. c #D8BA37",
"`. c #D9BC38",
"'. c #DB8145",
/* pixels */
"b b b b b b b b b b b b b b b b b b b b b b b b b b b b b b b b b b b b b b b b b b b m n S S b b b b b b b b S % e 7 7 7 7 7 7 7 7 l.b.b.b.b.b.c.r 7 ",
"b b b b b S b b b b b b b b b b b b b b b b b b b b b b b b b b b b b b b b b b b b b b : : , n m b b b b b b n 8 e 7 7 7 7 7 7 7 r c.b.b.b.b.b.z.7 7 ",
"b b b b c $ # c b M b b b b b b b b b b b b b b b b b b b b b b b c G b b b b b b b b b - 8 7 8 q % > n b b S > 7 7 7 7 7 7 7 7 7 r b.b.b.b.b.b.l.7 7 ",
"b b b @ O S W W ! ) J b b b b b b b b b b b b b b M b b b b b b b M M b b b b b b b b b v : 7 7 7 7 7 8 > S n 9 7 7 7 7 7 r 7 7 5 t b.b.b.b.b.b.p 7 7 ",
"b b # o W ) ) ! ) ) _ M b b b b b b b b b b b b b b b b b b b b b b b b M b b b b b b b b m 0 7 7 7 7 7 7 , ; 7 7 7 7 7 7 7 7 r r p b.b.b.b.b.b.p 7 7 ",
"b b o 3 ) ) ! ! ) ) _ ^ b b b b b b b b b b b b b b b b b b b b b b b b b b b b b b b b b b - 6 7 7 7 7 7 7 q 7 7 7 7 7 r u k.k.t p b.b.b.b.b.b.t 7 7 ",
"b b o D ! ! ! ! ! ! %.) b b b b b b M b b b b b b b b b b b b b b b b b b b b b b b b b b b b , 7 7 7 7 7 7 7 7 7 r u k.c.b.k.r 7 p b.b.b.b.b.b.t 7 7 ",
"b b + A ! ! ! ! ! ) *.R b b b b b b b b b b b b b b b b b b b b b b b b b b b b b b b b b b b m : 7 7 7 7 7 7 r k.c.b.b.c.p 7 7 5 k.b.b.b.b.b.c.r 7 7 ",
"b b = @ ! ! ! ! ! ) *.H b b b b b b b b b b b b b b b b b b b b b b b c m v m b b c b b m - > 0 8 e 7 7 7 7 7 u c.b.b.c.u 7 7 7 7 l.b.b.b.b.b.c.e 7 7 ",
"b b c o W ) ! ! ) _ _ b b b b b b b b b b b b b b b b b b b b b b c + + + O + o O & & : 0 8 7 7 r r 7 e e 7 7 k.b.b.l.r 7 7 7 7 7 z.b.b.b.b.b.z.e 7 7 ",
"b b v o F ! ) ) ) *.R b b b b b b b b b b b b b b b b b b b b b b o . o ; > % 9 6 5 5 5 e e y j.c.c.u p u 7 7 r y u r 7 7 7 7 7 e z.b.b.b.b.b.z.e 8 7 ",
"b b S # W ) ) ) _ _ H S b b b b b b b b b b b b b b b b b M b b b o   = f 8 5 e e r y y j.c.b.b.b.c.b.c.r r 7 7 7 7 7 7 7 7 7 7 8 c.b.b.b.b.b.l.e e 7 ",
"b b b b S H H H H N b b b b b b b b b b b b b b b b b b b b b b v o . n { g y t j.z.c.b.b.b.b.b.b.b.b.k.7 j.j.r 7 r 7 7 7 7 7 7 r z.b.b.b.b.b.l.r 7 7 ",
"b b S # @ 3 F H R N b b b b b b b M b b b b b b b b b b b b b b b o . n { { ' d y r t u j.c.c.c.c.c.k.7 r z.b.b.k.r 7 7 7 7 7 7 e c.b.b.b.b.b.l.8 e 7 ",
"b b # + H ! ! ! ) ^ b b b b b b b b b b b b b b b b b b b b b b v o . n { { { { ` d q 5 5 5 r r y y : 0 r c.b.b.b.z.r 7 7 7 7 7 r c.b.b.b.b.b.l.e 7 e ",
"b b o F ) ! ! ) ) *.J b b b b b b b b b b b b b b b b b b b b b b X . n { { { { { { ' ` g a l O.] B b % e k.b.b.b.b.k.7 7 r 7 7 e b.b.b.b.b.b.l.r e 8 ",
"b v o W ) ! ! ! ! %.R b b b b b b b b b b b b b b b b b b b b b m X . n { { { { { { { { { C $.e.-.C b 9 7 r k.b.b.b.c.y e e e 7 e b.b.b.b.b.b.l.8 7 7 ",
"b b @ F ! ! ! ! ) *.J b b b b b b b b b b b b b b b b b b b b b b X . n { { { { { { { { { C @.B.<.} B 8 7 e e k.b.b.b.c.r e 8 7 e c.b.b.b.b.b.l.e e 8 ",
"b b # A ) ! ! ! _ _ M b b b b b b b b b b b b b b b b b b b b b b X X n { { { { { { { { { { } ,.1.$.1 7 e 7 e r c.b.b.c.y 7 e e e b.b.b.b.b.b.z.e 7 e ",
"b b # @ ! ! ! ! %.^ b b b b b b b b b b b b b b b b b b b b b b b o X n { { { { { C { { { { } <.1.-.g 7 8 e e e u b.b.b.u 7 7 7 e b.b.b.b.b.b.z.e 7 e ",
"b b c @ Q ) ) ) *.J b b b b b b b b b b b b b b M b b b b b b b b X X n { { { { { { { { { { { >.1.>.` r 5 7 7 8 e c.b.b.j.e 7 7 r z.b.b.b.b.b.z.e e 7 ",
"b b b b H ) ) ^ R M b b b b b b b b b b b b b b M c b b b b b b b X X n { { { { { { { { { { { >.1.1.[ 8 7 7 5 e e u b.b.j.e 7 7 e z.b.b.b.b.b.c.r 8 7 ",
"b b b b b M b b b b b b b b b b b b b b b b M J J H H H J J H b m X X n { { { { { { { { { { { >.1.1.' 8 7 e 8 7 7 y b.b.k.7 7 7 e z.b.b.b.b.b.z.r 7 7 ",
"b b b b b b b b b b b b b b b M b b b b b M / u.s.p.p.a.a.s.i.~ b X . n { { { { { { { { { { } ,.<.>.h e 7 7 e 7 e r c.b.u 7 7 7 8 z.b.b.b.b.b.c.t 7 7 ",
"b b b b b b b b b b b b b b b b b b b b S S / y.d.h.h.'.g.h.h.4.m X . n { { { { { { { { { { $.<.<.=.d 7 7 7 7 7 7 7 k.b.u 7 7 7 7 l.b.b.b.b.b.c.r 7 e ",
"b b b b b b b b b b b b b b b b b b b b S + L 3.4.7.p.d.g.g.h.s.M o X n { { { { { { { { { { >.<.-.C q 7 7 7 7 7 7 7 u b.u 7 7 7 7 l.b.b.b.b.b.c.t 7 e ",
"b b b b b b b b b b b b b b b b b b b b c o c 2.2.2.2.2.4.i.g.g./ o . n { { { { { { { { { -.<.-.Z B 8 7 7 7 7 7 7 7 u c.y 7 e 7 7 l.b.b.b.b.b.b.t 7 8 ",
"b b b b b b b b b b b b b b b b b b b b c o $ ( 2.2.2.2.2.2.s.h.6.c o = { { @.| | } @.=.<.1.-.C b - 8 7 7 7 7 7 7 7 r z.r 7 7 7 8 p b.b.b.b.b.c.t 7 e ",
"b b b b b b b b b b b b b b b b b b b b b + + ( 2.2.2.2.2.2.7.h.u.N b v C C @.-.>.,.<.1.,.@.C b b - 8 7 7 7 7 7 7 7 7 k.r e e 7 7 p b.b.b.b.b.b.t 7 7 ",
"b b b b b b b b b b b b b b b b b b b b b # + / 2.2.2.2.2.2.4.g.a.J v b m m V { { } @.@.Z V b b b - 8 7 7 7 7 7 7 7 7 u r r 7 7 7 p b.b.b.b.b.b.p 7 7 ",
"b b b b b b b b b b b b b b b b b b M b b # o ~ 2.2.2.2.2.2.2.g.f.^ b b b b b m V V V N N b b b b - 8 r 7 7 7 7 7 7 7 r r 7 7 7 7 p b.b.b.b.b.b.p 7 7 ",
"b b b b b b b b b b b b b b b b b b b b b c o ~ 2.2.2.2.2.2.2.s.f./ b b b b b b b b m b b b b b b - 8 7 7 7 7 7 7 7 7 7 7 7 7 e 7 t b.b.b.b.b.b.p 7 7 ",
"M b b b b b b b b b b b b M M b b b b b S c o ~ 2.2.2.2.2.2.2.i.f.( b b b b b b b b b b b b b b b - 7 7 7 7 7 7 7 7 7 7 7 7 7 7 e t b.b.b.b.b.b.j.7 7 ",
"c b b b b b b b b b b b b G c b b b b b G c @ ( 2.2.2.2.2.2.2.i.f.3.b b b b b b b b b b b b b b b n 8 7 7 7 7 7 7 7 7 7 7 7 7 7 e r c.b.b.b.b.b.k.7 7 ",
"G M b b b b b b b b b b b b b b b b b b b c $ 2.2.2.2.2.2.2.2.7.f._ M b b b b b b b b b b m #.-.=.U 8 7 7 7 7 7 7 7 7 7 7 7 7 7 8 r c.b.b.b.b.b.l.7 7 ",
"b b b b b b b b b b b b b b b b b b b b b # c 2.2.2.2.2.2.2.2.7.d.( b b b b b b b b b b m ;.Z.A.H.M.q 7 7 7 7 7 7 7 7 7 7 7 7 7 e e z.b.b.b.b.b.l.r 7 ",
"b b b b b b b b M b b b b b b b b b b b b # S 2.2.2.2.2.2.2.2.i.a.( b b b b b b b b v = ;.Z.Z.Z.H.A.i 7 7 7 7 7 7 7 7 7 7 7 7 7 e e l.b.b.b.b.b.l.7 e ",
"b b b b b b b b b b b b b b b b b b b b b @ K 2.2.2.2.2.2.2.2.i.p.~ b b b b b b b b @ ;.A.C.Z.Z.Z.A.i 7 7 7 7 7 7 7 7 7 7 7 7 7 e 8 l.b.b.b.b.b.l.r 8 ",
"b b b b b b b b b b b b b b b b b b b b S + L 2.2.2.2.2.2.2.2.i.u.^ b b b b b b b + B Z.Z.Z.Z.Z.Z.C.i 7 7 7 7 7 7 7 7 7 7 7 7 7 e e k.b.b.b.b.b.c.e e ",
"b b b b b b b b b b b b b b b b b b b M S o P 2.2.2.2.2.2.2.2.s.y.J b M b b b b v X  .Z.Z.Z.Z.Z.Z.C.x 7 7 7 7 7 r 7 7 7 7 7 7 7 8 8 p b.b.b.b.b.c.r e ",
"b b b b b b b b b b b b b b b b b b b b c o P 2.2.2.2.2.2.2.2.i.3.M b b b b b c c X | Z.Z.Z.Z.Z.Z.C.k 7 7 7 7 7 7 7 7 7 7 7 7 7 7 7 p b.b.b.b.b.b.r 7 ",
"M b b b b b b b b b b b b b b b b b b b b X K 3.2.2.2.2.2.2.3.4.( b b b b b b M c X +.Z.Z.Z.Z.Z.Z.C.z 7 7 7 7 7 7 7 7 7 7 7 7 7 7 7 p b.b.b.b.b.b.r 7 ",
"b b b b b b b b b b b b b b b b b b b b S X c 2.2.2.2.2.2.2.2.3.~ b b b M b M M # X +.Z.Z.Z.Z.Z.Z.Z.v.7 7 7 7 7 7 7 7 7 7 7 7 7 7 7 p b.b.b.b.b.b.r 7 ",
"b b b b b b b b b b b b b b b b b b b b b X $ 2.2.2.2.2.2.2.2.2.M b b b M c M c # X +.A.Z.Z.Z.Z.Z.Z.n.7 7 7 7 7 7 7 7 7 7 7 7 7 7 7 r b.b.b.b.b.b.p 7 ",
"b b b b b b b b b b M b b b b b b b b b b + o ~ 2.2.2.2.2.3./ H M b b b b b b M # X +.A.Z.Z.Z.Z.Z.Z.m.8 7 7 7 7 7 7 7 7 7 7 7 7 7 7 r c.b.b.b.b.b.p 7 ",
"b b b b b b b b b b b b b b b b b b b b b # . L 2.2.2.2.2.P $ v b b b b b b b b # X +.A.Z.Z.Z.Z.Z.Z.V.y 7 7 7 7 7 7 7 7 7 7 7 7 7 7 r c.b.b.b.b.b.p 7 ",
"b M b b b b b b b b b b b b b b b b b b G c X @ ~ 2.2.2.S + v b b b b b b b b b c . +.Z.Z.Z.Z.Z.A.A.G.y 7 7 7 7 r 7 7 7 7 7 7 7 7 t p c.b.b.b.b.b.p 7 ",
"b b b b b b b b b b b b b b b b b b b b M c o . o $ $ o o c b b b b b b b b b M c . [ Z.Z.Z.Z.Z.Z.!.).j 7 7 7 7 7 7 7 7 7 7 7 7 t l.t c.b.b.b.b.b.p 7 ",
"b b b b M b b b b b b b b b b b b b b b b b c X . . . @ v b b b b b b b b b b M c . B C.A.!.Q.!.^.`._.x.7 7 7 7 7 7 7 7 7 7 7 p c.p 7 l.b.b.b.b.b.k.e ",
"b b b b G c b b b b b b M b b b b b b b b c @ X . . . + b b b b b b b b b b b b b o X [ Z.~.`.`._.^.Q.l 7 r 7 7 7 7 7 7 7 7 p c.k.r 7 k.b.b.b.b.b.k.7 ",
"b b b b b M b b b b b b b b b b b b S 2 + X . . . X + o.! b b b b b b b b b b b b c o . B N.Q.Q.H.B...> 7 7 7 7 7 7 7 7 r j.b.c.y 7 7 k.b.b.b.b.b.k.7 ",
"b b b b b b b b b b b b b M G c c + X . . . . . @ Y 8.I.T.&.b b b b b b b b b b b S b @ . * U X...N b , 8 7 7 7 7 7 7 r k.b.b.p 7 7 7 k.b.b.b.b.b.l.r ",
"b b b b b b b b b b b b b c # + X . . . . . * Y 8.9.0.Y.(.L.H b b b b b b b b b b b b b v # # v F b b > 7 7 7 7 r 7 r k.b.b.k.r 7 7 7 j.b.b.b.b.b.l.e ",
"b b b b b b b b b b b M # X . . . . . . 2 Y 8.9.9.9.0.Y.(.U.H b b b b b b b b b b b b b b m b b b b b ; 7 7 7 7 7 r c.b.b.c.r 7 7 7 7 p b.b.b.b.b.l.r ",
"b b b b b b b b b b b c o . . .   . 2 o.8.9.9.9.9.9.0.Y.(.P.H b b b b b b b b b b b b b b b b b b b b - 8 7 7 7 y c.b.b.b.p r 7 7 7 8 p b.b.b.b.b.l.r ",
"b b b b b b b b b b M # . . . . 2 o.8.9.9.9.9.9.9.9.w./.(.L.H S b b b b b b b b b b b b b b b b b b b b 0 7 7 7 l.b.b.b.z.r 7 7 7 7 7 p b.b.b.b.b.c.r ",
"b b b b b b b b b b M + . . . D 9.9.9.9.9.9.9.9.9.9.D./.(.t.b b b b b b b b b b b b b b b b b b b b b b > 7 7 r c.b.b.b.r 7 7 7 7 7 7 p c.b.b.b.b.z.r ",
"b b b b b b b b b M c . . . O &.9.9.9.9.9.9.9.9.9.:.D.(.(.q.b b b b b b b b b b b b b b b b b b b b b b < 7 7 u b.b.b.p e e 7 7 7 7 7 p b.b.b.b.b.c.r ",
"b b b b b b b b b b @ . . . I 9.9.9.9.9.9.9.9.9.9.9.D./.W.r.b b b b b M b b b b b b b S b D b b b b S b - 8 7 u l.l.k.r 7 7 r 7 7 7 7 u b.b.b.b.b.c.r ",
"b b b b b b b b b b X .   O 5.9.9.9.9.9.9.9.9.9.9.9.F././.p.H b b b b b b b - > 0 0 9 0 w w s w w w s s s 8 7 7 r r 7 7 7 7 7 7 7 7 7 p b.b.b.b.b.c.r ",
"b b b b b b b b S # X X X Y 9.9.9.9.9.9.9.9.9.9.9.9.F./.E.J.H b b b b b b b b m < % 8 e r j.l.b.c.b.c.c.b.j.r 7 7 7 7 7 7 7 7 7 7 7 7 p b.b.b.b.b.c.r ",
"b b b b b b b b b O     2 8.9.9.9.9.9.9.9.9.9.9.9.9.F.E.W.P.Q S b b b b b b b b b b n > q e r u k.c.b.b.b.b.k.7 7 7 7 r 7 7 7 7 7 7 7 p b.b.b.b.b.c.r ",
"b b b b b b b b c X   X o.9.9.9.9.9.9.9.9.9.9.9.9.9.F././.U.T b b b b b b b b b b b b b m , 0 6 e r j.l.c.k.u 7 7 r r r 7 7 7 7 7 7 7 p b.b.b.b.b.c.r ",
"b b b M b b b b @ .   3 8.9.9.9.9.9.9.9.9.9.9.9.9.9.F.E.(.U.R b b b b b b b b b b b b b b b F - > q 7 r r 7 7 7 7 p c.l.r 7 7 7 7 7 7 p b.b.b.b.b.c.r ",
"b b b b b b b c X . X o.0.9.9.9.9.9.9.9.9.9.9.9.9.9.F./.(.Y.W b b b b b b b b b b b b b b b b M b v , 0 > , q 7 7 r c.b.c.r r 7 7 7 7 j.b.b.b.b.b.c.r ",
"b b b b b b b @ . . D 9.9.9.9.9.9.9.9.9.9.9.9.9.9.9.F./.(.U.F b b b b b b b b b b b b b b b b b b b b b b b 0 e 7 7 r k.c.c.r r 7 7 7 j.b.b.b.b.b.c.r ",
"b b b b b M # X X 3 8.9.9.9.9.9.9.9.9.9.9.9.9.9.9.9.U./.(.J.b b b b b b b b b b b b b m b b b b b b b b b > 7 7 7 7 7 7 r j.k.r 7 7 7 k.b.b.b.b.b.z.r ",
"b b b b b c o . O 5.0.9.9.9.9.9.9.9.9.9.9.9.9.9.9.F././.(.e.b b b b b b b b b b b b b b b b b b b b b b , 8 q 7 7 7 7 7 r 7 r u r 7 7 k.b.b.b.b.b.z.r ",
"b b b b b # . o o.0.9.9.9.9.9.9.9.9.D.L.I.F.F.K.I.E.(.(.R.%.b b b b b b b b b b b b b b b b b b b b b < q : - 8 7 7 7 7 7 7 7 7 7 7 r z.b.b.b.b.b.c.r ",
"b b b b b o   D 9.9.9.9.9.9.9.9.9.F.E././././././.(.(./.S.H b b b b b b b b b b M b b b b b b b b b - : < b b 0 e 7 7 7 7 7 7 7 7 7 r l.b.b.b.b.b.k.7 ",
"b b b b b # . 4 8.9.9.9.9.9.9.9.D.Y./.(.(.(.(.(.(.(.R.S.E b b b b b b b b b b b b b b b b b b b b b - v b b b > 7 7 7 e 7 7 7 7 7 7 r b.b.b.b.b.b.k.7 ",
"b b b b b b c @ I -.0.0.w.0.w.e.F./.R.Y.R.R./.R.T.K.q.E b b b b b b b b b b b b b b b b b b b b b b b b b b b , 7 7 7 7 7 7 7 7 7 7 r b.b.b.b.b.b.k.7 ",
"b b b b b b b b b H #.&.q.e.S.J.S.e.e.e.e.q.q.,.&.E N b b b b b b b b b b b b b b b b b b b b b b b b b b b b - 8 e e r 7 7 7 7 7 7 u c.b.b.b.b.b.k.7 ",
"b b b b b b b b b b b S H H R E E E E R T H N N b b b b b b b b b b b b b b b b b b b b b b b b b b b b b b b b 0 e 7 7 7 7 7 e 7 7 p b.b.b.b.b.b.p 7 ",
"b b b b b b b b b b b b b b b b b b b b b b b b b b b b b b b b b b b b b b b b b b b b b b b b b b b b b b b b : 7 7 7 7 7 7 7 7 r j.b.b.b.b.b.b.u 5 "
};
