/* XPM */
static char *result[] = {
/* columns rows colors chars-per-pixel */
"75 75 187 2 ",
"   c #5F2E09",
".  c #612E09",
"X  c #65320A",
"o  c #6B340B",
"O  c #6B380B",
"+  c #71370B",
"@  c #74390C",
"#  c #7B3C0D",
"$  c #6D3A11",
"%  c #7A3C11",
"&  c #6C4208",
"*  c #764309",
"=  c #774808",
"-  c #7D4E0D",
";  c #6E570C",
":  c #645D0B",
">  c #6C590C",
",  c #7B5307",
"<  c #7F5807",
"1  c #73550C",
"2  c #7A500D",
"3  c #754116",
"4  c #7A4215",
"5  c #7D481B",
"6  c #7E5D13",
"7  c #466F07",
"8  c #4E6308",
"9  c #476F08",
"0  c #4A6D08",
"q  c #5C6D07",
"w  c #556609",
"e  c #5B630A",
"r  c #526A09",
"t  c #467008",
"y  c #4B730B",
"u  c #4F780E",
"i  c #53710A",
"p  c #507A0F",
"a  c #5A7111",
"s  c #537D11",
"d  c #6C6B07",
"f  c #60600B",
"g  c #66670B",
"h  c #7B6A07",
"j  c #796A08",
"k  c #676510",
"l  c #726712",
"z  c #7B6314",
"x  c #647317",
"c  c #6C721B",
"v  c #6A7B1B",
"b  c #787520",
"n  c #813F0D",
"m  c #803F12",
"M  c #85420E",
"N  c #8C450F",
"B  c #844A0E",
"V  c #8D4A0E",
"C  c #90470F",
"Z  c #904A0F",
"A  c #805807",
"S  c #8E570A",
"D  c #91530B",
"F  c #945D09",
"G  c #995E0D",
"H  c #844613",
"J  c #8B4515",
"K  c #874F11",
"L  c #8C4B14",
"P  c #914711",
"I  c #924B12",
"U  c #9C4E16",
"Y  c #914718",
"T  c #914818",
"R  c #9C4D1B",
"E  c #855411",
"W  c #945211",
"Q  c #9D5216",
"!  c #9A5B12",
"~  c #965219",
"^  c #9B561C",
"/  c #9F591B",
"(  c #A04F1C",
")  c #A5531C",
"_  c #AA541F",
"`  c #A25B1B",
"'  c #AB5D1C",
"]  c #B1591F",
"[  c #886406",
"{  c #846906",
"}  c #8B6806",
"|  c #8F6808",
" . c #906D06",
".. c #956008",
"X. c #9B630C",
"o. c #926A08",
"O. c #957206",
"+. c #9F7A07",
"@. c #9F7808",
"#. c #8C6111",
"$. c #87641D",
"%. c #926712",
"&. c #9D6312",
"*. c #936912",
"=. c #9B7313",
"-. c #A16A0F",
";. c #A17C07",
":. c #A16712",
">. c #A46D12",
",. c #AE611D",
"<. c #A77014",
"1. c #AA7215",
"2. c #AD7B16",
"3. c #AF7618",
"4. c #AD7818",
"5. c #B17F17",
"6. c #B17719",
"7. c #B57B1C",
"8. c #875022",
"9. c #8A5323",
"0. c #9C5C26",
"q. c #AC5520",
"w. c #B05720",
"e. c #B35B24",
"r. c #B65E28",
"t. c #976625",
"y. c #9C632F",
"u. c #8C742B",
"i. c #9D6431",
"p. c #A6652C",
"a. c #A8652B",
"s. c #A9652B",
"d. c #BB6026",
"f. c #BD642B",
"g. c #A36A34",
"h. c #A86C35",
"j. c #A47637",
"k. c #A87937",
"l. c #AD733B",
"z. c #B27337",
"x. c #B2773E",
"c. c #B4783E",
"v. c #BB7C3F",
"b. c #C1662C",
"n. c #C36A2F",
"m. c #C36A31",
"M. c #CA6F34",
"N. c #CB7137",
"B. c #CE7339",
"V. c #D1773B",
"C. c #D47A3E",
"Z. c #D67B40",
"A. c #D97E43",
"S. c #568113",
"D. c #5A8515",
"F. c #5C8817",
"G. c #5E8A19",
"H. c #658418",
"J. c #6D841A",
"K. c #628E1B",
"L. c #65921D",
"P. c #968008",
"I. c #A68007",
"U. c #AA8407",
"Y. c #A58A07",
"T. c #AF8907",
"R. c #B48D07",
"E. c #A88216",
"W. c #B28017",
"Q. c #B58519",
"!. c #B48D18",
"~. c #B8881D",
"^. c #B69319",
"/. c #B99619",
"(. c #BC9A1C",
"). c #C09B1D",
"_. c #C49E21",
"`. c #C6A425",
"'. c #C8A220",
"]. c #C8A827",
"[. c #CDAC2A",
"{. c #D3B22F",
"}. c #D5B532",
"|. c #D7B936",
" X c #D8BB37",
".X c #DBBD39",
"XX c #DB8145",
/* pixels */
"N N N N N N N N N N J N N N N N n P P U n P n P n n P C C N N N C N N N C N N N N N B : : > k l z 6 6 E E K V J > 7 y 7 9 9 9 9 9 9 G.L.L.L.L.L.L.u 9 ",
"N N N N J m n @ + o o o + + # n n m n n n n # # # o n n N N N N N N N N N N N N N N N - e 7 7 9 p s D.H.K.J.J.J.H.D.D.p y 7 9 9 9 y G.L.L.L.L.L.L.u 9 ",
"N N N # o . . o + % m Y Y Y J % % o o o + o X o + # Y _ ( N N N N N N N C C N n J M H J B ; r 7 7 7 t y u S.K.L.L.L.L.L.s 7 9 9 9 y K.L.L.L.L.L.L.p 9 ",
"N N n X . % T ( ) q.w.w.q.q.w.q._ _ ( ( ( ( ( ( _ w._ b.r.P N N N N N N C n # + $ 9.0.i.p.p.t.k 9 7 7 t 7 y y S.L.L.L.L.G.y 9 9 9 y K.L.L.L.L.L.L.y 9 ",
"N N @ . + ) q.q.q.q.q.q.q.q.q.q.q.q.q.q.q.q.q.q._ q.r.Z.m.Y N N N N N N N + X + i.x.c.c.c.c.v.l.$.w 7 7 7 7 7 9 s L.L.L.G.y 7 9 9 y K.L.L.L.L.L.L.y 9 ",
"N N @ . J q.q.q.q.q.q.q.q.q.q.q.q.q.q.q.q.q.q.q.w._ m.A.b.N N N N N N J @ . X i.x.x.x.x.x.x.c.v.z.~ > 8 t t y 7 y p G.L.F.9 9 9 9 y K.L.L.L.L.L.L.u 9 ",
"N N n . J q.q.q.q.q.q.q.q.q.q.q.q.q.q.q.q.q.q.q._ q.m.A.f.C N N N N N n X   9.x.x.x.x.x.x.x.c.v.v.p.N - e y 7 7 u y y p p 7 9 9 9 y L.L.L.L.L.L.L.u 9 ",
"N N N o % q.q.q.q.q.q.q.q.q.q.q.q.q.q.q.q.q.q.q._ q.m.A.b.C N N N N J O   % l.c.x.x.x.x.x.x.c.c.v.p.N N 2 8 y S.K.K.G.s s u 9 9 9 y K.L.L.L.L.L.L.u 9 ",
"N N N n o R ] _ q.q.q.q.q.q.q.q._ _ q._ q.q.q.q.q.q.N.A.b.C N N N N #   $ y.x.x.x.x.x.x.x.x.x.v.v.a.J - r y F.L.L.L.K.s H.L.u t 9 y K.L.L.L.L.L.K.u 7 ",
"N N N N @ % _ _ q.q.q.q.q.q.q.q.w._ q.q.q.q.q.q.q.q.Z.A.n.C N N N N o   5 x.x.x.x.x.x.x.x.x.x.v.v.a.B w u K.L.L.K.K.p u L.L.G.y t y K.L.L.L.L.L.K.u 9 ",
"N N N N N + J _ q.q.q.q.q.q.q.q.w.w.w.w._ q.q.q.w.m.C._.b.C N N J @   o g.c.x.x.x.x.x.x.x.x.c.v.XXt.w s K.L.K.F.p y 9 u G.L.L.y t y K.L.L.L.L.L.K.u 7 ",
"N N N N N N M ( w.q.w.r.r.r.e.e.w.] ] ] r.r.b.N.Z.Z.B.d.( C N N N X   8.x.x.x.x.x.x.x.x.x.x.x.v.j.s D.K.K.D.u t 7 9 9 9 S.L.L.u t y K.L.L.L.L.L.L.u 9 ",
"N N N N N N N N U ) ] b.m.M.M.B.B.B.V.V.Z.V.V.M.r.d.( n N N N N # . X i.c.c.x.x.x.x.x.x.x.x.c.k.v F.D.s y 9 9 7 9 9 9 9 t G.L.s 9 y K.L.L.L.L.L.L.u 9 ",
"N N N N N N N N N N C P U ) _ w.] d.d.] ] _ ) U m m U n N N N N +   % l.x.c.x.x.x.x.x.x.x.x.j.v S.u t 7 9 7 7 e e 9 9 9 t u L.D.9 y K.L.L.L.L.L.L.u 9 ",
"N N N N N N N N N N Z :.! Z C C C C C C n n P n P P n P N N N N o . 5 x.x.x.x.x.x.x.x.x.x.k.x t 9 7 t 7 9 w > - w 7 9 9 7 7 D.G.9 y K.L.L.L.L.L.K.u 9 ",
"N N N N N N N N N &.!.).).W.I N C C n C n U n U n n U n N N N N @ . 3 z.c.x.x.x.x.x.x.x.j.a t t 7 9 w : - V N - 9 9 9 9 7 7 u F.y u K.L.L.L.L.L.K.u 9 ",
"N N N N N N N n *.^././.(.'.~.Z N N N N N N N N N N N N N N N N N @ X 9.l.c.x.x.x.x.x.j.x 7 y a b $.L N N N N > t t 9 9 9 9 9 s u t L.L.L.L.L.L.L.u 9 ",
"N N N N N N # #.^././././.`.[.4.N N N N N C N N N N N C N N N N N J # o 5 g.x.x.x.x.j.x q c u.z.v.p.N N N N N e t 7 9 9 9 9 9 y y u K.L.L.L.L.L.L.u 9 ",
"N N N N J # * !./././././.(.}.).! N N M n * n n # n n n n M M N N N N M X $ i.c.x.x.u.u.j.l.x.v.v.s.N N N N B 0 7 7 9 9 9 9 9 9 9 t K.L.L.L.L.L.K.u 9 ",
"N N N N N o E /././././././.{.{.Q.Z n X X o * @ * * @ * @ * B D N N N J n X $ h.c.x.x.c.c.c.x.v.v.0.N N N N 1 9 r 7 9 9 9 9 9 9 9 u K.L.L.L.L.L.L.u 9 ",
"N N N N M X #./././././././.]. X).G + . o S F ..F ....F F ......S V N N N @ . 4 l.c.x.x.x.c.v.v.s.Z N N N N e : > 9 9 9 9 9 9 9 9 t K.L.L.L.L.L.L.u 9 ",
"N N N N M . %./././././././.`. X{.-.+ . * ........................Z N N N N # o 5 h.x.x.c.c.z.s.I N N N N B : B ; 9 9 7 9 9 9 9 9 u L.L.L.L.L.L.K.u 9 ",
"N N N N # X o./././././././._.|.{.5.+ . = ....................>.-.D N N N N N N N P ~ 0.~ R I N N N N N N - - N ; 7 9 y 9 9 9 9 9 y K.L.L.L.L.L.L.u 9 ",
"N N N J M X *./././././././.(.|.{.5.+ . * ....................1.6...Z N N N N N N N n N N N N N N N N N N V N N ; 9 9 9 9 9 9 9 9 u K.L.L.L.L.L.L.u 9 ",
"N N N N n . *.(././././././.(.|.{.5.+ X = ....................-.7.-.D N N N N N N N N N N N N N N N N N N N N N > 9 y 7 7 9 9 9 9 u K.L.L.L.L.L.K.u 7 ",
"N N N N n X *.(././././././._.|.{.3.+ . * ....................-.7.3.F N N N N N N N N N N N N N N N N N N N N N 1 9 9 9 9 9 9 9 9 u K.L.L.L.L.L.K.u 7 ",
"N N N N n . *./././././././.]..X[.:.+ . * ........F ........F -.7.7.X.Z N N N N N N N N N N N N N N N N N N N N > 9 9 9 9 9 9 9 9 t K.L.L.L.L.L.L.u 9 ",
"N N N N n . #././././././.(.}..X).D + . * ..................F X.6.7.<.D N N N N N N N N N N N N N N N N N N N C > 9 9 9 9 9 9 9 9 u K.L.L.L.L.L.L.u 9 ",
"N N N N M . 2 /.(.).(._.].}..X|.6.C + . * F ..................X.6.7.1.F N N N N N N N N N N N N N N N N N N N N ; 9 9 9 9 9 9 9 9 u K.L.L.L.L.L.K.u 9 ",
"N N N N N o O =.(.[.|. X.X|.{.~.I C + . * ......................3.7.6.G N N N N N N N N N N N N N N N N N N N N ; 9 9 9 9 9 9 9 9 u K.L.L.L.L.L.L.u 9 ",
"N N N N N n o X #./.[.[.].(.2.V N N + . * ......................<.7.7.-.V N N N N N N N N N N N N N N N N N N N ; y 9 9 9 9 9 9 9 t K.L.L.L.L.L.K.u 9 ",
"N N N N N N n o X 2 =.E.2.&.L J N N + . * ......................<.7.7.-.V N N N N N N N N N N N N N N N N N N J ; 7 9 9 9 9 9 9 9 u K.L.L.L.L.L.L.u 9 ",
"N N N N N N N N # o @ M V N N N N N + . = ......................1.7.7.-.Z N N N N N N N N N N N N N N N N N N N ; 7 9 9 9 9 9 9 9 y L.L.L.L.L.L.L.u 9 ",
"N N N N N N N N N N N N N N N N N N + . * ......................6.7.6.G C N N N N N N N N N N N N N N N N N N N ; 7 9 9 9 9 9 9 9 u K.L.L.L.L.L.L.u 9 ",
"N N N N N N N N N N N N N N N N N N + . * ....................>.7.7.<.Z N N N N N N N N N N N N N N N N N N N N ; 7 7 9 9 9 9 9 9 y K.L.L.L.L.L.L.u 9 ",
"N N N N N N N N N V N N N N N N N N + X = ..................X.6.7.1.G C N N N N N N N N N N N N N N N N N N N N > 7 7 7 9 9 9 9 9 y K.L.L.L.L.L.K.u 9 ",
"N N N N N N N N N N N N N N N N N N # . * ........F ....X.-.6.7.-.F V N N N N N N N N N N N N N N N N N N N N N : 7 9 9 9 9 9 9 9 y L.L.L.L.L.L.L.u 9 ",
"N N N N N N N N N N N N N N N N N N N @ * F ..<.4.<.<.1.6.7.6.<.D N N N N N N N N N N N N N N N N N N N N N N N f 7 9 9 9 9 9 9 9 y K.L.L.L.L.L.L.u 9 ",
"N N N N N N N N N N N N N N N N N N N N N V D ..-.<.<.6.6.1.X.D C N N N N N N N N N N N N N N N N N N N N N N V w 9 9 9 9 9 9 y 9 u L.L.L.L.L.L.L.u 0 ",
"N N N N N N N N N N N N N N N N N N N N N N N V Z F F F G D V N N N N N N N N N N N N N N N N N N N N N N N N - 0 9 9 9 9 9 7 7 9 y L.L.L.L.L.L.K.u 9 ",
"N N N N N N N N N N N N N N N N N N N N N N N N N N V Z V N N N N N N N N N N N N N N N N N N N N N N N N N N > 9 9 9 9 9 9 9 9 9 u L.L.L.L.L.L.L.u 9 ",
"N N N N N N N N N N N N N N N N N N N N N N N N N N N N N N N N N N N N N N N N N N N N N N N N N N N N N N N e y 9 9 9 9 9 9 9 9 p L.L.L.L.L.L.K.u 9 ",
"N N N N N N N N N N N N N N N N N N N N N N N N N N N N N N N N N N N N N N N J N J N N N N N N N N N N N N 2 0 7 9 9 9 9 9 9 9 9 s L.L.L.L.L.L.L.u 9 ",
"N N N N N N N N N N N N N N N N N N N N N N N N N N N N N N N N N N N N N N M M M M N N N N N N N N N N N N e 7 9 9 9 9 9 9 9 9 9 S.L.L.L.L.L.L.L.u 9 ",
"N N N N N N N N N N N N N N N N N N N N N N N N N N N N N N N N N N N N N # @ H L ~ ^ Q V N N N N N N N J 2 9 9 9 9 9 9 9 9 9 9 9 F.L.L.L.L.L.L.K.u 9 ",
"N N N N N N N N N N N N N N N N N N N N N N N N N N N N N N N N N N N N n o L / / ` / ,.Q N N N N N N N B w 7 7 9 9 9 9 9 9 9 9 y K.L.L.L.L.L.L.L.u 9 ",
"N N N N N N N N V V V Z N N N N N N N N N N N N N N N N N N N N N N N N # # / / / / / ` ` V N N N N N V : 7 9 y 9 9 9 9 9 9 9 9 s L.L.L.L.L.L.L.L.u 9 ",
"N N N N N N N B S o. .o.o.S Z N N N N N N N N N N N N N N N N N N N N N # % / / / / / ' ' C N N N N N : 9 9 9 9 9 9 9 9 9 9 9 9 F.L.L.L.L.L.L.L.K.y 9 ",
"N N N N V # + A } } O.O.O. .| V N N N N N N N N N N N N N N N N N N N N M @ / / / / / ,.` N N N N B : 0 9 9 9 9 9 9 9 9 9 9 9 s L.L.L.L.L.L.L.L.L.u 7 ",
"N N N N @ O < } +.U.R.R.T.O. .S V N N N N N N N N N N N N N N N N N N N J o ~ / / / / ,.U N N J B e 7 7 9 9 9 9 9 9 9 9 9 9 9 F.L.L.L.L.L.L.L.L.K.y 9 ",
"N N M + O < O.U.T.U.T.R.R.U. .o.V N N N N N N N N N N N N N N N N N N N N o L / / / ' ' Z N H 1 r 7 9 9 9 9 9 9 9 9 9 9 9 9 s K.L.L.L.L.L.L.L.L.G.0 9 ",
"N M o O A O.O. .} } } ;.R.R.;.o.D N N N N N N N N N N N N N N N N N N N N # L / ` ` ,.) B 2 e 0 7 9 9 9 9 9 9 9 9 9 9 9 9 p K.L.L.L.L.L.L.L.L.L.F.9 9 ",
"N @   , } } } } { } } } ;.R.R. .o.L N N N N N N N J N N N N N N N N N N N N P U Q W E > w 0 t 9 9 9 9 9 9 9 9 9 y 9 7 7 p G.L.L.L.L.L.L.L.L.L.L.s 9 9 ",
"N #   = } } } } } } } } } U.R.I. .S N N N N N N N N N N C N N N N N N V B B - 1 : w 9 y t t 9 9 9 9 9 9 9 9 9 9 7 9 7 u H.L.L.L.L.L.L.L.L.L.L.L.u 9 9 ",
"N # . = } } { } } } } [ } O.R.R.@...N N N N J J V B B - - 2 ; > : : e w w r 9 9 7 y 9 9 9 9 9 9 9 9 9 9 9 9 9 9 7 9 s G.L.L.L.L.L.L.L.L.L.L.L.G.9 9 9 ",
"N # . = } } } } } } } } } { I.Y.P.{ 1 ; : : e e w r 8 9 9 9 7 7 t t 7 7 9 9 9 7 7 9 9 9 9 9 9 9 9 9 9 9 9 9 9 9 y D.L.L.L.L.L.L.L.L.L.L.L.L.L.S.9 9 9 ",
"N # X & { h h j d d g q q i i i 0 0 t t t t t t t 9 9 9 9 9 9 9 7 7 y 7 7 9 9 9 9 9 9 9 9 9 9 9 9 9 7 7 9 0 u s K.L.L.L.L.L.L.L.L.L.L.L.L.L.K.y 9 9 9 ",
"f e 8 8 0 0 9 9 7 7 7 7 7 7 7 7 9 9 7 0 9 t 9 9 9 9 9 9 9 9 9 9 t 7 9 9 7 9 9 9 9 9 9 9 9 9 9 9 9 9 9 7 u s K.L.L.L.L.L.L.L.L.L.L.L.L.L.L.L.F.0 9 9 t ",
"7 7 y 7 9 9 9 9 9 9 9 9 9 7 7 7 9 9 9 9 9 9 9 t 9 9 9 9 9 9 9 9 7 9 9 9 9 9 9 9 9 9 9 7 9 9 9 0 0 y s F.K.L.L.L.L.L.L.L.L.L.L.L.L.L.L.L.L.K.u 9 9 9 9 ",
"7 y 9 9 9 9 9 9 9 9 9 9 9 7 7 y 9 9 9 9 9 9 9 9 9 9 9 9 9 9 9 9 7 9 9 9 9 9 9 9 9 9 9 7 9 y u s F.K.L.L.L.L.L.L.L.L.L.L.L.L.L.L.L.L.L.L.L.S.7 9 9 9 9 ",
"7 9 9 9 9 9 9 9 9 9 9 9 9 9 9 9 9 9 9 9 9 9 9 9 9 9 9 9 7 9 9 7 7 7 7 t 9 9 y y y p s F.G.K.L.L.L.L.L.L.L.L.L.L.L.L.L.L.L.L.L.L.L.L.L.L.F.y 9 9 9 0 t ",
"7 9 9 9 9 9 9 9 9 9 9 9 9 9 9 9 9 9 9 9 9 9 9 9 9 9 9 9 9 y y u p s S.D.F.F.H.K.L.L.L.L.L.L.L.L.L.L.L.L.L.L.L.L.L.L.L.L.L.L.L.L.L.L.L.G.y 9 9 9 9 9 t ",
"9 9 9 9 9 9 9 9 9 9 9 9 9 9 9 9 7 7 7 7 0 t y p s s S.F.G.G.K.K.L.L.L.L.L.L.L.L.L.L.L.L.L.L.L.L.L.L.L.L.L.L.L.L.L.L.L.L.L.L.L.L.L.L.K.p 9 9 9 9 9 9 9 ",
"9 9 9 9 9 9 9 9 9 9 9 9 9 7 y y u s s F.G.G.K.K.K.L.L.L.L.L.L.L.L.L.L.L.L.L.L.L.L.L.L.L.L.L.L.L.L.L.L.L.L.L.L.L.L.L.L.L.L.L.L.L.L.G.u 9 9 9 9 9 t 9 9 ",
"9 9 7 7 7 y 7 y y y s s D.D.G.K.K.L.L.L.L.L.L.L.L.L.L.L.L.L.L.L.L.L.L.L.L.L.L.L.L.L.L.L.L.L.L.L.L.L.L.L.L.L.L.L.L.L.L.L.L.L.L.L.F.u 9 9 9 9 9 9 9 9 9 ",
"9 9 y y i p S.D.K.L.K.L.L.L.L.L.L.L.L.L.L.L.L.L.L.L.L.L.L.L.L.L.L.L.L.L.L.L.L.L.L.L.L.L.L.L.L.L.L.L.L.L.L.L.L.L.L.L.L.L.L.L.K.s 9 7 9 9 9 9 9 9 9 9 9 ",
"S.D.K.K.L.L.L.L.L.L.L.L.L.L.L.L.L.L.L.L.L.L.L.L.L.L.L.L.L.L.L.L.L.L.L.L.L.L.L.L.L.L.L.L.L.L.L.L.L.L.L.L.L.L.L.L.L.L.L.L.L.D.u 9 9 9 9 9 9 9 9 9 t t 9 ",
"L.L.L.L.L.L.L.L.L.L.L.L.L.L.L.L.L.L.L.L.L.L.L.L.L.L.L.L.L.L.L.L.L.L.L.L.L.L.L.L.L.L.L.L.L.L.L.L.L.L.L.L.L.L.L.L.L.L.G.S.p t 9 9 9 9 9 9 9 9 9 9 0 9 9 ",
"L.L.L.L.L.L.L.L.L.L.L.L.L.L.L.L.L.L.L.L.L.L.L.L.L.L.L.L.L.L.L.L.L.L.L.L.L.L.L.L.L.L.L.L.L.L.L.L.L.L.L.L.L.L.L.L.F.s u 9 9 9 9 9 9 9 9 9 9 9 9 9 9 9 9 ",
"L.L.L.L.L.L.L.L.L.L.L.L.L.L.L.L.L.L.L.L.L.L.L.L.L.L.L.L.L.L.L.L.L.L.L.L.L.L.L.L.L.L.L.L.L.L.L.L.L.L.L.G.F.S.p y 9 9 9 9 9 9 9 9 9 9 9 9 9 9 9 9 t 9 9 ",
"L.L.L.L.L.L.L.L.L.L.L.L.L.L.L.L.L.L.L.L.L.L.L.L.L.L.L.L.L.L.L.L.L.K.K.K.G.G.G.G.G.F.S.s s s s s u u y 0 9 9 0 9 9 9 9 9 9 9 9 9 9 9 9 9 9 9 9 9 9 9 9 ",
"L.L.L.L.L.L.L.L.L.L.L.L.L.L.L.K.L.L.K.K.K.K.G.F.F.F.S.D.s s s s p u y y y y t 9 9 9 9 9 9 9 9 9 9 9 9 9 9 9 9 9 9 9 9 9 9 9 9 9 9 9 9 9 9 9 9 9 9 9 9 ",
"L.L.L.K.H.G.G.G.F.D.D.S.s s s s u u u y y t y 9 7 9 9 9 9 7 0 7 9 9 9 9 9 9 9 9 9 9 9 9 9 9 9 9 9 9 9 9 9 9 9 9 9 9 9 9 9 9 9 9 t 9 9 t 9 9 t 9 0 9 9 ",
"p u u y y y y t t t y 7 9 7 9 9 0 9 9 9 9 9 9 9 9 9 9 9 9 9 7 7 9 9 9 9 9 9 9 9 9 9 9 9 9 9 9 9 9 9 9 9 9 9 9 9 9 9 9 9 9 9 9 9 0 t 9 9 9 9 9 9 t t 9 ",
"7 7 7 7 9 9 9 7 9 7 7 7 9 9 9 9 7 9 9 9 9 9 9 9 9 9 9 9 9 9 0 9 9 9 9 9 9 9 9 9 9 9 9 9 9 9 9 9 9 9 9 9 9 9 9 9 9 9 9 9 9 9 9 9 9 9 9 9 9 9 9 9 9 9 9 "
};
