/* XPM */
static char *c19c3f7c75504f87f219d5f5834f3251BX5vEfvqsugylJoS[] = {
/* columns rows colors chars-per-pixel */
"63 75 219 2 ",
"   c None",
".  c #010101",
"X  c #0A0606",
"o  c #0D0807",
"O  c #060D09",
"+  c #0C0C0B",
"@  c #040A06",
"#  c #130D0B",
"$  c #160C0A",
"%  c #0A150F",
"&  c #05130C",
"*  c #1C110E",
"=  c #15120F",
"-  c #0E1912",
";  c #0C1610",
":  c #151413",
">  c #1A1613",
",  c #1B1A1A",
"<  c #1C1918",
"1  c #231511",
"2  c #2B1A15",
"3  c #231E1B",
"4  c #2B1C18",
"5  c #271815",
"6  c #321E19",
"7  c #22140F",
"8  c #0A2816",
"9  c #15291D",
"0  c #14261B",
"q  c #2B241E",
"w  c #38231C",
"e  c #172E21",
"r  c #1C3626",
"t  c #2B2523",
"y  c #292827",
"u  c #392B27",
"i  c #243A2A",
"p  c #3B322E",
"a  c #34372B",
"s  c #393737",
"d  c #293032",
"f  c #4B2C24",
"g  c #442B24",
"h  c #48342C",
"j  c #55342C",
"k  c #5B362D",
"l  c #58352A",
"z  c #413533",
"x  c #453B32",
"c  c #493B37",
"v  c #5C3D36",
"b  c #653D2C",
"n  c #693F2C",
"m  c #643B32",
"M  c #41271D",
"N  c #154A2B",
"B  c #195432",
"V  c #12512C",
"C  c #284A35",
"Z  c #2D543C",
"A  c #2F583F",
"S  c #22402E",
"D  c #1B663B",
"F  c #4C453B",
"G  c #52433E",
"H  c #58473B",
"J  c #6A412F",
"K  c #69433A",
"L  c #764739",
"P  c #383E40",
"I  c #2F5C41",
"U  c #305A40",
"Y  c #394143",
"T  c #2E6143",
"R  c #306947",
"E  c #2C764A",
"W  c #30744B",
"Q  c #307F50",
"!  c #484848",
"~  c #524541",
"^  c #584945",
"/  c #565554",
"(  c #5C504D",
")  c #6A564B",
"_  c #775348",
"`  c #6D5A54",
"'  c #6A5853",
"]  c #715D57",
"[  c #725F59",
"{  c #714A42",
"}  c #76625C",
"|  c #7B685A",
" . c #6F604D",
".. c #676969",
"X. c #7B6661",
"o. c #7D6963",
"O. c #7A6A65",
"+. c #777979",
"@. c #6A797C",
"#. c #546062",
"$. c #834E3D",
"%. c #88523E",
"&. c #885545",
"*. c #985C48",
"=. c #8C5C51",
"-. c #965E52",
";. c #854F42",
":. c #996457",
">. c #86745E",
",. c #95634C",
"<. c #A6644C",
"1. c #A76857",
"2. c #B46B52",
"3. c #BB7255",
"4. c #B16C4E",
"5. c #826D67",
"6. c #8A746D",
"7. c #8B7765",
"8. c #957B66",
"9. c #8E7871",
"0. c #927B74",
"q. c #957E78",
"w. c #A76D60",
"e. c #A86F62",
"r. c #AD7364",
"t. c #B57666",
"y. c #B26F60",
"u. c #C27656",
"i. c #CD7C5B",
"p. c #C67858",
"a. c #D37F5C",
"s. c #C37C6C",
"d. c #308C56",
"f. c #308251",
"g. c #30955A",
"h. c #31985B",
"j. c #2C8852",
"k. c #31A15F",
"l. c #2DA05C",
"z. c #31A661",
"x. c #31AE65",
"c. c #31B166",
"v. c #33B569",
"b. c #9B846B",
"n. c #9B837C",
"m. c #B79A7D",
"M. c #B88A74",
"N. c #D7835F",
"B. c #D8845F",
"V. c #DA8561",
"C. c #DB8C6A",
"Z. c #D78764",
"A. c #C88574",
"S. c #D48C7B",
"D. c #DC8F7F",
"F. c #DC9477",
"G. c #D69072",
"H. c #E19979",
"J. c #888786",
"K. c #9A8984",
"L. c #9C9A9A",
"P. c #8F9597",
"I. c #A08780",
"U. c #A48B83",
"Y. c #A88E87",
"T. c #A99089",
"R. c #B89E80",
"E. c #A69793",
"W. c #BCA283",
"Q. c #97A7AA",
"!. c #B6AAA5",
"~. c #BBBBBB",
"^. c #B7B4B3",
"/. c #AEAEAD",
"(. c #DD9A83",
"). c #C99E84",
"_. c #E59584",
"`. c #EB9B89",
"'. c #E79A84",
"]. c #F09B8A",
"[. c #C7AC8B",
"{. c #D4AF90",
"}. c #E4A183",
"|. c #E7A58C",
" X c #EBAC92",
".X c #ECA790",
"XX c #F4B89B",
"oX c #EBB598",
"OX c #C0BAB8",
"+X c #E9BCA6",
"@X c #E4C49E",
"#X c #EEC29F",
"$X c #C1C0BF",
"%X c #E8C6A2",
"&X c #F8C8A6",
"*X c #F4D2AA",
"=X c #FCD5AE",
"-X c #FAD8AF",
";X c #FFDCB2",
":X c #EFCCBA",
">X c #FFE1B6",
",X c #FFE4B9",
"<X c #B6C6C9",
"1X c #C7C7C7",
"2X c #DADADA",
"3X c #FADDCD",
"4X c #F6D6C4",
"5X c #F4D8C9",
"6X c #FCE2D3",
"7X c #CEE2E6",
"8X c #D3E8ED",
"9X c #D5EEF3",
"0X c #D6F1F6",
"qX c #DBF6FC",
"wX c #E6E6E6",
"eX c #EAEAEA",
"rX c #FEFEFE",
"tX c #F1F1F1",
"yX c #C8DEE2",
/* pixels */
"                                                                                                                              ",
"                                                                                                                              ",
"                                                                                                                              ",
"                                                                                                                              ",
"                                                                            o # $ $ $ $ # # # # # o o                         ",
"                                                                      X . . f *.u.u.u.u.u.u.u.3.<.;.L # . . .                 ",
"                                                              . . . f <.*.*.2.i.V.Z.B.B.B.B.V.N.i.p.u.<.*.%.l . .             ",
"                                                        .   * n J n %.V.V.V.V.B.B.B.B.B.B.B.N.V.B.B.V.V.B.a.<.J J 6           ",
"                                                      . 1 w l N.V.V.B.B.a.V.V.V.a.a.V.N.N.N.N.N.N.B.N.N.B.B.B.Z.V.J 2         ",
"                                                      . L i.a.C.Z.N.B.B.V.V.a.V.V.V.N.V.N.V.N.N.N.N.N.B.B.B.B.B.B.V.&.:       ",
"                                                        $ f r.5XF.N.N.B.V.a.V.V.V.N.N.N.N.N.N.N.N.B.N.N.B.B.B.B.B.N.|.!.O .   ",
"                                                      . f 8.:X6XF.N.N.N.V.V.a.a.N.N.N.N.N.N.N.V.N.N.N.N.B.N.B.B.B.N. X:X<.<.f ",
"                                                      . k t.:X6XF.N.N.N.N.N.V.V.N.N.N.N.V.N.N.N.N.N.N.N.N.N.N.B.N.|.oX XB.L M ",
"                                                      . k 2.C.:X|.C.B.N.N.B.a.V.N.a.N.N.N.N.N.N.N.B.B.N.N.N.Z.H.'.%XoXp.*.*   ",
"                                                      . k 2.a.V.:X XC.C.C.Z.Z.C.C.C.Z.V.N.V.C.C.C.G.N.C.C.C.|.6X3X}.N.4.*     ",
"                                                      . m *.<.a.V.&X3X3X5Xr.[.6X3X3XF.2.<.C.4X3X3X%X:.:X3X3X6X6XH.1.4.N.3.1   ",
"                                                      . k *.*.1.a.H.}.'.(.1.w.A.}.'.3.m 2 f F.H.}.t.u G.'.'.}.H.C.N.%.w w X   ",
"                                                      . m *.;.g b n $.3.2.*.*.;.J b j * # f J 2.i.$.X *.a.p.<.J 4.i.4.f . .   ",
"                                                      . f K m g u u h n &.*.;.g . C + . > n . *.*.k 4 m 4.2.L . j <.V.4.X     ",
"                                                        . . 4 D.S.D.-.1 ;.&.6 @ s tX/ @ . . . m f 1 L o k &.m . . l <.<..     ",
"                                    . . X .             . . 5 S.6 m y.t.* o . ! eXrXtX... . . X X . X . X # X . . X f L .     ",
"                                . . 7.m.R.m.> .         . . 5 (.t.k { s.X . . / rXrXrX+.. . . . 6 j . . J.... .     1 1 .     ",
"                              u | | @X>X>X-X7.q .         . 4 _.XXH j ).X w # / rXrXrX+.. . . w &.=.X +.2XP.. .       .       ",
"                          C , x >X,X;X;X;X-X>X>.q . ;     . 4 _.=X7.7.%Xj -.m ' $XrXrXL.Y F @ _ F.M.: wXrX/.p .               ",
"                      . . Q.+.c @X-X-X=X=X;X;X,X8.O Z % @ . 5 A.XX*X=X&X'.`.].e.a 2XwXwXwX1Xa W.;XR.q 1XwXeX/.X               ",
"                    . . @ O.<XQ.q F.|.`. X;X;X;X8.O U Z Z e . > &.:.t.`.'.&X-X*X{.y , , , a {.-X).1.s.t , , > .               ",
"                . ` W.m.y.h d #.Q.h t.].`..X.XXX=.& d.h.h.E r . * 1 l t._.=X;X;X-Xm.m.m.m.W.-X>X&X#X%X[.m.W.>.@               ",
"                ) [.,X;XXXb._ ) @.@.` L ;.s._.1.F D x.c.x.l.Q B @ . $ k t.|.=X>X>X,Xb.[.,X,X>X>X>X;X>X>X>X,X[.X               ",
"              X m.>X;X;X;X>X&XM.g Q.Y . * J :.6 V v.x.x.x.x.c.x.N & . # n A.XX&X;X;X .| m.m.m.m.{.;X;X;X;X>X[.@               ",
"              X t.XX=X=X;X;X*XoXS.=       . . . V c.x.x.x.x.x.x.x.N . . $ w.S.}.=X=X;X>.- > > # b.>X;X;X-X*Xm.> > > >         ",
"              . t.`.`..X=X>X>.H +X>         . . 8 W x.x.x.x.x.x.x.W e # { 4 # v }.}.*X%X%X%X@X@X*X-X-X;X>Xb.x @X@X%X7..       ",
"                w :.`.`..X) = h (.=             O e W W W j.c.x.x.z.E i 6 -.M.8.w w F h F F F x x x x x x | [.;X>X>X@Xb..     ",
"                  h :.`.`.-.6 > K $               X 9 9 S R d.c.c.c.z.W e H =.^ . . . .       . . .     . { &XXX;X;X,X%X| q   ",
"                    u w.w.e.K . .                 . ; ; S T Q k.x.x.c.z.W 0 & % ; ; @ .                 p ) t._.&X=X;X;X-Xq   ",
"                      . . .                       - A A A f.c.x.x.x.c.x.x.E T T U Z - . @ .           . m.8.g A._.XX;X;X*Xq   ",
"                                              . 0 Z A Z d.c.x.c.c.x.x.x.x.z.z.d.U U Z Z r . .       . . 1.+XR.4 s.`.XX;X*Xq   ",
"                                            . e C U A A d.v.c.x.x.x.x.c.c.x.c.g.Z ; C I Z r . . . . . . 5 :.M.# A.`.`.XX*Xq   ",
"                                          . 9 C A A A A d.c.c.c.x.c.x.x.x.c.h.T e 9 C U U Z @ . . o g . p ^ j + m s.`.S.| q   ",
"                                          - Z A A A A A f.k.x.x.c.x.c.x.c.c.E 0 @ Z U I Z i g u 6 f 1.j ) / d . . { r.=..     ",
"                                        % A A A A A A A A f.c.x.z.k.z.z.z.z.N . @ Z A Z i 5 S._.s.1._._.j ..Q., . . . .       ",
"                                        ; I A A Z A A Z d.x.x.x.W T T T T R 9 . @ Z A 9 5 &._._._._.`._._._ Y <X,             ",
"                                        X ; % & B d.A A d.c.c.x.h.h.Q A A U 0 .   - C 9 2 -._._._._._.].s.v O Y               ",
"                                        . X K j a D f.I W g.c.c.c.v.k.f.f.r -       9 % 5 <._.`.`.]._._ f 6                   ",
"                                          X :.y._ a E E W Q g.g.h.g.k.c.c.8         . . 1 K 1.w.w.w.:.# .                     ",
"                + X . .                 . # + =.S.w.O j.l.f.T R T A Q k.k.8             . . . . . . .                         ",
"              . X.c . . .               3 0.] t # + . O O B z.z.z.z.d.T A %                                                   ",
"            > [ z : . X c <             3 U.n.5.} } O.~ G a 8 8 8 8 B k.h.-                                                   ",
"            # K.3 . . + ) c 3           t U.U.^.1X^.6.X.K.P...~ G s i B V & .                                                 ",
"          y ! } < . X t ' ] G t t     . t U.q./.<X/.[ O.<X0X7X!.!.E...P s t > >                                               ",
"        + ..1X: . . 3 ] ] ] 6.I.0.+ . . 3 9.[ ] X.X.[ K.1X8X9X9X9X9X9X9X9XJ.O.( : +                                           ",
"      . P.L.: . . . 3 ] ] ] [ } ' + . . . > ) ] 6.I.I.U.T.~.9X9X9X9X9X9X9X7X7XyX<X` <                                         ",
"    . L.+.y . . . t ^ } 0.X.] ] ] X.3 3 ~ F 3 > c 6.T.Y.U.E.!.!.7X0X0X0X0X0X0XqX7XK.5.p .                                     ",
"  y +.eX^.+.9.J., z } } U.o.] ] } U.t u } ] p + # p ^ 5.0.6.0.Y.^.1X~.OXOX$X~.~.~.T.T.X.z                                     ",
"  y rXrXrXrXrX<Xy p } 5.I.6.} ] [ q.z c ] ] [ p < : . z G G ^ } X.} X.O.n.U.U.U.U.U.U.T.5.t                                   ",
"  y 2XeXwXeX1X+ . p X.U.U.U.6.] ] ] ] ] ] ] ] ] ` ~ . . . . . . . . . 3 n.U.n.U.n.U.U.n.U.q.3                                 ",
"    , , , , : . . . p Y.U.Y.6.] ] ] ] ] ] ] ] ] z X . .         . . 3 ' } } } } } } } } 5.U.q.t                               ",
"                  . + t t 6.U.n.q.} ] ] ] ] } p # .                 : < 3 ( ] ] ] ] ] ] } 5.5.} c .                           ",
"                    . . . c ~ ~ ^ ` ] } ) p u >                       X u ) ] ] ] ] ] ] ] ` ] 6.c .                           ",
"                          . . . X c ~ ^ s . .                         # v ` X.o.o.] ] ] ] ] ] o.^ t                           ",
"                                  . . . .                               . ^ 6.K.n.} } ] ] } } 9.n.' .                         ",
"                                                                        . ^ } } X.n.o.] 5.K.n.p O + . . .                     ",
"                                                                        . ^ ] ] } U.n.n.X.t t X / $X~.~.s .                   ",
"                                                                        . ] 0.9.6.^ ~ ^ p . . . +.rXrXrX! .                   ",
"                                                                        . ( O.X.` . . . . . t t L.tX~.^.!                     ",
"                                                                        . . . . . + # + + < 6.q.^.^.. .                       ",
"                                                                            . . = 6.q.n.q.6.< # : <                           ",
"                                                                            . . X t t t t t                                   ",
"                                                                              . . . . . .                                     ",
"                                                                                                                              ",
"                                                                                                                              ",
"                                                                                                                              ",
"                                                                                                                              ",
"                                                                                                                              ",
"                                                                                                                              ",
"                                                                                                                              "
};
