/* XPM */
static char *e71c397b286941b794e945d5b1157dd8HQ25xmmzdG4MW74x[] = {
/* columns rows colors chars-per-pixel */
"63 75 226 2 ",
"   c None",
".  c #010101",
"X  c #0A0605",
"o  c #0B0907",
"O  c #070E0A",
"+  c #0C0B0A",
"@  c #030906",
"#  c #130D0B",
"$  c #190F0C",
"%  c #08150D",
"&  c #1D110F",
"*  c #14100F",
"=  c #0D1A13",
"-  c #141312",
";  c #1A1512",
":  c #1D1916",
">  c #1C1B1B",
",  c #131C18",
"<  c #241612",
"1  c #241A16",
"2  c #2A1A16",
"3  c #231D1A",
"4  c #2B1C19",
"5  c #2B1A14",
"6  c #14261B",
"7  c #0B2616",
"8  c #28221C",
"9  c #3D251D",
"0  c #34201A",
"q  c #0D3C22",
"w  c #1C3526",
"e  c #1C3928",
"r  c #1C2822",
"t  c #232322",
"y  c #2C2D2D",
"u  c #2C2721",
"i  c #352A27",
"p  c #213C2B",
"a  c #3C332D",
"s  c #3D3532",
"d  c #373835",
"f  c #452B24",
"g  c #4B3228",
"h  c #55332B",
"j  c #5A352C",
"k  c #523225",
"l  c #423734",
"z  c #4B3E3A",
"x  c #473C37",
"c  c #593832",
"v  c #633B2D",
"b  c #653D32",
"n  c #43281D",
"m  c #154D2D",
"M  c #25442F",
"N  c #254933",
"B  c #2D553D",
"V  c #2E593F",
"C  c #1F6C3F",
"Z  c #4D413A",
"A  c #56473C",
"S  c #6C4236",
"D  c #7B493D",
"F  c #754636",
"G  c #353F41",
"H  c #305A41",
"J  c #325241",
"K  c #2B6B45",
"L  c #316A48",
"P  c #30794E",
"I  c #297D4B",
"U  c #1F7040",
"Y  c #5B4B46",
"T  c #5D4D49",
"R  c #554844",
"E  c #5B5A5A",
"W  c #535451",
"Q  c #784C42",
"!  c #66564A",
"~  c #7A5349",
"^  c #695751",
"/  c #6B5A54",
"(  c #665956",
")  c #715D57",
"_  c #735E58",
"`  c #7C5A54",
"'  c #6E4E48",
"]  c #72624F",
"[  c #75615B",
"{  c #7A655E",
"}  c #7A6955",
"|  c #6E605C",
" . c #656361",
".. c #7E6A64",
"X. c #796661",
"o. c #737879",
"O. c #814D37",
"+. c #83503A",
"@. c #8A533D",
"#. c #8C5345",
"$. c #865548",
"%. c #935748",
"&. c #955A4B",
"*. c #985B4B",
"=. c #925745",
"-. c #8D5C52",
";. c #955E52",
":. c #814D40",
">. c #916956",
",. c #A9664D",
"<. c #A66857",
"1. c #B46C52",
"2. c #B96F54",
"3. c #BC7154",
"4. c #B5775C",
"5. c #B36D4F",
"6. c #826C66",
"7. c #846F69",
"8. c #8A746D",
"9. c #887568",
"0. c #947A64",
"q. c #8E7871",
"w. c #937B75",
"e. c #977F79",
"r. c #AA6D61",
"t. c #B77767",
"y. c #AD7063",
"u. c #CD7D5B",
"i. c #C37657",
"p. c #D47F5C",
"a. c #C07C6E",
"s. c #C47F71",
"d. c #2C8C54",
"f. c #308A55",
"g. c #2A9456",
"h. c #319D5D",
"j. c #309057",
"k. c #25894F",
"l. c #2FA25E",
"z. c #31AE65",
"x. c #31A460",
"c. c #31B166",
"v. c #32B468",
"b. c #9B866C",
"n. c #9B866C",
"m. c #96817B",
"M. c #9C847D",
"N. c #A0896E",
"B. c #A28C71",
"V. c #B88C73",
"C. c #AE9478",
"Z. c #D7835F",
"A. c #D8845F",
"S. c #DA8662",
"D. c #DC8D6B",
"F. c #DD906F",
"G. c #C88674",
"H. c #D58A7B",
"J. c #DC8E7E",
"K. c #D18575",
"L. c #C7937B",
"P. c #DE9575",
"I. c #E19777",
"U. c #84898A",
"Y. c #9A8B86",
"T. c #9B9896",
"R. c #879598",
"E. c #A48C85",
"W. c #A78E88",
"Q. c #AD9993",
"!. c #BDA485",
"~. c #AFA19E",
"^. c #A6A3A1",
"/. c #B4AAA6",
"(. c #BCBCBB",
"). c #B5B8B8",
"_. c #AFB1B1",
"`. c #D89782",
"'. c #C39383",
"]. c #E59484",
"[. c #EA9887",
"{. c #E59C86",
"}. c #C6AA89",
"|. c #D3B693",
" X c #D9BC98",
".X c #DEA78D",
"XX c #E8A58D",
"oX c #EAAD91",
"OX c #EAA991",
"+X c #EBB699",
"@X c #F4B499",
"#X c #F5BC9E",
"$X c #F1A791",
"%X c #D1B8A9",
"&X c #EEBDA5",
"*X c #F7BFA0",
"=X c #EBC9A3",
"-X c #FAC4A3",
";X c #F4C7A7",
":X c #F5D3AB",
">X c #FDD5AE",
",X c #FAD8AE",
"<X c #FFDCB2",
"1X c #E8C5B5",
"2X c #FFE1B6",
"3X c #FFE6BA",
"4X c #E4C59F",
"5X c #BDC6C7",
"6X c #BACFD4",
"7X c #C2C4C4",
"8X c #C9CDCD",
"9X c #CAD9DC",
"0X c #D8D7D7",
"qX c #F7D8C6",
"wX c #ECD4C6",
"eX c #FDE4D5",
"rX c #FFEADC",
"tX c #FEE7D9",
"yX c #CDDEE1",
"uX c #D5EEF3",
"iX c #D6F0F6",
"pX c #D8F2F8",
"aX c #D1E5E9",
"sX c #E9E9E9",
"dX c gray96",
"fX c #FEFEFE",
/* pixels */
"                                                                                                                              ",
"                                                                                                                              ",
"                                                                                                                              ",
"                                                                      . . . . . . . . . . . .                                 ",
"                                                                . . 5 j O.+.+.O.O.+.+.+.F h j & . . .                         ",
"                                                                f k F 2.S.S.S.S.S.S.S.S.p.1.1.b k f 0                         ",
"                                                        < < < 2 3.A.S.Z.Z.Z.A.A.Z.Z.S.Z.S.Z.Z.A.A.u.*.0 < <                   ",
"                                                  X X . @.Z.p.u.Z.A.Z.Z.Z.S.A.A.Z.Z.Z.Z.Z.Z.S.Z.A.Z.Z.u.Z.F . o X X X         ",
"                                              . k 5.5.,.i.S.S.p.Z.Z.Z.A.Z.Z.Z.Z.Z.Z.Z.Z.Z.Z.Z.Z.Z.Z.Z.Z.A.4.t.%X4.5.S .       ",
"                                                0 F S.&XI.p.p.S.Z.A.Z.Z.Z.Z.Z.Z.Z.Z.Z.Z.Z.Z.Z.Z.Z.Z.A.Z.A.S.P.eXI.+.9         ",
"                                                  $ $.wX;XXXXXS.Z.A.Z.Z.Z.Z.Z.Z.Z.Z.Z.Z.Z.Z.Z.Z.A.Z.A.Z.A.P.+X&XD.n .         ",
"                                                  . 1 %XtXrXqXP.P.P.D.Z.Z.Z.Z.Z.Z.Z.Z.Z.S.Z.Z.Z.Z.Z.A.P.P.&X,XZ.Z.v &         ",
"                                                  & %.u.&XrXtXtXeXtX;XS.Z.,.3.S.S.S.S.S.Z.Z.Z.S.S.S.F.qXeXeX1X*.i.u.F .       ",
"                                                  < %.u.D.+XrXrXrXrXtX1X<.%.1.{.qXwX<XoXi.<.S.&XqXqXqXtXoXI.F.i.9 < $ .       ",
"                                                  & %.,.u.I..X'.XXoXoXI.&.%.2.F.oXoX+XK.#.9 g V.oXoXoXoXF.S.A.Z.@.5 .         ",
"                                                  & %.%.,.i.,.j F D @.i.%.%.3.Z.1.@.O.S 9 . . @.3.3.3.2.@.*.i.i.A.+.n         ",
"                                                  & %.%.%.#.S 4 1 & f Q Q #.1.1.b X t : . . . h #.#.D %.2 0 D +.,.2.S .       ",
"                                                  & #.%.*.j 4 H.`.].;.X X F *.b X + 7Xo.. . . . g S # D 4 . . . X . . .       ",
"                                                    < :.*.j 2 H.f b y.<.X D h X > 7XdXsXT.. . . X # . $ . . .                 ",
"                                                    . D *.h 2 J.<.c Q K.v f $ . > dXfXfX).. . . . # k X . .                   ",
"                                                  $ 9 :.*.h 4 ].$Xc z XX;.; & < t sXfXfX_.. . . $ j <.$ . .                   ",
"                                                  & D %.*.h 1 t.;X6.] ;X&.& v S > dXfXfX).. . . k t.H.; . .                   ",
"                            + o o o + X X           X F %.j . # }.:X:X=X&.< $.<.t sXfXfX(.O . . Q [.H.* . .                   ",
"                          . ] |.|.|.L.t.;.. . . . . . $ $ f b . 8 8 ' ].&.y.`.J.r.s 8XfXdX(.- $.H.XX&X; . .                   ",
"                        @ }  X3X<X#X[.[.H.-.o 6 w w w @ . 9 %.j o h y.I.s.@X*X*X+XN. .E  .( -..X-XoXV.N.u .                   ",
"                        W 9.}.-X*X[.[.[.H.-.t N H H V 6 7 u j j o ~ J.[.[.>X<X<X2X<X9.A A ! oX>X2X=XG.>XA .                   ",
"                  . . > 6XW ' t.t.H.].H.-.X N H V V H L K N % O O g %.G.].-X<X<X<X<X<X2X3X<X<X<X<X<X2X<XZ .                   ",
"                . X @ ; e.6Xo.O 1 $.K.~ . @ B H B V H h.z.z.h.H V 6 . 4 H.].#X<X<X<X<X<X<X<X,X:X,X<X,X:XZ .                   ",
"              . . ]  X}.8 t T Y._.t Q j O N H H w , H x.z.z.z.h.l.e . @ 4 t.XX@X<X<X<X<X<X=Xa 8 n.2X=XZ                       ",
"            : n.B.} 0.`.# ] ^ E ^.- < & - H H w 6 M f.z.z.z.z.c.c.k.U m . f y.$X@X@X>X2X2X,XC.b.|. XA                         ",
"            3 :X!.a i K.# }.C.c T * . . O w w 6 e L z.z.z.z.z.z.c.c.c.h.m m R &.-.-.0.b.n.n.B.B.B.] @                         ",
"            : }.A 8 A <.# n.OXr..       . . . e H K z.z.z.z.c.z.c.z.z.z.z.v.m @ . . . . . . . . # & @ 8 u ; .                 ",
"            . o !.:XC.+ + O $.<.@           . e V L z.z.z.z.z.z.z.z.z.z.z.c.f.w .             . Q y.>  X<X9.. .               ",
"              @ |.0.A |.|. X} * .         . p B P l.z.z.c.z.c.c.c.z.z.z.z.c.x.f.M X         . -.XX=X|.<X2X=Xb..               ",
"                A } }.3X2X3X} .         7 C d.g.h.c.z.z.c.h.P P x.c.h.P P m q q = .         . y.*X,X@X<X<X<X=Xn.8             ",
"                  ! B.b.b.b.T         6 m v.c.z.c.c.z.z.c.I p V f.j.P B w g c c g . .       W _ L.#X@X>X<X<X<X:X8             ",
"                    . . . .         . m v.z.z.z.z.z.z.c.v.K % N B H J p 4 t.$X$X`.i o .   > 9XG b $X<X<X>X<X<X:X3             ",
"                                  . @ m z.z.z.z.z.z.z.z.c.g.N O M H w 1 H.].#X<X>X:Xl . X > 6XJ Q OX<X<X<X<X<X;X8             ",
"                                  . e w m x.c.c.c.z.z.c.c.x.g.N - O @ < ].].#X<X<X<XL.'.|.!.d | R A <X<X<X<X>X`.<             ",
"                                  . = O . q m k.v.z.z.z.c.c.x.d.N % . & <.].XX&X<X<X$X#X2X=X* ..R i @X>X<X>X`.h               ",
"                                  . . 4 c c j B k.c.c.v.c.c.z.z.K w % X h y.J.$X-X<X#X-X<X4X; Z i i [.-XC.0.Q .               ",
"                                  . . c G.a.[.b M g.g.k.l.z.l.h.L B r . . b <.s.`.-X<X<X<X=X- . . 0 t.t.f . .                 ",
"              . X . . .             . X + & s.`.Q @ @ @ C d.V V V 6 . .   X . 0 ;.`.=X:X,X X; . . . X X                       ",
"            . . / l . . .           . s 8.6.i 5 $ . . . O % O O O . . .         & 4 0 8 u 8                                   ",
"            + T Z : . @ l -         . z E.6.z R ( ( / U.R.R.U.( ( R u . .                                                     ",
"          3 Z E.3 . . + ^ s :       4 T 8._ Y.Y.w.e.e._.).)._.e.e.8.) i . .                                                   ",
"        . l ~.8.: . X 1 ^ _ i .   . R _ X.7.yXT...X.X.X.| _ { ) ) 8.E.8.: : ;                                                 ",
"        @ E 0X- . . 3 / ) _ a . . @ z 8.E.T.aXiX(.M.E.E.....w.) ) ) _ _ / m.z . .                                             ",
"      . q.sXyX* . . 1 ) ) ) ^ l + X.X.8.~.yXuXuX7Xe.{ 6.a - ; - T 8.M.M.m.E.e.Y . .                                           ",
"      . T.8XW . . 3 R ) ) ) _ Z # m...6.~.uXuXpX).6.) i + . o x ^ w.W.W.W.(./.w.T l -                                         ",
"      W 5X8XE  .- s X.6.6._ _ R + 6.Y.^.7XuXuX9XT.^ l X . . + x ^ 8.m.W.W.yX8X_._.T.x -                                       ",
"    + 8XfXfXfX0Xy s 6.W.W.6._ R > | ).aXuXuXuX/.q.R . . . . . . z Y / q.E.9XpXuXiXiXT.x #                                     ",
"    o 7XfXdX0X- . a 6.E.W.6.) ) _ B.E.(.uXuXuX/.8.R . .     . . . . X 3 Y.8XuXuXiXuXuX^.Z .                                   ",
"      y y y y . . a 7.W.E.B.7.) _ E.E.(.pXuXpXT.z # .           . . 1 / W.Q.8XuXuXuXuXyXR.. .                                 ",
"                  1 y l s q.q.) _ 6.e.(.pXuX(.W $ .               . # i s _ ).uXuXuXiXpX5XY o                                 ",
"                    . . . z ) ) _ ) 7.~.8X5XX.: .                   . . 4 ! T.9XuXiXiXpX9Xm.+                                 ",
"                        . . i T T Y Y _ 8.X.+ .                       * / _ 8./.9XyX9XyX7Xe.+                                 ",
"                            . X @ X . X X X .                         * ^ ) 8.W.W.W.W.W.W.w.- .                               ",
"                                                                      # ^ ) _ X.{ X.X.X.X.[ T - .                             ",
"                                                                      # ^ _ ) ) ) ) / ) { w.w.[ l . .                         ",
"                                                                      # / _ ) ) _ _ 6.7.w.W.W.X.i . .                         ",
"                                                                      # ^ _ _ ^ T T ..8.8.8.8.x y y y X                       ",
"                                                                      # ^ / ) z . X . @ @ . X ).fXdX0X>                       ",
"                                                                      . # - # # . . . . . . . ).fXfXsXt                       ",
"                                                                          . . 3 / / / / / / / 0X(.( E                         ",
"                                                                          . . 3 ( ( ( ( ^ ( ( U. .. .                         ",
"                                                                          . . . . . . . . . . .                               ",
"                                                                                                                              ",
"                                                                                                                              ",
"                                                                                                                              ",
"                                                                                                                              ",
"                                                                                                                              ",
"                                                                                                                              ",
"                                                                                                                              ",
"                                                                                                                              "
};
