/* XPM */
static char *d7ec4faf61ef406b9bdddb073fc222beubOPMfH825o5TkjB[] = {
/* columns rows colors chars-per-pixel */
"63 75 221 2 ",
"   c None",
".  c #010000",
"X  c #0B0605",
"o  c #040906",
"O  c #0E0807",
"+  c #060D09",
"@  c #0D0B0A",
"#  c #130D0B",
"$  c #160D0B",
"%  c #0A130E",
"&  c #06120C",
"*  c #14110E",
"=  c #1D120E",
"-  c #0C1711",
";  c #161312",
":  c #191613",
">  c #1E1917",
",  c #1D1A19",
"<  c #151718",
"1  c #241512",
"2  c #2C1B15",
"3  c #231D1B",
"4  c #2B1B18",
"5  c #331E16",
"6  c #0C2A18",
"7  c #172A1E",
"8  c #15261C",
"9  c #29221D",
"0  c #3B241C",
"q  c #362019",
"w  c #182E21",
"e  c #1B3A27",
"r  c #0D3C22",
"t  c #2C2523",
"y  c #2A2927",
"u  c #322A25",
"i  c #372B28",
"p  c #3B332B",
"a  c #3A3737",
"s  c #27372E",
"d  c #4B2D25",
"f  c #442822",
"g  c #49342D",
"h  c #52322A",
"j  c #59362A",
"k  c #463B36",
"l  c #583A33",
"z  c #502F26",
"x  c #653C2E",
"c  c #653D34",
"v  c #1A4B2E",
"b  c #274B35",
"n  c #2D553D",
"m  c #2F593F",
"M  c #215634",
"N  c #22402E",
"B  c #1C663B",
"V  c #4E423E",
"C  c #4D4436",
"Z  c #52443C",
"A  c #584A3C",
"S  c #6D4135",
"D  c #65413A",
"F  c #78483A",
"G  c #2F5C41",
"H  c #305A41",
"J  c #2F6745",
"K  c #267A49",
"L  c #30734B",
"P  c #306947",
"I  c #464646",
"U  c #544642",
"Y  c #594B46",
"T  c #5D5141",
"R  c #585757",
"E  c #4A5659",
"W  c #6A4C45",
"Q  c #724B43",
"!  c #794C44",
"~  c #64534D",
"^  c #6B5B4A",
"/  c #6D5A55",
"(  c #675753",
")  c #715D57",
"_  c #735F58",
"`  c #7C5348",
"'  c #75615B",
"]  c #79645E",
"[  c #7E6D58",
"{  c #796854",
"}  c #6C665A",
"|  c #5A6669",
" . c #6C6867",
".. c #7A6761",
"X. c #7D6963",
"o. c #7B7979",
"O. c #6A777A",
"+. c #87523C",
"@. c #824C3E",
"#. c #844F41",
"$. c #865143",
"%. c #8B5345",
"&. c #87564C",
"*. c #9A5E44",
"=. c #96594A",
"-. c #995C4C",
";. c #935748",
":. c #8D5B51",
">. c #985E51",
",. c #99675A",
"<. c #82715B",
"1. c #826C58",
"2. c #A6644E",
"3. c #A2695D",
"4. c #A86653",
"5. c #B66E53",
"6. c #B87257",
"7. c #816C65",
"8. c #846F68",
"9. c #8A746D",
"0. c #87736A",
"q. c #8D7670",
"w. c #897B78",
"e. c #927B75",
"r. c #957F78",
"t. c #937A64",
"y. c #B77967",
"u. c #AD7164",
"i. c #CB7C5B",
"p. c #C37757",
"a. c #D17F5D",
"s. c #C07B6C",
"d. c #C27E70",
"f. c #308553",
"g. c #31995C",
"h. c #298F53",
"j. c #2FA35F",
"k. c #2FA760",
"l. c #31A661",
"z. c #31AE65",
"x. c #31B166",
"c. c #32B468",
"v. c #9A837C",
"b. c #96817B",
"n. c #958168",
"m. c #A48D72",
"M. c #B9967B",
"N. c #B18D76",
"B. c #D7835F",
"V. c #D8835F",
"C. c #C98265",
"Z. c #D98560",
"A. c #DA8D6B",
"S. c #D68867",
"D. c #CC8473",
"F. c #C88774",
"G. c #D58979",
"H. c #DC9577",
"J. c #DF906E",
"K. c #E1997D",
"L. c #E28A64",
"P. c #7C8A8E",
"I. c #888786",
"U. c #9F8780",
"Y. c #958985",
"T. c #939899",
"R. c #A48B84",
"E. c #A48A84",
"W. c #A8938D",
"Q. c #BA9D82",
"!. c #AA9792",
"~. c #BCA283",
"^. c #9AABAF",
"/. c #A6A7A7",
"(. c #B9B8B7",
"). c #B1A5A2",
"_. c #8F9EA0",
"`. c #DB9681",
"'. c #C19B87",
"]. c #E79685",
"[. c #E29E82",
"{. c #E99987",
"}. c #EA9A88",
"|. c #F09C8A",
" X c #DABA97",
".X c #CCAA8E",
"XX c #E9AC92",
"oX c #E9B89C",
"OX c #F5B89C",
"+X c #ECA58C",
"@X c #EDBAA2",
"#X c #C1BFBD",
"$X c #E7C39E",
"%X c #E6C6A0",
"&X c #EACAA4",
"*X c #F7C8A6",
"=X c #FCD5AD",
"-X c #F7D4AC",
";X c #F3CAB6",
":X c #FFDCB2",
">X c #F5D0BC",
",X c #E8C6B6",
"<X c #FFE0B6",
"1X c #FFE4B8",
"2X c #AFBEC1",
"3X c #BFC2C2",
"4X c #C2C7C7",
"5X c #C8D4D6",
"6X c #FADECD",
"7X c #F4D4C2",
"8X c #F8DFD0",
"9X c #FCE4D5",
"0X c #CDDFE2",
"qX c #D2E7EB",
"wX c #D5EEF3",
"eX c #D7F2F7",
"rX c #CEE0E3",
"tX c #E7E7E7",
"yX c #F5F5F5",
"uX c #FFFFFF",
"iX c #F8F7F7",
/* pixels */
"                                                                                                                              ",
"                                                                                                                              ",
"                                                                                  . . . . . . . . . . .                       ",
"                                                                                = q 0 q 0 0 0 0 0 0 5 1 1                     ",
"                                                                        $ $ $ O S 5.B.B.B.S.B.B.V.V.5.=.$.= # O O             ",
"                                                                  . o . x p.p.p.C.B.B.B.B.B.B.B.B.V.B.i.i.p.p.2.j . .         ",
"                                                          . . . q *.*.*.5.V.V.V.V.B.B.B.B.B.B.B.B.V.B.B.V.Z.V.i.6.*.+.q . .   ",
"                                                          . z S +.V.V.V.V.V.V.V.B.B.B.B.B.B.V.B.B.B.B.B.V.V.V.V.Z.Z.V.+.S j . ",
"                                                          . @.5.C.K.Z.V.V.B.B.B.B.B.B.B.B.B.B.B.B.V.B.V.B.V.B.B.V.V.B.V.K.y.0 ",
"                                                            X h M.6XA.V.B.B.B.B.V.B.B.B.V.B.B.B.V.B.V.B.V.B.V.B.V.V.V.V.oX;XV.",
"                                                          . x '.9X6XA.V.V.B.V.V.B.Z.V.B.V.V.V.V.B.V.B.V.B.V.B.B.V.V.V.V.oX;XV.",
"                                                          . c y.oX9X>XK.B.V.V.V.B.B.B.B.V.V.V.V.B.V.V.B.V.B.B.B.V.V.V.@X@XH.V.",
"                                                          . c 5.J.@X9X;XK.a.V.V.B.V.V.B.B.B.V.V.B.6.i.B.V.a.V.V.J.@X@X.XN.p.V.",
"                                                          . F 5.i.Z.,X9X;XK.[.i.p.i.S.K.K.K.K.H.p.-.C.K.[.[.s.A.@X9X>Xy.+.F *.",
"                                                          . c -.2.a.Z.*X9X6X7X3.;.4.H.6X6X6X8X,X-.$..X9X6X6X3.'.8X7XZ.V.F O . ",
"                                                          X c -.=.-.a.S.A.A.S.-.;.;.4.A.A.A.J.C.;.1 $.J.A.S.0 l u.S.2.i.a.+.. ",
"                                                          . c -.=.=.4.j 5 5 0 %.=.=.=.2.4.x 5 2 4 x d S a.2.1 O z *.5 5.Z.*.. ",
"                                                            i S =.%.z c Q Q Q d F =.=.;.j O y  .. 0 = 0 4.z d d x #.X d *.+.. ",
"                                                            . f =.%.O 3.G.y.d.j j #.%.c O t T.tXI # . 1 j X h F c x X . f d . ",
"                                                            . d =.$.# 3.&.2 ;.G.g 0 F . . /.uXuXiXs . . . O O . . . .     . . ",
"                                                            . d -.$.O 3.K.4.1 d.d i F . . /.iXuXiXs . . $ F $.0 . .           ",
"                                        . . . . . .       . h #.=.$.O 3.*XM.@  XZ 5 @.. . /.uXuXiXi . 1 F D.G.l . .           ",
"                                        ^ [ [ [ 1.1.C   O d $.-.=.%.h c M.&Xt.*X1.f 5 . . /.uXuXuX/.y i D.OX|.D . .           ",
"                                      k $X1X:X*X*X=Xt.4 X x S F =.=.=.f ^ M.'. XD.! f k k Y.(.(.(.#X .! OX=X`.&.4 .           ",
"                                < % 9 -X=X=XOX{.{.].{.3.. o . f %.#.%.;.d . X %.D.|.+X:X:X^ * : : : >.OX:X=XN.F.,..           ",
"                            . . P.P.9 &XXX}.|.{.{.].{.3.o b % X O O $ c h . # y.].XX:X:X:X&X%X%X%X%X&X:X:X:X*X=XN..           ",
"                          . . .  .(._.C d.|.].{.}.}.:.u N m b s w . . = $ . O >.D.OX<X<X:X:X:X:X1X:X:X:X:X:X<X1XM..           ",
"                        . * <.[ W R O.O.W y.K.s.s.&.p e m m m H b w w X . . . 0 ,.`.OXOX:X:X:X:X:X:X:X X{ <.&X~.C .           ",
"                      p k A ~.*XA @ Y ^.E ) >.c c $ w H G m m J P L L v 7 6 % . f -.G.{.*X*X*X-X:X:X1XM.u o n.C . .           ",
"                    . m.:X~.@ F.l A  X4 ^.| . . . . 8 n m b m f.x.z.z.z.x.j.G - + 0 -.D.D.G.D.H.$X$X&X&X.X+ O = : : .         ",
"                    . m.m.* O C.l A =XD.p         . . 8 n o K z.x.z.z.z.z.z.k.j.J w # * $ $ * : : : : : : o ,.XX&X.X*         ",
"                    . 9 { ~.M.C O * A K.4               6 K j.z.z.x.x.z.z.z.x.x.g.h.K s o .         o u :.& F.:X1X-X~.p       ",
"                      . ^ -X<.{ 1.<.{ Q 4             % w f.k.x.z.x.z.z.z.z.z.x.c.c.l.f.e -         . Z XX&.$X:X:X:X:Xi       ",
"                        T m.C $X1X&Xm.o             % 8 m n g.x.z.z.z.z.z.x.z.x.g.l.k.f.v % .       . Z *XXX-X:X:X:X:X{ u     ",
"                          t $X$X&Xn..             + e J J J g.x.x.z.k.l.l.z.z.k.L K f.; ; O X .     ; l `.:X:X:X:X:X:X<X{ .   ",
"                            : ; ; ;             . K l.k.j.j.z.z.z.k.P J f.z.l.L g.B 9 F.G.3.z . . . P.T.i &X:X<X:X:X:X:X{ .   ",
"                                              & K k.x.x.z.x.z.x.x.z.g.e e L L G e C y.{.*X$X.XQ.Q.~.}  ._.V  X1X:X:X:XOXQ .   ",
"                                            6 B z.x.x.z.z.x.z.z.k.f.f.N 7 8 w m % c |.{.=X<X<X:X<X1XD b /.+ F.OX*X:XOX,.d     ",
"                                          . 6 h.z.z.z.z.z.z.z.z.j.P H H e % - e % l G.{.OX=X:X:X:X:Xt.A } i :.D.+X*Xu.9       ",
"                                        . o o & h.g.k.x.z.x.z.z.z.l.P H H H n + . 0 -.H.{.OX:X=X:X:X<Xv.; 9., Q G.y.#         ",
"                                        . w e . + & B x.x.z.z.z.z.z.l.L m m n o . . 4 -.G.}.OX:X:X:X<Xm.. * . O $ $           ",
"              . . .                       % % = 3.u.A 6 r k.z.k.z.z.L G H H n o .     2 i $.D.OX:X1Xn.9 . .                   ",
"            k u . . .                     . . # Q ! ! ! W M v h.c.l.J n G b w +           5 l Q [ [ u .                       ",
"          t ( k . . : ;                   . . . . . l u.,.X . v h.h.G H H N .               . . . . .                         ",
"        @ e.i . . * ~ t o               . . @ * @ @ @ @ . . . . - b b n b s . . . .                                           ",
"        @ r.i . ; ~ / / g . .           . p ..r.r.) 8./ . . . . . o o X o o . . . . . .                                       ",
"      a (.k @ . ; ) e.7.~ U Z *     . . ~ q.v.E.8.' w.!.^.^.w.~ Y ..U U ~ X.......( g . . .                                   ",
"    I I.o.% . ; k ) U.8./ / / * . . @ U 7.q.q.8.) ) X.Y././.U.7.0.R..._ X.q.q.q.E.v.X.Y U a 9                                 ",
"  a P.I.. . . u ..X.e.7.) ) / * > : > U.8.X.7.X.X.7...7.....Y Z Y ' U U ~ X.X.X.r.R.R.W.W.e.~ 9                               ",
", 4XT.< < < X u X.E.] ) ) ) ( # ( ) 3 U.R.R.R.W.W.!.W.E.R.U.i . . . . . U E.E.E.R.R.R.R.W.W.W.w.;                             ",
"tXiXyXtXtXtXI t X.E.' ) ) ) / * ( q.) R.R.R.R.!.0XqX(.m.U.] ( u . . . k / _ ..U.R.R.R.W.5XqXqX5Xr.,                           ",
"uXuXuXuXiXR ; u X.E.r.7./ ) ) U 0.E.b.R.4X5X5X5XwXeX#X7.t , 3 # . . . ; 3 > , t 7.W.R.W.0XwXwXqX5Xw.i                         ",
"o.o.o.I.O.O . u 7.R.R.r.q.7.) _ e.R.!.(.qXeXeXeX3X/.o.i . .   . . .   . . . . u ) r.R.W.0XwXwXwXwX4Xo.i                       ",
". . . . . . . 3 ~ r.r.r.U.U.7._ 9.v.!.5X5X5X2X_...~ t . .             . . . X k ~ 7.r.E.4XqXwXwXwXeX4Xw.t                     ",
"            . . : ~ ~ ~ ..r.r.] ) 7.E.E.b...k . . .                           . k _ ) ) b.4XwXwXwXqXqX4X9.O                   ",
"                . @ @ @ @ @ # ~ ) ) _ ) 9 O O                                 o l _ ) ) _ r.(.wXwX).W.W.q.o                   ",
"                              3 , > > >                                         : k ) ) ) ..0.Y.).9...q.E...3                 ",
"                                . . .                                           . t ) ) ) / / ) 0.q.q.] U U @ .               ",
"                                                                                . t ) ) ) ..7.7.7.....I o a I I i .           ",
"                                                                                . u ..' ' 9.r.r.q.> . . y yXuXuX/.o           ",
"                                                                                . k E.U.U.k @ @ # . . . y yXuXiX/..           ",
"                                                                                . ; t t y @ . o . . k X.b.iX .H I             ",
"                                                                                  . . . . i Y Y U Y Y U Y o.y .               ",
"                                                                                      . . I X.X...X.p . . .                   ",
"                                                                                      . . . . . . .                           ",
"                                                                                                                              ",
"                                                                                                                              ",
"                                                                                                                              ",
"                                                                                                                              ",
"                                                                                                                              ",
"                                                                                                                              ",
"                                                                                                                              ",
"                                                                                                                              ",
"                                                                                                                              ",
"                                                                                                                              "
};
