/* XPM */
static char *_ac842539b704d8289dfa4bc0c979c059xuBFy68Cb5w8wsC[] = {
/* columns rows colors chars-per-pixel */
"63 75 220 2 ",
"   c None",
".  c #010101",
"X  c #090605",
"o  c #0B0807",
"O  c #060C09",
"+  c #0B0B0A",
"@  c #050907",
"#  c #120D0B",
"$  c #190E0C",
"%  c #110A07",
"&  c #07120C",
"*  c #13100F",
"=  c #1B100D",
"-  c #0A1C11",
";  c #151211",
":  c #1A1514",
">  c #171C1A",
",  c #251612",
"<  c #2C1A15",
"1  c #231E1A",
"2  c #271B16",
"3  c #321E19",
"4  c #301D16",
"5  c #23150F",
"6  c #082013",
"7  c #13251B",
"8  c #0E331E",
"9  c #2A231E",
"0  c #3B231C",
"q  c #36201B",
"w  c #173925",
"e  c #123621",
"r  c #242323",
"t  c #2B2825",
"y  c #322A26",
"u  c #352C2A",
"i  c #382B27",
"p  c #363635",
"a  c #3A3736",
"s  c #2D342B",
"d  c #452A24",
"f  c #4B2D22",
"g  c #463329",
"h  c #5A352B",
"j  c #563529",
"k  c #423633",
"l  c #453935",
"z  c #4A3D3A",
"x  c #5D3A32",
"c  c #643C33",
"v  c #60392E",
"b  c #1A5934",
"n  c #114327",
"m  c #274A35",
"M  c #2D553D",
"N  c #2C563D",
"B  c #1D6B3D",
"V  c #4C443B",
"C  c #57493E",
"Z  c #6D463A",
"A  c #774738",
"S  c #2F5E42",
"D  c #1F6E40",
"F  c #316947",
"G  c #297749",
"H  c #307A4E",
"J  c #30744C",
"K  c #2E734A",
"L  c #494645",
"P  c #5C4C45",
"I  c #5E4E49",
"U  c #534541",
"Y  c #5E5141",
"T  c #5D5D5E",
"R  c #555555",
"E  c #604F4A",
"W  c #734A41",
"Q  c #7A4F46",
"!  c #63534E",
"~  c #695948",
"^  c #7B5149",
"/  c #6C5A54",
"(  c #675752",
")  c #715D57",
"_  c #725E58",
"`  c #75605A",
"'  c #79655E",
"]  c #7B6854",
"[  c #5E5F60",
"{  c #646464",
"}  c #7A6660",
"|  c #7E6963",
" . c #757676",
".. c #7C716D",
"X. c #824E3A",
"o. c #84503A",
"O. c #8C553E",
"+. c #824E42",
"@. c #8A5244",
"#. c #87564B",
"$. c #935749",
"%. c #945849",
"&. c #975B47",
"*. c #8E5B51",
"=. c #865D52",
"-. c #915D53",
";. c #A05F4C",
":. c #866F5B",
">. c #9E6556",
",. c #8E715E",
"<. c #A5634C",
"1. c #AA684C",
"2. c #B16B4E",
"3. c #A86957",
"4. c #B26B52",
"5. c #B56E5A",
"6. c #BA745C",
"7. c #836F69",
"8. c #816C66",
"9. c #86706A",
"0. c #8A746D",
"q. c #8A7863",
"w. c #977A64",
"e. c #8C7872",
"r. c #937C76",
"t. c #967F78",
"y. c #987F78",
"u. c #A77665",
"i. c #BA7869",
"p. c #A86C60",
"a. c #CB7B5A",
"s. c #C57758",
"d. c #D27F5C",
"f. c #C07D6E",
"g. c #C27E70",
"h. c #26824C",
"j. c #2B9758",
"k. c #2E9257",
"l. c #31A15F",
"z. c #31AE65",
"x. c #31A662",
"c. c #31B266",
"v. c #32B468",
"b. c #2FA861",
"n. c #9D866D",
"m. c #9C847D",
"M. c #A18B70",
"N. c #B78D74",
"B. c #D7835F",
"V. c #D9835E",
"C. c #D78561",
"Z. c #DA8662",
"A. c #DB8C69",
"S. c #CB8374",
"D. c #D68A79",
"F. c #D9967B",
"G. c #DC916F",
"H. c #E19675",
"J. c #9A8984",
"K. c #989898",
"L. c gray51",
"P. c #A58B84",
"I. c #A48B84",
"U. c #AB9994",
"Y. c #AB928C",
"T. c #B6A38D",
"R. c #B4AAA6",
"E. c #B7B2AF",
"W. c #B7B7B6",
"Q. c #A7AAAA",
"!. c #9EAFB2",
"~. c #D89882",
"^. c #CB9A88",
"/. c #E89786",
"(. c #F09E8C",
"). c #C9AA8A",
"_. c #DAA88B",
"`. c #DCBE99",
"'. c #D5A896",
"]. c #E5A98E",
"[. c #E7A48B",
"{. c #EBAD92",
"}. c #E6AB90",
"|. c #E9B499",
" X c #F5B499",
".X c #F8BA9D",
"XX c #F3AC94",
"oX c #C7BEBB",
"OX c #D2B3A5",
"+X c #F1BCA2",
"@X c #E6C39F",
"#X c #EDCCA6",
"$X c #E6C6A0",
"%X c #FAC3A3",
"&X c #F8C5A4",
"*X c #F4D3AA",
"=X c #FBD6AE",
"-X c #FFDDB2",
";X c #F4D1BF",
":X c #F1CAB6",
">X c #FFE2B6",
",X c #FFE5B9",
"<X c #D0C0BC",
"1X c #BAD0D4",
"2X c #C3C6C6",
"3X c #C7D4D6",
"4X c #D3D3D3",
"5X c gray85",
"6X c #D6C8C4",
"7X c #F7D6C4",
"8X c #F9DAC9",
"9X c #EFDACC",
"0X c #FDE5D6",
"qX c #D2E8EB",
"wX c #D5EEF3",
"eX c #D6F1F6",
"rX c #DAF4F9",
"tX c #E7E7E7",
"yX c #FEFEFE",
"uX c #F1F1F1",
/* pixels */
"                                                                                                                              ",
"                                                                                                                              ",
"                                                                                                                              ",
"                                                            . . . . . . . . . . . . . . .                                     ",
"                                                        . . d Z o.o.o.o.o.o.o.o.o.o.A h h , . . .                             ",
"                                                      , j j &.s.Z.Z.Z.Z.Z.Z.V.Z.Z.Z.B.4.4.A f f q %                           ",
"                                                    = j B.V.V.B.V.V.B.B.B.B.V.V.V.B.C.V.V.Z.Z.d.<.0 , 5                       ",
"                                                  . A B.B.B.V.B.V.V.B.C.V.B.V.C.B.B.B.B.B.B.B.B.B.a.B.O.o X                   ",
"                                        . . . . . O.s.V.C.B.B.V.B.V.B.B.B.V.B.C.B.V.B.B.B.B.V.B.B.Z.V.F.OX2.< . .             ",
"                                        . f O.o.X.s.Z.C.V.B.B.C.C.B.B.B.B.B.B.B.B.B.B.B.B.B.C.B.B.V.d.}.8XA.&.0 .             ",
"                                          h O.&.[.A.C.B.B.B.C.C.B.B.B.B.B.B.B.C.B.B.C.B.C.B.B.V.B.B.F.|.@XZ.&.f               ",
"                                          . X i 9X].Z.B.B.B.C.C.B.B.V.C.C.V.B.C.B.B.V.B.V.B.B.V.B.G.:X#Xa.V.f =               ",
"                                          . < >.8X0X|.C.Z.Z.Z.C.B.d.V.V.Z.Z.Z.C.B.B.V.Z.Z.Z.V.V.Z.:X0XOX<.a.a.j .             ",
"                                          . 3 <.G.7X0X7X7X7X8X^.&.<.g.+X8X8X-XA.4.4.H.7X8X8X'.u.7X[.G.G.4.< , % .             ",
"                                          . 4 %.2.~.^.^.}.}.{.i.%.%.4.F.{.{.[.6.v 0 A }.}.{.u.j [.A.Z.V.a.o.= .               ",
"                                          . 3 %.$.4.<.1.V.V.V.5.%.%.$.4.<.X.A v $ % d o.s.a.Z $ 2.O.<.s.s.V.<                 ",
"                                          . < %.%.%.+.@.2.2.a.4.%.%.%.X.0 X r @ . 3 c X 4.&.j 3 @.# d A A 2.,                 ",
"                                          . 3 $.%.%.f % % % c $.$.%.@.< . L qXt . . . X A 3 3 @.@.= . X X X .                 ",
"                                              < @.3 W g.i.g.g # 3 @.2 X [ tXyX4XL . . . = X X = # X . .                       ",
"                                              % @.$ ^ g.c p.>.d , @.X .  .yXyXyXR . . . . 3 q . . . .                         ",
"                                              # @.= +.f.j h S.*.d h 3 %  .yXyXyXR . . . < $.A . . .                           ",
"                                              # Z $ ^ (.~.# u.A.A X %.<  .yXyXyXR . . X @.D.*.. . .                           ",
"                                                X . W {.$X: T.%Xp.: g.f  .yXyXyXT . . # g.(.-.. o .                           ",
"                                                . . # ~ -X`.*X.X~.i./.D.^ T yXyXtX ., i.F.%Xw.7 2Xt                           ",
"                                                . f , : E ~ u._..X.X%X%X).q.[ [ T ) p.%X%XF.u.=.T ;                           ",
"                                                0 +.f o < . A ].-X-X-X-X-X`.E C C n.%X-X-X).F._.Y *                           ",
"                                              % A A 3 < @., -._.=X-X-X-X-X-X>X-X@X#X>X>X-X>X-X-X=Xt                           ",
"                                              . . X . < @.@.2 W {.:X-X-X-X-X-X-XC ~ =X*X*X=X-X-X*X9                           ",
"                                                    . X $ $ X % 9 g @X>X-X-X-X-X@Xq.9 9 r N.,X`.i                             ",
"                                                . . . - B B B B B w C C n. X X-X,X`.n.M.M.$X).C                               ",
"                                                . . 6 B c.c.v.c.l.K n n V *.-.n.n.n.M.M.M.M.~                                 ",
"                                          + O . . & D v.z.z.z.c.z.c.c.v.B & . . . . . . . @                                   ",
"                                        . w w . @ h.z.z.z.z.z.c.z.z.z.z.z.h.X                                                 ",
"                                      . . @ O @ m j.v.z.c.z.c.c.l.F x.z.v.h.X                                                 ",
"                                    . . . . & s M F H H H b.c.c.j.S x.v.G e                                                   ",
"                                    . . - + - F H H H H H b.c.l.h.S k.x.B .                                                   ",
"                                    . 6 m 7 - m h.j.k.j.c.c.l.K m M S h.n .                                                   ",
"                                . . 6 j.F 7 . o O O @ w b.b.K 7 ; M M - @                                                     ",
"                                . 8 j.c.F 7 , +.i.f.i.:.- - & @ . O O @ .                                                     ",
"                              . . n c.z.w i =._.%X%X%X~.#.v $ . , *.*., . . .                                                 ",
"                              . & b c.z.- Z _.,X-X-X-X&X/.c # 9 :. X X,.C ~ C                                                 ",
"                              . e F x.j.- q.-X-X-X-X-X|.p.p X 8.,X-X-X-X-X>X*X9                                               ",
"                                X 7 M N & #. X=X=X-X Xp.> 1Xp ' -X-X-X-X-X-X@X9                                               ",
"                                    & + . #.(.[.[.[.(.p.> 3XS W  X-X-X-X-X>X#X:                                               ",
"                                      . . 3 W i././.(.p.* Q.t W XX-X-X-X-X-X#X9                                               ",
"                                      . 1 y k v #.*.-.c # t.r W XX-X-X-X-X-X*X:                                               ",
"                    . . . . . . .     . ! J...* : * + . # } 1 x ~.&X*X-X-X*X).9                                               ",
"                    X . . . . X . @   . 7.2XW._ J.} u . . + . . i /./.|.=XT.%                                                 ",
"                  o ' y . . . z E k . X !.Q.e.m.I.M.r.} E E = . X 2 3 9 t 9                                                   ",
"                  X r.a . + l / ` z . .  .J.y.P.I.I.P.t._ _ U l l u . . .                                                     ",
"                : k ! 1 . ; ) ) _ U 1 X ( y.U.E.E.E.W.J.k l l E } 8.u + .                                                     ",
"                r U.: . . ; / ) _ _ I o 7.U.W.eXeXeXrX!.: . % l 8.I.8.1 .                                                     ",
"                p tXr . . ; / ) ) _ E o 7.2XwXwXeXwXeX3Xe.+ z _ 8.P.P.u . .                                                   ",
"                a uXr . . ; / ) ) ) I o 7.2XeXwXwXwXeX3Xt.# z 9.m.P.P.t.z .                                                   ",
"                a tXr . . ; ) 0.| ) I X 7.2XeXeXwXwX3XJ.u . / J.P.P.P.Y.I .                                                   ",
"                a uX .L 1 * ) m.9.) ! i 0.E.3XwXwXeXW._ . r 0.Y.P.P.P.m.V .                                                   ",
"                a yXyX6X/ ; / J.9.) ) _ m.I.R.eXqXqXQ.I + ( y.P.P.P.m.) y .                                                   ",
"                p yXyXyXK.+ ( m.9._ ) _ m.I.R.wXqXR.z . # ( y.I.I.I.} 1 .                                                     ",
"                p yXyXyXK.. : e.P.e.) _ ` r.Y.U.U.e.u : E ) ' ' } } _ 1 .                                                     ",
"                ; [ [ [ R     u k u u / _ 8.9.9.9.k u U ) ) ) ) ) / y ;                                                       ",
"                . . . .       . . . X k k k l k l y z _ ) ) ) _ ! a X                                                         ",
"                                    . * ; * # $ # P _ ` ' } } / l . .                                                         ",
"                                    # ! ( / ) / / / ) ' m.m.I.U . .                                                           ",
"                                    X # # z _ ) ) r % : : : : + .                                                             ",
"                                    # ! ( k 1 1 1 U ! ! / K.K.R .                                                             ",
"                                    : ( J.) L { { R.<XoX6XyXyXL..                                                             ",
"                                      . ) 0.U.5X4X4X4X4X4X4X4X{ .                                                             ",
"                                      . . @ . O + + + + + + + X .                                                             ",
"                                                                                                                              ",
"                                                                                                                              ",
"                                                                                                                              ",
"                                                                                                                              ",
"                                                                                                                              ",
"                                                                                                                              ",
"                                                                                                                              "
};
