/* XPM */
static char *_2a5cd32755e483cfc7a80f9232fea38EEX5H5u9Dx9gnGKx[] = {
/* columns rows colors chars-per-pixel */
"63 75 226 2 ",
"   c None",
".  c #010101",
"X  c #090605",
"o  c #040A06",
"O  c #0D0807",
"+  c #0C0A09",
"@  c #060E0A",
"#  c #140C0B",
"$  c #150C0A",
"%  c #06110B",
"&  c #0A130D",
"*  c #07180E",
"=  c #13100F",
"-  c #1C110E",
";  c #0D1B13",
":  c #151312",
">  c #1B1513",
",  c #1E1917",
"<  c #1C1A19",
"1  c #241512",
"2  c #2A1A16",
"3  c #241E1D",
"4  c #271914",
"5  c #311E1A",
"6  c #311C17",
"7  c #23140D",
"8  c #0C2919",
"9  c #15281D",
"0  c #0D341E",
"q  c #27211D",
"w  c #38221C",
"e  c #1A2920",
"r  c #193B27",
"t  c #232222",
"y  c #2B2422",
"u  c #2D2821",
"i  c #342B28",
"p  c #372B26",
"a  c #223B29",
"s  c #3A302E",
"d  c #3C3736",
"f  c #2C3132",
"g  c #44281E",
"h  c #472C24",
"j  c #5A362D",
"k  c #573429",
"l  c #453B31",
"z  c #4B3E3A",
"x  c #4A3C34",
"c  c #5B3B33",
"v  c #503931",
"b  c #443B2F",
"n  c #633C2D",
"m  c #683F2E",
"M  c #683E33",
"N  c #194E2F",
"B  c #244531",
"V  c #274B35",
"C  c #28553A",
"Z  c #21422E",
"A  c #4E413A",
"S  c #51433D",
"D  c #574539",
"F  c #6E4136",
"G  c #67443B",
"H  c #744539",
"J  c #7D4A3D",
"K  c #794936",
"L  c #6A412F",
"P  c #315C41",
"I  c #30724B",
"U  c #307D4F",
"Y  c #2E6845",
"T  c #1F6E40",
"R  c #434344",
"E  c #4B4A48",
"W  c #544642",
"Q  c #594945",
"!  c #594B47",
"~  c #595452",
"^  c #5D524E",
"/  c #774C43",
"(  c #64534E",
")  c #6C5A49",
"_  c #6D5A55",
"`  c #665652",
"'  c #715D57",
"]  c #735E58",
"[  c #6C5149",
"{  c #70614E",
"}  c #766652",
"|  c #7C6A55",
" . c #75615B",
".. c #7A655A",
"X. c #7D6A64",
"o. c #796761",
"O. c #767574",
"+. c #6D6D6D",
"@. c #85503D",
"#. c #824E40",
"$. c #8D5446",
"%. c #85554A",
"&. c #935941",
"*. c #9B5F45",
"=. c #955849",
"-. c #995B4B",
";. c #915648",
":. c #8F5E53",
">. c #8C6D5A",
",. c #A3614D",
"<. c #A9644E",
"1. c #A46A5D",
"2. c #AC6B5C",
"3. c #A76654",
"4. c #B66E56",
"5. c #BD7256",
"6. c #BB755D",
"7. c #B16A4F",
"8. c #806A64",
"9. c #856F68",
"0. c #89736C",
"q. c #86716B",
"w. c #8E7972",
"e. c #8E7770",
"r. c #937B75",
"t. c #967F78",
"y. c #957763",
"u. c #AF7768",
"i. c #A05E4B",
"p. c #CC7C5A",
"a. c #C47759",
"s. c #D17F5D",
"d. c #C27B68",
"f. c #28844E",
"g. c #2D8C54",
"h. c #318654",
"j. c #2C9D5B",
"k. c #2B9355",
"l. c #31955A",
"z. c #2FA25E",
"x. c #31AE65",
"c. c #31A561",
"v. c #31B166",
"b. c #32B568",
"n. c #2FA961",
"m. c #9B837C",
"M. c #978079",
"N. c #9D876E",
"B. c #B08D78",
"V. c #D7835F",
"C. c #D8845F",
"Z. c #C9856E",
"A. c #D78360",
"S. c #DA8561",
"D. c #DB8C69",
"F. c #CC8474",
"G. c #C48573",
"H. c #D68B7B",
"J. c #D89477",
"K. c #D29278",
"L. c #E09A7B",
"P. c #7D8B8E",
"I. c #898786",
"U. c #9D8A84",
"Y. c #9B9998",
"T. c #839598",
"R. c #A48B84",
"E. c #A6928C",
"W. c #A99A96",
"Q. c #B09E99",
"!. c #B7A79C",
"~. c #B9A38C",
"^. c #A8A9A9",
"/. c #B3A9A6",
"(. c #BABABA",
"). c #B4B8B8",
"_. c #B2B2B1",
"`. c #8C9EA2",
"'. c #C89981",
"]. c #DD9381",
"[. c #C29F92",
"{. c #E49584",
"}. c #E89B86",
"|. c #D6B895",
" X c #D8A893",
".X c #E6A28A",
"XX c #EAAB91",
"oX c #F2AB93",
"OX c #E9B499",
"+X c #F5B89B",
"@X c #DBB5A5",
"#X c #DCBDB0",
"$X c #EBBBA5",
"%X c #F6BFA4",
"&X c #EAC8A4",
"*X c #F5CBA8",
"=X c #FCD4AD",
"-X c #F4D2AA",
";X c #EDC9B7",
":X c #F4CDB9",
">X c #F3C9B3",
",X c #FFDCB2",
"<X c #F5D0BC",
"1X c #FFE0B6",
"2X c #B4BFC0",
"3X c #B9C3C5",
"4X c #C6C9C9",
"5X c #C9D9DB",
"6X c gray84",
"7X c #F6DDCE",
"8X c #FBE1D1",
"9X c #FFECDE",
"0X c #FDE6D8",
"qX c #CCDEE1",
"wX c #D1E6EA",
"eX c #D2E9EE",
"rX c #D4EDF2",
"tX c #D6F0F6",
"yX c #D8F3F8",
"uX c #CCE1E5",
"iX c #ECECEC",
"pX c #E6E4E4",
"aX c #FFEEE0",
"sX c #FEFEFE",
"dX c #F1F1F1",
"fX c #FFF1E4",
/* pixels */
"                                                                        . . . . . . . X . . . X .                             ",
"                                                                . . . $ L &.*.*.*.*.*.*.*.&.F M w . . .                       ",
"                                                            . o j L L K 4.V.S.S.S.S.S.A.A.A.5.5.&.M m h -                     ",
"                                                          4 w w 5.C.S.S.C.C.C.A.C.C.C.V.C.C.A.C.A.S.A.7.j 2                   ",
"                                                        O n A.V.A.V.V.V.V.V.V.V.V.C.V.A.V.C.A.V.C.C.V.V.A.@.+                 ",
"                                                      X @.p.V.V.V.V.V.V.V.V.V.V.V.V.V.V.V.V.V.V.V.V.C.V.V.p.*..               ",
"                                                    O @.,.4.A.V.V.V.C.V.V.V.V.C.V.V.C.V.V.V.V.V.C.V.V.V.V.C.p.&.-             ",
"                                                    X k u.K.A.V.C.V.V.V.V.V.V.V.V.V.V.V.V.V.V.V.V.V.V.V.V.V.D.XX,             ",
"                                                    . - Q.>Xs.V.V.V.V.V.V.V.V.V.A.V.V.V.A.V.V.V.C.C.C.C.V.V.L.7XD 7           ",
"                                                    X J @X>XD.V.V.V.V.V.V.V.V.V.V.V.V.V.V.s.V.V.C.S.s.C.S.D..X7XD.g .         ",
"                                                    X H @X0X:XD.A.A.C.V.A.A.V.A.A.A.A.A.a.i.s.C.s.S.s.C.*X7X7X7XL.g X         ",
"                                                    X J Z.%X0X:X:X:XOXD.>X:X:X:X:X:X:X'.-.3.>X<X:X$XD.>X0X>XJ.B.A.g X         ",
"                                                    X J <.F.%XaXaXfX#X6.[.7XaXaXaXaX>XB.@.j  X7XaX;X6.OX+X.Xp.7.K 1 .         ",
"                                                    X J =.,.d.!.!./.B.=.;.$X:X;X#X!.1.@.h $ 7.OX:X[.M &.7.p.V.p.$ . .         ",
"                                                    X J -.;.M > - = g $.=.a.V.a.#.O : + . O J a.4.H X O c 7.C.p.- . .         ",
"                                                    X J -.c w d.F.H.%.1 $.=.5.a.#.O _.O.. . O H i.M O H 6 L A.p.7             ",
"                                                    X @.=.k 4 ].c #.2.:.5 J i.@.p _.dXpXI.. . F M - . 1 X j V.*.$             ",
"                                                    X / -.k 4 ].%.k %.F.# H M 2 < dXsXsX).. . w - O h . . k ,.h #             ",
"                                                    . J -.k 2 {.oXc v '.O H g . t iXsXsX_.. . - 5 c ,.# . 6 k .               ",
"                                                    $ @.=.j 5 F.-X .) |.$ M p . t iXsXsX(.> . F d.{.H.> . . .                 ",
"                                                  - #.;.=.;.H 4 |.-X*X|.+ + X . t iXsXsXsX4X: 1.{.}.H.> . .                   ",
"                                                  X 2 4 F -.$.M x l ) u.1.- c 2.1.R z P C S B.&X>XXX2.1.5 .                   ",
"                                                  . .   5 M =.=.# . 6 ,.{.y.K.+XOX8.] ..| N.,X1X,X-X'.+Xx .                   ",
"                                                        . w $.M # . 4 J Z.%X1X1X,X1X,X,X1X1XB.-X,X,X,X1XA .                   ",
"                                                        . 5 F X . . . - $.F.+X,X,X,X,X,X,X&Xq B.&X&X,X&XA                     ",
"                                                        . X O . . . . = $.-.Z.OX,X,X,X,X,X=X&XD & D &Xp                       ",
"                                                          . . . . . . . 1 1 6 / oXoX=X1X1X1X1X|.~.N.b                         ",
"                                                          . . . 9 Z N N 9 o 1 j / / | | | | | 8.>.{                           ",
"                                                        . . o 0 Y l.b.c.I 9 h h . . . . . . . . . .                           ",
"                                                      . . . 8 n.v.v.v.v.x.I r % % .                                           ",
"                                                    . . . N j.x.v.x.x.x.x.c.j.j.f.o                                           ",
"                                                  % a o N k.x.x.v.x.v.c.I I l.b.j.%                                           ",
"                                                ; e e e f.v.x.v.x.v.x.z.P C h.b.j.o                                           ",
"                                              & Z C @ V l.v.v.v.x.x.v.z.B C U l.T o                                           ",
"                                            o Z h.f.o a f.j.j.j.n.v.x.f.@ B P a . .                                           ",
"                                          X B g.g.B . o @ & & * k.v.l.C o B P a .                                             ",
"                                        & B g.U N u 1.1.2.1.1.1.a 8 8 & . @ * @ .                                             ",
"                                        ; h.x.C & 2 }.+X%X+X+X+X:.k 6 . . c / h . . .                                         ",
"                                      . 8 x.v.0 $ Q XX=X,X,X,X,XoX3.g X x '.+XB.l b b p                                       ",
"                                    . . 0 x.v.9 M .X=X,X,X,X,X=X].c + 3 -X,X,X=X,X,X,X} .                                     ",
"                                    . 9 Y x.x.0 h 2.}.=X,X,X>X}.p P.P.3 *X,X,X,X,X,X1X} .                                     ",
"                                    . 9 P I I 8 O h 2.}.oXoXoX].4 T.`.1 .X=X,X,X,X,X1X} .                                     ",
"                                      ; e 9 e @ . O h 2.6.F.}.{.3 O.O.4 H.=X,X,X,X,X1X} .                                     ",
"                                        . . . . . . . k M %.2.1.: ` _ 4 H.=X,X,X,X,X1X} .                                     ",
"                                        . . + + + + + . . . . . . ^ ( > G.*X,X=X,X,X-X{ .                                     ",
"                                        . X Q ( ` ` ^ # . . . . . + + . 7 u.}.oX,X,XD +                                       ",
"                                    . . . X ( _ X.U.2X` W W l . . . . . . 5 h s b b                                           ",
"                                    . . O s ` 8.E.).^.t.o.! u . . . . . .   . . .                                             ",
"                                    . O i 8.8.E.4X5XI.R.0.A : . . # = .                                                       ",
"                                    . i X.R.R.3XuXuXqXU. .` W # + z A +                                                       ",
"                                  . . i  . . .o.X.O.o.< + O > ( ( _ _ Q X                                                     ",
"                                . . s ( _ ] r.r.W.3X3X` > . . , , A ] ! X                                                     ",
"                              . . . W ] ..e._.2X5XtXeXE : . X i i Q o.X.s :                                                   ",
"                            . . . > Q  .w./.eXtXtXwX2X< . + u ' ] o.0.R.X.>                                                   ",
"                          . . . + ( ' 0./.eXtXrXeX3X( > . y ] ' ] t.E.E.E.3                                                   ",
"                      . . . . . + [ ' 9./.rXrXyX).~ & Q 3 y ' ] t.R./.wXqXf                                                   ",
"                    . X z W W A Q _ _ Y.5XrXtX^.^ 3 S _ 3 y ] ] m.R._.yXeXf                                                   ",
"                  3 i b _ ] ] ] ] 0.0.W.4XeX_.~ > : ' ] z z ] ] m.R./.eX#Xe                                                   ",
"                > z  .] ' ' ] ' ] t.t.t.E.).^ : . > _ ] ] ] ' ] m.R./.4Xt.<                                                   ",
"              . Q ] ]  .' ' ' ' ' ' ' ' _ ( , . . : _ ' ' ' ] ] m.R.m.e.` <                                                   ",
"        . . . . Q ' 8.m.] ] ] ' ] ] ' ' W : X.i . : _ ' _ ] ] ] ]  .W = +                                                     ",
"        . . . . Q 0.m.R.t.t.t.t.t.m.8.z : : 4XE . > ' ' ] W > < 3 , :                                                         ",
"        . < z . 5  .Q.(.E.R.R.R.R.R.9.s . : pX~ . X i ` A y   . . .                                                           ",
"        . s r.+ . ! /.wXW.Q./.Q.R.t.` u . : ^.+.R E R W > .                                                                   ",
"        . s w.+ . Q /.5XQ.5XeX4XM._ ,       . ^.sXsXpXy . .                                                                   ",
"        . s w.+ . d q.Q.qXrX4Xm._ :         . ^.sXiXE.<                                                                       ",
"        . s r.o . + l W.wXyX_.( ,             d R z y                                                                         ",
"          t W W = . y U.wX4XO.y                 . .                                                                           ",
"            : m.3 . : ^ 2XE.l .                                                                                               ",
"            > R.d < = O ( _ i .                                                                                               ",
"            t pXiXiXY.+ ` 3 +                                                                                                 ",
"              E 6XsXiX^.y .                                                                                                   ",
"              . 4XsXsXsXI.t                                                                                                   ",
"              o Y.(._.).(.f                                                                                                   ",
"                . . X . . .                                                                                                   "
};
