/* XPM */
static char *_43bd49063974439e082c31f87169e26QihtACyn29voz6OZ[] = {
/* columns rows colors chars-per-pixel */
"63 75 228 2 ",
"   c None",
".  c #010101",
"X  c #0A0605",
"o  c #050A06",
"O  c #0A0907",
"+  c #060C09",
"@  c #0C0B0A",
"#  c #130C0A",
"$  c #170D0A",
"%  c #0A120D",
"&  c #06180E",
"*  c #1B110E",
"=  c #13110E",
"-  c #0C1A12",
";  c #151312",
":  c #1A1513",
">  c #1C1917",
",  c #1D1A19",
"<  c #171A1A",
"1  c #22140E",
"2  c #241611",
"3  c #2A1A16",
"4  c #221D1B",
"5  c #271916",
"6  c #331F19",
"7  c #0C2717",
"8  c #15271C",
"9  c #29231E",
"0  c #26201E",
"q  c #36211C",
"w  c #3C231D",
"e  c #1C3425",
"r  c #1D3A27",
"t  c #192D21",
"y  c #2B2321",
"u  c #2A2A26",
"i  c #362C28",
"p  c #3B322D",
"a  c #383535",
"s  c #24392F",
"d  c #42271F",
"f  c #4C2D25",
"g  c #452A24",
"h  c #513124",
"j  c #5A362C",
"k  c #56342B",
"l  c #403634",
"z  c #4A3D39",
"x  c #473C35",
"c  c #553932",
"v  c #5A3B34",
"b  c #4F322D",
"n  c #633D2C",
"m  c #633D34",
"M  c #1B5232",
"N  c #22412E",
"B  c #274A35",
"V  c #2D563D",
"C  c #2F583F",
"Z  c #275138",
"A  c #30573F",
"S  c #1D673B",
"D  c #4E423B",
"F  c #56463C",
"G  c #6D4133",
"H  c #7C4A3C",
"J  c #744538",
"K  c #2F5B40",
"L  c #305A41",
"P  c #3F4749",
"I  c #2F6544",
"U  c #2F6947",
"Y  c #316947",
"T  c #307B4E",
"R  c #30724B",
"E  c #227544",
"W  c #5B4C45",
"Q  c #5D4E49",
"!  c #544541",
"~  c #5E5145",
"^  c #515353",
"/  c #64534D",
"(  c #665547",
")  c #7B5449",
"_  c #6C5A54",
"`  c #685853",
"'  c #715D57",
"]  c #735F58",
"[  c #7F5850",
"{  c #704C44",
"}  c #74605B",
"|  c #7A655A",
" . c #71614F",
".. c #566163",
"X. c #656565",
"o. c #7C6760",
"O. c #7E6B65",
"+. c #787574",
"@. c #7E736F",
"#. c #555E60",
"$. c #87513C",
"%. c #83554C",
"&. c #895444",
"*. c #96594A",
"=. c #8A5B51",
"-. c #935E53",
";. c #814D41",
":. c #866656",
">. c #9A6559",
",. c #93725E",
"<. c #A3624D",
"1. c #A9634A",
"2. c #A86855",
"3. c #B36D52",
"4. c #B86F57",
"5. c #B97154",
"6. c #826C66",
"7. c #846F68",
"8. c #85716B",
"9. c #8A746E",
"0. c #8E7A63",
"q. c #887873",
"w. c #917A73",
"e. c #967F79",
"r. c #967D66",
"t. c #A96F61",
"y. c #AB7163",
"u. c #B57668",
"i. c #B07769",
"p. c #A05F46",
"a. c #CD7D5B",
"s. c #C57859",
"d. c #D17E5B",
"f. c #C27D6F",
"g. c #C27E70",
"h. c #2C8A52",
"j. c #308B55",
"k. c #318252",
"l. c #289153",
"z. c #2C9858",
"x. c #319359",
"c. c #319A5C",
"v. c #31A15F",
"b. c #2EA45F",
"n. c #31AE64",
"m. c #31A460",
"M. c #31B166",
"N. c #32B568",
"B. c #2FA761",
"V. c #9B866D",
"C. c #9B837D",
"Z. c #998478",
"A. c #AC9478",
"S. c #B5987B",
"D. c #AD8872",
"F. c #D7835F",
"G. c #D8835F",
"H. c #DA8561",
"J. c #D68764",
"K. c #C88474",
"L. c #D48A7A",
"P. c #DB8E7D",
"I. c #D99476",
"U. c #CF8160",
"Y. c #E29A7B",
"T. c #E0926F",
"R. c #7E898B",
"E. c #8A8A8A",
"W. c #9C9C9C",
"Q. c #949393",
"!. c #929191",
"~. c #A48B84",
"^. c #A48B85",
"/. c #A8938C",
"(. c #B19E94",
"). c #B6A18F",
"_. c #A3A3A3",
"`. c #ABAAAA",
"'. c #B5B6B5",
"]. c #B1AFAD",
"[. c #8D9FA2",
"{. c #D99A82",
"}. c #E59584",
"|. c #EA9887",
" X c #E89B87",
".X c #C8AA8A",
"XX c #CCB08F",
"oX c #D2B593",
"OX c #D9B895",
"+X c #D7AC8C",
"@X c #E7A58A",
"#X c #E9AC92",
"$X c #E9B59A",
"%X c #F5B89B",
"&X c #F0AB93",
"*X c #E9BDA8",
"=X c #D6B6A8",
"-X c #E2C39D",
";X c #EFC2AB",
":X c #ECCBA4",
">X c #F7C9A9",
",X c #F5D3AB",
"<X c #FCD3AC",
"1X c #FFDDB3",
"2X c #F5D0BD",
"3X c #F1CCB9",
"4X c #FFE1B6",
"5X c #FFE4B9",
"6X c #D2C1AE",
"7X c #B4C4C7",
"8X c #C7CACA",
"9X c #C9D8DB",
"0X c #D7D7D7",
"qX c #D8CFCD",
"wX c #F6D6C4",
"eX c #F8D9C7",
"rX c #EDD5C8",
"tX c #FDE6D7",
"yX c #C9DFE3",
"uX c #D2E7EC",
"iX c #D5EEF3",
"pX c #D6F0F6",
"aX c #D8F2F7",
"sX c #CEE3E7",
"dX c #E7E7E7",
"fX c #FFEDE0",
"gX c #FEFEFE",
"hX c #F3F3F3",
/* pixels */
"                                                                                                                              ",
"                                                                                                                              ",
"                                                                                                                              ",
"                                                                                                                              ",
"                                                                        . . . . . . . . . . . . . .                           ",
"                                                                      3 g h h h h h h h h h h f q q 2                         ",
"                                                              1 5 2 2 H s.H.G.H.H.H.H.H.G.H.H.a.<.<.k 1 2 $                   ",
"                                                  . . X   X . G F.d.a.d.F.G.G.G.F.G.F.G.F.F.F.F.F.F.d.d.s.*.5 X X             ",
"                                                  . j $.# p.3.s.G.F.G.F.F.F.H.F.F.H.F.F.F.F.F.H.F.F.F.F.F.U.5.3.H . .         ",
"                                                    w n $.F.F.F.F.F.F.F.F.F.F.F.F.F.F.F.F.H.F.F.F.F.F.G.G.F.F.G.5.&.C.i .     ",
"                                                    . q a.@XT.F.F.G.F.G.H.F.G.F.F.F.F.F.F.F.H.F.F.F.F.F.G.F.F.F.G.T.tX:.2 .   ",
"                                                    @ g D.eXI.F.F.F.F.F.F.F.F.F.F.F.F.H.F.F.F.F.F.F.F.G.F.F.F.F.H.Y.2XY.G .   ",
"                                                  . f D.tXtX XJ.H.F.G.F.F.F.G.F.F.H.F.F.F.G.H.F.F.F.F.F.G.G.G.F.@XrXJ.F.G .   ",
"                                                  . f 3.}.tXeXwX;XF.G.2.5.G.F.F.F.F.G.G.F.F.d.H.F.F.F.F.G.G.F.#XtXrXq 2 $     ",
"                                                  . f 2.H.@XeXfXtX$XJ.<.D.;X;X;XI.s.5.F.$X;X;X$X3.a.G.I.;X;X;X$X@X+X&.1       ",
"                                                  . f <.s.d.$X*X3XtX$X4.K.2XfXfX@X<.J J.eXfXfXrX>.{.#X:XfXtX2XI.p.$.$.2       ",
"                                                  . h *.*.s.a.a.Y.wXeXi.1.I.wXwXY.G 1 2.;XwXwX*X;.=XwXwXeXrXI.4.J 1 . .       ",
"                                                  . f *.*.*.&.3.F.J.J.1.*.<.U.F.2.h . * 3.U.J.3.$ H 4.J.d.*.s.d.d.5.$         ",
"                                                  . X d &.1 $ $ g *.<.*.*.H 5 1 * O * J q : k &.. # G 2.&.2 &.<.5.d.5.6       ",
"                                                    . O g %.-.-.{ d *.*.m 2 . E.a . X 6 X . # w j @ * j &.n w 6 d f h 2       ",
"                                                    . . * L.t.y.y.j v j 3 ; X.hXW.a . . . . # w j # . * v j # . . . .         ",
"                                                    * O * L.v f *.P.* . . P gXgXgXQ.. . . O h H . . , , . . . . .             ",
"                            O O O O O O           . f m * L.}.J i L.* . . a gXgXgX!.. . . j *.$.X . W._.. .                   ",
"                          y XXoXoXoXoXXXu . . .     $ # $ L.>X| p $X: k w a gXgXgX!.. . . j y.4.# `.hX`.. .                   ",
"                    . . g y.$X1X1X4X1X1XS.V.( . . . . . * P.<XOXS.<X>.u.u.[ X.hXgX0X_.W.- :.$X.X@ 0XgXdXE.@                   ",
"                    . a ] >.|.%X<X1X1X1X4X5XS.o r 7 7 - O %.r.V.S.+X|.@X%X{.( !.W.W._.W. ..X,XS.G E.W.W.E.@                   ",
"                  . . [.[.a u.u.#X<X<X<X<X1XA.& b.T Y B + . o . * $.P.>X1X1X,Xx 9 9 9 i -X5X+X4.{.c 9 9 4 .                   ",
"                O X X ` ].'.< @ :.}.}.}.{.%XA.& b.n.n.x.Z + N t . * K.>X1X1X1X,X,X:X:X,X,X1X1X1X1X,X,X,XoX@                   ",
"            . ( oXoXK.k < P 7X7X#.h 2.2.P.) u V B.n.n.n.x.Z A 8 . . 1 .X4X1X1X1X4XV.F 1X4X4X1X1X1X1X1X4X-X#                   ",
"          . | XX1X1X>X).,.) ..yX#.X q w 2.f - L R B.M.N.n.x.Y B 8 O ) ( A.4X1X1X4XoXV.F F F V.4X1X1X4XXXF                     ",
"          . D.<X1X1X1X1X<X{.v R.a . . . g 2 % r A k.j.c.n.M.j.Y s = L.) ) S.1X1X4X5X:X( F ( V.4X4X4X.X ..                     ",
"          . >.&X<X<X1X1X:XOX X5 .     . . . . o N B Z Y c.M.M.j.Z : t.}.=.x XXXXXXoXoXoXOXOXoXoXoXOXD .                       ",
"          . >.|.|. X<X1XV.i :X9           . . . . X e C U b.n.M.z.Z % 2.}.t.@ X O O O O O O O O O O X . @ @ o O O             ",
"            : )  X}.@X{ @ 9 ,X9           . . o N B Z U v.n.n.n.n.c.Z 9 5 : . . . .                 . x OXoXoXoXV..           ",
"              q ) |.|.u.-.=.( >           . @ s C C R c.M.M.n.M.n.n.x.E S S e r % .             . . G i.%X1X1X5XA..           ",
"                5 =.=.-.-.) .           . % e L C R c.M.n.M.n.M.n.n.M.M.M.v.L L e % .         . . D [ i. X1X1X4XXXF           ",
"                  . . . . .           . + r L A L c.M.M.n.n.M.n.M.M.M.n.m.j.B V L r @ .     . . O XX:.F K.>X<X1X4X-X=         ",
"                                      . N C L L C c.M.M.M.M.n.n.m.M.m.M.j.N + Z L A s .   X X . @ u.*XD.3 I.>X1X1X-X;         ",
"                                    % N V C C A C c.M.M.M.M.M.j.U U U v.S o . Z L r @ . . %.{ = 6.i t.>.2 {.>X1X1X-X;         ",
"                                    % K L C C A C R T R T n.M.v.j.j.K R r O e A L e X j %.K.K.%.x Q F 6 2 {.&X>X4X-X;         ",
"                                    o e e e B T T T T T T j.j.j.c.B.I L t % K C N u f *.}.|.|.f.o 9.+.a 1 f.P.%XOX0.=         ",
"                                    . . . X r l.l.l.l.l.h.U Y C U c.L B 8 % C K - w *.2.P.}.|.g.y ] 7X[.X J y.f.%..           ",
"                                      . . k m O @ @ @ @ - z.n.k.L L L - . % V V - w 2.}.|.|.}.}.L.3 R.[.. X X X X             ",
"                  . . . . .           . . h *.H H y.f.f.y.8 & S x.L L - .   + % . v }.|.|.|.|.K.6 X < , . .                   ",
"                . . Q y . . .       . . i i 6 w 6 b v v b . . - M j.K - .     . . 5 v c c c v g . .                           ",
"                @ l ` 4 . X y @     . . _ Q p p a a i 4 0 y @ . 7 n.k.7 .     . . . . . . . . . .                             ",
"              ; p C.: . . ; ` 3     . X 8.~./.(.(.^.8.} | o.p ; e l.l.7 .                                                     ",
"            . z ^.e.; . . ; _ ' y . . . 7.~.].uXuXq.' 6./.^.^.9.! @ + . . .                                                   ",
"            . X.8X: o . 0 / ' ' y . . . / O.O.q.8.] 7._.yXyXyX9X'.8.Q : . .                                                   ",
"          . +.0XqX. . . y ] ' ' ! y . . , ! ] ] q.w.e.].pXpXiXiXuX8X'.+.i . .                                                 ",
"          . '.0X+.. . : z ] 6.] ] z . . 4 i ! o.~.~.~.(.8XiXiXiXpXpXaX8XE.^ y                                                 ",
"          i 7X_.u u o z ] o.~.o.' ! # . W p y / 9.e.~.~./.9XuXiXiXiXaXaXaX7X8.4                                               ",
"        : 0XgXgXhXsX0 x ] o.~.o.' ' W X W ] z o # ! 9.~.~.^.8XiXiXiXiXiXiXiXsX6.0 .                                           ",
"        : uXgXgX0Xi o x 7.~.~.C.6.' Q X W ] ` W Q 4 = p o.o.+.^.'.iXpXaXiXiXuX/.] i .                                         ",
"          #._ X.! . . z 9./.~.^.7.' / z / ] ' ] ] ! 2 O y y 0 i z #.E.Q._.].]./.C.] p .                                       ",
"          . . . . . . i ! ] ^.^.w.6.] ] ] ' ' ] ' ! 4 . . . . . X y ` ' 6.w.w.~.^.C._ .                                       ",
"                      . . , 8.^.^.w.] ' ' ' ] _ W ; . .     . . : Q Q W / ] ] e.~.~.7.4                                       ",
"                            @ 7.~.9._ ' ' ] ] Q @ .         . . . . X X p ] ' ] ] 7.~.e.:                                     ",
"                              : 4 : 4 _ ] ] ! # .             . . X D Q / ] ' ' ] ] 7.C.:                                     ",
"                                  . . 9 y y : .               . ; z _ ] ] _ ' ' ' ' ] 6.! ,                                   ",
"                                    . . . . . .                 : z ` 6.7.6.' ' ' ' ' ' ] 9 .                                 ",
"                                                                  X / w.^.C.| ] ' ' ' ' | l ;                                 ",
"                                                                  @ / ] 8.~.~.o.] ] ] ] e.~./ . .                             ",
"                                                                  @ / ' 8.~.~.~.C.C.~.e.i : @ . . .                           ",
"                                                                  @ 7.e.~.9.l l l a l l X .._.W.W.,                           ",
"                                                                  @ Q ` ` D . . . . . . . _.gXgXgXa                           ",
"                                                                  . . . . X < , , , > 4 < `.hXqX8Xu                           ",
"                                                                      . . 4 e.C.e.C.e.e.C.qXW.o O                             ",
"                                                                      . . o , , 4 : , , > u u                                 ",
"                                                                                                                              ",
"                                                                                                                              ",
"                                                                                                                              ",
"                                                                                                                              ",
"                                                                                                                              ",
"                                                                                                                              "
};
