/* XPM */
static char *fae046fcad574f47f2d8bbf3f251dfc2Fpz2ycC6Q4cpXNvA[] = {
/* columns rows colors chars-per-pixel */
"63 75 218 2 ",
"   c None",
".  c #010101",
"X  c #090605",
"o  c #0C0907",
"O  c #0D0C0B",
"+  c #060C08",
"@  c #130C0B",
"#  c #190F0C",
"$  c #0A140D",
"%  c #1C110D",
"&  c #13100F",
"*  c #0D1C13",
"=  c #0A1911",
"-  c #161514",
";  c #1A1514",
":  c #1A1B1A",
">  c #241612",
",  c #2C1A15",
"<  c #231D1A",
"1  c #271B16",
"2  c #331E19",
"3  c #311D16",
"4  c #23150F",
"5  c #14241A",
"6  c #0F2819",
"7  c #25221C",
"8  c #2A241D",
"9  c #34211C",
"0  c #3D241D",
"q  c #182E20",
"w  c #1B3425",
"e  c #163C25",
"r  c #2B2423",
"t  c #2B2B27",
"y  c #332B26",
"u  c #382B27",
"i  c #213E2C",
"p  c #3A322C",
"a  c #38342A",
"s  c #353231",
"d  c #44281E",
"f  c #4B2D25",
"g  c #432923",
"h  c #513124",
"j  c #54322A",
"k  c #5B362D",
"l  c #5E392C",
"z  c #413734",
"x  c #453935",
"c  c #463D3A",
"v  c #5A3D36",
"b  c #4B302B",
"n  c #673E32",
"m  c #623A2D",
"M  c #1D4E31",
"N  c #23412F",
"B  c #244B33",
"V  c #274934",
"C  c #2D553D",
"Z  c #2E583F",
"A  c #245639",
"S  c #30583F",
"D  c #24653E",
"F  c #4F413C",
"G  c #55463D",
"H  c #6A453B",
"J  c #7D4A3D",
"K  c #784739",
"L  c #2F5C41",
"P  c #305B41",
"I  c #2E6344",
"U  c #2F6A47",
"Y  c #306947",
"T  c #317B4F",
"R  c #30724B",
"E  c #317D50",
"W  c #237E49",
"Q  c #5E4D48",
"!  c #584944",
"~  c #5E5147",
"^  c #5A5A5A",
"/  c #515151",
"(  c #434849",
")  c #784D44",
"_  c #63524E",
"`  c #665746",
"'  c #7A5449",
"]  c #655652",
"[  c #6B5953",
"{  c #665A57",
"}  c #715D57",
"|  c #735F59",
" . c #604F4A",
".. c #796559",
"X. c #6A6159",
"o. c #596668",
"O. c #616161",
"+. c #796761",
"@. c gray46",
"#. c #88533C",
"$. c #814C3E",
"%. c #834E41",
"&. c #8B5344",
"*. c #87554A",
"=. c #95594A",
"-. c #9B5C4B",
";. c #955A45",
":. c #8D5B51",
">. c #945E53",
",. c #986758",
"<. c #846D5A",
"1. c #A4624D",
"2. c #AB684C",
"3. c #B26C4E",
"4. c #A86859",
"5. c #B46D53",
"6. c #BC7154",
"7. c #AC745F",
"8. c #836E68",
"9. c #88736C",
"0. c #977763",
"q. c #8C7770",
"w. c #807573",
"e. c #937B74",
"r. c #AA6E62",
"t. c #AA7465",
"y. c #B37364",
"u. c #BD7B6D",
"i. c #B87666",
"p. c #C37556",
"a. c #CE7D5B",
"s. c #C47859",
"d. c #D07F5C",
"f. c #C37C6A",
"g. c #308D57",
"h. c #308352",
"j. c #309A5C",
"k. c #30955A",
"l. c #2C8D54",
"z. c #31A15F",
"x. c #2FA560",
"c. c #31AE64",
"v. c #31A461",
"b. c #31B166",
"n. c #9C856C",
"m. c #98837C",
"M. c #86837F",
"N. c #A38D72",
"B. c #A98073",
"V. c #AC9276",
"C. c #B79B7E",
"Z. c #BA8673",
"A. c #D7835F",
"S. c #D8835F",
"D. c #DA8560",
"F. c #D98764",
"G. c #C98876",
"H. c #D88D7C",
"J. c #DE9277",
"K. c #CE896C",
"L. c #E09574",
"P. c #878787",
"I. c #849396",
"U. c #9B9C9C",
"Y. c #948D8B",
"T. c #A48C85",
"R. c #A78F89",
"E. c #AB9A95",
"W. c #A79089",
"Q. c #B0A39F",
"!. c #B3A190",
"~. c #9CABAE",
"^. c #A2A3A3",
"/. c gray67",
"(. c #BAB5B3",
"). c #B5AAA6",
"_. c #D39B85",
"`. c #E69584",
"'. c #EA9987",
"]. c #C6A989",
"[. c #D6A488",
"{. c #D3B693",
"}. c #DCBD99",
"|. c #CCB18F",
" X c #EAA58D",
".X c #EBAC92",
"XX c #EBB698",
"oX c #F6B79B",
"OX c #F2A791",
"+X c #EBBCA6",
"@X c #FCBDA0",
"#X c #DCB7A7",
"$X c #C5C0BF",
"%X c #EBC7A5",
"&X c #F0C4AE",
"*X c #F9C7A5",
"=X c #FBD4AD",
"-X c #F5D3AB",
";X c #F4C9B3",
":X c #FFDCB2",
">X c #FFE1B6",
",X c #FFE3B8",
"<X c #BDC2C3",
"1X c #C5C5C5",
"2X c #CAD8DA",
"3X c #DBDBDB",
"4X c #D4D4D4",
"5X c #F7D5C3",
"6X c #E4DDDB",
"7X c #FEE8D9",
"8X c #CDDEE1",
"9X c #D5EEF3",
"0X c #D6F1F6",
"qX c #CFE2E5",
"wX c #E5E5E5",
"eX c gray92",
"rX c #F2EEED",
"tX c #FFFFFF",
/* pixels */
"                                                                                                                              ",
"                                                                                                                              ",
"                                                                                                                              ",
"                                                                                                                              ",
"                                                              . . . . . . . . . . .                                           ",
"                                                            , d h h h j j h h h 0 3 3                                         ",
"                                                        > > $.6.D.S.D.D.D.D.S.D.5.1.&., , % #                                 ",
"                                                  X X d A.a.A.A.A.A.A.A.A.A.A.A.A.A.d.a.d.2.m X X                             ",
"                                                . #.3.6.A.A.A.A.D.A.A.D.A.A.A.A.A.A.A.A.d.d.a.5.2.4                           ",
"                                      . . . . @ $.p.D.D.A.S.A.A.A.A.A.A.A.D.D.A.A.D.D.A.D.D.d.D.S.;.0 . .                     ",
"                                      . d h h m A.A.D.A.A.S.A.S.A.A.A.A.S.A.A.S.A.A.A.A.D.d.D.D.S.S.,.! f                     ",
"                                      X ;.3.s.L.A.A.A.A.A.D.A.S.D.A.A.D.A.A.A.A.A.D.A.A.D.D.d.d.S.L.;X;X6.3 X                 ",
"                                        X . _ 5XF.F.A.A.S.S.S.S.A.A.A.A.A.A.S.S.A.D.d.D.D.D.D.D.F.:X7X&XA.p.,                 ",
"                                        . g B.7X5XJ.A.A.S.d.S.S.A.A.A.A.A.A.S.S.A.A.D.D.D.d.d.L.5X7X+XK.6.,                   ",
"                                        . j 7.XX7X;X&X&X&X&Xu.p.J.&X&X&X Xa.3.S..X&X&X+Xi.[.+X+X.X XK.6.A.#.,                 ",
"                                        . j 1.f.%X#X+X&X&X&Xr.1.K.&X&X;X[.1.m K ].&X&X+XH C.;X+XD.S.6.;.$.#.%                 ",
"                                        . j =.-.s.-.6.d.d.d.1.=.1.s.3.2.-.k . @ K p.d.p.% J d.s.3.s.D.;.% . .                 ",
"                                        . j =.;.-.&.5.a.d.D.1.=.;.%.# o o . X K 3 l a.&.% k -.J @ K 6.A.3.o                   ",
"                                        . j -.=.=.2 # > 2 =.-.-.K # . U.@.. . @ X d &.> n d f J X @ H 5.6.o                   ",
"                                          , k %.u ) >.:.&.g 2 n n O Y.wX3X@.. . . # , . 3 @ @ , . . % m ;.X                   ",
"                                          . , %.X y.u.4.f.n @ f K - eXtXtX1X. . . . . 2 X . . . . . . 1 f .                   ",
"                                          . 3 %.O y.*.u %.H.u 0 k - wXtXtX1XX . . X 0 -.% 5 : . .       . .                   ",
"                                          . 3 J X y.'.,.; H.b . . - wXtXtX1X. . . d 4.H.> ^.U.. .                             ",
"                                              @ X y.@XV.- XX,.J j - wXtXtX1X. . . v H.H.> ^.^.. .                             ",
"                                          . , f . u C.%XV.:XJ.f.i.:.{ 4XtXrX^.^.N H =X%X5 ^.wXP.X                             ",
"                                        . % k &.g X F N.N.[.XXXXXX.X` M.U.U.^.^...N.=XJ.H w.U.M.+                             ",
"                                        . f ) K J % X o o =.XX:X:X:X:X[ 7 8 8 7 C.,X%X7. X' 7 7 .                             ",
"                                          . X X X . h m @ G.*X:X:X:X:X=X-X-X%X-X=X:X:X=X=X=X-X|.o                             ",
"                                          . . . . . o @ X , u.*X:X:X:X:X>X|.a %X,X,X,X:X:X:X>X}.o                             ",
"                                      . . 5 w w w w = . . . u t.*X:X:X:X:X%Xn.` ` G ..:X:X>X].G                               ",
"                                      * e D T T T E B * * . u H t.*X*X=X:X>X-X..` G ..=X>X].`                                 ",
"                                + $ * U v.b.c.b.c.b.h.S C X r.:.b i.i.].{.{.{.{.{.{.{.{.{.G                                   ",
"                              X w C U x.c.b.b.c.b.b.h.L B + r.`.r.@ X o O o o + O O + X o                                     ",
"                            . e A R x.c.c.c.c.b.c.b.v.g.C V 7 *.`.y.& w 5 .                                                   ",
"                          . . $ i E b.b.b.c.c.c.b.h.j.v.g.g.B p k j + w V q .                                                 ",
"                        a ` ~ ` s A k.c.c.b.c.c.g.I h.b.b.b.g.M * * 5 V P V .                                                 ",
"                      < <.>X:X:X..7 A z.c.c.x.j.L I g.b.b.c.b.g.I U P P P N .                                                 ",
"                    X N.:X:X:X:XXX=.$ Z j.c.l.L L k.b.b.c.c.c.c.c.v.L C L N .                                                 ",
"                  O C.-X>X=X X X'.f.H $ C N 5 P L j.b.c.c.b.c.b.j.I = N P V .                                                 ",
"                  O }.:X:X*X`.i.) f , . * q N P L R k.b.b.c.b.b.l.5 q C i * .                                                 ",
"                  @ }.>X:X=XXXf.g : ( . . * N P C S R g.g.c.b.v.D X A P w . .                                                 ",
"                  O C.-X:X:X>XG.! o.~.r r 2 t V C C P C L j.v.E i . i V 5 .                                                   ",
"                    X N.:X:X%Xy P.I.9 _.%X.X:.+ C C C P L L L P i . X X X . . .                                               ",
"                      < <.}.a ~.o.! G.*XOX' @ + C P S R v.v.v.E N . . j J k . . . . .                                         ",
"                        p { I.(.c v *X:X*XZ.:.' 5 C C P T T E B = . . n y.4.X ) 0.0.' .                                       ",
"                          : I.O.v 0.:X:X>XoX'.G.O N P C C C P 5 . . . n >.*.H H.*X=XG..                                       ",
"                        . . . . <.@X:X:X=X.X'.f.@ B U U U U U e . . # m 0 3 `.'.*X,X|.X                                       ",
"                      X . . . . n.:X:X:XOX'.'.f.o W x.x.x.x.c.M . X J 3 . u `.=X:X:X].X                                       ",
"                    . Q ! . . . n.,X>X:X X'.r.> . $ = = * * A w . o %., 2 >.'.=X:XN.8                                         ",
"                    . +.{ . . . y N.:XoXOX>.v ] ] ] ^ ! p . * $ . o %., g 4.`..XoX<..                                         ",
"                    p ~ p . . . . y n.:.:.v { (.(.(.(.Q...y X . . X j # d 4.'.'.y.v                                           ",
"                  o T.s . . . . @ o . @ @ ] ).qX9X9X9X2XE.8.t o . . . X 2 &.u.f.g                                             ",
"                  & 3X^ . . . . x x & _ { q.W.E.qX9X9X9X8XE.+.a . .   . . X X X                                               ",
"                  O 3X^ . . . . x } F ; Q e.).2XQ.2X9X9X9X2XE.F . .                                                           ",
"                  & 3X^ . . . p  .| } x r Q T.(.1X(.2X9X9X9X2XY.c .                                                           ",
"                  & 3XU./ y X Q } } } } p u c +.<XE.).2X9X0X0X1X+..                                                           ",
"                  & 3XtX6Xm.O Q } } } } _ 8 . < e.T.T.Q.8X8X8X(.| .                                                           ",
"                  & 3XtXtX1XO ! } } } [ ; . < [ | e.T.R.R.R.R.q.F .                                                           ",
"                  & 3XtXtX4X+ O c .._ - X . X : [ ..e.R.T.T.9.x @                                                             ",
"                  X / O.O.^   . ; r r z Q { ] ] } } +.8.8.8...u .                                                             ",
"                  . . . .       . o u } q.e.e.e.| } } } } } F r                                                               ",
"                                @ u | | } } } } } } } } } Q ;                                                                 ",
"                              . x } } } } } } } } } } | ] O .                                                                 ",
"                            X F [ } } } } } } } } } 8.T.q.O                                                                   ",
"                            X Q ..| } } } } | +.e.e.T.q.s .                                                                   ",
"                            . p x ! | | | ! s c _ [ ] c . .                                                                   ",
"                            . ; X < Q Q Q u ; : ; r t : .                                                                     ",
"                            X +.z . O X O ] R.T.R.6XtX/..                                                                     ",
"                              ; Q q.q.e.$XwXrXrXrXtXtX(..                                                                     ",
"                              . 7 c s z ^ O.O.O.O.O.^ ( .                                                                     ",
"                              . . . . . . . . . . . . . .                                                                     ",
"                                                                                                                              ",
"                                                                                                                              ",
"                                                                                                                              ",
"                                                                                                                              "
};
