/* XPM */
static char *b414a082264845d2fec4d3788e84869eqcJPfXcND0WZOSzg[] = {
/* columns rows colors chars-per-pixel */
"63 75 219 2 ",
"   c None",
".  c #010101",
"X  c #090605",
"o  c #0B0807",
"O  c #060D09",
"+  c #0C0B0A",
"@  c #040907",
"#  c #130D0C",
"$  c #1A0E0C",
"%  c #0A140E",
"&  c #1B110E",
"*  c #12100F",
"=  c #0C1A12",
"-  c #151211",
";  c #1A1513",
":  c #1B1B1B",
">  c #1C1A16",
",  c #251611",
"<  c #2C1A15",
"1  c #251C19",
"2  c #331E19",
"3  c #301C16",
"4  c #112017",
"5  c #13251A",
"6  c #0D2117",
"7  c #29251D",
"8  c #36221C",
"9  c #1D3727",
"0  c #123521",
"q  c #2D2621",
"w  c #2C2D2D",
"e  c #252723",
"r  c #352926",
"t  c #203E2C",
"y  c #3D342D",
"u  c #32372B",
"i  c #3A3534",
"p  c #452A1E",
"a  c #4B2D23",
"s  c #442922",
"d  c #53332C",
"f  c #573427",
"g  c #4A3E3A",
"h  c #423733",
"j  c #553931",
"k  c #5A3A33",
"l  c #573731",
"z  c #46342B",
"x  c #633B31",
"c  c #633C2C",
"v  c #1A4D30",
"b  c #254632",
"n  c #294B36",
"m  c #274B36",
"M  c #2E553D",
"N  c #2E583F",
"B  c #274834",
"V  c #4D413D",
"C  c #4B433A",
"Z  c #55443D",
"A  c #6B4339",
"S  c #734539",
"D  c #7B4A3D",
"F  c #734537",
"G  c #2F5B40",
"H  c #305A40",
"J  c #2F6545",
"K  c #2F6B47",
"L  c #306947",
"P  c #30774D",
"I  c #2D764B",
"U  c #4B4847",
"Y  c #5B4B46",
"T  c #5D4E49",
"R  c #524440",
"E  c #5F5146",
"W  c #545B5C",
"Q  c #664E44",
"!  c #65534E",
"~  c #685847",
"^  c #6D5A55",
"/  c #665A56",
"(  c #715D57",
")  c #735E58",
"_  c #7C5249",
"`  c #70614E",
"'  c #75615C",
"]  c #796759",
"[  c #666463",
"{  c #7B6660",
"}  c #7B6A66",
"|  c #777574",
" . c #814C3B",
".. c #86523B",
"X. c #834E41",
"o. c #88574B",
"O. c #915646",
"+. c #945849",
"@. c #965A45",
"#. c #8C5B51",
"$. c #965E52",
"%. c #996357",
"&. c #816F5A",
"*. c #A8664B",
"=. c #B16C4E",
"-. c #A96957",
";. c #B26C55",
":. c #BC7154",
">. c #B77359",
",. c #836E67",
"<. c #89746E",
"1. c #897567",
"2. c #8E7871",
"3. c #947C76",
"4. c #917C76",
"5. c #997F67",
"6. c #B27364",
"7. c #BB796A",
"8. c #AC7565",
"9. c #A05F4C",
"0. c #CC7C5A",
"q. c #C37657",
"w. c #D07F5C",
"e. c #C17C6D",
"r. c #C57F71",
"t. c #318C56",
"y. c #308453",
"u. c #309359",
"i. c #319D5D",
"p. c #309057",
"a. c #2E8B55",
"s. c #31A25F",
"d. c #31A561",
"f. c #31AE64",
"g. c #31B166",
"h. c #32B568",
"j. c #99846B",
"k. c #9A827B",
"l. c #B28E77",
"z. c #D7835F",
"x. c #D8845F",
"c. c #DA8561",
"v. c #D88764",
"b. c #DE906E",
"n. c #C98B77",
"m. c #D58978",
"M. c #C8947C",
"N. c #DE9474",
"B. c #DF997A",
"V. c #C2836D",
"C. c #E19878",
"Z. c #E0916E",
"A. c #8B8989",
"S. c #978884",
"D. c #999999",
"F. c #A58C85",
"G. c #A98F88",
"H. c #AA928C",
"J. c #AA9A95",
"K. c #BAA182",
"L. c #B0A19C",
"P. c #ABA8A7",
"I. c #B5ABA7",
"U. c #B8B9B9",
"Y. c #A6B9BD",
"T. c #CB9D86",
"R. c #DA9381",
"E. c #E49483",
"W. c #E99886",
"Q. c #EC9B89",
"!. c #EA9786",
"~. c #F49E8C",
"^. c #CBAA8B",
"/. c #D2B592",
"(. c #DABC98",
"). c #D7A791",
"_. c #E6A68B",
"`. c #EBAC91",
"'. c #EBB49A",
"]. c #F4BC9D",
"[. c #F5B499",
"{. c #F2A992",
"}. c #D8B4A6",
"|. c #EDBBA3",
" X c #BFC0BF",
".X c #E9C39F",
"XX c #C0C0BF",
"oX c #EBCBA4",
"OX c #EAC5A3",
"+X c #FBCDA9",
"@X c #F7C7A5",
"#X c #F5D3AB",
"$X c #FBD4AD",
"%X c #FCD8AF",
"&X c #F3CBB6",
"*X c #FFDDB2",
"=X c #F4D1BF",
"-X c #FFE2B7",
";X c #FFE4B9",
":X c #B6C8CC",
">X c #C5CACA",
",X c #C9D8DB",
"<X c #D4D4D4",
"1X c #DBDCDC",
"2X c #D2CBC9",
"3X c #F8D9C7",
"4X c #E6D0C3",
"5X c #FCE2D3",
"6X c #FEE8DA",
"7X c #D2E8EC",
"8X c #D5EDF3",
"9X c #D6F1F6",
"0X c #D8F3F8",
"qX c #CFE1E4",
"wX c #EEEDED",
"eX c #F5F5F5",
"rX c #FFFFFF",
"tX c #FBF7F6",
"yX c #CDDFE2",
/* pixels */
"                                                                                                                              ",
"                                                                        & , , , , , , , , & &                                 ",
"                                                                X X X & X.q.z.0.0.0.0.0.:.O.O.< . . X                         ",
"                                                            . X @.=.=.=.0.z.z.z.x.x.c.z.x.0.0.:.=.*.F o .                     ",
"                                                      . . 8 ....0.c.x.c.x.z.x.z.z.z.z.z.z.x.x.x.c.z.:.....f                   ",
"                                                      p f ..c.c.x.z.z.z.x.x.z.z.c.z.z.z.x.z.x.z.z.z.c.c.c.@.p                 ",
"                                                    2 :.x.x.x.x.z.z.z.z.z.z.z.x.z.z.z.z.z.z.z.z.z.c.z.z.x.x.:.r               ",
"                                                  < 0.z.c.c.x.x.z.z.z.z.z.c.z.z.x.z.z.x.z.z.x.z.z.z.z.z.x.z.B.4Xq             ",
"                                                  < w.*.).|.z.z.z.x.z.z.z.z.z.c.z.z.z.z.z.z.x.z.z.z.z.z.z.z.B.3X7.p           ",
"                                                p O.;.;.|.@Xw.z.z.z.z.z.z.z.z.z.z.z.z.z.z.z.z.z.z.z.z.z.z.z.B.5XZ.p .         ",
"                                              . f =.x q.&X3X_.c.z.z.z.z.z.z.c.z.z.z.z.z.z.x.x.x.z.z.z.z.z.b.'.6XN.p .         ",
"                                              . s S X *.|.5X3XC.N.N.b.0.z.z.z.z.z.c.z.z.z.z.x.x.z.v.N.N.N.OX6X=Xb.p .         ",
"                                              . s x #  .q._.5X3X3X6X}.*.v.v.c.c.z.z.z.z.c.v.v.v.z.R.6X5X5X5X=Xv.x.a .         ",
"                                                # # X  .9.e.C.C.N.&X}.-.4X3X3X].z.c.*.:.C.3X3X3XT.7.6X6X`.V.>.c.c.p .         ",
"                                                  . X X.l 2 a a 9.l.6.$.l._.{._.q.f X.:.b.`.`.`.l.-.`.`.Z.z.*.f 0.p .         ",
"                                                    . a l l l l d D +.+.+... . .F . s @.q.z.:.@.F F :.:...=.*.X F < .         ",
"                                                    . . %.m.r.m.a d X.+.O.; - w e . . a -.:...& . & D D ; c *.X . .           ",
"                                                    . . %.%., O.m.k 2 +.O.1 A.rX<X- . a +.X.$ . . . # . . c *..               ",
"                                                    . . %.R.-.1 r.k 2 X., P.wXrX1X; . o & , F , . i U.: . a  ..               ",
"                                                    . . $.[.T.o T.Q o < @ >XrXrX1X* . . # x >.8 U U.wX: . & < .               ",
"                                                    . 3 A M.oX` oX~ X 2 k A.<XtXwX| [ w 8 M.`.p | rXeX| : . . .               ",
"                                                    X  .2 C /./.OX~ a 6.C.g A.<X<X<X,X| ~ %XoXZ | <X<X<Xg .                   ",
"                                                    X D 8 . # # _ +.;.!.W.@X] + * - + 1.%X#X-.m._ % - - @ .                   ",
"                                                      & X 2 x . X #.`.+X+X*X.X/./././.oX*X%XoX#XOX/././.y .                   ",
"                                                    . . . # 3 . . 2 %.].*X*X*X*X-X*X-X;X;X-X*X*X%X-X-X;XC .                   ",
"                                                  O 4 4 4 6 = . . . q %.@X%X*X*X*X*Xl.j.j.l.#X*X*X-X#Xl.z                     ",
"                                              O % 0 L L J K M % . . . 2 7.^.OX%X*X%X~ 7 7 u oX-X-X#X^.-                       ",
"                                          . @ 9 I d.f.f.f.f.s.N % . 2  .$ + o.`.#X#XoXoXoXoX#X#X*Xl.+                         ",
"                                        % B b y.d.g.g.f.g.g.s.N m = 2 $.7.7.Q < 7 q q q q q q q 7 7                           ",
"                                      : b G t.s.g.g.f.f.f.g.s.a.J b e d E.~.x . .                                             ",
"                                    . = 9 J s.g.g.f.f.g.g.s.p.f.J N b e #.#.r + 5                                             ",
"                                  7 q 7 w m u.f.g.g.g.f.d.y.J f.P G H m % % + 5 n O                                           ",
"                                : .X#X$XK.* n p.f.f.f.f.P H K f.f.P N M N M M M n @                                           ",
"                              u /.$X*X*XOX6.: b a.f.f.I G I d.f.g.d.y.N M H N H b @                                           ",
"                            E M.*X*X].[.[.E.A q b I v m H P g.f.f.g.d.t.t.J N H n @                                           ",
"                          . &.-X*X*X{.m.6.#.x - % 0 5 m H K u.f.g.f.g.f.t.J M H n @                                           ",
"                          . ] -X*X*X[.n._ . e = . O B H H H G i.f.f.f.s.G m M H n X                                           ",
"                          . &.*X*X*X*X[.-.: Y.U . + + b H H H G i.f.g.i.H % 9 H b @                                           ",
"                            1 ~ -X*X-X5.g Y.i #.R.^.7.1 t H H H J u.i.M = 9 M t %                                             ",
"                            . - ` #X1.T / W ) ).].T.j X 0 H H H M K K m @ = : =                                               ",
"                              . X 1.Y R T x _.$X+XT.l k u b H H I P K m . . . .                                               ",
"                                . . ! R z `.$X*X*X+X!.!.l = G G u.s.y.m X # & # . .                                           ",
"                                  . . s 8.$X*X*X*X@X!.!.j 6 G G H H G m X F +.x . X X X o                                     ",
"                                  . . A _.*X*X*X@XQ.!.!.d 0 d.i.J M t O . S e.#.# 6.7.e.#..                                   ",
"                                    . d n.*X*X*X].E.!.Q.a v h.g.u.u.v @ . D D l A E.].+Xl..                                   ",
"                                    . , o.@X*X+X[.!.E.%.y v u.t.u.u.M . . a , , -.E.+X;Xl..                                   ",
"                                    . . 3 7.^.n.7.e.6.- 5 n b m N H 9 . . . o s $.E.@XoXj..                                   ",
"                                        @ X o + + + + X X X X o b M 9 . . . f O.9.E.+X] @                                     ",
"                                          . . y Q Y T } ^ Y Y Y > O @ . . . d ;.m.!.~.Q .                                     ",
"                                          . . g ) { 4.>XS.{ 4.<.V ; . . . . d 6.~.!._ r                                       ",
"                                          . . g { 4.I.U.S.<.H.I.k.r . . . . 2 A #.#.<                                         ",
"                                          . . g ,.J.:XA.D.J.I.7XL.V X . . . . . . .                                           ",
"                                        . . . g ) ) { ,X7X7X8X8XL.<.h .                                                       ",
"                                  . . . . . . o i { F.yX8X8X8X8XqXP.T .                                                       ",
"                                . . . . . . . . r ) <.P.,X0X8X8X0X,XD.y X                                                     ",
"                              . . . . . . . . . r ) ) k.>X0X8X8X8X0XU.T X                                                     ",
"                        . # - * * . . . X * . + r ! ( F.U.qX8X8X8X0XU./ @                                                     ",
"                      @ . R ^ ^ ! + . . ; ! * g i ; ( k.F.U.8X8X8X9X>X<.X                                                     ",
"                    1 Y Y ^ ( ) ! + ! g ; ^ T ^ y $ ( ) 3.H.I.8X8X0X>X2.o                                                     ",
"                  . 7 ^ ( ( ( ( ! + { Y - ( ) ) Q i q ! ,.3.G.U.7X>XI.2.o                                                     ",
"                . . 1 ' ,.) ( ) ! + S.[ - ) ( ( ) ! q ! ( ,.F.G. XJ.} Y X                                                     ",
"              . - + ; ! F.,.) ( ! + U.A.# T ' { ' ) ) ( ( ,.3.2.<.( y .                                                       ",
"              @ } g . - 3.F.<.) ! +  XA.. # 2.F.2.) ( ^ ^ ^ T o X . X                                                         ",
"              . ,.R . $ k.G.<.( / + U.A.. X ^ 3.F.4.^ 1 * * * .                                                               ",
"              . ,.R . + } S.k.<.! + S.[ . . > { H.2.q . .                                                                     ",
"              X ,.V . X z 2.H.3.! + g / [ [ [ / / R . .                                                                       ",
"              . ( U - . . ) F.k.) + . | tXrXtXU . . .                                                                         ",
"                . T ) . . Z 2.F.4.+ . g I.wXJ.r . .                                                                           ",
"                . T ' . . X T G.k.# . + 1 w : o . .                                                                           ",
"                . | 2XD.D.e i { i X .                                                                                         ",
"                  [ >XrXrXA.U q . .                                                                                           ",
"                  . U rXrXrXD.: .                                                                                             ",
"                  . U tXeXeXtXP..                                                                                             ",
"                      w w w w e .                                                                                             ",
"                                                                                                                              "
};
