/* XPM */
static char *result[] = {
/* columns rows colors chars-per-pixel */
"63 75 228 2 ",
"   c #010101",
".  c #0A0605",
"X  c #050A06",
"o  c #0A0907",
"O  c #060C09",
"+  c #0C0B0A",
"@  c #130C0A",
"#  c #170D0A",
"$  c #0A120D",
"%  c #06180E",
"&  c #1C110E",
"*  c #13110E",
"=  c #0C1A12",
"-  c #151312",
";  c #1A1513",
":  c #1C1917",
">  c #1D1A19",
",  c #171A1A",
"<  c #22140E",
"1  c #241612",
"2  c #2A1A16",
"3  c #221D1B",
"4  c #271916",
"5  c #331F19",
"6  c #0C2717",
"7  c #15271C",
"8  c #29231E",
"9  c #26201E",
"0  c #36211C",
"q  c #3C231D",
"w  c #1C3425",
"e  c #1D3A27",
"r  c #192D21",
"t  c #2B2321",
"y  c #2A2A26",
"u  c #362C28",
"i  c #3B322D",
"p  c #383535",
"a  c #24392F",
"s  c #42271F",
"d  c #4C2D25",
"f  c #452A24",
"g  c #513124",
"h  c #5A362C",
"j  c #56342B",
"k  c #403634",
"l  c #4A3D39",
"z  c #473C35",
"x  c #553932",
"c  c #5A3B34",
"v  c #4F322D",
"b  c #633D2C",
"n  c #633D34",
"m  c #1B5232",
"M  c #22412E",
"N  c #274A35",
"B  c #2D563D",
"V  c #2F583F",
"C  c #275138",
"Z  c #30573F",
"A  c #1D673B",
"S  c #4E423B",
"D  c #56463C",
"F  c #6D4133",
"G  c #7C4A3C",
"H  c #744538",
"J  c #2F5B40",
"K  c #305A41",
"L  c #3F4749",
"P  c #2F6544",
"I  c #2F6947",
"U  c #316947",
"Y  c #307B4E",
"T  c #30724B",
"R  c #227544",
"E  c #5B4C45",
"W  c #5D4E49",
"Q  c #544541",
"!  c #5E5145",
"~  c #515353",
"^  c #64534D",
"/  c #665547",
"(  c #7B5449",
")  c #6C5A54",
"_  c #685853",
"`  c #715D57",
"'  c #735F58",
"]  c #7F5850",
"[  c #704C44",
"{  c #74605B",
"}  c #7A655A",
"|  c #71614E",
" . c #566163",
".. c #656565",
"X. c #7C6760",
"o. c #7E6B65",
"O. c #787574",
"+. c #7E736F",
"@. c #555E60",
"#. c #87513C",
"$. c #83554C",
"%. c #895444",
"&. c #96594A",
"*. c #8A5B51",
"=. c #935E53",
"-. c #814D41",
";. c #866656",
":. c #9A6559",
">. c #93725E",
",. c #A3624D",
"<. c #A9634A",
"1. c #A86855",
"2. c #B36D52",
"3. c #B86F57",
"4. c #B97154",
"5. c #826C66",
"6. c #846F68",
"7. c #85716B",
"8. c #8A746E",
"9. c #8E7A63",
"0. c #887873",
"q. c #917A73",
"w. c #967F79",
"e. c #967D66",
"r. c #A96F61",
"t. c #AB7163",
"y. c #B57668",
"u. c #B07769",
"i. c #A05F46",
"p. c #CD7D5B",
"a. c #C57859",
"s. c #D17E5B",
"d. c #C27D6F",
"f. c #C27E70",
"g. c #2C8A52",
"h. c #308B55",
"j. c #318252",
"k. c #289153",
"l. c #2C9858",
"z. c #319359",
"x. c #319A5C",
"c. c #31A15F",
"v. c #2EA45F",
"b. c #31AE64",
"n. c #31A460",
"m. c #31B166",
"M. c #32B568",
"N. c #2FA761",
"B. c #9B866D",
"V. c #9B837D",
"C. c #998478",
"Z. c #AC9478",
"A. c #B5987B",
"S. c #AD8872",
"D. c #D7835F",
"F. c #D8835F",
"G. c #DA8561",
"H. c #D68764",
"J. c #C88474",
"K. c #D48A7A",
"L. c #DB8E7D",
"P. c #D99476",
"I. c #CF8160",
"U. c #E29A7B",
"Y. c #E0926F",
"T. c #7E898B",
"R. c #8A8A8A",
"E. c #9C9C9C",
"W. c #949393",
"Q. c #929191",
"!. c #A48B84",
"~. c #A48B85",
"^. c #A8938C",
"/. c #B19E94",
"(. c #B6A18F",
"). c #A3A3A3",
"_. c #ABAAAA",
"`. c #B5B6B5",
"'. c #B1AFAD",
"]. c #96A0A1",
"[. c #D99A82",
"{. c #E59584",
"}. c #EA9887",
"|. c #E89B87",
" X c #C8AA8A",
".X c #CCB08F",
"XX c #D2B593",
"oX c #D9B895",
"OX c #D7AC8C",
"+X c #E7A58A",
"@X c #E9AC92",
"#X c #E9B59A",
"$X c #F5B89B",
"%X c #F0AB93",
"&X c #E9BDA8",
"*X c #D6B6A8",
"=X c #E2C39D",
"-X c #EFC2AB",
";X c #ECCBA4",
":X c #F7C9A9",
">X c #F5D3AB",
",X c #FCD3AC",
"<X c #FFDDB3",
"1X c #F5D0BD",
"2X c #F1CCB9",
"3X c #FFE1B6",
"4X c #FFE4B9",
"5X c #D2C1AE",
"6X c #B4C4C7",
"7X c #C7CACA",
"8X c #C9D8DB",
"9X c #D7D7D7",
"0X c #D8CFCD",
"qX c #F6D6C4",
"wX c #F8D9C7",
"eX c #EDD5C8",
"rX c #FDE6D7",
"tX c #C9DFE3",
"yX c #D2E7EC",
"uX c #D5EEF3",
"iX c #D6F0F6",
"pX c #D8F2F7",
"aX c #CEE3E7",
"sX c #E7E7E7",
"dX c #FFEDE0",
"fX c #FEFEFE",
"gX c #F3F3F3",
"hX c None",
/* pixels */
"hXhXhXhXhXhXhXhXhXhXhXhXhXhXhXhXhXhXhXhXhXhXhXhXhXhXhXhXhXhXhXhXhXhXhXhXhXhXhXhXhXhXhXhXhXhXhXhXhXhXhXhXhXhXhXhXhXhXhXhXhXhXhX",
"hXhXhXhXhXhXhXhXhXhXhXhXhXhXhXhXhXhXhXhXhXhXhXhXhXhXhXhXhXhXhXhXhXhXhXhXhXhXhXhXhXhXhXhXhXhXhXhXhXhXhXhXhXhXhXhXhXhXhXhXhXhXhX",
"hXhXhXhXhXhXhXhXhXhXhXhXhXhXhXhXhXhXhXhXhXhXhXhXhXhXhXhXhXhXhXhXhXhXhXhXhXhXhXhXhXhXhXhXhXhXhXhXhXhXhXhXhXhXhXhXhXhXhXhXhXhXhX",
"hXhXhXhXhXhXhXhXhXhXhXhXhXhXhXhXhXhXhXhXhXhXhXhXhXhXhXhXhXhXhXhXhXhXhXhXhXhXhXhXhXhXhXhXhXhXhXhXhXhXhXhXhXhXhXhXhXhXhXhXhXhXhX",
"hXhXhXhXhXhXhXhXhXhXhXhXhX                            hXhXhXhXhXhXhXhXhXhXhXhXhXhXhXhXhXhXhXhXhXhXhXhXhXhXhXhXhXhXhXhXhXhXhXhX",
"hXhXhXhXhXhXhXhXhXhXhXhX1 0 0 d g g g g g g g d g g f 2 hXhXhXhXhXhXhXhXhXhXhXhXhXhXhXhXhXhXhXhXhXhXhXhXhXhXhXhXhXhXhXhXhXhXhX",
"hXhXhXhXhXhXhXhXhX& 1 1 j ,.,.s.G.G.G.G.F.G.G.G.F.G.4.G 1 1 4 < hXhXhXhXhXhXhXhXhXhXhXhXhXhXhXhXhXhXhXhXhXhXhXhXhXhXhXhXhXhXhX",
"hXhXhXhXhXhX.   1 &.a.p.s.D.D.F.D.F.D.F.D.D.G.s.D.F.G.D.s.p.D.F   . hX.     hXhXhXhXhXhXhXhXhXhXhXhXhXhXhXhXhXhXhXhXhXhXhXhXhX",
"hXhXhXhX    #.2.2.p.D.D.D.D.D.D.G.D.D.D.G.D.D.G.G.D.D.D.F.F.F.a.2.<.@ #.b   hXhXhXhXhXhXhXhXhXhXhXhXhXhXhXhXhXhXhXhXhXhXhXhXhX",
"hXhX  u V.#.4.G.F.F.G.D.D.D.G.D.G.s.D.D.D.D.D.D.D.D.D.G.F.F.F.F.F.s.#.b q hXhXhXhXhXhXhXhXhXhXhXhXhXhXhXhXhXhXhXhXhXhXhXhXhXhX",
"hX  < } rXY.F.F.F.D.D.D.G.D.D.D.D.G.D.D.D.s.G.D.D.D.D.D.F.F.F.F.H.+Xp.0   hXhXhXhXhXhXhXhXhXhXhXhXhXhXhXhXhXhXhXhXhXhXhXhXhXhX",
"hX  F U.1XU.H.D.F.F.D.F.D.D.D.D.D.D.D.G.D.G.G.D.D.D.F.D.D.F.F.s.+XwXS.f @ hXhXhXhXhXhXhXhXhXhXhXhXhXhXhXhXhXhXhXhXhXhXhXhXhXhX",
"hX  F I.H.wXOXF.D.D.D.D.D.D.D.G.G.D.D.D.G.s.s.G.D.D.D.D.F.F.G.G.+XrXrXu.f   hXhXhXhXhXhXhXhXhXhXhXhXhXhXhXhXhXhXhXhXhXhXhXhXhX",
"hXhX& < 0 eXrX@XD.D.D.D.D.D.D.D.D.G.D.D.G.G.G.F.D.D.4.1.F.F.&XwXwXwX+X2.d   hXhXhXhXhXhXhXhXhXhXhXhXhXhXhXhXhXhXhXhXhXhXhXhXhX",
"hXhXhX& %.[.@X#X-X-X-XU.s.p.2.#X-X-X&XG.3.a.U.-X&X&XS.<.H.&XrXdXwX+XH.1.d   hXhXhXhXhXhXhXhXhXhXhXhXhXhXhXhXhXhXhXhXhXhXhXhXhX",
"hXhXhX< #.#.<.P.1XrXrX-X@X[.=.eXdXrXqXG.H i.+XdXdXqXS.3.@XrX2X&X#XD.4.,.d   hXhXhXhXhXhXhXhXhXhXhXhXhXhXhXhXhXhXhXhXhXhXhXhXhX",
"hXhXhX    & H 4.P.2XqXwXqX*X-.&XwXqX-X2.; F P.wXqXP.<.u.wXqXU.p.a.a.&.&.d   hXhXhXhXhXhXhXhXhXhXhXhXhXhXhXhXhXhXhXhXhXhXhXhXhX",
"hXhXhXhX# 4.D.D.a.&.d.F.4.G @ 2.H.I.2.#   j 1.H.I.,.&.,.G.H.s.2.&.&.&.&.d   hXhXhXhXhXhXhXhXhXhXhXhXhXhXhXhXhXhXhXhXhXhXhXhXhX",
"hXhXhX0 2.D.2.,.#.1 %.,.F @   %.j < 0 H & O & < 1 G &.&.,.,.f & @ < %.s .   hXhXhXhXhXhXhXhXhXhXhXhXhXhXhXhXhXhXhXhXhXhXhXhXhX",
"hXhXhX4 g g s 0 s c &.h ; @ h q @     0 o   u R.X 4 F ,.%.q [ =.=.$.f o   hXhXhXhXhXhXhXhXhXhXhXhXhXhXhXhXhXhXhXhXhXhXhXhXhXhX",
"hXhXhXhX        @ h h &   # h q @         p E.gX..- 2 h h x t.t.r.K.#     hXhXhXhXhXhXhXhXhXhXhXhXhXhXhXhXhXhXhXhXhXhXhXhXhXhX",
"hXhXhXhXhXhX          9 >     G d o       W.fXfXfXL     * K.,.g c K.& @ # hXhXhXhXhXhXhXhXhXhXhXhXhXhXhXhXhXhXhXhXhXhXhXhXhXhX",
"hXhXhXhXhXhXhXhXhX    ).E..   G &.h       W.fXfXfXp     ; K.s H {.K.& n d   hXhXhXhXhXo o o o o o hXhXhXhXhXhXhXhXhXhXhXhXhXhX",
"hXhXhXhXhXhXhXhXhX    ).gX_.@ y.3.h       Q.fXfXfXp q j - #Xk | :XK.& o & hXhX      t .XXXXXXXXX.X8 hXhXhXhXhXhXhXhXhXhXhXhXhX",
"hXhXhXhXhXhXhXhXhXo R.sXfX9XO  X#X;.- E.).9XfXdX..$.t.y.:.>X(.oX,XK.&           / B.A.<X3X<X<X<X&Xt.v     hXhXhXhXhXhXhXhXhXhX",
"hXhXhXhXhXhXhXhXhXo R.E.E.C.D J.>X X) E.E.E.E.Q.!  X$X%X|.[.A.B.e.$.o = , 6 e X Z.4X4X<X<X<X<X$X{.:.) a   hXhXhXhXhXhXhXhXhXhX",
"hXhXhXhXhXhXhXhXhXX 3 8 8 S +Xu.OX3X=Xu 5 8 7 S >X<X<X:XL.( &   .   O N I Y v.% Z.<X,X>X,X,X@Xy.y.k ].Q.    hXhXhXhXhXhXhXhXhX",
"hXhXhXhXhXhXhXhXhX+ XX>X>X>X,X>X<X<X<X>X;X>X>X>X<X<X<X:XJ.&   r a O C z.b.b.v.% Z.$X{.{.{.{.;.+ - `.'._ . . o hXhXhXhXhXhXhXhX",
"hXhXhXhXhXhXhXhXhX+ =X<X<X<X<X<X<X3X4X3XD B.3X<X<X,X3X X;     7 Z N z.b.b.m.b.C y ( L.1.1.v @.6X6XL , x J..XXX/   hXhXhXhXhXhX",
"hXhXhXhXhXhXhXhXhXhXD .X3X<X<X<XB.D ! D B.oX<X<X<X3XZ./ ( o 7 N P z.b.m.b.v.Y P = d 1.0 5 .  .tX .` :.(.:X<X3X.X}   hXhXhXhXhX",
"hXhXhXhXhXhXhXhXhXhX  |  X3X3X3XB.D ! / =X4X4X<X<XA.G $.K.# M U h.m.m.x.h.j.B e $ 1 f       p T.c [.,X<X<X<X<X<XS.  hXhXhXhXhX",
"hXhXhXhXhXhXhXhXhXhXhX  S oXXXXXXXoXoXoX.X.XXXXX.XS ;.P.r.; N z.m.b.c.U C N M X         hXhX  2 |.XX;X<X<X:X,X%X:.  hXhXhXhXhX",
"hXhXhXhXhXhXo o o o +   . o o o o o o o o o o + o r.[.1.$ C z.b.b.b.U K w   .       hXhXhXhXhX8 ;Xu B.>X,X}.}.{.:.  hXhXhXhXhX",
"hXhXhXhXhX  B.oXXXXXoXS   hXhXhXhXhXhXhXhX        1 2 t C x.b.m.b.b.c.I C N M X     hXhXhXhXhX8 >X8 * [ +X}.}.$.1 hXhXhXhXhXhX",
"hXhXhXhXhX  Z.4X3X<X$Xy.n     hXhXhXhXhXhX  $ w w A A R z.b.m.b.b.b.m.x.T K V e $   hXhXhXhXhX3 / ;.;.y.}.}.[ 0 hXhXhXhXhXhXhX",
"hXhXhXhXhXE .X<X<X<X+Xt.] S     hXhXhXhX  $ w K K x.M.m.m.b.b.b.b.b.b.m.z.T K K w $   hXhXhXhXhX  -.=.=.*.*.2 hXhXhXhXhXhXhXhX",
"hXhXhXhX* =X<X<X,X>XJ.D ;.XXo     hXhX  O e K B N h.b.b.b.b.b.b.b.m.b.b.m.x.K J K e O   hXhXhXhXhX          hXhXhXhXhXhXhXhXhX",
"hXhXhXhX* =X3X<X:XL.2 B.$Xy.+     + hX  a J K C O a h.m.b.b.b.b.b.b.m.m.m.x.J J Z K M . hXhXhXhXhXhXhXhXhXhXhXhXhXhXhXhXhXhXhX",
"hXhXhXhX* =X<X<X:XL.1 1.r.u 5.* [ $.    o w K C X X A x.P I P h.m.b.m.b.M.x.J B B B B N O hXhXhXhXhXhXhXhXhXhXhXhXhXhXhXhXhXhX",
"hXhXhXhX* =X3X:X%X[.: 0 Q W k $.J.J.$.h o w K C w X M T V h.z.c.m.b.j.T Y U Z Z K K K J O hXhXhXhXhXhXhXhXhXhXhXhXhXhXhXhXhXhX",
"hXhXhXhX* 9.oX%X{.y.1 p O.7.. d.}.}.L.&.d t M Z Z % r K P n.x.h.h.h.Y Y Y T Y Y N w w w O hXhXhXhXhXhXhXhXhXhXhXhXhXhXhXhXhXhX",
"hXhXhXhXhX  *.f.t.H . ].6X' u f.}.}.L.1.,.q = Z Z $ 7 N P x.I J I I k.k.k.k.k.k.e o       hXhXhXhXhXhXhXhXhXhXhXhXhXhXhXhXhXhX",
"hXhXhXhXhXhX. . .     ].R.3 K.{.}.}.{.{.1.q = B Z $   = Z K Z Y b.l.= o @ o o o n j     hXhXhXhXhXhXhXhXhXhXhXhXhXhXhXhXhXhXhX",
"hXhXhXhXhXhXhXhXhX    , , X 5 f.}.}.}.}.{.c   $ $ hX  = Z Z z.A % 7 t.d.d.y.[ -.&.j     hXhXhXhXhX          hXhXhXhXhXhXhXhXhX",
"hXhXhXhXhXhXhXhXhXhXhXhXhX    d c x x x c 4     hXhX  = J h.m =     v c c v 5 5 5 u u     hXhXhX      3 W     hXhXhXhXhXhXhXhX",
"hXhXhXhXhXhXhXhXhXhXhXhXhXhX                    hXhX  6 j.M.6   o 8 3 t u i i i i E ) .   hXhX+ t .   9 ^ p o hXhXhXhXhXhXhXhX",
"hXhXhXhXhXhXhXhXhXhXhXhXhXhXhXhXhXhXhXhXhXhXhXhXhXhX  6 k.k.w - i X.X.{ 6.^./.).^.^.6.    hXhX3 _ -     ; !.i - hXhXhXhXhXhXhX",
"hXhXhXhXhXhXhXhXhXhXhXhXhXhXhXhXhXhXhXhXhXhXhXhXhX      O O Q 8.!.~.~.6.) 0.aXyX'.S.5..     t ` ) ;     - w.~.l   hXhXhXhXhXhX",
"hXhXhXhXhXhXhXhXhXhXhXhXhXhXhXhXhXhXhXhXhXhXhXhXhX    ; ^ 6.`.tXtXtX9X).6.' 7.0.o.X.W .     t ' ` ^ 3   X 3 7X..  hXhXhXhXhXhX",
"hXhXhXhXhXhXhXhXhXhXhXhXhXhXhXhXhXhXhXhXhXhXhXhX    u +.`.7XyXuXiXiXpX'.V.q.0.' ' Q >     t E ` ` ' t       7X0XO.  hXhXhXhXhX",
"hXhXhXhXhXhXhXhXhXhXhXhXhXhXhXhXhXhXhXhXhXhXhXhX> ~ R.7XpXuXuXuXiXuX7X/.~.~.!.X.Q i >     l ' { 6.{ l ;     O.9X`.  hXhXhXhXhX",
"hXhXhXhXhXhXhXhXhXhXhXhXhXhXhXhXhXhXhXhXhXhXhX9 O.8XiXuXuXuXuXuXyX8X^.~.!.w.6.^ 3 i W . + S ` } !.X.' l O y y ).6Xu hXhXhXhXhX",
"hXhXhXhXhXhXhXhXhXhXhXhXhXhXhXhXhXhXhXhXhX  3 +.tXuXuXuXuXuXuXuX7X^.~.~.8.Q o . l ' E o E ` ` X.!.} ' z 9 9XgXfXfX9X, hXhXhXhX",
"hXhXhXhXhXhXhXhXhXhXhXhXhXhXhXhXhXhXhXhX  u ` ^.yXuXiXuXiXiX`.R.7.X.X.u - 3 W W ) ' E . ^ ` 5.V.!.V.6.z . p 0XfXfXsX- hXhXhXhX",
"hXhXhXhXhXhXhXhXhXhXhXhXhXhXhXhXhXhXhX  i ` V.^.'.'.).W.Q.@.l u t t t o > Q ' ' ` ` ^ l _ ` 6.!.!.^.8.l     ~ ..@.@.hXhXhXhXhX",
"hXhXhXhXhXhXhXhXhXhXhXhXhXhXhXhXhXhXhX  ^ !.~.~.q.q.5.] ^ 0 X           3 Q ` ` ` ` ' ` ` X.q.!.~.{ Q u             hXhXhXhXhX",
"hXhXhXhXhXhXhXhXhXhXhXhXhXhXhXhXhXhXhX3 8.~.!.q.' ` ^ W E W ;     hXhX    - E ) ` ` ` ` ` q.~.!.7.:     hXhXhXhXhXhXhXhXhXhXhX",
"hXhXhXhXhXhXhXhXhXhXhXhXhXhXhXhXhXhX; C.~.6.' ' ` ' u . . .       hXhXhXhX  . ^ ` ` ` ` ` 8.!.7.@ hXhXhXhXhXhXhXhXhXhXhXhXhXhX",
"hXhXhXhXhXhXhXhXhXhXhXhXhXhXhXhXhXhX- !.5.' ` ` ` ` ^ W Q X     hXhXhXhXhXhX  @ D ' ' ) 3 ; > > hXhXhXhXhXhXhXhXhXhXhXhXhXhXhX",
"hXhXhXhXhXhXhXhXhXhXhXhXhXhXhXhXhX3 l 5.' ` ` ` ` ` ` ` ) l *   hXhXhXhXhXhXhX  : t t 9 .   hXhXhXhXhXhXhXhXhXhXhXhXhXhXhXhXhX",
"hXhXhXhXhXhXhXhXhXhXhXhXhXhXhXhX  9 ' ` ` ' ` ' ` 5.6.5.) l ; hXhXhXhXhXhXhXhX            hXhXhXhXhXhXhXhXhXhXhXhXhXhXhXhXhXhX",
"hXhXhXhXhXhXhXhXhXhXhXhXhXhXhXhX; p X.` ` ` ` ' X.V.!.q.^ o hXhXhXhXhXhXhXhXhXhXhXhXhXhXhXhXhXhXhXhXhXhXhXhXhXhXhXhXhXhXhXhXhX",
"hXhXhXhXhXhXhXhXhXhXhXhXhXhX    W ~.w.' ' ' ' ;.!.~.7.' ^ o hXhXhXhXhXhXhXhXhXhXhXhXhXhXhXhXhXhXhXhXhXhXhXhXhXhXhXhXhXhXhXhXhX",
"hXhXhXhXhXhXhXhXhXhXhXhXhX      + ; u w.V.!.w.!.~.~.7.` ^ o hXhXhXhXhXhXhXhXhXhXhXhXhXhXhXhXhXhXhXhXhXhXhXhXhXhXhXhXhXhXhXhXhX",
"hXhXhXhXhXhXhXhXhXhXhXhXhX> E.E.E...X i p k k k k q.!.q.6.+ hXhXhXhXhXhXhXhXhXhXhXhXhXhXhXhXhXhXhXhXhXhXhXhXhXhXhXhXhXhXhXhXhX",
"hXhXhXhXhXhXhXhXhXhXhXhXhXp fXfXfX).              S _ _ W X hXhXhXhXhXhXhXhXhXhXhXhXhXhXhXhXhXhXhXhXhXhXhXhXhXhXhXhXhXhXhXhXhX",
"hXhXhXhXhXhXhXhXhXhXhXhXhXy 7X0XgX_.; > > 3 > : > .         hXhXhXhXhXhXhXhXhXhXhXhXhXhXhXhXhXhXhXhXhXhXhXhXhXhXhXhXhXhXhXhXhX",
"hXhXhXhXhXhXhXhXhXhXhXhXhXhX+ + ).0Xw.V.w.V.w.V.w.3     hXhXhXhXhXhXhXhXhXhXhXhXhXhXhXhXhXhXhXhXhXhXhXhXhXhXhXhXhXhXhXhXhXhXhX",
"hXhXhXhXhXhXhXhXhXhXhXhXhXhXhXhXy y > > : > > : : .     hXhXhXhXhXhXhXhXhXhXhXhXhXhXhXhXhXhXhXhXhXhXhXhXhXhXhXhXhXhXhXhXhXhXhX",
"hXhXhXhXhXhXhXhXhXhXhXhXhXhXhXhXhXhXhXhXhXhXhXhXhXhXhXhXhXhXhXhXhXhXhXhXhXhXhXhXhXhXhXhXhXhXhXhXhXhXhXhXhXhXhXhXhXhXhXhXhXhXhX",
"hXhXhXhXhXhXhXhXhXhXhXhXhXhXhXhXhXhXhXhXhXhXhXhXhXhXhXhXhXhXhXhXhXhXhXhXhXhXhXhXhXhXhXhXhXhXhXhXhXhXhXhXhXhXhXhXhXhXhXhXhXhXhX",
"hXhXhXhXhXhXhXhXhXhXhXhXhXhXhXhXhXhXhXhXhXhXhXhXhXhXhXhXhXhXhXhXhXhXhXhXhXhXhXhXhXhXhXhXhXhXhXhXhXhXhXhXhXhXhXhXhXhXhXhXhXhXhX",
"hXhXhXhXhXhXhXhXhXhXhXhXhXhXhXhXhXhXhXhXhXhXhXhXhXhXhXhXhXhXhXhXhXhXhXhXhXhXhXhXhXhXhXhXhXhXhXhXhXhXhXhXhXhXhXhXhXhXhXhXhXhXhX",
"hXhXhXhXhXhXhXhXhXhXhXhXhXhXhXhXhXhXhXhXhXhXhXhXhXhXhXhXhXhXhXhXhXhXhXhXhXhXhXhXhXhXhXhXhXhXhXhXhXhXhXhXhXhXhXhXhXhXhXhXhXhXhX",
"hXhXhXhXhXhXhXhXhXhXhXhXhXhXhXhXhXhXhXhXhXhXhXhXhXhXhXhXhXhXhXhXhXhXhXhXhXhXhXhXhXhXhXhXhXhXhXhXhXhXhXhXhXhXhXhXhXhXhXhXhXhXhX"
};
