/* XPM */
static char *result[] = {
/* columns rows colors chars-per-pixel */
"63 75 227 2 ",
"   c #010101",
".  c #0A0605",
"X  c #0B0907",
"o  c #070E0A",
"O  c #0C0B0A",
"+  c #030906",
"@  c #130D0B",
"#  c #190F0C",
"$  c #08150D",
"%  c #1D110F",
"&  c #14110F",
"*  c #0D1A13",
"=  c #141312",
"-  c #1A1512",
";  c #1D1916",
":  c #1C1B1B",
">  c #131C18",
",  c #241612",
"<  c #2A1A16",
"1  c #231D1A",
"2  c #2B1C19",
"3  c #251816",
"4  c #2E1B16",
"5  c #14261B",
"6  c #0B2615",
"7  c #28221C",
"8  c #3D251D",
"9  c #34201A",
"0  c #0D3C22",
"q  c #1C3526",
"w  c #1C3928",
"e  c #1C2822",
"r  c #232322",
"t  c #2C2D2D",
"y  c #2C2721",
"u  c #352A27",
"i  c #213C2B",
"p  c #3C332D",
"a  c #3D3532",
"s  c #373835",
"d  c #452B24",
"f  c #4B3228",
"g  c #55332B",
"h  c #5A352C",
"j  c #523225",
"k  c #423734",
"l  c #4B3E3A",
"z  c #473C37",
"x  c #593832",
"c  c #633B2D",
"v  c #653D32",
"b  c #43281D",
"n  c #14482A",
"m  c #15502E",
"M  c #25442F",
"N  c #254933",
"B  c #2D553D",
"V  c #2E593F",
"C  c #1F6C3F",
"Z  c #4D413A",
"A  c #56473C",
"S  c #6C4236",
"D  c #7B493D",
"F  c #754636",
"G  c #353F41",
"H  c #305A41",
"J  c #325241",
"K  c #2B6B45",
"L  c #316A48",
"P  c #30794E",
"I  c #297D4B",
"U  c #1F7040",
"Y  c #5B4B46",
"T  c #5D4D49",
"R  c #554844",
"E  c #5C5A5A",
"W  c #535451",
"Q  c #784C42",
"!  c #66564A",
"~  c #7A5349",
"^  c #695751",
"/  c #6B5A54",
"(  c #665956",
")  c #715D57",
"_  c #735E58",
"`  c #7C5A54",
"'  c #6E4E48",
"]  c #72624F",
"[  c #75615B",
"{  c #7A655E",
"}  c #7A6955",
"|  c #6E605C",
" . c #656361",
".. c #7E6A64",
"X. c #796661",
"o. c #737879",
"O. c #814D37",
"+. c #83503A",
"@. c #8A533D",
"#. c #8C5345",
"$. c #865548",
"%. c #935748",
"&. c #955A4B",
"*. c #985B4B",
"=. c #925745",
"-. c #8D5C52",
";. c #955E52",
":. c #814D40",
">. c #916956",
",. c #A9664D",
"<. c #A66857",
"1. c #B46C52",
"2. c #B96F54",
"3. c #BC7154",
"4. c #B5775C",
"5. c #B36D4F",
"6. c #826C66",
"7. c #846F69",
"8. c #8A746D",
"9. c #887568",
"0. c #947A64",
"q. c #8E7871",
"w. c #937B75",
"e. c #977F79",
"r. c #AA6D61",
"t. c #B77767",
"y. c #AD7063",
"u. c #CD7D5B",
"i. c #C37657",
"p. c #D47F5C",
"a. c #C07C6E",
"s. c #C47F71",
"d. c #2C8C54",
"f. c #308A55",
"g. c #2A9456",
"h. c #319D5D",
"j. c #309057",
"k. c #25894F",
"l. c #2FA25E",
"z. c #31AE65",
"x. c #31A460",
"c. c #31B166",
"v. c #32B468",
"b. c #9B866C",
"n. c #9B866C",
"m. c #96817B",
"M. c #9C847D",
"N. c #A0896E",
"B. c #A28C71",
"V. c #B88C73",
"C. c #AE9478",
"Z. c #D7835F",
"A. c #D8845F",
"S. c #DA8662",
"D. c #DC8D6B",
"F. c #DD906F",
"G. c #C88674",
"H. c #D58A7B",
"J. c #DC8E7E",
"K. c #D18575",
"L. c #C7937B",
"P. c #DE9575",
"I. c #E19777",
"U. c #84898A",
"Y. c #9A8B86",
"T. c #9B9896",
"R. c #879598",
"E. c #A48C85",
"W. c #A78E88",
"Q. c #AD9993",
"!. c #BDA485",
"~. c #AFA19E",
"^. c #A6A3A1",
"/. c #B4AAA6",
"(. c #BCBCBB",
"). c #B5B8B8",
"_. c #AFB1B1",
"`. c #D89782",
"'. c #C39383",
"]. c #E59484",
"[. c #EA9887",
"{. c #E59C86",
"}. c #C6AA89",
"|. c #D3B693",
" X c #D9BC98",
".X c #DEA78D",
"XX c #E8A58D",
"oX c #EAAD91",
"OX c #EAA991",
"+X c #EBB699",
"@X c #F4B499",
"#X c #F5BC9E",
"$X c #F1A791",
"%X c #D1B8A9",
"&X c #EEBDA5",
"*X c #F7BFA0",
"=X c #EBC9A3",
"-X c #FAC4A3",
";X c #F4C7A7",
":X c #F5D3AB",
">X c #FDD5AE",
",X c #FAD8AE",
"<X c #FFDCB2",
"1X c #E8C5B5",
"2X c #FFE1B6",
"3X c #FFE6BA",
"4X c #E4C59F",
"5X c #BDC6C7",
"6X c #BACFD4",
"7X c #C2C4C4",
"8X c #C9CDCD",
"9X c #CAD9DC",
"0X c #D8D7D7",
"qX c #F7D8C6",
"wX c #ECD4C6",
"eX c #FDE4D5",
"rX c #FFEADC",
"tX c #FEE7D9",
"yX c #CDDEE1",
"uX c #D5EEF3",
"iX c #D6F0F6",
"pX c #D8F2F8",
"aX c #D1E5E9",
"sX c #E9E9E9",
"dX c gray96",
"fX c #FEFEFE",
"gX c None",
/* pixels */
"gXgXgXgXgXgXgXgXgXgXgXgXgXgXgXgXgXgXgXgXgXgXgXgXgXgXgXgXgXgXgXgXgXgXgXgXgXgXgXgXgXgXgXgXgXgXgXgXgXgXgXgXgXgXgXgXgXgXgXgXgXgXgX",
"gXgXgXgXgXgXgXgXgXgXgXgXgXgXgXgXgXgXgXgXgXgXgXgXgXgXgXgXgXgXgXgXgXgXgXgXgXgXgXgXgXgXgXgXgXgXgXgXgXgXgXgXgXgXgXgXgXgXgXgXgXgXgX",
"gXgXgXgXgXgXgXgXgXgXgXgXgXgXgXgXgXgXgXgXgXgXgXgXgXgXgXgXgXgXgXgXgXgXgXgXgXgXgXgXgXgXgXgXgXgXgXgXgXgXgXgXgXgXgXgXgXgXgXgXgXgXgX",
"gXgXgXgXgXgXgXgXgXgXgXgXgXgXgXgX                        gXgXgXgXgXgXgXgXgXgXgXgXgXgXgXgXgXgXgXgXgXgXgXgXgXgXgXgXgXgXgXgXgXgXgX",
"gXgXgXgXgXgXgXgXgXgXgXgX      % g h F +.+.+.+.D +.+.+.h ,     gXgXgXgXgXgXgXgXgXgXgXgXgXgXgXgXgXgXgXgXgXgXgXgXgXgXgXgXgXgXgXgX",
"gXgXgXgXgXgXgXgXgXgXgXgX9 d j S 1.1.Z.S.A.S.A.S.S.S.S.2.F j j gXgXgXgXgXgXgXgXgXgXgXgXgXgXgXgXgXgXgXgXgXgXgXgXgXgXgXgXgXgXgXgX",
"gXgXgXgXgXgXgXgXgX, , 9 *.u.A.A.Z.Z.A.A.A.A.Z.S.A.Z.Z.A.A.S.2.< , , , gXgXgXgXgXgXgXgXgXgXgXgXgXgXgXgXgXgXgXgXgXgXgXgXgXgXgXgX",
"gXgXgXgX. . . X   F Z.u.p.Z.Z.A.S.Z.Z.A.A.A.Z.Z.Z.A.Z.Z.Z.Z.Z.u.p.Z.@.  . . gXgXgXgXgXgXgXgXgXgXgXgXgXgXgXgXgXgXgXgXgXgXgXgXgX",
"gXgXgX  F 5.y.%Xt.i.S.S.p.p.S.p.S.Z.Z.Z.Z.Z.Z.Z.S.p.S.S.S.p.p.S.Z.A.i.5.5.5.j   gXgXgXgXgXgXgXgXgXgXgXgXgXgXgXgXgXgXgXgXgXgXgX",
"gXgXgXgX8 D P.eXI.A.p.S.S.S.p.S.Z.Z.Z.Z.Z.Z.Z.Z.Z.S.p.u.p.S.S.p.Z.p.P.#XS.F 9 gXgXgXgXgXgXgXgXgXgXgXgXgXgXgXgXgXgXgXgXgXgXgXgX",
"gXgXgXgX  b S.=X+XP.S.p.S.Z.S.S.Z.Z.Z.Z.Z.Z.Z.Z.Z.S.S.S.S.p.S.S.XXXX;XwX@.# gXgXgXgXgXgXgXgXgXgXgXgXgXgXgXgXgXgXgXgXgXgXgXgXgX",
"gXgXgXgX# S Z.Z.,X&XP.P.S.Z.S.u.Z.Z.Z.Z.Z.S.Z.Z.Z.i.p.S.F.P.P.P.qXrXtX%X3 . gXgXgXgXgXgXgXgXgXgXgXgXgXgXgXgXgXgXgXgXgXgXgXgXgX",
"gXgXgX  F Z.i.,.1XeXeXqXD.S.S.S.Z.Z.Z.S.S.S.S.Z.2.,.s.A.;XtXeXeXtXtX;Xs.=.% gXgXgXgXgXgXgXgXgXgXgXgXgXgXgXgXgXgXgXgXgXgXgXgXgX",
"gXgXgX  # , 8 3.F.I.oXtXwXqXqX1XZ.,.i.oXqXqXqX{.2.%.,.1XeXrXrXrXrX+XD.u.=.% gXgXgXgXgXgXgXgXgXgXgXgXgXgXgXgXgXgXgXgXgXgXgXgXgX",
"gXgXgXgX  , @.Z.Z.A.F.oXoXoXoXG.j 8 @.K.+XoXoXF.3.=.*.`.$XOXXX'..XI.u.,.=.% gXgXgXgXgXgXgXgXgXgXgXgXgXgXgXgXgXgXgXgXgXgXgXgXgX",
"gXgXgXgX8 @.A.i.i.*.@.3.3.3.i.+.    8 S O.@.1.Z.3.=.*.3.@.O.D h ,.3.<.=.=.% gXgXgXgXgXgXgXgXgXgXgXgXgXgXgXgXgXgXgXgXgXgXgXgXgX",
"gXgXgX  S 5.,.D D 9 < %.Q #.:.h       > r . v 1.1.#.D D d , 3 < v #.&.%.=.% gXgXgXgXgXgXgXgXgXgXgXgXgXgXgXgXgXgXgXgXgXgXgXgXgX",
"gXgXgX    . .       < O.# v j       . o.7XO   v %.D . . -.].H.H.2 h *.&.#.% gXgXgXgXgXgXgXgXgXgXgXgXgXgXgXgXgXgXgXgXgXgXgXgXgX",
"gXgXgXgXgXgXgXgX    . @   @ .       T.sXdX7X: . j D o <.y.v f H.< g *.:., gXgXgXgXgXgXgXgXgXgXgXgXgXgXgXgXgXgXgXgXgXgXgXgXgXgX",
"gXgXgXgXgXgXgXgXgX    . g @         _.fXfXdXr   @ u v H.D g r.`.< g *.D   gXgXgXgXgXgXgXgXgXgXgXgXgXgXgXgXgXgXgXgXgXgXgXgXgXgX",
"gXgXgXgXgXgXgXgXgX    @ <.h &       ).fXfXsXr < % % *.XXx A @X].2 g *.:.8 # gXgXgXgXgXgXgXgXgXgXgXgXgXgXgXgXgXgXgXgXgXgXgXgXgX",
"gXgXgXgXgXgXgXgXgX    % H.t.j       ).fXfXsXr F x % *.=X] } :Xt., g *.%.D - gXgXgXgXgXgXgXgXgXgXgXgXgXgXgXgXgXgXgXgXgXgXgXgXgX",
"gXgXgXgXgXgXgXgXgX    % H.[.Q     X ).fXdXsXr <.$., *.;X:X:X}.&   h %.D X gXgXgXgXgX. . . + X X X gXgXgXgXgXgXgXgXgXgXgXgXgXgX",
"gXgXgXgXgXgXgXgXgX    > +X$XH.$.= (.dXfX8Xa r.`.H.t.*.`.' 7 2   c d # @             ;.a.L.|.|.|.]   gXgXgXgXgXgXgXgXgXgXgXgXgX",
"gXgXgXgXgXgXgXgXgX  y B.V.oX-X.X-. .E E | N.+X-X*X@XG.I.y.g X c %.8   + q q q 5 @ -.H.[.[.#X<X2X X}   gXgXgXgXgXgXgXgXgXgXgXgX",
"gXgXgXgXgXgXgXgXgX  Z >XG.=X2X,XoX! A R 6.<X2X2X2X:X[.[.J.Q X h h y 6 5 B H H N r -.H.[.[.[.*X-X}.q.W gXgXgXgXgXgXgXgXgXgXgXgX",
"gXgXgXgXgXgXgXgXgX  Z <X2X<X<X<X<X2X3X2X<X<X<X<X>X-X].s.&.f o o $ N L L H H B H N + -.J.].H.s.s.' W 8X>     gXgXgXgXgXgXgXgXgX",
"gXgXgXgXgXgXgXgXgX  Z ,X>X<X,X:X:X<X<X<X<X<X<X<X#X].H.< . 5 V V h.x.z.l.H B B H N + . ~ K.:.- . o.6Xe.> X     gXgXgXgXgXgXgXgX",
"gXgXgXgXgXgXgXgXgXgXgXz :X2Xn.1 p =X<X<X<X<X<X@X[.s.7     n x.h.z.z.c.h.H * w H H N o h Q r _.Y.W r y !. X]     gXgXgXgXgXgXgX",
"gXgXgXgXgXgXgXgXgXgXgXgX!  X|.b.C.,X3X3X>X@X@X$Xr.d   m C k.c.c.z.z.z.z.f.N 5 q H H $ % < * ^.E ! ] & `.0.} B.n.1 gXgXgXgXgXgX",
"gXgXgXgXgXgXgXgXgXgXgXgX  ] B.B.b.b.b.b.0.&.-.-.A n n l.c.c.z.z.z.z.z.z.c.L q 5 q q o     @ T x C.}.& G.b p !.:X1 gXgXgXgXgXgX",
"gXgXgXgXgXgXgXgX  - y 7   % @                 + m v.v.c.z.z.z.z.z.z.c.z.z.L H i       gXgXgX  r.oXn.@ r.A 7 Z }.; gXgXgXgXgXgX",
"gXgXgXgXgXgXgX    9.,X X; y.Q   gXgXgXgXgXgX  q f.c.z.z.z.z.z.z.z.z.z.c.z.L H w   gXgXgXgXgX  <.` O X @ C.,X!.O   gXgXgXgXgXgX",
"gXgXgXgXgXgXgX  B.=X<X<X X=XXX-.  gXgXgXgX+ i f.x.c.z.z.z.z.z.z.z.c.z.z.z.x.P B M   gXgXgXgX  % } |.|.|.A 0.}.+ gXgXgXgXgXgXgX",
"gXgXgXgXgXgX; n.=X2X<X>X@X>X-Xr.  gXgXgXgX  * 0 0 m P P h.c.x.P P h.c.z.z.c.h.f.j.C 6 gXgXgXgX  } 3X2X3X}.} A gXgXgXgXgXgXgXgX",
"gXgXgXgXgXgX7 :X2X<X<X>X+X*XG.` W gXgXgX  . f h x f q B P j.f.H w I c.z.z.z.c.c.v.v.m 6 gXgXgXgX! b.n.n.B.! gXgXgXgXgXgXgXgXgX",
"gXgXgXgXgXgX1 =X<X<X<X<X<X$XS G yX> gX  . u `.$XXXa.2 i B H B N * U v.z.c.z.z.c.z.z.v.m   gXgXgXgX        gXgXgXgXgXgXgXgXgXgX",
"gXgXgXgXgXgX7 =X<X<X<X<X<XXX' G 6Xe X   k :X>X<X#X].H.2 q B N X N j.v.z.z.z.z.z.z.z.z.m     gXgXgXgXgXgXgXgXgXgXgXgXgXgXgXgXgX",
"gXgXgXgXgXgX3 {.>X<X<X>X<XA R _ s !.|.'.L.<X<X<X*X].]., + o * N j.x.z.z.z.z.z.c.z.z.n q q   gXgXgXgXgXgXgXgXgXgXgXgXgXgXgXgXgX",
"gXgXgXgXgXgXgXh L.>X3X>X@Xu R ..& =X2X*X$X<X<X#X$XJ.r.&   o N f.x.z.z.z.z.z.v.d.0 n   o *   gXgXgXgXgXgXgXgXgXgXgXgXgXgXgXgXgX",
"gXgXgXgXgXgXgX  Q >.!.#X[.8 t l - 4X2X-X#X<X-XXXJ.r.g X $ i L z.v.z.z.z.z.v.k.B g h x 2     gXgXgXgXgXgXgXgXgXgXgXgXgXgXgXgXgX",
"gXgXgXgXgXgXgXgX    u a.t.9     & =X<X<X<X;XJ.G.<.x     5 B L h.l.z.l.g.d.g.N S {.V.s.x     gXgXgXgXgXgXgXgXgXgXgXgXgXgXgXgXgX",
"gXgXgXgXgXgXgXgXgXgXgX. X       =  X,X,X=XJ.*.8 . . gX    5 B V V d.C   +   Q ].s.- @ .   gXgXgXgXgXgX      +   gXgXgXgXgXgXgX",
"gXgXgXgXgXgXgXgXgXgXgXgXgXgXgXgXgX7 y y 7 < % gXgXgXgX      o o o $ $       @ 3 u 6.8.a   gXgXgXgXgX      k /     gXgXgXgXgXgX",
"gXgXgXgXgXgXgXgXgXgXgXgXgXgXgXgXgXgXgXgXgXgXgXgXgXgX    y R ^ ^ U.R.R.U.( ( ( R z 6.E.l   gXgXgXgX= p .   ; l T X gXgXgXgXgXgX",
"gXgXgXgXgXgXgXgXgXgXgXgXgXgXgXgXgXgXgXgXgXgXgXgXgX    u / q.w.e._.).)._.m.m.w.Y.Y._ 8.Y 1 gXgXgX; a ^ O     1 E.Z 7 gXgXgXgXgX",
"gXgXgXgXgXgXgXgXgXgXgXgXgXgXgXgXgXgXgXgXgXgXgXgX- ; 3 8.Y.8.) ) | [ ) { { X...T.yX..X.X.R   gX  u _ ^ 1 +   : 8.~.a   gXgXgXgX",
"gXgXgXgXgXgXgXgXgXgXgXgXgXgXgXgXgXgXgXgXgXgX    l e.) _ _ _ ) ) m.....Y.B.E.5XuXaXQ.E.8.l +     p _ ) / 1     ; 0XE   gXgXgXgX",
"gXgXgXgXgXgXgXgXgXgXgXgXgXgXgXgXgXgXgXgXgX    Y e.E.M.M.M.8.T - - = p 6.{ M.7XuXuXyX~.7.X.... k ^ _ ) ) 1     & 0XsXo.  gXgXgX",
"gXgXgXgXgXgXgXgXgXgXgXgXgXgXgXgXgXgXgXgX& z ' q./.(.W.E.W.w.^ z O   O u ) 6.).pXuXuX~.6...e.@ R _ _ ) ) R 2     W 0XT.  gXgXgX",
"gXgXgXgXgXgXgXgXgXgXgXgXgXgXgXgXgXgXgX= z T._.).8X9XW.W.M.7.^ l O     . k ! T.9XuXuX5X^.Y...O Z _ _ 7.7.X.a =  .E 8X5XE gXgXgX",
"gXgXgXgXgXgXgXgXgXgXgXgXgXgXgXgXgXgXO z T.uXuXuXiX9XW.8./ Y l             R q./.uXuXiXuX).) 3 R _ 6.E.E.7.u t 0XdXfXfX8XO gXgX",
"gXgXgXgXgXgXgXgXgXgXgXgXgXgXgXgXgX  Z ^.uXuXuXuXuX9XY.1 .         gXgX  . R 8./.uXuXuX%XE.M.) ) _ 6.E.E.6.p   > 0XdXfX7XX gXgX",
"gXgXgXgXgXgXgXgXgXgXgXgXgXgXgXgX    R.aXuXuXuXiX8XQ.E./ 1     gXgXgXgXgX  O l T.uXuXiX(.E.E._ _ 9.M.W.W.7.a   . r t t t gXgXgX",
"gXgXgXgXgXgXgXgXgXgXgXgXgXgXgXgXO T 5XpXuXuXuXpX).[ a y O   gXgXgXgXgXgXgX  & W (.uXpX(.e.7._ / q.w.k a u ; gXgXgXgXgXgXgXgXgX",
"gXgXgXgXgXgXgXgXgXgXgXgXgXgXgXgXO m.8XpXuXuXuX9XT.T 7     gXgXgXgXgXgXgXgXgX  : | 5X8X^.9._ _ _ / l       gXgXgXgXgXgXgXgXgXgX",
"gXgXgXgXgXgXgXgXgXgXgXgXgXgXgXgX@ e.7XyXyX9X9X/.8.) / @ gXgXgXgXgXgXgXgXgXgXgX  @ ..8.) Y T Y T u     gXgXgXgXgXgXgXgXgXgXgXgX",
"gXgXgXgXgXgXgXgXgXgXgXgXgXgXgX  @ e.W.W.W.W.W.W.q.) / O gXgXgXgXgXgXgXgXgXgXgXgX  + +     . . . + gXgXgXgXgXgXgXgXgXgXgXgXgXgX",
"gXgXgXgXgXgXgXgXgXgXgXgXgXgX  = T [ X.X.X.X.X.{ [ ) / @ gXgXgXgXgXgXgXgXgXgXgXgXgXgXgXgXgXgXgXgXgXgXgXgXgXgXgXgXgXgXgXgXgXgXgX",
"gXgXgXgXgXgXgXgXgXgXgXgX    k { w.w.[ / / / ) ) ) ) / @ gXgXgXgXgXgXgXgXgXgXgXgXgXgXgXgXgXgXgXgXgXgXgXgXgXgXgXgXgXgXgXgXgXgXgX",
"gXgXgXgXgXgXgXgXgXgXgXgX    u X.W.W.w.7.6._ _ ) _ ) / @ gXgXgXgXgXgXgXgXgXgXgXgXgXgXgXgXgXgXgXgXgXgXgXgXgXgXgXgXgXgXgXgXgXgXgX",
"gXgXgXgXgXgXgXgXgXgXgX+ t t t z 8.7.8.8...T Y ^ _ ) / @ gXgXgXgXgXgXgXgXgXgXgXgXgXgXgXgXgXgXgXgXgXgXgXgXgXgXgXgXgXgXgXgXgXgXgX",
"gXgXgXgXgXgXgXgXgXgXgX: sXdXfX_.+ . . + +   . l ) / ! @ gXgXgXgXgXgXgXgXgXgXgXgXgXgXgXgXgXgXgXgXgXgXgXgXgXgXgXgXgXgXgXgXgXgXgX",
"gXgXgXgXgXgXgXgXgXgXgX: sXfXfX).              O @ = =   gXgXgXgXgXgXgXgXgXgXgXgXgXgXgXgXgXgXgXgXgXgXgXgXgXgXgXgXgXgXgXgXgXgXgX",
"gXgXgXgXgXgXgXgXgXgXgXgXE E ).0X) / / / / / / 1     gXgXgXgXgXgXgXgXgXgXgXgXgXgXgXgXgXgXgXgXgXgXgXgXgXgXgXgXgXgXgXgXgXgXgXgXgX",
"gXgXgXgXgXgXgXgXgXgXgXgX     .U./ ^ ^ ( ( ^ ( 1     gXgXgXgXgXgXgXgXgXgXgXgXgXgXgXgXgXgXgXgXgXgXgXgXgXgXgXgXgXgXgXgXgXgXgXgXgX",
"gXgXgXgXgXgXgXgXgXgXgXgXgXgXgX                      gXgXgXgXgXgXgXgXgXgXgXgXgXgXgXgXgXgXgXgXgXgXgXgXgXgXgXgXgXgXgXgXgXgXgXgXgX",
"gXgXgXgXgXgXgXgXgXgXgXgXgXgXgXgXgXgXgXgXgXgXgXgXgXgXgXgXgXgXgXgXgXgXgXgXgXgXgXgXgXgXgXgXgXgXgXgXgXgXgXgXgXgXgXgXgXgXgXgXgXgXgX",
"gXgXgXgXgXgXgXgXgXgXgXgXgXgXgXgXgXgXgXgXgXgXgXgXgXgXgXgXgXgXgXgXgXgXgXgXgXgXgXgXgXgXgXgXgXgXgXgXgXgXgXgXgXgXgXgXgXgXgXgXgXgXgX",
"gXgXgXgXgXgXgXgXgXgXgXgXgXgXgXgXgXgXgXgXgXgXgXgXgXgXgXgXgXgXgXgXgXgXgXgXgXgXgXgXgXgXgXgXgXgXgXgXgXgXgXgXgXgXgXgXgXgXgXgXgXgXgX",
"gXgXgXgXgXgXgXgXgXgXgXgXgXgXgXgXgXgXgXgXgXgXgXgXgXgXgXgXgXgXgXgXgXgXgXgXgXgXgXgXgXgXgXgXgXgXgXgXgXgXgXgXgXgXgXgXgXgXgXgXgXgXgX",
"gXgXgXgXgXgXgXgXgXgXgXgXgXgXgXgXgXgXgXgXgXgXgXgXgXgXgXgXgXgXgXgXgXgXgXgXgXgXgXgXgXgXgXgXgXgXgXgXgXgXgXgXgXgXgXgXgXgXgXgXgXgXgX",
"gXgXgXgXgXgXgXgXgXgXgXgXgXgXgXgXgXgXgXgXgXgXgXgXgXgXgXgXgXgXgXgXgXgXgXgXgXgXgXgXgXgXgXgXgXgXgXgXgXgXgXgXgXgXgXgXgXgXgXgXgXgXgX",
"gXgXgXgXgXgXgXgXgXgXgXgXgXgXgXgXgXgXgXgXgXgXgXgXgXgXgXgXgXgXgXgXgXgXgXgXgXgXgXgXgXgXgXgXgXgXgXgXgXgXgXgXgXgXgXgXgXgXgXgXgXgXgX",
"gXgXgXgXgXgXgXgXgXgXgXgXgXgXgXgXgXgXgXgXgXgXgXgXgXgXgXgXgXgXgXgXgXgXgXgXgXgXgXgXgXgXgXgXgXgXgXgXgXgXgXgXgXgXgXgXgXgXgXgXgXgXgX"
};
