/* XPM */
static char *result[] = {
/* columns rows colors chars-per-pixel */
"63 75 226 2 ",
"   c #010101",
".  c #0A0605",
"X  c #040A06",
"o  c #0D0807",
"O  c #0C0A09",
"+  c #060E0A",
"@  c #130C0B",
"#  c #180E0C",
"$  c #06110B",
"%  c #0A130D",
"&  c #07180E",
"*  c #13100F",
"=  c #1C110D",
"-  c #0D1B13",
";  c #151312",
":  c #1B1513",
">  c #1E1917",
",  c #1C1A19",
"<  c #241512",
"1  c #2A1A16",
"2  c #241E1D",
"3  c #271914",
"4  c #311E1A",
"5  c #311C17",
"6  c #24150D",
"7  c #0C2919",
"8  c #15281D",
"9  c #0D341E",
"0  c #27211D",
"q  c #38221C",
"w  c #1A2920",
"e  c #193B27",
"r  c #232222",
"t  c #2B2422",
"y  c #2D2821",
"u  c #342B28",
"i  c #372B26",
"p  c #223B29",
"a  c #3A302E",
"s  c #3C3736",
"d  c #2C3132",
"f  c #44281E",
"g  c #472C24",
"h  c #5A362D",
"j  c #573429",
"k  c #453B31",
"l  c #4B3E3A",
"z  c #4A3C34",
"x  c #5B3B33",
"c  c #503931",
"v  c #443B2F",
"b  c #633C2D",
"n  c #683F2E",
"m  c #683E33",
"M  c #194E2F",
"N  c #244531",
"B  c #274B35",
"V  c #28553A",
"C  c #21422E",
"Z  c #4E413A",
"A  c #51433D",
"S  c #574539",
"D  c #6E4136",
"F  c #67443B",
"G  c #744539",
"H  c #7D4A3D",
"J  c #794936",
"K  c #6A412F",
"L  c #315C41",
"P  c #30724B",
"I  c #307D4F",
"U  c #2E6845",
"Y  c #1F6E40",
"T  c #434344",
"R  c #4B4A48",
"E  c #544642",
"W  c #594945",
"Q  c #594B47",
"!  c #595452",
"~  c #5D524E",
"^  c #774C43",
"/  c #64534E",
"(  c #6C5A49",
")  c #6D5A55",
"_  c #665652",
"`  c #715D57",
"'  c #735E58",
"]  c #6C5149",
"[  c #70614E",
"{  c #766652",
"}  c #7C6A55",
"|  c #75615B",
" . c #7A655A",
".. c #7D6A64",
"X. c #796761",
"o. c #767574",
"O. c #6D6D6D",
"+. c #814D3B",
"@. c #8D563E",
"#. c #824E40",
"$. c #8D5446",
"%. c #85554A",
"&. c #935941",
"*. c #9B5F45",
"=. c #955849",
"-. c #995B4B",
";. c #915648",
":. c #8F5E53",
">. c #8C6D5A",
",. c #A3614D",
"<. c #A9644E",
"1. c #A46A5D",
"2. c #AC6B5C",
"3. c #A76654",
"4. c #B66E56",
"5. c #BD7256",
"6. c #BB755D",
"7. c #B16A4F",
"8. c #806A64",
"9. c #856F68",
"0. c #89736C",
"q. c #86716B",
"w. c #8E7972",
"e. c #8E7770",
"r. c #937B75",
"t. c #967F78",
"y. c #957763",
"u. c #AF7768",
"i. c #A05E4B",
"p. c #CC7C5A",
"a. c #C47759",
"s. c #D17F5D",
"d. c #C27B68",
"f. c #28844E",
"g. c #2D8C54",
"h. c #318654",
"j. c #2C9D5B",
"k. c #2B9355",
"l. c #31955A",
"z. c #2FA25E",
"x. c #31AE65",
"c. c #31A561",
"v. c #31B166",
"b. c #32B568",
"n. c #2FA961",
"m. c #9B837C",
"M. c #978079",
"N. c #9D876E",
"B. c #B08D78",
"V. c #D7835F",
"C. c #D8845F",
"Z. c #C9856E",
"A. c #D78360",
"S. c #DA8561",
"D. c #DB8C69",
"F. c #CC8474",
"G. c #C48573",
"H. c #D68B7B",
"J. c #D89477",
"K. c #D29278",
"L. c #E09A7B",
"P. c #7D8B8E",
"I. c #898786",
"U. c #9D8A84",
"Y. c #9B9998",
"T. c #839598",
"R. c #A48B84",
"E. c #A6928C",
"W. c #A99A96",
"Q. c #B09E99",
"!. c #B7A79C",
"~. c #B9A38C",
"^. c #A8A9A9",
"/. c #B3A9A6",
"(. c #BABABA",
"). c #B4B8B8",
"_. c #B2B2B1",
"`. c #8C9EA2",
"'. c #C89981",
"]. c #DD9381",
"[. c #C29F92",
"{. c #E49584",
"}. c #E89B86",
"|. c #D6B895",
" X c #D8A893",
".X c #E6A28A",
"XX c #EAAB91",
"oX c #F2AB93",
"OX c #E9B499",
"+X c #F5B89B",
"@X c #DBB5A5",
"#X c #DCBDB0",
"$X c #EBBBA5",
"%X c #F6BFA4",
"&X c #EAC8A4",
"*X c #F5CBA8",
"=X c #FCD4AD",
"-X c #F4D2AA",
";X c #EDC9B7",
":X c #F4CDB9",
">X c #F3C9B3",
",X c #FFDCB2",
"<X c #F5D0BC",
"1X c #FFE0B6",
"2X c #B4BFC0",
"3X c #B9C3C5",
"4X c #C6C9C9",
"5X c #C9D9DB",
"6X c gray84",
"7X c #F6DDCE",
"8X c #FBE1D1",
"9X c #FFEADC",
"0X c #CCDEE1",
"qX c #D1E6EA",
"wX c #D2E9EE",
"eX c #D4EDF2",
"rX c #D6F0F6",
"tX c #D8F3F8",
"yX c #CCE1E5",
"uX c #ECECEC",
"iX c #E6E4E4",
"pX c #FFEEE0",
"aX c #FEFEFE",
"sX c #F1F1F1",
"dX c #FFF1E4",
"fX c None",
/* pixels */
"fXfXfXfXfXfXfXfXfXfXfXfXfXfX    .                     fXfXfXfXfXfXfXfXfXfXfXfXfXfXfXfXfXfXfXfXfXfXfXfXfXfXfXfXfXfXfXfXfXfXfXfX",
"fXfXfXfXfXfXfXfXfXfXfX      q D m *.*.*.*.*.*.*.*.&.m @       fXfXfXfXfXfXfXfXfXfXfXfXfXfXfXfXfXfXfXfXfXfXfXfXfXfXfXfXfXfXfXfX",
"fXfXfXfXfXfXfXfXfXfX= g n n &.5.a.s.S.S.S.S.S.S.S.s.4.J K K b     fXfXfXfXfXfXfXfXfXfXfXfXfXfXfXfXfXfXfXfXfXfXfXfXfXfXfXfXfXfX",
"fXfXfXfXfXfXfXfXfX1 h 7.A.S.S.C.S.s.C.S.C.C.C.C.C.C.C.C.C.C.5.f q 3 fXfXfXfXfXfXfXfXfXfXfXfXfXfXfXfXfXfXfXfXfXfXfXfXfXfXfXfXfX",
"fXfXfXfXfXfXfXfX@ J S.V.C.V.V.C.s.S.C.S.s.C.C.A.C.C.C.C.C.C.s.S.V.h o fXfXfXfXfXfXfXfXfXfXfXfXfXfXfXfXfXfXfXfXfXfXfXfXfXfXfXfX",
"fXfXfXfXfXfXfX  *.s.A.V.V.V.V.V.C.C.C.s.S.C.C.s.C.C.A.A.s.C.S.S.C.V.+.  fXfXfXfXfXfXfXfXfXfXfXfXfXfXfXfXfXfXfXfXfXfXfXfXfXfXfX",
"fXfXfXfXfXfX= &.p.C.V.V.C.V.V.V.s.S.C.C.A.C.C.C.s.C.C.s.S.s.S.s.C.5.,.@.o fXfXfXfXfXfXfXfXfXfXfXfXfXfXfXfXfXfXfXfXfXfXfXfXfXfX",
"fXfXfXfXfXfX: XXD.V.V.V.V.V.V.V.S.S.s.S.s.C.C.C.A.C.C.C.C.C.C.C.V.K.u.j . fXfXfXfXfXfXfXfXfXfXfXfXfXfXfXfXfXfXfXfXfXfXfXfXfXfX",
"fXfXfXfXfX6 S 7XL.V.A.V.V.V.V.V.V.C.V.C.C.C.A.C.V.V.C.A.V.V.A.A.V.*XQ.#   fXfXfXfXfXfXfXfXfXfXfXfXfXfXfXfXfXfXfXfXfXfXfXfXfXfX",
"fXfXfXfX  g D.8X.XD.S.V.V.V.V.V.V.s.s.C.V.V.A.s.V.C.C.A.A.V.C.A.D.>X@XG . fXfXfXfXfXfXfXfXfXfXfXfXfXfXfXfXfXfXfXfXfXfXfXfXfXfX",
"fXfXfXfX  f J.8X7X8X>XV.V.V.A.A.s.i.a.C.A.A.A.A.A.A.A.A.V.A.A.S.:X9X@XH . fXfXfXfXfXfXfXfXfXfXfXfXfXfXfXfXfXfXfXfXfXfXfXfXfXfX",
"fXfXfXfX  g S.u.J.>X8X>XD.$X:X:X;X3.i.'.:X:X:X:X:X:X>XD.OX:X>X:X9X&XZ.H . fXfXfXfXfXfXfXfXfXfXfXfXfXfXfXfXfXfXfXfXfXfXfXfXfXfX",
"fXfXfXfX  < J 7.p.}.+XOX6.:XdX7X Xx +.G.>XpXpXpXpX7X[.4.#XdXpX9X%XF.<.H . fXfXfXfXfXfXfXfXfXfXfXfXfXfXfXfXfXfXfXfXfXfXfXfXfXfX",
"fXfXfXfX    = p.V.p.4.&.D [.:XOX7.@ g +.1.!.#X;X:X$X=.;.B././.!.Z.,.=.H . fXfXfXfXfXfXfXfXfXfXfXfXfXfXfXfXfXfXfXfXfXfXfXfXfXfX",
"fXfXfXfX    = p.C.7.b o   D 4.6.H o   O ; o #.a.A.a.=.$.i # ; : D ;.-.H   fXfXfXfXfXfXfXfXfXfXfXfXfXfXfXfXfXfXfXfXfXfXfXfXfXfX",
"fXfXfXfXfXfX= p.C.n 4 G o D -.G o     o._.o +.a.5.-.$.= %.].F.d.1 h -.H . fXfXfXfXfXfXfXfXfXfXfXfXfXfXfXfXfXfXfXfXfXfXfXfXfXfX",
"fXfXfXfXfXfX= ,.V.h . 3   = m m     I.6XsX_.i +.,.H 4 :.2.#.x ].1 j -.H . fXfXfXfXfXfXfXfXfXfXfXfXfXfXfXfXfXfXfXfXfXfXfXfXfXfX",
"fXfXfXfXfXfXo g i.j     f o < 4     (.aXaXsXr 1 D G o F.%.j %.].1 j -.^ . fXfXfXfXfXfXfXfXfXfXfXfXfXfXfXfXfXfXfXfXfXfXfXfXfXfX",
"fXfXfXfXfXfXfX  j 4   @ ,.x 4 ;     _.aXaXuXr   g G # '.c x oX].3 j -.H   fXfXfXfXfXfXfXfXfXfXfXfXfXfXfXfXfXfXfXfXfXfXfXfXfXfX",
"fXfXfXfXfXfXfXfX      = H.{.d.G   , (.aXaXuXr   q D @ |.( [ =XF.4 h -.+.= fXfXfXfXfXfXfXfXfXfXfXfXfXfXfXfXfXfXfXfXfXfXfXfXfXfX",
"fXfXfXfXfXfXfXfXfX    : K.}.L.1.> 4XsXaXaXuXr     o o |.&X-X|.< G $.=.;.+.: fXfXfXfXfXfXfXfXfXfXfXfXfXfXfXfXfXfXfXfXfXfXfXfXfX",
"fXfXfXfXfXfXfXfXfX  q 1.3.XX=X|.R.Q L Z T T 1.2.x : 1.u.( v z D $.-.m 3 3 . fXfXfXfXfXfXfXfXfXfXfXfXfXfXfXfXfXfXfXfXfXfXfXfXfX",
"fXfXfXfXfXfXfXfXfX  v +XK.-X1X1X,Xy.{ } } 8.OX%X'.y.{.,.5   # =.=.m q fX    fXfXfXfXfXfXfXfXfXfXfXfXfXfXfXfXfXfXfXfXfXfXfXfXfX",
"fXfXfXfXfXfXfXfXfX  Z ,X1X1X1X-X~.=X1X1X1X,X,X,X,X+XF.H 3   # m ;.i   fXfXfXfXfXfXfXfXfXfXfXfXfXfXfXfXfXfXfXfXfXfXfXfXfXfXfXfX",
"fXfXfXfXfXfXfXfXfXfXZ &X-X&X&XB.q &X,X,X,X,X,X,X+XF.;.#         m 4   fXfXfXfXfXfXfXfXfXfXfXfXfXfXfXfXfXfXfXfXfXfXfXfXfXfXfXfX",
"fXfXfXfXfXfXfXfXfXfXfXi &XS & S &X,X,X,X,X,X,XoXG.=.$.#         o .   fXfXfXfXfXfXfXfXfXfXfXfXfXfXfXfXfXfXfXfXfXfXfXfXfXfXfXfX",
"fXfXfXfXfXfXfXfXfXfXfXfXZ N.B.|.1X1X1X1X=XoX+X^ 4 3 3               fXfXfXfXfXfXfXfXfXfXfXfXfXfXfXfXfXfXfXfXfXfXfXfXfXfXfXfXfX",
"fXfXfXfXfXfXfXfXfXfXfXfXfX( N.8.} } } } { ^ ^ j 3   8 M M C 8       fXfXfXfXfXfXfXfXfXfXfXfXfXfXfXfXfXfXfXfXfXfXfXfXfXfXfXfXfX",
"fXfXfXfXfXfXfXfXfXfXfXfXfX      X             g g 8 P c.b.j.U 9 X     fXfXfXfXfXfXfXfXfXfXfXfXfXfXfXfXfXfXfXfXfXfXfXfXfXfXfXfX",
"fXfXfXfXfXfXfXfXfXfXfXfXfXfXfXfXfXfXfXfXfX  $ $ e P x.v.v.x.v.c.7       fXfXfXfXfXfXfXfXfXfXfXfXfXfXfXfXfXfXfXfXfXfXfXfXfXfXfX",
"fXfXfXfXfXfXfXfXfXfXfXfXfXfXfXfXfXfXfXfXfXX f.j.j.c.x.x.x.x.v.x.n.e       fXfXfXfXfXfXfXfXfXfXfXfXfXfXfXfXfXfXfXfXfXfXfXfXfXfX",
"fXfXfXfXfXfXfXfXfXfXfXfXfXfXfXfXfXfXfXfXfX+ j.b.k.P P c.v.x.x.v.v.k.M X p % fXfXfXfXfXfXfXfXfXfXfXfXfXfXfXfXfXfXfXfXfXfXfXfXfX",
"fXfXfXfXfXfXfXfXfXfXfXfXfXfXfXfXfXfXfXfXfX+ j.b.h.L L z.v.x.x.x.v.b.f.8 w 8 - fXfXfXfXfXfXfXfXfXfXfXfXfXfXfXfXfXfXfXfXfXfXfXfX",
"fXfXfXfXfXfXfXfXfXfXfXfXfXfXfXfXfXfXfXfXfXX Y l.I V N j.v.v.x.v.v.v.l.B X V C % fXfXfXfXfXfXfXfXfXfXfXfXfXfXfXfXfXfXfXfXfXfXfX",
"fXfXfXfXfXfXfXfXfXfXfXfXfXfXfXfXfXfXfXfXfX    e L N X g.x.x.n.j.j.j.f.C X f.h.C X fXfXfXfXfXfXfXfXfXfXfXfXfXfXfXfXfXfXfXfXfXfX",
"fXfXfXfXfXfXfXfXfXfXfXfXfXfXfXfXfXfXfXfXfXfX  p L N X V l.v.k.% $ $ $ X   B h.g.N X fXfXfXfXfXfXfXfXfXfXfXfXfXfXfXfXfXfXfXfXfX",
"fXfXfXfXfXfXfXfXfXfXfXfXfXfXfXfXfXfXfXfXfXfX  + % +   % 7 7 p 1.1.2.2.1.1.y M I g.C % fXfXfXfXfXfXfXfXfXfXfXfXfXfXfXfXfXfXfXfX",
"fXfXfXfXfXfXfXfXfXfXfXfXfXfXfXfXfXfXfXfX      g ^ x     5 h %.+X%X%X%X+X{.4 $ V x.h.- fXfXfXfXfXfXfXfXfXfXfXfXfXfXfXfXfXfXfXfX",
"fXfXfXfXfXfXfXfXfXfXfXfXfXfXfXfXfXfXfXi k k z B.+XK.k O i 3.oX,X,X,X,X=XXXF @ 9 v.v.7   fXfXfXfXfXfXfXfXfXfXfXfXfXfXfXfXfXfXfX",
"fXfXfXfXfXfXfXfXfXfXfXfXfXfXfXfXfXfX  { ,X,X,X=X,X,X-X0 + F ].=X,X,X,X,X=X.Xx 9 v.c.9     fXfXfXfXfXfXfXfXfXfXfXfXfXfXfXfXfXfX",
"fXfXfXfXfXfXfXfXfXfXfXfXfXfXfXfXfXfX  { 1X,X,X,X,X,X*X0 P.P.i {.=X,X,X=X}.2.g 9 c.x.U 8   fXfXfXfXfXfXfXfXfXfXfXfXfXfXfXfXfXfX",
"fXfXfXfXfXfXfXfXfXfXfXfXfXfXfXfXfXfX  { ,X,X,X,X,X=X.X: `.T.3 H..XoXXX}.2.g o 7 P P L 8   fXfXfXfXfXfXfXfXfXfXfXfXfXfXfXfXfXfX",
"fXfXfXfXfXfXfXfXfXfXfXfXfXfXfXfXfXfX  { 1X,X,X,X,X=XH.< o.o.3 {.}.d.d.2.g @   + w 8 w - fXfXfXfXfXfXfXfXfXfXfXfXfXfXfXfXfXfXfX",
"fXfXfXfXfXfXfXfXfXfXfXfXfXfXfXfXfXfX  { 1X,X,X,X,X*X{.< ) _ : 1.u.%.m h               fXfXfXfXfXfXfXfXfXfXfXfXfXfXfXfXfXfXfXfX",
"fXfXfXfXfXfXfXfXfXfXfXfXfXfXfXfXfXfX  [ -X1X,X=X=X*XF.: / ~     .       O O o O O     fXfXfXfXfXfXfXfXfXfXfXfXfXfXfXfXfXfXfXfX",
"fXfXfXfXfXfXfXfXfXfXfXfXfXfXfXfXfXfXfXO Z =X,XOX}.d.:   O o           O / _ / _ W X   fXfXfXfXfXfXfXfXfXfXfXfXfXfXfXfXfXfXfXfX",
"fXfXfXfXfXfXfXfXfXfXfXfXfXfXfXfXfXfXfXfXfXk v g i 4             k E E _ 2XU.8.' / .       fXfXfXfXfXfXfXfXfXfXfXfXfXfXfXfXfXfX",
"fXfXfXfXfXfXfXfXfXfXfXfXfXfXfXfXfXfXfXfXfXfX      fX            t Q 8.r.^.).E..._ a o     fXfXfXfXfXfXfXfXfXfXfXfXfXfXfXfXfXfX",
"fXfXfXfXfXfXfXfXfXfXfXfXfXfXfXfXfXfXfXfXfXfXfXfXfXfXfX  ; *     ; Z q.R.I.0X4XE.8.8.u O   fXfXfXfXfXfXfXfXfXfXfXfXfXfXfXfXfXfX",
"fXfXfXfXfXfXfXfXfXfXfXfXfXfXfXfXfXfXfXfXfXfXfXfXfXfXfXO l l o O E / X.U.5XyXyX3XR.U...u   fXfXfXfXfXfXfXfXfXfXfXfXfXfXfXfXfXfX",
"fXfXfXfXfXfXfXfXfXfXfXfXfXfXfXfXfXfXfXfXfXfXfXfXfXfX. E ) ) / / > O + 2 X...O...| | | u     fXfXfXfXfXfXfXfXfXfXfXfXfXfXfXfXfX",
"fXfXfXfXfXfXfXfXfXfXfXfXfXfXfXfXfXfXfXfXfXfXfXfXfXfX  ~ ' A : >     , _ 3X3XW.r.r.` ' / i     fXfXfXfXfXfXfXfXfXfXfXfXfXfXfXfX",
"fXfXfXfXfXfXfXfXfXfXfXfXfXfXfXfXfXfXfXfXfXfXfXfXfX; a ..X.W i u O   * ! qXtX5X(._.w.| | E       fXfXfXfXfXfXfXfXfXfXfXfXfXfXfX",
"fXfXfXfXfXfXfXfXfXfXfXfXfXfXfXfXfXfXfXfXfXfXfXfXfX: 8.R.e. .' ` t o   , 2XqXeXrXqX/.w.| E :       fXfXfXfXfXfXfXfXfXfXfXfXfXfX",
"fXfXfXfXfXfXfXfXfXfXfXfXfXfXfXfXfXfXfXfXfXfXfXfXfXr E.E.E.r.' ' ' t   : / 3XeXeXeXeX/.9.` _ O       fXfXfXfXfXfXfXfXfXfXfXfXfX",
"fXfXfXfXfXfXfXfXfXfXfXfXfXfXfXfXfXfXfXfXfXfXfXfXfXd 0XqX/.R.t.' ` t 2 W * / ).rXeXeX!.0.) / O           fXfXfXfXfXfXfXfXfXfXfX",
"fXfXfXfXfXfXfXfXfXfXfXfXfXfXfXfXfXfXfXfXfXfXfXfXfXd wXrX_.R.m.' ' 0 2 ) E 2 ~ ^.rXeX0XY._ ) E E A A l .   fXfXfXfXfXfXfXfXfXfX",
"fXfXfXfXfXfXfXfXfXfXfXfXfXfXfXfXfXfXfXfXfXfXfXfXfXt (.qX_.R.m.' ' l l ' ) ; : ! _.wX4XW.0.0.| ' ' ` ) v i 0 fXfXfXfXfXfXfXfXfX",
"fXfXfXfXfXfXfXfXfXfXfXfXfXfXfXfXfXfXfXfXfXfXfXfXfX, t.4X/.R.m.| ' ' ' ` ) :   : ~ 2XR.t.t.r.' ` ' ' ' ' | Z : fXfXfXfXfXfXfXfX",
"fXfXfXfXfXfXfXfXfXfXfXfXfXfXfXfXfXfXfXfXfXfXfXfXfX: _ w.m.B.M.' ' ` ` ` ) :     : / ) ` ' ` ' ' ' ) ' | ' ' W   fXfXfXfXfXfXfX",
"fXfXfXfXfXfXfXfXfXfXfXfXfXfXfXfXfXfXfXfXfXfXfXfXfXfXO * A | | ' ` ` ` ` ) ;   u 9.; E ' ' ' ' ' ` ` ' U.8.' W         fXfXfXfX",
"fXfXfXfXfXfXfXfXfXfXfXfXfXfXfXfXfXfXfXfXfXfXfXfXfXfXfXfX: > > > : E ' ` ' :   R 4X* ; l 8.t.t.t.t.t.t.R.m.0.W         fXfXfXfX",
"fXfXfXfXfXfXfXfXfXfXfXfXfXfXfXfXfXfXfXfXfXfXfXfXfXfXfXfXfX      fXt E _ u X   ! iX;   a 9.R.R.R.R.R.R.(.Q.| t X l :   fXfXfXfX",
"fXfXfXfXfXfXfXfXfXfXfXfXfXfXfXfXfXfXfXfXfXfXfXfXfXfXfXfXfXfXfXfXfX  : E T T T O.^.*   u _ t.R.Q./.Q.E.qX_.E   + r.a   fXfXfXfX",
"fXfXfXfXfXfXfXfXfXfXfXfXfXfXfXfXfXfXfXfXfXfXfXfXfXfXfXfXfXfXfXfXfX    r iXaXaX^.  fXfXfX3 ) m.3XeX5XW.5X/.E   O w.a   fXfXfXfX",
"fXfXfXfXfXfXfXfXfXfXfXfXfXfXfXfXfXfXfXfXfXfXfXfXfXfXfXfXfXfXfXfXfXfXfX> E.uXaX^.  fXfXfXfX; ) U.4XeX0X!.0.v   O w.a   fXfXfXfX",
"fXfXfXfXfXfXfXfXfXfXfXfXfXfXfXfXfXfXfXfXfXfXfXfXfXfXfXfXfXfXfXfXfXfXfXfXy s R T fXfXfXfXfXfX: / ^.tXwXE.l O   . w.a   fXfXfXfX",
"fXfXfXfXfXfXfXfXfXfXfXfXfXfXfXfXfXfXfXfXfXfXfXfXfXfXfXfXfXfXfXfXfXfXfXfXfX    fXfXfXfXfXfXfXfXt o.4XqXU.r   * E E t fXfXfXfXfX",
"fXfXfXfXfXfXfXfXfXfXfXfXfXfXfXfXfXfXfXfXfXfXfXfXfXfXfXfXfXfXfXfXfXfXfXfXfXfXfXfXfXfXfXfXfXfXfX  k E.).~ :   2 m.; fXfXfXfXfXfX",
"fXfXfXfXfXfXfXfXfXfXfXfXfXfXfXfXfXfXfXfXfXfXfXfXfXfXfXfXfXfXfXfXfXfXfXfXfXfXfXfXfXfXfXfXfXfXfX  u ) ) O * , s U.: fXfXfXfXfXfX",
"fXfXfXfXfXfXfXfXfXfXfXfXfXfXfXfXfXfXfXfXfXfXfXfXfXfXfXfXfXfXfXfXfXfXfXfXfXfXfXfXfXfXfXfXfXfXfXfXX 2 _ o Y.uXuXiXr fXfXfXfXfXfX",
"fXfXfXfXfXfXfXfXfXfXfXfXfXfXfXfXfXfXfXfXfXfXfXfXfXfXfXfXfXfXfXfXfXfXfXfXfXfXfXfXfXfXfXfXfXfXfXfXfX  r ^.uXaX6XR fXfXfXfXfXfXfX",
"fXfXfXfXfXfXfXfXfXfXfXfXfXfXfXfXfXfXfXfXfXfXfXfXfXfXfXfXfXfXfXfXfXfXfXfXfXfXfXfXfXfXfXfXfXfXfXfXfXr I.aXaXaX4X  fXfXfXfXfXfXfX",
"fXfXfXfXfXfXfXfXfXfXfXfXfXfXfXfXfXfXfXfXfXfXfXfXfXfXfXfXfXfXfXfXfXfXfXfXfXfXfXfXfXfXfXfXfXfXfXfXfXd (.(.(.2XY.  fXfXfXfXfXfXfX",
"fXfXfXfXfXfXfXfXfXfXfXfXfXfXfXfXfXfXfXfXfXfXfXfXfXfXfXfXfXfXfXfXfXfXfXfXfXfXfXfXfXfXfXfXfXfXfXfXfX            fXfXfXfXfXfXfXfX"
};
