/* XPM */
static char *result[] = {
/* columns rows colors chars-per-pixel */
"63 75 217 2 ",
"   c #010101",
".  c #090605",
"X  c #0C0907",
"o  c #0D0C0B",
"O  c #060C08",
"+  c #130C0B",
"@  c #190F0C",
"#  c #0A140D",
"$  c #1C110D",
"%  c #13100F",
"&  c #0D1C13",
"*  c #0A1911",
"=  c #161514",
"-  c #1A1514",
";  c #1A1B1A",
":  c #241612",
">  c #2C1A14",
",  c #231D1A",
"<  c #281B16",
"1  c #331E19",
"2  c #311D16",
"3  c #23150F",
"4  c #14241A",
"5  c #0F2819",
"6  c #25221C",
"7  c #2A241D",
"8  c #34211C",
"9  c #3D241D",
"0  c #182E20",
"q  c #1B3425",
"w  c #163C25",
"e  c #2B2423",
"r  c #2B2B27",
"t  c #332B26",
"y  c #382B27",
"u  c #213E2C",
"i  c #3A322C",
"p  c #38342A",
"a  c #353231",
"s  c #44281E",
"d  c #4B2D25",
"f  c #432923",
"g  c #513124",
"h  c #54322A",
"j  c #5B362D",
"k  c #5E392C",
"l  c #413734",
"z  c #453935",
"x  c #463D3A",
"c  c #5A3D36",
"v  c #4B302B",
"b  c #673E32",
"n  c #623A2D",
"m  c #1D4E31",
"M  c #23412F",
"N  c #244B33",
"B  c #274934",
"V  c #2D553D",
"C  c #2E583F",
"Z  c #245639",
"A  c #30583F",
"S  c #24653E",
"D  c #4F413C",
"F  c #55463D",
"G  c #6A453B",
"H  c #7D4A3E",
"J  c #784739",
"K  c #2F5C41",
"L  c #305B41",
"P  c #2E6344",
"I  c #2F6A47",
"U  c #306947",
"Y  c #317B4F",
"T  c #30724B",
"R  c #317D50",
"E  c #237E49",
"W  c #5E4D48",
"Q  c #584944",
"!  c #5E5147",
"~  c #5A5A5A",
"^  c #515151",
"/  c #434849",
"(  c #784D44",
")  c #63524E",
"_  c #665746",
"`  c #7A5449",
"'  c #655652",
"]  c #6B5953",
"[  c #665A57",
"{  c #715D57",
"}  c #735F59",
"|  c #604F4A",
" . c #796559",
".. c #6A6159",
"X. c #596668",
"o. c #616161",
"O. c #796761",
"+. c gray46",
"@. c #804C3C",
"#. c #88533C",
"$. c #834E41",
"%. c #8B5344",
"&. c #87554A",
"*. c #95594A",
"=. c #9B5C4B",
"-. c #955A45",
";. c #8D5B51",
":. c #945E53",
">. c #986758",
",. c #846D5A",
"<. c #A4624D",
"1. c #AB684C",
"2. c #B26C4E",
"3. c #A86859",
"4. c #B46D53",
"5. c #BC7154",
"6. c #AC745F",
"7. c #836E68",
"8. c #88736C",
"9. c #977763",
"0. c #8C7770",
"q. c #807573",
"w. c #937B74",
"e. c #AA6E62",
"r. c #AA7465",
"t. c #B37364",
"y. c #BD7B6D",
"u. c #B87666",
"i. c #C37556",
"p. c #CE7D5B",
"a. c #C47859",
"s. c #D07F5C",
"d. c #C37C6A",
"f. c #308D57",
"g. c #308352",
"h. c #309A5C",
"j. c #30955A",
"k. c #2C8D54",
"l. c #31A15F",
"z. c #2FA560",
"x. c #31AE64",
"c. c #31A461",
"v. c #31B166",
"b. c #9C856C",
"n. c #98837C",
"m. c #86837F",
"M. c #A38D72",
"N. c #A98073",
"B. c #AC9276",
"V. c #BA8B75",
"C. c #D7835F",
"Z. c #D8835F",
"A. c #DA8560",
"S. c #D98764",
"D. c #C98876",
"F. c #D88D7C",
"G. c #DE9277",
"H. c #CE896C",
"J. c #E09574",
"K. c #878787",
"L. c #849396",
"P. c #9B9C9C",
"I. c #948D8B",
"U. c #A48C85",
"Y. c #A78F89",
"T. c #AB9A95",
"R. c #AF9785",
"E. c #B0A39F",
"W. c #B3A190",
"Q. c #9CABAE",
"!. c #A2A3A3",
"~. c gray67",
"^. c #BAB5B3",
"/. c #B5AAA6",
"(. c #D39B85",
"). c #E69584",
"_. c #EA9987",
"`. c #C6A989",
"'. c #D6A488",
"]. c #D3B693",
"[. c #DCBD99",
"{. c #CCB18F",
"}. c #EAA58D",
"|. c #EBAC92",
" X c #EBB698",
".X c #F6B79B",
"XX c #F2A791",
"oX c #EBBCA6",
"OX c #FCBDA0",
"+X c #DCB7A7",
"@X c #C5C0BF",
"#X c #EBC7A5",
"$X c #F0C4AE",
"%X c #F9C7A5",
"&X c #FBD4AD",
"*X c #F5D3AB",
"=X c #F4C9B3",
"-X c #FFDCB2",
";X c #FFE1B6",
":X c #FFE3B8",
">X c #BDC2C3",
",X c #C5C5C5",
"<X c #CAD8DA",
"1X c #DBDBDB",
"2X c #D4D4D4",
"3X c #F7D5C3",
"4X c #E4DDDB",
"5X c #FEE8D9",
"6X c #CDDEE1",
"7X c #D5EEF3",
"8X c #D6F1F6",
"9X c #CFE2E5",
"0X c #E5E5E5",
"qX c gray92",
"wX c #F2EEED",
"eX c #FFFFFF",
"rX c None",
/* pixels */
"rXrXrXrXrXrXrXrXrXrXrXrXrXrXrXrXrXrXrXrXrXrXrXrXrXrXrXrXrXrXrXrXrXrXrXrXrXrXrXrXrXrXrXrXrXrXrXrXrXrXrXrXrXrXrXrXrXrXrXrXrXrXrX",
"rXrXrXrXrXrXrXrXrXrXrXrXrXrXrXrXrXrXrXrXrXrXrXrXrXrXrXrXrXrXrXrXrXrXrXrXrXrXrXrXrXrXrXrXrXrXrXrXrXrXrXrXrXrXrXrXrXrXrXrXrXrXrX",
"rXrXrXrXrXrXrXrXrXrXrXrXrXrXrXrXrXrXrXrXrXrXrXrXrXrXrXrXrXrXrXrXrXrXrXrXrXrXrXrXrXrXrXrXrXrXrXrXrXrXrXrXrXrXrXrXrXrXrXrXrXrXrX",
"rXrXrXrXrXrXrXrXrXrXrXrXrXrXrXrXrXrXrXrXrXrXrXrXrXrXrXrXrXrXrXrXrXrXrXrXrXrXrXrXrXrXrXrXrXrXrXrXrXrXrXrXrXrXrXrXrXrXrXrXrXrXrX",
"rXrXrXrXrXrXrXrXrXrXrXrXrXrXrXrXrXrXrXrXrX                      rXrXrXrXrXrXrXrXrXrXrXrXrXrXrXrXrXrXrXrXrXrXrXrXrXrXrXrXrXrXrX",
"rXrXrXrXrXrXrXrXrXrXrXrXrXrXrXrXrXrXrXrX2 1 s h g g g g g g g f 2 rXrXrXrXrXrXrXrXrXrXrXrXrXrXrXrXrXrXrXrXrXrXrXrXrXrXrXrXrXrX",
"rXrXrXrXrXrXrXrXrXrXrXrXrXrXrXrX@ - : > %.<.5.A.Z.A.A.A.Z.A.A.5.@.> : rXrXrXrXrXrXrXrXrXrXrXrXrXrXrXrXrXrXrXrXrXrXrXrXrXrXrXrX",
"rXrXrXrXrXrXrXrXrXrXrXrXrXrX. . j 1.p.p.p.C.s.A.Z.Z.Z.A.C.C.A.C.C.p.s.f   . rXrXrXrXrXrXrXrXrXrXrXrXrXrXrXrXrXrXrXrXrXrXrXrXrX",
"rXrXrXrXrXrXrXrXrXrXrXrXrX3 1.2.a.s.A.A.s.A.s.A.A.C.A.s.C.C.A.s.C.C.C.5.2.#.  rXrXrXrXrXrXrXrXrXrXrXrXrXrXrXrXrXrXrXrXrXrXrXrX",
"rXrXrXrXrXrXrXrXrXrX  . 9 -.Z.Z.A.s.s.A.A.A.A.A.s.C.A.A.A.C.A.A.C.C.Z.Z.Z.i.@.+         rXrXrXrXrXrXrXrXrXrXrXrXrXrXrXrXrXrXrX",
"rXrXrXrXrXrXrXrXrXrXd F >.Z.Z.Z.A.A.A.s.s.s.A.s.A.A.C.C.s.A.C.C.C.C.Z.Z.C.C.C.G g g s   rXrXrXrXrXrXrXrXrXrXrXrXrXrXrXrXrXrXrX",
"rXrXrXrXrXrXrXrX. > 5.=X=XJ.Z.Z.s.A.A.A.A.A.A.A.C.C.A.A.s.A.C.A.A.C.C.A.C.C.C.J.a.5.#.. rXrXrXrXrXrXrXrXrXrXrXrXrXrXrXrXrXrXrX",
"rXrXrXrXrXrXrXrX> i.Z.$X5X3XS.S.A.s.A.A.C.C.A.C.C.C.C.C.C.A.C.C.C.C.Z.C.C.C.S.3X! O . rXrXrXrXrXrXrXrXrXrXrXrXrXrXrXrXrXrXrXrX",
"rXrXrXrXrXrXrXrXrX2 5.S. X5X=XG.A.s.A.s.C.C.C.Z.A.C.C.s.Z.A.C.C.C.C.C.C.C.G.3X5XN.s   rXrXrXrXrXrXrXrXrXrXrXrXrXrXrXrXrXrXrXrX",
"rXrXrXrXrXrXrXrX> #.p.5.V.}. X#X$X'.u.oX$X$X|.Z.4.s.}.$X$XoXG.i.V.$X$X$X$X=X5X Xt.h   rXrXrXrXrXrXrXrXrXrXrXrXrXrXrXrXrXrXrXrX",
"rXrXrXrXrXrXrXrX$ #.#.-.5.C.A.oX=XB.( #X$X$X(.H n <.'.$X$X$XH.<.3.$X$X$XoX+XoXd.<.g   rXrXrXrXrXrXrXrXrXrXrXrXrXrXrXrXrXrXrXrX",
"rXrXrXrXrXrXrXrX    $ -.Z.a.2.a.s.H $ i.s.i.@.+   j -.2.2.a.=.*.1.A.s.s.4.<.a.=.*.h   rXrXrXrXrXrXrXrXrXrXrXrXrXrXrXrXrXrXrXrX",
"rXrXrXrXrXrXrXrXrXX 2.C.5.J + H *.k $ %.p.k 2 J . . o o @ #.*.*.<.s.s.s.4.%.*.*.*.h   rXrXrXrXrXrXrXrXrXrXrXrXrXrXrXrXrXrXrXrX",
"rXrXrXrXrXrXrXrXrXX 4.5.b + . H d s b : %.f   @     +.P.  @ J =.=.=.1 3 @ 1 *.%.*.h   rXrXrXrXrXrXrXrXrXrXrXrXrXrXrXrXrXrXrXrX",
"rXrXrXrXrXrXrXrXrX. -.b $     2 + + 2   > @       +.2X0XK.+ G b 1 9 &.:.:.( f %.h > rXrXrXrXrXrXrXrXrXrXrXrXrXrXrXrXrXrXrXrXrX",
"rXrXrXrXrXrXrXrXrX  d >             . 1 .         ,XeXeX0X; b d + c d.3.y.u.O ( 1   rXrXrXrXrXrXrXrXrXrXrXrXrXrXrXrXrXrXrXrXrX",
"rXrXrXrXrXrXrXrXrX    rXrXrX    ; ; @ =.1 .       ,XeXeX0X; j 9 f ).$.8 &.u.X $.1   rXrXrXrXrXrXrXrXrXrXrXrXrXrXrXrXrXrXrXrXrX",
"rXrXrXrXrXrXrXrXrXrXrXrXrXrX    P.!.: F.3.9       ,XeXeX0X= .   f D.$ >._.t.X H 2   rXrXrXrXrXrXrXrXrXrXrXrXrXrXrXrXrXrXrXrXrX",
"rXrXrXrXrXrXrXrXrXrXrXrXrXrX    !.!.: F.F.c       @XeXeX0X= h J 3.oX- B.OXt.  @ rXrXrXrXrXrXrXrXrXrXrXrXrXrXrXrXrXrXrXrXrXrXrX",
"rXrXrXrXrXrXrXrXrXrXrXrXrXrXO K.0X!.,  X%XG M !.!.wXeX2X[ ;.u.d.(.&XB.#XV.y . d >   rXrXrXrXrXrXrXrXrXrXrXrXrXrXrXrXrXrXrXrXrX",
"rXrXrXrXrXrXrXrXrXrXrXrXrXrX. K.!.q.| '.&XM. .!.!.P.P.m._ |..X.X|.'.B.M.F O 9 %.j $   rXrXrXrXrXrXrXrXrXrXrXrXrXrXrXrXrXrXrXrX",
"rXrXrXrXrXrXrXrXrXrXrXrXrXrX  6 6 ( _.6.#X;XB.0 7 7 6 _ -X-X-X-X X*.o o . $ H H H d   rXrXrXrXrXrXrXrXrXrXrXrXrXrXrXrXrXrXrXrX",
"rXrXrXrXrXrXrXrXrXrXrXrXrXrXX {.*X&X-X&X-X-X;X*X#X*X*X&X-X-X-X-X#XD.@ n d   .   .   rXrXrXrXrXrXrXrXrXrXrXrXrXrXrXrXrXrXrXrXrX",
"rXrXrXrXrXrXrXrXrXrXrXrXrXrXX ].;X-X-X-X;X;X:X#Xp {.;X*X-X-X;X%Xy.<   + X           rXrXrXrXrXrXrXrXrXrXrXrXrXrXrXrXrXrXrXrXrX",
"rXrXrXrXrXrXrXrXrXrXrXrXrXrXrXF `.;X-X&X .F F _ b.#X;X;X;X-X%Xr.y       # u q q q 4     rXrXrXrXrXrXrXrXrXrXrXrXrXrXrXrXrXrXrX",
"rXrXrXrXrXrXrXrXrXrXrXrXrXrXrXrX_ `.:X-X,.F _  .-X;X;X;X%X%Xr.G 9   4 4 N R Y Y R S w & rXrXrXrXrXrXrXrXrXrXrXrXrXrXrXrXrXrXrX",
"rXrXrXrXrXrXrXrXrXrXrXrXrXrXrXrXrXF ].].].].].[.{.].].G.V.5.v &.e.O B A g.v.x.x.v.v.c.I & # O rXrXrXrXrXrXrXrXrXrXrXrXrXrXrXrX",
"rXrXrXrXrXrXrXrXrXrXrXrXrXrXrXrXrXrXX X . o . o X X O o . + e.).3.O B K g.v.v.v.x.v.x.c.I V r   rXrXrXrXrXrXrXrXrXrXrXrXrXrXrX",
"rXrXrXrXrXrXrXrXrXrXrXrXrXrXrXrXrXrXrXrXrXrXrXrXrX  4 q + r.).;.6 B L f.c.v.v.v.v.x.x.x.z.T V u   rXrXrXrXrXrXrXrXrXrXrXrXrXrX",
"rXrXrXrXrXrXrXrXrXrXrXrXrXrXrXrXrXrXrXrXrXrXrXrX  0 B u . h j i m f.f.c.h.g.x.x.x.v.x.x.v.R M #     rXrXrXrXrXrXrXrXrXrXrXrXrX",
"rXrXrXrXrXrXrXrXrXrXrXrXrXrXrXrXrXrXrXrXrXrXrXrX  B K B 4 & & m f.v.v.v.g.K f.x.v.x.v.x.j.Z M _ _ _ p rXrXrXrXrXrXrXrXrXrXrXrX",
"rXrXrXrXrXrXrXrXrXrXrXrXrXrXrXrXrXrXrXrXrXrXrXrX  M L K K I I f.v.v.v.v.f.K K h.x.x.x.h.Z 6  .;X;X;X,., rXrXrXrXrXrXrXrXrXrXrX",
"rXrXrXrXrXrXrXrXrXrXrXrXrXrXrXrXrXrXrXrXrXrXrXrX  M L L K l.z.x.x.x.x.x.v.h.L K k.x.h.Z # :.XX&X&X-X-XM.. rXrXrXrXrXrXrXrXrXrX",
"rXrXrXrXrXrXrXrXrXrXrXrXrXrXrXrXrXrXrXrXrXrXrXrX  B K u * K h.v.v.x.x.v.v.h.L L 0 M V # G d._.XX}.&X-X*XR.+ rXrXrXrXrXrXrXrXrX",
"rXrXrXrXrXrXrXrXrXrXrXrXrXrXrXrXrXrXrXrXrXrXrXrX  & M B q 5 k.v.v.x.v.v.h.I L V B 4 &   > d ( u.).*X-X-X[.+ rXrXrXrXrXrXrXrXrX",
"rXrXrXrXrXrXrXrXrXrXrXrXrXrXrXrXrXrXrXrXrXrXrXrX    0 L V . P z.v.x.f.f.T V L L u &     / ; y d.|.&X-X;X[.o rXrXrXrXrXrXrXrXrX",
"rXrXrXrXrXrXrXrXrXrXrXrXrXrXrXrXrXrXrXrXrXrXrXrXrX  4 B w O u R l.h.K L V L V B e , e e Q.X.Q F.-X-X-X*XB.o rXrXrXrXrXrXrXrXrX",
"rXrXrXrXrXrXrXrXrXrXrXrXrXrXrXrXrXrXrXrXrXrXrX      . . .   u K K K K L L V V O ;.|.%XF.e L.L.t #X-X;XM.o rXrXrXrXrXrXrXrXrXrX",
"rXrXrXrXrXrXrXrXrXrXrXrXrXrXrXrXrXrXrXrX          j ( j     M R z.l.z.I V L V O + `  X%XD.F X.Q.p [.,.7 rXrXrXrXrXrXrXrXrXrXrX",
"rXrXrXrXrXrXrXrXrXrXrXrXrXrXrXrXrXrXrX. ( 9.9.`   >.t.b     & N Y Y Y K L B 4 &.;.V.%X-X%Xc x ^.L...p rXrXrXrXrXrXrXrXrXrXrXrX",
"rXrXrXrXrXrXrXrXrXrXrXrXrXrXrXrXrXrXrX. D.&X%XF.G &.=.b       5 V L V L L M + D._..X-X-X-X9.F ..L.= rXrXrXrXrXrXrXrXrXrXrXrXrX",
"rXrXrXrXrXrXrXrXrXrXrXrXrXrXrXrXrXrXrX. {.-X%X}.).8 y n @     q U I U U I N o D.).XX&X-X-X.X>.        rXrXrXrXrXrXrXrXrXrXrXrX",
"rXrXrXrXrXrXrXrXrXrXrXrXrXrXrXrXrXrXrXO `.-X-X&X).9   2 H .   m c.z.z.z.z.E o d.).).XX-X-X;Xb.        O rXrXrXrXrXrXrXrXrXrXrX",
"rXrXrXrXrXrXrXrXrXrXrXrXrXrXrXrXrXrXrXrX7 M.:X&X_.*.8 > $.X   q Z & * & * #   - e._.XX-X-X;Xb.      Q W   rXrXrXrXrXrXrXrXrXrX",
"rXrXrXrXrXrXrXrXrXrXrXrXrXrXrXrXrXrXrXrX  ,..XXX_.3.f > %.X   # &   i W ' ) ' ' c >._..X-XM.p       [ }   rXrXrXrXrXrXrXrXrXrX",
"rXrXrXrXrXrXrXrXrXrXrXrXrXrXrXrXrXrXrXrXrXc t._._.3.f @ d .     O t O.T.^.^.^.^.[ F ;.;.b.t         a W a rXrXrXrXrXrXrXrXrXrX",
"rXrXrXrXrXrXrXrXrXrXrXrXrXrXrXrXrXrXrXrXrXrXf y.y.%.1         o t O.T.<X8X7X7X9X/.' o +   o o         z U.o rXrXrXrXrXrXrXrXrX",
"rXrXrXrXrXrXrXrXrXrXrXrXrXrXrXrXrXrXrXrXrXrXrX. X .     rX    y O.T.9X7X7X7X9XT.Y.0.] ) + z z         ~ 1Xo rXrXrXrXrXrXrXrXrX",
"rXrXrXrXrXrXrXrXrXrXrXrXrXrXrXrXrXrXrXrXrXrXrXrXrXrXrXrXrX    x T.9X7X7X8X6XE.<X/.0.W - Q ] z         ~ 1Xo rXrXrXrXrXrXrXrXrX",
"rXrXrXrXrXrXrXrXrXrXrXrXrXrXrXrXrXrXrXrXrXrXrXrXrXrXrXrXrX  x I.<X7X7X7X<X^.,X^.U.W e z ] } | i       ~ 1Xo rXrXrXrXrXrXrXrXrX",
"rXrXrXrXrXrXrXrXrXrXrXrXrXrXrXrXrXrXrXrXrXrXrXrXrXrXrXrXrX  O.,X8X7X7X<X/.T.>X..D i f } { } } W . t ^ P.1X= rXrXrXrXrXrXrXrXrX",
"rXrXrXrXrXrXrXrXrXrXrXrXrXrXrXrXrXrXrXrXrXrXrXrXrXrXrXrXrX  } ^.6X<X<XE.U.Y.w.<   , ' { { { } W X I.4XeX1X= rXrXrXrXrXrXrXrXrX",
"rXrXrXrXrXrXrXrXrXrXrXrXrXrXrXrXrXrXrXrXrXrXrXrXrXrXrXrXrX  D 0.Y.Y.Y.Y.Y.w.{ ] ,   - ' { { } Q X ,XeXeX2Xo rXrXrXrXrXrXrXrXrX",
"rXrXrXrXrXrXrXrXrXrXrXrXrXrXrXrXrXrXrXrXrXrXrXrXrXrXrXrXrXrX+ z 8.U.Y.Y.w.} { , .     = ) } c o X 2XeXeX1X% rXrXrXrXrXrXrXrXrX",
"rXrXrXrXrXrXrXrXrXrXrXrXrXrXrXrXrXrXrXrXrXrXrXrXrXrXrXrXrXrX  y O.7.7.7.O.{ { ' ' ' ) l e e -   rX~ o.o.^ O rXrXrXrXrXrXrXrXrX",
"rXrXrXrXrXrXrXrXrXrXrXrXrXrXrXrXrXrXrXrXrXrXrXrXrXrXrXrXrXrXrXe F { { { { { { w.w.w.w.{ t o   rXrXrX        rXrXrXrXrXrXrXrXrX",
"rXrXrXrXrXrXrXrXrXrXrXrXrXrXrXrXrXrXrXrXrXrXrXrXrXrXrXrXrXrXrXrX$ W { { { { { { } ] } { } y o rXrXrXrXrXrXrXrXrXrXrXrXrXrXrXrX",
"rXrXrXrXrXrXrXrXrXrXrXrXrXrXrXrXrXrXrXrXrXrXrXrXrXrXrXrXrXrXrXrX  o ) } { { { { { { { { } } z   rXrXrXrXrXrXrXrXrXrXrXrXrXrXrX",
"rXrXrXrXrXrXrXrXrXrXrXrXrXrXrXrXrXrXrXrXrXrXrXrXrXrXrXrXrXrXrXrXrXo 0.U.7.{ { { { { { } { { ' D . rXrXrXrXrXrXrXrXrXrXrXrXrXrX",
"rXrXrXrXrXrXrXrXrXrXrXrXrXrXrXrXrXrXrXrXrXrXrXrXrXrXrXrXrXrXrXrXrX. i 0.U.w.w.} } { { { { { } | . rXrXrXrXrXrXrXrXrXrXrXrXrXrX",
"rXrXrXrXrXrXrXrXrXrXrXrXrXrXrXrXrXrXrXrXrXrXrXrXrXrXrXrXrXrXrXrXrX    z ' ' ' z l Q } { } Q z i   rXrXrXrXrXrXrXrXrXrXrXrXrXrX",
"rXrXrXrXrXrXrXrXrXrXrXrXrXrXrXrXrXrXrXrXrXrXrXrXrXrXrXrXrXrXrXrXrXrX  ; r e ; ; ; y | W W ; X ;   rXrXrXrXrXrXrXrXrXrXrXrXrXrX",
"rXrXrXrXrXrXrXrXrXrXrXrXrXrXrXrXrXrXrXrXrXrXrXrXrXrXrXrXrXrXrXrXrXrX  !.eX1XU.U.Y.' o X X . l O.. rXrXrXrXrXrXrXrXrXrXrXrXrXrX",
"rXrXrXrXrXrXrXrXrXrXrXrXrXrXrXrXrXrXrXrXrXrXrXrXrXrXrXrXrXrXrXrXrXrX  ^.eXeXwXwXwX0X,X0.8.0.) - rXrXrXrXrXrXrXrXrXrXrXrXrXrXrX",
"rXrXrXrXrXrXrXrXrXrXrXrXrXrXrXrXrXrXrXrXrXrXrXrXrXrXrXrXrXrXrXrXrXrX  / o.o.o.o.o.o.~ l l l ,   rXrXrXrXrXrXrXrXrXrXrXrXrXrXrX",
"rXrXrXrXrXrXrXrXrXrXrXrXrXrXrXrXrXrXrXrXrXrXrXrXrXrXrXrXrXrXrXrXrXrX                            rXrXrXrXrXrXrXrXrXrXrXrXrXrXrX",
"rXrXrXrXrXrXrXrXrXrXrXrXrXrXrXrXrXrXrXrXrXrXrXrXrXrXrXrXrXrXrXrXrXrXrXrXrXrXrXrXrXrXrXrXrXrXrXrXrXrXrXrXrXrXrXrXrXrXrXrXrXrXrX",
"rXrXrXrXrXrXrXrXrXrXrXrXrXrXrXrXrXrXrXrXrXrXrXrXrXrXrXrXrXrXrXrXrXrXrXrXrXrXrXrXrXrXrXrXrXrXrXrXrXrXrXrXrXrXrXrXrXrXrXrXrXrXrX",
"rXrXrXrXrXrXrXrXrXrXrXrXrXrXrXrXrXrXrXrXrXrXrXrXrXrXrXrXrXrXrXrXrXrXrXrXrXrXrXrXrXrXrXrXrXrXrXrXrXrXrXrXrXrXrXrXrXrXrXrXrXrXrX",
"rXrXrXrXrXrXrXrXrXrXrXrXrXrXrXrXrXrXrXrXrXrXrXrXrXrXrXrXrXrXrXrXrXrXrXrXrXrXrXrXrXrXrXrXrXrXrXrXrXrXrXrXrXrXrXrXrXrXrXrXrXrXrX"
};
