/* XPM */
static char *result[] = {
/* columns rows colors chars-per-pixel */
"63 75 222 2 ",
"   c #010000",
".  c #0B0605",
"X  c #040907",
"o  c #0E0807",
"O  c #0D0B0A",
"+  c #050D09",
"@  c #130D0B",
"#  c #160D0B",
"$  c #0A140E",
"%  c #06120B",
"&  c #14110E",
"*  c #1D120E",
"=  c #0C1711",
"-  c #161312",
";  c #191613",
":  c #1E1917",
">  c #1D1A19",
",  c #161719",
"<  c #241512",
"1  c #2C1A15",
"2  c #231D1B",
"3  c #2B1B18",
"4  c #331E16",
"5  c #0C2A18",
"6  c #172A1E",
"7  c #15261C",
"8  c #28221D",
"9  c #3B241C",
"0  c #362019",
"q  c #182E21",
"w  c #1B3A27",
"e  c #0D3C22",
"r  c #2D2623",
"t  c #2A2927",
"y  c #322A25",
"u  c #372B28",
"i  c #3B332B",
"p  c #3A3736",
"a  c #27372E",
"s  c #4B2D25",
"d  c #442822",
"f  c #49342D",
"g  c #52322A",
"h  c #59362A",
"j  c #453A34",
"k  c #473C37",
"l  c #583A33",
"z  c #502F26",
"x  c #653C2E",
"c  c #653D34",
"v  c #1A4B2E",
"b  c #274B35",
"n  c #2D553D",
"m  c #2F593F",
"M  c #215634",
"N  c #22402E",
"B  c #1C663B",
"V  c #4E423E",
"C  c #4D4436",
"Z  c #52443C",
"A  c #584A3C",
"S  c #6D4135",
"D  c #65413A",
"F  c #78483A",
"G  c #2F5C41",
"H  c #305A41",
"J  c #2F6745",
"K  c #267A49",
"L  c #30734B",
"P  c #306947",
"I  c #464646",
"U  c #544642",
"Y  c #594B46",
"T  c #5D5141",
"R  c #585757",
"E  c #4A5659",
"W  c #6A4C45",
"Q  c #724B43",
"!  c #794C44",
"~  c #64534D",
"^  c #6B5B4A",
"/  c #6D5A55",
"(  c #675753",
")  c #715D57",
"_  c #735F58",
"`  c #7C5348",
"'  c #75615B",
"]  c #79645E",
"[  c #7E6D58",
"{  c #796854",
"}  c #6C665A",
"|  c #5A6669",
" . c #6C6867",
".. c #7A6761",
"X. c #7D6963",
"o. c #7B7979",
"O. c #6A777A",
"+. c #87523C",
"@. c #824C3E",
"#. c #844F41",
"$. c #865143",
"%. c #8B5345",
"&. c #87564C",
"*. c #9A5E44",
"=. c #96594A",
"-. c #995C4C",
";. c #935748",
":. c #8D5B51",
">. c #985E51",
",. c #99675A",
"<. c #82715B",
"1. c #826C58",
"2. c #A6644E",
"3. c #A2695D",
"4. c #A86653",
"5. c #B66E53",
"6. c #B87257",
"7. c #816C65",
"8. c #846F68",
"9. c #8A746D",
"0. c #87736A",
"q. c #937A64",
"w. c #8D7670",
"e. c #897B78",
"r. c #927B75",
"t. c #957E78",
"y. c #B77967",
"u. c #AD7164",
"i. c #CB7C5B",
"p. c #C37757",
"a. c #D17F5D",
"s. c #C07B6C",
"d. c #C27E70",
"f. c #308553",
"g. c #31995C",
"h. c #298F53",
"j. c #2FA35F",
"k. c #2FA760",
"l. c #31A661",
"z. c #31AE65",
"x. c #31B166",
"c. c #32B468",
"v. c #9A837C",
"b. c #95817A",
"n. c #958168",
"m. c #A48D72",
"M. c #B9967B",
"N. c #B18D76",
"B. c #D7835F",
"V. c #D8835F",
"C. c #C98265",
"Z. c #D98560",
"A. c #DA8D6B",
"S. c #D68867",
"D. c #CC8473",
"F. c #C88774",
"G. c #D58979",
"H. c #DC9577",
"J. c #DF906E",
"K. c #E1997D",
"L. c #E28A64",
"P. c #7C8A8E",
"I. c #888786",
"U. c #9F8780",
"Y. c #958985",
"T. c #939899",
"R. c #A48B84",
"E. c #A48A84",
"W. c #A8938D",
"Q. c #BA9D82",
"!. c #AA9792",
"~. c #BCA283",
"^. c #9AABAF",
"/. c #A6A7A7",
"(. c #B9B8B7",
"). c #B1A5A2",
"_. c #8F9EA0",
"`. c #DB9681",
"'. c #C19B87",
"]. c #E79685",
"[. c #E29E82",
"{. c #E99987",
"}. c #EA9A88",
"|. c #F09C8A",
" X c #DABA97",
".X c #CCAA8E",
"XX c #E9AC92",
"oX c #E9B89C",
"OX c #F5B89C",
"+X c #ECA58C",
"@X c #EDBAA2",
"#X c #C1BFBD",
"$X c #E7C39E",
"%X c #E6C6A0",
"&X c #EACAA4",
"*X c #F7C8A6",
"=X c #FCD5AD",
"-X c #F7D4AC",
";X c #F3CAB6",
":X c #FFDCB2",
">X c #F5D0BC",
",X c #E8C6B6",
"<X c #FFE0B6",
"1X c #FFE4B8",
"2X c #AFBEC1",
"3X c #BFC2C2",
"4X c #C2C7C7",
"5X c #C8D4D6",
"6X c #FADECD",
"7X c #F4D4C2",
"8X c #F8DFD0",
"9X c #FCE4D5",
"0X c #CDDFE2",
"qX c #D2E7EB",
"wX c #D5EEF3",
"eX c #D7F2F7",
"rX c #CEE0E3",
"tX c #E7E7E7",
"yX c #F5F5F5",
"uX c #FFFFFF",
"iX c #F8F7F7",
"pX c None",
/* pixels */
"pXpXpXpXpXpXpXpXpXpXpXpXpXpXpXpXpXpXpXpXpXpXpXpXpXpXpXpXpXpXpXpXpXpXpXpXpXpXpXpXpXpXpXpXpXpXpXpXpXpXpXpXpXpXpXpXpXpXpXpXpXpXpX",
"pXpXpXpXpXpXpXpXpXpXpXpXpXpXpXpXpXpXpXpXpXpXpXpXpXpXpXpXpXpXpXpXpXpXpXpXpXpXpXpXpXpXpXpXpXpXpXpXpXpXpXpXpXpXpXpXpXpXpXpXpXpXpX",
"pXpXpXpXpXpXpXpXpXpXpX                      pXpXpXpXpXpXpXpXpXpXpXpXpXpXpXpXpXpXpXpXpXpXpXpXpXpXpXpXpXpXpXpXpXpXpXpXpXpXpXpXpX",
"pXpXpXpXpXpXpXpXpXpX< 1 1 9 9 9 0 9 9 0 9 0 < pXpXpXpXpXpXpXpXpXpXpXpXpXpXpXpXpXpXpXpXpXpXpXpXpXpXpXpXpXpXpXpXpXpXpXpXpXpXpXpX",
"pXpXpXpXpXpXo # # * $.-.5.B.B.B.B.B.B.B.B.5.S & # # # pXpXpXpXpXpXpXpXpXpXpXpXpXpXpXpXpXpXpXpXpXpXpXpXpXpXpXpXpXpXpXpXpXpXpXpX",
"pXpXpXpX    h 2.p.p.i.i.a.B.B.Z.B.B.B.B.B.B.B.6.p.p.h       pXpXpXpXpXpXpXpXpXpXpXpXpXpXpXpXpXpXpXpXpXpXpXpXpXpXpXpXpXpXpXpXpX",
"pX    1 *.*.6.a.V.V.B.Z.B.B.B.B.B.B.B.B.B.B.B.Z.V.V.5.*.*.*.0       pXpXpXpXpXpXpXpXpXpXpXpXpXpXpXpXpXpXpXpXpXpXpXpXpXpXpXpXpX",
"  g x +.Z.Z.V.V.V.V.B.B.B.Z.B.B.B.B.B.B.B.B.B.B.V.V.V.Z.Z.V.+.S z   pXpXpXpXpXpXpXpXpXpXpXpXpXpXpXpXpXpXpXpXpXpXpXpXpXpXpXpXpX",
"9 y.K.B.B.B.B.B.V.V.B.B.B.Z.B.B.B.B.B.B.B.B.B.B.Z.a.Z.Z.a.].a.5.F   pXpXpXpXpXpXpXpXpXpXpXpXpXpXpXpXpXpXpXpXpXpXpXpXpXpXpXpXpX",
"B.;XOXB.B.B.Z.B.V.V.V.B.B.B.B.B.B.B.B.B.B.B.B.Z.Z.V.V.a.A.6XQ.g o pXpXpXpXpXpXpXpXpXpXpXpXpXpXpXpXpXpXpXpXpXpXpXpXpXpXpXpXpXpX",
"V.;X@Xa.B.B.Z.B.V.B.B.B.B.B.B.Z.B.B.B.B.B.B.B.B.V.V.a.Z.J.6X8XQ.S   pXpXpXpXpXpXpXpXpXpXpXpXpXpXpXpXpXpXpXpXpXpXpXpXpXpXpXpXpX",
"V.H.@X@XB.B.a.Z.V.V.B.B.B.B.B.B.B.V.B.V.Z.B.B.B.a.V.a.K.7X9XOXs.S   pXpXpXpXpXpXpXpXpXpXpXpXpXpXpXpXpXpXpXpXpXpXpXpXpXpXpXpXpX",
"Z.p.N..X@XoXJ.B.V.V.B.B.p.6.V.B.V.V.B.V.B.V.B.Z.a.V.K.*X9X@XK.5.S   pXpXpXpXpXpXpXpXpXpXpXpXpXpXpXpXpXpXpXpXpXpXpXpXpXpXpXpXpX",
"*.F @.s.7X9X@XA.C.[.K.[.F.*.p.H.[.K.K.[.S.i.p.i.K.}.;X9X@XL.i.4.S   pXpXpXpXpXpXpXpXpXpXpXpXpXpXpXpXpXpXpXpXpXpXpXpXpXpXpXpXpX",
"  o F V.Z.>X8X'.,.6X6X9X.X$.>.,X6X6X6X6XJ.4.;.3.7X8X9X*Xa.a.2.=.S   pXpXpXpXpXpXpXpXpXpXpXpXpXpXpXpXpXpXpXpXpXpXpXpXpXpXpXpXpX",
"  +.a.p.,.S.6.l 9 S.A.J.%.< ;.C.A.A.A.A.4.-.=.>.S.A.A.S.i.2.=.=.S   pXpXpXpXpXpXpXpXpXpXpXpXpXpXpXpXpXpXpXpXpXpXpXpXpXpXpXpXpX",
"  *.L.4.0 *.z . < 2.a.F s x 3 4 4 x 4.2.-.;.=.$.4 4 4 h 2.=.=.-.S   pXpXpXpXpXpXpXpXpXpXpXpXpXpXpXpXpXpXpXpXpXpXpXpXpXpXpXpXpX",
"  +.*.s . @.x s s z 4.9 # 9    .t . g ;.;.-.F s Q Q ! c g %.-.c 9 pXpXpXpXpXpXpXpXpXpXpXpXpXpXpXpXpXpXpXpXpXpXpXpXpXpXpXpXpXpX",
"  z d   . h S S h   h <   O I tXT.r . c %.! h l D.y.G.3.o %.=.d   pXpXpXpXpXpXpXpXpXpXpXpXpXpXpXpXpXpXpXpXpXpXpXpXpXpXpXpXpXpX",
"    pXpX      . o @       i iXuXuX/.    F 9 g G.%.1 :.3.o %.=.s   pXpXpXpXpXpXpXpXpXpXpXpXpXpXpXpXpXpXpXpXpXpXpXpXpXpXpXpXpXpX",
"pXpXpXpXpX    9 %.F #     a iXuXuX!.    F d z D.< 3.[.3.@ $.;.s   pXpXpXpXpXpXpXpXpXpXpXpXpXpXpXpXpXpXpXpXpXpXpXpXpXpXpXpXpXpX",
"pXpXpXpXpX    l G.d.! <   t iXuXuX/.    F 9 Z .X$ M.OX3.. #.-.@.g   pXpXpX            pXpXpXpXpXpXpXpXpXpXpXpXpXpXpXpXpXpXpXpX",
"pXpXpXpXpX    D |.OXd.u a /.uXuXuX/.    0 d 1.*Xn.&XN.c g %.;.-.#.s o pXl [ [ [ [ [ ^ pXpXpXpXpXpXpXpXpXpXpXpXpXpXpXpXpXpXpXpX",
"pXpXpXpXpX  3 $.].=XOX! _ #X(.(.(.I.j j u F F.oX'.~.W d -.-.;.@.c x . 3 q.=X*X=X:X1X XC pXpXpXpXpXpXpXpXpXpXpXpXpXpXpXpXpXpXpX",
"pXpXpXpXpX  3.F.N.=X:XOX,.- - ; - ^ 1X:X+X}.D.%..   g ;.$.$.$.d   X   3.}.].].].@X=X:X-X8 O , pXpXpXpXpXpXpXpXpXpXpXpXpXpXpXpX",
"pXpXpXpXpX  N.:X*X:X:X=X-X%X%X%X$X&X:X:X:XXX].s.o   g S o O o . = b X 3.}.].].].}.}.XX*X8 P.P.    pXpXpXpXpXpXpXpXpXpXpXpXpXpX",
"pXpXpXpXpX  M.1X:X<X<X:X:X:X:X:X:X:X:X:X1XOXG.-..   # *     q a N n N u :.}.].}.].{.D.C _.(. .      pXpXpXpXpXpXpXpXpXpXpXpXpX",
"pXpXpXpXpX  A ~.$X[ {  X1X:X:X:X:X:X:XOXOX`.>.9       X 6 q b H H H H w j %.s.s.].y.W O.O.R T <.1.&   pXpXpXpXpXpXpXpXpXpXpXpX",
"pXpXpXpXpX    C n.  y ~.1X<X:X*X*X*XOX{.G.>.d   = 5 5 v L L L J n n m m 6 @ c c >.) E ^.U & A *X~.T j i pXpXpXpXpXpXpXpXpXpXpX",
"pXpXpXpX  & ; & @ $ .X$X$X$X%XH.G.G.G.G.-.9 X = G g.x.z.z.z.x.f.m n n n 6         | ^.3  XA l d.@ ~.=Xm.  pXpXpXpXpXpXpXpXpXpX",
"pXpXpXpX& .X&XXX3.X ; ; ; 7 ; & @ & # & O q P j.l.z.z.x.z.z.z.z.K $ b 7     pXpXpXpXi D.-XA h d.+ $ m.N.  pXpXpXpXpXpXpXpXpXpX",
"pXpXpXi ~.=X<X:XF.% :.9   pXpXpXpX  X w K h.j.z.x.x.z.z.z.z.z.x.j.K 7 pXpXpXpXpXpXpX3 [.A & # C M.~.{ 8   pXpXpXpXpXpXpXpXpXpX",
"pXpXpXi :X:X:X1XoX` XXZ   pXpXpXpX= w f.l.c.x.x.z.x.x.z.z.z.x.x.k.K w O pXpXpXpXpXpX3 Q { 1.[ [ <.-X^   pXpXpXpXpXpXpXpXpXpXpX",
"pXpX8 { :X:X:X:X-XOX*XZ   pXpXpX  = M K z.l.g.x.z.z.z.z.x.x.z.x.g.m H 6 $ pXpXpXpXpXpXX m.&X1X%XC m.A pXpXpXpXpXpXpXpXpXpXpXpX",
"pX  { :X:X:X:X:X:X:XG.l = pXpX  . @ & ; f.K L z.z.x.l.l.k.z.z.x.g.J H J w % pXpXpXpXpXpX  n.&X%X Xy pXpXpXpXpXpXpXpXpXpXpXpXpX",
"pX  { :X:X:X:X:X:X&Xy T.P.      z 4.G.D.8 B h.P z.x.f.J P l.z.x.z.l.l.l.k.K   pXpXpXpXpXpX; ; ; ; pXpXpXpXpXpXpXpXpXpXpXpXpXpX",
"pX  Q *X:X:X:X1X XZ _.| } ~.M.Q..XoX*X}.y.V w G P L w w g.x.x.z.z.z.x.x.x.k.K + pXpXpXpXpXpXpXpXpXpXpXpXpXpXpXpXpXpXpXpXpXpXpX",
"pXpXd ,.OX:X*XOXM.. /.p T 1X1X1X:X1X=X}.|.c = n q 6 6 v f.f.l.z.x.x.k.x.x.x.k.B 5 pXpXpXpXpXpXpXpXpXpXpXpXpXpXpXpXpXpXpXpXpXpX",
"pXpXpX3 u.@XXXD.:.y _ U q.:X:X:X:X=XOX}.G.l $ w = $ w H n P j.z.z.z.x.x.x.x.z.h.5   pXpXpXpXpXpXpXpXpXpXpXpXpXpXpXpXpXpXpXpXpX",
"pXpXpXpX& y.G.Q > 9.- m.1X:X:X:X:X@X].H.>.9   X n H H H J k.z.z.z.x.k.x.k.j.h.%   X   pXpXpXpXpXpXpXpXpXpXpXpXpXpXpXpXpXpXpXpX",
"pXpXpXpXpX& * o   &   m.1X:X:X:XOX].G.>.3     O n n n L l.z.z.z.z.x.z.x.B + +   w q   pXpXpXpXpXpXpXpXpXpXpXpXpXpXpXpXpXpXpXpX",
"pXpXpXpXpXpXpXpXpX    8 q.1X:XOXD.$.9 3 pXpX  + n G n G L z.z.z.c.k.e 5 A u.3.& $ $ pXpXpXpXpXpXpXpXpXpXpX      pXpXpXpXpXpXpX",
"pXpXpXpXpXpXpXpXpXpXpX  y [ [ Q h 4 pXpXpXpXpXX q b H H J l.x.h.M M A ! ! ! Q o     pXpXpXpXpXpXpXpXpXpX      y k pXpXpXpXpXpX",
"pXpXpXpXpXpXpXpXpXpXpXpX          pXpXpXpXpXpXpX  a H H G g.f.e   . ,.y.l           pXpXpXpXpXpXpXpXpX- ;     k ( r pXpXpXpXpX",
"pXpXpXpXpXpXpXpXpXpXpXpXpXpXpXpXpXpXpXpXpX        w n n n b =         O O O O - o X   pXpXpXpXpXpXpXX r ~ @     i r.O pXpXpXpX",
"pXpXpXpXpXpXpXpXpXpXpXpXpXpXpXpXpXpXpX            X X X X X         X ( X._ r.t...u   pXpXpXpXpX    j / ) ~ -   u r.O pXpXpXpX",
"pXpXpXpXpXpXpXpXpXpXpXpXpXpXpXpXpX      i ( ........~ Z U ' W ~ e.^.^.!.w.' 7.E.U.w.~     pXpX@ k Z ~ X.w.) -   O p (.a pXpXpX",
"pXpXpXpXpXpXpXpXpXpXpXpXpXpXpXpX2 j U U 8.U.U.w.w.w.7._ ] W.8.8.Y././.Y.X._ _ 8.9.w.8.U o     - _ _ ) 7.E.) k ,   $ o.b.E pXpX",
"pXpXpXpXpXpXpXpXpXpXpXpXpXpXpXr ~ w.R.R.W.R.b.7.X.7.~ V U ' Y k Y X.X.X.7.7.7.7.X.X.8.U.; > , & / ) ) 7.r.7...u       Y.P.p pX",
"pXpXpXpXpXpXpXpXpXpXpXpXpXpX; e.!.!.!.R.R.R.R.R.U.E.V .       X u U.R.R.R.!.W.R.R.E.E.U.2 _ ~ & / _ ) ) _ E.7.r X , , , T.#X> ",
"pXpXpXpXpXpXpXpXpXpXpXpXpX: t.5XqXrX5XW.R.R.R.m.] ' / k       u ( ] m.E.(.qXrX!.R.R.E.E.) r.~ # / ) ) ) ..E.X.r I tXtXtXyXiXtX",
"pXpXpXpXpXpXpXpXpXpXpXpXu e.5XqXwXwX0XW.R.W.7.r 2 : 2 -       @ : 2 r 7.#XeXeX5X5X5X4XR.t.E.0.U ) ) / ..t.E.X.r - R iXuXuXuXuX",
"pXpXpXpXpXpXpXpXpXpXpXu o.4XeXwXwXwXrXW.R.t._ u         pX      pX    i o./.4XeXeXeXqX(.!.R.r._ ) 8.9.r.R.R.7.u   O o.o.o.o.P.",
"pXpXpXpXpXpXpXpXpXpXr e.4XwXwXwXwXqX4Xv.v.8.~ k .       pXpXpXpXpXpX    3 Y .._.2X5X5X5X!.v.9._ 7.E.E.t.t.t.~ 2               ",
"pXpXpXpXpXpXpXpXpXO 9.4XqXqXwXwXwX#Xt._ _ _ k   pXpXpXpXpXpXpXpXpXpXpXpXpX      k X.v.R.E.7./ ' w.t...~ ( ~ -     pXpXpXpXpXpX",
"pXpXpXpXpXpXpXpXpXO w.W.!.).qXwX(.v._ ) _ _ k   pXpXpXpXpXpXpXpXpXpXpXpXpXpXpXpXO O 2 _ ' ) ) ~ - @ O O o o   pXpXpXpXpXpXpXpX",
"pXpXpXpXpXpXpXpX2 X.E.9.X.9.).Y.9...) ) ) p ; pXpXpXpXpXpXpXpXpXpXpXpXpXpXpXpXpXpXpXpX: : : : : pXpXpXpXpXpXpXpXpXpXpXpXpXpXpX",
"pXpXpXpXpXpXpX  O U U ] w.9.9.) / ) ) ) _ r   pXpXpXpXpXpXpXpXpXpXpXpXpXpXpXpXpXpXpXpXpX      pXpXpXpXpXpXpXpXpXpXpXpXpXpXpXpX",
"pXpXpXpXpX  p I I p X I ....X.7.X...) ) _ r   pXpXpXpXpXpXpXpXpXpXpXpXpXpXpXpXpXpXpXpXpXpXpXpXpXpXpXpXpXpXpXpXpXpXpXpXpXpXpXpX",
"pXpXpXpXpX  /.uXiXyXt     > r.r.t.9._ ..] r   pXpXpXpXpXpXpXpXpXpXpXpXpXpXpXpXpXpXpXpXpXpXpXpXpXpXpXpXpXpXpXpXpXpXpXpXpXpXpXpX",
"pXpXpXpXpX  /.iXuXyXt       & & O k U.E.U.j   pXpXpXpXpXpXpXpXpXpXpXpXpXpXpXpXpXpXpXpXpXpXpXpXpXpXpXpXpXpXpXpXpXpXpXpXpXpXpXpX",
"pXpXpXpXpXpXI I  .iXe.X.k         O t r r -   pXpXpXpXpXpXpXpXpXpXpXpXpXpXpXpXpXpXpXpXpXpXpXpXpXpXpXpXpXpXpXpXpXpXpXpXpXpXpXpX",
"pXpXpXpXpXpXpX  t o.Y U U Y Y U Y u         pXpXpXpXpXpXpXpXpXpXpXpXpXpXpXpXpXpXpXpXpXpXpXpXpXpXpXpXpXpXpXpXpXpXpXpXpXpXpXpXpX",
"pXpXpXpXpXpXpXpXpX      p X...X...U     pXpXpXpXpXpXpXpXpXpXpXpXpXpXpXpXpXpXpXpXpXpXpXpXpXpXpXpXpXpXpXpXpXpXpXpXpXpXpXpXpXpXpX",
"pXpXpXpXpXpXpXpXpXpXpXpXpX              pXpXpXpXpXpXpXpXpXpXpXpXpXpXpXpXpXpXpXpXpXpXpXpXpXpXpXpXpXpXpXpXpXpXpXpXpXpXpXpXpXpXpX",
"pXpXpXpXpXpXpXpXpXpXpXpXpXpXpXpXpXpXpXpXpXpXpXpXpXpXpXpXpXpXpXpXpXpXpXpXpXpXpXpXpXpXpXpXpXpXpXpXpXpXpXpXpXpXpXpXpXpXpXpXpXpXpX",
"pXpXpXpXpXpXpXpXpXpXpXpXpXpXpXpXpXpXpXpXpXpXpXpXpXpXpXpXpXpXpXpXpXpXpXpXpXpXpXpXpXpXpXpXpXpXpXpXpXpXpXpXpXpXpXpXpXpXpXpXpXpXpX",
"pXpXpXpXpXpXpXpXpXpXpXpXpXpXpXpXpXpXpXpXpXpXpXpXpXpXpXpXpXpXpXpXpXpXpXpXpXpXpXpXpXpXpXpXpXpXpXpXpXpXpXpXpXpXpXpXpXpXpXpXpXpXpX",
"pXpXpXpXpXpXpXpXpXpXpXpXpXpXpXpXpXpXpXpXpXpXpXpXpXpXpXpXpXpXpXpXpXpXpXpXpXpXpXpXpXpXpXpXpXpXpXpXpXpXpXpXpXpXpXpXpXpXpXpXpXpXpX",
"pXpXpXpXpXpXpXpXpXpXpXpXpXpXpXpXpXpXpXpXpXpXpXpXpXpXpXpXpXpXpXpXpXpXpXpXpXpXpXpXpXpXpXpXpXpXpXpXpXpXpXpXpXpXpXpXpXpXpXpXpXpXpX",
"pXpXpXpXpXpXpXpXpXpXpXpXpXpXpXpXpXpXpXpXpXpXpXpXpXpXpXpXpXpXpXpXpXpXpXpXpXpXpXpXpXpXpXpXpXpXpXpXpXpXpXpXpXpXpXpXpXpXpXpXpXpXpX",
"pXpXpXpXpXpXpXpXpXpXpXpXpXpXpXpXpXpXpXpXpXpXpXpXpXpXpXpXpXpXpXpXpXpXpXpXpXpXpXpXpXpXpXpXpXpXpXpXpXpXpXpXpXpXpXpXpXpXpXpXpXpXpX",
"pXpXpXpXpXpXpXpXpXpXpXpXpXpXpXpXpXpXpXpXpXpXpXpXpXpXpXpXpXpXpXpXpXpXpXpXpXpXpXpXpXpXpXpXpXpXpXpXpXpXpXpXpXpXpXpXpXpXpXpXpXpXpX",
"pXpXpXpXpXpXpXpXpXpXpXpXpXpXpXpXpXpXpXpXpXpXpXpXpXpXpXpXpXpXpXpXpXpXpXpXpXpXpXpXpXpXpXpXpXpXpXpXpXpXpXpXpXpXpXpXpXpXpXpXpXpXpX",
"pXpXpXpXpXpXpXpXpXpXpXpXpXpXpXpXpXpXpXpXpXpXpXpXpXpXpXpXpXpXpXpXpXpXpXpXpXpXpXpXpXpXpXpXpXpXpXpXpXpXpXpXpXpXpXpXpXpXpXpXpXpXpX"
};
