/* XPM */
static char *result[] = {
/* columns rows colors chars-per-pixel */
"63 75 220 2 ",
"   c #010101",
".  c #090605",
"X  c #0B0807",
"o  c #060C09",
"O  c #0B0B0A",
"+  c #050907",
"@  c #120D0B",
"#  c #190E0C",
"$  c #110A07",
"%  c #07120C",
"&  c #13100F",
"*  c #1B100D",
"=  c #0A1C11",
"-  c #151211",
";  c #1A1514",
":  c #171C1A",
">  c #251612",
",  c #2C1A15",
"<  c #231E1A",
"1  c #281A16",
"2  c #321E19",
"3  c #301D16",
"4  c #23150F",
"5  c #082013",
"6  c #13251B",
"7  c #0E331E",
"8  c #2A231E",
"9  c #3B231C",
"0  c #36201B",
"q  c #173925",
"w  c #123621",
"e  c #242323",
"r  c #2B2825",
"t  c #322A26",
"y  c #352C2A",
"u  c #382B27",
"i  c #363635",
"p  c #3A3736",
"a  c #2D342B",
"s  c #452A24",
"d  c #4B2D22",
"f  c #463329",
"g  c #5A352B",
"h  c #563529",
"j  c #423633",
"k  c #453935",
"l  c #4A3D3A",
"z  c #5D3A32",
"x  c #643C33",
"c  c #60392E",
"v  c #1A5934",
"b  c #114327",
"n  c #274A35",
"m  c #2D553D",
"M  c #2C563D",
"N  c #1D6B3D",
"B  c #4C443B",
"V  c #57493E",
"C  c #6D463A",
"Z  c #774738",
"A  c #2F5E42",
"S  c #1F6E40",
"D  c #316947",
"F  c #297749",
"G  c #307A4E",
"H  c #30744C",
"J  c #2E734A",
"K  c #494645",
"L  c #5C4C45",
"P  c #5E4E49",
"I  c #534541",
"U  c #5E5141",
"Y  c #5D5D5E",
"T  c #555555",
"R  c #604F4A",
"E  c #734A41",
"W  c #7A4F46",
"Q  c #63534E",
"!  c #695948",
"~  c #7B5149",
"^  c #6C5A54",
"/  c #675752",
"(  c #715D57",
")  c #725E58",
"_  c #75605A",
"`  c #79655E",
"'  c #7B6854",
"]  c #5E5F60",
"[  c #646464",
"{  c #7A6660",
"}  c #7E6963",
"|  c #757676",
" . c #7C716D",
".. c #824E3A",
"X. c #84503A",
"o. c #8C553E",
"O. c #824E42",
"+. c #8A5244",
"@. c #87564B",
"#. c #935749",
"$. c #945849",
"%. c #975B47",
"&. c #8E5B51",
"*. c #865D52",
"=. c #915D53",
"-. c #A05F4C",
";. c #866F5B",
":. c #9E6556",
">. c #8E715E",
",. c #A5634C",
"<. c #AA684C",
"1. c #B16B4E",
"2. c #A86957",
"3. c #B26B52",
"4. c #B56E5A",
"5. c #BA745C",
"6. c #836F69",
"7. c #816C66",
"8. c #86706A",
"9. c #8A746D",
"0. c #8A7863",
"q. c #977A64",
"w. c #8C7872",
"e. c #937C76",
"r. c #967F78",
"t. c #987F78",
"y. c #A77665",
"u. c #BA7869",
"i. c #A86C60",
"p. c #CB7B5A",
"a. c #C57758",
"s. c #D27F5C",
"d. c #C07D6E",
"f. c #C27E70",
"g. c #26824C",
"h. c #2B9758",
"j. c #2E9257",
"k. c #31A15F",
"l. c #31AE65",
"z. c #31A662",
"x. c #31B266",
"c. c #32B468",
"v. c #2FA861",
"b. c #9D866D",
"n. c #9C847D",
"m. c #A18B70",
"M. c #B78D74",
"N. c #D7835F",
"B. c #D9835E",
"V. c #D78561",
"C. c #DA8662",
"Z. c #DB8C69",
"A. c #CB8374",
"S. c #D68A79",
"D. c #D9967B",
"F. c #DC916F",
"G. c #E19675",
"H. c #9A8984",
"J. c #989898",
"K. c gray51",
"L. c #A58B84",
"P. c #A48B84",
"I. c #AB9994",
"U. c #AB928C",
"Y. c #B1A291",
"T. c #B4AAA6",
"R. c #B7B2AF",
"E. c #B7B7B6",
"W. c #A7AAAA",
"Q. c #9EAFB2",
"!. c #D89882",
"~. c #CB9A88",
"^. c #E89786",
"/. c #F09E8C",
"(. c #C7A989",
"). c #DAA88B",
"_. c #DCBE99",
"`. c #D5A896",
"'. c #E5A98E",
"]. c #E7A48B",
"[. c #EBAD92",
"{. c #E6AB90",
"}. c #E9B499",
"|. c #F5B499",
" X c #F8BA9D",
".X c #F3AC94",
"XX c #C7BEBB",
"oX c #D2B3A5",
"OX c #F1BCA2",
"+X c #E6C39F",
"@X c #EDCCA6",
"#X c #E6C6A0",
"$X c #FAC3A3",
"%X c #F8C5A4",
"&X c #F4D3AA",
"*X c #FBD6AE",
"=X c #FFDDB2",
"-X c #F4D1BF",
";X c #F1CAB6",
":X c #FFE2B6",
">X c #FFE5B9",
",X c #D0C0BC",
"<X c #BAD0D4",
"1X c #C3C6C6",
"2X c #C7D4D6",
"3X c #D3D3D3",
"4X c gray85",
"5X c #D6C8C4",
"6X c #F7D6C4",
"7X c #F9DAC9",
"8X c #EFDACC",
"9X c #FDE5D6",
"0X c #D2E8EB",
"qX c #D5EEF3",
"wX c #D6F1F6",
"eX c #DAF4F9",
"rX c #E7E7E7",
"tX c #FEFEFE",
"yX c #F1F1F1",
"uX c None",
/* pixels */
"uXuXuXuXuXuXuXuXuXuXuXuXuXuXuXuXuXuXuXuXuXuXuXuXuXuXuXuXuXuXuXuXuXuXuXuXuXuXuXuXuXuXuXuXuXuXuXuXuXuXuXuXuXuXuXuXuXuXuXuXuXuXuX",
"uXuXuXuXuXuXuXuXuXuXuXuXuXuXuXuXuXuXuXuXuXuXuXuXuXuXuXuXuXuXuXuXuXuXuXuXuXuXuXuXuXuXuXuXuXuXuXuXuXuXuXuXuXuXuXuXuXuXuXuXuXuXuX",
"uXuXuXuXuXuXuXuXuXuXuXuXuXuXuXuXuXuXuXuXuXuXuXuXuXuXuXuXuXuXuXuXuXuXuXuXuXuXuXuXuXuXuXuXuXuXuXuXuXuXuXuXuXuXuXuXuXuXuXuXuXuXuX",
"uXuXuXuXuXuXuXuXuXuXuXuXuXuXuXuXuXuX                              uXuXuXuXuXuXuXuXuXuXuXuXuXuXuXuXuXuXuXuXuXuXuXuXuXuXuXuXuXuX",
"uXuXuXuXuXuXuXuXuXuXuXuXuXuX      1 g g Z X.X.X.X...X.X.X.X.X.C s     uXuXuXuXuXuXuXuXuXuXuXuXuXuXuXuXuXuXuXuXuXuXuXuXuXuXuXuX",
"uXuXuXuXuXuXuXuXuXuXuXuXuX$ 0 d d Z 3.3.N.C.C.C.C.C.C.C.C.C.C.p.%.h h 4 uXuXuXuXuXuXuXuXuXuXuXuXuXuXuXuXuXuXuXuXuXuXuXuXuXuXuX",
"uXuXuXuXuXuXuXuXuXuXuX4 > 9 ,.p.C.B.B.B.B.B.B.V.B.N.N.N.B.N.B.N.N.B.B.g * uXuXuXuXuXuXuXuXuXuXuXuXuXuXuXuXuXuXuXuXuXuXuXuXuXuX",
"uXuXuXuXuXuXuXuXuX. X o.N.p.N.V.N.N.N.N.N.B.N.N.B.N.N.N.B.B.V.N.N.N.N.N.Z   uXuXuXuXuXuXuXuXuXuXuXuXuXuXuXuXuXuXuXuXuXuXuXuXuX",
"uXuXuXuXuXuX    > 3.oXD.N.N.N.N.N.N.N.N.N.N.N.N.B.C.s.C.s.C.C.s.N.N.N.B.a.o.          uXuXuXuXuXuXuXuXuXuXuXuXuXuXuXuXuXuXuXuX",
"uXuXuXuXuXuX  9 -.Z.9X).p.N.N.N.N.N.N.N.B.N.N.V.B.s.C.B.C.s.C.V.N.N.N.N.C.a.X.X.o.d   uXuXuXuXuXuXuXuXuXuXuXuXuXuXuXuXuXuXuXuX",
"uXuXuXuXuXuXuXd %.B.}.}.D.N.N.N.N.N.N.N.V.N.N.B.C.s.s.C.B.s.s.C.N.N.N.B.V.Z.'.%.o.g uXuXuXuXuXuXuXuXuXuXuXuXuXuXuXuXuXuXuXuXuX",
"uXuXuXuXuXuXuX* d N.N.@X;XF.V.N.N.N.N.N.N.N.N.N.s.C.C.s.C.C.V.V.N.N.N.N.C.'.8Xy     uXuXuXuXuXuXuXuXuXuXuXuXuXuXuXuXuXuXuXuXuX",
"uXuXuXuXuXuX  h p.p.,.oX9X;XZ.N.V.V.Z.V.C.B.B.B.C.C.C.C.V.s.V.C.C.C.C.V.}.9X7X:.3   uXuXuXuXuXuXuXuXuXuXuXuXuXuXuXuXuXuXuXuXuX",
"uXuXuXuXuXuX  $ > , 1.Z.G.].-Xy.`.7X6X6XG.3.1.F.6X6X7XOXV.,.%.~.7X7X6X6X9X6XD.,.3   uXuXuXuXuXuXuXuXuXuXuXuXuXuXuXuXuXuXuXuXuX",
"uXuXuXuXuXuXuX  * X.p.N.B.Z.].h 2.{.[.'.C 9 c 5.].[.[.!.<.$.$.u.{.'.'.~.~.!.1.%.3   uXuXuXuXuXuXuXuXuXuXuXuXuXuXuXuXuXuXuXuXuX",
"uXuXuXuXuXuXuXuX0 B.a.a.<.o.1.* Z p.p.X.d @ * c Z ..,.3.$.$.$.3.B.B.B.<.,.3.$.$.3   uXuXuXuXuXuXuXuXuXuXuXuXuXuXuXuXuXuXuXuXuX",
"uXuXuXuXuXuXuXuX> <...W s # +.3 h %.3.. x 0   . e + u O.$.$.$.3.a.3.3.+.O.$.#.$.3   uXuXuXuXuXuXuXuXuXuXuXuXuXuXuXuXuXuXuXuXuX",
"uXuXuXuXuXuXuXuX  . .     # +.+.0 2 Z         r rXK   3 #.$.+.#.C $ O O s #.$.#.3   uXuXuXuXuXuXuXuXuXuXuXuXuXuXuXuXuXuXuXuXuX",
"uXuXuXuXuXuXuXuXuXuXuX      # * . . #       K 4XtX4XY   > +.9 $ s d.f.f.E 2 +., uXuXuXuXuXuXuXuXuXuXuXuXuXuXuXuXuXuXuXuXuXuXuX",
"uXuXuXuXuXuXuXuXuXuXuXuX        0 9         T tXtXtX|   . +.> s :.4.x f.O.* +.$ uXuXuXuXuXuXuXuXuXuXuXuXuXuXuXuXuXuXuXuXuXuXuX",
"uXuXuXuXuXuXuXuXuXuXuXuXuX      C #.3       T tXtXtX| . 9 g 9 $.f.z h u.~ * +.@ uXuXuXuXuXuXuXuXuXuXuXuXuXuXuXuXuXuXuXuXuXuXuX",
"uXuXuXuXuXuXuXuXuXuXuXuXuX      =.S.+..     T tXtXtX| > $.O Z S.y.# !./.W # Z @ uXuXuXuXuXuXuXuXuXuXuXuXuXuXuXuXuXuXuXuXuXuXuX",
"uXuXuXuXuXuXuXuXuXuXuXuXuX  O   &./.d.@     Y tXtXtX| s A.; i.$XY.> _..XW     uXuXuXuXuXuXuXuXuXuXuXuXuXuXuXuXuXuXuXuXuXuXuXuX",
"uXuXuXuXuXuXuXuXuXuXuXuXuXr 1Xe q. X!.u.> | rXtXtXY W A.^.f.S.|.&X_.=X/ @     uXuXuXuXuXuXuXuXuXuXuXuXuXuXuXuXuXuXuXuXuXuXuXuX",
"uXuXuXuXuXuXuXuXuXuXuXuXuX- Y *.y.~.%X$Xi.( Y [ Y b.(.$X$X$X$X).y.! R ; 4 d   uXuXuXuXuXuXuXuXuXuXuXuXuXuXuXuXuXuXuXuXuXuXuXuX",
"uXuXuXuXuXuXuXuXuXuXuXuXuX& V ).!.).:X=X Xb.V V V +X:X*X=X:X:X).O.  , X d X.0 uXuXuXuXuXuXuXuXuXuXuXuXuXuXuXuXuXuXuXuXuXuXuXuX",
"uXuXuXuXuXuXuXuXuXuXuXuXuXt *X=X=X=X*X=X:X+X+X:X=X=X=X=X=X=X*X).=.> +., 0 Z Z $ uXuXuXuXuXuXuXuXuXuXuXuXuXuXuXuXuXuXuXuXuXuXuX",
"uXuXuXuXuXuXuXuXuXuXuXuXuXr @X=X=X=X&X&X=X! V =X=X=X=X=X=X&X[.Z > +.+.,   .     uXuXuXuXuXuXuXuXuXuXuXuXuXuXuXuXuXuXuXuXuXuXuX",
"uXuXuXuXuXuXuXuXuXuXuXuXuXuXu _.:XM.8 8 8 0.+X:X=X=X=X=X+Xf 1 $ . # #     uXuXuXuXuXuXuXuXuXuXuXuXuXuXuXuXuXuXuXuXuXuXuXuXuXuX",
"uXuXuXuXuXuXuXuXuXuXuXuXuXuXuXV (.#Xm.b.b._.:X=X X Xb.V V b M N N N N =       uXuXuXuXuXuXuXuXuXuXuXuXuXuXuXuXuXuXuXuXuXuXuXuX",
"uXuXuXuXuXuXuXuXuXuXuXuXuXuXuXuX! m.m.m.m.b.b.b.&.&.B b b G k.c.x.x.c.N 5     uXuXuXuXuXuXuXuXuXuXuXuXuXuXuXuXuXuXuXuXuXuXuXuX",
"uXuXuXuXuXuXuXuXuXuXuXuXuXuXuXuXuX+               % N c.c.c.x.x.l.l.l.c.S %     o o uXuXuXuXuXuXuXuXuXuXuXuXuXuXuXuXuXuXuXuXuX",
"uXuXuXuXuXuXuXuXuXuXuXuXuXuXuXuXuXuXuXuXuXuXuXuX  g.x.x.l.l.l.l.l.x.l.x.l.g.+   q q   uXuXuXuXuXuXuXuXuXuXuXuXuXuXuXuXuXuXuXuX",
"uXuXuXuXuXuXuXuXuXuXuXuXuXuXuXuXuXuXuXuXuXuXuXuX  g.x.x.z.D k.l.l.l.l.x.x.h.n + + O     uXuXuXuXuXuXuXuXuXuXuXuXuXuXuXuXuXuXuX",
"uXuXuXuXuXuXuXuXuXuXuXuXuXuXuXuXuXuXuXuXuXuXuXuXuXw F x.z.A k.l.x.l.G G G D m q %         uXuXuXuXuXuXuXuXuXuXuXuXuXuXuXuXuXuX",
"uXuXuXuXuXuXuXuXuXuXuXuXuXuXuXuXuXuXuXuXuXuXuXuXuX  M z.j.A g.z.x.z.G G G G G A = O =     uXuXuXuXuXuXuXuXuXuXuXuXuXuXuXuXuXuX",
"uXuXuXuXuXuXuXuXuXuXuXuXuXuXuXuXuXuXuXuXuXuXuXuXuX  v g.m m n H v.x.x.h.j.j.g.M % 6 m 5   uXuXuXuXuXuXuXuXuXuXuXuXuXuXuXuXuXuX",
"uXuXuXuXuXuXuXuXuXuXuXuXuXuXuXuXuXuXuXuXuXuXuXuXuXuX  5 m M = 6 J v.v.w . O o +   6 D h.5     uXuXuXuXuXuXuXuXuXuXuXuXuXuXuXuX",
"uXuXuXuXuXuXuXuXuXuXuXuXuXuXuXuXuXuXuXuXuXuXuXuXuXuX    o o   + % = = *.A.u.u.O.> 6 D z.h.7   uXuXuXuXuXuXuXuXuXuXuXuXuXuXuXuX",
"uXuXuXuXuXuXuXuXuXuXuXuXuXuXuXuXuXuXuXuXuXuXuXuX      1 =.*.4   @ c @.).%X%X%X).@.u b l.x.b     uXuXuXuXuXuXuXuXuXuXuXuXuXuXuX",
"uXuXuXuXuXuXuXuXuXuXuXuXuXuXuXuXuXuXuXuXuXuXuXuXL U U >.|.|.>.r # x D.%X=X=X:X=X`.C 5 l.x.v %   uXuXuXuXuXuXuXuXuXuXuXuXuXuXuX",
"uXuXuXuXuXuXuXuXuXuXuXuXuXuXuXuXuXuXuXuXuXuXuX8 &X=X=X=X=X=X>X' . i y.}.*X=X=X=X=Xq.= h.k.D w   uXuXuXuXuXuXuXuXuXuXuXuXuXuXuX",
"uXuXuXuXuXuXuXuXuXuXuXuXuXuXuXuXuXuXuXuXuXuXuX< @X=X=X=X=X=X=X' i <X< i.OX*X*X*X|.@.% M A :   uXuXuXuXuXuXuXuXuXuXuXuXuXuXuXuX",
"uXuXuXuXuXuXuXuXuXuXuXuXuXuXuXuXuXuXuXuXuXuXuX< @X=X=X=X=X=X|.E i 2X: 2./.]./././.@.  % % uXuXuXuXuXuXuXuXuXuXuXuXuXuXuXuXuXuX",
"uXuXuXuXuXuXuXuXuXuXuXuXuXuXuXuXuXuXuXuXuXuXuX< @X=X=X=X=X=X.XC i Q.- i./.^.^.d.E 1     uXuXuXuXuXuXuXuXuXuXuXuXuXuXuXuXuXuXuX",
"uXuXuXuXuXuXuXuXuXuXuXuXuXuXuXuXuXuXuXuXuXuXuX< &X=X=X=X=X=X.XE e e.& C =.*.@.x j y <   uXuXuXuXuXuXuXuXuXuXuXuXuXuXuXuXuXuXuX",
"uXuXuXuXuXuXuXuXuXuXuXuXuXuXuXuXuXuXuXuXuXuXuX< (.&X=X*X&X%X~.z : } @     - ; &  .H.P   uXuX              uXuXuXuXuXuXuXuXuXuX",
"uXuXuXuXuXuXuXuXuXuXuXuXuXuXuXuXuXuXuXuXuXuXuXuXO (.*XOX!.^.s     O     y } H.) E.1X8.+ uX  .           . uXuXuXuXuXuXuXuXuXuX",
"uXuXuXuXuXuXuXuXuXuXuXuXuXuXuXuXuXuXuXuXuXuXuXuXuX8 r 8 2 1 .   ; P P } e.n.P.H.w.W.Q..   j R l       t { O uXuXuXuXuXuXuXuXuX",
"uXuXuXuXuXuXuXuXuXuXuXuXuXuXuXuXuXuXuXuXuXuXuXuXuXuX      y k k I ) ) r.P.P.P.P.e.H.| .   l ) / k O   p e.  uXuXuXuXuXuXuXuXuX",
"uXuXuXuXuXuXuXuXuXuXuXuXuXuXuXuXuXuXuXuXuXuXuXuXuXuX  O t } ` L k k k H.R.R.R.R.I.t./   < L ) ) ( -   < Q j : uXuXuXuXuXuXuXuX",
"uXuXuXuXuXuXuXuXuXuXuXuXuXuXuXuXuXuXuXuXuXuXuXuXuXuX  < 7.P.7.j O   ; Q.eXqXqXqXE.I.6.. R ) ( ( ^ -     ; I.e uXuXuXuXuXuXuXuX",
"uXuXuXuXuXuXuXuXuXuXuXuXuXuXuXuXuXuXuXuXuXuXuXuXuX    y P.L.} ( I @ w.2XqXqXqXqXqX1X6.X R ( ( ( ^ -     e rXi uXuXuXuXuXuXuXuX",
"uXuXuXuXuXuXuXuXuXuXuXuXuXuXuXuXuXuXuXuXuXuXuXuXuX  k e.L.L.P.8.l @ e.2XwXqXqXqXqX1X6.X R ) ( ( ^ -     r rXp uXuXuXuXuXuXuXuX",
"uXuXuXuXuXuXuXuXuXuXuXuXuXuXuXuXuXuXuXuXuXuXuXuXuX  L U.L.L.U.H.^   y H.2XqXqXqXeX1X6.. R ) 7.9.( -     e yXi uXuXuXuXuXuXuXuX",
"uXuXuXuXuXuXuXuXuXuXuXuXuXuXuXuXuXuXuXuXuXuXuXuXuX  B n.L.L.L.U.9.e   ) XXwXqXqX2XR.9.t Q ( 8.H.( @ < K | yXi uXuXuXuXuXuXuXuX",
"uXuXuXuXuXuXuXuXuXuXuXuXuXuXuXuXuXuXuXuXuXuXuXuXuX  y ) n.P.L.L.r./ O P W.0X0XqXT.P.n.) ( ( 6.m.^ - ( 5XtXtXi uXuXuXuXuXuXuXuX",
"uXuXuXuXuXuXuXuXuXuXuXuXuXuXuXuXuXuXuXuXuXuXuXuXuXuX  < ` P.L.P.r./ @   I T.0X0XT.P.n.) ( ( 6.n.^ O J.tXtXtXi uXuXuXuXuXuXuXuX",
"uXuXuXuXuXuXuXuXuXuXuXuXuXuXuXuXuXuXuXuXuXuXuXuXuXuX  < ) ` ` ` ` ^ R ; y w.I.I.U.e.` ) ( e.P.e.;   J.tXtXtXi uXuXuXuXuXuXuXuX",
"uXuXuXuXuXuXuXuXuXuXuXuXuXuXuXuXuXuXuXuXuXuXuXuXuXuXuX- t ^ ( ( ( ( ) I y j 6.9.6.} ) ( y y p u uXuXK ] Y Y ; uXuXuXuXuXuXuXuX",
"uXuXuXuXuXuXuXuXuXuXuXuXuXuXuXuXuXuXuXuXuXuXuXuXuXuXuXuX  j Q ) ( ( ) ) I r j j k k k j .       uXuXuX        uXuXuXuXuXuXuXuX",
"uXuXuXuXuXuXuXuXuXuXuXuXuXuXuXuXuXuXuXuXuXuXuXuXuXuXuXuX    k ^ { ` { ) ( P - @ & & @ @   uXuXuXuXuXuXuXuXuXuXuXuXuXuXuXuXuXuX",
"uXuXuXuXuXuXuXuXuXuXuXuXuXuXuXuXuXuXuXuXuXuXuXuXuXuXuXuXuX    I P.t.H.{ ^ ^ ^ ^ ^ / / Q @ uXuXuXuXuXuXuXuXuXuXuXuXuXuXuXuXuXuX",
"uXuXuXuXuXuXuXuXuXuXuXuXuXuXuXuXuXuXuXuXuXuXuXuXuXuXuXuXuXuX  @ ; ; ; - O 2 ) ) ) l @ @ + uXuXuXuXuXuXuXuXuXuXuXuXuXuXuXuXuXuX",
"uXuXuXuXuXuXuXuXuXuXuXuXuXuXuXuXuXuXuXuXuXuXuXuXuXuXuXuXuXuX  K J.J.^ Q Q I < < e j ^ Q @ uXuXuXuXuXuXuXuXuXuXuXuXuXuXuXuXuXuX",
"uXuXuXuXuXuXuXuXuXuXuXuXuXuXuXuXuXuXuXuXuXuXuXuXuXuXuXuXuXuX  K.tXtX5X,X5XT.[ [ K ^ H.^ ; uXuXuXuXuXuXuXuXuXuXuXuXuXuXuXuXuXuX",
"uXuXuXuXuXuXuXuXuXuXuXuXuXuXuXuXuXuXuXuXuXuXuXuXuXuXuXuXuXuX  [ 3X3X3X3X3X3X3X3XI.9.^   uXuXuXuXuXuXuXuXuXuXuXuXuXuXuXuXuXuXuX",
"uXuXuXuXuXuXuXuXuXuXuXuXuXuXuXuXuXuXuXuXuXuXuXuXuXuXuXuXuXuX  + O O O O . o O o + .     uXuXuXuXuXuXuXuXuXuXuXuXuXuXuXuXuXuXuX",
"uXuXuXuXuXuXuXuXuXuXuXuXuXuXuXuXuXuXuXuXuXuXuXuXuXuXuXuXuXuXuXuXuXuXuXuXuXuXuXuXuXuXuXuXuXuXuXuXuXuXuXuXuXuXuXuXuXuXuXuXuXuXuX",
"uXuXuXuXuXuXuXuXuXuXuXuXuXuXuXuXuXuXuXuXuXuXuXuXuXuXuXuXuXuXuXuXuXuXuXuXuXuXuXuXuXuXuXuXuXuXuXuXuXuXuXuXuXuXuXuXuXuXuXuXuXuXuX",
"uXuXuXuXuXuXuXuXuXuXuXuXuXuXuXuXuXuXuXuXuXuXuXuXuXuXuXuXuXuXuXuXuXuXuXuXuXuXuXuXuXuXuXuXuXuXuXuXuXuXuXuXuXuXuXuXuXuXuXuXuXuXuX",
"uXuXuXuXuXuXuXuXuXuXuXuXuXuXuXuXuXuXuXuXuXuXuXuXuXuXuXuXuXuXuXuXuXuXuXuXuXuXuXuXuXuXuXuXuXuXuXuXuXuXuXuXuXuXuXuXuXuXuXuXuXuXuX",
"uXuXuXuXuXuXuXuXuXuXuXuXuXuXuXuXuXuXuXuXuXuXuXuXuXuXuXuXuXuXuXuXuXuXuXuXuXuXuXuXuXuXuXuXuXuXuXuXuXuXuXuXuXuXuXuXuXuXuXuXuXuXuX",
"uXuXuXuXuXuXuXuXuXuXuXuXuXuXuXuXuXuXuXuXuXuXuXuXuXuXuXuXuXuXuXuXuXuXuXuXuXuXuXuXuXuXuXuXuXuXuXuXuXuXuXuXuXuXuXuXuXuXuXuXuXuXuX",
"uXuXuXuXuXuXuXuXuXuXuXuXuXuXuXuXuXuXuXuXuXuXuXuXuXuXuXuXuXuXuXuXuXuXuXuXuXuXuXuXuXuXuXuXuXuXuXuXuXuXuXuXuXuXuXuXuXuXuXuXuXuXuX"
};
