/* XPM */
static char *result[] = {
/* columns rows colors chars-per-pixel */
"63 75 219 2 ",
"   c #010101",
".  c #0A0606",
"X  c #0D0807",
"o  c #060D09",
"O  c #0C0C0B",
"+  c #040A06",
"@  c #130D0B",
"#  c #160C0A",
"$  c #0A150F",
"%  c #05130C",
"&  c #1C110E",
"*  c #15120F",
"=  c #0D1A12",
"-  c #0C1610",
";  c #151413",
":  c #1A1613",
">  c #1B1A1A",
",  c #1C1918",
"<  c #231511",
"1  c #2B1A15",
"2  c #231E1B",
"3  c #2B1C18",
"4  c #271815",
"5  c #321E19",
"6  c #22140F",
"7  c #0A2816",
"8  c #15291D",
"9  c #14261B",
"0  c #2B241E",
"q  c #38231C",
"w  c #172E21",
"e  c #1C3626",
"r  c #2B2523",
"t  c #292827",
"y  c #392B26",
"u  c #243A2A",
"i  c #3B322E",
"p  c #34372B",
"a  c #393838",
"s  c #293032",
"d  c #4B2C24",
"f  c #442B24",
"g  c #47352D",
"h  c #523125",
"j  c #55342D",
"k  c #5B362D",
"l  c #5E382F",
"z  c #413533",
"x  c #453B32",
"c  c #493B37",
"v  c #5C3D36",
"b  c #653D2C",
"n  c #693F2C",
"m  c #643B32",
"M  c #41271D",
"N  c #154A2B",
"B  c #195432",
"V  c #12512C",
"C  c #284A35",
"Z  c #2D543C",
"A  c #2F583F",
"S  c #22402E",
"D  c #1B663B",
"F  c #4C453B",
"G  c #52433E",
"H  c #58473B",
"J  c #6A412F",
"K  c #69433A",
"L  c #764739",
"P  c #393E40",
"I  c #2F5C41",
"U  c #305A40",
"Y  c #394143",
"T  c #2E6143",
"R  c #306947",
"E  c #2C764A",
"W  c #30744B",
"Q  c #307F50",
"!  c #484848",
"~  c #524541",
"^  c #584945",
"/  c #565554",
"(  c #5C504D",
")  c #6A574C",
"_  c #775348",
"`  c #6D5A54",
"'  c #6A5853",
"]  c #715D57",
"[  c #725F59",
"{  c #714A42",
"}  c #76625C",
"|  c #7B685A",
" . c #676969",
".. c #7B6661",
"X. c #7D6963",
"o. c #7A6A65",
"O. c #777979",
"+. c #6A797C",
"@. c #546062",
"#. c #834E3D",
"$. c #88523E",
"%. c #885545",
"&. c #985C48",
"*. c #8C5C51",
"=. c #965E52",
"-. c #854F42",
";. c #996457",
":. c #86745E",
">. c #95634C",
",. c #A6644C",
"<. c #A76857",
"1. c #B46B52",
"2. c #BB7255",
"3. c #B16C4E",
"4. c #826D67",
"5. c #8A746D",
"6. c #8B7765",
"7. c #957B66",
"8. c #8E7871",
"9. c #927B74",
"0. c #957E78",
"q. c #A76D60",
"w. c #A86F62",
"e. c #AD7364",
"r. c #B57666",
"t. c #B26F60",
"y. c #C27656",
"u. c #CD7C5B",
"i. c #C67858",
"p. c #D37F5C",
"a. c #C37C6C",
"s. c #308C56",
"d. c #308251",
"f. c #30955A",
"g. c #31985B",
"h. c #2C8852",
"j. c #31A15F",
"k. c #2DA05C",
"l. c #31A661",
"z. c #31AE65",
"x. c #31B166",
"c. c #33B569",
"v. c #9B846B",
"b. c #9B837C",
"n. c #B79A7D",
"m. c #B88A74",
"M. c #D7835F",
"N. c #D8845F",
"B. c #DA8561",
"V. c #DB8C6A",
"C. c #D78764",
"Z. c #C88574",
"A. c #D48C7B",
"S. c #DC8F7F",
"D. c #DC9477",
"F. c #D69072",
"G. c #E19979",
"H. c #888786",
"J. c #9A8984",
"K. c #9C9A9A",
"L. c #8F9597",
"P. c #A08780",
"I. c #A48B83",
"U. c #A88E87",
"Y. c #A99089",
"T. c #B89E80",
"R. c #A69793",
"E. c #BCA283",
"W. c #97A7AA",
"Q. c #B6AAA5",
"!. c #BBBBBB",
"~. c #B7B4B3",
"^. c #AEAEAD",
"/. c #DD9A83",
"(. c #C99E84",
"). c #E59584",
"_. c #EB9B89",
"`. c #E79A84",
"'. c #F09B8A",
"]. c #C7AC8B",
"[. c #D4AF90",
"{. c #E4A183",
"}. c #E7A58C",
"|. c #EBAC92",
" X c #ECA790",
".X c #F4B89B",
"XX c #EBB598",
"oX c #C0BAB8",
"OX c #E9BCA6",
"+X c #E4C49E",
"@X c #EEC29F",
"#X c #C1C0BF",
"$X c #E8C6A2",
"%X c #F8C8A6",
"&X c #F4D2AA",
"*X c #FCD5AE",
"=X c #FAD8AF",
"-X c #FFDCB2",
";X c #EFCCBA",
":X c #FFE1B6",
">X c #FFE4B9",
",X c #B6C6C9",
"<X c #C7C7C7",
"1X c #DADADA",
"2X c #FADDCD",
"3X c #F6D6C4",
"4X c #F4D8C9",
"5X c #FCE2D3",
"6X c #CEE2E6",
"7X c #D3E8ED",
"8X c #D5EEF3",
"9X c #D6F1F6",
"0X c #DBF6FC",
"qX c #E6E6E6",
"wX c #EAEAEA",
"eX c #FEFEFE",
"rX c #F1F1F1",
"tX c #C8DEE2",
"yX c None",
/* pixels */
"yXyXyXyXyXyXyXyXyXyXyXyXyXyXyXyXyXyXyXyXyXyXyXyXyXyXyXyXyXyXyXyXyXyXyXyXyXyXyXyXyXyXyXyXyXyXyXyXyXyXyXyXyXyXyXyXyXyXyXyXyXyXyX",
"yXyXyXyXyXyXyXyXyXyXyXyXyXyXyXyXyXyXyXyXyXyXyXyXyXyXyXyXyXyXyXyXyXyXyXyXyXyXyXyXyXyXyXyXyXyXyXyXyXyXyXyXyXyXyXyXyXyXyXyXyXyXyX",
"yXyXyXyXyXyXyXyXyXyXyXyXyXyXyXyXyXyXyXyXyXyXyXyXyXyXyXyXyXyXyXyXyXyXyXyXyXyXyXyXyXyXyXyXyXyXyXyXyXyXyXyXyXyXyXyXyXyXyXyXyXyXyX",
"yXyXyXyXyXyXyXyXyXyXyXyXyXyXyXyXyXyXyXyXyXyXyXyXyXyXyXyXyXyXyXyXyXyXyXyXyXyXyXyXyXyXyXyXyXyXyXyXyXyXyXyXyXyXyXyXyXyXyXyXyXyXyX",
"yXyXyXyXyXyXyXyXyXyXyXyXX X # # # # @ # # # # @ X yXyXyXyXyXyXyXyXyXyXyXyXyXyXyXyXyXyXyXyXyXyXyXyXyXyXyXyXyXyXyXyXyXyXyXyXyXyX",
"yXyXyXyXyXyXyXyX      X L %.,.i.y.y.y.y.y.y.y.&.d       yXyXyXyXyXyXyXyXyXyXyXyXyXyXyXyXyXyXyXyXyXyXyXyXyXyXyXyXyXyXyXyXyXyXyX",
"yXyXyXyXyXyX    j $.&.,.y.i.u.B.B.M.B.B.M.M.B.u.1.&.&.,.M       yXyXyXyXyXyXyXyXyXyXyXyXyXyXyXyXyXyXyXyXyXyXyXyXyXyXyXyXyXyXyX",
"yXyXyXyXyX5 J J ,.u.B.B.B.N.N.M.M.M.M.M.M.M.M.B.B.B.N.B.&.J J b & yX  yXyXyXyXyXyXyXyXyXyXyXyXyXyXyXyXyXyXyXyXyXyXyXyXyXyXyXyX",
"yXyXyXyX1 J B.B.N.N.M.M.M.M.M.B.p.B.B.B.B.p.M.M.M.M.M.M.B.B.B.B.h q <   yXyXyXyXyXyXyXyXyXyXyXyXyXyXyXyXyXyXyXyXyXyXyXyXyXyXyX",
"yXyXyX: $.B.B.N.N.N.B.M.M.M.M.M.N.N.N.p.B.B.B.p.M.M.M.M.M.B.B.V.M.u.L   yXyXyXyXyXyXyXyXyXyXyXyXyXyXyXyXyXyXyXyXyXyXyXyXyXyXyX",
"yX  o Q.}.N.N.N.N.N.M.N.M.B.M.M.N.N.N.B.M.M.M.B.B.M.M.M.M.M.D.4Xe.d # yXyXyXyXyXyXyXyXyXyXyXyXyXyXyXyXyXyXyXyXyXyXyXyXyXyXyXyX",
"h ,.>.;X|.M.N.N.N.M.M.M.M.M.M.M.N.B.p.B.M.N.M.M.M.M.M.M.M.M.G.5X;X7.d   yXyXyXyXyXyXyXyXyXyXyXyXyXyXyXyXyXyXyXyXyXyXyXyXyXyXyX",
"q #.N.|.OX_.M.N.M.B.B.p.M.M.M.B.N.N.p.p.B.B.p.B.M.M.B.M.B.p.D.5X$Xr.l   yXyXyXyXyXyXyXyXyXyXyXyXyXyXyXyXyXyXyXyXyXyXyXyXyXyXyX",
"yX& &.i.XX$X/.G.C.B.p.B.M.M.M.p.B.p.B.B.B.p.B.p.M.M.M.M.p.V.}.%XD.1.k   yXyXyXyXyXyXyXyXyXyXyXyXyXyXyXyXyXyXyXyXyXyXyXyXyXyXyX",
"yXyX& 3.B./.5X5X{.C.V.V.M.C.V.V.V.N.p.p.C.V.V.V.C.C.V.V.V.|.;XC.p.1.m   yXyXyXyXyXyXyXyXyXyXyXyXyXyXyXyXyXyXyXyXyXyXyXyXyXyXyX",
"yX6 2.M.2.<.D.5X5X2X2X3X;.OX5X2X3XV.<.1.G.2X2X5X].e.4X2X5XOXV.B.,.=.k   yXyXyXyXyXyXyXyXyXyXyXyXyXyXyXyXyXyXyXyXyXyXyXyXyXyXyX",
"yX. q q $.M.M.G.`.G.{.F.q e.G.{.D.h 4 b 2.`.{.Z.q.<./.`.{.G.u.,.&.&.l   yXyXyXyXyXyXyXyXyXyXyXyXyXyXyXyXyXyXyXyXyXyXyXyXyXyXyX",
"yX    h ,.M.3.J ,.u.u.,.+ $.p.2.J d @ & j b J -.&.&.1.1.#.b b d -.&.l   yXyXyXyXyXyXyXyXyXyXyXyXyXyXyXyXyXyXyXyXyXyXyXyXyXyXyX",
"yXyX. 3.B.,.l   L 1.,.m 3 k &.%.. m &   * C + f -.&.%.L d y q f m L d   yXyXyXyXyXyXyXyXyXyXyXyXyXyXyXyXyXyXyXyXyXyXyXyXyXyXyX",
"yXyX. ,.<.j     m %.l X L < d m       . / wXa   5 -.-.1 ;.S.A.S.3     yXyXyXyXyXyXyXyXyXyXyXyXyXyXyXyXyXyXyXyXyXyXyXyXyXyXyXyX",
"yXyX. L d .     . X .   X   + .        .rXeXwX!   # # r.t.b y A.3     yXyXyXyXyXyX      + yXyXyXyXyXyXyXyXyXyXyXyXyXyXyXyXyXyX",
"yXyX  < & yXyX     .H.    d q         O.eXeXeX/     . a.L j r.S.3     yXyXyXyX  : n.T.E.:.    yXyXyXyXyXyXyXyXyXyXyXyXyXyXyXyX",
"yXyXyX  yXyXyX    L.1X+.O =.%.q       O.eXeXeX/ # q . /.c H .XS.3   yXyXyXyX  0 6.=X:X:X+X| | y yXyXyXyXyXyXyXyXyXyXyXyXyXyXyX",
"yXyXyXyXyXyXyX  a ^.eXwX; r.D.] O a ! K.eXeX#X( K =.g +X:.6.*X).3   yXyX-   2 :.:X-X-X-X-X:X:Xz > P yXyXyXyXyXyXyXyXyXyXyXyXyX",
"yXyXyXyXyXyXyX+ ^.wXwX<X3 n.-XE.t <XwXqXqX1Xp q._.`.`.%X*X&X@XZ.4   + - Z o 6.>X-X-X*X*X*X*XOXF +.^.    yXyXyXyXyXyXyXyXyXyXyX",
"yXyXyXyXyXyXyX  ; > > y m.3.G.=X[.p > > > t ].*X-X%X`._.r.;.%.&   w C Z Z o 7.:X-X-X|._.)./.3 W.,Xo.    . yXyXyXyXyXyXyXyXyXyX",
"yXyXyXyXyXyXyX  6.E.E.E.%X+X$X=X-XE.T.E.E.E.&X-X-X%X).r.l < &   e E g.g.g.= *.XX X|._._.r.g W.@.s g t.n.E.)   yXyXyXyXyXyXyXyX",
"yXyXyXyXyXyXyX  ].>X:X:X:X:X:X-X:X>X>X].v.:X-X-X*X|.r.l #   + B Q j.x.z.x.D F ;._.r.%.L ` +.+.) _ 7.@X:X>X].) yXyXyXyXyXyXyXyX",
"yXyXyXyXyXyXyX. ].:X-X-X-X-X+Xn.T.T.n.| ) -X-X*X.Xa.m X   o N z.x.z.z.x.x.x.N 0 <.K &   a W.g m.%X:X-X-X-X-X(.  yXyXyXyXyXyXyX",
"yXyXyXyX; : : : n.&X-X-X-X-X:.@ ; : * :.-X-X*X{.A.w.#     N x.z.z.x.z.z.x.z.N       yXyXyX; A.XX*X-X-X*X*X.Xe.  yXyXyXyXyXyXyX",
"yXyXyX  6.$X+X+Xx v.:X*X-X-X&X+X+X+X+X&X%X{.}.v # 3 { # e W z.z.x.z.z.z.z.W 9     yXyXyXyX: +XH :.-X*X X_._.r.  yXyXyXyXyXyXyX",
"yXyX  v.+X:X:X-X].| p F x x g F x x F x x M f 7.m.=.5 u E l.z.x.x.s.R W W 8 o yXyXyXyXyXyX: /.f * )  X_._.;.y yXyXyXyXyXyXyXyX",
"yX0 X.$X-X-X*X.X%X{   yXyX      yXyXyX        H | K w E l.x.z.z.s.R C 9 8 . yXyXyXyXyXyXyX& K : q =._._.=.g yXyXyXyXyXyXyXyXyX",
"yX0 =X-X-X-X.X'.r._ i yXyXyXyXyXyXyXyX    = = $ % 8 W l.z.z.z.z.Q U S $ $   yXyXyXyXyXyXyXyX    m e.q.q.y yXyXyXyXyXyXyXyXyXyX",
"yX0 &X-X-X.X).Z.y v.n.  yXyXyXyXyX  + + 9 Z A I U W z.z.z.z.z.z.z.d.A A Z - yXyXyXyXyXyXyXyXyXyXyX      yXyXyXyXyXyXyXyXyXyXyX",
"yX0 &X-X.X_.Z.2 n.XXq.    yXyXyX    e C Z A A s.l.l.z.z.x.z.x.z.z.z.s.A A Z 9   yXyXyXyXyXyXyXyXyXyXyXyXyXyXyXyXyXyXyXyXyXyXyX",
"yX0 &XXX_.'.Z.@ Z.;.4             e Z I C = Z f.x.x.z.x.x.z.z.z.z.x.f.Z A U C w   yXyXyXyXyXyXyXyXyXyXyXyXyXyXyXyXyXyXyXyXyXyX",
"yX0 | A.'.a.m . j ^ i   M X     + Z A I C 8 w T g.x.z.z.z.z.x.z.z.z.f.A A A U C 8 + yXyXyXyXyXyXyXyXyXyXyXyXyXyXyXyXyXyXyXyXyX",
"yXyX  *.e.{     s / ' g <.d 5 f y u Z Z I Z + 9 E x.x.z.x.z.z.z.z.j.d.A A A A U C = yXyXyXyXyXyXyXyXyXyXyXyXyXyXyXyXyXyXyXyXyX",
"yXyXyX        9 W. .j ).).t.r._.A.4 u Z A Z .   N l.l.l.l.l.l.z.x.d.U A A A A A U I - yXyXyXyXyXyXyXyXyXyXyXyXyXyXyXyXyXyXyXyX",
"yXyXyXyXyXyX9 ,XY _ /.).).).).)./.%.1 w A Z .   8 T T T T T W z.z.z.s.A A A A A A A $ yXyXyXyXyXyXyXyXyXyXyXyXyXyXyXyXyXyXyXyX",
"yXyXyXyXyXyXyXP O l a.).).).).).S.=.1 8 C - yX  8 U I Z Q g.g.z.z.x.s.A A s.B % $ - . yXyXyXyXyXyXyXyXyXyXyXyXyXyXyXyXyXyXyXyX",
"yXyXyXyXyXyXyXyXyX5 j %.).'.'._.).=.1 $ 9 yXyXyX- e d.d.l.c.x.x.x.f.W U d.D p j K .   yXyXyXyXyXyXyXyXyXyXyXyXyXyXyXyXyXyXyXyX",
"yXyXyXyXyXyXyXyXyXyX  @ =.w.q.q.<.L 6     yXyXyXyX7 z.x.j.f.f.f.g.d.R E E p _ t.;.. yXyXyXyXyXyXyXyXyXyXyXyXyXyXyXyXyXyXyXyXyX",
"yXyXyXyXyXyXyXyXyXyXyXyX              yXyXyXyXyXyX7 j.l.Q I T T T d.k.h.+ ;.A.=.O O   yXyXyXyXyXyXyXyX    + @ yXyXyXyXyXyXyXyX",
"yXyXyXyXyXyXyXyXyXyXyXyXyXyXyXyXyXyXyXyXyXyXyXyXyXO I T s.l.l.z.z.N o %   @ & r ` 8.2 yXyXyXyXyXyXyX      c ..  yXyXyXyXyXyXyX",
"yXyXyXyXyXyXyXyXyXyXyXyXyXyXyXyXyXyXyXyXyXyXyXyXyX7 g.g.B 7 7 7 7 p ~ ~ o.} } X.b.I.r yXyXyXyXyXyX; c O   ; a [ : yXyXyXyXyXyX",
"yXyXyXyXyXyXyXyXyXyXyXyXyXyXyXyXyXyXyXyXyXyXyXyX  % V B u z ~ ~  .L.J...8.~.<X~.I.I.2 yXyXyXyXyX2 c ' .     2 b.; yXyXyXyXyXyX",
"yXyXyXyXyXyXyXyXyXyXyXyXyXyXyXyXyXyXyXyXyXyXyX: , r P P  .R.Q.Q.6X0X,X..} ^.,X^.b.I.0   yXyXr r G [ ' 2 .   : ..! s yXyXyXyXyX",
"yXyXyXyXyXyXyXyXyXyXyXyXyXyXyXyXyXyXyXyXyXO ; ( o.H.8X8X8X8X8X8X8X7X<Xb...} } ] [ 8.2     # 9.I.5.` [ [ 2     O <X' * yXyXyXyX",
"yXyXyXyXyXyXyXyXyXyXyXyXyXyXyXyXyXyXyXyX, ` ,XtX6X6X8X8X8X8X8X8X8X!.U.I.J.P.5.` ' ; .     O ' [ [ ] ] ] 2       = W.L.  yXyXyX",
"yXyXyXyXyXyXyXyXyXyXyXyXyXyXyXyXyXyX  i 4.J.6X9X9X8X8X8X8X9X6XQ.Q.R.U.U.U.5.c , 2 c ~ 2 2 } [ [ ] ..0.[ ( r       t O.K.  yXyX",
"yXyXyXyXyXyXyXyXyXyXyXyXyXyXyXyXyXyXz X.Y.Y.~.oX!.!.!.#X#X#X~.U.9.5.8.5.^ i @ O i ] } r r I.} [ ] 4.P.} [ z > H.H.O.~.wX8.w yX",
"yXyXyXyXyXyXyXyXyXyXyXyXyXyXyXyXyXr 4.Y.U.I.U.I.I.I.P.X.} ......^ v G z   ; , i [ [ [ c a 9.[ [ [ 5.P.5.} i t #XeXeXeXeXeXs yX",
"yXyXyXyXyXyXyXyXyXyXyXyXyXyXyXyX, 0.I.b.b.I.b.I.I.P.b.2                   G ` ] [ ] ] ] ] ] [ ] 5.I.U.I.| y   ; <XqXqXqX1Xt yX",
"yXyXyXyXyXyXyXyXyXyXyXyXyXyXyXr 0.I.5.} } } } [ } } [ ' 2     yXyXyXyX      c [ ] ] ] ] ] ] ] ` 5.U.I.I.i       ; ; > > > yXyX",
"yXyXyXyXyXyXyXyXyXyXyXyXyX  c X.4...} ] ] ] ] ] ] ( , 2 ; yXyXyXyXyXyXyXyX  O i [ [ [ ] ] [ 0.b.I.5.r r O   yXyXyXyXyXyXyXyXyX",
"yXyXyXyXyXyXyXyXyXyXyXyXyX  z 5.] ] ] ] ] ] ] ] ] ) y + yXyXyXyXyXyXyXyXyXyXyX: i y ) [ [ ] ^ ~ ~ c       yXyXyXyXyXyXyXyXyXyX",
"yXyXyXyXyXyXyXyXyXyXyXyXyXr ^ X.] ] ] ] ] [ 4.4.} ' ~ @ yXyXyXyXyXyXyXyXyXyXyXyX    z ~ ~ c .       yXyXyXyXyXyXyXyXyXyXyXyXyX",
"yXyXyXyXyXyXyXyXyXyXyXyX  ` b.8.} } [ [ ] } 0.I.8.^   yXyXyXyXyXyXyXyXyXyXyXyXyXyXyX        yXyXyXyXyXyXyXyXyXyXyXyXyXyXyXyXyX",
"yXyXyXyXyXyXyXyXyXyX      O O i P.P.4.` ..P...[ [ ^   yXyXyXyXyXyXyXyXyXyXyXyXyXyXyXyXyXyXyXyXyXyXyXyXyXyXyXyXyXyXyXyXyXyXyXyX",
"yXyXyXyXyXyXyXyXyX  a !.!.!./   t r ..b.P.I.} ] [ ^ . yXyXyXyXyXyXyXyXyXyXyXyXyXyXyXyXyXyXyXyXyXyXyXyXyXyXyXyXyXyXyXyXyXyXyXyX",
"yXyXyXyXyXyXyXyXyX  ! eXeXeXH.      i ^ ^ ^ 4.8.8.]   yXyXyXyXyXyXyXyXyXyXyXyXyXyXyXyXyXyXyXyXyXyXyXyXyXyXyXyXyXyXyXyXyXyXyXyX",
"yXyXyXyXyXyXyXyXyXyX! !.~.rXL.r r           ' o.o.)   yXyXyXyXyXyXyXyXyXyXyXyXyXyXyXyXyXyXyXyXyXyXyXyXyXyXyXyXyXyXyXyXyXyXyXyX",
"yXyXyXyXyXyXyXyXyXyXyX    ~.~.0.5., @ @ O O +         yXyXyXyXyXyXyXyXyXyXyXyXyXyXyXyXyXyXyXyXyXyXyXyXyXyXyXyXyXyXyXyXyXyXyXyX",
"yXyXyXyXyXyXyXyXyXyXyXyXyX> ; @ , 5.0.0.0.5.@     yXyXyXyXyXyXyXyXyXyXyXyXyXyXyXyXyXyXyXyXyXyXyXyXyXyXyXyXyXyXyXyXyXyXyXyXyXyX",
"yXyXyXyXyXyXyXyXyXyXyXyXyXyXyXyXyXr r r r r +     yXyXyXyXyXyXyXyXyXyXyXyXyXyXyXyXyXyXyXyXyXyXyXyXyXyXyXyXyXyXyXyXyXyXyXyXyXyX",
"yXyXyXyXyXyXyXyXyXyXyXyXyXyXyXyXyXyX            yXyXyXyXyXyXyXyXyXyXyXyXyXyXyXyXyXyXyXyXyXyXyXyXyXyXyXyXyXyXyXyXyXyXyXyXyXyXyX",
"yXyXyXyXyXyXyXyXyXyXyXyXyXyXyXyXyXyXyXyXyXyXyXyXyXyXyXyXyXyXyXyXyXyXyXyXyXyXyXyXyXyXyXyXyXyXyXyXyXyXyXyXyXyXyXyXyXyXyXyXyXyXyX",
"yXyXyXyXyXyXyXyXyXyXyXyXyXyXyXyXyXyXyXyXyXyXyXyXyXyXyXyXyXyXyXyXyXyXyXyXyXyXyXyXyXyXyXyXyXyXyXyXyXyXyXyXyXyXyXyXyXyXyXyXyXyXyX",
"yXyXyXyXyXyXyXyXyXyXyXyXyXyXyXyXyXyXyXyXyXyXyXyXyXyXyXyXyXyXyXyXyXyXyXyXyXyXyXyXyXyXyXyXyXyXyXyXyXyXyXyXyXyXyXyXyXyXyXyXyXyXyX",
"yXyXyXyXyXyXyXyXyXyXyXyXyXyXyXyXyXyXyXyXyXyXyXyXyXyXyXyXyXyXyXyXyXyXyXyXyXyXyXyXyXyXyXyXyXyXyXyXyXyXyXyXyXyXyXyXyXyXyXyXyXyXyX",
"yXyXyXyXyXyXyXyXyXyXyXyXyXyXyXyXyXyXyXyXyXyXyXyXyXyXyXyXyXyXyXyXyXyXyXyXyXyXyXyXyXyXyXyXyXyXyXyXyXyXyXyXyXyXyXyXyXyXyXyXyXyXyX",
"yXyXyXyXyXyXyXyXyXyXyXyXyXyXyXyXyXyXyXyXyXyXyXyXyXyXyXyXyXyXyXyXyXyXyXyXyXyXyXyXyXyXyXyXyXyXyXyXyXyXyXyXyXyXyXyXyXyXyXyXyXyXyX",
"yXyXyXyXyXyXyXyXyXyXyXyXyXyXyXyXyXyXyXyXyXyXyXyXyXyXyXyXyXyXyXyXyXyXyXyXyXyXyXyXyXyXyXyXyXyXyXyXyXyXyXyXyXyXyXyXyXyXyXyXyXyXyX"
};
