/* XPM */
static char *result[] = {
/* columns rows colors chars-per-pixel */
"63 75 219 2 ",
"   c #010101",
".  c #090605",
"X  c #0B0807",
"o  c #060D09",
"O  c #0C0B0A",
"+  c #040907",
"@  c #130D0C",
"#  c #1A0E0C",
"$  c #0A140E",
"%  c #1B110E",
"&  c #12100F",
"*  c #0C1A12",
"=  c #151211",
"-  c #1A1513",
";  c #1B1B1B",
":  c #1C1A16",
">  c #251611",
",  c #2C1B15",
"<  c #251C19",
"1  c #331E19",
"2  c #301C16",
"3  c #112017",
"4  c #13251A",
"5  c #0D2117",
"6  c #29251D",
"7  c #38231C",
"8  c #1D3727",
"9  c #123521",
"0  c #2D2621",
"q  c #2C2D2D",
"w  c #252723",
"e  c #352926",
"r  c #203E2C",
"t  c #3D342D",
"y  c #32372B",
"u  c #3A3534",
"i  c #472B1E",
"p  c #4B2D23",
"a  c #442922",
"s  c #53332C",
"d  c #573427",
"f  c #4A3E3A",
"g  c #423733",
"h  c #553931",
"j  c #5A3A33",
"k  c #573731",
"l  c #46342B",
"z  c #633B31",
"x  c #633C2C",
"c  c #1A4D30",
"v  c #254632",
"b  c #294B36",
"n  c #274B36",
"m  c #2E553D",
"M  c #2E583F",
"N  c #274834",
"B  c #4D413D",
"V  c #4B433A",
"C  c #55443D",
"Z  c #6B4339",
"A  c #734539",
"S  c #7B4A3D",
"D  c #734537",
"F  c #2F5B40",
"G  c #305A40",
"H  c #2F6545",
"J  c #2F6B47",
"K  c #306947",
"L  c #30774D",
"P  c #2D764B",
"I  c #4B4847",
"U  c #5B4B46",
"Y  c #5D4E49",
"T  c #524440",
"R  c #5F5146",
"E  c #545B5C",
"W  c #664E44",
"Q  c #65534E",
"!  c #685847",
"~  c #6D5A55",
"^  c #665A57",
"/  c #715D57",
"(  c #735E58",
")  c #7C5249",
"_  c #70614E",
"`  c #75615C",
"'  c #796759",
"]  c #666463",
"[  c #7B6660",
"{  c #7B6A66",
"}  c #777574",
"|  c #814C3B",
" . c #86523B",
".. c #834E41",
"X. c #88574B",
"o. c #915646",
"O. c #945849",
"+. c #965A45",
"@. c #8C5B51",
"#. c #965E52",
"$. c #996357",
"%. c #816F5A",
"&. c #A8664B",
"*. c #B16C4E",
"=. c #A96957",
"-. c #B26C55",
";. c #BC7154",
":. c #B77359",
">. c #836E67",
",. c #89746E",
"<. c #897567",
"1. c #8E7871",
"2. c #947C76",
"3. c #917C76",
"4. c #997F67",
"5. c #B27364",
"6. c #BB796A",
"7. c #AC7565",
"8. c #A05F4C",
"9. c #CC7C5A",
"0. c #C37657",
"q. c #D07F5C",
"w. c #C17C6D",
"e. c #C57F71",
"r. c #318C56",
"t. c #308453",
"y. c #309359",
"u. c #319D5D",
"i. c #309057",
"p. c #2E8B55",
"a. c #31A25F",
"s. c #31A561",
"d. c #31AE64",
"f. c #31B166",
"g. c #32B568",
"h. c #99846B",
"j. c #9A827B",
"k. c #B28E77",
"l. c #D7835F",
"z. c #D8845F",
"x. c #DA8561",
"c. c #D88764",
"v. c #DE906E",
"b. c #C98B77",
"n. c #D58978",
"m. c #C8947C",
"M. c #DE9474",
"N. c #DF997A",
"B. c #C2836D",
"V. c #E19878",
"C. c #E0916E",
"Z. c #8B8989",
"A. c #978884",
"S. c #999999",
"D. c #A58C85",
"F. c #A98F88",
"G. c #AA928C",
"H. c #AA9A95",
"J. c #BAA182",
"K. c #B0A19C",
"L. c #ABA8A7",
"P. c #B5ABA7",
"I. c #B8B9B9",
"U. c #A6B9BD",
"Y. c #CB9D86",
"T. c #DA9381",
"R. c #E49483",
"E. c #E99886",
"W. c #EC9B89",
"Q. c #EA9786",
"!. c #F49E8C",
"~. c #CBAA8B",
"^. c #D2B592",
"/. c #DABC98",
"(. c #D7A791",
"). c #E6A68B",
"_. c #EBAC91",
"`. c #EBB49A",
"'. c #F4BC9D",
"]. c #F5B499",
"[. c #F2A992",
"{. c #D8B4A6",
"}. c #EDBBA3",
"|. c #BFC0BF",
" X c #E9C39F",
".X c #C0C0BF",
"XX c #EBCBA4",
"oX c #EAC5A3",
"OX c #FBCDA9",
"+X c #F7C7A5",
"@X c #F5D3AB",
"#X c #FBD4AD",
"$X c #FCD8AF",
"%X c #F3CBB6",
"&X c #FFDDB2",
"*X c #F4D1BF",
"=X c #FFE2B7",
"-X c #FFE4B9",
";X c #B6C8CC",
":X c #C5CACA",
">X c #C9D8DB",
",X c #D4D4D4",
"<X c #DBDCDC",
"1X c #D2CBC9",
"2X c #F8D9C7",
"3X c #E6D0C3",
"4X c #FCE2D3",
"5X c #FEE8DA",
"6X c #D2E8EC",
"7X c #D5EDF3",
"8X c #D6F1F6",
"9X c #D8F3F8",
"0X c #CFE1E4",
"qX c #EEEDED",
"wX c #F5F5F5",
"eX c #FFFFFF",
"rX c #FBF7F6",
"tX c #CDDFE2",
"yX c None",
/* pixels */
"yXyXyXyXyXyXyXyXyXyXyXyXyXyXyXyXyXyXyXyXyXyXyXyXyXyXyXyXyXyXyXyXyXyXyXyXyXyXyXyXyXyXyXyXyXyXyXyXyXyXyXyXyXyXyXyXyXyXyXyXyXyXyX",
"yXyXyXyXyXyXyXyXyXyXyXyXyXyXyXyX= % > > > > > > > > % yXyXyXyXyXyXyXyXyXyXyXyXyXyXyXyXyXyXyXyXyXyXyXyXyXyXyXyXyXyXyXyXyXyXyXyX",
"yXyXyXyXyXyXyXyXyXyXyXyX.   . , o.o.;.l.l.9.9.l.l.;.o.% . . . yXyXyXyXyXyXyXyXyXyXyXyXyXyXyXyXyXyXyXyXyXyXyXyXyXyXyXyXyXyXyXyX",
"yXyXyXyXyXyXyXyXyXyX  X Z &.*.;.9.0.l.l.l.l.l.l.l.l.9.*.*.*.+..   yXyXyXyXyXyXyXyXyXyXyXyXyXyXyXyXyXyXyXyXyXyXyXyXyXyXyXyXyXyX",
"yXyXyXyXyXyXyXyXyXd  . .;.q.z.z.l.l.l.l.l.l.l.l.l.l.l.x.l.x.9. .| i     yXyXyXyXyXyXyXyXyXyXyXyXyXyXyXyXyXyXyXyXyXyXyXyXyXyXyX",
"yXyXyXyXyXyXyXyXi 8.x.x.z.z.z.z.l.l.l.l.l.l.l.l.l.l.l.x.l.l.z.x.z. .p p yXyXyXyXyXyXyXyXyXyXyXyXyXyXyXyXyXyXyXyXyXyXyXyXyXyXyX",
"yXyXyXyXyXyXyXq *.x.z.l.l.l.z.z.x.l.l.l.l.l.l.l.l.l.l.l.l.l.l.l.z.z.l.;.2 yXyXyXyXyXyXyXyXyXyXyXyXyXyXyXyXyXyXyXyXyXyXyXyXyXyX",
"yXyXyXyXyXyX0 3XN.l.l.l.l.z.z.z.l.l.l.l.l.l.l.l.l.l.l.l.l.l.l.l.z.x.x.l.9., yXyXyXyXyXyXyXyXyXyXyXyXyXyXyXyXyXyXyXyXyXyXyXyXyX",
"yXyXyXyXyXi :.4XV.l.l.l.l.l.l.l.l.l.l.l.l.l.l.l.x.q.q.x.q.x.x.x.l.}.(.=.q., yXyXyXyXyXyXyXyXyXyXyXyXyXyXyXyXyXyXyXyXyXyXyXyXyX",
"yXyXyXyX  i V.4XN.l.l.l.l.l.l.l.l.l.x.l.l.l.l.l.q.x.x.x.x.x.q.q.l.+XoX-.-.o.i yXyXyXyXyXyXyXyXyXyXyXyXyXyXyXyXyXyXyXyXyXyXyXyX",
"yXyXyXyX  i M.4X`.M.l.l.l.l.l.l.l.l.l.l.l.l.l.l.x.x.q.q.q.x.q.q.E.*X%X0.z *.d   yXyXyXyXyXyXyXyXyXyXyXyXyXyXyXyXyXyXyXyXyXyXyX",
"yXyXyXyX  i v.*X5X}.M.M.N.c.l.l.l.l.l.x.l.l.l.c.x.q.q.9.C.V.M.V.2X4X}.&.X A 7   yXyXyXyXyXyXyXyXyXyXyXyXyXyXyXyXyXyXyXyXyXyXyX",
"yXyXyXyX  i x.c.%X4X4X4X4XN.c.c.x.x.l.l.l.l.x.c.x.x.x.8.{.4X4X4X4X_.0.| . A i   yXyXyXyXyXyXyXyXyXyXyXyXyXyXyXyXyXyXyXyXyXyXyX",
"yXyXyXyX  i z.x.5.B.`.5X5X6.Y.2X2X2XN.;.=.x.l.}.2X2X2X=.{.%XM.V.V.:.+.) . # @ yXyXyXyXyXyXyXyXyXyXyXyXyXyXyXyXyXyXyXyXyXyXyXyX",
"yXyXyXyX  p l.d &.9.C.).).-.k.[.)._.v.;. .d 9.V.[.).k.8.7.k.8.p p 7 k  .    yXyXyXyXyXyXyXyXyXyXyXyXyXyXyXyXyXyXyXyXyXyXyXyXyX",
"yXyXyXyX  > D . &.&.+.;.0.D D  .0.l.0.o.a . D | | ..O.O.+.S k h j h k p . yXyXyXyXyXyXyXyXyXyXyXyXyXyXyXyXyXyXyXyXyXyXyXyXyXyX",
"yXyXyXyXyX      &.x > A S %   - | 0.&.p     w q ; = o.O...s a n.e.T.$.    yXyXyXyXyXyXyXyXyXyXyXyXyXyXyXyXyXyXyXyXyXyXyXyXyXyX",
"yXyXyXyXyXyXyX. &.x   . @       # ..O.p   = ,XeXZ.> o.o.1 j n.o.> #.$.    yXyXyXyXyXyXyXyXyXyXyXyXyXyXyXyXyXyXyXyXyXyXyXyXyXyX",
"yXyXyXyXyXyXyX  S p   ; I.u   > z > # X   = <XeXqXL.> ..1 j e., $.R.$.    yXyXyXyXyXyXyXyXyXyXyXyXyXyXyXyXyXyXyXyXyXyXyXyXyXyX",
"yXyXyXyXyXyXyX  , #   - qXI.I 0 w.z #     O <XeXeX,X  , X W Y.X Y.].#.    yXyXyXyXyXyXyXyXyXyXyXyXyXyXyXyXyXyXyXyXyXyXyXyXyXyX",
"yXyXyXyXyXyXyX      ; } wXrXj.e `.b.6 q ] } qXeX,XZ.s e . ! XX~ oXm.Z 2   yXyXyXyXyXyXyXyXyXyXyXyXyXyXyXyXyXyXyXyXyXyXyXyXyXyX",
"yXyXyXyXyXyXyXyXyX  I ,X,X,X} C  X$X! } <X,X,X,XZ.h T.-.i !  X/.^.V 2 ... yXyXyXyXyXyXyXyXyXyXyXyXyXyXyXyXyXyXyXyXyXyXyXyXyXyX",
"yXyXyXyXyXyXyXyXyX  . = $ $ ) b.=.@X&X<.$ & & O _ OXE.E.-.O.S O O   1 S X yXyXyXyXyXyXyXyXyXyXyXyXyXyXyXyXyXyXyXyXyXyXyXyXyXyX",
"yXyXyXyXyXyXyXyXyX  t ^.^.^. X+X X&X&XoX^.^.^.^. X&X#XOX_.@.@   z 2 . % yXyXyXyXyXyXyXyXyXyXyXyXyXyXyXyXyXyXyXyXyXyXyXyXyXyXyX",
"yXyXyXyXyXyXyXyXyX  V -X=X=X&X=X=X=X=X=X-X-X-X&X&X&X&X+X$.7     2 #       yXyXyXyXyXyXyXyXyXyXyXyXyXyXyXyXyXyXyXyXyXyXyXyXyXyX",
"yXyXyXyXyXyXyXyXyXyXt k.$X=X$X&X@Xk.h.h.k.&X&X&X&X&X+X$.2       * 3 4 * * o yXyXyXyXyXyXyXyXyXyXyXyXyXyXyXyXyXyXyXyXyXyXyXyXyX",
"yXyXyXyXyXyXyXyXyXyXyX- J.$X=X=XXXt 6 6 W &X&X#X X~.5.2       $ M J J H H 9 $ o yXyXyXyXyXyXyXyXyXyXyXyXyXyXyXyXyXyXyXyXyXyXyX",
"yXyXyXyXyXyXyXyXyXyXyXyXo m.#X@X@XXXXX XXX@X@X_.X.O % S 7   $ m u.d.d.d.s.d.L r     yXyXyXyXyXyXyXyXyXyXyXyXyXyXyXyXyXyXyXyXyX",
"yXyXyXyXyXyXyXyXyXyXyXyXyX6 0 0 6 6 0 0 0 0 6 6 Z w.6.$.2 * b M u.f.d.d.f.d.s.t.v v $ yXyXyXyXyXyXyXyXyXyXyXyXyXyXyXyXyXyXyXyX",
"yXyXyXyXyXyXyXyXyXyXyXyXyXyXyXyXyXyXyXyXyXyX    Z !.R.s w v H r.d.f.f.d.f.f.f.s.r.M v 3 yXyXyXyXyXyXyXyXyXyXyXyXyXyXyXyXyXyXyX",
"yXyXyXyXyXyXyXyXyXyXyXyXyXyXyXyXyXyXyXyXyXyX4 o e #.X.w v M J d.y.a.d.d.f.d.f.f.a.H 8 *   yXyXyXyXyXyXyXyXyXyXyXyXyXyXyXyXyXyX",
"yXyXyXyXyXyXyXyXyXyXyXyXyXyXyXyXyXyXyXyXyXo b 4 o o $ b M M L s.H t.d.d.d.d.d.d.u.n q 7 0 6 yXyXyXyXyXyXyXyXyXyXyXyXyXyXyXyXyX",
"yXyXyXyXyXyXyXyXyXyXyXyXyXyXyXyXyXyXyXyXyX+ b G m m m G G L d.d.J m L d.f.f.d.i.b = J.$X#X/.< yXyXyXyXyXyXyXyXyXyXyXyXyXyXyXyX",
"yXyXyXyXyXyXyXyXyXyXyXyXyXyXyXyXyXyXyXyXyX  b F G m G m r.s.d.d.a.P M J d.f.r.c ; 5.oX&X&X&X^.t yXyXyXyXyXyXyXyXyXyXyXyXyXyXyX",
"yXyXyXyXyXyXyXyXyXyXyXyXyXyXyXyXyXyXyXyXyX+ b F m F i.i.s.d.d.d.f.L F m c J v 6 A R.[.[.'.&X&XJ.R yXyXyXyXyXyXyXyXyXyXyXyXyXyX",
"yXyXyXyXyXyXyXyXyXyXyXyXyXyXyXyXyXyXyXyXyX+ b G G H i.d.f.d.f.d.y.J F m * 8 $ # z @.6.n._.&X&X-X%.  yXyXyXyXyXyXyXyXyXyXyXyXyX",
"yXyXyXyXyXyXyXyXyXyXyXyXyXyXyXyXyXyXyXyXyXo b G m n G a.f.d.d.a.H M M m v o   $ ;   ) b.].&X&X=X%.  yXyXyXyXyXyXyXyXyXyXyXyXyX",
"yXyXyXyXyXyXyXyXyXyXyXyXyXyXyXyXyXyXyXyXyX  b G 8 $ m u.d.d.u.G M M M n O .   I ;X; =.`.&X&X&X$X'   yXyXyXyXyXyXyXyXyXyXyXyXyX",
"yXyXyXyXyXyXyXyXyXyXyXyXyXyXyXyXyXyXyXyXyXyXo v F 8 $ M u.i.H G M G r < 6.~.Y.@.b U.V h.=X&X=X! < yXyXyXyXyXyXyXyXyXyXyXyXyXyX",
"yXyXyXyXyXyXyXyXyXyXyXyXyXyXyXyXyXyXyXyXyXyXyX* 4 *   N J J m m M G 8 . h T.+XY.) E ^ W <.@X_ =   yXyXyXyXyXyXyXyXyXyXyXyXyXyX",
"yXyXyXyXyXyXyXyXyXyXyXyXyXyXyXyXyXyXyXyXyXyXyX        N J L L F M v y j j m.OX#X).j Q T U <..   yXyXyXyXyXyXyXyXyXyXyXyXyXyXyX",
"yXyXyXyXyXyXyXyXyXyXyXyXyXyXyXyXyXyXyXyXyX    @ # @ . N r.s.i.F G * s W.E.%X&X&X#X[.p T Q     yXyXyXyXyXyXyXyXyXyXyXyXyXyXyXyX",
"yXyXyXyXyXyXyXyXyXyXyXyXyXyXyXyXyXyX. . . .   z +.A . v F F F G H 5 s E.E.OX&X&X&X$X7.a     yXyXyXyXyXyXyXyXyXyXyXyXyXyXyXyXyX",
"yXyXyXyXyXyXyXyXyXyXyXyXyXyXyXyXyX  @.w.6.7.@ #.w.A   o r G H u.s.9 s E.W.W.'.&X&X&X).Z     yXyXyXyXyXyXyXyXyXyXyXyXyXyXyXyXyX",
"yXyXyXyXyXyXyXyXyXyXyXyXyXyXyXyXyX  k.OX'.T.z z ) A     m i.u.f.g.c s W.R.R.'.&X&X&Xm.s   yXyXyXyXyXyXyXyXyXyXyXyXyXyXyXyXyXyX",
"yXyXyXyXyXyXyXyXyXyXyXyXyXyXyXyXyX  k.-XOXR.=., > p     c i.i.r.p.c g $.R.Q.].OX&X'.X.>   yXyXyXyXyXyXyXyXyXyXyXyXyXyXyXyXyXyX",
"yXyXyXyXyXyXyXyXyXyXyXyXyXyXyXyXyX  h.+X+XR.#.a X       c M m v v N 9 = 5.w.w.b.~.6.1     yXyXyXyXyXyXyXyXyXyXyXyXyXyXyXyXyXyX",
"yXyXyXyXyXyXyXyXyXyXyXyXyXyXyXyXyXyX  ' OXR.8.O.p       8 M v O   . . . O O X X O .   yXyXyXyXyXyXyXyXyXyXyXyXyXyXyXyXyXyXyXyX",
"yXyXyXyXyXyXyXyXyXyXyXyXyXyXyXyXyXyX  W !.Q.n.-.s       o o ; U U U ~ >.Y Y W g     yXyXyXyXyXyXyXyXyXyXyXyXyXyXyXyXyXyXyXyXyX",
"yXyXyXyXyXyXyXyXyXyXyXyXyXyXyXyXyXyXyXe ) Q.W.5.d         = T ,.2.' Z.|.2.` ( f     yXyXyXyXyXyXyXyXyXyXyXyXyXyXyXyXyXyXyXyXyX",
"yXyXyXyXyXyXyXyXyXyXyXyXyXyXyXyXyXyXyXyX, @.@.Z 2         e j.P.G.1.Z.I.I.3.[ f     yXyXyXyXyXyXyXyXyXyXyXyXyXyXyXyXyXyXyXyXyX",
"yXyXyXyXyXyXyXyXyXyXyXyXyXyXyXyXyXyXyXyXyX              + B K.6XP.K.D.Z.;XG.>.f     yXyXyXyXyXyXyXyXyXyXyXyXyXyXyXyXyXyXyXyXyX",
"yXyXyXyXyXyXyXyXyXyXyXyXyXyXyXyXyXyXyXyXyXyXyXyXyXyXyX  g ,.K.7X6X6X7X>X>.( ( f       yXyXyXyXyXyXyXyXyXyXyXyXyXyXyXyXyXyXyXyX",
"yXyXyXyXyXyXyXyXyXyXyXyXyXyXyXyXyXyXyXyXyXyXyXyXyXyXyX  Y P.0X7X7X7X7XtXA.[ t O             yXyXyXyXyXyXyXyXyXyXyXyXyXyXyXyXyX",
"yXyXyXyXyXyXyXyXyXyXyXyXyXyXyXyXyXyXyXyXyXyXyXyXyXyX. t S.>X8X7X7X9X>XL.,.` 0                 yXyXyXyXyXyXyXyXyXyXyXyXyXyXyXyX",
"yXyXyXyXyXyXyXyXyXyXyXyXyXyXyXyXyXyXyXyXyXyXyXyXyXyX. Y I.8X8X7X7X9X:X2.( ( e                   yXyXyXyXyXyXyXyXyXyXyXyXyXyXyX",
"yXyXyXyXyXyXyXyXyXyXyXyXyXyXyXyXyXyXyXyXyXyXyXyXyXyX. Q I.8X7X7X7X6X.XD.( Q e O   @ .       & @ = O   yXyXyXyXyXyXyXyXyXyXyXyX",
"yXyXyXyXyXyXyXyXyXyXyXyXyXyXyXyXyXyXyXyXyXyXyXyXyXyX. ,.:X8X8X7X6XI.F.2./ % g f @ Q -     O Q ~ ~ T .   yXyXyXyXyXyXyXyXyXyXyX",
"yXyXyXyXyXyXyXyXyXyXyXyXyXyXyXyXyXyXyXyXyXyXyXyXyXyXO ,.>X7X7X7XP.G.2.( / @ u ~ Y ~ - f Q O Q ( ( ~ Y U < yXyXyXyXyXyXyXyXyXyX",
"yXyXyXyXyXyXyXyXyXyXyXyXyXyXyXyXyXyXyXyXyXyXyXyXyXyX. 1.P.;X6XP.G.2.>.Q 0 u W ( ( ( = Y [ O Q ( / / / ( <   yXyXyXyXyXyXyXyXyX",
"yXyXyXyXyXyXyXyXyXyXyXyXyXyXyXyXyXyXyXyXyXyXyXyXyXyX. Y >.H.|.D.D.>./ Q 0 Q ( / ( ( = ] A.O Q / ~ ( >.( <     yXyXyXyXyXyXyXyX",
"yXyXyXyXyXyXyXyXyXyXyXyXyXyXyXyXyXyXyXyXyXyXyXyXyXyXyX  u / ,.,.2.>./ / ( / ` [ ( Y @ Z.I.O Q ( ( ,.D.Q - O =   yXyXyXyXyXyXyX",
"yXyXyXyXyXyXyXyXyXyXyXyXyXyXyXyXyXyXyXyXyXyXyXyXyXyXyXyX.   . X Q ~ ~ ~ ( ( 1.D.1.@   Z.I.O Q ( ,.D.2.-   f { . yXyXyXyXyXyXyX",
"yXyXyXyXyXyXyXyXyXyXyXyXyXyXyXyXyXyXyXyXyXyXyXyXyXyXyXyXyXyXyX  @ = & < ~ 2.D.2.~ O   Z.I.O Q ( ,.F.2.=   B >.  yXyXyXyXyXyXyX",
"yXyXyXyXyXyXyXyXyXyXyXyXyXyXyXyXyXyXyXyXyXyXyXyXyXyXyXyXyXyXyXyXyXyX    0 3.G.>.:     ] Z.X Q ,.j.D.[ O   B >.  yXyXyXyXyXyXyX",
"yXyXyXyXyXyXyXyXyXyXyXyXyXyXyXyXyXyXyXyXyXyXyXyXyXyXyXyXyXyXyXyXyXyXyX    T ^ ^ ] ] ] ^ f O Q 2.F.1.g .   B >.. yXyXyXyXyXyXyX",
"yXyXyXyXyXyXyXyXyXyXyXyXyXyXyXyXyXyXyXyXyXyXyXyXyXyXyXyXyXyXyXyXyXyXyXyX      I qXeXrX}   O / j.D.(     = I / + yXyXyXyXyXyXyX",
"yXyXyXyXyXyXyXyXyXyXyXyXyXyXyXyXyXyXyXyXyXyXyXyXyXyXyXyXyXyXyXyXyXyXyXyXyX    e H.qXP.f   @ 2.D.,.C     ( Y   yXyXyXyXyXyXyXyX",
"yXyXyXyXyXyXyXyXyXyXyXyXyXyXyXyXyXyXyXyXyXyXyXyXyXyXyXyXyXyXyXyXyXyXyXyXyX    O < q < O   = 2.G.Y .     ` Y   yXyXyXyXyXyXyXyX",
"yXyXyXyXyXyXyXyXyXyXyXyXyXyXyXyXyXyXyXyXyXyXyXyXyXyXyXyXyXyXyXyXyXyXyXyXyXyXyXyXyXyXyXyX  . u ` g w S.S.1X}   yXyXyXyXyXyXyXyX",
"yXyXyXyXyXyXyXyXyXyXyXyXyXyXyXyXyXyXyXyXyXyXyXyXyXyXyXyXyXyXyXyXyXyXyXyXyXyXyXyXyXyXyXyXyX    0 I Z.eXeX:X] yXyXyXyXyXyXyXyXyX",
"yXyXyXyXyXyXyXyXyXyXyXyXyXyXyXyXyXyXyXyXyXyXyXyXyXyXyXyXyXyXyXyXyXyXyXyXyXyXyXyXyXyXyXyXyXyX  ; S.eXeXeXI   yXyXyXyXyXyXyXyXyX",
"yXyXyXyXyXyXyXyXyXyXyXyXyXyXyXyXyXyXyXyXyXyXyXyXyXyXyXyXyXyXyXyXyXyXyXyXyXyXyXyXyXyXyXyXyXyX  L.wXwXwXwXI   yXyXyXyXyXyXyXyXyX",
"yXyXyXyXyXyXyXyXyXyXyXyXyXyXyXyXyXyXyXyXyXyXyXyXyXyXyXyXyXyXyXyXyXyXyXyXyXyXyXyXyXyXyXyXyXyX  w q q q q yXyXyXyXyXyXyXyXyXyXyX",
"yXyXyXyXyXyXyXyXyXyXyXyXyXyXyXyXyXyXyXyXyXyXyXyXyXyXyXyXyXyXyXyXyXyXyXyXyXyXyXyXyXyXyXyXyXyXyXyXyXyXyXyXyXyXyXyXyXyXyXyXyXyXyX"
};
