/* XPM */
static char *_a0c50c82fe1440ce29b4e460e7a072ejeav5bF3rZSoT8bZ[] = {
/* columns rows colors chars-per-pixel */
"39 66 256 2 ",
"   c None",
".  c #010101",
"X  c #0A0606",
"o  c #0D0807",
"O  c #070C09",
"+  c #0C0A09",
"@  c #030906",
"#  c #130D0C",
"$  c #170D0B",
"%  c #08130D",
"&  c #13110E",
"*  c #1E120F",
"=  c #0D1913",
"-  c #141211",
";  c #1A1513",
":  c #1C1918",
">  c #1A1815",
",  c #241612",
"<  c #241A17",
"1  c #2B1A15",
"2  c #231D1C",
"3  c #2C1C19",
"4  c #321F1B",
"5  c #331E18",
"6  c #20130F",
"7  c #15281D",
"8  c #0F2F1C",
"9  c #2A221D",
"0  c #27211C",
"q  c #3B231B",
"w  c #36201A",
"e  c #162E21",
"r  c #133722",
"t  c #252525",
"y  c #2C2522",
"u  c #2B2928",
"i  c #3B2621",
"p  c #332A24",
"a  c #342B28",
"s  c #3C2B27",
"d  c #233929",
"f  c #3C312E",
"g  c #3B3127",
"h  c #3A3B3C",
"j  c #3A3331",
"k  c #263D30",
"l  c #42281E",
"z  c #4E2E25",
"x  c #432822",
"c  c #4B332B",
"v  c #503124",
"b  c #53322A",
"n  c #5C362B",
"m  c #4B3E3A",
"M  c #453835",
"N  c #5C3C35",
"B  c #503C36",
"V  c #653B2B",
"C  c #673D32",
"Z  c #1C4C2F",
"A  c #264A35",
"S  c #344030",
"D  c #2E543C",
"F  c #2F583F",
"G  c #255538",
"H  c #22422E",
"J  c #57483E",
"K  c #4F413D",
"L  c #6D4133",
"P  c #67433A",
"I  c #754638",
"U  c #72422E",
"Y  c #3E3F41",
"T  c #3D4243",
"R  c #2F5A40",
"E  c #315A41",
"W  c #2F6746",
"Q  c #306C48",
"!  c #306344",
"~  c #2A7A4A",
"^  c #30734B",
"/  c #424344",
"(  c #4B4C4D",
")  c #544541",
"_  c #5D4E49",
"`  c #5D5047",
"'  c #565656",
"]  c #6D4C42",
"[  c #64534E",
"{  c #6C5D4B",
"}  c #655746",
"|  c #695651",
" . c #6E5A55",
".. c #635955",
"X. c #715D57",
"o. c #735E58",
"O. c #7C5047",
"+. c #72614E",
"@. c #76615B",
"#. c #79645E",
"$. c #565E60",
"%. c #596466",
"&. c #686A6A",
"*. c #7E6963",
"=. c #7C6761",
"-. c gray48",
";. c #777372",
":. c #696F70",
">. c #85513B",
",. c #834F3D",
"<. c #844E41",
"1. c #8B5549",
"2. c #95594A",
"3. c #965948",
"4. c #9B5F52",
"5. c #9D665A",
"6. c #8B705B",
"7. c #AA6959",
"8. c #B56D53",
"9. c #BA6F54",
"0. c #BB7256",
"q. c #AD674C",
"w. c #846E68",
"e. c #816B65",
"r. c #8B746D",
"t. c #887268",
"y. c #947D66",
"u. c #8C7670",
"i. c #927A73",
"p. c #917E78",
"a. c #A56F61",
"s. c #AC7968",
"d. c #B87769",
"f. c #B16F60",
"g. c #C57758",
"h. c #D47F5C",
"j. c #C47A6A",
"k. c #2A8A51",
"l. c #308C56",
"z. c #308552",
"x. c #2A9657",
"c. c #299857",
"v. c #31955A",
"b. c #31985C",
"n. c #25874E",
"m. c #31A15F",
"M. c #31AE65",
"N. c #31B266",
"B. c #32B668",
"V. c #2EA660",
"C. c #9B856B",
"Z. c #9B856C",
"A. c #9C847E",
"S. c #998771",
"D. c #8F807B",
"F. c #A28C72",
"G. c #B28D73",
"H. c #D7835F",
"J. c #D8835E",
"K. c #C0826C",
"L. c #DB8661",
"P. c #DC8C68",
"I. c #CC8475",
"U. c #C88775",
"Y. c #D78B7B",
"T. c #C7907B",
"R. c #E08E7E",
"E. c #E58E68",
"W. c #7D888A",
"Q. c #9F8780",
"!. c #8B8F8E",
"~. c #A58C85",
"^. c #A78F88",
"/. c #A89089",
"(. c #AD9B96",
"). c #B7A08F",
"_. c #96AAAE",
"`. c #BDBDBC",
"'. c #B7B5B4",
"]. c #AFAAA9",
"[. c #CF9D87",
"{. c #E69886",
"}. c #F29D8B",
"|. c #C5A888",
" X c #D8A48B",
".X c #CCB08E",
"XX c #D8AE93",
"oX c #E7A58C",
"OX c #F2AC94",
"+X c #EBB59B",
"@X c #EAB497",
"#X c #F5B89C",
"$X c #EAAB91",
"%X c #FCBEA0",
"&X c #E9C29E",
"*X c #C1C0BF",
"=X c #E8C7A5",
"-X c #FECDAA",
";X c #F6C7A5",
":X c #FCD4AD",
">X c #F6D4AB",
",X c #F3CAB5",
"<X c #F2C9B4",
"1X c #FFDDB3",
"2X c #F6D1BD",
"3X c #EFD0A8",
"4X c #FFE1B5",
"5X c #FFE4B8",
"6X c #FFEBBE",
"7X c #B2C8CC",
"8X c #C1C3C2",
"9X c #CCCACA",
"0X c #D7D6D6",
"qX c #CDD4D5",
"wX c #FCE6D8",
"eX c #CEDFE3",
"rX c #CEE1E4",
"tX c #D1E6EA",
"yX c #D5EEF3",
"uX c #D7F2F7",
"iX c gray91",
"pX c gray97",
"aX c #FEFEFE",
"sX c black",
"dX c black",
"fX c black",
"gX c black",
"hX c black",
"jX c black",
"kX c black",
"lX c black",
"zX c black",
"xX c black",
"cX c black",
"vX c black",
"bX c black",
"nX c black",
"mX c black",
"MX c black",
"NX c black",
"BX c black",
"VX c black",
"CX c black",
"ZX c black",
"AX c black",
"SX c black",
"DX c black",
"FX c black",
"GX c black",
"HX c black",
"JX c black",
"KX c black",
"LX c black",
"PX c black",
"IX c black",
"UX c black",
/* pixels */
"                                  .                 .                         ",
"                                * w q v v v v v v x 4 1                       ",
"                            , 3 L q.9.L.L.L.L.L.L.g.q.,.q q ,                 ",
"                        1 , I g.J.J.L.h.h.L.L.H.H.J.H.L.L.h.2.3 <             ",
"                    # 6 8.J.H.J.J.H.K.L.L.h.H.H.H.L.L.H.H.H.H.H.H.l           ",
"                  * 1.g.H.J.H.H.H.H.H.H.L.L.H.H.H.H.H.H.H.H.H.H.H.H.c         ",
"                9 g.H.H.J.H.H.H.H.H.H.H.h.L.H.H.L.H.H.H.L.H.H.H.H.H.=X..      ",
"              q 0.E.2XP.H.L.L.H.H.H.L.L.L.h.H.L.L.h.L.L.L.H.H.H.H.<XwX Xn     ",
"              o w c wX2XP.L.H.H.H.H.h.h.h.L.H.H.H.h.h.h.L.H.H.H.<XwX@XE.V .   ",
"              . # P  XwX2X,X,X,X[.K.,X,X<XL.8.H.@X,X,XXXj.,X<X<XoXoXP.H.8.n   ",
"                * 2.q.oX[.XX@X+XU.5. X+X@X9.z z G.%X+Xs.P +X@X@XP.H.9.h.E.>.. ",
"                * 2.2.q.3.g.h.J.9.3.>.C V z X 1 V q.h.C , g.h.8.I g.0.>.U l . ",
"                * 2.2.2.2.8.H.g.8.<.l X ( . . z $ L 3.z l L 9.3.# 3.L.>.* .   ",
"                * I 2.C C C q.7.<.x + &.iX' X . . l 5 1 b o V C o b 8.L.L .   ",
"                  o L 4 < 1 n 3.b . h aXaXpXt . . . X # . O u . . . b 8.V .   ",
"                  . # I.I.{.N b b . h aXaXpXt . . . B C . / 0X- . . . n x .   ",
"                  . # I.i C I.P q n h aXaXpXu . . z j.1.h pXiX& .     X . .   ",
"                    # I.Y.i 7.P q V h aXaXpXu . . O.}.2.T aXiX- .             ",
"                    # I.-Xs C.X.b Y.5.( pXaX0X0Xh 6.1Xy.h aXaX9X:             ",
"                    . i =XXX3X XT.:X&XF./ K / / y.=XXXG.C.S h T X             ",
"                    X b J } ` s.;X4X4X>XC.C.C.S.3X6X;X&X>XZ.C.C.&             ",
"                . . . 5 . . . 5 s.-X4X1X5X4X5XF.+.{ +.+.F.5X5X4X<             ",
"              . . . N } { { P , 1 s.-X5X1X1X1Xp h &.:.h p 1X:Xy.>             ",
"          . . . # C OX1X5X5X-X] . 3 a.G.-X4X4Xg '.aXiX!.6.>XZ.@               ",
"        % = O . 4 oX1X1X1X1X5XC.# . . p 7.).|.0 -.9X$.x .XF..                 ",
"      . 7 A k - 3 oX1X1X1X1X1X#X1.. < L < < . . O @ . . . .                   ",
"    # # X . %._.< {.:X1X1X1X1X;X1.% A 0 I.j.; @ H 7 .                         ",
"  . a.R.N . %._.3 {.:X1X1X1X>X1Xy.% Q k.- & O ~ ^ F 7 .                       ",
"  @ d.}.@X{ $._.3 {.oX:X1X4X{ C.C.% F Q c.x.c.Q R R e .   . @ @ . . .         ",
"o 7.+X:X1XG.b $.!.B {.:XJ 9 C.#.d A F F Q Q Q F 7 d e . i d.5.& G. X.XJ       ",
"o I.:X4X4X+X] T 7Xo 7.$X|.0 w S A F F F D D k.b.8 O % . i OX@X- a.G.;X} .     ",
"X 5.{.:X5X%Xf.B :.W.i N } S r A F D ! l.l.l.M.B.r . . . 4 U.=X; 7.[.>X}       ",
"X ,.Y.OX:X#XY.1.% :.. . = A F ^ z.z.l.N.N.N.M.B.r . . . X P  X* I.#X1X}       ",
". b f.{.#X#XI.N . . . 7 D F F ^ m.B.N.N.N.M.M.c.Z O     $ P O.# 7.j.@XP       ",
"  . b 1.5.7.P . . . @ D F F F D Q v.v.v.v.N.N.Q E 7     q f.. 1 ,.5.{.N       ",
"    . . . .         @ A E F F ! Q Q Q Q ^ n.n.G A = .   , n # 2.7.Y.I.x .     ",
"                    O D E ! ! n.x.x.x.x.k.> $ @ . . . .   . o I j.I.i .       ",
"                  O D F D k.V.Z X # & & ; I <., . . . . .   . @ X X .         ",
"                  O D F % O O c <.4.I.I.d.3 o . . . @ . X . . . . .           ",
"                  . O O . n <.x $ * , , a 8Xt . j *.u.u.r.r.u.r.# .           ",
"                  @ d . . * , o . ; ) K _ p.[ K | i./.^.^.^.^.~.w._ ;         ",
"                  @ = @ . a m m m ) o.| y | o.@.f  ./.~.~.^.~.~.^.A.[ 2       ",
"                      . a | =.K ) i.u.e.f a | #.: m i.i.^.^.^.^.~.^.w.y .     ",
"                      . a [ m g ;.*X`.'.w.X p f # > ) *.i.u.u.i.~.^.w.9       ",
"                      . . ) K ;.qXuXuXrXQ.u . . . . : m M M M  .u.i.*.y       ",
"                      . . K i.9XuXuXyXtX].*.- . . . . . X ; 2  .X. .@.y .     ",
"                      . . K i.8XtXrXyXyXtX^.; . . . X & y o.X.X.#.=.| 2       ",
"                      . . M i.*X8X'.uXyXtX^.; . X O f o.X.o.#.@.A.p.u         ",
"                      . . . | ^.'.yXyXyXeX~.- . m  . .o.o.=.~.~.~.y           ",
"                      . . . m i.'.uXyXeX(.~.; m  .o. .e.Q.~.~.~.~.<           ",
"                      . . . M #.p.(.(.(.F.e.# + ) o.w.~.~.~.~.F.u             ",
"                      . M ) | X.o.e.=.e.#.2 . . # K =.i.~.~.^.Q.#             ",
"                    . M  .@.X.X.X.X.X.X.| O _ ; . ; 2 m r.r.t.w.) -           ",
"                  + f  .X.X.X.X.X.X.X.| a + m _ > . . X 9 2 3 9 a O           ",
"                . # X.o.w.@.X.X.X.X.X.[ .     ) ) $.;.;.:.:.:.&.+ .           ",
"                . O  .X.A.i.o.X.X.X.| M .       m 8XaXaXaXaXaXaXt             ",
"                X u ) X.i.~.i.=.=.e._ .           ;.8X`.`.`.`.'.>             ",
"                2 i.+ [ X.i.~.^.~.^.*..             . . . . . . .             ",
"                2 w.: _ [  .i.F.~./.*..                                       ",
"                  : r.2 @ ) X. .w.^.*.. .                                     ",
"                  ; ~.qXu . # X f =.o.) .                                     ",
"                    y (.9Xj . . . - & ; .                                     ",
"                      y (.'.'.'.'.'.!..                                       ",
"                        p 0XaXaXaXaX9X.                                       ",
"                          &.-.;.-.-.' .                                       ",
"                            . . . . .                                         "
};
