/* XPM */
static char *_5fab1d59548491d942e60666fa28f60cDOcvwTU4Hdml2RF[] = {
/* columns rows colors chars-per-pixel */
"43 57 256 2 ",
"   c None",
".  c #010101",
"X  c #090605",
"o  c #0D0807",
"O  c #070B08",
"+  c #0C0B0A",
"@  c #060807",
"#  c #120D0B",
"$  c #190F0C",
"%  c #120907",
"&  c #06120B",
"*  c #09120D",
"=  c #1B110E",
"-  c #0C1C13",
";  c #131211",
":  c #1A1513",
">  c #1C1A19",
",  c #1D1815",
"<  c #20130F",
"1  c #231613",
"2  c #2A1A13",
"3  c #231D19",
"4  c #231A16",
"5  c #331E19",
"6  c #361E16",
"7  c #0C2216",
"8  c #14251B",
"9  c #152B1E",
"0  c #26231C",
"q  c #35211B",
"w  c #3B231C",
"e  c #1E3A29",
"r  c #173524",
"t  c #1F2020",
"y  c #2D2422",
"u  c #272727",
"i  c #332A25",
"p  c #372C29",
"a  c #223929",
"s  c #3C332D",
"d  c #353029",
"f  c #3B3635",
"g  c #2F3334",
"h  c #42271F",
"j  c #4D2E25",
"k  c #452A24",
"l  c #47362B",
"z  c #553329",
"x  c #413633",
"c  c #4B3E3B",
"v  c #473B36",
"b  c #593932",
"n  c #6A3E34",
"m  c #663E2D",
"M  c #17512F",
"N  c #21412E",
"B  c #284B36",
"V  c #254532",
"C  c #2D553D",
"Z  c #28583B",
"A  c #4E413D",
"S  c #4D4234",
"D  c #53453E",
"F  c #6C4338",
"G  c #7A493C",
"H  c #754739",
"J  c #72432F",
"K  c #315C42",
"L  c #3F4040",
"P  c #316B48",
"I  c #277346",
"U  c #414141",
"Y  c #4E4E4E",
"T  c #534541",
"R  c #5A4B46",
"E  c #5C4E4A",
"W  c #554844",
"Q  c #5E524B",
"!  c #565758",
"~  c #495154",
"^  c #784B41",
"/  c #64534E",
"(  c #655745",
")  c #7B5147",
"_  c #6D5B55",
"`  c #695A55",
"'  c #715D57",
"]  c #725E58",
"[  c #614F4A",
"{  c #75615B",
"}  c #79655E",
"|  c #796653",
" . c #5D6060",
".. c #6B6C6C",
"X. c #646464",
"o. c #7B6862",
"O. c #69777A",
"+. c #777876",
"@. c #804C3F",
"#. c #834E40",
"$. c #8D5445",
"%. c #84544B",
"&. c #96594A",
"*. c #975B47",
"=. c #8F5D53",
"-. c #9B6256",
";. c #826B58",
":. c #A8654B",
">. c #B06B4D",
",. c #AE6851",
"<. c #A8695B",
"1. c #B46D56",
"2. c #BB7154",
"3. c #AF785F",
"4. c #826C66",
"5. c #846F69",
"6. c #8B746E",
"7. c #867367",
"8. c #8D7770",
"9. c #8F7872",
"0. c #827D78",
"q. c #937B75",
"w. c #B57567",
"e. c #AC7063",
"r. c #C6795A",
"t. c #CD7D5B",
"y. c #C67756",
"u. c #D47F5A",
"i. c #C07D6F",
"p. c #328252",
"a. c #2C9959",
"s. c #31985B",
"d. c #2B8650",
"f. c #2DA35E",
"g. c #32AF65",
"h. c #31B266",
"j. c #32B568",
"k. c #2FAB62",
"l. c #9C837C",
"z. c #958067",
"x. c #A28B79",
"c. c #B9957B",
"v. c #B78872",
"b. c #D7835F",
"n. c #D9845F",
"m. c #DA8561",
"M. c #CE8575",
"N. c #C28472",
"B. c #D68A7A",
"V. c #C39479",
"C. c #CB806F",
"Z. c #E29878",
"A. c #7B8588",
"S. c #8A8B8B",
"D. c #868585",
"F. c #869396",
"G. c #959697",
"H. c #A48B84",
"J. c #A68D86",
"K. c #A7918B",
"L. c #A29D9B",
"P. c #BFA484",
"I. c #A4A4A4",
"U. c #AAAAA9",
"Y. c #BCBCBC",
"T. c #B3B8B9",
"R. c #ABB4B5",
"E. c #D19984",
"W. c #EC9A89",
"Q. c #E59684",
"!. c #F29C8B",
"~. c #C5AB89",
"^. c #DAA58A",
"/. c #D5AA8F",
"(. c #E6AA8E",
"). c #E7A28A",
"_. c #F5A28F",
"`. c #EBAD92",
"'. c #F3AA93",
"]. c #E9B599",
"[. c #ECB396",
"{. c #DAB9AB",
"}. c #F8BCA0",
"|. c #EABCA6",
" X c #E3C19D",
".X c #EBCAA4",
"XX c #E6C4A7",
"oX c #FBC2A2",
"OX c #F6CCA7",
"+X c #FCD5AD",
"@X c #F5D1A9",
"#X c #F2C8B3",
"$X c #FFDCB2",
"%X c #F6D1BE",
"&X c #FBD3BA",
"*X c #FFE1B6",
"=X c #FFE3B8",
"-X c #FFEBBE",
";X c #B8CFD3",
":X c #C2C5C5",
">X c #CBD6D8",
",X c gainsboro",
"<X c #F9D8C6",
"1X c #CDDEE1",
"2X c #D2E8EC",
"3X c #D5EEF3",
"4X c #D6F1F6",
"5X c #D9F4F9",
"6X c #CFE0E2",
"7X c gray90",
"8X c #EEEEEE",
"9X c white",
"0X c #F4F4F4",
"qX c black",
"wX c black",
"eX c black",
"rX c black",
"tX c black",
"yX c black",
"uX c black",
"iX c black",
"pX c black",
"aX c black",
"sX c black",
"dX c black",
"fX c black",
"gX c black",
"hX c black",
"jX c black",
"kX c black",
"lX c black",
"zX c black",
"xX c black",
"cX c black",
"vX c black",
"bX c black",
"nX c black",
"mX c black",
"MX c black",
"NX c black",
"BX c black",
"VX c black",
"CX c black",
"ZX c black",
"AX c black",
"SX c black",
"DX c black",
"FX c black",
"GX c black",
"HX c black",
"JX c black",
"KX c black",
"LX c black",
"PX c black",
"IX c black",
"UX c black",
/* pixels */
"                                      : 1 4 2 2 2 2 4 1 2 2 2 1 =                     ",
"                              $ = $ q :.b.b.b.b.b.b.b.b.b.b.b.b.:.q $                 ",
"                          o X H b.t.t.b.b.m.b.b.b.b.b.b.m.b.b.b.b.t.b.z .             ",
"                        . *.y.t.b.b.b.b.b.b.b.b.b.b.b.b.b.b.b.b.b.b.n.t.m .           ",
"                  . . . *.b.n.b.b.b.m.b.b.b.m.b.m.b.b.b.b.b.b.b.b.b.m.m.t.J .         ",
"                  $ *.:.b.n.b.n.b.n.b.b.b.b.b.b.b.b.m.b.m.b.b.b.b.m.b.b.m.y.J .       ",
"                    j j h >.n.b.b.b.b.b.m.m.b.b.b.b.b.b.m.b.m.b.b.b.b.b.b.m.y.J . . . ",
"                      . q E.Z.u.b.b.b.b.b.m.m.b.b.m.b.b.b.b.b.m.b.b.b.b.u.u.Z./.m . . ",
"                      . G ^.}.].].).u.u.m.u.b.b.b.n.n.u.u.u.u.2.u.u.u.Z.].[.#X<Xr..   ",
"                      X G r.`.#X<X<X(.).r.(.(.(.`.3.>.Z.(.(.Q.-.^.(.(.<X<X#X#X}.y.z   ",
"                      . G 2.u.y.E.<X%X|.-.{.%X&X%XQ 6 M.&X<XXX) {.#X<X%X(.u.y.:.m.b.$ ",
"                      . G &.1.,.,.m.b.t.&.&.:.>.@.6 X j 2.b.1.% n 2.t.2.2.u.*.w >.:.% ",
"                      . G &.&.&.,.u.b.r.&.#.$ > + . h z q r.G @ . n $.5 k 1.n.:.X . . ",
"                      X G &.$.$.$.:.r.&.#.# o Y.! . . . 2 G o . . X X . k ,.n.:..     ",
"                    X G &.&.k % o k &.#.# o Y.9X0XX.. . . % . . . . . . . k 2.:.X     ",
"                    X #.&.w ) i.i.%.6 @.. O ,X9X9X... . . # n . . U.U . .   z >..     ",
"                  # F &.&.1 -.=.F w.%.5 b o ,X9X9X... . $ ^ w.: I.9XY .     < q       ",
"                    w q 6 X =.i.b G w.: w.$ ,X9X9XX.. . 6 B.M.> 7X9XU . .             ",
"                    . . . . -.}.;.l c.: B.%...7X9X:XS.! i }./.: 7X9XT.f               ",
"                    8 8 8 8 b ^.~.x.].) `.}.| 0.S.G.G.0.z.+XV.| D.S.G.f               ",
"            * - - 8 K K K P 9 Q c.c.c.`.$X$X=X| l S S 9.-X@XV.+X( l S ,               ",
"        * * r K C V N N N e C r . . 1 v.OX$X$X=X=X X~.~.P.V.~.$X*X*X-X( .             ",
"      . 9 B B B a @ 0 4 1 $ a Z e @ . k i.OX$X$X=X_ + u a 0 : .X$X*X.XD               ",
"    o o o X X o . i .XW.Q.<.5 8 C e i e.5 N. X+X=X( ..9X0XY.i @X$X@XS                 ",
"  % n $.$.i f ` p .X$X+X).e.w . 9 K N q w., # 3.OX( ..9XT.p  X@X@Xx                   ",
"+ w.Q.,.h c [ j E.$X$X$X+XW.B.b - K C V , . . $ 3 + o u > X 3 3 3                     ",
"o i.W.Q.j O.A.x +X$X$X$X$X'.!.F 7 K C C V V d.-                                       ",
"% i.Q.W.b O.F.l =X$X$X$X[.W.i.j - P s.s.s.a.M                                         ",
"# M.W.W.z O.F.k oX$X$X$XW.W.#.u Z a.h.h.h.j.& . . . . . . . .                         ",
"  ^ M._.b  .O.6 M.}.$X$X)._.z 8 p.h.g.g.f.M @ . j | s 0 7.| | *                       ",
"  . ^ =.5 W ` % F M.oXOX_.<.f e p.j.h.g.d.@ ~ - -.$X7.l (.]..X#                       ",
"    . . . f c . o F -.-.<.1 r K I d.I I e + T.g $.OX;.q 1.c. X#                       ",
"          . . * * * & & & * N P P Z - @ . . ` > k V.| j '.+X X#                       ",
"          . 9 C B B B B B B B I a.a.f.Z - O . . . j j b Q.'.].#                       ",
"        . 8 C e . . . X . . . @ . r f.a.a.Z O . . . p $.w.OXN.o                       ",
"      . . . @ @ . @ . . @ @ @ . . . & & & @ @ . @ . X b Q.i.$ .                       ",
"      . . . . : _ 5./ 5.8.8.q.x . . . # R [ 5.8.8.] E v 1 < .                         ",
"      . p y : _ x.H.} H.>X>X>XL.o.T + R ' ] H.J.H.H.q.q.] x .                         ",
"      . : # y o.4.5.9.x.>X5X5X6X>XU.R y ' ' o.x.J.H.K.K.J.6.v X                       ",
"          . y ] ] q.K.;X2X3X3X3X3X2XT.O.s _ ] 4.H.H.J.J.J.H.` @                       ",
"          . ; c } q.q.T.3X3X3X3X3X3X5X;X+ p s / 6.q.6.6.6.6./ @                       ",
"            . # A ] ] x.Y.2X4X3X3X5X5X;X@ . . i x R ' _ ' ' / o                       ",
"              . o c W q.q.Y.>X>X>X>X>XR.@ . . ; 1 c ] ' ' ' / o                       ",
"            . X : ; : / ] 9.H.q.x.q.l.5.X . # R ] ' ] o.} ' T @                       ",
"        . . X y _ _ ' ' ' ' ' ' ] ] ' T X o / ' { { 6.K.q.D X                         ",
"      . . . y ' ' ' ' ' ' ' ' ' ' ' T X X / ' ' q.H.H.H.} . .                         ",
"      . . i _ ' ' ' ' ' ' ' ' ' ] T X . X / ] q.H.H.K.' O                             ",
"      . . s { ' ' ' ' ' ' ' ' ' ] c . . . ; / } o.} q.` . .                           ",
"      . . O x 4.q.' ' ' ' ' ' ] c f / . . . : , : c o.{ s .                           ",
"      . . . O v 6.9.' ' ' _ ' } s o A E . . . . . o 4 3 > .                           ",
"      . d i . X v 8.q.q.q.q.o.A : . + T / D.S.S.S.S.S.! .                             ",
"      . ` E . . X x R E / 5.4.D : . . + ] 9X9X9X9X9X9XU..                             ",
"        c R t . . . . . . i v c u .     + G.I.I.I.I.U.X..                             ",
"          c Q d U L f L L f c > .         . . . . . . . .                             ",
"            s K.6X9X9X9X9X9X9X+..                                                     ",
"              . x 7X7X7X7X7X8XX..                                                     ",
"                  ; ; ; ; ; ; O .                                                     "
};
