/* XPM */
static char *d98a3ed254f14f20e75fbcb245040b73j8q5eZLDIBiiTLVV[] = {
/* columns rows colors chars-per-pixel */
"44 64 256 2 ",
"   c None",
".  c #010101",
"X  c #090605",
"o  c #040906",
"O  c #0B0B0A",
"+  c #090A08",
"@  c #130D0C",
"#  c #190E0B",
"$  c #06150E",
"%  c #08100B",
"&  c #1D110E",
"*  c #13110F",
"=  c #151313",
"-  c #1B1614",
";  c #1C1817",
":  c gray11",
">  c #141D1A",
",  c #0E1913",
"<  c #21130F",
"1  c #221512",
"2  c #2B1914",
"3  c #221C1A",
"4  c #2D1D1A",
"5  c #281814",
"6  c #321E19",
"7  c #13251A",
"8  c #102619",
"9  c #092817",
"0  c #3A221B",
"q  c #352119",
"w  c #28251D",
"e  c #192B21",
"r  c #1B3425",
"t  c #1B3627",
"y  c #2C2522",
"u  c #282726",
"i  c #322A26",
"p  c #382B28",
"a  c #22392A",
"s  c #3B312D",
"d  c gray20",
"f  c #3D3432",
"g  c #373939",
"h  c #41261D",
"j  c #412316",
"k  c #4C2E24",
"l  c #462923",
"z  c #42392E",
"x  c #4D362D",
"c  c #54332A",
"v  c #5B352B",
"b  c #583425",
"n  c #413433",
"m  c #453935",
"M  c #4A3D39",
"N  c #463B36",
"B  c #5A3C34",
"V  c #653D2D",
"C  c #663E35",
"Z  c #14542F",
"A  c #155630",
"S  c #21412E",
"D  c #284B36",
"F  c #284B36",
"G  c #2E543D",
"H  c #2F593F",
"J  c #235738",
"K  c #30553E",
"L  c #1E673C",
"P  c #4D403C",
"I  c #51443D",
"U  c #564A3C",
"Y  c #6A4236",
"T  c #7B4B36",
"R  c #784737",
"E  c #2E5E41",
"W  c #305A41",
"Q  c #2C6643",
"!  c #306947",
"~  c #2D7249",
"^  c #30734B",
"/  c #307B4E",
"(  c #317F51",
")  c #544541",
"_  c #5B4B45",
"`  c #5B4D47",
"'  c #4B5659",
"]  c #53514D",
"[  c #664D44",
"{  c #774C44",
"}  c #61514C",
"|  c #615444",
" . c #7C5248",
".. c #6E5A54",
"X. c #6A5954",
"o. c #715D57",
"O. c #735F58",
"+. c #75615B",
"@. c #79645E",
"#. c #796754",
"$. c #586364",
"%. c #686868",
"&. c #7C6A64",
"*. c #7A6661",
"=. c #777777",
"-. c #86513D",
";. c #834E41",
":. c #895448",
">. c #975B49",
",. c #8C5C51",
"<. c #85735D",
"1. c #89735E",
"2. c #936253",
"3. c #A8654E",
"4. c #A36354",
"5. c #A86956",
"6. c #B36B53",
"7. c #BB7154",
"8. c #A7745D",
"9. c #826D66",
"0. c #8D7B65",
"q. c #8A746D",
"w. c #887465",
"e. c #927E66",
"r. c #937B75",
"t. c #967E78",
"y. c #8D7974",
"u. c #B97667",
"i. c #AC7463",
"p. c #C77858",
"a. c #D37F5B",
"s. c #C37C6C",
"d. c #318352",
"f. c #328D57",
"g. c #329359",
"h. c #319B5C",
"j. c #2B8450",
"k. c #31AE65",
"l. c #31A661",
"z. c #31B166",
"x. c #31B568",
"c. c #9B856C",
"v. c #9A827B",
"b. c #9F8B70",
"n. c #A18C71",
"m. c #B88C76",
"M. c #D7835F",
"N. c #DA845E",
"B. c #C98368",
"V. c #D98561",
"C. c #DE8863",
"Z. c #D88764",
"A. c #C98374",
"S. c #D5897A",
"D. c #DC9477",
"F. c #D39277",
"G. c #E28A64",
"H. c #E19B7B",
"J. c #E2916E",
"K. c gray54",
"L. c #979696",
"P. c #A58C85",
"I. c #A88F88",
"U. c #AA938C",
"Y. c #AA998F",
"T. c #AE9B96",
"R. c #B1A19C",
"E. c #8E9DA0",
"W. c #95A7AA",
"Q. c #98ACB0",
"!. c #B6ABA7",
"~. c #B9B8B8",
"^. c gray65",
"/. c #D59983",
"(. c #E49584",
"). c #E39D82",
"_. c #EB9A88",
"`. c #E89987",
"'. c #F19D8C",
"]. c #C8AC8B",
"[. c #CCB08E",
"{. c #D4B592",
"}. c #DABB97",
"|. c #D3A589",
" X c #ECA48E",
".X c #E7A487",
"XX c #F6B499",
"oX c #EEAD94",
"OX c #D0B6AC",
"+X c #ECBDA6",
"@X c #FDBFA1",
"#X c #DDC09B",
"$X c #E5C39E",
"%X c #EACAA3",
"&X c #E9C6A1",
"*X c #FACBA7",
"=X c #FCD4AD",
"-X c #F7D4AC",
";X c #FFD7B1",
":X c #FFDCB2",
">X c #ECCAB9",
",X c #FFE1B6",
"<X c #FFE5B9",
"1X c #FFEABE",
"2X c #C6C6C6",
"3X c gainsboro",
"4X c #D0CECD",
"5X c #F8D8C6",
"6X c #FCE3D4",
"7X c #FFEBDD",
"8X c #D1E6EA",
"9X c #D5EEF3",
"0X c #D6F1F6",
"qX c gray93",
"wX c #E7E7E7",
"eX c #F4F4F4",
"rX c #FEFEFE",
"tX c #FFEEE1",
"yX c black",
"uX c black",
"iX c black",
"pX c black",
"aX c black",
"sX c black",
"dX c black",
"fX c black",
"gX c black",
"hX c black",
"jX c black",
"kX c black",
"lX c black",
"zX c black",
"xX c black",
"cX c black",
"vX c black",
"bX c black",
"nX c black",
"mX c black",
"MX c black",
"NX c black",
"BX c black",
"VX c black",
"CX c black",
"ZX c black",
"AX c black",
"SX c black",
"DX c black",
"FX c black",
"GX c black",
"HX c black",
"JX c black",
"KX c black",
"LX c black",
"PX c black",
"IX c black",
"UX c black",
/* pixels */
"                                        . . . . . . . . . . . . .                       ",
"                                  . . . k R T T T T T T T R c c c # . .                 ",
"                                2 V V Y 6.M.C.G.C.C.C.C.C.V.7.7.7.T V c 2               ",
"                            j b T G.C.C.N.M.M.M.M.M.M.M.M.N.V.N.V.C.G.p.:.k h           ",
"                          2 -.G.C.M.M.M.M.M.M.M.M.M.M.M.M.M.M.M.M.M.M.M.V.G.7.h h h     ",
"                      6 2 5.J.M.V.M.M.M.M.M.M.M.M.M.M.M.M.M.M.M.M.M.M.M.M.M.Z.D.6.3.1   ",
"                    . -.7.&X+XV.V.M.M.M.M.M.M.M.M.M.M.M.M.M.M.M.M.M.M.M.M.M..X>X3 X .   ",
"                    . X X Y.tX+XZ.Z.V.V.M.M.M.M.M.M.M.M.V.M.M.M.M.M.M.M.V..X6X5X7.<     ",
"                      . v OXtX6X5X>XV.V.V.V.V.V.V.V.M.M.V.V.V.V.M.V.V.M. X6X5XZ.M.p.2   ",
"                      . C s.C.+X7X6X5X>X5.>X5X5X5XXXp.3.J.5X5X5Xi.}.5X5X+XF.J.M.M.N.7.q ",
"                      . C 3.p.s.m.).H.H.4.i.D..X.XB.R 1 c .XD.H.k 8. X).J.N.M.:.q q 0 + ",
"                  . . . # C 3.3.3.G.a.a.>.>.v 0 j j # @ v b p.6.& R a.p.-.Y 6.7.-.X     ",
"                @ { 1.0.0.C h 6 j V 7.6.>.k . $.d . . @ 0 + 3.k + 5 :.3.c o b 7.6.@     ",
"              1  .XX,X<X<Xn.w 4 { B k :.c X ] wX~.g . . . X h . . . 1 c 6 . X h h X     ",
"              6  X:X:X:X:X<X#.q u.u.x c . . 4XrXrXK.. . . . 5 X . ) u . . * U U U .     ",
"              4 `.*X:X:X:X,Xb.- # :.A.X - . 2XrXrXK.. . . 6 4.@ d 4X%.. @ #.<X,X=XU     ",
"          e : 4 (.`.;X:X:X:X<Xe.. p A.@ >.@ 2XrXrXK.. . & 5.S.; 4XrX$.. B XX:X:X:X:XU   ",
"          $.W.2 (.`.=X:X:X%X:Xc.. U }.q A.i !.wXrXL.= = 4 (.(.; 2XrX=.. B oX=X:X:X:X:Xz ",
"        . $.Q.2 (.`.=X-X-X| 1.<.z %X&X(.`.D.x * L.eXwX^.i -X%Xw 2XeXqX%.c '. X;X:X:X:Xz ",
"      . . $.Q.# 4.`.*XN = b.<.O O ; p (.*X;X&X&Xo.> : _ $X-Xi.{.P : u O B _.(. X=X:X:Xz ",
"    . { /.0.' W.2 4..X{.i & @ 6 { v # 5._.=X:X,X$X[.[.#X:X;X$X;X}.[.{.| 6 s.(._. X=X,Xz ",
"  . { S.@X%X0.' E.w p x @ 8 S a 2 # . 2 4..X;X:X<Xn.w.1X,X,X,X:X,X,X1X<.. c u.(.(.oX[   ",
". { S.oX=X,X&X0.' . e e t F W D e 7 @ :.p 4..X;X:X{.@.U U U | %X:X<Xb.B 6 < >.s.(.C     ",
". u.XX=X,X:X,X[.. e H W E H G ! f.~ a {  .l c /.@X=X#X<.<.<.0.=X<Xn.x :.8.Y 0 l C .     ",
". u.*X:X:X:X,X[.% G W W G G ! g.x.l.~ 7 ;.[ C { { 2.e.c.c.c.c.0.0.x C s.'.s.x . . .     ",
"X m.;X,X:X:X:X].X F W W ! ^ h.z.z.z.l.~ > ,.5.p $ $ $ $ $ $ . & 5 R 5.A._.(. ..         ",
". c.].$X,X:XoX,.> G W W f.h.h.h.h.h.z.k.^ 9 9 J ^ ! W W W F + ;.>.4.S.'.S.{ . .         ",
"  . . w.#X|.,.o F D D D D D F Q Q / k.z.k.z.z.z.x.( D W E E + ;.4.S.S.s. .. .           ",
"      X X + . . . . . . . X t d.k.k.k.k.k.z.z.z.l.Z , G E j.+ R s.S.B . X               ",
"                  . . . . r ( k.k.k.k.k.k.z.k.z.A . . X o o . X @ @                     ",
"                    . a S F f.z.z.z.k.k.k.k.z.d.7 .                                     ",
"                  o a W W W E f.z.z.z.k.k.z./ E 7 .                                     ",
"                  . W W W W W E ^ ( l.^ ^ ~ E e %                                       ",
"                % r W W / f.g.g.f.g.k.f.f.W K ,                                         ",
"                % W W W / L A Z A Z Z A A j.g.8                                         ",
"                + W W a r X - n f n n f f J L 9                                         ",
"                o a a . @ y O.U.T.!.!.!.P.m o .                                         ",
"                . . . @ } v.T.R.~.0X0X8X!.I.s . .                                       ",
"                . . O ` t.n.~.8X8X9X0X0X9X!.9.i . .                                     ",
"                . X } ..X.y.I.I.!.8X8X8X8X8XT.9.y . .                                   ",
"                . X } = X M r.P.I.U.U.U.U.U.9.O.i . .                                   ",
"                . . O . m X.O.q.I.v.@.@.@.@.o.O.y . .                                   ",
"                . . . M ..O...q.I.P.v.v.v.v.*.@.i . . .                                 ",
"                  . . 3 } @.o.@.9.9.9.9.9.9.+.f X 3 i .                                 ",
"                  . . . 3 i ) O...X.....o.O.@.3 ; ` M .                                 ",
"                . . i p + . = I @.q.q.9.+.m s O n @.` 3 .                               ",
"                . X m ..) f f ` t.U.U.P.M X . = ) O.+.) .                               ",
"                . . . n +.&.&.&.*.*.*.o.X . = _ O.O.O.I .                               ",
"                . . ; . . . . . . . . . . . m ..O.O.O.I .                               ",
"                  + 9.u @ @ ; : : : e : . . + I O.o.+.I .                               ",
"                    O *.v.K.OXeXqXeXeX3X= . ) o.O.o.o.P .                               ",
"                      @ O o.U.U.OXrXrXwX: ) o.O.o.+.M X                                 ",
"                          = ; ; 3 u d u ` ..o.o.o.+.m .                                 ",
"                            . 3 ) M M ) o.o.o.o.O.M =                                   ",
"                            . y @.&.y.o.o.o.o.O.@.p .                                   ",
"                          . y M M 9.P.q.O.o.o.o.P 3                                     ",
"                          . } } - *.r.P.q.q.9.q.p .                                     ",
"                            m ` s M *.t.P.I.I.U.m .                                     ",
"                            . M y.M M _ r.v.t.P.) @                                     ",
"                              d !.2Xu X ) _ _ _ } i .                                   ",
"                                i R.4X: : ; : : O . .                                   ",
"                                  i T.qXqXqXqXeX%..                                     ",
"                                    d eXrXrXrXrX%..                                     ",
"                                      d d d d g = .                                     "
};
