/* XPM */
static char *_c242a96487c4616b53d04ae77512910rzJ0qmHFghS5RFYE[] = {
/* columns rows colors chars-per-pixel */
"43 71 256 2 ",
"   c None",
".  c #010101",
"X  c #090605",
"o  c #0C0B0A",
"O  c #090807",
"+  c #130C0A",
"@  c #180E0B",
"#  c #0A150E",
"$  c #1A110E",
"%  c #0C1D13",
"&  c #041D10",
"*  c #151212",
"=  c #191513",
"-  c #1D1916",
";  c #2C1A15",
":  c #231D1B",
">  c #271915",
",  c #331D16",
"<  c #12251A",
"1  c #15281D",
"2  c #0C331C",
"3  c #29231E",
"4  c #34211B",
"5  c #3A231D",
"6  c #1A2D21",
"7  c #1F2222",
"8  c #1A3023",
"9  c #1B3726",
"0  c #2D2522",
"q  c #292725",
"w  c #3D2924",
"e  c #342C2A",
"r  c #362825",
"t  c #283627",
"y  c #3B322C",
"u  c #3F382D",
"i  c #393635",
"p  c #42251D",
"a  c #442A23",
"s  c #4B2D24",
"d  c #432822",
"f  c #4C322C",
"g  c #48362B",
"h  c #54332A",
"j  c #5B362A",
"k  c #453933",
"l  c #463A35",
"z  c #5B3A33",
"x  c #512E26",
"c  c #643C31",
"v  c #673F2D",
"b  c #144629",
"n  c #23412F",
"m  c #284A35",
"M  c #2C533B",
"N  c #2F593F",
"B  c #364F39",
"V  c #20663D",
"C  c #4E413D",
"Z  c #55463C",
"A  c #6D453D",
"S  c #7A493B",
"D  c #2F5B40",
"F  c #315A41",
"G  c #2C6744",
"H  c #316847",
"J  c #2B7248",
"K  c #31764D",
"L  c #32784E",
"P  c #317E50",
"I  c #464646",
"U  c #494A4A",
"Y  c #564945",
"T  c #594A44",
"R  c #554946",
"E  c #5D5141",
"W  c #595655",
"Q  c #604F4A",
"!  c #734A42",
"~  c #635544",
"^  c #63514C",
"/  c #685C4A",
"(  c #6D5A54",
")  c #695955",
"_  c #715D57",
"`  c #735F58",
"'  c #7D5147",
"]  c #75615B",
"[  c #79635D",
"{  c #786552",
"}  c #6F6153",
"|  c #686C6D",
" . c #7B6964",
".. c #697377",
"X. c #647275",
"o. c #797979",
"O. c #787574",
"+. c #814D3C",
"@. c #86503D",
"#. c #87564A",
"$. c #9B5C4B",
"%. c #945945",
"&. c #895D51",
"*. c #9C655A",
"=. c #9A6255",
"-. c #85715C",
";. c #93614E",
":. c #A5634C",
">. c #AB684C",
",. c #B26C4E",
"<. c #A36352",
"1. c #A86858",
"2. c #B76F51",
"3. c #B86E54",
"4. c #BB7253",
"5. c #BC7357",
"6. c #8B7974",
"7. c #947C76",
"8. c #967F78",
"9. c #826F69",
"0. c #AA6D61",
"q. c #AC7867",
"w. c #B77769",
"e. c #CB7C5B",
"r. c #C7795A",
"t. c #D27D5A",
"y. c #C17B67",
"u. c #24884E",
"i. c #308553",
"p. c #308B56",
"a. c #319359",
"s. c #31A561",
"d. c #31AE65",
"f. c #31B266",
"g. c #33B769",
"h. c #31A15F",
"j. c #99817B",
"k. c #97837D",
"l. c #97836A",
"z. c #B5957A",
"x. c #D7835F",
"c. c #D8845F",
"v. c #DA8561",
"b. c #DB8966",
"n. c #D78967",
"m. c #CA8772",
"M. c #D68A7A",
"N. c #DE9473",
"B. c #CC8C71",
"V. c #E28B66",
"C. c #E19978",
"Z. c #6D7D81",
"A. c #7A8C90",
"S. c gray52",
"D. c #959493",
"F. c #A58C85",
"G. c #A98F88",
"H. c #A88E87",
"J. c #A9938D",
"K. c #AD9D91",
"L. c #BBA182",
"P. c #ADA09C",
"I. c #90A2A6",
"U. c #A5A7A7",
"Y. c gray71",
"T. c #BDBAB9",
"R. c #B0AEAC",
"E. c #D89A83",
"W. c #E79584",
"Q. c #E99786",
"!. c #E99887",
"~. c #ED9B89",
"^. c #E19B87",
"/. c #D8B996",
"(. c #CFAC8D",
"). c #E9A48C",
"_. c #F6A691",
"`. c #E9B599",
"'. c #F5BA9D",
"]. c #EDAD93",
"[. c #C7BCB9",
"{. c #EDBBA3",
"}. c #DEC19C",
"|. c #E2C39E",
" X c #C1C0BF",
".X c #EBCAA4",
"XX c #EBC4A6",
"oX c #F7CBA8",
"OX c #FDD6AE",
"+X c #F8D5AD",
"@X c #ECC8B7",
"#X c #F2CBB7",
"$X c #FEDBB2",
"%X c #F5D1BE",
"&X c #FFE1B6",
"*X c #FFE5B9",
"=X c #B6C8CC",
"-X c #D5D5D5",
";X c #CDCCCB",
":X c #FBDECE",
">X c #F9D8C5",
",X c #EAD5CB",
"<X c #FFE9DB",
"1X c #FCE3D4",
"2X c #D1E7EB",
"3X c #D3E9ED",
"4X c #D5EEF3",
"5X c #DBF6FB",
"6X c #D8F3F8",
"7X c #CCE0E4",
"8X c #E1E2E2",
"9X c gray92",
"0X c white",
"qX c #F3F4F4",
"wX c #FFF0E3",
"eX c #CFDDE0",
"rX c black",
"tX c black",
"yX c black",
"uX c black",
"iX c black",
"pX c black",
"aX c black",
"sX c black",
"dX c black",
"fX c black",
"gX c black",
"hX c black",
"jX c black",
"kX c black",
"lX c black",
"zX c black",
"xX c black",
"cX c black",
"vX c black",
"bX c black",
"nX c black",
"mX c black",
"MX c black",
"NX c black",
"BX c black",
"VX c black",
"CX c black",
"ZX c black",
"AX c black",
"SX c black",
"DX c black",
"FX c black",
"GX c black",
"HX c black",
"JX c black",
"KX c black",
"LX c black",
"PX c black",
"IX c black",
"UX c black",
/* pixels */
"                                          X X X X X X X X X . X                       ",
"                                      . o S >.,.2.2.2.2.2.>.+.S + . .                 ",
"                                  . ; :.>.r.x.c.c.b.c.c.c.x.e.r.>.>.+.;               ",
"                              . p %.:.c.c.c.x.x.c.c.c.x.x.x.c.c.c.c.e.>.s             ",
"                      . . . j S :.b.c.x.x.c.x.x.x.x.x.x.x.c.x.x.x.x.x.V.>.s           ",
"                      . h A ,.V.v.x.x.x.x.x.c.x.x.x.x.x.x.x.x.x.x.x.x.x.V.,.s         ",
"                      X S ,.t.x.v.x.x.x.x.x.x.x.x.x.x.x.x.x.x.x.x.x.x.x.x.v.2.p       ",
"            3 C l k     - &.N.N.x.x.x.x.x.x.x.x.x.c.x.x.x.x.x.x.x.x.x.x.x.x.b.B.5     ",
"          - -.*X&X.Xy X @.#XwX`.t.x.x.x.x.x.x.x.x.x.x.x.x.x.x.x.x.x.x.x.x.b.`.>X5.X   ",
"        + -.OXOX$X$X.Xe $.XX<X{.n.x.x.x.x.x.x.x.x.x.x.x.x.x.x.x.x.x.b.N.b.`.<X#X4.X   ",
"      . #.W.!.].OXOX$XoXu %.{.<X{.n.n.n.t.v.n.n.b.b.x.x.b.b.n.$.x.n.#X1X:X1XXXb.4.@   ",
"      . #.~.W.!.~.).$X$X.Xk #.oX1X:X:X@X=.n.%X:X:X).t.^.1X:X@X=.@X:X1X<X{.y.=.:.x.4.+ ",
"      . #.~.Q.Q.Q.Q.).).OXu +.V.'.<X>XB.<.%X<X).N.5.z A `.<X,X0 m.N.N.N.b.t.%.; >.r.@ ",
"    . . c M.~.Q.Q.M.f M._.w @ , 3 ^ w.$.$.q.Z 4 4 ; X 4 5.^.B.+ %.t.2.j c r.e.@.> , X ",
"    . R g , ! m.M.a . a M.r z *.*.A 5 $.$.#.X o.i . . , ,.t.$.o ; %.:., a <.5.,..     ",
"    . 0 X.A.W d a . h ' ! @ *.1.#.w.A p d a o.qXT.i . + c :.4 . . > p @ $ c <.%..     ",
"    . d  .A.Z.X.X.| z ' o . =.0.f #.w.. . X 8X0X0XO.. . @ p , . . W 7 . . $ x 5 .     ",
"    ; w.;.p W I.I.A.. . ; . ;.'.&.a z.. > O -X0X0X| . . X p <.o W 9XU . . . . . .     ",
"  . #.M.~._.q.: . . . . +.a ! `.z.-./.h <.f U.qX0XD.I q 3 z.E.* 9X0XS.= . .           ",
"  $ w.~.W.'.*XL.. . . . c #.4 { }./.`.Q.~.).g U.-X;X-XD.A $X/.k Y.-X-XW . .           ",
"X S M.Q.W.'.*Xz.o . O O . . h s X ; =.~.$X$X$XZ = : - / &X.X0..Xy - : o . .           ",
"X #.M.Q.W.'.*XoX0.o m M # . O f s . w ^.OX$X$X+X|..X.X+X&X$X+X$X+X.X+XE . .           ",
"o y.Q.W.'.$X&XoXw.o M N M m m q X . . w ^.$X$X&X~ l.&X$XOX$X$X$X$X&X*X/ . .           ",
"o m.!.'.OX$XoXw.q u.D D D p.s.J < . ; 1.w E.OX&X|.} 3 3 3 Z +X$X&X&X/ #.z .           ",
"  w (.&X*XoXq.t u.d.D D p.d.f.s.J < r W.*.a g B.$X|.L.L.L.(.$X$XT k #.M.! .           ",
"    Z E E Z C u.d.J D D s.f.f.f.s.J q A W.=.o w Z E ~ ~ ~ E ~ T j s y._.! .           ",
"          . & V i.N D F P i.s.f.f.d.J 6 A A + . # < 1 1 1 % . d %.y.!.*.a             ",
"            . o 6 6 8 8 8 6 G p.i.a.d.J % % < < G H D D H m o %.$.#.#.w               ",
"                . . . . . o n N D p.f.s.L L L K s.i.m 9 9 8 X j c + .                 ",
"                        . n F G p.f.f.f.f.f.f.f.s.L 6 . . . . . .                     ",
"                        . n N P s.d.d.d.d.d.d.s.H D 6 .                               ",
"                        X n N D i.f.d.f.f.d.d.K D N 1 .                               ",
"                      . n N D i.d.d.d.d.d.d.f.s.L 1 .                                 ",
"                      . m p.s.s.f.f.f.f.d.f.f.f.d.b .                                 ",
"                    O n N H H G i.f.f.d.f.f.f.f.f.b .                                 ",
"                    . M D D D D H K K P f.g.P K L 8 .                                 ",
"                    X M D 8 % < % # % % 2 2 % % % o .                                 ",
"                    . 1 1 q l l W ............Y * . .                                 ",
"                    . . : ( P.T.-X5X5X5X5X5X5X;XW X . .                               ",
"                    . - ` P.eX5X6X4X4X4X4X4X4X6XP.l o .                               ",
"                  . X ) 7.U.=X7X6X4X4X4X4X4X4X4X Xk.k . .                             ",
"                  . X R ^ = l R.6X4X4X4X4X4X4X4X3XY.Y . .                             ",
"                  . . X X X (  X3X2X2X2X2X2X3X3XR.F.R . .                             ",
"                  . . . X ) F.J.J.G.J.J.J.J.J.J.9.] y .                               ",
"                  . . . C ` 8.F.F.8.[ [ [ [ [ [ [ y X .                               ",
"                    . . Q ]  . .9.` _ ( _ ( ` ] e X .                                 ",
"                    . l 0 : > l 9.8.7.7.7._ r : o . .                                 ",
"                    . 0 k y Z 9.j.J.J.J.G.] + . . . .                                 ",
"                    . . r u R Y Y Y R Y R y X . : = .                                 ",
"                    . . . . . . . . . . . . . : Q e .                                 ",
"                      . . . = u U I I I U U o Y [ 0 .                                 ",
"                      . . * 9.8X0X0X0X0X0X;Xe T [ 0 .                                 ",
"                        . ^ [.8X2X8X8X8X-X7 T ` ( 0                                   ",
"                        . X o * * * * @ - ^ ` ` 0                                     ",
"                            . . 0 ^ ^ ^ ^ ( ` ` :                                     ",
"                            . . X * * * @ * ^ ` :                                     ",
"                            . . . . . o l Z 6.j.r                                     ",
"                            . . . * l l [ 7.F.J.e                                     ",
"                          . 3 k y z [ [ 6.F.F.H.e                                     ",
"                          . 3 T [ ` ` 6.H.F.F.H.e                                     ",
"                          e o i ` ` [ j.F.F.F.G.e                                     ",
"                        .  .i ; ^ ` _ ] 8.F.F.G.e                                     ",
"                        . ) l X 0 ` _ _ ` j.F.J.e                                     ",
"                        . . ` C : ` ` _ _ ` j.H.e                                     ",
"                          . ( R . 0 ( ( ( ( ] k.y                                     ",
"                            X S.S.. o o o + ^ ] ( 0                                   ",
"                            . ^ ;XS.. . . . o + * o .                                 ",
"                              = ` [.Y.Y.Y.Y.Y.Y.i .                                   ",
"                                = o.0X0X0X0X0X0XW                                     ",
"                                  i o.o.o.o.o.o.q                                     ",
"                                    . . . . . . .                                     "
};
