/* XPM */
static char *result[] = {
/* columns rows colors chars-per-pixel */
"62 75 214 2 ",
"   c #010000",
".  c #0A0605",
"X  c #020A06",
"o  c #0D0807",
"O  c #060D09",
"+  c #0C0B0A",
"@  c #140C0A",
"#  c #120E0C",
"$  c #06160D",
"%  c #09140D",
"&  c #13100E",
"*  c #1B110E",
"=  c #0A1C12",
"-  c #161311",
";  c #1C1513",
":  c #1A1816",
">  c #1C1C1B",
",  c #20100F",
"<  c #251612",
"1  c #2A1A16",
"2  c #271B18",
"3  c #321C16",
"4  c #311E19",
"5  c #0C2315",
"6  c #092E19",
"7  c #16231A",
"8  c #0B331C",
"9  c #29221D",
"0  c #34211B",
"q  c #38211A",
"w  c #1A2C22",
"e  c #0C3C21",
"r  c #1B3425",
"t  c #1A3A26",
"y  c #2C2523",
"u  c #292A2A",
"i  c #372925",
"p  c #342C24",
"a  c #3A2E2C",
"s  c #233426",
"d  c #3A3127",
"f  c #3B312D",
"g  c #2F3233",
"h  c #373433",
"j  c #45281D",
"k  c #442B25",
"l  c #4C2E24",
"z  c #49362B",
"x  c #563328",
"c  c #5A352C",
"v  c #413532",
"b  c #473C35",
"n  c #593933",
"m  c #653C2D",
"M  c #663D34",
"N  c #16472A",
"B  c #274A35",
"V  c #2D553C",
"C  c #2F583F",
"Z  c #1F663C",
"A  c #484138",
"S  c #4C403B",
"D  c #52463C",
"F  c #6C4135",
"G  c #674239",
"H  c #794837",
"J  c #2F5D41",
"K  c #305940",
"L  c #2F6243",
"P  c #2E6D48",
"I  c #306846",
"U  c #2E774C",
"Y  c #30784D",
"T  c #4B4745",
"R  c #554844",
"E  c #5A4A45",
"W  c #5D4D49",
"Q  c #5C514B",
"!  c #4F5152",
"~  c #614C4A",
"^  c #794D44",
"/  c #62524C",
"(  c #6A5B4A",
")  c #7B5248",
"_  c #685752",
"`  c #6D5A55",
"'  c #715C57",
"]  c #735E58",
"[  c #75615B",
"{  c #79645E",
"}  c #7F6E59",
"|  c #5B696C",
" . c #69696A",
".. c #796761",
"X. c #667275",
"o. c #797777",
"O. c #844F38",
"+. c #8A533D",
"@. c #84564A",
"#. c #925941",
"$. c #995D44",
"%. c #96594B",
"&. c #9B5D4C",
"*. c #8D5B51",
"=. c #866C59",
"-. c #9C6556",
";. c #85745E",
":. c #AA674C",
">. c #A96A57",
",. c #B76D54",
"<. c #AA745F",
"1. c #BA7157",
"2. c #816B65",
"3. c #856F68",
"4. c #88736A",
"5. c #8B736D",
"6. c #967967",
"7. c #8E7770",
"8. c #857C79",
"9. c #927B74",
"0. c #947C75",
"q. c #AE7E6E",
"w. c #B87767",
"e. c #C27559",
"r. c #C27758",
"t. c #CE7D5C",
"y. c #D37F5C",
"u. c #C17D6F",
"i. c #C27E70",
"p. c #2B8D53",
"a. c #318754",
"s. c #30975A",
"d. c #319E5E",
"f. c #2EA15D",
"g. c #30A35F",
"h. c #31A561",
"j. c #31AC64",
"k. c #31B166",
"l. c #948067",
"z. c #91837E",
"x. c #9B837C",
"c. c #B59579",
"v. c #D7835F",
"b. c #D8845F",
"n. c #CB846E",
"m. c #D78360",
"M. c #DB8661",
"N. c #DC8B67",
"B. c #D38A7A",
"V. c #C8957E",
"C. c #D8927B",
"Z. c #E28862",
"A. c #E39A7A",
"S. c #758689",
"D. c #878484",
"F. c #8A8B8B",
"G. c #9C8984",
"H. c #8E9698",
"J. c #929292",
"K. c #999A9A",
"L. c #A58B84",
"P. c #A9918A",
"I. c #A79C98",
"U. c #B0A295",
"Y. c #95A8AD",
"T. c #A8A7A6",
"R. c #B5ACA8",
"E. c #B8B1AE",
"W. c #A7B8BB",
"Q. c #B9B4B2",
"!. c #BBBAB9",
"~. c #DD9581",
"^. c #E79886",
"/. c #D5A487",
"(. c #D7B995",
"). c #E7A589",
"_. c #E6AE93",
"`. c #F9A994",
"'. c #E8B799",
"]. c #F2BC9E",
"[. c #C1BEBC",
"{. c #DEC09B",
"}. c #E3C39E",
"|. c #EFC29F",
" X c #EEC7A6",
".X c #FAC6A5",
"XX c #F5C8A7",
"oX c #F5D2AA",
"OX c #FCD4AD",
"+X c #E8C2B0",
"@X c #F3CCB7",
"#X c #FFDDB3",
"$X c #F3D1BF",
"%X c #FFE4B9",
"&X c #FFE8BC",
"*X c #C3C4C4",
"=X c #C7CACA",
"-X c #D2CDCB",
";X c #CAD5D7",
":X c #DAD5D3",
">X c #F7D5C2",
",X c #F9DAC8",
"<X c #E9D9D1",
"1X c #FDE6D8",
"2X c #CEE0E3",
"3X c #D2E7EB",
"4X c #D5EEF2",
"5X c #D6F1F6",
"6X c #D7F3F8",
"7X c #DAF5FB",
"8X c #EAEAEA",
"9X c gray95",
"0X c #FEFFFF",
"qX c None",
/* pixels */
"qXqXqXqXqXqXqXqXqXqXqXqXqXqXqXqXqXqXqXqXqXqXqXqXqXqXqXqXqXqXqXqXqXqXqXqXqXqXqXqXqXqXqXqXqXqXqXqXqXqXqXqXqXqXqXqXqXqXqXqXqXqX",
"qXqXqXqXqXqXqXqXqXqXqXqXqXqXqXqXqXqXqXqXqXqXqXqXqXqXqXqXqXqXqXqXqXqXqXqXqXqXqXqXqXqXqXqXqXqXqXqXqXqXqXqXqXqXqXqXqXqXqXqXqXqX",
"qXqXqXqXqXqXqXqXqXqXqXqXqXqXqXqXqXqXqXqXqXqXqXqXqXqXqXqXqXqXqXqXqXqXqXqXqXqXqXqXqXqXqXqXqXqXqXqXqXqXqXqXqXqXqXqXqXqXqXqXqXqX",
"qXqXqXqXqXqXqXqXqXqXqXqXqXqXqXqXqXqXqXqXqXqXqXqXqXqXqXqXqXqXqXqXqXqXqXqXqXqXqXqXqXqXqXqXqXqXqXqXqXqXqXqXqXqXqXqXqXqXqXqXqXqX",
"qXqXqXqXqXqXqXqXqXqXqXqXqXqXqXqXqXqXqXqXqXqXqXqXqXqXqXqXqXqXqXqXqXqXqXqXqXqXqXqXqXqXqXqXqXqXqXqXqXqXqXqXqXqXqXqXqXqXqXqXqXqX",
"qXqXqXqXqXqXqXqXqXqXqXqXqXqXqXqXqXqXqXqXqXqXqXqXqXqXqXqXqXqXqXqXqXqXqXqXqXqXqXqXqXqXqXqXqXqXqXqXqXqXqXqXqXqXqXqXqXqXqXqXqXqX",
"qXqXqXqXqXqXqXqXqXqXqXqXqXqXqXqXqXqXqXqXqXqXqXqXqXqXqXqXqXqXqXqXqXqXqXqXqXqXqXqXqXqXqXqXqXqXqXqXqXqXqXqXqXqXqXqXqXqXqXqXqXqX",
"qXqXqXqXqXqXqXqXqXqXqXqXqXqXqXqXqXqXqXqXqXqXqXqXqXqXqXqXqXqXqXqXqXqXqXqXqXqXqXqXqXqXqXqXqXqXqXqXqXqXqXqXqXqXqXqXqXqXqXqXqXqX",
"qXqXqXqXqXqXqXqXqXqXqXqXqXqXqXqXqXqXqXqXqXqXqXqXqXqXqXqXqXqXqXqXqXqXqXqXqXqXqXqXqXqXqXqXqXqXqXqXqXqXqXqXqXqXqXqXqXqXqXqXqXqX",
"qXqXqXqXqXqXqXqXqXqXqXqXqXqXqXqXqXqXqXqXqXqXqXqXqXqXqXqXqXqXqXqXqXqXqXqXqXqXqXqXqXqXqXqXqXqXqXqXqXqXqXqXqXqXqXqXqXqXqXqXqXqX",
"qXqXqXqXqXqXqXqXqXqXqXqXqXqXqXqXqXqXqXqXqXqXqXqXqXqXqXqXqXqXqXqXqXqXqXqXqXqXqXqXqXqXqXqXqXqXqXqXqXqXqXqXqXqXqXqXqXqXqXqXqXqX",
"qXqXqXqXqXqXqXqXqXqXqXqXqXqXqXqXqXqXqXqXqXqXqXqXqXqXqXqXqXqXqXqXqXqXqXqXqXqXqXqXqXqXqXqXqXqXqXqXqXqXqXqXqXqXqXqXqXqXqXqXqXqX",
"qXqXqXqXqXqXqXqXqXqXqXqXqXqXqXqXqXqXqXqXqXqXqXqXqXqXqXqXqXqXqXqXqXqXqXqXqXqXqXqXqXqXqXqXqXqXqXqXqXqXqXqXqXqXqXqXqXqXqXqXqXqX",
"qXqXqXqXqXqXqXqXqXqXqXqXqXqXqXqXqXqXqXqXqXqXqXqXqXqXqXqXqXqXqXqXqXqXqXqXqXqXqXqXqXqXqXqXqXqXqXqXqXqXqXqXqXqXqXqXqXqXqXqXqXqX",
"qXqXqXqXqXqXqXqXqXqXqXqXqXqXqXqXqXqXqXqXqXqXqXqXqXqXqXqXqXqXqXqXqXqXqXqXqXqXqXqXqXqXqXqXqXqXqXqXqXqXqXqXqXqXqXqXqXqXqXqXqXqX",
"qXqXqXqXqXqXqXqXqXqXqXqXqXqXqXqXqXqXqXqXqXqXqXqXqXqXqXqXqXqXqXqXqXqXqXqXqXqXqXqXqXqXqXqXqXqXqXqXqXqXqXqXqXqXqXqXqXqXqXqXqXqX",
"qXqXqXqXqXqXqXqXqXqXqXqXqXqXqXqXqXqXqXqXqXqXqXqXqXqXqXqXqXqXqXqXqXqXqXqXqXqXqXqXqXqXqXqXqXqXqXqXqXqXqXqXqXqXqXqXqXqXqXqXqXqX",
"qXqXqXqXqXqXqXqXqXqXqXqXqXqXqXqXqXqXqXqXqXqXqXqXqXqXqXqXqXqXqXqXqXqXqXqXqXqXqXqXqXqXqXqXqXqXqXqXqXqXqXqXqXqXqXqXqXqXqXqXqXqX",
"qXqXqXqXqXqXqXqXqXqXqXqXqXqXqXqXqXqXqXqXqXqXqXqXqXqXqXqXqXqXqXqXqXqXqXqXqXqXqXqXqXqXqXqXqXqXqXqXqXqXqXqXqXqXqXqXqXqXqXqXqXqX",
"qXqXqXqXqXqXqXqXqXqXqXqXqXqXqXqXqXqXqXqXqXqXqXqXqXqXqXqXqXqXqXqXqXqXqXqXqXqXqXqXqXqXqXqXqXqXqXqXqXqXqXqXqXqXqXqXqXqXqXqXqXqX",
"qXqXqXqXqXqXqXqXqXqXqXqXqXqXqXqXqXqXqXqXqXqXqXqXqXqXqXqXqXqXqXqXqXqXqXqXqXqXqXqXqXqXqXqXqXqXqXqXqXqXqXqXqXqXqXqXqXqXqXqXqXqX",
"qXqXqXqXqXqXqXqXqXqXqXqXqXqXqXqXqXqXqXqXqXqXqXqXqXqXqXqXqXqXqXqXqXqXqXqXqXqXqXqXqXqXqXqXqXqXqXqXqXqXqXqXqXqXqXqXqXqXqXqXqXqX",
"qXqXqXqXqXqXqXqXqXqXqXqXqXqXqXqXqXqXqXqXqXqXqXqXqXqXqXqXqXqXqXqXqXqXqXqXqXqXqXqXqXqXqXqXqXqXqXqXqXqXqXqXqXqXqXqXqXqXqXqXqXqX",
"qXqXqXqXqXqXqXqXqXqXqXqXqXqXqXqXqXqXqXqXqXqXqXqXqXqXqXqXqXqXqXqX                          qXqXqXqXqXqXqXqXqXqXqXqXqXqXqXqXqX",
"qXqXqXqXqXqXqXqXqXqXqXqXqXqXqXqXqXqXqXqXqXqXqXqXqX      qXqX  o M M #.$.$.$.$.$.$.$.$.F M @     qXqXqXqXqXqXqXqXqXqXqXqXqXqX",
"qXqXqXqXqXqXqXqXqXqXqXqXqXqXqXqXqXqXqXqXqXqXqXqXqX  x +.x * m #.1.e.m.M.M.M.M.Z.Z.b.b.r.r.+.O.F 4   qXqXqXqXqXqXqXqXqXqXqXqX",
"qXqXqXqXqXqXqXqXqXqXqXqXqXqXqXqXqXqXqXqXqXqXqXqXqXqXl :.:.O.e.Z.m.m.b.v.v.v.v.v.b.v.v.b.b.b.M.t.$.c q qXqXqXqXqXqXqXqXqXqXqX",
"qXqXqXqXqXqXqXqXqXqXqXqXqXqXqXqXqXqXqXqXqXqXqXqXqXqX  F Z.M.m.b.m.v.b.b.v.v.v.v.v.v.v.v.v.v.b.b.M.v.$.l qXqXqXqXqXqXqXqXqXqX",
"qXqXqXqXqXqXqXqXqXqXqXqXqXqXqXqXqXqXqXqXqXqXqXqXqXqXq -.A.v.m.v.v.v.v.v.v.v.v.v.v.v.v.v.v.v.v.v.v.v.M.r.T qXqXqXqXqXqXqXqXqX",
"qXqXqXqXqXqXqXqXqXqXqXqXqXqXqXqXqXqXqXqXqXqXqXqXqX  O.XX|.y.m.v.v.m.v.v.b.v.v.v.b.v.v.v.v.v.v.v.v.v.b.A.<Xq qXqXqXqXqXqXqXqX",
"qXqXqXqXqXqXqXqXqXqXqXqXqXqXqXqXqXqXqXqXqXqXqXqXqX  O.].@XN.y.v.v.v.v.v.v.v.v.v.v.v.v.v.v.v.v.v.v.v.m.).@Xv.0 qXqXqXqXqXqXqX",
"qXqXqXqXqXqXqXqXqXqXqXqXqXqXqXqXqXqXqXqXqXqXqXqXqX. +.].1X@XN.v.v.v.v.v.v.v.v.v.v.v.v.v.v.v.v.v.v.v.).>Xm.v.t.q qXqXqXqXqXqX",
"qXqXqXqXqXqXqXqXqXqXqXqXqXqXqXqXqXqXqXqXqXqXqXqX  M 1.M.'.1X@XN.M.y.v.v.m.m.m.b.b.b.m.y.m.m.m.m.M.m.).$Xb.y.v.r.q qXqXqXqXqX",
"qXqXqXqXqXqXqXqXqXqXqXqXqXqXqXqXqXqXqXqXqXqXqXqX  F &.1.M._.1X,X>X>.t.m.m.m.m.m.b.b.m.m.m.m.m.y._.,X@XN.r.< * * qXqXqXqXqXqX",
"qXqXqXqXqXqXqXqXqXqXqXqXqXqXqXqXqXqXqXqXqXqXqXqX  M &.&.,.Z.A.C.C.&.+X>X>X).,.,.A.>X>X$X>.'.>X>X1X@Xn.:.v.$.o qXqXqXqXqXqXqX",
"qXqXqXqXqXqXqXqXqXqXqXqXqXqXqXqXqXqXqXqXqXqXqXqX  F &.c 1 q x :.:.%.c.~.).n.m x u.).).^.k c.).).).A.v.:.j l #.< qXqXqXqXqXqX",
"qXqXqXqXqXqXqXqXqXqXqXqXqXqXqXqXqXqXqXqXqXqXqXqX  F m M *.*.^ j %.%.%.m j j * o c ,.y.:.@ +.y.e.O.F r.:.    l @ qXqXqXqXqXqX",
"qXqXqXqXqXqXqXqXqXqXqXqXqXqXqXqXqXqXqXqXqXqXqXqX  F 1 ) u.*.w.G k k l   ! g     o m >.l l l %.:.j 4 ,.:.    qX  qXqXqXqXqXqX",
"qXqXqXqXqXqXqXqXqXqXqXqXqXqXqXqXqXqXqXqXqXqXqXqX3 @.3 @.w.k ^ n.      T :X!.g     . l   x o 3 c 1 * H $.  qXqXqXqXqXqXqXqXqX",
"qXqXqXqXqXqXqXqXqXqXqXqXqXqXqXqXqXqXqXqXqXqXqX. c M * ) `.6.9 V.. < . =X0X0XF.        <     h >     < l   qXqXqXqXqXqXqXqXqX",
"qXqXqXqXqXqXqXqXqXqXqXqXqXqX4 4 0 & X 5 % 5 5 %       n _.U.H }.k &.@ *X0X0XD.      1 %.@ u -X .    qX    qXqXqXqXqXqXqXqXqX",
"qXqXqXqXqXqXqXqXqXqXqXqX; < w.).).*.N p.P g.j.P 5 O     / }.{. X^.^.i R.0X0XK.> : * <.~.; =X0Xo.+   qXqXqXqXqXqXqXqXqXqXqXqX",
"qXqXqXqXqXqXqXqXqXqXqX2 B.~.^.XX#X#X6.8 d.I j.j.j.P 7   + + 2 &.^.OX).k T.9X8X8XT.d oX Xp !.9X9X .  qXqXqXqXqXqXqXqXqXqXqXqX",
"qXqXqXqXqXqXqXqXqXqX1 B.^.^..X#X#X%Xl.8 d.L j.k.j.j.P B V r X 9 C.OX#XoXQ - 7 : D oXoX<.(.A > 7 &   qXqXqXqXqXqXqXqXqXqXqXqX",
"qXqXqXqXqXqXqXqXqXqX1 ^.^..X#X#X#X.X*.8 h.L j.j.j.Y K K K t , F i ~.OX#X}.(.(.(.}.%X#X XOX}.(.(.(   qXqXqXqXqXqXqXqXqXqXqXqX",
"qXqXqXqXqXqXqXqXqXqX4 B.q i i i q.A.M   r L j.U P K V K K V s 1 M k }.%X&Xl.p d d d A oX#X%X&X;.9 qXqXqXqXqXqXqXqXqXqXqXqXqX",
"qXqXqXqXqXqXqXqXqXqX. v H.Y.Y.w * 4 o     = 8 = = B J V C C V s 1   b D (.( T !.o.- c.%X%X%X;.9 qXqXqXqXqXqXqXqXqXqXqXqXqXqX",
"qXqXqXqXqXqXqXqXqXqX- S.X.| | ' =.=.*.G . r s w w B C C C C J V w r     b 9 g o.! & ( ( ( ( 9 qXqXqXqXqXqXqXqXqXqXqXqXqXqXqX",
"qXqXqXqXqXqXqXqXqX> ! X.  3 c ~.#XP.^ n   t C a.a.L V C C C K K K r 7 O   qXqXqXqXqXqX      qXqXqXqXqXqXqXqXqXqXqXqXqXqXqXqX",
"qXqXqXqXqXqXqXqXqXi 9.. n ,.).OX%Xc.9 & A O U j.k.a.L V C C K V r 7 t O   qXqXqXqXqXqXqXqXqXqXqXqXqXqXqXqXqXqXqXqXqXqXqXqXqX",
"qXqXqXqXqXqXqXqXqXu ~ - ~.^.oX#X#X%XP.} (.= g.k.k.k.a.L C C V r X t X   2 k ; - A A v qXqXqXqXqXqXqXqXqXqXqXqXqXqXqXqXqXqXqX",
"qXqXqXqXqXqXqXqXqXqX  * B.^..X%X#X#X#X#X/.$ g.k.k.k.k.a.K C B +     < . >.`.) A XXXX'.& qXqXqXqXqXqXqXqXqXqXqXqXqXqXqXqXqXqX",
"qXqXqXqXqXqXqXqXqXqXqX* u.^..X#X#X#X#X].>.= h.k.h.h.j.g.a.L L V $ . i.4 *..X;.9 >.<.V.o qXqXqXqXqXqXqXqXqXqXqXqXqXqXqXqXqXqX",
"qXqXqXqXqXqXqXqXqXqXqXqX@ u.^..X#XOX].-.= J h.j.P J L L Y f.f.f.p.% w.y c ).=.D #XOX}.@ qXqXqXqXqXqXqXqXqXqXqXqXqXqXqXqXqXqX",
"qXqXqXqXqXqXqXqXqXqXqXqXqX; w.^.).@.# > V J L L s.h.g.g.Z + $ $ %   @ .   G x D %X#X}.+ qXqXqXqXqXqXqXqXqXqXqXqXqXqXqXqXqXqX",
"qXqXqXqXqXqXqXqXqXqXqXqXqXqX1 1 1 s B B K J f.f.8 = = = V =.E / 3.5.4._ ; . . + z w.~.@ qXqXqXqXqXqXqXqXqXqXqXqXqXqXqXqXqXqX",
"qXqXqXqXqXqXqXqXqXqXqXqXqXqXqXqX  N h.d.d.p.8 6 _ E ` ~ ] G.' { P.P.=X;XW.W.F._ a < 4   qXqXqXqXqXqXqXqXqXqXqXqXqXqXqXqXqXqX",
"qXqXqXqXqXqXqXqXqXqXqXqXqXqXqXqX  5 t e e t _ _ L.2.0.7.7.0.] ..L.L.R.3X7X7X2X=XT.Q f   qXqXqXqXqXqXqXqXqXqXqXqXqXqXqXqXqXqX",
"qXqXqXqXqXqXqXqXqXqXqXqXqXqXqXqX  ; i v R ~ L.L.9...3.2.2.] y f 5.L.G.R.2X6X6X7X;XL.5.E - qXqXqXqXqXqXqXqXqXqXqXqXqXqXqXqXqX",
"qXqXqXqXqXqXqXqXqXqXqXqXqXqXqX    f 2.L.[.[.Q.Q.R i f f f a i f ] 7.7.x.Q.*X*X;X3XR.P.L.- qXqXqXqXqXqXqXqXqXqXqXqXqXqXqXqXqX",
"qXqXqXqXqXqXqXqXqXqXqXqXqXqXqX    i 3.R.6X5X4X4X! i y +   - S S S ] ] 5.9.9.7.I.=X*XP.x.- qXqXqXqXqXqXqXqXqXqXqXqXqXqXqXqXqX",
"qXqXqXqXqXqXqXqXqXqXqXqXqXqXqX  + S 5.R.5X4X4X4XU.L.[ 9         . b R R / ] ` ..x.L.L.x.- qXqXqXqXqXqXqXqXqXqXqXqXqXqXqXqXqX",
"qXqXqXqXqXqXqX      . # @       v 9.L.R.5X4X4X4XI.2.9                 o R [ [ [ 3.L.L.x.- qXqXqXqXqXqXqXqXqXqXqXqXqXqXqXqXqX",
"qXqXqXqXqXqX        : ` _ -     v 7.P.E.4X4X4X4XI...2 qXqXqXqXqXqX  . E 0.4.5.P.L.L.x._ o qXqXqXqXqXqXqXqXqXqXqXqXqXqXqXqXqX",
"qXqXqXqXqX    .   ; ` ` ' ` -   v 7.E.4X4X4X4X4XI.y qXqXqXqXqXqXqX. W x...5.L.L.L.L.9.# qXqXqXqXqXqXqXqXqXqXqXqXqXqXqXqXqXqX",
"qXqXqXqXqX  R R   : ] ' ] ' _ ; v 5.Q.5X4X4X4X4X8.< qXqXqXqXqXqX+ W 0.2.] 9.9.[ { { _ . qXqXqXqXqXqXqXqXqXqXqXqXqXqXqXqXqXqX",
"qXqXqXqXqX  / Q   : [ ' ] ` ' / / 4.Q.5X5X4X4X4X8.; qXqXqXqXqX+ E ` ..] ` [ 5.x.0./ &   qXqXqXqXqXqXqXqXqXqXqXqXqXqXqXqXqXqX",
"qXqXqXqXqX  / W   . y ] [ ] ' ] ' 4.Q.7X4X4X4XR.f qXqXqXqXqXqX# [ x.x.x.x.x._ u y y ' ` o qXqXqXqXqXqXqXqXqXqXqXqXqXqXqXqXqX",
"qXqXqXqXqX  8.o.    . y y ` [ ] ' { G.=X6X5X4X9.- qXqXqXqXqXqX. y f h h a a -   + ..:X:XT.u qXqXqXqXqXqXqXqXqXqXqXqXqXqXqXqX",
"qXqXqXqXqX  K.J.          2 p ~ { ] { G.*X!.I.h + qXqXqXqXqXqX    T o._ o.D.F.F.T.<X0X0X0Xh qXqXqXqXqXqXqXqXqXqXqXqXqXqXqXqX",
"qXqXqXqXqX  H.J.  o b  . . .b a v v v b W E f   qXqXqXqXqXqXqXqX. W J.[ D.K.K.K.K.J.J.J.F.> qXqXqXqXqXqXqXqXqXqXqXqXqXqXqXqX",
"qXqXqXqXqX  8.T.T Q -X0X0X0X-Xo.h -             qXqXqXqXqXqXqXqX                            qXqXqXqXqXqXqXqXqXqXqXqXqXqXqXqX",
"qXqXqXqXqX  b I.R.z.*X*X*X*X*X=XI.f   qXqXqXqXqXqXqXqXqXqXqXqXqXqXqXqXqXqXqXqXqXqXqXqXqXqXqXqXqXqXqXqXqXqXqXqXqXqXqXqXqXqXqX",
"qXqXqXqXqXqXqX                        qXqXqXqXqXqXqXqXqXqXqXqXqXqXqXqXqXqXqXqXqXqXqXqXqXqXqXqXqXqXqXqXqXqXqXqXqXqXqXqXqXqXqX",
"qXqXqXqXqXqXqXqXqXqXqXqXqXqXqXqXqXqXqXqXqXqXqXqXqXqXqXqXqXqXqXqXqXqXqXqXqXqXqXqXqXqXqXqXqXqXqXqXqXqXqXqXqXqXqXqXqXqXqXqXqXqX"
};
