/* XPM */
static char *_8c5bf5b137b4237bc97cbe11685919cG9iA2omNp78D84Px[] = {
/* columns rows colors chars-per-pixel */
"44 71 256 2 ",
"   c None",
".  c #010100",
"X  c #0A0605",
"o  c #0B0A09",
"O  c #070907",
"+  c #130C0B",
"@  c #190E0A",
"#  c #1B110E",
"$  c #0C1C14",
"%  c #081610",
"&  c #191413",
"*  c #1C1816",
"=  c #1C1B1B",
"-  c #131814",
";  c #06160F",
":  c #21140E",
">  c #2A1A15",
",  c #221C1A",
"<  c #251A16",
"1  c #331E19",
"2  c #321B16",
"3  c #16271C",
"4  c #0F281A",
"5  c #2A221E",
"6  c #3C231C",
"7  c #36211C",
"8  c #1B3325",
"9  c #1F3929",
"0  c #1A3927",
"q  c #192F22",
"w  c #2D2624",
"e  c #2A2826",
"r  c #322926",
"t  c #352C2A",
"y  c #3A2F2B",
"u  c #372623",
"i  c #3C332B",
"p  c #39372B",
"a  c #313231",
"s  c #3B3A39",
"d  c #25382D",
"f  c #41241D",
"g  c #442A24",
"h  c #4D2D24",
"j  c #442B24",
"k  c #4C312C",
"l  c #45332C",
"z  c #54342C",
"x  c #583528",
"c  c #413633",
"v  c #493C39",
"b  c #483D35",
"n  c #573831",
"m  c #623B2E",
"M  c #643C31",
"N  c #11532C",
"B  c #165732",
"V  c #144127",
"C  c #23412F",
"Z  c #264934",
"A  c #2E543D",
"S  c #2F583F",
"D  c #255D3B",
"F  c #30583F",
"G  c #29603F",
"H  c #4D423C",
"J  c #574B3C",
"K  c #6D443A",
"L  c #764739",
"P  c #2F5B40",
"I  c #315B41",
"U  c #1D7C46",
"Y  c #2D6A46",
"T  c #2E6845",
"R  c #306B48",
"E  c #31714B",
"W  c #31794E",
"Q  c #287547",
"!  c #4B4A4A",
"~  c #5A4A45",
"^  c #584A46",
"/  c #53595E",
"(  c #57595A",
")  c #5F504B",
"_  c #654E47",
"`  c #744A42",
"'  c #65534D",
"]  c #675A49",
"[  c #7A554A",
"{  c #6C5A55",
"}  c #675854",
"|  c #715D57",
" . c #735F58",
".. c #6F614E",
"X. c #7A6955",
"o. c #76615B",
"O. c #79635D",
"+. c #7C6A56",
"@. c #71624F",
"#. c #6B6D6E",
"$. c #7C6760",
"%. c #7A6964",
"&. c #627073",
"*. c #777878",
"=. c #7D706C",
"-. c #89533F",
";. c #83544A",
":. c #89594E",
">. c #885243",
",. c #935942",
"<. c #985B48",
"1. c #895A4E",
"2. c #9A6459",
"3. c #976156",
"4. c #85715C",
"5. c #9E6046",
"6. c #A46349",
"7. c #A7664A",
"8. c #A56A5A",
"9. c #B36C51",
"0. c #B97456",
"q. c #AF7057",
"w. c #826C66",
"e. c #856F68",
"r. c #8A736C",
"t. c #8E7770",
"y. c #8F7871",
"u. c #937C75",
"i. c #A96E61",
"p. c #A97667",
"a. c #B97768",
"s. c #C7785A",
"d. c #D37F5B",
"f. c #318452",
"g. c #318C56",
"h. c #329259",
"j. c #319C5D",
"k. c #298A51",
"l. c #31A25F",
"z. c #31A561",
"x. c #31AE65",
"c. c #31B266",
"v. c #32B468",
"b. c #86817F",
"n. c #9D857E",
"m. c #9F896F",
"M. c #A28C71",
"N. c #BC8574",
"B. c #B39A7D",
"V. c #D7835F",
"C. c #D9845F",
"Z. c #DA8661",
"A. c #DD8B68",
"S. c #C98976",
"D. c #D48879",
"F. c #DB9679",
"G. c #E28964",
"H. c #6D7D81",
"J. c #7A8C90",
"K. c #929292",
"L. c gray61",
"P. c #958885",
"I. c #A48B84",
"U. c #A68D86",
"Y. c #A8938B",
"T. c #AD9B96",
"R. c #A79792",
"E. c #B79D80",
"W. c #90A2A6",
"Q. c #B5ABA8",
"!. c #B9B7B6",
"~. c #B1A197",
"^. c #D99883",
"/. c #E69584",
"(. c #E99786",
"). c #E99887",
"_. c #EC9C89",
"`. c #F09B8A",
"'. c #D7B996",
"]. c #D1AC8D",
"[. c #EBA48D",
"{. c #E4A389",
"}. c #EAAC92",
"|. c #F7A692",
" X c #E9B59B",
".X c #F5B89B",
"XX c #DABCAE",
"oX c #DFC09B",
"OX c #E1C19C",
"+X c #EBCBA4",
"@X c #ECC5A4",
"#X c #F7CCA7",
"$X c #FDD5AE",
"%X c #F9D6AD",
"&X c #EDC9B7",
"*X c #F5CCB8",
"=X c #FFDCB2",
"-X c #FAD3BF",
";X c #FFE1B6",
":X c #FFE6BA",
">X c #FFE8BB",
",X c #DCC6B9",
"<X c #CDC6C4",
"1X c gray86",
"2X c #D0D2D2",
"3X c #F9D8C7",
"4X c #FEE6D8",
"5X c #D5EDF2",
"6X c #DBF5FA",
"7X c #D8F2F8",
"8X c #D1E6EA",
"9X c gray89",
"0X c gray91",
"qX c gray94",
"wX c #FEFEFE",
"eX c #FFEFE2",
"rX c black",
"tX c black",
"yX c black",
"uX c black",
"iX c black",
"pX c black",
"aX c black",
"sX c black",
"dX c black",
"fX c black",
"gX c black",
"hX c black",
"jX c black",
"kX c black",
"lX c black",
"zX c black",
"xX c black",
"cX c black",
"vX c black",
"bX c black",
"nX c black",
"mX c black",
"MX c black",
"NX c black",
"BX c black",
"VX c black",
"CX c black",
"ZX c black",
"AX c black",
"SX c black",
"DX c black",
"FX c black",
"GX c black",
"HX c black",
"JX c black",
"KX c black",
"LX c black",
"PX c black",
"IX c black",
"UX c black",
/* pixels */
"                                        . . . . . . . . . . . .                         ",
"                                . . . @ K 6.6.6.7.6.6.7.6.<.K K X . .                   ",
"                              7 L ,.-.-.s.C.Z.Z.C.A.C.C.A.C.s.s.<.-.K > .               ",
"                          . x 5.s.A.A.C.C.C.V.V.V.V.C.V.V.V.C.Z.Z.Z.s.,.L h             ",
"                        x K 9.G.C.V.C.C.V.V.V.V.C.V.V.C.V.V.V.V.V.V.Z.G.G.9.h           ",
"                      x 9.s.d.C.C.C.V.V.V.V.V.V.V.V.V.V.C.V.V.V.V.V.C.C.d.Z.0.!         ",
"            5 b H i X -.L -.S.A.C.C.V.V.V.C.V.C.V.V.C.V.V.V.Z.V.V.C.V.C.Z.d.[.,Xf 6     ",
"          * 4.:X:X@Xi . # q.3X Xd.V.Z.d.Z.Z.V.V.V.V.V.V.Z.V.V.V.V.V.d.Z.d.d.{.3XC.V.6   ",
"        X 4.=X$X=X=X+Xy 5.&XeX Xd.V.Z.Z.d.d.V.V.V.C.V.V.V.V.V.V.V.V.Z.Z.Z.Z.}.-XV.0.0.: ",
"      . :.).).}.$X$X=X#Xp ~.4X XZ.V.d.Z.Z.Z.V.V.V.V.V.V.Z.Z.V.V.V.V.d.Z.A.}.4X*X9.@ O . ",
"      . :.`./.)._.[.$X=X+XH Y.eX Xd.Z.Z.d.Z.Z.Z.V.9.9.Z.Z.Z.V.V.V.Z.Z. X4X3X*Xq.#       ",
"      . :._./.)./.).[.[.$Xi >.*X4X3X3X&X8.*X3X3XS.h h S.3X3X&X8.&X3X3X4X@XF.A.V.5.O     ",
"      . m D._./.).D.z D.|.y + r a _ N.p.3.F.^ s 5 X j 2.S.F.p.w p.F.S.' K s.C.C.0.O     ",
"    . ) l 2 L D.D.j . j D.u n 2.2.K 6 <.,.h . *.a . + z <.<.1 m 1 ,.<.1 X M 0.C.0.X     ",
"    . r #.J.( f j . z [ ` @ 2.i.>.a.K g 6 . *.qX!.s . 7 >.1 . u X 2 j # . + m s.s.X     ",
"    . j #.J.*.&.&.#.n [ X . 3.8.k ;.a.. . o 9XwXwX#.. # 6 . . . . . . . . . @ M 6.X     ",
"    . i.3.f ( W.W.J.O . > X 3..X:.l N.. . O 1XwXwX#.. . . X > . . ! = . . .   + h X     ",
"    & i.`.|.p.5 . . . . L h `  XB.4.].. : o 1XwXwX#.. . X 6 <.+ s 9X! . . .     . .     ",
"  . >.D./..X:XB.. . . . m -.1 X.'.OXB.+ >.u !.wXwXK.e = > a.^.& 9XwX#.o . .             ",
"  . a.)./..X:XE.. . . . . . x h X 1 K 2 2.^.u !.9X9X9XK.J =X'.r <X0X0X( . .             ",
"  X a.)./..X:XE.. . O . . . . h h . 6 ^.%X$X#XH - - & ] %X+Xi.OXp - = o . .             ",
"X L D././..X=X#X8.O Z Z o . . X X . 1 _.=X=X=X+XoXoXoX+X=X=X#X=X@XoX@XJ . .             ",
"X a././..X$X=X#Xa.o P P Z Z $ . . . . l [.=X=X;X..M.>X;X;X=X;X=X=X=X:X] . .             ",
"X D.(..X$X=X$XS.p Q P P g.j.k.D - . < 3.l {.=X;X]...p p i ] %X=X;X:XX.[ n .             ",
"  k ].;X:X$Xa.p U x.P S l.c.v.z.Y $ 7 /.:.z J ^.;X'.m.M.M.B.;X=X..J [ D.` .             ",
"    ] X.X.[ l B x.W P P l.c.c.c.z.T e [ ).[ O k [ X.4.+.+.+.X.| h f a.|.` .             ",
"      . . . $ E f.P I I f.g.z.c.c.l.T 5 [ :.+ . . O $ $ $ % . f >.a.F.a.h               ",
"        . . - 9 9 9 9 9 9 9 Q h.j.c.z.Y ; ; $ $ 4 Z T I T A 3 M <.2.2.j                 ",
"              . . . . . . . 8 T g.c.c.z.E R R E j.W Z C C d 9 X n @ .                   ",
"                        . O 9 W x.x.c.x.c.x.l.l.E I q . . . . . .                       ",
"                        O 9 I P f.c.x.x.x.x.R T P S 3 .                                 ",
"                      . d A I W x.x.x.x.x.x.z.x.W 3 .                                   ",
"                      O Z P f.x.x.x.x.x.x.x.x.c.W 4 .                                   ",
"                      . Z P T R T T R R T T z.c.z.V .                                   ",
"                      . Z P P P A A P P P P Y E W 3 .                                   ",
"                    O 8 A P P W h.h.h.h.h.h.h.h.h.D $                                   ",
"                    . A P 0 $ 0 N N N N N N N B B D 8 .                                 ",
"                    3 8 8 e t ! / / / / / / c u X $ $ .                                 ",
"                  O 0 . & } R.2X6X6X6X7X7X7X!.u.c X . .                                 ",
"                  . . & { n.<X7X5X5X5X5X5X5X7X!.u.c X .                                 ",
"                  . X ' r.y.!.8X8X5X5X5X5X5X5X5XQ.r.y .                                 ",
"                  . X ~ & O ^ u.!.7X5X5X5X5X5X5XQ.r.y .                                 ",
"                  . . o . v y.M.!.7X5X5X5X5X5XQ.U.r.y .                                 ",
"                  . . . H { o.y.Y.T.T.T.T.T.T.U.e.O.y .                                 ",
"                    . . ' o.| o.y.U.I.I.U.I.w.$.O.c o .                                 ",
"                    . . * _  .| O.w.w.w.e.e.O. .O.w . .                                 ",
"                    . y O & ^ | { { o.r.' r w r r # . .                                 ",
"                    X t i t { u.y.y.u.U.| y X . . . .                                   ",
"                    . . i v ) { { } } ' v v X . . . .                                   ",
"                    . . . . . . . . . . . . . . # o .                                   ",
"                      . . . + e a a a a a a X o ^ r .                                   ",
"                      . . o %.2XwXwXwXwXwX1Xe ^  .w .                                   ",
"                        . ' <XqXqXqXqXqX1Xe ) | o.w .                                   ",
"                        . o * = = = = = w ~ |  . .w .                                   ",
"                              . , ) ^ ^ ^ | |  .r o                                     ",
"                              . t O.o. . . .|  .,                                       ",
"                            . . + , y | | |  .r.r                                       ",
"                            . . . o v | | |  .n.y                                       ",
"                          . , t w v o.| | | | n.t                                       ",
"                          . w ' O. .| { | | { n.t                                       ",
"                          w O 5 '  .o.O.| | $.I.t                                       ",
"                        . %.c . w ' %.I.$.$.I.U.t                                       ",
"                        .  .b . . , | I.I.I.U.U.t                                       ",
"                          X } H . . = O.I.I.I.U.t                                       ",
"                          . { ^ . . . * | O.n.U.t                                       ",
"                            + P.*.. . . * ' O.w.' w                                     ",
"                            . } <X*.. . . & & & , o .                                   ",
"                              , e.!.L.L.L.L.L.L.a .                                     ",
"                                = P.wXwXwXwXwXwX(                                       ",
"                                  s K.K.K.K.K.K.t                                       ",
"                                    . . . . . . .                                       "
};
