/* XPM */
static char *_c9a63bebbe74f9acd145dfd29491a64HNBeR5Q8rAByidir[] = {
/* columns rows colors chars-per-pixel */
"45 53 256 2 ",
"   c None",
".  c #010101",
"X  c #0A0605",
"o  c #0C0807",
"O  c #0D0C0B",
"+  c #050A08",
"@  c #120D0B",
"#  c #190F0B",
"$  c #140A07",
"%  c #06140D",
"&  c #14110E",
"*  c #1C110E",
"=  c #0C1A12",
"-  c #081610",
";  c #151211",
":  c #1B1412",
">  c #1C1A16",
",  c #23130F",
"<  c #231511",
"1  c #221B16",
"2  c #2B1A14",
"3  c #241E1C",
"4  c #2C1B17",
"5  c #321E17",
"6  c #092516",
"7  c #14251A",
"8  c #172B1E",
"9  c #2C241E",
"0  c #23211A",
"q  c #36211C",
"w  c #3C231D",
"e  c #1B2C20",
"r  c #1C3425",
"t  c #1D3929",
"y  c #153822",
"u  c #2B2422",
"i  c #262829",
"p  c #322923",
"a  c #372926",
"s  c #23392A",
"d  c #3C322C",
"f  c #3D3735",
"g  c #42271E",
"h  c #492C24",
"j  c #48362D",
"k  c #55332B",
"l  c #5A352C",
"z  c #563227",
"x  c #443935",
"c  c #4A3D39",
"v  c #403531",
"b  c #5A3B34",
"n  c #603A2D",
"m  c #633B33",
"M  c #6A3E36",
"N  c #134C2C",
"B  c #22422F",
"V  c #264934",
"C  c #2B533B",
"Z  c #205436",
"A  c #304931",
"S  c #1B693B",
"D  c #4E423B",
"F  c #51443B",
"G  c #69433A",
"H  c #75453A",
"J  c #3E4446",
"K  c #315A41",
"L  c #2F5B40",
"P  c #1B7140",
"I  c #326847",
"U  c #2C7248",
"Y  c gray26",
"T  c #484A4B",
"R  c #594945",
"E  c #574844",
"W  c #545455",
"Q  c #4B5658",
"!  c #63524D",
"~  c #635545",
"^  c #6E5B55",
"/  c #685853",
"(  c #715D57",
")  c #735E58",
"_  c #7B4F46",
"`  c #75615C",
"'  c #7B6958",
"]  c #71614E",
"[  c #526063",
"{  c #676766",
"}  c #7C6660",
"|  c #7E6962",
" . c #746F69",
".. c #777675",
"X. c #89533C",
"o. c #834E41",
"O. c #8C5444",
"+. c #865448",
"@. c #95594A",
"#. c #9B5C4B",
"$. c #945945",
"%. c #915B51",
"&. c #A05F4E",
"*. c #99624A",
"=. c #836D58",
"-. c #976458",
";. c #86735D",
":. c #9D725D",
">. c #A9664D",
",. c #B36C4F",
"<. c #A66755",
"1. c #B36C53",
"2. c #BC7255",
"3. c #826C66",
"4. c #856F69",
"5. c #88736D",
"6. c #967A65",
"7. c #8E7771",
"8. c #937B75",
"9. c #977F79",
"0. c #A86D61",
"q. c #BC796A",
"w. c #B57567",
"e. c #A57D71",
"r. c #C5795A",
"t. c #CC7C5B",
"y. c #C57756",
"u. c #D37E5B",
"i. c #C17969",
"p. c #2A8B52",
"a. c #318754",
"s. c #319259",
"d. c #31A460",
"f. c #31AE65",
"g. c #31B166",
"h. c #33B86A",
"j. c #2FAC63",
"k. c #69807C",
"l. c #9C847D",
"z. c #94817C",
"x. c #9B8469",
"c. c #A48E72",
"v. c #B59A7D",
"b. c #AC8C72",
"n. c #D7835F",
"m. c #D8835F",
"M. c #C98168",
"N. c #DA8561",
"B. c #D88967",
"V. c #CD8774",
"C. c #D78C7B",
"Z. c #C8967A",
"A. c #DD9575",
"S. c #DC906E",
"D. c #E29979",
"F. c #E68C66",
"G. c #8B8B8B",
"H. c #848383",
"J. c #9F8882",
"K. c #999A9A",
"L. c #8D8E90",
"P. c #A58C85",
"I. c #A48D86",
"U. c #A3908B",
"Y. c #AD9B96",
"T. c #AA9690",
"R. c #B79F80",
"E. c #B2A19A",
"W. c #96A9AD",
"Q. c #A2A3A3",
"!. c #ABACAC",
"~. c #B8B9B9",
"^. c #DC9381",
"/. c #CC9F89",
"(. c #E59984",
"). c #F19A8A",
"_. c #C3A888",
"`. c #D9AC99",
"'. c #D8B694",
"]. c #D5AA8B",
"[. c #E4A588",
"{. c #F1A28E",
"}. c #EAAC92",
"|. c #F6A993",
" X c #ECB598",
".X c #F1B196",
"XX c #F5B79B",
"oX c #EDB48D",
"OX c #EDBCA5",
"+X c #F8BDA4",
"@X c #D6B3A5",
"#X c #EBCBA4",
"$X c #E6C6A0",
"%X c #F7C6A4",
"&X c #F5D4AB",
"*X c #FBD4AD",
"=X c #F9D8AE",
"-X c #F4CDB9",
";X c #FFDCB2",
":X c #F6D0BD",
">X c #FFE1B6",
",X c #FFE6BA",
"<X c #B6C9CE",
"1X c #C8D2D4",
"2X c #D8D8D7",
"3X c #C5C9CB",
"4X c #F8D8C7",
"5X c #FCE2D2",
"6X c #FEE8DA",
"7X c #D0E3E6",
"8X c #D5EDF2",
"9X c #DAF4F9",
"0X c #CFE2E6",
"qX c #E8E7E7",
"wX c white",
"eX c #F4F3F3",
"rX c black",
"tX c black",
"yX c black",
"uX c black",
"iX c black",
"pX c black",
"aX c black",
"sX c black",
"dX c black",
"fX c black",
"gX c black",
"hX c black",
"jX c black",
"kX c black",
"lX c black",
"zX c black",
"xX c black",
"cX c black",
"vX c black",
"bX c black",
"nX c black",
"mX c black",
"MX c black",
"NX c black",
"BX c black",
"VX c black",
"CX c black",
"ZX c black",
"AX c black",
"SX c black",
"DX c black",
"FX c black",
"GX c black",
"HX c black",
"JX c black",
"KX c black",
"LX c black",
"PX c black",
"IX c black",
"UX c black",
/* pixels */
"                            , 2 2       : * * * < 2 2 2 2 < * *                           ",
"                          . n u.$.@ @ , O.#.#.#.2.n.n.n.n.t.*.#.q * & @ $                 ",
"                          . . n m.y.O.@.u.n.n.n.n.n.n.n.n.n.n.n.t.t.n.1.l X o             ",
"                            . a 1.N.u.t.n.n.n.n.n.n.n.N.n.n.m.n.n.n.N.n.t.y.*.X           ",
"                            . w @.>.N.N.n.n.n.n.N.n.n.n.n.n.n.n.N.n.n.n.n.m.n.>..         ",
"                            w b.`.y.n.N.n.n.N.n.n.n.n.N.n.n.n.n.m.n.n.n.N.m.m.B.E.;       ",
"                          . h /.-Xu.n.u.N.n.n.n.n.n.n.n.n.n.n.n.n.n.n.n.n.n.n.B.5X*.&     ",
"                          . k }.5X}.u.N.N.n.n.N.n.n.N.n.n.n.m.m.n.N.n.n.n.n.S.OX}.B.X.,   ",
"                          5 $.D.-X5X{.N.t.n.n.n.N.n.n.n.N.n.n.m.m.N.N.N.u.u.D.5Xm.N.F.X.q ",
"                        . l 1.t.A.4X5X}.[.r.u.n.u.n.m.n.n.n.n.n.m.u.u.u.S.[.}.OXn.X.X.$.q ",
"                        < M @.<.u.S.-X-X-X<.V.[.[.S.u.t.B.D.D.^.M.A.(.(.$X6XOXy.n.g . . . ",
"                      # H #.@.o.o.,.,.t.t.*.@X4X4X}.>.o.S.4X4X4X-.`.4X4X4XOXt.*.,.n.g     ",
"                    . M o.O.O.k * * 4 o.@.@.%.1.r.>.k : $.M.n.n.< $.N.N.r.r.n.2.* >.y.q   ",
"                    . X X m h b ^.C.w.< o.O.O.q & @ . . , $.n.*.* m 2.2.l 5 >.2.X X X .   ",
"                        . l h M 0.5 <.q.< o $ . G.H.. . . * O.* G 5 n #.k < <.2.X         ",
"                        . @ X G ^.%.a V.@ . . G.eXeXH.. . . & . # X o * @ . w O..         ",
"              . . . . . . . . G XXR.< `.@ k $ !.wXwXW.. . . . l & . ..W . .   < .         ",
"          . % r r r s r r t - , 6.&XR.&X:.i., !.wXwXY.. . o z ,.< { qXH.. .               ",
"        = e s K K C a.a.a.I 7 . 1 ' =./.(.XXc.{ 3XwX2XG...@ Z.oX, ~.wX1XW .               ",
"      = B I K L a.a.h.h.h.a.s 7 % o l z (.*X,Xx. .L.G.K.G.' &X].=.z.G.K.W .               ",
"    . 7 t r B I s.P P P P N V I r a C.b %. X;X,Xx.x F D ] ,X>Xv.*X=.D F 9 .               ",
"  . 1 4 : , 0 B s . a d d a d C s u q.^.h -.#X,X,X#X_.Z._._.R.*X;X>X,X#X' .               ",
". # w.i.<.@.m * . a #X>X*X}.m - K V 3 q.q., c.'.=X6.+ s u . p $X>X;X#X] .                 ",
". w.(.%X X_ j 0.u #X>X;X.Xq.z . = K V O O + + . x.' T qX~.: '.#X#X#X~                     ",
". q.%X>X=.f ( p ^.;X;X;X;X}.^._ - I C C C C C C e X X ; ; . & & & &                       ",
". w.%X,X' Q W.q *X;X;X;X;X.X)._ - I d.d.d.d.I 7 .                                         ",
". q.{.|.H [ W.p ;X;X;X;X;X.X).+.6 d.g.g.g.g.y . . . . . . . . .                           ",
"  a q.|.H [ W.4 .X;X;X;X;XXX%.A p.g.g.f.f.h.6 . b 0.b 9 v.v.c.*                           ",
"    h b 1 W H.< i..X;XXX.X|.M N h.g.f.g.j.N ..i +.+X6.q Z.Z.*X0                           ",
"        . 3 a X k i.XX{.).<.d Z a.s.g.g.j.- <XQ m XXc.2 w.Z.#X1                           ",
"        . + 7 = . k _ +.+.< % y 7 y S s.a.- K.Y < :.=.q {.%X&X1                           ",
"      . + e B s 3 > u i i f T J J J J s C % E 9 . 5 h l V..XOX>                           ",
"      . 7 8 . u ) 3.P.E.E.1X9X9X9X9X1Xu s + . . . . 5 &.w.%Xw.@                           ",
"      . . . u ` | P.I.1X8X8X8X8X8X9X7XK.> . O @ O . 2 #.V.w.o .                           ",
"      . . u 3.P.l.J.P.I.1X8X8X8X8X8X8X0XJ.; D ^ ^ f X o X o .                             ",
"      . . u ` ) ) ) P.P.I.3X8X8X8X8X8X7XU.: E ) ) 4.7.c X                                 ",
"      . . u ` R @ : ^ l.P.T.Y.Y.Y.Y.Y.Y.J.: E ( 5.P.P.9.` .                               ",
"      . . o > : + E / | | | 8.I.I.P.P.P.| O E 7.P.P.P.I.P.) +                             ",
"        . . . . o ^ ( ( ( ^ ` 3.3.3.3.| ) @ E | 9.I.P.P.I.P.^ &                           ",
"          . . o x ^ ( ( ( ) ^ ) ^ ^ ^ ^ a + R ) } 9.I.I.I.I.P.;                           ",
"          : 3 ; ` ( ) ( ( ( ) ) ` ) ^ a . . u ! ( | 9.I.I.I.P.;                           ",
"          > x p c ^ ( ( ( ( E v c c d . . . . u ! ) | 8.8.8.5.&                           ",
"          . ; c u | 3.3.3.4.D O . . . . > > X . u ! ( ^ ^ ( / O                           ",
"        . . . & ! 4.4.5.5.5.` p . . . X / ) u @ @ f ) ( ) ( R O                           ",
"      . . + O . . . . . . . . . . . . ; ! ) ( ^ ^ ( ) ^ ! R X                             ",
"          f ( . . + & O O & & & + . O ! ^ ( ( ) ) ) ) D X X                               ",
"            f ` ; 9.2XqXqX7XqXqXK.. . ; / ( ) ( 7.7.c X .                                 ",
"              p J.qXwXwXwXwXwXwX!.: ` X ; ! 8.l.P.I.! .                                   ",
"                p Y Y Y Y Y Y Y i u 8.. . @ 3 9 3 3 ; .                                   ",
"                                  : v / o G.Q.Q.K.Q.{ .                                   ",
"                                    O Y / eXwXwXwXwX!..                                   ",
"                                      X R H.G.G.G.G.W .                                   ",
"                                        . . . . . . .                                     "
};
