/* XPM */
static char *_87626fb4c744f8fbe25959959bb5f89UdHwZ9nuT84OTFp1[] = {
/* columns rows colors chars-per-pixel */
"46 59 256 2 ",
"   c None",
".  c #010101",
"X  c #0A0605",
"o  c #0B0807",
"O  c #0D0B0A",
"+  c #070E0A",
"@  c #130D0B",
"#  c #1A0F0C",
"$  c #100806",
"%  c #0A130D",
"&  c #041009",
"*  c #19100E",
"=  c #13100F",
"-  c #0C1610",
";  c #0E1A12",
":  c #141313",
">  c #1B1513",
",  c #1D1C1C",
"<  c #1E1817",
"1  c #231512",
"2  c #2A1A15",
"3  c #231D1B",
"4  c #2B1D1B",
"5  c #271A16",
"6  c #321E17",
"7  c #16271C",
"8  c #0D2416",
"9  c #29201E",
"0  c #26211B",
"q  c #3B231D",
"w  c #36221B",
"e  c #1D3727",
"r  c #182F21",
"t  c #2C2523",
"y  c #282828",
"u  c #322925",
"i  c #342C29",
"p  c #392926",
"a  c #3C322D",
"s  c #393634",
"d  c #27392A",
"f  c #43271E",
"g  c #442923",
"h  c #4A2C24",
"j  c #432923",
"k  c #4D322C",
"l  c #45362B",
"z  c #533225",
"x  c #53332C",
"c  c #5B362D",
"v  c #483B36",
"b  c #583832",
"n  c #643C2D",
"m  c #60372D",
"M  c #6A3F34",
"N  c #633B32",
"B  c #12532C",
"V  c #14532F",
"C  c #284C37",
"Z  c #2D543C",
"A  c #2F583F",
"S  c #30583F",
"D  c #1B653A",
"F  c #4D4238",
"G  c #58483B",
"H  c #6D4135",
"J  c #6A453C",
"K  c #714335",
"L  c #794839",
"P  c #6C412D",
"I  c #3D3F41",
"U  c #2F5C41",
"Y  c #315B41",
"T  c #2F6746",
"R  c #316947",
"E  c #307049",
"W  c #307E50",
"Q  c #47494A",
"!  c #534541",
"~  c #5A4B46",
"^  c #55595C",
"/  c #505556",
"(  c #764B42",
")  c #63524D",
"_  c #6B5C4A",
"`  c #7B5549",
"'  c #695651",
"]  c #6D5A54",
"[  c #665954",
"{  c #715D57",
"}  c #735E58",
"|  c #715752",
" . c #7C6A56",
".. c #75615A",
"X. c #79645E",
"o. c #776753",
"O. c #6D645D",
"+. c DimGray",
"@. c #796762",
"#. c #6A7679",
"$. c #727474",
"%. c #6A6F6D",
"&. c #5E6E71",
"*. c #834D3A",
"=. c #86523D",
"-. c #834E41",
";. c #8C5445",
":. c #875549",
">. c #9A5C4C",
",. c #955949",
"<. c #945C50",
"1. c #8F5D53",
"2. c #996357",
"3. c #956952",
"4. c #A3624C",
"5. c #B36A4E",
"6. c #A76958",
"7. c #B36C53",
"8. c #BB6E53",
"9. c #B77257",
"0. c #846E67",
"q. c #89736A",
"w. c #957D77",
"e. c #8C7771",
"r. c #B47364",
"t. c #BA7767",
"y. c #AF7063",
"u. c #C37456",
"i. c #CC7B5B",
"p. c #C67859",
"a. c #D47E5B",
"s. c #C37D6C",
"d. c #318955",
"f. c #329259",
"g. c #2F8C55",
"h. c #31A15F",
"j. c #31AE64",
"k. c #31A460",
"l. c #31B166",
"z. c #33B468",
"x. c #9B837D",
"c. c #9B856A",
"v. c #AA9377",
"b. c #B4997B",
"n. c #AA8870",
"m. c #D7835F",
"M. c #D9835F",
"N. c #DA8560",
"B. c #DF8862",
"V. c #D68664",
"C. c #DE906D",
"Z. c #C98574",
"A. c #D78B7A",
"S. c #DB917E",
"D. c #DF9979",
"F. c #CE886E",
"G. c #E19878",
"H. c #E28A64",
"J. c #778284",
"K. c #888888",
"L. c #969797",
"P. c #918F8D",
"I. c #A48B85",
"U. c #A38F89",
"Y. c #B79E80",
"T. c #A89B98",
"R. c #A8948E",
"E. c #BFA484",
"W. c #8F9EA1",
"Q. c #BCBDBD",
"!. c #B2B3B3",
"~. c #AEAFAF",
"^. c #DE9281",
"/. c #E49E82",
"(. c #E49483",
"). c #F29D8C",
"_. c #C8A589",
"`. c #CEB08E",
"'. c #DBAC90",
"]. c #EBA58E",
"[. c #E8AB92",
"{. c #F4AD95",
"}. c #EDB59A",
"|. c #E6B797",
" X c #F5B99C",
".X c #F6A28F",
"XX c #ECBBA3",
"oX c #ECBDA7",
"OX c #F5BFA4",
"+X c #D6B4A7",
"@X c #EBC59F",
"#X c #DFCABD",
"$X c #ECC3A8",
"%X c #F7C4A6",
"&X c #FBD6AD",
"*X c #F2CAB5",
"=X c #FFDCB2",
"-X c #FFD5B0",
";X c #FFE2B6",
":X c #FFE5B9",
">X c #FFE9BC",
",X c #BFC0C0",
"<X c #C5C6C6",
"1X c #CBD9DB",
"2X c #DBD6D4",
"3X c #FADCCB",
"4X c #F4D5C4",
"5X c #ECD2C6",
"6X c #FFEDC0",
"7X c #FDE5D7",
"8X c #CDDDE0",
"9X c #D2E5E9",
"0X c #DAF4F9",
"qX c #D1E7EB",
"wX c #FFF2E6",
"eX c #FEFFFF",
"rX c #F4F4F4",
"tX c #ECECEC",
"yX c black",
"uX c black",
"iX c black",
"pX c black",
"aX c black",
"sX c black",
"dX c black",
"fX c black",
"gX c black",
"hX c black",
"jX c black",
"kX c black",
"lX c black",
"zX c black",
"xX c black",
"cX c black",
"vX c black",
"bX c black",
"nX c black",
"mX c black",
"MX c black",
"NX c black",
"BX c black",
"VX c black",
"CX c black",
"ZX c black",
"AX c black",
"SX c black",
"DX c black",
"FX c black",
"GX c black",
"HX c black",
"JX c black",
"KX c black",
"LX c black",
"PX c black",
"IX c black",
"UX c black",
/* pixels */
"                                          . . . . . . . . . . . . .                         ",
"                                        o j g m n n n n n n n n g j o   .                   ",
"                            h z z z h 6 h 5.7.M.B.B.B.B.B.H.B.N.7.7.n z q 1                 ",
"                          . L i.H.N.i.6.7.m.m.m.m.m.m.m.m.m.m.N.N.N.N.B.p.P w 1             ",
"                            . H p.N.N.N.N.N.N.m.m.m.N.m.m.m.m.m.m.m.m.m.m.M.p.L 0 i         ",
"                              < L N.V.a.V.a.a.m.m.m.m.m.m.m.M.m.m.N.m.m.m.m.m.M.D.#X3       ",
"                            . U.|.a.N.N.V.N.N.m.m.m.m.m.m.m.m.m.m.m.m.m.m.m.m.m.G.4Xp.1     ",
"                          . m +XXXa.N.N.a.N.a.N.m.m.N.m.m.m.m.m.N.m.m.m.m.m.m.m.G.3XN.u.2   ",
"                          . M F.}.3XXXa.a.N.N.m.m.m.m.m.m.m.M.m.N.m.m.m.m.m.m.D.3X4X6.m.8.w ",
"                          . M 8.C.$X7X4XoXN.N.m.m.m.m.m.m.m.M.m.m.N.m.m.m.i.].3X7XF.2 6 w   ",
"                          . M 4.u.C.$XwX7X*X9.XX*X*X^.m.M.m.a.m.a.7.i.a.[.*X3X5Xb.i.=.X     ",
"                        . h -.,.4.p.G.}.|.[.>.'.3XwX}.u.u.G.$XXXoX2.'.oX3X*X Xt.z 7.7.@     ",
"                        g ;.,.>.M x M *.8.7.,.5.[.$XS.*.K F.oXoXXXM _.$XOXG.M.5.z h h X     ",
"                      . x ;.,.M x x x k m ,.>.,.=.*.M 2 # L u.u.5.# ,.a.i.4.4.a.u.q . .     ",
"                  2 p p q N ;.2 ` S.t.r.p M M K $ y , . . # H M ;.@ z 5.7.j * ;.i.7.o       ",
"              o f r.].).].k N 1 :.2.q >.Z.X . . , <XP.: . . . o M o . x *.q . 1 L M X       ",
"        . O + q 9.[.=X=X=X].k . ` .X2.t Z.o o . ,XeXeXK.. . . . $ . . : O . . . . . .       ",
"    O o . ) F x {.=X=X=X=X=Xr.2 J  Xv.l |.* -.@ <XeXeXK.. . . # -.@ X !.+.. .               ",
"  O t.A.w ^ ! x {.=X=X=X=X=X[.x .  .&X$X$X,.Z.1 Q.eXeXK.. . # ;.Z.> ~.eX+.. .               ",
": r.(.%Xl J.&.G =X=X=X=X=X=X{.x . - 0 F 6.>.(.s.v y ~.rX2XL.1 A.^.1 <XeXtX+..               ",
"# ^.%X=Xl P.#.~ >X=X=X=X=X;X{.x . . . . 6 >.(.%X_.b.O.Q Q [ _.@X7.b./ s Q y .               ",
"* S.&X;XE.+.#.$.q.;X;X:X;Xo.Z.b . . . 1 :.j 6.&X:X>X`.c.c.E.>X;X'.=Xb.c.n.F .               ",
"* S.&X=X>XG #.W.w %X[. .o.` ( 5 . % r d ( ( g '.=X>XY.o.o.o.o. .-X=X:X6XY.F                 ",
"# ^. X=X:Xv.%.#.+.<.7.. . ( 1 . . 7 T C r :.J ( 3.$X_ y $.Q X o.=X:X:XY.l                   ",
"# 2.^.OX%X-X` s #.X x . . . . . + e Y Y C , 1.@ . o.F Q Q.J.> v.v.v.v.0 .                   ",
"  X 2.r.y.r.b . . . . . % - % % e Y U E R Z % % % & . . . X 4 . # # # u a u                 ",
"    . . . . . . . . . % C S A S U T W l.k.T T A C A 7     g s.@ ;.4.4.|.>X ..               ",
"                    % Z A S Y U d.j.j.l.j.j.j.T % d 7 .   p t.3 -.S./.%X:X ..               ",
"                  + C U U U f.j.j.l.j.j.j.j.j.T O e r . . 4 6.`.1 Z.%X&X:X ..               ",
"                  - Y Y U f.j.j.j.j.l.l.j.j.j.8 . . z f Q W.4 1.@ ;.6.|.:X ..               ",
"                - C Z Y Z h.z.l.l.z.l.k.R R R & . h ;.i ^ !.. @ X -.s.%X>X0..               ",
"                ; U Z Y Y R E E E E R R C - - . k -.s.G / !.o c X 2 Z._ n.` .               ",
"                ; Y U Y Y d.f.f.f.f.f.f.g.D r o M r.(.s.| &.J.q x X h :.( 2 .               ",
"                ; Y Z r 7 V V B B B B B D z.d.% M A.(.).y.v J.#.k X . x 4 .                 ",
"                + e r . 9 4 j l Q ^ ^ / a D D O K A.).S.t.M : J.. . . . .                   ",
"                . . < 9 @.0.T.!.1X0X0XqXT.t . . h 1.6.-.N h . . .                           ",
"                X t { ..I.I.<X1X1X9X0X0X9XT.3 . O X . . . . .                               ",
"                < } } } x.x.I.I.I.!.8X9XqX8X@.@ ~ 3 .                                       ",
"                < } ] ' ] ] ..w.I.U.I.T.qX8X@.O ~ t X X                                     ",
"                3 } ) O O ~ w.I.I.I.I.R.R.U.} @ ! ] ' a .                                   ",
"                X = O X ! { ..X.X.X.X.X.X.@.] O ~ ..} ] a .                                 ",
"                  . o ! { } } { { { { { } ' 3 v ] } { ..v .                                 ",
"                  . O { } { { { { } } } ' 3 . ) } { { { ) a .                               ",
"                  . X t ] } { { { } } ) 9 . v ] { { { { ..! .                               ",
"                . . X u i ' ] ] ] } ) t . . a ] } { { } } F .                               ",
"                : u o v u ' 0.q.e.0.v . t 3 . a ' } { } ..! .                               ",
"                i e.. . v ! { @.@.] i > ..] 3 . ! } } } ' a .                               ",
"                t .., . . . . . . . . > } } ] 3 ~ } } ' a .                                 ",
"                  3 @.> O : , , , y = > ] { { { { } ] i .                                   ",
"                    < e.w.I.2XrXrXrXL.= } } } { { ] u .                                     ",
"                      : : <XeXeXeX2XO.> } } } } } t                                         ",
"                          y i i y y t ) ] } w...w.i                                         ",
"                              . s v < @.} } I.x.U.i                                         ",
"                              . ~ w.! 3 i } q.q.q.) 3                                       ",
"                                u @.w.a . 4 4 4 4 i : .                                     ",
"                                  t @.U.%.%.%.%.$.3 . .                                     ",
"                                    3 x.eXeXeXeXeX^ .                                       ",
"                                      s Q.Q.Q.Q.<Xs                                         ",
"                                        . . . . . .                                         "
};
