/* XPM */
static char *result[] = {
/* columns rows colors chars-per-pixel */
"62 75 210 2 ",
"   c #010101",
".  c #090605",
"X  c #060807",
"o  c #0D0807",
"O  c #070B08",
"+  c #0C0B0A",
"@  c #120907",
"#  c #120D0B",
"$  c #190F0C",
"%  c #06120B",
"&  c #09120D",
"*  c #1B110E",
"=  c #0C1C13",
"-  c #131211",
";  c #1A1513",
":  c #1D1815",
">  c #1C1A19",
",  c #20130F",
"<  c #231613",
"1  c #231A16",
"2  c #2A1A13",
"3  c #231D19",
"4  c #361E16",
"5  c #331E19",
"6  c #0C2216",
"7  c #14251B",
"8  c #152B1E",
"9  c #26231C",
"0  c #35211B",
"q  c #3B231C",
"w  c #1F2020",
"e  c #173524",
"r  c #1E3A29",
"t  c #272727",
"y  c #2D2422",
"u  c #332A25",
"i  c #372C29",
"p  c #223929",
"a  c #353029",
"s  c #3C332D",
"d  c #2F3334",
"f  c #3B3635",
"g  c #42271F",
"h  c #452A24",
"j  c #4D2E25",
"k  c #47362B",
"l  c #553329",
"z  c #413633",
"x  c #473B36",
"c  c #4B3E3B",
"v  c #593932",
"b  c #663E2D",
"n  c #6A3E34",
"m  c #17512F",
"M  c #21412E",
"N  c #254532",
"B  c #284B36",
"V  c #2D553D",
"C  c #28583B",
"Z  c #4D4234",
"A  c #4E413D",
"S  c #53453E",
"D  c #72432F",
"F  c #6C4338",
"G  c #754739",
"H  c #7A493C",
"J  c #3F4040",
"K  c #315C42",
"L  c #316B48",
"P  c #277346",
"I  c #414141",
"U  c #4E4E4E",
"Y  c #534541",
"T  c #554844",
"R  c #5A4B46",
"E  c #5C4E4A",
"W  c #5E524B",
"Q  c #495154",
"!  c #565758",
"~  c #614F4A",
"^  c #784B41",
"/  c #655745",
"(  c #64534E",
")  c #7B5147",
"_  c #695A55",
"`  c #6D5B55",
"'  c #715D57",
"]  c #725E58",
"[  c #796653",
"{  c #75615B",
"}  c #79655E",
"|  c #5D6060",
" . c #646464",
".. c #6B6C6C",
"X. c #7B6862",
"o. c #69777A",
"O. c #777876",
"+. c #804C3F",
"@. c #834E40",
"#. c #8D5445",
"$. c #84544B",
"%. c #975B47",
"&. c #96594A",
"*. c #8F5D53",
"=. c #826B58",
"-. c #9B6256",
";. c #A8654B",
":. c #B06B4D",
">. c #AE6851",
",. c #A8695B",
"<. c #B46D56",
"1. c #AF785F",
"2. c #BB7154",
"3. c #826C66",
"4. c #846F69",
"5. c #867367",
"6. c #8B746E",
"7. c #8D7770",
"8. c #8F7872",
"9. c #827D78",
"0. c #937B75",
"q. c #AC7063",
"w. c #B57567",
"e. c #C67756",
"r. c #C6795A",
"t. c #CD7D5B",
"y. c #D47F5A",
"u. c #C07D6F",
"i. c #2B8650",
"p. c #328252",
"a. c #2C9959",
"s. c #31985B",
"d. c #2DA35E",
"f. c #32AF65",
"g. c #31B266",
"h. c #32B568",
"j. c #958067",
"k. c #9C837C",
"l. c #A28B79",
"z. c #B78872",
"x. c #B9957B",
"c. c #D7835F",
"v. c #D9845F",
"b. c #DA8561",
"n. c #C28472",
"m. c #CE8575",
"M. c #D68A7A",
"N. c #C39479",
"B. c #E29878",
"V. c #7B8588",
"C. c #868585",
"Z. c #8A8B8B",
"A. c #869396",
"S. c #959697",
"D. c #A48B84",
"F. c #A68D86",
"G. c #A7918B",
"H. c #A29D9B",
"J. c #BFA484",
"K. c #A4A4A4",
"L. c #AAAAA9",
"P. c #ABB4B5",
"I. c #B3B8B9",
"U. c #BCBCBC",
"Y. c #D19984",
"T. c #E59684",
"R. c #EC9A89",
"E. c #F29C8B",
"W. c #C5AB89",
"Q. c #DAA58A",
"!. c #D5AA8F",
"~. c #E7A28A",
"^. c #E6AA8E",
"/. c #F5A28F",
"(. c #EBAD92",
"). c #F3AA93",
"_. c #ECB396",
"`. c #E9B599",
"'. c #DAB9AB",
"]. c #EABCA6",
"[. c #F8BCA0",
"{. c #E3C19D",
"}. c #E6C4A7",
"|. c #EBCAA4",
" X c #FBC2A2",
".X c #F6CCA7",
"XX c #F5D1A9",
"oX c #FCD5AD",
"OX c #F2C8B3",
"+X c #FFDCB2",
"@X c #F6D1BE",
"#X c #FBD3BA",
"$X c #FFE1B6",
"%X c #FFE3B8",
"&X c #FFEBBE",
"*X c #B8CFD3",
"=X c #C2C5C5",
"-X c #CBD6D8",
";X c gainsboro",
":X c #F9D8C6",
">X c #CFE0E2",
",X c #D2E8EC",
"<X c #D5EEF3",
"1X c #D6F1F6",
"2X c #D9F4F9",
"3X c gray90",
"4X c #EEEEEE",
"5X c #F4F4F4",
"6X c white",
"7X c None",
/* pixels */
"7X7X7X7X7X7X7X7X7X7X7X7X7X7X7X7X7X7X7X7X7X7X7X7X7X7X7X7X7X7X7X7X7X7X7X7X7X7X7X7X7X7X7X7X7X7X7X7X7X7X7X7X7X7X7X7X7X7X7X7X7X7X",
"7X7X7X7X7X7X7X7X7X7X7X7X7X7X7X7X7X7X7X7X7X7X7X7X7X7X7X7X7X7X7X7X7X7X7X7X7X7X7X7X7X7X7X7X7X7X7X7X7X7X7X7X7X7X7X7X7X7X7X7X7X7X",
"7X7X7X7X7X7X7X7X7X7X7X7X7X7X7X7X7X7X7X7X7X7X7X7X7X7X7X7X7X7X7X7X7X7X7X7X7X7X7X7X7X7X7X7X7X7X7X7X7X7X7X7X7X7X7X7X7X7X7X7X7X7X",
"7X7X7X7X7X7X7X7X7X7X7X7X7X7X7X7X7X7X7X7X7X7X7X7X7X7X7X7X7X7X7X7X7X7X7X7X7X7X7X7X7X7X7X7X7X7X7X7X7X7X7X7X7X7X7X7X7X7X7X7X7X7X",
"7X7X7X7X7X7X7X7X7X7X7X7X7X7X7X7X7X7X7X7X7X7X7X7X7X7X7X7X7X7X7X7X7X7X7X7X7X7X7X7X7X7X7X7X7X7X7X7X7X7X7X7X7X7X7X7X7X7X7X7X7X7X",
"7X7X7X7X7X7X7X7X7X7X7X7X7X7X7X7X7X7X7X7X7X7X7X7X7X7X7X7X7X7X7X7X7X7X7X7X7X7X7X7X7X7X7X7X7X7X7X7X7X7X7X7X7X7X7X7X7X7X7X7X7X7X",
"7X7X7X7X7X7X7X7X7X7X7X7X7X7X7X7X7X7X7X7X7X7X7X7X7X7X7X7X7X7X7X7X7X7X7X7X7X7X7X7X7X7X7X7X7X7X7X7X7X7X7X7X7X7X7X7X7X7X7X7X7X7X",
"7X7X7X7X7X7X7X7X7X7X7X7X7X7X7X7X7X7X7X7X7X7X7X7X7X7X7X7X7X7X7X7X7X7X7X7X7X7X7X7X7X7X7X7X7X7X7X7X7X7X7X7X7X7X7X7X7X7X7X7X7X7X",
"7X7X7X7X7X7X7X7X7X7X7X7X7X7X7X7X7X7X7X* < 2 2 2 < 1 2 2 2 2 1 < ; 7X7X7X7X7X7X7X7X7X7X7X7X7X7X7X7X7X7X7X7X7X7X7X7X7X7X7X7X7X",
"7X7X7X7X7X7X7X7X7X7X7X7X7X7X7X7X7X$ 0 ;.c.c.c.c.c.c.c.c.c.c.c.c.;.0 $ * $ 7X7X7X7X7X7X7X7X7X7X7X7X7X7X7X7X7X7X7X7X7X7X7X7X7X",
"7X7X7X7X7X7X7X7X7X7X7X7X7X7X7X  l c.t.c.c.c.c.b.c.c.c.c.c.c.b.c.c.t.t.c.G . o 7X7X7X7X7X7X7X7X7X7X7X7X7X7X7X7X7X7X7X7X7X7X7X",
"7X7X7X7X7X7X7X7X7X7X7X7X7X7X  b t.v.c.c.c.c.c.c.c.c.c.c.c.c.c.c.c.c.c.c.t.e.%.  7X7X7X7X7X7X7X7X7X7X7X7X7X7X7X7X7X7X7X7X7X7X",
"7X7X7X7X7X7X7X7X7X7X7X7X7X  D t.b.b.c.c.c.c.c.c.c.c.c.b.c.b.c.c.c.b.c.c.c.v.c.%.      7X7X7X7X7X7X7X7X7X7X7X7X7X7X7X7X7X7X7X",
"7X7X7X7X7X7X7X7X7X7X7X7X  D e.b.c.c.b.c.c.c.c.b.c.b.c.c.c.c.c.c.c.c.v.c.v.c.v.c.;.%.$ 7X7X7X7X7X7X7X7X7X7X7X7X7X7X7X7X7X7X7X",
"7X7X7X7X7X7X7X7X7X      D e.b.c.c.c.c.c.c.b.c.b.c.c.c.c.c.c.b.b.c.c.c.c.c.v.:.g j j 7X7X7X7X7X7X7X7X7X7X7X7X7X7X7X7X7X7X7X7X",
"7X7X7X7X7X7X7X7X7X    b !.B.y.y.c.c.c.c.b.c.c.c.c.c.b.c.c.b.b.c.c.c.c.c.y.B.Y.0   7X7X7X7X7X7X7X7X7X7X7X7X7X7X7X7X7X7X7X7X7X",
"7X7X7X7X7X7X7X7X7X7X  r.:XOX_.`.B.y.y.y.2.y.y.y.y.v.v.c.c.c.y.b.y.y.~.`.`.[.Q.H   7X7X7X7X7X7X7X7X7X7X7X7X7X7X7X7X7X7X7X7X7X",
"7X7X7X7X7X7X7X7X7X7Xl e.[.OXOX:X:X^.^.Q.-.T.^.^.B.:.1.(.^.^.^.r.~.^.:X:XOX(.r.H . 7X7X7X7X7X7X7X7X7X7X7X7X7X7X7X7X7X7X7X7X7X",
"7X7X7X7X7X7X7X7X7X$ c.b.;.e.y.^.@X:XOX'.) }.:X#Xm.4 W @X#X@X'.-.].@X:XY.e.y.2.H   7X7X7X7X7X7X7X7X7X7X7X7X7X7X7X7X7X7X7X7X7X",
"7X7X7X7X7X7X7X7X7X@ ;.:.q %.y.2.2.t.2.n @ <.c.2.j . 4 +.:.;.&.&.t.c.b.>.>.<.&.H   7X7X7X7X7X7X7X7X7X7X7X7X7X7X7X7X7X7X7X7X7X",
"7X7X7X7X7X7X7X7X7X    . ;.v.<.h 5 #.n   X H r.0 l g   + > $ @.&.r.c.y.>.&.&.&.H   7X7X7X7X7X7X7X7X7X7X7X7X7X7X7X7X7X7X7X7X7X",
"7X7X7X7X7X7X7X7X7X7X7X  ;.v.>.h   . .     o H 2       ! U.o # @.&.r.;.#.#.#.&.H . 7X7X7X7X7X7X7X7X7X7X7X7X7X7X7X7X7X7X7X7X7X",
"7X7X7X7X7X7X7X7X7X7X7X. ;.2.h               @        .5X6XU.o # @.&.h o @ h &.&.H . 7X7X7X7X7X7X7X7X7X7X7X7X7X7X7X7X7X7X7X7X",
"7X7X7X7X7X7X7X7X7X7X7X  :.l 7X    I L.    n #       ..6X6X;XO   +.4 $.u.u.) q &.@.. 7X7X7X7X7X7X7X7X7X7X7X7X7X7X7X7X7X7X7X7X",
"7X7X7X7X7X7X7X7X7X7X7X7X0 , 7X7X  U 6XK.; w.^ $     ..6X6X;Xo v 5 $.w.F *.-.< &.&.F # 7X7X7X7X7X7X7X7X7X7X7X7X7X7X7X7X7X7X7X",
"7X7X7X7X7X7X7X7X7X7X7X7X7X7X7X    I 6X3X> m.M.4      .6X6X;X$ w.; w.H v u.*.. 4 0 q 7X7X7X7X7X7X7X7X7X7X7X7X7X7X7X7X7X7X7X7X",
"7X7X7X7X7X7X7X7X7X7X7X7X7X7X7X7Xf I.6X3X; !.[.u ! Z.=X6X3X..$.M.; x.k =.[.-.        7X7X7X7X7X7X7X7X7X7X7X7X7X7X7X7X7X7X7X7X",
"7X7X7X7X7X7X7X7X7X7X7X7X7X7X7X7Xf S.Z.C.[ N.oXj.9.S.S.Z.9.[ [.(.) `.l.W.Q.v 7 7 7 7 7X7X7X7X7X7X7X7X7X7X7X7X7X7X7X7X7X7X7X7X",
"7X7X7X7X7X7X7X7X7X7X7X7X7X7X7X7X: Z k / oXN.XX&X8.Z Z k [ %X+X+X(.x.x.x.W 8 L K K K 7 = = & 7X7X7X7X7X7X7X7X7X7X7X7X7X7X7X7X",
"7X7X7X7X7X7X7X7X7X7X7X7X7X7X7X  / &X$X$X+XW.N.J.W.W.{.%X%X+X+X.Xz.<     e V r M M M N V K e & & 7X7X7X7X7X7X7X7X7X7X7X7X7X7X",
"7X7X7X7X7X7X7X7X7X7X7X7X7X7X7X7XS |.$X+X|.; 9 p t + ` %X+X+X.Xu.h   X r C p $ < 1 9 X p B B B 8   7X7X7X7X7X7X7X7X7X7X7X7X7X",
"7X7X7X7X7X7X7X7X7X7X7X7X7X7X7X7X7XZ XX+XXXu U.5X6X../ %XoX{.n.5 q.u r V 7 5 ,.T.R.|.u   o . . o o o 7X7X7X7X7X7X7X7X7X7X7X7X",
"7X7X7X7X7X7X7X7X7X7X7X7X7X7X7X7X7X7Xz XXXX{.i I.6X../ .X1.# : w.0 M K 8   q q.~.oX+X|.i _ f u #.#.n @ 7X7X7X7X7X7X7X7X7X7X7X",
"7X7X7X7X7X7X7X7X7X7X7X7X7X7X7X7X7X7X7X3 3 3 . > t o + 3 $     : N V K = v M.R.oX+X+X+XY.j ~ c g >.T.w.+ 7X7X7X7X7X7X7X7X7X7X",
"7X7X7X7X7X7X7X7X7X7X7X7X7X7X7X7X7X7X7X7X7X7X7X7X7X7X7X7X= i.N N V V K 6 F E.).+X+X+X+XoXz V.o.j T.R.u.o 7X7X7X7X7X7X7X7X7X7X",
"7X7X7X7X7X7X7X7X7X7X7X7X7X7X7X7X7X7X7X7X7X7X7X7X7X7X7X7X7Xm a.s.s.s.L = j u.R._.+X+X+X%Xk A.o.v R.T.u.@ 7X7X7X7X7X7X7X7X7X7X",
"7X7X7X7X7X7X7X7X7X7X7X7X7X7X7X7X7X7X7X7X7X                % h.g.g.g.a.C t @.R.R.+X+X+X Xh A.o.l R.R.m.# 7X7X7X7X7X7X7X7X7X7X",
"7X7X7X7X7X7X7X7X7X7X7X7X7X7X7X7X7X7X7X7X& [ [ 5.9 s [ j   X m d.f.f.g.p.7 l /.~.+X+X[.m.4 o.| v /.m.^ 7X7X7X7X7X7X7X7X7X7X7X",
"7X7X7X7X7X7X7X7X7X7X7X7X7X7X7X7X7X7X7X7X# |.`.^.k 5.+X-.= Q X i.f.g.h.p.r f ,./..X Xm.F @ _ T 5 *.^   7X7X7X7X7X7X7X7X7X7X7X",
"7X7X7X7X7X7X7X7X7X7X7X7X7X7X7X7X7X7X7X7X# {.x.<.0 =..X#.d I.+ r P P i.P K e < ,.-.-.F o   c f       7X7X7X7X7X7X7X7X7X7X7X7X",
"7X7X7X7X7X7X7X7X7X7X7X7X7X7X7X7X7X7X7X7X# {.oX).j [ N.h > _     X = C L L M & % % % & & &     7X7X7X7X7X7X7X7X7X7X7X7X7X7X7X",
"7X7X7X7X7X7X7X7X7X7X7X7X7X7X7X7X7X7X7X7X# `.).T.v j j       O = C d.a.a.P B B B B B B B V 8   7X7X7X7X7X7X7X7X7X7X7X7X7X7X7X",
"7X7X7X7X7X7X7X7X7X7X7X7X7X7X7X7X7X7X7X7Xo n..Xw.#.i       O C a.a.d.e   X       .       r V 7   7X7X7X7X7X7X7X7X7X7X7X7X7X7X",
"7X7X7X7X7X7X7X7X7X7X7X7X7X7X7X7X7X7X7X7X  $ u.T.v .   X   X X % % %       X X X     X   X X       7X7X7X7X7X7X7X7X7X7X7X7X7X",
"7X7X7X7X7X7X7X7X7X7X7X7X7X7X7X7X7X7X7X7X7X  , < x E ] 7.7.4.~ R #       z 0.7.7.4.( 4.` ;         7X7X7X7X7X7X7X7X7X7X7X7X7X",
"7X7X7X7X7X7X7X7X7X7X7X7X7X7X7X7X7X7X7X7X7X  z ] 0.0.D.D.F.D.] ' R + Y X.H.-X-X-XD.} D.l.` ; y i   7X7X7X7X7X7X7X7X7X7X7X7X7X",
"7X7X7X7X7X7X7X7X7X7X7X7X7X7X7X7X7X7X7X7X. x 6.F.G.G.D.F.l.X.' ' y R L.-X>X2X2X-Xl.8.4.3.X.y # ;   7X7X7X7X7X7X7X7X7X7X7X7X7X",
"7X7X7X7X7X7X7X7X7X7X7X7X7X7X7X7X7X7X7X7XX _ D.F.F.F.D.D.3.] ` s o.I.,X<X<X<X<X,X*XG.0.] ] y   7X7X7X7X7X7X7X7X7X7X7X7X7X7X7X",
"7X7X7X7X7X7X7X7X7X7X7X7X7X7X7X7X7X7X7X7XX ( 6.6.6.6.0.6.( s i + *X2X<X<X<X<X<X<XI.0.0.} c -   7X7X7X7X7X7X7X7X7X7X7X7X7X7X7X",
"7X7X7X7X7X7X7X7X7X7X7X7X7X7X7X7X7X7X7X7Xo ( ' ' ` ' R z u     X *X2X2X<X<X1X,XU.l.] ] A #   7X7X7X7X7X7X7X7X7X7X7X7X7X7X7X7X",
"7X7X7X7X7X7X7X7X7X7X7X7X7X7X7X7X7X7X7X7Xo ( ' ' ' ] c < -     X P.-X-X-X-X-XU.0.0.T c o   7X7X7X7X7X7X7X7X7X7X7X7X7X7X7X7X7X",
"7X7X7X7X7X7X7X7X7X7X7X7X7X7X7X7X7X7X7X7XX Y ' } X.] ' ] R #   . 4.k.0.l.0.D.8.] ( ; - ; .   7X7X7X7X7X7X7X7X7X7X7X7X7X7X7X7X",
"7X7X7X7X7X7X7X7X7X7X7X7X7X7X7X7X7X7X7X7X7X. S 0.G.6.{ { ' ( o . Y ' ] ] ' ' ' ' ' ' ` ` y .     7X7X7X7X7X7X7X7X7X7X7X7X7X7X",
"7X7X7X7X7X7X7X7X7X7X7X7X7X7X7X7X7X7X7X7X7X    } D.D.D.0.' ' ( . . Y ' ' ' ' ' ' ' ' ' ' ' y       7X7X7X7X7X7X7X7X7X7X7X7X7X",
"7X7X7X7X7X7X7X7X7X7X7X7X7X7X7X7X7X7X7X7X7X7X7XO ' G.D.D.0.] ( .   . Y ] ' ' ' ' ' ' ' ' ' ` u     7X7X7X7X7X7X7X7X7X7X7X7X7X",
"7X7X7X7X7X7X7X7X7X7X7X7X7X7X7X7X7X7X7X7X7X7X    _ 0.} X.} ( -       c ] ' ' ' ' ' ' ' ' ' { s     7X7X7X7X7X7X7X7X7X7X7X7X7X",
"7X7X7X7X7X7X7X7X7X7X7X7X7X7X7X7X7X7X7X7X7X7X  s { X.c ; : ;       ( f c ] ' ' ' ' ' ' 0.3.z O     7X7X7X7X7X7X7X7X7X7X7X7X7X",
"7X7X7X7X7X7X7X7X7X7X7X7X7X7X7X7X7X7X7X7X7X7X  > 3 1 o           E A o s } ' ` ' ' ' 8.6.x O       7X7X7X7X7X7X7X7X7X7X7X7X7X",
"7X7X7X7X7X7X7X7X7X7X7X7X7X7X7X7X7X7X7X7X7X7X7X  ! Z.Z.Z.Z.Z.C.( Y +   ; A X.0.0.0.0.7.x .   u a   7X7X7X7X7X7X7X7X7X7X7X7X7X",
"7X7X7X7X7X7X7X7X7X7X7X7X7X7X7X7X7X7X7X7X7X7X7X  L.6X6X6X6X6X6X] +     ; S 3.4.( E R z .     E _   7X7X7X7X7X7X7X7X7X7X7X7X7X",
"7X7X7X7X7X7X7X7X7X7X7X7X7X7X7X7X7X7X7X7X7X7X7X   .L.K.K.K.K.S.+ 7X7X  t c x u             w R c 7X7X7X7X7X7X7X7X7X7X7X7X7X7X",
"7X7X7X7X7X7X7X7X7X7X7X7X7X7X7X7X7X7X7X7X7X7X7X                7X7X7X7X  > c f J J f J I a W c 7X7X7X7X7X7X7X7X7X7X7X7X7X7X7X",
"7X7X7X7X7X7X7X7X7X7X7X7X7X7X7X7X7X7X7X7X7X7X7X7X7X7X7X7X7X7X7X7X7X7X7X  O.6X6X6X6X6X6X>XG.s 7X7X7X7X7X7X7X7X7X7X7X7X7X7X7X7X",
"7X7X7X7X7X7X7X7X7X7X7X7X7X7X7X7X7X7X7X7X7X7X7X7X7X7X7X7X7X7X7X7X7X7X7X   .4X3X3X3X3X3Xz   7X7X7X7X7X7X7X7X7X7X7X7X7X7X7X7X7X",
"7X7X7X7X7X7X7X7X7X7X7X7X7X7X7X7X7X7X7X7X7X7X7X7X7X7X7X7X7X7X7X7X7X7X7X  O - - - - - - 7X7X7X7X7X7X7X7X7X7X7X7X7X7X7X7X7X7X7X",
"7X7X7X7X7X7X7X7X7X7X7X7X7X7X7X7X7X7X7X7X7X7X7X7X7X7X7X7X7X7X7X7X7X7X7X7X7X7X7X7X7X7X7X7X7X7X7X7X7X7X7X7X7X7X7X7X7X7X7X7X7X7X",
"7X7X7X7X7X7X7X7X7X7X7X7X7X7X7X7X7X7X7X7X7X7X7X7X7X7X7X7X7X7X7X7X7X7X7X7X7X7X7X7X7X7X7X7X7X7X7X7X7X7X7X7X7X7X7X7X7X7X7X7X7X7X",
"7X7X7X7X7X7X7X7X7X7X7X7X7X7X7X7X7X7X7X7X7X7X7X7X7X7X7X7X7X7X7X7X7X7X7X7X7X7X7X7X7X7X7X7X7X7X7X7X7X7X7X7X7X7X7X7X7X7X7X7X7X7X",
"7X7X7X7X7X7X7X7X7X7X7X7X7X7X7X7X7X7X7X7X7X7X7X7X7X7X7X7X7X7X7X7X7X7X7X7X7X7X7X7X7X7X7X7X7X7X7X7X7X7X7X7X7X7X7X7X7X7X7X7X7X7X",
"7X7X7X7X7X7X7X7X7X7X7X7X7X7X7X7X7X7X7X7X7X7X7X7X7X7X7X7X7X7X7X7X7X7X7X7X7X7X7X7X7X7X7X7X7X7X7X7X7X7X7X7X7X7X7X7X7X7X7X7X7X7X",
"7X7X7X7X7X7X7X7X7X7X7X7X7X7X7X7X7X7X7X7X7X7X7X7X7X7X7X7X7X7X7X7X7X7X7X7X7X7X7X7X7X7X7X7X7X7X7X7X7X7X7X7X7X7X7X7X7X7X7X7X7X7X",
"7X7X7X7X7X7X7X7X7X7X7X7X7X7X7X7X7X7X7X7X7X7X7X7X7X7X7X7X7X7X7X7X7X7X7X7X7X7X7X7X7X7X7X7X7X7X7X7X7X7X7X7X7X7X7X7X7X7X7X7X7X7X",
"7X7X7X7X7X7X7X7X7X7X7X7X7X7X7X7X7X7X7X7X7X7X7X7X7X7X7X7X7X7X7X7X7X7X7X7X7X7X7X7X7X7X7X7X7X7X7X7X7X7X7X7X7X7X7X7X7X7X7X7X7X7X",
"7X7X7X7X7X7X7X7X7X7X7X7X7X7X7X7X7X7X7X7X7X7X7X7X7X7X7X7X7X7X7X7X7X7X7X7X7X7X7X7X7X7X7X7X7X7X7X7X7X7X7X7X7X7X7X7X7X7X7X7X7X7X",
"7X7X7X7X7X7X7X7X7X7X7X7X7X7X7X7X7X7X7X7X7X7X7X7X7X7X7X7X7X7X7X7X7X7X7X7X7X7X7X7X7X7X7X7X7X7X7X7X7X7X7X7X7X7X7X7X7X7X7X7X7X7X"
};
