/* XPM */
static char *result[] = {
/* columns rows colors chars-per-pixel */
"62 75 210 2 ",
"   c #010101",
".  c #090605",
"X  c #090807",
"o  c #0C0B0A",
"O  c #130C0A",
"+  c #180E0B",
"@  c #0A150E",
"#  c #1A110E",
"$  c #041D10",
"%  c #0C1D13",
"&  c #151212",
"*  c #191513",
"=  c #1D1916",
"-  c #271915",
";  c #2C1A15",
":  c #231D1B",
">  c #331D16",
",  c #12251A",
"<  c #15281D",
"1  c #0C331C",
"2  c #29231E",
"3  c #34211B",
"4  c #3A231D",
"5  c #1F2222",
"6  c #1A2D21",
"7  c #1A3023",
"8  c #1B3726",
"9  c #2D2522",
"0  c #292725",
"q  c #362825",
"w  c #3D2924",
"e  c #342C2A",
"r  c #283627",
"t  c #3B322C",
"y  c #3F382D",
"u  c #393635",
"i  c #42251D",
"p  c #432822",
"a  c #442A23",
"s  c #4B2D24",
"d  c #512E26",
"f  c #48362B",
"g  c #4C322C",
"h  c #54332A",
"j  c #5B362A",
"k  c #453933",
"l  c #463A35",
"z  c #5B3A33",
"x  c #643C31",
"c  c #144629",
"v  c #23412F",
"b  c #284A35",
"n  c #2C533B",
"m  c #2F593F",
"M  c #20663D",
"N  c #4E413D",
"B  c #55463C",
"V  c #6D453D",
"C  c #7A493B",
"Z  c #2F5B40",
"A  c #315A41",
"S  c #2C6744",
"D  c #316847",
"F  c #2B7248",
"G  c #31764D",
"H  c #32784E",
"J  c #317E50",
"K  c #464646",
"L  c #494A4A",
"P  c #564945",
"I  c #554946",
"U  c #594A44",
"Y  c #5D5141",
"T  c #595655",
"R  c #604F4A",
"E  c #734A42",
"W  c #635544",
"Q  c #63514C",
"!  c #685C4A",
"~  c #7D5147",
"^  c #695955",
"/  c #6D5A54",
"(  c #715D57",
")  c #735F58",
"_  c #6F6153",
"`  c #786552",
"'  c #75615B",
"]  c #79635D",
"[  c #686C6D",
"{  c #7B6964",
"}  c #647275",
"|  c #697377",
" . c #787574",
".. c #797979",
"X. c #814D3C",
"o. c #86503D",
"O. c #87564A",
"+. c #945945",
"@. c #9B5C4B",
"#. c #895D51",
"$. c #93614E",
"%. c #9A6255",
"&. c #9C655A",
"*. c #85715C",
"=. c #A5634C",
"-. c #AB684C",
";. c #B26C4E",
":. c #A36352",
">. c #A86858",
",. c #B76F51",
"<. c #BB7253",
"1. c #BC7357",
"2. c #826F69",
"3. c #8B7974",
"4. c #947C76",
"5. c #967F78",
"6. c #AA6D61",
"7. c #AC7867",
"8. c #B77769",
"9. c #C7795A",
"0. c #CB7C5B",
"q. c #D27D5A",
"w. c #C17B67",
"e. c #24884E",
"r. c #308553",
"t. c #308B56",
"y. c #319359",
"u. c #31A561",
"i. c #31AE65",
"p. c #31B266",
"a. c #33B769",
"s. c #97836A",
"d. c #97837D",
"f. c #99817B",
"g. c #B5957A",
"h. c #D7835F",
"j. c #D8845F",
"k. c #DA8561",
"l. c #D78967",
"z. c #DB8966",
"x. c #CA8772",
"c. c #CC8C71",
"v. c #D68A7A",
"b. c #DE9473",
"n. c #E28B66",
"m. c #6D7D81",
"M. c #7A8C90",
"N. c gray52",
"B. c #959493",
"V. c #A58C85",
"C. c #A88E87",
"Z. c #A98F88",
"A. c #A9938D",
"S. c #BBA182",
"D. c #ADA09C",
"F. c #90A2A6",
"G. c #A5A7A7",
"H. c #B0AEAC",
"J. c gray71",
"K. c #BDBAB9",
"L. c #D89A83",
"P. c #E79584",
"I. c #E99786",
"U. c #E19B87",
"Y. c #E99887",
"T. c #ED9B89",
"R. c #CFAC8D",
"E. c #D8B996",
"W. c #E9A48C",
"Q. c #EDAD93",
"!. c #F6A691",
"~. c #E9B599",
"^. c #F5BA9D",
"/. c #C7BCB9",
"(. c #EDBBA3",
"). c #DEC19C",
"_. c #E2C39E",
"`. c #C1C0BF",
"'. c #EBC4A6",
"]. c #EBCAA4",
"[. c #F7CBA8",
"{. c #F8D5AD",
"}. c #FDD6AE",
"|. c #ECC8B7",
" X c #F2CBB7",
".X c #FEDBB2",
"XX c #F5D1BE",
"oX c #FFE1B6",
"OX c #FFE5B9",
"+X c #B6C8CC",
"@X c #CDCCCB",
"#X c #D5D5D5",
"$X c #EAD5CB",
"%X c #F9D8C5",
"&X c #FBDECE",
"*X c #FCE3D4",
"=X c #FFE9DB",
"-X c #CFDDE0",
";X c #CCE0E4",
":X c #D1E7EB",
">X c #D3E9ED",
",X c #D5EEF3",
"<X c #D8F3F8",
"1X c #DBF6FB",
"2X c #E1E2E2",
"3X c gray92",
"4X c #FFF0E3",
"5X c #F3F4F4",
"6X c white",
"7X c None",
/* pixels */
"7X7X7X7X7X7X7X7X7X7X7X7X7X7X7X7X7X7X7X7X.   . . . . . . . . . 7X7X7X7X7X7X7X7X7X7X7X7X7X7X7X7X7X7X7X7X7X7X7X7X7X7X7X7X7X7X7X",
"7X7X7X7X7X7X7X7X7X7X7X7X7X7X7X7X7X    O C X.-.,.,.,.,.,.;.-.C o   7X7X7X7X7X7X7X7X7X7X7X7X7X7X7X7X7X7X7X7X7X7X7X7X7X7X7X7X7X",
"7X7X7X7X7X7X7X7X7X7X7X7X7X7X7X7X; X.-.-.9.0.h.j.j.j.z.j.j.h.9.-.=.;   7X7X7X7X7X7X7X7X7X7X7X7X7X7X7X7X7X7X7X7X7X7X7X7X7X7X7X",
"7X7X7X7X7X7X7X7X7X7X7X7X7X7X7Xs -.0.j.j.j.j.h.h.h.j.j.j.h.h.j.j.j.=.+.i   7X7X7X7X7X7X7X7X7X7X7X7X7X7X7X7X7X7X7X7X7X7X7X7X7X",
"7X7X7X7X7X7X7X7X7X7X7X7X7X7Xs -.n.h.h.h.h.h.j.h.h.h.h.h.h.h.j.h.h.j.z.=.C j       7X7X7X7X7X7X7X7X7X7X7X7X7X7X7X7X7X7X7X7X7X",
"7X7X7X7X7X7X7X7X7X7X7X7X7Xs ;.n.h.h.h.h.h.h.h.h.h.h.h.h.h.j.h.h.h.h.h.k.n.;.V h   7X7X7X7X7X7X7X7X7X7X7X7X7X7X7X7X7X7X7X7X7X",
"7X7X7X7X7X7X7X7X7X7X7X7Xi ,.k.h.h.h.h.h.h.h.h.h.h.h.h.h.h.h.h.h.h.h.h.k.h.q.;.C . 7X7X7X7X7X7X7X7X7X7X7X7X7X7X7X7X7X7X7X7X7X",
"7X7X7X7X7X7X7X7X7X7X7X4 c.z.h.h.h.h.h.h.h.h.h.h.h.h.j.h.h.h.h.h.h.h.h.h.b.b.#.= 7X7Xk l N 2 7X7X7X7X7X7X7X7X7X7X7X7X7X7X7X7X",
"7X7X7X7X7X7X7X7X7X7X. 1.%X~.z.h.h.h.h.h.h.h.h.h.h.h.h.h.h.h.h.h.h.h.h.q.~.4X Xo.. t ].oXOX*.= 7X7X7X7X7X7X7X7X7X7X7X7X7X7X7X",
"7X7X7X7X7X7X7X7X7X7X. <. X=X~.z.b.z.h.h.h.h.h.h.h.h.h.h.h.h.h.h.h.h.h.l.(.=X'.@.e ]..X.X}.}.*.O 7X7X7X7X7X7X7X7X7X7X7X7X7X7X",
"7X7X7X7X7X7X7X7X7X7X+ <.z.'.*X&X*X Xl.h.@.l.z.z.h.h.z.z.l.l.k.q.l.l.l.(.=X(.+.y [..X}.}.Q.Y.P.O.  7X7X7X7X7X7X7X7X7X7X7X7X7X",
"7X7X7X7X7X7X7X7X7XO <.h.=.%.w.(.=X*X&X|.%.|.&X*XU.q.W.&X&XXXl.%.|.&X&X*X[.O.k ]..X.XW.T.Y.P.T.O.  7X7X7X7X7X7X7X7X7X7X7X7X7X",
"7X7X7X7X7X7X7X7X7X+ 9.-.; +.q.z.b.b.b.x.9 $X=X~.V z 1.b.W.=XXX:.c.%X=X^.n.X.y }.W.W.I.I.I.I.T.O.  7X7X7X7X7X7X7X7X7X7X7X7X7X",
"7X7X7X7X7X7X7X7X7X. > - o.0.9.x j ,.q.+.O c.U.1.3 . ; 3 3 B 7.@.@.8.Q 2 > + w !.v.g v.I.I.T.v.x     7X7X7X7X7X7X7X7X7X7X7X7X",
"7X7X7X7X7X7X7X7X7X7X7X  ;.1.:.a > =.+.; o @.q.;.>     u ... O.@.@.4 V &.&.z q v.a   a v.x.E > f I   7X7X7X7X7X7X7X7X7X7X7X7X",
"7X7X7X7X7X7X7X7X7X7X7X  +.:.x # + i -     3 =.x O   u K.5X..a p i V 8.O.>.&.+ E ~ h   a p T M.} 9   7X7X7X7X7X7X7X7X7X7X7X7X",
"7X7X7X7X7X7X7X7X7X7X7X  4 d #     5 T     > i +      .6X6X2X.     8.O.g 6.%.  o ~ z [ } } m.M.{ p   7X7X7X7X7X7X7X7X7X7X7X7X",
"7X7X7X7X7X7X7X7X7X7X7X            L 3XT o :.i .     [ 6X6X#XX -   g.a #.^.$.  ;     M.F.F.T i $.8.; 7X7X7X7X7X7X7X7X7X7X7X7X",
"7X7X7X7X7X7X7X7X7X7X7X7X7X7X    * N.6X3X& L.g.2 0 K B.6X5XG.g :.h E.*.g.~.E a X.        : 7.!.T.v.O.  7X7X7X7X7X7X7X7X7X7X7X",
"7X7X7X7X7X7X7X7X7X7X7X7X7X7X    T #X#XJ.k E..XV B.#X@X#XG.f W.T.I.~.E.).` 3 O.x         S.OX^.P.T.8.# 7X7X7X7X7X7X7X7X7X7X7X",
"7X7X7X7X7X7X7X7X7X7X7X7X7X7X    o : = t ].6.].oX! = : * B .X.X.XT.%.; . s h     X X   o g.OX^.P.I.v.C . 7X7X7X7X7X7X7X7X7X7X",
"7X7X7X7X7X7X7X7X7X7X7X7X7X7X    Y {.].{..X{..XoX{.].]._.{..X.X}.U.w   s g X   @ n b o 6.[.OX^.P.I.v.O.. 7X7X7X7X7X7X7X7X7X7X",
"7X7X7X7X7X7X7X7X7X7X7X7X7X7X    ! OXoX.X.X.X.X}..XoXs.W oX.X.XU.w     . 0 b b n m n o 8.[.oX.X^.P.I.w.o 7X7X7X7X7X7X7X7X7X7X",
"7X7X7X7X7X7X7X7X7X7X7X7X7X7X  z O.! oXoX.X{.B 2 2 2 _ _.oX}.L.w >.;   , F u.t.Z Z Z e.0 8.[..X}.^.Y.x.o 7X7X7X7X7X7X7X7X7X7X",
"7X7X7X7X7X7X7X7X7X7X7X7X7X7X  E v.O.k U .X.XR.S.S.S._..Xc.f a &.P.q , F u.p.i.t.Z Z i.e.r 7.[.OXoXR.w 7X7X7X7X7X7X7X7X7X7X7X",
"7X7X7X7X7X7X7X7X7X7X7X7X7X7X  E !.w.s j U W Y W W W Y B w o %.P.V 0 F u.p.p.p.u.Z Z F i.e.N B Y Y B 7X7X7X7X7X7X7X7X7X7X7X7X",
"7X7X7X7X7X7X7X7X7X7X7X7X7X7X7Xa &.Y.w.+.p   % < < < , @   O V V 6 F i.p.p.u.r.J A Z m r.M $   7X7X7X7X7X7X7X7X7X7X7X7X7X7X7X",
"7X7X7X7X7X7X7X7X7X7X7X7X7X7X7X7Xw O.O.@.+.o b D Z Z D S , , % % F i.y.r.t.S 6 7 7 7 6 6 o   7X7X7X7X7X7X7X7X7X7X7X7X7X7X7X7X",
"7X7X7X7X7X7X7X7X7X7X7X7X7X7X7X7X7X  O x j . 7 8 8 b r.u.G H H H u.p.t.Z m v o           7X7X7X7X7X7X7X7X7X7X7X7X7X7X7X7X7X7X",
"7X7X7X7X7X7X7X7X7X7X7X7X7X7X7X7X7X7X7X            6 H u.p.p.p.p.p.p.p.t.S A v   7X7X7X7X7X7X7X7X7X7X7X7X7X7X7X7X7X7X7X7X7X7X",
"7X7X7X7X7X7X7X7X7X7X7X7X7X7X7X7X7X7X7X7X7X7X7X7X  6 Z D u.i.i.i.i.i.i.u.J m v   7X7X7X7X7X7X7X7X7X7X7X7X7X7X7X7X7X7X7X7X7X7X",
"7X7X7X7X7X7X7X7X7X7X7X7X7X7X7X7X7X7X7X7X7X7X7X7X  < m Z G i.i.p.p.i.p.r.Z m v . 7X7X7X7X7X7X7X7X7X7X7X7X7X7X7X7X7X7X7X7X7X7X",
"7X7X7X7X7X7X7X7X7X7X7X7X7X7X7X7X7X7X7X7X7X7X7X7X7X  < H u.p.i.i.i.i.i.i.r.Z m v   7X7X7X7X7X7X7X7X7X7X7X7X7X7X7X7X7X7X7X7X7X",
"7X7X7X7X7X7X7X7X7X7X7X7X7X7X7X7X7X7X7X7X7X7X7X7X7X  c i.p.p.p.i.p.p.p.p.u.u.t.b   7X7X7X7X7X7X7X7X7X7X7X7X7X7X7X7X7X7X7X7X7X",
"7X7X7X7X7X7X7X7X7X7X7X7X7X7X7X7X7X7X7X7X7X7X7X7X7X  c p.p.p.p.p.i.p.p.r.S D D m v X 7X7X7X7X7X7X7X7X7X7X7X7X7X7X7X7X7X7X7X7X",
"7X7X7X7X7X7X7X7X7X7X7X7X7X7X7X7X7X7X7X7X7X7X7X7X7X  7 H G J a.p.J G G D Z Z Z Z n   7X7X7X7X7X7X7X7X7X7X7X7X7X7X7X7X7X7X7X7X",
"7X7X7X7X7X7X7X7X7X7X7X7X7X7X7X7X7X7X7X7X7X7X7X7X7X  o % % % 1 1 % % @ % , % 7 Z n . 7X7X7X7X7X7X7X7X7X7X7X7X7X7X7X7X7X7X7X7X",
"7X7X7X7X7X7X7X7X7X7X7X7X7X7X7X7X7X7X7X7X7X7X7X7X7X    & P | | | | | | T l l 0 < <   7X7X7X7X7X7X7X7X7X7X7X7X7X7X7X7X7X7X7X7X",
"7X7X7X7X7X7X7X7X7X7X7X7X7X7X7X7X7X7X7X7X7X7X7X7X    . T @X1X1X1X1X1X1X#XK.D./ :     7X7X7X7X7X7X7X7X7X7X7X7X7X7X7X7X7X7X7X7X",
"7X7X7X7X7X7X7X7X7X7X7X7X7X7X7X7X7X7X7X7X7X7X7X7X  o l D.<X,X,X,X,X,X,X<X1X-XD.) =   7X7X7X7X7X7X7X7X7X7X7X7X7X7X7X7X7X7X7X7X",
"7X7X7X7X7X7X7X7X7X7X7X7X7X7X7X7X7X7X7X7X7X7X7X    k d.`.,X,X,X,X,X,X,X<X;X+XG.4.^ .   7X7X7X7X7X7X7X7X7X7X7X7X7X7X7X7X7X7X7X",
"7X7X7X7X7X7X7X7X7X7X7X7X7X7X7X7X7X7X7X7X7X7X7X    P J.>X,X,X,X,X,X,X,X<XH.l * Q I .   7X7X7X7X7X7X7X7X7X7X7X7X7X7X7X7X7X7X7X",
"7X7X7X7X7X7X7X7X7X7X7X7X7X7X7X7X7X7X7X7X7X7X7X    I V.H.>X>X:X:X:X:X:X>X`./ . . .     7X7X7X7X7X7X7X7X7X7X7X7X7X7X7X7X7X7X7X",
"7X7X7X7X7X7X7X7X7X7X7X7X7X7X7X7X7X7X7X7X7X7X7X7X  t ' 2.A.A.A.A.A.A.Z.A.A.V.^ .       7X7X7X7X7X7X7X7X7X7X7X7X7X7X7X7X7X7X7X",
"7X7X7X7X7X7X7X7X7X7X7X7X7X7X7X7X7X7X7X7X7X7X7X7X  . t ] ] ] ] ] ] ] 5.V.V.5.) N       7X7X7X7X7X7X7X7X7X7X7X7X7X7X7X7X7X7X7X",
"7X7X7X7X7X7X7X7X7X7X7X7X7X7X7X7X7X7X7X7X7X7X7X7X7X  . e ' ) / ( / ( ) 2.{ { ' R     7X7X7X7X7X7X7X7X7X7X7X7X7X7X7X7X7X7X7X7X",
"7X7X7X7X7X7X7X7X7X7X7X7X7X7X7X7X7X7X7X7X7X7X7X7X7X    o : q ( 4.4.4.5.2.l - : 9 l   7X7X7X7X7X7X7X7X7X7X7X7X7X7X7X7X7X7X7X7X",
"7X7X7X7X7X7X7X7X7X7X7X7X7X7X7X7X7X7X7X7X7X7X7X7X7X        O ' Z.A.A.A.f.2.B t k 9   7X7X7X7X7X7X7X7X7X7X7X7X7X7X7X7X7X7X7X7X",
"7X7X7X7X7X7X7X7X7X7X7X7X7X7X7X7X7X7X7X7X7X7X7X7X7X  * :   . t I P I P P P I y q     7X7X7X7X7X7X7X7X7X7X7X7X7X7X7X7X7X7X7X7X",
"7X7X7X7X7X7X7X7X7X7X7X7X7X7X7X7X7X7X7X7X7X7X7X7X7X  e R :                           7X7X7X7X7X7X7X7X7X7X7X7X7X7X7X7X7X7X7X7X",
"7X7X7X7X7X7X7X7X7X7X7X7X7X7X7X7X7X7X7X7X7X7X7X7X7X  9 ] P o L L K K K L y *       7X7X7X7X7X7X7X7X7X7X7X7X7X7X7X7X7X7X7X7X7X",
"7X7X7X7X7X7X7X7X7X7X7X7X7X7X7X7X7X7X7X7X7X7X7X7X7X  9 ] U e @X6X6X6X6X6X2X2.&     7X7X7X7X7X7X7X7X7X7X7X7X7X7X7X7X7X7X7X7X7X",
"7X7X7X7X7X7X7X7X7X7X7X7X7X7X7X7X7X7X7X7X7X7X7X7X7X7X9 / ) U 5 #X2X2X2X:X2X/.Q   7X7X7X7X7X7X7X7X7X7X7X7X7X7X7X7X7X7X7X7X7X7X",
"7X7X7X7X7X7X7X7X7X7X7X7X7X7X7X7X7X7X7X7X7X7X7X7X7X7X7X9 ) ) Q = + & & & & o .   7X7X7X7X7X7X7X7X7X7X7X7X7X7X7X7X7X7X7X7X7X7X",
"7X7X7X7X7X7X7X7X7X7X7X7X7X7X7X7X7X7X7X7X7X7X7X7X7X7X7X: ) ) / Q Q Q Q 9     7X7X7X7X7X7X7X7X7X7X7X7X7X7X7X7X7X7X7X7X7X7X7X7X",
"7X7X7X7X7X7X7X7X7X7X7X7X7X7X7X7X7X7X7X7X7X7X7X7X7X7X7X: ) Q & + & & & .     7X7X7X7X7X7X7X7X7X7X7X7X7X7X7X7X7X7X7X7X7X7X7X7X",
"7X7X7X7X7X7X7X7X7X7X7X7X7X7X7X7X7X7X7X7X7X7X7X7X7X7X7Xq f.3.B l o           7X7X7X7X7X7X7X7X7X7X7X7X7X7X7X7X7X7X7X7X7X7X7X7X",
"7X7X7X7X7X7X7X7X7X7X7X7X7X7X7X7X7X7X7X7X7X7X7X7X7X7X7Xe A.V.4.] l l &       7X7X7X7X7X7X7X7X7X7X7X7X7X7X7X7X7X7X7X7X7X7X7X7X",
"7X7X7X7X7X7X7X7X7X7X7X7X7X7X7X7X7X7X7X7X7X7X7X7X7X7X7Xe C.V.V.3.] ] z t k 2   7X7X7X7X7X7X7X7X7X7X7X7X7X7X7X7X7X7X7X7X7X7X7X",
"7X7X7X7X7X7X7X7X7X7X7X7X7X7X7X7X7X7X7X7X7X7X7X7X7X7X7Xe C.V.V.C.3.) ) ] U 2   7X7X7X7X7X7X7X7X7X7X7X7X7X7X7X7X7X7X7X7X7X7X7X",
"7X7X7X7X7X7X7X7X7X7X7X7X7X7X7X7X7X7X7X7X7X7X7X7X7X7X7Xe Z.V.V.V.f.] ) ) u o e 7X7X7X7X7X7X7X7X7X7X7X7X7X7X7X7X7X7X7X7X7X7X7X",
"7X7X7X7X7X7X7X7X7X7X7X7X7X7X7X7X7X7X7X7X7X7X7X7X7X7X7Xe Z.V.V.5.' ( ) Q ; u {   7X7X7X7X7X7X7X7X7X7X7X7X7X7X7X7X7X7X7X7X7X7X",
"7X7X7X7X7X7X7X7X7X7X7X7X7X7X7X7X7X7X7X7X7X7X7X7X7X7X7Xe A.V.f.) ( ( ) 9 . l ^   7X7X7X7X7X7X7X7X7X7X7X7X7X7X7X7X7X7X7X7X7X7X",
"7X7X7X7X7X7X7X7X7X7X7X7X7X7X7X7X7X7X7X7X7X7X7X7X7X7X7Xe C.f.) ( ( ) ) : N )     7X7X7X7X7X7X7X7X7X7X7X7X7X7X7X7X7X7X7X7X7X7X",
"7X7X7X7X7X7X7X7X7X7X7X7X7X7X7X7X7X7X7X7X7X7X7X7X7X7X7Xt d.' / / / / 9   I /   7X7X7X7X7X7X7X7X7X7X7X7X7X7X7X7X7X7X7X7X7X7X7X",
"7X7X7X7X7X7X7X7X7X7X7X7X7X7X7X7X7X7X7X7X7X7X7X7X7X7X9 / ' Q O o o o   N.N.. 7X7X7X7X7X7X7X7X7X7X7X7X7X7X7X7X7X7X7X7X7X7X7X7X",
"7X7X7X7X7X7X7X7X7X7X7X7X7X7X7X7X7X7X7X7X7X7X7X7X7X  o & O o         N.@XQ   7X7X7X7X7X7X7X7X7X7X7X7X7X7X7X7X7X7X7X7X7X7X7X7X",
"7X7X7X7X7X7X7X7X7X7X7X7X7X7X7X7X7X7X7X7X7X7X7X7X7X7X  u J.J.J.J.J.J./.) * 7X7X7X7X7X7X7X7X7X7X7X7X7X7X7X7X7X7X7X7X7X7X7X7X7X",
"7X7X7X7X7X7X7X7X7X7X7X7X7X7X7X7X7X7X7X7X7X7X7X7X7X7X7XT 6X6X6X6X6X6X..* 7X7X7X7X7X7X7X7X7X7X7X7X7X7X7X7X7X7X7X7X7X7X7X7X7X7X",
"7X7X7X7X7X7X7X7X7X7X7X7X7X7X7X7X7X7X7X7X7X7X7X7X7X7X7X0 ............u 7X7X7X7X7X7X7X7X7X7X7X7X7X7X7X7X7X7X7X7X7X7X7X7X7X7X7X",
"7X7X7X7X7X7X7X7X7X7X7X7X7X7X7X7X7X7X7X7X7X7X7X7X7X7X7X              7X7X7X7X7X7X7X7X7X7X7X7X7X7X7X7X7X7X7X7X7X7X7X7X7X7X7X7X",
"7X7X7X7X7X7X7X7X7X7X7X7X7X7X7X7X7X7X7X7X7X7X7X7X7X7X7X7X7X7X7X7X7X7X7X7X7X7X7X7X7X7X7X7X7X7X7X7X7X7X7X7X7X7X7X7X7X7X7X7X7X7X",
"7X7X7X7X7X7X7X7X7X7X7X7X7X7X7X7X7X7X7X7X7X7X7X7X7X7X7X7X7X7X7X7X7X7X7X7X7X7X7X7X7X7X7X7X7X7X7X7X7X7X7X7X7X7X7X7X7X7X7X7X7X7X",
"7X7X7X7X7X7X7X7X7X7X7X7X7X7X7X7X7X7X7X7X7X7X7X7X7X7X7X7X7X7X7X7X7X7X7X7X7X7X7X7X7X7X7X7X7X7X7X7X7X7X7X7X7X7X7X7X7X7X7X7X7X7X",
"7X7X7X7X7X7X7X7X7X7X7X7X7X7X7X7X7X7X7X7X7X7X7X7X7X7X7X7X7X7X7X7X7X7X7X7X7X7X7X7X7X7X7X7X7X7X7X7X7X7X7X7X7X7X7X7X7X7X7X7X7X7X"
};
