/* XPM */
static char *result[] = {
/* columns rows colors chars-per-pixel */
"62 75 214 2 ",
"   c #010000",
".  c #0A0605",
"X  c #020A06",
"o  c #0D0807",
"O  c #060D09",
"+  c #0C0B0A",
"@  c #140C0A",
"#  c #120E0C",
"$  c #06160D",
"%  c #09140D",
"&  c #13100E",
"*  c #1B110E",
"=  c #0A1C12",
"-  c #161311",
";  c #1C1513",
":  c #1A1816",
">  c #1C1C1B",
",  c #20100F",
"<  c #251612",
"1  c #2A1A16",
"2  c #271B18",
"3  c #321C16",
"4  c #311E19",
"5  c #0C2315",
"6  c #092E19",
"7  c #16231A",
"8  c #0B331C",
"9  c #29221D",
"0  c #34211B",
"q  c #38211A",
"w  c #1A2C22",
"e  c #0C3C21",
"r  c #1B3425",
"t  c #1A3A26",
"y  c #2C2523",
"u  c #292A2A",
"i  c #372925",
"p  c #342C24",
"a  c #3A2E2C",
"s  c #233426",
"d  c #3A3127",
"f  c #3B312D",
"g  c #2F3233",
"h  c #373433",
"j  c #45281D",
"k  c #442B25",
"l  c #4C2E24",
"z  c #49362B",
"x  c #563328",
"c  c #5A352C",
"v  c #413532",
"b  c #473C35",
"n  c #593933",
"m  c #653C2D",
"M  c #663D34",
"N  c #16472A",
"B  c #274A35",
"V  c #2D553C",
"C  c #2F583F",
"Z  c #1F663C",
"A  c #484138",
"S  c #4C403B",
"D  c #52463C",
"F  c #6C4135",
"G  c #674239",
"H  c #794837",
"J  c #2F5D41",
"K  c #305940",
"L  c #2F6243",
"P  c #2E6D48",
"I  c #306846",
"U  c #2E774C",
"Y  c #30784D",
"T  c #4B4745",
"R  c #554844",
"E  c #5A4A45",
"W  c #5D4D49",
"Q  c #5C514B",
"!  c #4F5152",
"~  c #614C4A",
"^  c #794D44",
"/  c #62524C",
"(  c #6A5B4A",
")  c #7B5248",
"_  c #685752",
"`  c #6D5A55",
"'  c #715C57",
"]  c #735E58",
"[  c #75615B",
"{  c #79645E",
"}  c #7F6E59",
"|  c #5B696C",
" . c #69696A",
".. c #796761",
"X. c #667275",
"o. c #797777",
"O. c #844F38",
"+. c #8A533D",
"@. c #84564A",
"#. c #925941",
"$. c #995D44",
"%. c #96594B",
"&. c #9B5D4C",
"*. c #8D5B51",
"=. c #866C59",
"-. c #9C6556",
";. c #85745E",
":. c #AA674C",
">. c #A96A57",
",. c #B76D54",
"<. c #AA745F",
"1. c #BA7157",
"2. c #816B65",
"3. c #856F68",
"4. c #88736A",
"5. c #8B736D",
"6. c #967967",
"7. c #8E7770",
"8. c #857C79",
"9. c #927B74",
"0. c #947C75",
"q. c #AE7E6E",
"w. c #B87767",
"e. c #C27559",
"r. c #C27758",
"t. c #CE7D5C",
"y. c #D37F5C",
"u. c #C17D6F",
"i. c #C27E70",
"p. c #2B8D53",
"a. c #318754",
"s. c #30975A",
"d. c #319E5E",
"f. c #2EA15D",
"g. c #30A35F",
"h. c #31A561",
"j. c #31AC64",
"k. c #31B166",
"l. c #948067",
"z. c #91837E",
"x. c #9B837C",
"c. c #B59579",
"v. c #D7835F",
"b. c #D8845F",
"n. c #CB846E",
"m. c #D78360",
"M. c #DB8661",
"N. c #DC8B67",
"B. c #D38A7A",
"V. c #C8957E",
"C. c #D8927B",
"Z. c #E28862",
"A. c #E39A7A",
"S. c #758689",
"D. c #878484",
"F. c #8A8B8B",
"G. c #9C8984",
"H. c #8E9698",
"J. c #929292",
"K. c #999A9A",
"L. c #A58B84",
"P. c #A9918A",
"I. c #A79C98",
"U. c #B0A295",
"Y. c #95A8AD",
"T. c #A8A7A6",
"R. c #B5ACA8",
"E. c #B8B1AE",
"W. c #A7B8BB",
"Q. c #B9B4B2",
"!. c #BBBAB9",
"~. c #DD9581",
"^. c #E79886",
"/. c #D5A487",
"(. c #D7B995",
"). c #E7A589",
"_. c #E6AE93",
"`. c #F9A994",
"'. c #E8B799",
"]. c #F2BC9E",
"[. c #C1BEBC",
"{. c #DEC09B",
"}. c #E3C39E",
"|. c #EFC29F",
" X c #EEC7A6",
".X c #FAC6A5",
"XX c #F5C8A7",
"oX c #F5D2AA",
"OX c #FCD4AD",
"+X c #E8C2B0",
"@X c #F3CCB7",
"#X c #FFDDB3",
"$X c #F3D1BF",
"%X c #FFE4B9",
"&X c #FFE8BC",
"*X c #C3C4C4",
"=X c #C7CACA",
"-X c #D2CDCB",
";X c #CAD5D7",
":X c #DAD5D3",
">X c #F7D5C2",
",X c #F9DAC8",
"<X c #E9D9D1",
"1X c #FDE6D8",
"2X c #CEE0E3",
"3X c #D2E7EB",
"4X c #D5EEF2",
"5X c #D6F1F6",
"6X c #D7F3F8",
"7X c #DAF5FB",
"8X c #EAEAEA",
"9X c gray95",
"0X c #FEFFFF",
"qX c None",
/* pixels */
"qXqXqXqXqXqXqXqXqXqXqXqXqXqXqXqXqXqXqXqXqXqXqXqXqXqXqXqXqXqXqXqXqXqXqXqXqXqXqXqXqXqXqXqXqXqXqXqXqXqXqXqXqXqXqXqXqXqXqXqXqXqX",
"qXqXqXqXqXqXqXqXqXqXqXqXqXqXqXqXqXqXqXqXqXqXqXqXqXqXqXqXqXqXqXqXqXqXqXqXqXqXqXqXqXqXqXqXqXqXqXqXqXqXqXqXqXqXqXqXqXqXqXqXqXqX",
"qXqXqXqXqXqXqXqXqXqXqXqXqXqXqXqXqXqXqXqXqXqXqXqXqXqXqXqXqXqXqXqXqXqXqXqXqXqXqXqXqXqXqXqXqXqXqXqXqXqXqXqXqXqXqXqXqXqXqXqXqXqX",
"qXqXqXqXqXqXqXqXqXqXqXqXqXqXqXqXqXqXqXqXqXqXqXqXqXqXqXqXqXqXqXqXqXqXqXqXqXqXqXqXqXqXqXqXqXqXqXqXqXqXqXqXqXqXqXqXqXqXqXqXqXqX",
"qXqXqXqXqXqXqXqXqXqXqXqXqXqXqXqXqXqXqXqXqXqXqXqXqXqXqXqXqXqXqXqXqXqXqXqXqXqXqXqXqXqXqXqXqXqXqXqXqXqXqXqXqXqXqXqXqXqXqXqXqXqX",
"qXqXqXqXqXqXqXqXqXqXqXqXqXqXqXqXqXqXqXqXqXqXqXqXqXqXqXqXqXqXqXqXqXqXqXqXqXqXqXqXqXqXqXqXqXqXqXqXqXqXqXqXqXqXqXqXqXqXqXqXqXqX",
"qXqXqXqXqXqXqXqXqXqXqXqXqXqXqXqXqXqXqXqXqXqXqXqXqXqXqXqXqXqXqXqXqXqXqXqXqXqXqXqXqXqXqXqXqXqXqXqXqXqXqXqXqXqXqXqXqXqXqXqXqXqX",
"qXqXqXqXqXqXqXqXqXqXqXqXqXqXqXqXqXqXqXqXqXqXqXqXqXqXqXqXqXqXqXqXqXqXqXqXqXqXqXqXqXqXqXqXqXqXqXqXqXqXqXqXqXqXqXqXqXqXqXqXqXqX",
"qXqXqXqXqXqXqXqXqXqXqXqXqXqXqXqXqXqXqXqXqXqXqXqXqXqXqXqXqXqXqXqXqXqXqXqXqXqXqXqXqXqXqXqXqXqXqXqXqXqXqXqXqXqXqXqXqXqXqXqXqXqX",
"qXqXqXqXqXqXqXqXqXqXqXqXqXqXqXqXqXqXqXqXqXqXqXqXqXqXqXqXqXqXqXqXqXqXqXqXqXqXqXqXqXqXqXqXqXqXqXqXqXqXqXqXqXqXqXqXqXqXqXqXqXqX",
"qXqXqXqXqXqXqXqXqXqXqXqXqXqXqXqXqXqXqXqXqXqXqXqXqXqXqXqXqXqXqXqXqXqXqXqXqXqXqXqXqXqXqXqXqXqXqXqXqXqXqXqXqXqXqXqXqXqXqXqXqXqX",
"qXqXqXqXqXqXqXqXqXqXqXqXqXqXqXqXqXqXqXqXqXqXqXqXqXqXqXqXqXqXqXqXqXqXqXqXqXqXqXqXqXqXqXqXqXqXqXqXqXqXqXqXqXqXqXqXqXqXqXqXqXqX",
"qXqXqXqXqXqXqXqXqXqXqXqXqXqXqXqXqXqXqXqXqXqXqXqXqXqXqXqXqXqXqXqXqXqXqXqXqXqXqXqXqXqXqXqXqXqXqXqXqXqXqXqXqXqXqXqXqXqXqXqXqXqX",
"qXqXqXqXqXqXqXqXqXqXqXqXqXqXqXqXqXqXqXqXqXqXqXqXqXqXqXqXqXqXqXqXqXqXqXqXqXqXqXqXqXqXqXqXqXqXqXqXqXqXqXqXqXqXqXqXqXqXqXqXqXqX",
"qXqXqXqXqXqXqXqXqXqXqXqXqXqXqXqXqXqXqXqXqXqXqXqXqXqXqXqXqXqXqXqXqXqXqXqXqXqXqXqXqXqXqXqXqXqXqXqXqXqXqXqXqXqXqXqXqXqXqXqXqXqX",
"qXqXqXqXqXqXqXqXqXqXqXqXqXqXqXqXqXqXqXqXqXqXqXqXqXqXqXqXqXqXqXqXqXqXqXqXqXqXqXqXqXqXqXqXqXqXqXqXqXqXqXqXqXqXqXqXqXqXqXqXqXqX",
"qXqXqXqXqXqXqXqXqXqXqXqXqXqXqXqXqXqXqXqXqXqXqXqXqXqXqXqXqXqXqXqXqXqXqXqXqXqXqXqXqXqXqXqXqXqXqXqXqXqXqXqXqXqXqXqXqXqXqXqXqXqX",
"qXqXqXqXqXqXqXqXqXqXqXqXqXqXqXqXqXqXqXqXqXqXqXqXqXqXqXqXqXqXqXqXqXqXqXqXqXqXqXqXqXqXqXqXqXqXqXqXqXqXqXqXqXqXqXqXqXqXqXqXqXqX",
"qXqXqXqXqXqXqXqXqXqXqXqXqXqXqXqXqXqXqXqXqXqXqXqXqXqXqXqXqXqXqXqXqXqXqXqXqXqXqXqXqXqXqXqXqXqXqXqXqXqXqXqXqXqXqXqXqXqXqXqXqXqX",
"qXqXqXqXqXqXqXqXqXqXqXqXqXqXqXqXqXqXqXqXqXqXqXqXqXqXqXqXqXqXqXqXqXqXqXqXqXqXqXqXqXqXqXqXqXqXqXqXqXqXqXqXqXqXqXqXqXqXqXqXqXqX",
"qXqXqXqXqXqXqXqXqXqXqXqXqXqXqXqXqXqXqXqXqXqXqXqXqXqXqXqXqXqXqXqXqXqXqXqXqXqXqXqXqXqXqXqXqXqXqXqXqXqXqXqXqXqXqXqXqXqXqXqXqXqX",
"qXqXqXqXqXqXqXqXqXqXqXqXqXqXqXqXqXqXqXqXqXqXqXqXqXqXqXqXqXqXqXqXqXqXqXqXqXqXqXqXqXqXqXqXqXqXqXqXqXqXqXqXqXqXqXqXqXqXqXqXqXqX",
"qXqXqXqXqXqXqXqXqXqXqXqXqXqXqXqXqXqXqXqXqXqXqXqXqXqXqXqXqXqXqXqXqXqXqXqXqXqXqXqXqXqXqXqXqXqXqXqXqXqXqXqXqXqXqXqXqXqXqXqXqXqX",
"qXqXqXqXqXqXqXqXqXqXqXqXqXqXqXqXqX                          qXqXqXqXqXqXqXqXqXqXqXqXqXqXqXqXqXqXqXqXqXqXqXqXqXqXqXqXqXqXqXqX",
"qXqXqXqXqXqXqXqXqXqXqXqXqXqX    @ M F $.$.$.$.$.$.$.$.#.M M o   qXqX      qXqXqXqXqXqXqXqXqXqXqXqXqXqXqXqXqXqXqXqXqXqXqXqXqX",
"qXqXqXqXqXqXqXqXqXqXqXqX  4 F O.+.r.r.b.b.Z.Z.M.M.M.M.m.e.1.#.m * x +.x   qXqXqXqXqXqXqXqXqXqXqXqXqXqXqXqXqXqXqXqXqXqXqXqXqX",
"qXqXqXqXqXqXqXqXqXqXqXq c $.t.M.b.b.b.v.v.b.v.v.v.v.v.b.m.m.Z.e.O.:.:.l qXqXqXqXqXqXqXqXqXqXqXqXqXqXqXqXqXqXqXqXqXqXqXqXqXqX",
"qXqXqXqXqXqXqXqXqXqXl $.v.M.b.b.v.v.v.v.v.v.v.v.v.v.b.b.v.m.b.m.M.Z.F   qXqXqXqXqXqXqXqXqXqXqXqXqXqXqXqXqXqXqXqXqXqXqXqXqXqX",
"qXqXqXqXqXqXqXqXqXT r.M.v.v.v.v.v.v.v.v.v.v.v.v.v.v.v.v.v.v.v.m.v.A.-.q qXqXqXqXqXqXqXqXqXqXqXqXqXqXqXqXqXqXqXqXqXqXqXqXqXqX",
"qXqXqXqXqXqXqXqXq <XA.b.v.v.v.v.v.v.v.v.v.b.v.v.v.b.v.v.m.v.v.m.y.|.XXO.  qXqXqXqXqXqXqXqXqXqXqXqXqXqXqXqXqXqXqXqXqXqXqXqXqX",
"qXqXqXqXqXqXqX0 v.@X).m.v.v.v.v.v.v.v.v.v.v.v.v.v.v.v.v.v.v.v.y.N.@X].O.  qXqXqXqXqXqXqXqXqXqXqXqXqXqXqXqXqXqXqXqXqXqXqXqXqX",
"qXqXqXqXqXqXq t.v.m.>X).v.v.v.v.v.v.v.v.v.v.v.v.v.v.v.v.v.v.v.N.@X1X].+.. qXqXqXqXqXqXqXqXqXqXqXqXqXqXqXqXqXqXqXqXqXqXqXqXqX",
"qXqXqXqXqXq r.v.y.b.$X).m.M.m.m.m.m.y.m.b.b.b.m.m.m.v.v.y.M.N.@X1X'.M.1.M   qXqXqXqXqXqXqXqXqXqXqXqXqXqXqXqXqXqXqXqXqXqXqXqX",
"qXqXqXqXqXqX* * < r.N.@X,X_.y.m.m.m.m.m.b.b.m.m.m.m.m.t.>.>X,X1X_.M.1.&.F   qXqXqXqXqXqXqXqXqXqXqXqXqXqXqXqXqXqXqXqXqXqXqXqX",
"qXqXqXqXqXqXqXo $.v.:.n.@X1X>X>X'.>.$X>X>XA.,.,.).>X>X+X&.C.C.A.Z.,.&.&.M   qXqXqXqXqXqXqXqXqXqXqXqXqXqXqXqXqXqXqXqXqXqXqXqX",
"qXqXqXqXqXqX< #.l j :.v.A.).).).c.k ^.).).u.x m n.).~.c.%.:.:.x q 1 c &.F   qXqXqXqXqXqXqXqXqXqXqXqXqXqXqXqXqXqXqXqXqXqXqXqX",
"qXqXqXqXqXqX@ l     :.r.F O.e.y.+.@ :.y.,.c o * j j m %.%.%.j ^ *.*.M m F   qXqXqXqXqXqXqXqXqXqXqXqXqXqXqXqXqXqXqXqXqXqXqXqX",
"qXqXqXqXqXqX  qX    :.,.4 j :.%.l l l >.m o     g !   l k k G w.*.u.) 1 F   qXqXqXqXqXqXqXqXqXqXqXqXqXqXqXqXqXqXqXqXqXqXqXqX",
"qXqXqXqXqXqXqXqXqX  $.H * 1 c 3 o x   l .     g !.:XT       n.^ k w.@.3 @.3 qXqXqXqXqXqXqXqXqXqXqXqXqXqXqXqXqXqXqXqXqXqXqXqX",
"qXqXqXqXqXqXqXqXqX  l <     > h     <         F.0X0X=X. < . V.9 6.`.) * M c . qXqXqXqXqXqXqXqXqXqXqXqXqXqXqXqXqXqXqXqXqXqXqX",
"qXqXqXqXqXqXqXqXqX    qX     .-Xu @ %.1       D.0X0X*X@ &.k }.H U._.n       % 5 5 % 5 X & 0 4 4 qXqXqXqXqXqXqXqXqXqXqXqXqXqX",
"qXqXqXqXqXqXqXqXqXqXqXqX  + o.0X=X; ~.<.* : > K.0X0XR.i ^.^. X{.}./     O 5 P j.g.P p.N *.).).w.< ; qXqXqXqXqXqXqXqXqXqXqXqX",
"qXqXqXqXqXqXqXqXqXqXqXqX   .9X9X!.p  XoXd T.8X8X9XT.k ).OX^.&.2 + +   7 P j.j.j.I d.8 6.#X#XXX^.~.B.2 qXqXqXqXqXqXqXqXqXqXqX",
"qXqXqXqXqXqXqXqXqXqXqXqX  & 7 > A (.<.oXoXD : 7 - Q oX#XOXC.9 X r V B P j.j.k.j.L d.8 l.%X#X#X.X^.^.B.1 qXqXqXqXqXqXqXqXqXqX",
"qXqXqXqXqXqXqXqXqXqXqXqX  ( (.(.}.OX X#X%X}.(.(.(.}.#XOX~.i F , t K K K Y j.j.j.L h.8 *..X#X#X#X.X^.^.1 qXqXqXqXqXqXqXqXqXqX",
"qXqXqXqXqXqXqXqXqXqXqXqXqX9 ;.&X%X#XoXA d d d p l.&X%X}.k M 1 s V K K V K P U j.L r   M A.q.i i i q B.4 qXqXqXqXqXqXqXqXqXqX",
"qXqXqXqXqXqXqXqXqXqXqXqXqXqX9 ;.%X%X%Xc.- o.!.T ( (.D b   1 s V C C V J B = = 8 =     o 4 * w Y.Y.H.v . qXqXqXqXqXqXqXqXqXqX",
"qXqXqXqXqXqXqXqXqXqXqXqXqXqXqX9 ( ( ( ( & ! o.g 9 b     r w V J C C C C B w w s r . G *.=.=.' | | X.S.- qXqXqXqXqXqXqXqXqXqX",
"qXqXqXqXqXqXqXqXqXqXqXqXqXqXqXqX      qXqXqXqXqXqX  O 7 r K K K C C C V L a.a.C t   n ^ P.#X~.c 3   X.! > qXqXqXqXqXqXqXqXqX",
"qXqXqXqXqXqXqXqXqXqXqXqXqXqXqXqXqXqXqXqXqXqXqXqXqX  O t 7 r V K C C V L a.k.j.U O A & 9 c.%XOX).,.n . 9.i qXqXqXqXqXqXqXqXqX",
"qXqXqXqXqXqXqXqXqXqXqXqXqXqXqXqXqXqXqXv A A - ; k 2   X t X r V C C L a.k.k.k.g.= (.} P.%X#X#XoX^.~.- ~ u qXqXqXqXqXqXqXqXqX",
"qXqXqXqXqXqXqXqXqXqXqXqXqXqXqXqXqXqX& '.XXXXA ) `.>.. <     + B C K a.k.k.k.k.g.$ /.#X#X#X#X%X.X^.B.*   qXqXqXqXqXqXqXqXqXqX",
"qXqXqXqXqXqXqXqXqXqXqXqXqXqXqXqXqXqXo V.<.>.9 ;..X*.4 i.. $ V L L a.g.j.h.h.k.h.= >.].#X#X#X#X.X^.u.* qXqXqXqXqXqXqXqXqXqXqX",
"qXqXqXqXqXqXqXqXqXqXqXqXqXqXqXqXqXqX@ }.OX#XD =.).c y w.% p.f.f.f.Y L L J P j.h.J = -.].OX#X.X^.u.@ qXqXqXqXqXqXqXqXqXqXqXqX",
"qXqXqXqXqXqXqXqXqXqXqXqXqXqXqXqXqXqX+ }.#X%XD x G   . @   % $ $ + Z g.g.h.s.L L J V > # @.).^.w.; qXqXqXqXqXqXqXqXqXqXqXqXqX",
"qXqXqXqXqXqXqXqXqXqXqXqXqXqXqXqXqXqX@ ~.w.z + . . ; _ 4.5.3./ E =.V = = = 8 f.f.J K B B s 1 1 1 qXqXqXqXqXqXqXqXqXqXqXqXqXqX",
"qXqXqXqXqXqXqXqXqXqXqXqXqXqXqXqXqXqX  4 < a _ F.W.W.;X=XP.P.{ ' G.] ~ ` E _ 6 8 p.d.d.h.N   qXqXqXqXqXqXqXqXqXqXqXqXqXqXqXqX",
"qXqXqXqXqXqXqXqXqXqXqXqXqXqXqXqXqXqX  f Q T.=X2X7X7X3XR.L.L...] 0.7.7.0.2.L._ _ t e e t 5   qXqXqXqXqXqXqXqXqXqXqXqXqXqXqXqX",
"qXqXqXqXqXqXqXqXqXqXqXqXqXqXqXqXqX- E 5.L.;X7X6X6X2XR.G.L.5.f y ] 2.2.3...9.L.L.~ R v i ;   qXqXqXqXqXqXqXqXqXqXqXqXqXqXqXqX",
"qXqXqXqXqXqXqXqXqXqXqXqXqXqXqXqXqX- L.P.R.3X;X*X*XQ.x.7.7.] f i a f f f i R Q.Q.[.[.L.2.f     qXqXqXqXqXqXqXqXqXqXqXqXqXqXqX",
"qXqXqXqXqXqXqXqXqXqXqXqXqXqXqXqXqX- x.P.*X=XI.7.9.9.5.] ] S S S -   + y i ! 4X4X5X6XR.3.i     qXqXqXqXqXqXqXqXqXqXqXqXqXqXqX",
"qXqXqXqXqXqXqXqXqXqXqXqXqXqXqXqXqX- x.L.L.x...` ] / R R b .         9 [ L.U.4X4X4X5XR.5.S +   qXqXqXqXqXqXqXqXqXqXqXqXqXqXqX",
"qXqXqXqXqXqXqXqXqXqXqXqXqXqXqXqXqX- x.L.L.3.[ [ [ R o                 9 2.I.4X4X4X5XR.L.9.v       @ # .       qXqXqXqXqXqXqX",
"qXqXqXqXqXqXqXqXqXqXqXqXqXqXqXqXqXo _ x.L.L.P.5.4.0.E .   qXqXqXqXqXqX2 ..I.4X4X4X4XE.P.7.v     - _ ` :         qXqXqXqXqXqX",
"qXqXqXqXqXqXqXqXqXqXqXqXqXqXqXqXqXqX# 9.L.L.L.L.5...x.W . qXqXqXqXqXqXqXy I.4X4X4X4X4XE.7.v   - ` ' ` ` ;   .     qXqXqXqXqX",
"qXqXqXqXqXqXqXqXqXqXqXqXqXqXqXqXqXqX. _ { { [ 9.9.] 2.0.W + qXqXqXqXqXqX< 8.4X4X4X4X5XQ.5.v ; _ ' ] ' ] :   R R   qXqXqXqXqX",
"qXqXqXqXqXqXqXqXqXqXqXqXqXqXqXqXqXqX  & / 0.x.5.[ ` ] ..` E + qXqXqXqXqX; 8.4X4X4X5X5XQ.4./ / ' ` ] ' [ :   Q /   qXqXqXqXqX",
"qXqXqXqXqXqXqXqXqXqXqXqXqXqXqXqXqXo ` ' y y u _ x.x.x.x.x.[ # qXqXqXqXqXqXf R.4X4X4X7XQ.4.' ] ' ] [ ] y .   W /   qXqXqXqXqX",
"qXqXqXqXqXqXqXqXqXqXqXqXqXqXqXqXu T.:X:X..+   - a a h h f y . qXqXqXqXqXqX- 9.4X5X6X=XG.{ ' ] [ ` y y .     o.8.  qXqXqXqXqX",
"qXqXqXqXqXqXqXqXqXqXqXqXqXqXqXqXh 0X0X0X<XT.F.F.D.o._ o.T     qXqXqXqXqXqX+ h I.!.*XG.{ ] { ~ p 2           J.K.  qXqXqXqXqX",
"qXqXqXqXqXqXqXqXqXqXqXqXqXqXqXqX> F.J.J.J.K.K.K.K.D.[ J.W . qXqXqXqXqXqXqXqX  f E W b v v v a b  . . .b o   J.H.  qXqXqXqXqX",
"qXqXqXqXqXqXqXqXqXqXqXqXqXqXqXqX                            qXqXqXqXqXqXqXqX            - h o.-X0X0X0X-XQ T T.8.  qXqXqXqXqX",
"qXqXqXqXqXqXqXqXqXqXqXqXqXqXqXqXqXqXqXqXqXqXqXqXqXqXqXqXqXqXqXqXqXqXqXqXqXqXqXqXqXqXqX  f I.=X*X*X*X*X*Xz.R.I.b   qXqXqXqXqX",
"qXqXqXqXqXqXqXqXqXqXqXqXqXqXqXqXqXqXqXqXqXqXqXqXqXqXqXqXqXqXqXqXqXqXqXqXqXqXqXqXqXqXqX                        qXqXqXqXqXqXqX",
"qXqXqXqXqXqXqXqXqXqXqXqXqXqXqXqXqXqXqXqXqXqXqXqXqXqXqXqXqXqXqXqXqXqXqXqXqXqXqXqXqXqXqXqXqXqXqXqXqXqXqXqXqXqXqXqXqXqXqXqXqXqX"
};
