/* XPM */
static char *result[] = {
/* columns rows colors chars-per-pixel */
"62 75 220 2 ",
"   c #010101",
".  c #0A0606",
"X  c #030906",
"o  c #0D0807",
"O  c #070C09",
"+  c #0C0A09",
"@  c #170D0B",
"#  c #130D0C",
"$  c #08130D",
"%  c #13110E",
"&  c #1E120F",
"*  c #0D1913",
"=  c #141211",
"-  c #1A1513",
";  c #1A1815",
":  c #1C1918",
">  c #20130F",
",  c #241612",
"<  c #241A17",
"1  c #2B1A15",
"2  c #231D1C",
"3  c #2C1C19",
"4  c #331E18",
"5  c #321F1B",
"6  c #0F2F1C",
"7  c #15281D",
"8  c #27211C",
"9  c #2A221D",
"0  c #36201A",
"q  c #3B231B",
"w  c #162E21",
"e  c #133722",
"r  c #252525",
"t  c #2C2522",
"y  c #2B2928",
"u  c #3B2621",
"i  c #332A24",
"p  c #3C2B27",
"a  c #342B28",
"s  c #233929",
"d  c #3B3127",
"f  c #3C312E",
"g  c #263D30",
"h  c #3A3331",
"j  c #3A3B3C",
"k  c #42281E",
"l  c #432822",
"z  c #4E2E25",
"x  c #4B332B",
"c  c #503124",
"v  c #53322A",
"b  c #5C362B",
"n  c #453835",
"m  c #4B3E3A",
"M  c #503C36",
"N  c #5C3C35",
"B  c #653B2B",
"V  c #673D32",
"C  c #1C4C2F",
"Z  c #22422E",
"A  c #264A35",
"S  c #344030",
"D  c #255538",
"F  c #2E543C",
"G  c #2F583F",
"H  c #4F413D",
"J  c #57483E",
"K  c #72422E",
"L  c #6D4133",
"P  c #67433A",
"I  c #754638",
"U  c #3D4243",
"Y  c #2F5A40",
"T  c #315A41",
"R  c #306344",
"E  c #306C48",
"W  c #2A7A4A",
"Q  c #30734B",
"!  c #424344",
"~  c #4B4C4D",
"^  c #544541",
"/  c #5D4E49",
"(  c #5D5047",
")  c #565656",
"_  c #6D4C42",
"`  c #655746",
"'  c #64534E",
"]  c #6C5D4B",
"[  c #7C5047",
"{  c #695651",
"}  c #635955",
"|  c #6E5A55",
" . c #715D57",
".. c #735E58",
"X. c #72614E",
"o. c #76615B",
"O. c #79645E",
"+. c #565E60",
"@. c #596466",
"#. c #686A6A",
"$. c #7C6761",
"%. c #7E6963",
"&. c #696F70",
"*. c #777372",
"=. c gray48",
"-. c #834F3D",
";. c #85513B",
":. c #844E41",
">. c #8B5549",
",. c #965948",
"<. c #95594A",
"1. c #9B5F52",
"2. c #9D665A",
"3. c #8B705B",
"4. c #AD674C",
"5. c #AA6959",
"6. c #B56D53",
"7. c #BA6F54",
"8. c #BB7256",
"9. c #816B65",
"0. c #846E68",
"q. c #887268",
"w. c #8B746D",
"e. c #947D66",
"r. c #8C7670",
"t. c #927A73",
"y. c #917E78",
"u. c #A56F61",
"i. c #B16F60",
"p. c #AC7968",
"a. c #B87769",
"s. c #C57758",
"d. c #D47F5C",
"f. c #C47A6A",
"g. c #25874E",
"h. c #2A8A51",
"j. c #308552",
"k. c #308C56",
"l. c #2A9657",
"z. c #299857",
"x. c #31955A",
"c. c #31985C",
"v. c #31A15F",
"b. c #2EA660",
"n. c #31AE65",
"m. c #31B266",
"M. c #32B668",
"N. c #9B856B",
"B. c #9B856C",
"V. c #998771",
"C. c #9C847E",
"Z. c #A28C72",
"A. c #B28D73",
"S. c #D7835F",
"D. c #D8835E",
"F. c #C0826C",
"G. c #DB8661",
"H. c #DC8C68",
"J. c #C88775",
"K. c #CC8475",
"L. c #D78B7B",
"P. c #C7907B",
"I. c #E58E68",
"U. c #E08E7E",
"Y. c #7D888A",
"T. c #8B8F8E",
"R. c #9F8780",
"E. c #A58C85",
"W. c #A78F88",
"Q. c #A89089",
"!. c #AD9B96",
"~. c #B7A08F",
"^. c #96AAAE",
"/. c #AFAAA9",
"(. c #B7B5B4",
"). c #BDBDBC",
"_. c #CF9D87",
"`. c #E69886",
"'. c #F29D8B",
"]. c #C5A888",
"[. c #D8A48B",
"{. c #CCB08E",
"}. c #D8AE93",
"|. c #E7A58C",
" X c #EAAB91",
".X c #F2AC94",
"XX c #EAB497",
"oX c #EBB59B",
"OX c #F5B89C",
"+X c #FCBEA0",
"@X c #E9C29E",
"#X c #C1C0BF",
"$X c #E8C7A5",
"%X c #F6C7A5",
"&X c #FECDAA",
"*X c #EFD0A8",
"=X c #F6D4AB",
"-X c #FCD4AD",
";X c #F2C9B4",
":X c #F3CAB5",
">X c #FFDDB3",
",X c #F6D1BD",
"<X c #FFE1B5",
"1X c #FFE4B8",
"2X c #FFEBBE",
"3X c #B2C8CC",
"4X c #C1C3C2",
"5X c #CCCACA",
"6X c #CDD4D5",
"7X c #D7D6D6",
"8X c #FCE6D8",
"9X c #CEDFE3",
"0X c #CEE1E4",
"qX c #D1E6EA",
"wX c #D5EEF3",
"eX c #D7F2F7",
"rX c gray91",
"tX c gray97",
"yX c #FEFEFE",
"uX c None",
/* pixels */
"uXuXuXuXuXuXuXuXuXuXuXuXuXuXuXuXuXuXuXuXuXuXuXuXuXuXuXuXuXuXuXuXuXuXuXuXuXuXuXuXuXuXuXuXuXuXuXuXuXuXuXuXuXuXuXuXuXuXuXuXuXuX",
"uXuXuXuXuXuXuXuXuXuXuXuXuXuXuXuXuXuXuXuXuXuXuXuXuXuXuXuXuXuXuXuXuXuXuXuXuXuXuXuXuXuXuXuXuXuXuXuXuXuXuXuXuXuXuXuXuXuXuXuXuXuX",
"uXuXuXuXuXuXuXuXuXuXuXuXuXuXuXuXuXuXuXuXuXuXuXuXuXuXuXuXuXuXuXuXuXuXuXuXuXuXuXuXuXuXuXuXuXuXuXuXuXuXuXuXuXuXuXuXuXuXuXuXuXuX",
"uXuXuXuXuXuXuXuXuXuXuXuXuXuXuXuXuXuXuXuXuXuXuXuXuXuXuXuXuXuXuXuXuXuXuXuXuXuXuXuXuXuXuXuXuXuXuXuXuXuXuXuXuXuXuXuXuXuXuXuXuXuX",
"uXuXuXuXuXuXuXuXuXuXuXuXuXuXuXuXuXuXuXuXuXuXuXuXuXuXuXuXuXuXuXuXuXuXuXuXuXuXuXuXuXuXuXuXuXuXuXuXuXuXuXuXuXuXuXuXuXuXuXuXuXuX",
"uXuXuXuXuXuXuXuXuXuXuXuXuXuXuXuXuXuXuXuXuXuXuXuXuX  uXuXuXuXuXuXuXuX  uXuXuXuXuXuXuXuXuXuXuXuXuXuXuXuXuXuXuXuXuXuXuXuXuXuXuX",
"uXuXuXuXuXuXuXuXuXuXuXuXuXuXuXuXuXuXuXuXuXuXuXuX1 5 l c c c c c c q 0 & uXuXuXuXuXuXuXuXuXuXuXuXuXuXuXuXuXuXuXuXuXuXuXuXuXuX",
"uXuXuXuXuXuXuXuXuXuXuXuXuXuXuXuXuXuXuXuXuX, q q -.4.s.G.G.G.G.G.G.7.4.L 3 , uXuXuXuXuXuXuXuXuXuXuXuXuXuXuXuXuXuXuXuXuXuXuXuX",
"uXuXuXuXuXuXuXuXuXuXuXuXuXuXuXuXuXuXuX< 3 <.d.G.G.S.D.S.S.G.G.d.d.G.D.D.s.I , 1 uXuXuXuXuXuXuXuXuXuXuXuXuXuXuXuXuXuXuXuXuXuX",
"uXuXuXuXuXuXuXuXuXuXuXuXuXuXuXuXuXuXk S.S.S.S.S.S.G.G.S.S.S.d.G.G.F.S.D.D.S.D.6.> # uXuXuXuXuXuXuXuXuXuXuXuXuXuXuXuXuXuXuXuX",
"uXuXuXuXuXuXuXuXuXuXuXuXuXuXuXuXuXx S.S.S.S.S.S.S.S.S.S.S.S.G.G.S.S.S.S.S.S.D.S.s.>.& uXuXuXuXuXuXuXuXuXuXuXuXuXuXuXuXuXuXuX",
"uXuXuXuXuXuXuXuXuXuXuXuXuXuXuXuX} $XS.S.S.S.S.G.S.S.S.G.S.S.G.d.S.S.S.S.S.S.S.D.S.S.s.9 uXuXuXuXuXuXuXuXuXuXuXuXuXuXuXuXuXuX",
"uXuXuXuXuXuXuXuXuXuXuXuXuXuXuXb [.8X;XS.S.S.S.G.G.G.d.G.G.S.d.G.G.G.S.S.S.G.G.S.H.,XI.8.q uXuXuXuXuXuXuXuXuXuXuXuXuXuXuXuXuX",
"uXuXuXuXuXuXuXuXuXuXuXuXuXuX  B I.XX8X;XS.S.S.G.d.d.d.S.S.S.G.d.d.d.S.S.S.S.G.H.,X8Xx 0 o uXuXuXuXuXuXuXuXuXuXuXuXuXuXuXuXuX",
"uXuXuXuXuXuXuXuXuXuXuXuXuXuXb 6.S.H.|.|.;X;X:Xf.}.:X:XXXS.6.G.;X:X:XF._.:X:X:X,X8X[.P #   uXuXuXuXuXuXuXuXuXuXuXuXuXuXuXuXuX",
"uXuXuXuXuXuXuXuXuXuXuXuXuX  ;.I.d.7.S.H.XXXXoXP p.oX+XA.z z 7.XXoX[.2.J.oXXX}._.|.4.<.& uXuXuXuXuXuXuXuXuXuXuXuXuXuXuXuXuXuX",
"uXuXuXuXuXuXuXuXuXuXuXuXuX  k K ;.8.s.I 6.d.s., V d.4.B 1 . z B V ;.,.7.D.d.s.,.4.<.<.& uXuXuXuXuXuXuXuXuXuXuXuXuXuXuXuXuXuX",
"uXuXuXuXuXuXuXuXuXuXuXuXuXuX  & ;.G.,.# ,.7.L k z ,.L @ z     ~ . k :.6.s.S.6.<.<.<.<.& uXuXuXuXuXuXuXuXuXuXuXuXuXuXuXuXuXuX",
"uXuXuXuXuXuXuXuXuXuXuXuXuXuX  L G.6.v o V B o v 1 4 k     . ) rX#.+ l :.5.4.V V V <.I & uXuXuXuXuXuXuXuXuXuXuXuXuXuXuXuXuXuX",
"uXuXuXuXuXuXuXuXuXuXuXuXuXuX  B 6.v       y O   # .       r tXyXyXj   v ,.b 1 < 5 L o uXuXuXuXuXuXuXuXuXuXuXuXuXuXuXuXuXuXuX",
"uXuXuXuXuXuXuXuXuXuXuXuXuXuX  l b       = 7X!   V M       r tXyXyXj   v v N `.K.K.#   uXuXuXuXuXuXuXuXuXuXuXuXuXuXuXuXuXuXuX",
"uXuXuXuXuXuXuXuXuXuXuXuXuXuX    . uXuX  % rXtXj >.f.z     y tXyXyXj b q P K.V u K.#   uXuXuXuXuXuXuXuXuXuXuXuXuXuXuXuXuXuXuX",
"uXuXuXuXuXuXuXuXuXuXuXuXuXuXuXuXuXuXuX  = rXyXU <.'.[     y tXyXyXj B q P 5.u L.K.# uXuXuXuXuXuXuXuXuXuXuXuXuXuXuXuXuXuXuXuX",
"uXuXuXuXuXuXuXuXuXuXuXuXuXuXuXuXuXuXuX: 5XyXyXj e.>X3.j 7X7XyXtX~ 2.L.v  .N.p &XK.# uXuXuXuXuXuXuXuXuXuXuXuXuXuXuXuXuXuXuXuX",
"uXuXuXuXuXuXuXuXuXuXuXuXuXuXuXuXuXuXuX. U j S N.A.}.$Xe.! ! H ! Z.@X-XP.[.*X}.$Xu   uXuXuXuXuXuXuXuXuXuXuXuXuXuXuXuXuXuXuXuX",
"uXuXuXuXuXuXuXuXuXuXuXuXuXuXuXuXuXuXuX% N.N.B.=X@X%X2X*XV.N.N.N.=X<X<X%Xp.( ` J v . uXuXuXuXuXuXuXuXuXuXuXuXuXuXuXuXuXuXuXuX",
"uXuXuXuXuXuXuXuXuXuXuXuXuXuXuXuXuXuXuX< <X1X1XZ.X.X.] X.Z.1X<X1X>X<X&Xp.4       4       uXuXuXuXuXuXuXuXuXuXuXuXuXuXuXuXuXuX",
"uXuXuXuXuXuXuXuXuXuXuXuXuXuXuXuXuXuXuX; e.-X>Xi j &.#.j i >X>X>X1X&Xp.1 , P ] ] ` N       uXuXuXuXuXuXuXuXuXuXuXuXuXuXuXuXuX",
"uXuXuXuXuXuXuXuXuXuXuXuXuXuXuXuXuXuXuXuXX B.=X3.T.rXyX(.d <X<X&XA.u.3   _ &X1X1X>X.XV #       uXuXuXuXuXuXuXuXuXuXuXuXuXuXuX",
"uXuXuXuXuXuXuXuXuXuXuXuXuXuXuXuXuXuXuXuXuX  Z.{.l +.5X=.8 ].~.5.i     # N.1X>X>X>X>X|.5   O * $ uXuXuXuXuXuXuXuXuXuXuXuXuXuX",
"uXuXuXuXuXuXuXuXuXuXuXuXuXuXuXuXuXuXuXuXuXuX        X O     < < L <   >.OX>X>X>X>X>X|.3 = g A 7   uXuXuXuXuXuXuXuXuXuXuXuXuX",
"uXuXuXuXuXuXuXuXuXuXuXuXuXuXuXuXuXuXuXuXuXuXuXuXuX  7 Z X - f.K.8 A $ >.%X>X>X>X>X-X`.< ^.@.  . # # uXuXuXuXuXuXuXuXuXuXuXuX",
"uXuXuXuXuXuXuXuXuXuXuXuXuXuXuXuXuXuXuXuXuXuXuXuX  7 G Q W O % = h.E $ e.>X=X>X>X>X-X`.3 ^.@.  N U.u.  uXuXuXuXuXuXuXuXuXuXuX",
"uXuXuXuXuXuXuXuXuXuXuXuXuXuXuXuXuX      X X   uX  w Y Y E z.l.z.E G $ N.N.] <X>X-X|.`.3 ^.+.] XX'.a.X uXuXuXuXuXuXuXuXuXuXuX",
"uXuXuXuXuXuXuXuXuXuXuXuXuXuXuXuXJ {.[.A.% 2.a.u   w s 7 G E E E G G A s O.N.9 J -X`.M T.+.v A.>X-XoX5.o uXuXuXuXuXuXuXuXuXuX",
"uXuXuXuXuXuXuXuXuXuXuXuXuXuXuX  ` %XA.u.= XX.Xu   $ O 6 c.h.F F G G G A S 0 8 ]. X5.o 3XU _ oX<X<X-XK.o uXuXuXuXuXuXuXuXuXuX",
"uXuXuXuXuXuXuXuXuXuXuXuXuXuXuXuX` =X_.5.- $XJ.5       e M.n.k.k.k.R F G A e S ` N u Y.&.M i.+X1X-X`.2.. uXuXuXuXuXuXuXuXuXuX",
"uXuXuXuXuXuXuXuXuXuXuXuXuXuXuXuX` >XOXK.& [.P .       e M.n.m.m.m.k.j.j.Q G A *     &.$ >.L.OX-X.XL.-.. uXuXuXuXuXuXuXuXuXuX",
"uXuXuXuXuXuXuXuXuXuXuXuXuXuXuXuXP XXf.5.# [ P @ uXuXO C z.n.n.m.m.m.M.v.Q G G F 7       N K.OXOX`.i.v   uXuXuXuXuXuXuXuXuXuX",
"uXuXuXuXuXuXuXuXuXuXuXuXuXuXuXuXN `.2.-.1   i.q uXuX7 T E m.m.x.x.x.x.E F G G G F X       P 5.2.>.v   uXuXuXuXuXuXuXuXuXuXuX",
"uXuXuXuXuXuXuXuXuXuXuXuXuXuXuX  l K.L.5.<.# b , uX  * A D g.g.Q E E E E R G G T A X uXuXuXuX        uXuXuXuXuXuXuXuXuXuXuXuX",
"uXuXuXuXuXuXuXuXuXuXuXuXuXuXuXuX  u K.f.I o   uX        X @ ; h.l.l.l.l.g.R R T F O uXuXuXuXuXuXuXuXuXuXuXuXuXuXuXuXuXuXuXuX",
"uXuXuXuXuXuXuXuXuXuXuXuXuXuXuXuXuX  . . X   uX          , :.I - % % # . C b.h.F G F O uXuXuXuXuXuXuXuXuXuXuXuXuXuXuXuXuXuXuX",
"uXuXuXuXuXuXuXuXuXuXuXuXuXuXuXuXuXuX          .   X       o 3 a.K.K.1.:.x O O $ G F O uXuXuXuXuXuXuXuXuXuXuXuXuXuXuXuXuXuXuX",
"uXuXuXuXuXuXuXuXuXuXuXuXuXuXuXuXuXuX  # w.r.w.w.r.r.%.h   r 4Xa , , & @ l :.b   O O   uXuXuXuXuXuXuXuXuXuXuXuXuXuXuXuXuXuXuX",
"uXuXuXuXuXuXuXuXuXuXuXuXuXuXuXuXuX- / 0.E.W.W.W.W.Q.t.{ H ' y./ H ^ -   o , &     s X uXuXuXuXuXuXuXuXuXuXuXuXuXuXuXuXuXuXuX",
"uXuXuXuXuXuXuXuXuXuXuXuXuXuXuXuX2 ' C.W.E.E.W.E.E.Q.| f o...{ t { ..^ m m m a   X * X uXuXuXuXuXuXuXuXuXuXuXuXuXuXuXuXuXuXuX",
"uXuXuXuXuXuXuXuXuXuXuXuXuXuXuX  t 0.W.E.W.W.W.W.t.t.m : O.{ a f 9.r.t.^ H $.{ a   uXuXuXuXuXuXuXuXuXuXuXuXuXuXuXuXuXuXuXuXuX",
"uXuXuXuXuXuXuXuXuXuXuXuXuXuXuXuX9 0.W.E.t.r.r.t.%.^ ; # f i . 0.(.).#X*.d m ' a   uXuXuXuXuXuXuXuXuXuXuXuXuXuXuXuXuXuXuXuXuX",
"uXuXuXuXuXuXuXuXuXuXuXuXuXuXuXuXt %.t.r.| n n n m :         y R.0XeXeX6X*.H ^     uXuXuXuXuXuXuXuXuXuXuXuXuXuXuXuXuXuXuXuXuX",
"uXuXuXuXuXuXuXuXuXuXuXuXuXuXuX  t o.|  .| 2 - .           = %./.qXwXeXeX5Xt.H     uXuXuXuXuXuXuXuXuXuXuXuXuXuXuXuXuXuXuXuXuX",
"uXuXuXuXuXuXuXuXuXuXuXuXuXuXuXuX2 { $.O. . ...t % .       - W.qXwXwX0XqX4Xt.H     uXuXuXuXuXuXuXuXuXuXuXuXuXuXuXuXuXuXuXuXuX",
"uXuXuXuXuXuXuXuXuXuXuXuXuXuXuXuXuXy y.C.o.O... ...f O .   - W.qXwXeX(.4X#Xt.n     uXuXuXuXuXuXuXuXuXuXuXuXuXuXuXuXuXuXuXuXuX",
"uXuXuXuXuXuXuXuXuXuXuXuXuXuXuXuXuXuXt E.E.E.$.....| | m   = E.9XwXwXwX(.W.{       uXuXuXuXuXuXuXuXuXuXuXuXuXuXuXuXuXuXuXuXuX",
"uXuXuXuXuXuXuXuXuXuXuXuXuXuXuXuXuXuX< E.E.E.E.R.9.| ..| m - E.!.9XwXeX(.t.m       uXuXuXuXuXuXuXuXuXuXuXuXuXuXuXuXuXuXuXuXuX",
"uXuXuXuXuXuXuXuXuXuXuXuXuXuXuXuXuXuXuXy Z.E.E.E.E.0...^ + # 9.Z.!.!.!.y.O.n       uXuXuXuXuXuXuXuXuXuXuXuXuXuXuXuXuXuXuXuXuX",
"uXuXuXuXuXuXuXuXuXuXuXuXuXuXuXuXuXuXuX# R.W.E.E.t.$.H #     2 O.9.$.9... .{ ^ n   uXuXuXuXuXuXuXuXuXuXuXuXuXuXuXuXuXuXuXuXuX",
"uXuXuXuXuXuXuXuXuXuXuXuXuXuXuXuXuXuX= ^ 0.q.w.w.m 2 -   - / O {  . . . . . .o.| n   uXuXuXuXuXuXuXuXuXuXuXuXuXuXuXuXuXuXuXuX",
"uXuXuXuXuXuXuXuXuXuXuXuXuXuXuXuXuXuXO a 9 3 2 9 .     ; / m + a {  . . . . . . .| f + uXuXuXuXuXuXuXuXuXuXuXuXuXuXuXuXuXuXuX",
"uXuXuXuXuXuXuXuXuXuXuXuXuXuXuXuXuXuX  + #.&.&.&.*.*.+.^ ^ uXuX  '  . . . . .o.0... .#   uXuXuXuXuXuXuXuXuXuXuXuXuXuXuXuXuXuX",
"uXuXuXuXuXuXuXuXuXuXuXuXuXuXuXuXuXuXuXr yXyXyXyXyXyX4Xm uXuXuX  n {  . . ...t.C. .| O   uXuXuXuXuXuXuXuXuXuXuXuXuXuXuXuXuXuX",
"uXuXuXuXuXuXuXuXuXuXuXuXuXuXuXuXuXuXuX; (.).).).).4X*.uXuXuXuXuX  / 9.$.$.t.E.t. .^ y . uXuXuXuXuXuXuXuXuXuXuXuXuXuXuXuXuXuX",
"uXuXuXuXuXuXuXuXuXuXuXuXuXuXuXuXuXuXuX              uXuXuXuXuXuX  %.W.E.W.E.t. .' + t.2 uXuXuXuXuXuXuXuXuXuXuXuXuXuXuXuXuXuX",
"uXuXuXuXuXuXuXuXuXuXuXuXuXuXuXuXuXuXuXuXuXuXuXuXuXuXuXuXuXuXuXuX  %.Q.E.Z.t.| ' / : 0.2 uXuXuXuXuXuXuXuXuXuXuXuXuXuXuXuXuXuX",
"uXuXuXuXuXuXuXuXuXuXuXuXuXuXuXuXuXuXuXuXuXuXuXuXuXuXuXuXuXuXuX    %.W.0.|  .^ X 2 w.: uXuXuXuXuXuXuXuXuXuXuXuXuXuXuXuXuXuXuX",
"uXuXuXuXuXuXuXuXuXuXuXuXuXuXuXuXuXuXuXuXuXuXuXuXuXuXuXuXuXuXuX  ^ ..$.f . #   y 6XE.- uXuXuXuXuXuXuXuXuXuXuXuXuXuXuXuXuXuXuX",
"uXuXuXuXuXuXuXuXuXuXuXuXuXuXuXuXuXuXuXuXuXuXuXuXuXuXuXuXuXuXuX  - % =       h 5X!.t uXuXuXuXuXuXuXuXuXuXuXuXuXuXuXuXuXuXuXuX",
"uXuXuXuXuXuXuXuXuXuXuXuXuXuXuXuXuXuXuXuXuXuXuXuXuXuXuXuXuXuXuXuX  T.(.(.(.(.(.!.t uXuXuXuXuXuXuXuXuXuXuXuXuXuXuXuXuXuXuXuXuX",
"uXuXuXuXuXuXuXuXuXuXuXuXuXuXuXuXuXuXuXuXuXuXuXuXuXuXuXuXuXuXuXuX  5XyXyXyXyX7Xi uXuXuXuXuXuXuXuXuXuXuXuXuXuXuXuXuXuXuXuXuXuX",
"uXuXuXuXuXuXuXuXuXuXuXuXuXuXuXuXuXuXuXuXuXuXuXuXuXuXuXuXuXuXuXuX  ) =.=.*.=.#.uXuXuXuXuXuXuXuXuXuXuXuXuXuXuXuXuXuXuXuXuXuXuX",
"uXuXuXuXuXuXuXuXuXuXuXuXuXuXuXuXuXuXuXuXuXuXuXuXuXuXuXuXuXuXuXuXuX          uXuXuXuXuXuXuXuXuXuXuXuXuXuXuXuXuXuXuXuXuXuXuXuX",
"uXuXuXuXuXuXuXuXuXuXuXuXuXuXuXuXuXuXuXuXuXuXuXuXuXuXuXuXuXuXuXuXuXuXuXuXuXuXuXuXuXuXuXuXuXuXuXuXuXuXuXuXuXuXuXuXuXuXuXuXuXuX",
"uXuXuXuXuXuXuXuXuXuXuXuXuXuXuXuXuXuXuXuXuXuXuXuXuXuXuXuXuXuXuXuXuXuXuXuXuXuXuXuXuXuXuXuXuXuXuXuXuXuXuXuXuXuXuXuXuXuXuXuXuXuX",
"uXuXuXuXuXuXuXuXuXuXuXuXuXuXuXuXuXuXuXuXuXuXuXuXuXuXuXuXuXuXuXuXuXuXuXuXuXuXuXuXuXuXuXuXuXuXuXuXuXuXuXuXuXuXuXuXuXuXuXuXuXuX",
"uXuXuXuXuXuXuXuXuXuXuXuXuXuXuXuXuXuXuXuXuXuXuXuXuXuXuXuXuXuXuXuXuXuXuXuXuXuXuXuXuXuXuXuXuXuXuXuXuXuXuXuXuXuXuXuXuXuXuXuXuXuX"
};
