/* XPM */
static char *result[] = {
/* columns rows colors chars-per-pixel */
"62 75 217 2 ",
"   c #010101",
".  c #090605",
"X  c #040906",
"o  c #090A08",
"O  c #0B0B0A",
"+  c #130D0C",
"@  c #190E0B",
"#  c #06150E",
"$  c #08100B",
"%  c #13110F",
"&  c #1D110E",
"*  c #0E1913",
"=  c #151313",
"-  c #1B1614",
";  c #1C1817",
":  c #141D1A",
">  c gray11",
",  c #21130F",
"<  c #221512",
"1  c #281814",
"2  c #2B1914",
"3  c #221C1A",
"4  c #2D1D1A",
"5  c #321E19",
"6  c #092817",
"7  c #102619",
"8  c #13251A",
"9  c #28251D",
"0  c #352119",
"q  c #3A221B",
"w  c #192B21",
"e  c #1B3425",
"r  c #1B3627",
"t  c #2C2522",
"y  c #282726",
"u  c #322A26",
"i  c #382B28",
"p  c #22392A",
"a  c #3B312D",
"s  c gray20",
"d  c #3D3432",
"f  c #373939",
"g  c #412316",
"h  c #41261D",
"j  c #462923",
"k  c #4C2E24",
"l  c #4D362D",
"z  c #42392E",
"x  c #583425",
"c  c #54332A",
"v  c #5B352B",
"b  c #413433",
"n  c #453935",
"m  c #463B36",
"M  c #4A3D39",
"N  c #5A3C34",
"B  c #653D2D",
"V  c #663E35",
"C  c #14542F",
"Z  c #155630",
"A  c #21412E",
"S  c #284B36",
"D  c #235738",
"F  c #2E543D",
"G  c #2F593F",
"H  c #30553E",
"J  c #1E673C",
"K  c #4D403C",
"L  c #51443D",
"P  c #564A3C",
"I  c #6A4236",
"U  c #784737",
"Y  c #7B4B36",
"T  c #2E5E41",
"R  c #305A41",
"E  c #2C6643",
"W  c #306947",
"Q  c #2D7249",
"!  c #30734B",
"~  c #307B4E",
"^  c #317F51",
"/  c #544541",
"(  c #5B4B45",
")  c #5B4D47",
"_  c #53514D",
"`  c #4B5659",
"'  c #664D44",
"]  c #774C44",
"[  c #615444",
"{  c #61514C",
"}  c #7C5248",
"|  c #6A5954",
" . c #6E5A54",
".. c #715D57",
"X. c #735F58",
"o. c #796754",
"O. c #75615B",
"+. c #79645E",
"@. c #586364",
"#. c #686868",
"$. c #7A6661",
"%. c #7C6A64",
"&. c #777777",
"*. c #86513D",
"=. c #834E41",
"-. c #895448",
";. c #975B49",
":. c #8C5C51",
">. c #936253",
",. c #85735D",
"<. c #89735E",
"1. c #A8654E",
"2. c #A36354",
"3. c #A86956",
"4. c #B36B53",
"5. c #A7745D",
"6. c #BB7154",
"7. c #826D66",
"8. c #887465",
"9. c #8D7B65",
"0. c #8A746D",
"q. c #927E66",
"w. c #8D7974",
"e. c #937B75",
"r. c #967E78",
"t. c #AC7463",
"y. c #B97667",
"u. c #C77858",
"i. c #D37F5B",
"p. c #C37C6C",
"a. c #2B8450",
"s. c #318352",
"d. c #328D57",
"f. c #329359",
"g. c #319B5C",
"h. c #31A661",
"j. c #31AE65",
"k. c #31B166",
"l. c #31B568",
"z. c #9B856C",
"x. c #9F8B70",
"c. c #9A827B",
"v. c #A18C71",
"b. c #B88C76",
"n. c #D7835F",
"m. c #DA845E",
"M. c #C98368",
"N. c #D98561",
"B. c #D88764",
"V. c #DE8863",
"C. c #C98374",
"Z. c #D5897A",
"A. c #D39277",
"S. c #DC9477",
"D. c #E28A64",
"F. c #E2916E",
"G. c #E19B7B",
"H. c gray54",
"J. c #979696",
"K. c #A58C85",
"L. c #A88F88",
"P. c #AA938C",
"I. c #AA998F",
"U. c #AE9B96",
"Y. c #B1A19C",
"T. c #8E9DA0",
"R. c #95A7AA",
"E. c #98ACB0",
"W. c gray65",
"Q. c #B6ABA7",
"!. c #B9B8B8",
"~. c #D59983",
"^. c #E49584",
"/. c #E39D82",
"(. c #E89987",
"). c #EB9A88",
"_. c #F19D8C",
"`. c #C8AC8B",
"'. c #D3A589",
"]. c #CCB08E",
"[. c #D4B592",
"{. c #DABB97",
"}. c #E7A487",
"|. c #ECA48E",
" X c #EEAD94",
".X c #F6B499",
"XX c #D0B6AC",
"oX c #ECBDA6",
"OX c #FDBFA1",
"+X c #DDC09B",
"@X c #E5C39E",
"#X c #E9C6A1",
"$X c #EACAA3",
"%X c #FACBA7",
"&X c #F7D4AC",
"*X c #FCD4AD",
"=X c #ECCAB9",
"-X c #FFD7B1",
";X c #FFDCB2",
":X c #FFE1B6",
">X c #FFE5B9",
",X c #FFEABE",
"<X c #C6C6C6",
"1X c #D0CECD",
"2X c gainsboro",
"3X c #F8D8C6",
"4X c #FCE3D4",
"5X c #FFEBDD",
"6X c #D1E6EA",
"7X c #D5EEF3",
"8X c #D6F1F6",
"9X c #E7E7E7",
"0X c gray93",
"qX c #FFEEE1",
"wX c #F4F4F4",
"eX c #FEFEFE",
"rX c None",
/* pixels */
"rXrXrXrXrXrXrXrXrXrXrXrXrXrXrXrXrXrXrXrXrXrXrXrXrXrXrXrXrXrXrXrXrXrXrXrXrXrXrXrXrXrXrXrXrXrXrXrXrXrXrXrXrXrXrXrXrXrXrXrXrXrX",
"rXrXrXrXrXrXrXrXrXrXrXrXrXrXrXrXrXrXrXrXrXrXrXrXrXrXrXrXrXrXrXrXrXrXrXrXrXrXrXrXrXrXrXrXrXrXrXrXrXrXrXrXrXrXrXrXrXrXrXrXrXrX",
"rXrXrXrXrXrXrXrXrXrXrXrXrXrXrXrXrXrXrXrXrXrXrXrXrXrXrXrXrXrXrXrXrXrXrXrXrXrXrXrXrXrXrXrXrXrXrXrXrXrXrXrXrXrXrXrXrXrXrXrXrXrX",
"rXrXrXrXrXrXrXrXrXrXrXrXrXrXrXrXrXrX                          rXrXrXrXrXrXrXrXrXrXrXrXrXrXrXrXrXrXrXrXrXrXrXrXrXrXrXrXrXrXrX",
"rXrXrXrXrXrXrXrXrXrXrXrXrXrXrX    @ c c c U Y Y Y Y Y Y Y U k       rXrXrXrXrXrXrXrXrXrXrXrXrXrXrXrXrXrXrXrXrXrXrXrXrXrXrXrX",
"rXrXrXrXrXrXrXrXrXrXrXrXrXrX2 c B Y 6.6.6.N.V.V.V.V.V.D.V.n.4.I B B 2 rXrXrXrXrXrXrXrXrXrXrXrXrXrXrXrXrXrXrXrXrXrXrXrXrXrXrX",
"rXrXrXrXrXrXrXrXrXrXrXrXh k -.u.D.V.N.m.N.m.n.n.n.n.n.n.n.n.m.V.V.D.Y x g rXrXrXrXrXrXrXrXrXrXrXrXrXrXrXrXrXrXrXrXrXrXrXrXrX",
"rXrXrXrXrXrXrXrXrXh h h 6.D.N.n.n.n.n.n.n.n.n.n.n.n.n.n.n.n.n.n.n.n.V.D.*.2 rXrXrXrXrXrXrXrXrXrXrXrXrXrXrXrXrXrXrXrXrXrXrXrX",
"rXrXrXrXrXrXrXrX< 1.4.S.B.n.n.n.n.n.n.n.n.n.n.n.n.n.n.n.n.n.n.n.n.n.N.n.F.3.2 5 rXrXrXrXrXrXrXrXrXrXrXrXrXrXrXrXrXrXrXrXrXrX",
"rXrXrXrXrXrXrXrX  . 3 =X}.n.n.n.n.n.n.n.n.n.n.n.n.n.n.n.n.n.n.n.n.n.N.N.oX#X6.*.  rXrXrXrXrXrXrXrXrXrXrXrXrXrXrXrXrXrXrXrXrX",
"rXrXrXrXrXrXrXrXrX, 6.3X4X}.N.n.n.n.n.n.n.n.N.n.n.n.n.n.n.n.n.N.N.B.B.oXqXI.. .   rXrXrXrXrXrXrXrXrXrXrXrXrXrXrXrXrXrXrXrXrX",
"rXrXrXrXrXrXrXrX2 u.n.B.3X4X|.n.N.N.n.N.N.N.N.n.n.N.N.N.N.N.N.N.N.=X3X4XqXXXv   rXrXrXrXrXrXrXrXrXrXrXrXrXrXrXrXrXrXrXrXrXrX",
"rXrXrXrXrXrXrX0 6.m.n.n.F.A.oX3X3X{.t.3X3X3XF.1.u..X3X3X3X=X3.=X3X4X5XoXV.p.V   rXrXrXrXrXrXrXrXrXrXrXrXrXrXrXrXrXrXrXrXrXrX",
"rXrXrXrXrXrXrXo q 0 0 -.n.m.F./.|.5.k G.S.}.c < U M.}.}.S.t.2.G.G./.b.p.u.1.V   rXrXrXrXrXrXrXrXrXrXrXrXrXrXrXrXrXrXrXrXrXrX",
"rXrXrXrXrXrXrXrXrX. *.6.4.I *.u.i.U & 4.u.x v + @ g g q v ;.;.i.i.D.1.1.1.V @       rXrXrXrXrXrXrXrXrXrXrXrXrXrXrXrXrXrXrXrX",
"rXrXrXrXrXrXrXrXrX+ 4.6.x X c 1.-.1 o k 1.o q +     s @.  k ;.4.6.B g 5 h V 9.9.<.] + rXrXrXrXrXrXrXrXrXrXrXrXrXrXrXrXrXrXrX",
"rXrXrXrXrXrXrXrXrX. h h .   5 c <       h .       f !.9X_ . c -.k N ] 4 9 v.>X>X:X.X} < rXrXrXrXrXrXrXrXrXrXrXrXrXrXrXrXrXrX",
"rXrXrXrXrXrXrXrXrX  P P P %     y /   . 1         H.eXeX1X    c l y.y.0 o.>X;X;X;X;X|.5 rXrXrXrXrXrXrXrXrXrXrXrXrXrXrXrXrXrX",
"rXrXrXrXrXrXrXrXrXP *X:X>Xo.+   #.1Xs + 2.5       H.eXeX<X  - . C.-.@ - x.:X;X;X;X%X(.4 rXrXrXrXrXrXrXrXrXrXrXrXrXrXrXrXrXrX",
"rXrXrXrXrXrXrXrXP ;X;X;X;X.XN   @.eX1X; Z.3.&     H.eXeX<X+ ;.+ C.i   q.>X;X;X;X-X(.^.4 > w rXrXrXrXrXrXrXrXrXrXrXrXrXrXrXrX",
"rXrXrXrXrXrXrXz ;X;X;X;X*X XN   &.eX<X; ^.^.4 = = J.eX9XQ.u C.0 {.P   z.;X$X;X;X*X(.^.2 R.@.rXrXrXrXrXrXrXrXrXrXrXrXrXrXrXrX",
"rXrXrXrXrXrXrXz ;X;X;X-X|._.c #.0XwX<X9 $X&Xu W.9XwXJ.% l S.(.^.#X$Xz ,.<.[ &X&X*X(.^.2 E.@.  rXrXrXrXrXrXrXrXrXrXrXrXrXrXrX",
"rXrXrXrXrXrXrXz ;X;X*X|.^.).N O y > K [.t.&X@X( > : ..#X#X-X%X^.i ; O O ,.x.= m %X(.2.@ E.@.    rXrXrXrXrXrXrXrXrXrXrXrXrXrX",
"rXrXrXrXrXrXrXz :X*X|.).^.p.5 [ [.].{.-X@X-X;X+X].].@X:X;X*X).3.@ v ] 5 + & u [.}.2.2 R.` 9.~.]   rXrXrXrXrXrXrXrXrXrXrXrXrX",
"rXrXrXrXrXrXrXrX'  X^.^.y.c   ,.,X:X:X;X:X:X:X,X8.v.>X;X-X}.2.2   @ 2 p A 7 + l i 9 T.` 9.$XOXZ.]   rXrXrXrXrXrXrXrXrXrXrXrX",
"rXrXrXrXrXrXrXrXrXV ^.p.;., 5 N x.>X;X$X[ P P P +.[.;X-X}.2.i -.+ 8 w S R S r w w   ` 9.#X:X*X XZ.]   rXrXrXrXrXrXrXrXrXrXrX",
"rXrXrXrXrXrXrXrXrX  V j q I 5.-.l v.>X*X9.,.,.,.+X*XOX~.c j } ] p Q d.W F G T R G w   ].:X;X:X*X.Xy.  rXrXrXrXrXrXrXrXrXrXrX",
"rXrXrXrXrXrXrXrXrX      l p._.p.V l 9.9.z.z.z.z.q.>.] ] V ' =.8 Q h.l.f.W F F R R F $ ].:X;X;X;X%Xy.  rXrXrXrXrXrXrXrXrXrXrX",
"rXrXrXrXrXrXrXrXrXrXrX  } ^.).C.3.U 1 &   # # # # # # i 3.:.: Q h.k.k.k.g.! W R R S . `.;X;X;X:X-Xb.. rXrXrXrXrXrXrXrXrXrXrX",
"rXrXrXrXrXrXrXrXrXrXrX    ] Z._.Z.2.;.=.o S R R R W ! D 6 6 ! j.k.g.g.g.g.g.d.R R F : :. X;X:X@X`.z.  rXrXrXrXrXrXrXrXrXrXrX",
"rXrXrXrXrXrXrXrXrXrXrXrX    } p.Z.Z.2.=.o T T R S ^ l.k.k.k.j.k.j.~ E E S S S S S S S X :.'.+X8.    rXrXrXrXrXrXrXrXrXrXrXrX",
"rXrXrXrXrXrXrXrXrXrXrXrXrXrX.   N Z.p.U o a.T F * C h.k.k.k.j.j.j.j.j.s.r .               o . . rXrXrXrXrXrXrXrXrXrXrXrXrXrX",
"rXrXrXrXrXrXrXrXrXrXrXrXrXrXrXrXrX+ + .   X X .     Z k.j.k.j.j.j.j.j.j.^ e         rXrXrXrXrXrXrXrXrXrXrXrXrXrXrXrXrXrXrXrX",
"rXrXrXrXrXrXrXrXrXrXrXrXrXrXrXrXrXrXrXrXrXrXrXrXrX  8 s.k.j.j.j.j.k.k.k.d.S A p   rXrXrXrXrXrXrXrXrXrXrXrXrXrXrXrXrXrXrXrXrX",
"rXrXrXrXrXrXrXrXrXrXrXrXrXrXrXrXrXrXrXrXrXrXrXrXrX  8 T ~ k.j.j.k.k.k.d.T R R R p X rXrXrXrXrXrXrXrXrXrXrXrXrXrXrXrXrXrXrXrX",
"rXrXrXrXrXrXrXrXrXrXrXrXrXrXrXrXrXrXrXrXrXrXrXrXrXrX$ w T Q ! ! h.^ ! T R R R R R   rXrXrXrXrXrXrXrXrXrXrXrXrXrXrXrXrXrXrXrX",
"rXrXrXrXrXrXrXrXrXrXrXrXrXrXrXrXrXrXrXrXrXrXrXrXrXrXrX* H R d.d.j.f.d.f.f.d.~ R R e $ rXrXrXrXrXrXrXrXrXrXrXrXrXrXrXrXrXrXrX",
"rXrXrXrXrXrXrXrXrXrXrXrXrXrXrXrXrXrXrXrXrXrXrXrXrXrXrX7 f.a.Z Z C C Z C Z J ~ R R R $ rXrXrXrXrXrXrXrXrXrXrXrXrXrXrXrXrXrXrX",
"rXrXrXrXrXrXrXrXrXrXrXrXrXrXrXrXrXrXrXrXrXrXrXrXrXrXrX6 J D d d b b d b - . e p R R o rXrXrXrXrXrXrXrXrXrXrXrXrXrXrXrXrXrXrX",
"rXrXrXrXrXrXrXrXrXrXrXrXrXrXrXrXrXrXrXrXrXrXrXrXrXrXrX  X n K.Q.Q.Q.U.P.X.t +   p p X rXrXrXrXrXrXrXrXrXrXrXrXrXrXrXrXrXrXrX",
"rXrXrXrXrXrXrXrXrXrXrXrXrXrXrXrXrXrXrXrXrXrXrXrXrXrX    a L.Q.6X8X8X!.Y.U.c.{ +       rXrXrXrXrXrXrXrXrXrXrXrXrXrXrXrXrXrXrX",
"rXrXrXrXrXrXrXrXrXrXrXrXrXrXrXrXrXrXrXrXrXrXrXrXrX    u 7.Q.7X8X8X7X6X6X!.v.r.) O     rXrXrXrXrXrXrXrXrXrXrXrXrXrXrXrXrXrXrX",
"rXrXrXrXrXrXrXrXrXrXrXrXrXrXrXrXrXrXrXrXrXrXrXrX    t 7.U.6X6X6X6X6XQ.L.L.w.|  .{ .   rXrXrXrXrXrXrXrXrXrXrXrXrXrXrXrXrXrXrX",
"rXrXrXrXrXrXrXrXrXrXrXrXrXrXrXrXrXrXrXrXrXrXrXrX    u X.7.P.P.P.P.P.L.K.e.M . = { .   rXrXrXrXrXrXrXrXrXrXrXrXrXrXrXrXrXrXrX",
"rXrXrXrXrXrXrXrXrXrXrXrXrXrXrXrXrXrXrXrXrXrXrXrX    t X...+.+.+.+.c.L.0.X.| n   O     rXrXrXrXrXrXrXrXrXrXrXrXrXrXrXrXrXrXrX",
"rXrXrXrXrXrXrXrXrXrXrXrXrXrXrXrXrXrXrXrXrXrXrX      u +.$.c.c.c.c.K.L.0. .X. .M       rXrXrXrXrXrXrXrXrXrXrXrXrXrXrXrXrXrXrX",
"rXrXrXrXrXrXrXrXrXrXrXrXrXrXrXrXrXrXrXrXrXrXrX  u 3 . d O.7.7.7.7.7.7.+...+.{ 3     rXrXrXrXrXrXrXrXrXrXrXrXrXrXrXrXrXrXrXrX",
"rXrXrXrXrXrXrXrXrXrXrXrXrXrXrXrXrXrXrXrXrXrXrX  M ) ; 3 +.X... . .|  .X./ u 3       rXrXrXrXrXrXrXrXrXrXrXrXrXrXrXrXrXrXrXrX",
"rXrXrXrXrXrXrXrXrXrXrXrXrXrXrXrXrXrXrXrXrXrX  3 ) +.b O a n O.7.0.0.+.L =   o i u     rXrXrXrXrXrXrXrXrXrXrXrXrXrXrXrXrXrXrX",
"rXrXrXrXrXrXrXrXrXrXrXrXrXrXrXrXrXrXrXrXrXrX  / O.X./ =   . M K.P.P.r.) d d /  .n .   rXrXrXrXrXrXrXrXrXrXrXrXrXrXrXrXrXrXrX",
"rXrXrXrXrXrXrXrXrXrXrXrXrXrXrXrXrXrXrXrXrXrX  L X.X.X.( =   . ..$.$.$.%.%.%.O.b       rXrXrXrXrXrXrXrXrXrXrXrXrXrXrXrXrXrXrX",
"rXrXrXrXrXrXrXrXrXrXrXrXrXrXrXrXrXrXrXrXrXrX  L X.X.X. .n                       ;     rXrXrXrXrXrXrXrXrXrXrXrXrXrXrXrXrXrXrX",
"rXrXrXrXrXrXrXrXrXrXrXrXrXrXrXrXrXrXrXrXrXrX  L O...X.L o     > w > > > ; + + y 7.o rXrXrXrXrXrXrXrXrXrXrXrXrXrXrXrXrXrXrXrX",
"rXrXrXrXrXrXrXrXrXrXrXrXrXrXrXrXrXrXrXrXrXrX  K ....X.../   = 2XwXwX0XwXXXH.c.$.O rXrXrXrXrXrXrXrXrXrXrXrXrXrXrXrXrXrXrXrXrX",
"rXrXrXrXrXrXrXrXrXrXrXrXrXrXrXrXrXrXrXrXrXrXrX. M O...X.../ > 9XeXeXXXP.P...O + rXrXrXrXrXrXrXrXrXrXrXrXrXrXrXrXrXrXrXrXrXrX",
"rXrXrXrXrXrXrXrXrXrXrXrXrXrXrXrXrXrXrXrXrXrXrX  n O....... .) y s y 3 ; ; = rXrXrXrXrXrXrXrXrXrXrXrXrXrXrXrXrXrXrXrXrXrXrXrX",
"rXrXrXrXrXrXrXrXrXrXrXrXrXrXrXrXrXrXrXrXrXrXrXrX= M X........./ M M / 3   rXrXrXrXrXrXrXrXrXrXrXrXrXrXrXrXrXrXrXrXrXrXrXrXrX",
"rXrXrXrXrXrXrXrXrXrXrXrXrXrXrXrXrXrXrXrXrXrXrXrX  i +.X.........w.%.+.t   rXrXrXrXrXrXrXrXrXrXrXrXrXrXrXrXrXrXrXrXrXrXrXrXrX",
"rXrXrXrXrXrXrXrXrXrXrXrXrXrXrXrXrXrXrXrXrXrXrXrXrX3 K ......X.0.K.7.M M t   rXrXrXrXrXrXrXrXrXrXrXrXrXrXrXrXrXrXrXrXrXrXrXrX",
"rXrXrXrXrXrXrXrXrXrXrXrXrXrXrXrXrXrXrXrXrXrXrXrXrX  i 0.7.0.0.K.e.$.- { {   rXrXrXrXrXrXrXrXrXrXrXrXrXrXrXrXrXrXrXrXrXrXrXrX",
"rXrXrXrXrXrXrXrXrXrXrXrXrXrXrXrXrXrXrXrXrXrXrXrXrX  n P.L.L.K.r.$.M a ) n rXrXrXrXrXrXrXrXrXrXrXrXrXrXrXrXrXrXrXrXrXrXrXrXrX",
"rXrXrXrXrXrXrXrXrXrXrXrXrXrXrXrXrXrXrXrXrXrXrXrXrX+ / K.r.c.e.( M M w.M   rXrXrXrXrXrXrXrXrXrXrXrXrXrXrXrXrXrXrXrXrXrXrXrXrX",
"rXrXrXrXrXrXrXrXrXrXrXrXrXrXrXrXrXrXrXrXrXrXrXrX  u { ( ( ( / . y <XQ.s rXrXrXrXrXrXrXrXrXrXrXrXrXrXrXrXrXrXrXrXrXrXrXrXrXrX",
"rXrXrXrXrXrXrXrXrXrXrXrXrXrXrXrXrXrXrXrXrXrXrXrX    O > > ; > > 1XY.u rXrXrXrXrXrXrXrXrXrXrXrXrXrXrXrXrXrXrXrXrXrXrXrXrXrXrX",
"rXrXrXrXrXrXrXrXrXrXrXrXrXrXrXrXrXrXrXrXrXrXrXrXrX  #.wX0X0X0X0XU.u rXrXrXrXrXrXrXrXrXrXrXrXrXrXrXrXrXrXrXrXrXrXrXrXrXrXrXrX",
"rXrXrXrXrXrXrXrXrXrXrXrXrXrXrXrXrXrXrXrXrXrXrXrXrX  #.eXeXeXeXwXs rXrXrXrXrXrXrXrXrXrXrXrXrXrXrXrXrXrXrXrXrXrXrXrXrXrXrXrXrX",
"rXrXrXrXrXrXrXrXrXrXrXrXrXrXrXrXrXrXrXrXrXrXrXrXrX  = f s s s s rXrXrXrXrXrXrXrXrXrXrXrXrXrXrXrXrXrXrXrXrXrXrXrXrXrXrXrXrXrX",
"rXrXrXrXrXrXrXrXrXrXrXrXrXrXrXrXrXrXrXrXrXrXrXrXrXrXrXrXrXrXrXrXrXrXrXrXrXrXrXrXrXrXrXrXrXrXrXrXrXrXrXrXrXrXrXrXrXrXrXrXrXrX",
"rXrXrXrXrXrXrXrXrXrXrXrXrXrXrXrXrXrXrXrXrXrXrXrXrXrXrXrXrXrXrXrXrXrXrXrXrXrXrXrXrXrXrXrXrXrXrXrXrXrXrXrXrXrXrXrXrXrXrXrXrXrX",
"rXrXrXrXrXrXrXrXrXrXrXrXrXrXrXrXrXrXrXrXrXrXrXrXrXrXrXrXrXrXrXrXrXrXrXrXrXrXrXrXrXrXrXrXrXrXrXrXrXrXrXrXrXrXrXrXrXrXrXrXrXrX",
"rXrXrXrXrXrXrXrXrXrXrXrXrXrXrXrXrXrXrXrXrXrXrXrXrXrXrXrXrXrXrXrXrXrXrXrXrXrXrXrXrXrXrXrXrXrXrXrXrXrXrXrXrXrXrXrXrXrXrXrXrXrX",
"rXrXrXrXrXrXrXrXrXrXrXrXrXrXrXrXrXrXrXrXrXrXrXrXrXrXrXrXrXrXrXrXrXrXrXrXrXrXrXrXrXrXrXrXrXrXrXrXrXrXrXrXrXrXrXrXrXrXrXrXrXrX",
"rXrXrXrXrXrXrXrXrXrXrXrXrXrXrXrXrXrXrXrXrXrXrXrXrXrXrXrXrXrXrXrXrXrXrXrXrXrXrXrXrXrXrXrXrXrXrXrXrXrXrXrXrXrXrXrXrXrXrXrXrXrX",
"rXrXrXrXrXrXrXrXrXrXrXrXrXrXrXrXrXrXrXrXrXrXrXrXrXrXrXrXrXrXrXrXrXrXrXrXrXrXrXrXrXrXrXrXrXrXrXrXrXrXrXrXrXrXrXrXrXrXrXrXrXrX",
"rXrXrXrXrXrXrXrXrXrXrXrXrXrXrXrXrXrXrXrXrXrXrXrXrXrXrXrXrXrXrXrXrXrXrXrXrXrXrXrXrXrXrXrXrXrXrXrXrXrXrXrXrXrXrXrXrXrXrXrXrXrX"
};
