/* XPM */
static char *result[] = {
/* columns rows colors chars-per-pixel */
"62 75 207 2 ",
"   c #010100",
".  c #0A0605",
"X  c #070907",
"o  c #0B0A09",
"O  c #130C0B",
"+  c #190E0A",
"@  c #06160F",
"#  c #1B110E",
"$  c #081610",
"%  c #0C1C14",
"&  c #191413",
"*  c #131814",
"=  c #1C1816",
"-  c #1C1B1B",
";  c #21140E",
":  c #251A16",
">  c #2A1A15",
",  c #221C1A",
"<  c #321B16",
"1  c #331E19",
"2  c #0F281A",
"3  c #16271C",
"4  c #2A221E",
"5  c #36211C",
"6  c #3C231C",
"7  c #192F22",
"8  c #1B3325",
"9  c #1A3927",
"0  c #1F3929",
"q  c #2D2624",
"w  c #2A2826",
"e  c #372623",
"r  c #322926",
"t  c #352C2A",
"y  c #3A2F2B",
"u  c #25382D",
"i  c #3C332B",
"p  c #39372B",
"a  c #313231",
"s  c #3B3A39",
"d  c #41241D",
"f  c #442A24",
"g  c #442B24",
"h  c #4D2D24",
"j  c #45332C",
"k  c #4C312C",
"l  c #54342C",
"z  c #583528",
"x  c #413633",
"c  c #483D35",
"v  c #493C39",
"b  c #573831",
"n  c #623B2E",
"m  c #643C31",
"M  c #144127",
"N  c #11532C",
"B  c #165732",
"V  c #23412F",
"C  c #264934",
"Z  c #2E543D",
"A  c #255D3B",
"S  c #2F583F",
"D  c #4D423C",
"F  c #574B3C",
"G  c #6D443A",
"H  c #764739",
"J  c #2F5B40",
"K  c #315B41",
"L  c #1D7C46",
"P  c #2E6845",
"I  c #2D6A46",
"U  c #306B48",
"Y  c #287547",
"T  c #31714B",
"R  c #31794E",
"E  c #4B4A4A",
"W  c #5A4A45",
"Q  c #584A46",
"!  c #5F504B",
"~  c #57595A",
"^  c #53595E",
"/  c #654E47",
"(  c #744A42",
")  c #65534D",
"_  c #675A49",
"`  c #7A554A",
"'  c #675854",
"]  c #6C5A55",
"[  c #715D57",
"{  c #735F58",
"}  c #6F614E",
"|  c #7A6955",
" . c #7C6A56",
".. c #76615B",
"X. c #79635D",
"o. c #6B6D6E",
"O. c #7C6760",
"+. c #7A6964",
"@. c #627073",
"#. c #777878",
"$. c #89533F",
"%. c #885243",
"&. c #83544A",
"*. c #89594E",
"=. c #935942",
"-. c #985B48",
";. c #9E6046",
":. c #976156",
">. c #9A6459",
",. c #85715C",
"<. c #A46349",
"1. c #A7664A",
"2. c #A56A5A",
"3. c #B36C51",
"4. c #AF7057",
"5. c #B97456",
"6. c #826C66",
"7. c #856F68",
"8. c #8A736C",
"9. c #8F7871",
"0. c #937C75",
"q. c #A96E61",
"w. c #A97667",
"e. c #B97768",
"r. c #C7785A",
"t. c #D37F5B",
"y. c #298A51",
"u. c #318452",
"i. c #318C56",
"p. c #329259",
"a. c #319C5D",
"s. c #31A25F",
"d. c #31A561",
"f. c #31AE65",
"g. c #31B266",
"h. c #32B468",
"j. c #9F896F",
"k. c #9D857E",
"l. c #A28C71",
"z. c #BC8574",
"x. c #B39A7D",
"c. c #D7835F",
"v. c #D9845F",
"b. c #DA8661",
"n. c #DD8B68",
"m. c #C98976",
"M. c #D48879",
"N. c #DB9679",
"B. c #E28964",
"V. c #7A8C90",
"C. c #958885",
"Z. c #929292",
"A. c gray61",
"S. c #A48B84",
"D. c #A68D86",
"F. c #A8938B",
"G. c #B79D80",
"H. c #A79792",
"J. c #AD9B96",
"K. c #B1A197",
"L. c #90A2A6",
"P. c #B5ABA8",
"I. c #B9B7B6",
"U. c #D99883",
"Y. c #E69584",
"T. c #E99786",
"R. c #E99887",
"E. c #EC9C89",
"W. c #F09B8A",
"Q. c #D1AC8D",
"!. c #D7B996",
"~. c #E4A389",
"^. c #EBA48D",
"/. c #EAAC92",
"(. c #F7A692",
"). c #E9B59B",
"_. c #F5B89B",
"`. c #DFC09B",
"'. c #E1C19C",
"]. c #DCC6B9",
"[. c #ECC5A4",
"{. c #EBCBA4",
"}. c #F7CCA7",
"|. c #F9D6AD",
" X c #FDD5AE",
".X c #EDC9B7",
"XX c #F5CCB8",
"oX c #FFDCB2",
"OX c #FAD3BF",
"+X c #FFE1B6",
"@X c #FFE6BA",
"#X c #FFE8BB",
"$X c #CDC6C4",
"%X c #D0D2D2",
"&X c gray86",
"*X c #F9D8C7",
"=X c #FEE6D8",
"-X c #D1E6EA",
";X c #D5EDF2",
":X c #D8F2F8",
">X c #DBF5FA",
",X c gray89",
"<X c gray91",
"1X c #FFEFE2",
"2X c gray94",
"3X c #FEFEFE",
"4X c None",
/* pixels */
"4X4X4X4X4X4X4X4X4X4X4X4X4X4X4X4X4X4X4X4X4X4X4X4X4X4X4X4X4X4X4X4X4X4X4X4X4X4X4X4X4X4X4X4X4X4X4X4X4X4X4X4X4X4X4X4X4X4X4X4X4X4X",
"4X4X4X4X4X4X4X4X4X4X4X4X4X4X4X4X4X4X4X4X                        4X4X4X4X4X4X4X4X4X4X4X4X4X4X4X4X4X4X4X4X4X4X4X4X4X4X4X4X4X4X",
"4X4X4X4X4X4X4X4X4X4X4X4X4X4X4X4X4X    . G G -.<.1.<.<.1.<.<.<.G +       4X4X4X4X4X4X4X4X4X4X4X4X4X4X4X4X4X4X4X4X4X4X4X4X4X4X",
"4X4X4X4X4X4X4X4X4X4X4X4X4X4X4X  > G $.-.r.r.v.n.v.v.n.v.b.b.v.r.$.$.=.H 5 4X4X4X4X4X4X4X4X4X4X4X4X4X4X4X4X4X4X4X4X4X4X4X4X4X",
"4X4X4X4X4X4X4X4X4X4X4X4X4X4Xh H =.r.b.b.b.v.c.c.c.v.c.c.c.c.v.v.v.n.n.r.;.z   4X4X4X4X4X4X4X4X4X4X4X4X4X4X4X4X4X4X4X4X4X4X4X",
"4X4X4X4X4X4X4X4X4X4X4X4X4Xh 3.B.B.b.c.c.c.c.c.c.v.c.c.v.c.c.c.c.v.v.c.v.B.3.G z 4X4X4X4X4X4X4X4X4X4X4X4X4X4X4X4X4X4X4X4X4X4X",
"4X4X4X4X4X4X4X4X4X4X4X4XE 5.b.t.v.v.c.c.c.c.c.v.c.c.c.c.c.c.c.c.c.c.v.v.v.t.r.3.z 4X4X4X4X4X4X4X4X4X4X4X4X4X4X4X4X4X4X4X4X4X",
"4X4X4X4X4X4X4X4X4X4X6 d ].^.t.b.v.c.v.c.c.b.c.c.c.v.c.c.v.c.v.c.c.c.v.v.n.m.$.H $.. i D c 4 4X4X4X4X4X4X4X4X4X4X4X4X4X4X4X4X",
"4X4X4X4X4X4X4X4X4X6 c.v.*X~.t.t.b.t.c.c.c.c.c.b.c.c.c.c.c.c.b.b.t.b.c.t.).*X4.#   i [.@X@X,.= 4X4X4X4X4X4X4X4X4X4X4X4X4X4X4X",
"4X4X4X4X4X4X4X4X; 5.5.c.OX/.b.b.b.b.c.c.c.c.c.c.c.c.v.c.c.c.t.t.b.b.c.t.).1X.X;.y {.oXoX XoX,.. 4X4X4X4X4X4X4X4X4X4X4X4X4X4X",
"4X4X4X4X4X4X4X4X  X + 3.XX=X/.n.b.t.c.c.c.c.b.b.c.c.c.c.c.c.b.b.b.t.c.b.).=XK.p }.oX X X/.R.R.*.  4X4X4X4X4X4X4X4X4X4X4X4X4X",
"4X4X4X4X4X4X4X4X4X4X4X# 4.XX*X=X).b.b.c.c.c.b.b.b.3.3.c.b.b.b.t.b.b.t.).1XF.D {.oX X^.E.R.Y.W.*.  4X4X4X4X4X4X4X4X4X4X4X4X4X",
"4X4X4X4X4X4X4X4X4X4XX ;.c.n.N.[.=X*X*X.X2..X*X*Xm.h h m.*X*XXX2..X*X*X=XXX%.i  X^.^.R.Y.R.Y.E.*.  4X4X4X4X4X4X4X4X4X4X4X4X4X",
"4X4X4X4X4X4X4X4X4X4XX 5.v.v.r.G ) m.N.w.q w.N.m.>.g . 4 s Q N.:.w.z./ a r O y (.M.l M.R.Y.E.M.n   4X4X4X4X4X4X4X4X4X4X4X4X4X",
"4X4X4X4X4X4X4X4X4X4X. 5.v.5.m . 1 -.=.1 n 1 -.-.l O   a #.  h =.-.6 G >.>.b e M.g   g M.M.H < j !   4X4X4X4X4X4X4X4X4X4X4X4X",
"4X4X4X4X4X4X4X4X4X4X. r.r.n O   # g < . e   1 %.5   s I.2X#.  6 f G e.%.q.>.+ ( ` l   g d ~ V.o.r   4X4X4X4X4X4X4X4X4X4X4X4X",
"4X4X4X4X4X4X4X4X4X4X. <.m +                   6 #   o.3X3X,Xo     e.&.k 2.:.  . ` b o.@.@.#.V.o.g   4X4X4X4X4X4X4X4X4X4X4X4X",
"4X4X4X4X4X4X4X4X4X4X. h O 4X      - E     > .       o.3X3X&XX     z.j *._.:.. >   X V.L.L.~ d :.q.  4X4X4X4X4X4X4X4X4X4X4X4X",
"4X4X4X4X4X4X4X4X4X4X    4X4X      E ,Xs O -.6 .     o.3X3X&Xo ;   Q.,.x.).( h H         4 w.(.W.q.& 4X4X4X4X4X4X4X4X4X4X4X4X",
"4X4X4X4X4X4X4X4X4X4X4X4X4X4X    o o.3X,X& U.e.> - w Z.3X3XI.e %.O x.'.!.| 1 $.n         x.@X_.Y.M.%.  4X4X4X4X4X4X4X4X4X4X4X",
"4X4X4X4X4X4X4X4X4X4X4X4X4X4X    ~ <X<X$Xr !.oXF Z.,X,X,XI.e U.>.< G 1 . h z             G.@X_.Y.R.e.  4X4X4X4X4X4X4X4X4X4X4X",
"4X4X4X4X4X4X4X4X4X4X4X4X4X4X    o - * p '.q.{.|._ & * * D }. X|.U.6   h h         X     G.@X_.Y.R.e.. 4X4X4X4X4X4X4X4X4X4X4X",
"4X4X4X4X4X4X4X4X4X4X4X4X4X4X    F [.`.[.oX}.oXoX{.`.`.`.{.oXoXoXE.1   . .     o C C X 2.}.oX_.Y.Y.M.H . 4X4X4X4X4X4X4X4X4X4X",
"4X4X4X4X4X4X4X4X4X4X4X4X4X4X    _ @XoXoXoX+XoX+X+X#Xl.} +XoXoX^.j         % C C J J o e.}.oX X_.Y.Y.e.. 4X4X4X4X4X4X4X4X4X4X",
"4X4X4X4X4X4X4X4X4X4X4X4X4X4X  b ` | @X+XoX|._ i p p } Q.+XoX~.j :.:   * A y.a.i.J J Y p m. XoX X_.T.M.. 4X4X4X4X4X4X4X4X4X4X",
"4X4X4X4X4X4X4X4X4X4X4X4X4X4X  ( M.` F } oX+Xx.l.l.j.!.+XU.F l *.Y.5 % I d.h.g.s.S J f.L p e. X@X+XQ.k 4X4X4X4X4X4X4X4X4X4X4X",
"4X4X4X4X4X4X4X4X4X4X4X4X4X4X  ( (.e.d h [ |  . . .,.| ` k X ` R.` w P d.g.g.g.s.J J R f.B j ` | | _ 4X4X4X4X4X4X4X4X4X4X4X4X",
"4X4X4X4X4X4X4X4X4X4X4X4X4X4X4Xh e.N.e.%.d   $ % % % X     O *.` 4 P s.g.g.d.i.u.K K J u.T %       4X4X4X4X4X4X4X4X4X4X4X4X4X",
"4X4X4X4X4X4X4X4X4X4X4X4X4X4X4X4Xg >.>.-.m 3 Z P K P C 2 % % @ @ I d.g.a.p.Y 0 0 0 0 0 0 0 *     4X4X4X4X4X4X4X4X4X4X4X4X4X4X",
"4X4X4X4X4X4X4X4X4X4X4X4X4X4X4X4X4X  + b . 0 u V V C R a.T U U T d.g.g.i.P 8               4X4X4X4X4X4X4X4X4X4X4X4X4X4X4X4X4X",
"4X4X4X4X4X4X4X4X4X4X4X4X4X4X4X4X4X4X4X            7 K T s.s.f.g.f.g.f.f.R 0 X   4X4X4X4X4X4X4X4X4X4X4X4X4X4X4X4X4X4X4X4X4X4X",
"4X4X4X4X4X4X4X4X4X4X4X4X4X4X4X4X4X4X4X4X4X4X4X4X  3 S J P U f.f.f.f.g.u.J K 0 X 4X4X4X4X4X4X4X4X4X4X4X4X4X4X4X4X4X4X4X4X4X4X",
"4X4X4X4X4X4X4X4X4X4X4X4X4X4X4X4X4X4X4X4X4X4X4X4X4X  3 R f.d.f.f.f.f.f.f.R K Z u   4X4X4X4X4X4X4X4X4X4X4X4X4X4X4X4X4X4X4X4X4X",
"4X4X4X4X4X4X4X4X4X4X4X4X4X4X4X4X4X4X4X4X4X4X4X4X4X  2 R g.f.f.f.f.f.f.f.f.u.J C X 4X4X4X4X4X4X4X4X4X4X4X4X4X4X4X4X4X4X4X4X4X",
"4X4X4X4X4X4X4X4X4X4X4X4X4X4X4X4X4X4X4X4X4X4X4X4X4X  M d.g.d.P P U U P P U P J C   4X4X4X4X4X4X4X4X4X4X4X4X4X4X4X4X4X4X4X4X4X",
"4X4X4X4X4X4X4X4X4X4X4X4X4X4X4X4X4X4X4X4X4X4X4X4X4X  3 R T I J J J J Z Z J J J C   4X4X4X4X4X4X4X4X4X4X4X4X4X4X4X4X4X4X4X4X4X",
"4X4X4X4X4X4X4X4X4X4X4X4X4X4X4X4X4X4X4X4X4X4X4X4X4X% A p.p.p.p.p.p.p.p.p.R J J Z 8 X 4X4X4X4X4X4X4X4X4X4X4X4X4X4X4X4X4X4X4X4X",
"4X4X4X4X4X4X4X4X4X4X4X4X4X4X4X4X4X4X4X4X4X4X4X4X  8 A B B N N N N N N N 9 % 9 J Z   4X4X4X4X4X4X4X4X4X4X4X4X4X4X4X4X4X4X4X4X",
"4X4X4X4X4X4X4X4X4X4X4X4X4X4X4X4X4X4X4X4X4X4X4X4X  % % . e x ^ ^ ^ ^ ^ ^ E t w 8 8 3 4X4X4X4X4X4X4X4X4X4X4X4X4X4X4X4X4X4X4X4X",
"4X4X4X4X4X4X4X4X4X4X4X4X4X4X4X4X4X4X4X4X4X4X4X4X    . x 0.I.:X:X:X>X>X>X%XH.' &   9 X 4X4X4X4X4X4X4X4X4X4X4X4X4X4X4X4X4X4X4X",
"4X4X4X4X4X4X4X4X4X4X4X4X4X4X4X4X4X4X4X4X4X4X4X4X  . x 0.I.:X;X;X;X;X;X;X:X$Xk.] &     4X4X4X4X4X4X4X4X4X4X4X4X4X4X4X4X4X4X4X",
"4X4X4X4X4X4X4X4X4X4X4X4X4X4X4X4X4X4X4X4X4X4X4X4X  y 8.P.;X;X;X;X;X;X;X-X-XI.9.8.) .   4X4X4X4X4X4X4X4X4X4X4X4X4X4X4X4X4X4X4X",
"4X4X4X4X4X4X4X4X4X4X4X4X4X4X4X4X4X4X4X4X4X4X4X4X  y 8.P.;X;X;X;X;X;X:XI.0.Q X & W .   4X4X4X4X4X4X4X4X4X4X4X4X4X4X4X4X4X4X4X",
"4X4X4X4X4X4X4X4X4X4X4X4X4X4X4X4X4X4X4X4X4X4X4X4X  y 8.D.P.;X;X;X;X;X:XI.l.9.v   o     4X4X4X4X4X4X4X4X4X4X4X4X4X4X4X4X4X4X4X",
"4X4X4X4X4X4X4X4X4X4X4X4X4X4X4X4X4X4X4X4X4X4X4X4X  y X.7.D.J.J.J.J.J.J.F.9...] D       4X4X4X4X4X4X4X4X4X4X4X4X4X4X4X4X4X4X4X",
"4X4X4X4X4X4X4X4X4X4X4X4X4X4X4X4X4X4X4X4X4X4X4X4X  o x X.O.6.S.D.S.S.D.9...[ ..)     4X4X4X4X4X4X4X4X4X4X4X4X4X4X4X4X4X4X4X4X",
"4X4X4X4X4X4X4X4X4X4X4X4X4X4X4X4X4X4X4X4X4X4X4X4X    q X.{ X.7.7.6.6.6.X.[ { / =     4X4X4X4X4X4X4X4X4X4X4X4X4X4X4X4X4X4X4X4X",
"4X4X4X4X4X4X4X4X4X4X4X4X4X4X4X4X4X4X4X4X4X4X4X4X    # r r q r ) 8...] ] [ Q & X y   4X4X4X4X4X4X4X4X4X4X4X4X4X4X4X4X4X4X4X4X",
"4X4X4X4X4X4X4X4X4X4X4X4X4X4X4X4X4X4X4X4X4X4X4X4X4X        . y [ D.0.9.9.0.] t i t . 4X4X4X4X4X4X4X4X4X4X4X4X4X4X4X4X4X4X4X4X",
"4X4X4X4X4X4X4X4X4X4X4X4X4X4X4X4X4X4X4X4X4X4X4X4X4X        . v v ) ' ' ] ] ! v i     4X4X4X4X4X4X4X4X4X4X4X4X4X4X4X4X4X4X4X4X",
"4X4X4X4X4X4X4X4X4X4X4X4X4X4X4X4X4X4X4X4X4X4X4X4X4X  o #                             4X4X4X4X4X4X4X4X4X4X4X4X4X4X4X4X4X4X4X4X",
"4X4X4X4X4X4X4X4X4X4X4X4X4X4X4X4X4X4X4X4X4X4X4X4X4X  r Q o . a a a a a a w O       4X4X4X4X4X4X4X4X4X4X4X4X4X4X4X4X4X4X4X4X4X",
"4X4X4X4X4X4X4X4X4X4X4X4X4X4X4X4X4X4X4X4X4X4X4X4X4X  q { Q w &X3X3X3X3X3X%X+.o     4X4X4X4X4X4X4X4X4X4X4X4X4X4X4X4X4X4X4X4X4X",
"4X4X4X4X4X4X4X4X4X4X4X4X4X4X4X4X4X4X4X4X4X4X4X4X4X  q ..[ ! w &X2X2X2X2X2X$X)   4X4X4X4X4X4X4X4X4X4X4X4X4X4X4X4X4X4X4X4X4X4X",
"4X4X4X4X4X4X4X4X4X4X4X4X4X4X4X4X4X4X4X4X4X4X4X4X4X  q { { [ W q - - - - - = o   4X4X4X4X4X4X4X4X4X4X4X4X4X4X4X4X4X4X4X4X4X4X",
"4X4X4X4X4X4X4X4X4X4X4X4X4X4X4X4X4X4X4X4X4X4X4X4X4X4Xo r { [ [ Q Q Q ! ,   4X4X4X4X4X4X4X4X4X4X4X4X4X4X4X4X4X4X4X4X4X4X4X4X4X",
"4X4X4X4X4X4X4X4X4X4X4X4X4X4X4X4X4X4X4X4X4X4X4X4X4X4X4X, { [ { { { ..X.t   4X4X4X4X4X4X4X4X4X4X4X4X4X4X4X4X4X4X4X4X4X4X4X4X4X",
"4X4X4X4X4X4X4X4X4X4X4X4X4X4X4X4X4X4X4X4X4X4X4X4X4X4X4Xr 8.{ [ [ [ y , O     4X4X4X4X4X4X4X4X4X4X4X4X4X4X4X4X4X4X4X4X4X4X4X4X",
"4X4X4X4X4X4X4X4X4X4X4X4X4X4X4X4X4X4X4X4X4X4X4X4X4X4X4Xy k.{ [ [ [ v o       4X4X4X4X4X4X4X4X4X4X4X4X4X4X4X4X4X4X4X4X4X4X4X4X",
"4X4X4X4X4X4X4X4X4X4X4X4X4X4X4X4X4X4X4X4X4X4X4X4X4X4X4Xt k.[ [ [ [ ..v q t ,   4X4X4X4X4X4X4X4X4X4X4X4X4X4X4X4X4X4X4X4X4X4X4X",
"4X4X4X4X4X4X4X4X4X4X4X4X4X4X4X4X4X4X4X4X4X4X4X4X4X4X4Xt k.] [ [ ] [ { X.) q   4X4X4X4X4X4X4X4X4X4X4X4X4X4X4X4X4X4X4X4X4X4X4X",
"4X4X4X4X4X4X4X4X4X4X4X4X4X4X4X4X4X4X4X4X4X4X4X4X4X4X4Xt S.O.[ [ X...{ ) 4 X q 4X4X4X4X4X4X4X4X4X4X4X4X4X4X4X4X4X4X4X4X4X4X4X",
"4X4X4X4X4X4X4X4X4X4X4X4X4X4X4X4X4X4X4X4X4X4X4X4X4X4X4Xt D.S.O.O.S.+.) q   x +.  4X4X4X4X4X4X4X4X4X4X4X4X4X4X4X4X4X4X4X4X4X4X",
"4X4X4X4X4X4X4X4X4X4X4X4X4X4X4X4X4X4X4X4X4X4X4X4X4X4X4Xt D.D.S.S.S.[ ,     c {   4X4X4X4X4X4X4X4X4X4X4X4X4X4X4X4X4X4X4X4X4X4X",
"4X4X4X4X4X4X4X4X4X4X4X4X4X4X4X4X4X4X4X4X4X4X4X4X4X4X4Xt D.S.S.S.X.-     D ' . 4X4X4X4X4X4X4X4X4X4X4X4X4X4X4X4X4X4X4X4X4X4X4X",
"4X4X4X4X4X4X4X4X4X4X4X4X4X4X4X4X4X4X4X4X4X4X4X4X4X4X4Xt D.k.X.[ =       Q ]   4X4X4X4X4X4X4X4X4X4X4X4X4X4X4X4X4X4X4X4X4X4X4X",
"4X4X4X4X4X4X4X4X4X4X4X4X4X4X4X4X4X4X4X4X4X4X4X4X4X4Xq ) 6.X.) =       #.C.O 4X4X4X4X4X4X4X4X4X4X4X4X4X4X4X4X4X4X4X4X4X4X4X4X",
"4X4X4X4X4X4X4X4X4X4X4X4X4X4X4X4X4X4X4X4X4X4X4X4X4X  o , & & &       #.$X'   4X4X4X4X4X4X4X4X4X4X4X4X4X4X4X4X4X4X4X4X4X4X4X4X",
"4X4X4X4X4X4X4X4X4X4X4X4X4X4X4X4X4X4X4X4X4X4X4X4X4X4X  a A.A.A.A.A.A.I.7., 4X4X4X4X4X4X4X4X4X4X4X4X4X4X4X4X4X4X4X4X4X4X4X4X4X",
"4X4X4X4X4X4X4X4X4X4X4X4X4X4X4X4X4X4X4X4X4X4X4X4X4X4X4X~ 3X3X3X3X3X3XC.- 4X4X4X4X4X4X4X4X4X4X4X4X4X4X4X4X4X4X4X4X4X4X4X4X4X4X",
"4X4X4X4X4X4X4X4X4X4X4X4X4X4X4X4X4X4X4X4X4X4X4X4X4X4X4Xt Z.Z.Z.Z.Z.Z.s 4X4X4X4X4X4X4X4X4X4X4X4X4X4X4X4X4X4X4X4X4X4X4X4X4X4X4X",
"4X4X4X4X4X4X4X4X4X4X4X4X4X4X4X4X4X4X4X4X4X4X4X4X4X4X4X              4X4X4X4X4X4X4X4X4X4X4X4X4X4X4X4X4X4X4X4X4X4X4X4X4X4X4X4X",
"4X4X4X4X4X4X4X4X4X4X4X4X4X4X4X4X4X4X4X4X4X4X4X4X4X4X4X4X4X4X4X4X4X4X4X4X4X4X4X4X4X4X4X4X4X4X4X4X4X4X4X4X4X4X4X4X4X4X4X4X4X4X",
"4X4X4X4X4X4X4X4X4X4X4X4X4X4X4X4X4X4X4X4X4X4X4X4X4X4X4X4X4X4X4X4X4X4X4X4X4X4X4X4X4X4X4X4X4X4X4X4X4X4X4X4X4X4X4X4X4X4X4X4X4X4X",
"4X4X4X4X4X4X4X4X4X4X4X4X4X4X4X4X4X4X4X4X4X4X4X4X4X4X4X4X4X4X4X4X4X4X4X4X4X4X4X4X4X4X4X4X4X4X4X4X4X4X4X4X4X4X4X4X4X4X4X4X4X4X"
};
