/* XPM */
static char *result[] = {
/* columns rows colors chars-per-pixel */
"62 75 217 2 ",
"   c #010101",
".  c #0A0605",
"X  c #0B0807",
"o  c #070E0A",
"O  c #0D0B0A",
"+  c #100806",
"@  c #130D0B",
"#  c #1A0F0C",
"$  c #041009",
"%  c #0A130D",
"&  c #13100F",
"*  c #19100E",
"=  c #0C1610",
"-  c #0E1A12",
";  c #141313",
":  c #1B1513",
">  c #1E1817",
",  c #1D1C1C",
"<  c #231512",
"1  c #271A16",
"2  c #2A1A15",
"3  c #231D1B",
"4  c #2B1D1B",
"5  c #321E17",
"6  c #0D2416",
"7  c #16271C",
"8  c #26211B",
"9  c #29201E",
"0  c #36221B",
"q  c #3B231D",
"w  c #182F21",
"e  c #1D3727",
"r  c #2C2523",
"t  c #282828",
"y  c #322925",
"u  c #392926",
"i  c #342C29",
"p  c #27392A",
"a  c #3C322D",
"s  c #393634",
"d  c #43271E",
"f  c #432923",
"g  c #442923",
"h  c #4A2C24",
"j  c #45362B",
"k  c #4D322C",
"l  c #533225",
"z  c #53332C",
"x  c #5B362D",
"c  c #483B36",
"v  c #583832",
"b  c #60372D",
"n  c #643C2D",
"m  c #633B32",
"M  c #6A3F34",
"N  c #12532C",
"B  c #14532F",
"V  c #284C37",
"C  c #2D543C",
"Z  c #2F583F",
"A  c #30583F",
"S  c #1B653A",
"D  c #4D4238",
"F  c #58483B",
"G  c #6C412D",
"H  c #6D4135",
"J  c #6A453C",
"K  c #714335",
"L  c #794839",
"P  c #2F5C41",
"I  c #315B41",
"U  c #2F6746",
"Y  c #316947",
"T  c #307049",
"R  c #307E50",
"E  c #47494A",
"W  c #534541",
"Q  c #5A4B46",
"!  c #505556",
"~  c #55595C",
"^  c #764B42",
"/  c #63524D",
"(  c #6B5C4A",
")  c #7B5549",
"_  c #695651",
"`  c #665954",
"'  c #6D5A54",
"]  c #715752",
"[  c #715D57",
"{  c #735E58",
"}  c #6D645D",
"|  c #776753",
" . c #7C6A56",
".. c #75615A",
"X. c #79645E",
"o. c #5E6E71",
"O. c DimGray",
"+. c #6A6F6D",
"@. c #796762",
"#. c #6A7679",
"$. c #727474",
"%. c #834D3A",
"&. c #86523D",
"*. c #834E41",
"=. c #8C5445",
"-. c #875549",
";. c #955949",
":. c #9A5C4C",
">. c #8F5D53",
",. c #945C50",
"<. c #996357",
"1. c #956952",
"2. c #A3624C",
"3. c #B36A4E",
"4. c #A76958",
"5. c #B36C53",
"6. c #BB6E53",
"7. c #B77257",
"8. c #846E67",
"9. c #89736A",
"0. c #8C7771",
"q. c #957D77",
"w. c #AF7063",
"e. c #B47364",
"r. c #BA7767",
"t. c #C37456",
"y. c #C67859",
"u. c #CC7B5B",
"i. c #D47E5B",
"p. c #C37D6C",
"a. c #2F8C55",
"s. c #318955",
"d. c #329259",
"f. c #31A15F",
"g. c #31A460",
"h. c #31AE64",
"j. c #31B166",
"k. c #33B468",
"l. c #9B856A",
"z. c #9B837D",
"x. c #AA8870",
"c. c #AA9377",
"v. c #B4997B",
"b. c #D7835F",
"n. c #D9835F",
"m. c #CE886E",
"M. c #D68664",
"N. c #DA8560",
"B. c #DF8862",
"V. c #DE906D",
"C. c #C98574",
"Z. c #D78B7A",
"A. c #DB917E",
"S. c #DF9979",
"D. c #E28A64",
"F. c #E19878",
"G. c #778284",
"H. c #888888",
"J. c #918F8D",
"K. c #969797",
"L. c #A48B85",
"P. c #A38F89",
"I. c #A8948E",
"U. c #B79E80",
"Y. c #A89B98",
"T. c #BFA484",
"R. c #8F9EA1",
"E. c #AEAFAF",
"W. c #B2B3B3",
"Q. c #BCBDBD",
"!. c #DE9281",
"~. c #E49483",
"^. c #E49E82",
"/. c #F29D8C",
"(. c #C8A589",
"). c #CEB08E",
"_. c #DBAC90",
"`. c #EBA58E",
"'. c #F6A28F",
"]. c #E8AB92",
"[. c #F4AD95",
"{. c #E6B797",
"}. c #EDB59A",
"|. c #F5B99C",
" X c #D6B4A7",
".X c #ECBBA3",
"XX c #ECBDA7",
"oX c #F5BFA4",
"OX c #EBC59F",
"+X c #DFCABD",
"@X c #ECC3A8",
"#X c #F7C4A6",
"$X c #FBD6AD",
"%X c #F2CAB5",
"&X c #FFD5B0",
"*X c #FFDCB2",
"=X c #FFE2B6",
"-X c #FFE5B9",
";X c #FFE9BC",
":X c #BFC0C0",
">X c #C5C6C6",
",X c #CBD9DB",
"<X c #DBD6D4",
"1X c #ECD2C6",
"2X c #F4D5C4",
"3X c #FADCCB",
"4X c #FFEDC0",
"5X c #FDE5D7",
"6X c #CDDDE0",
"7X c #D2E5E9",
"8X c #D1E7EB",
"9X c #DAF4F9",
"0X c #ECECEC",
"qX c #FFF2E6",
"wX c #F4F4F4",
"eX c #FEFFFF",
"rX c None",
/* pixels */
"rXrXrXrXrXrXrXrXrXrXrXrXrXrXrXrXrXrXrXrXrXrXrXrXrXrXrXrXrXrXrXrXrXrXrXrXrXrXrXrXrXrXrXrXrXrXrXrXrXrXrXrXrXrXrXrXrXrXrXrXrXrX",
"rXrXrXrXrXrXrXrXrXrXrXrXrXrXrXrXrXrXrXrXrXrXrXrXrXrXrXrXrXrXrXrXrXrXrXrXrXrXrXrXrXrXrXrXrXrXrXrXrXrXrXrXrXrXrXrXrXrXrXrXrXrX",
"rXrXrXrXrXrXrXrXrXrXrXrXrXrXrXrXrXrXrXrXrXrXrXrXrXrXrXrXrXrXrXrXrXrXrXrXrXrXrXrXrXrXrXrXrXrXrXrXrXrXrXrXrXrXrXrXrXrXrXrXrXrX",
"rXrXrXrXrXrXrXrXrXrXrXrXrXrXrXrXrXrXrXrXrXrXrXrXrXrXrXrXrXrXrXrXrXrXrXrXrXrXrXrXrXrXrXrXrXrXrXrXrXrXrXrXrXrXrXrXrXrXrXrXrXrX",
"rXrXrXrXrXrXrXrXrXrXrXrXrXrXrXrXrXrXrX                          rXrXrXrXrXrXrXrXrXrXrXrXrXrXrXrXrXrXrXrXrXrXrXrXrXrXrXrXrXrX",
"rXrXrXrXrXrXrXrXrXrXrXrXrXrXrXrX  rXX f g n n n n n n n n b g f X rXrXrXrXrXrXrXrXrXrXrXrXrXrXrXrXrXrXrXrXrXrXrXrXrXrXrXrXrX",
"rXrXrXrXrXrXrXrXrXrXrXrXrXrXrX< q l n 5.5.N.B.D.B.B.B.B.B.n.5.3.h 5 h l l l h rXrXrXrXrXrXrXrXrXrXrXrXrXrXrXrXrXrXrXrXrXrXrX",
"rXrXrXrXrXrXrXrXrXrXrXrXrX< 0 G y.B.N.N.N.N.b.b.b.b.b.b.b.b.b.b.5.4.u.N.D.u.L   rXrXrXrXrXrXrXrXrXrXrXrXrXrXrXrXrXrXrXrXrXrX",
"rXrXrXrXrXrXrXrXrXrXrXi 8 L y.n.b.b.b.b.b.b.b.b.b.b.N.b.b.b.N.N.N.N.N.N.y.H   rXrXrXrXrXrXrXrXrXrXrXrXrXrXrXrXrXrXrXrXrXrXrX",
"rXrXrXrXrXrXrXrXrXrX3 +XS.n.b.b.b.b.b.N.b.b.n.b.b.b.b.b.b.b.i.i.M.i.M.N.L > rXrXrXrXrXrXrXrXrXrXrXrXrXrXrXrXrXrXrXrXrXrXrXrX",
"rXrXrXrXrXrXrXrXrX< y.2XF.b.b.b.b.b.b.b.b.b.b.b.b.b.b.b.b.b.N.N.M.N.N.i.{.P.  rXrXrXrXrXrXrXrXrXrXrXrXrXrXrXrXrXrXrXrXrXrXrX",
"rXrXrXrXrXrXrXrX2 t.N.3XF.b.b.b.b.b.b.b.N.b.b.b.b.b.N.b.b.N.i.N.i.N.N.i..X Xb   rXrXrXrXrXrXrXrXrXrXrXrXrXrXrXrXrXrXrXrXrXrX",
"rXrXrXrXrXrXrX0 6.b.4.2X3XS.b.b.b.b.b.b.N.b.n.b.b.b.b.b.b.b.N.N.i.i..X3X}.m.M   rXrXrXrXrXrXrXrXrXrXrXrXrXrXrXrXrXrXrXrXrXrX",
"rXrXrXrXrXrXrXrX0 5 2 m.5X3X`.u.b.b.b.N.b.b.n.b.b.b.b.b.b.b.N.N.XX2X5X@XV.6.M   rXrXrXrXrXrXrXrXrXrXrXrXrXrXrXrXrXrXrXrXrXrX",
"rXrXrXrXrXrXrXrXrX. &.u.v.1X3X%X].i.u.5.i.b.i.b.n.b.!.%X%X.X7.%X5XqX@XV.t.2.M   rXrXrXrXrXrXrXrXrXrXrXrXrXrXrXrXrXrXrXrXrXrX",
"rXrXrXrXrXrXrXrXrX@ 5.5.l r.|.%X3XXX_.<.XX.X@XF.t.t.}.qX3X_.:.].{.}.F.y.2.;.*.h   rXrXrXrXrXrXrXrXrXrXrXrXrXrXrXrXrXrXrXrXrX",
"rXrXrXrXrXrXrXrXrX. h h l 3.n.F.oX@X(.M .XXXXXm.K %.A.@X].3.;.5.6.%.M z M :.;.=.g rXrXrXrXrXrXrXrXrXrXrXrXrXrXrXrXrXrXrXrXrX",
"rXrXrXrXrXrXrXrXrX    q t.i.2.2.u.i.;.# 3.t.t.L # 2 M %.&.;.:.;.b k z z z M ;.=.z   rXrXrXrXrXrXrXrXrXrXrXrXrXrXrXrXrXrXrXrX",
"rXrXrXrXrXrXrXrXrXrXX 5.u.=.* f 5.3.l @ =.M H #     , t + K M M u e.r.A.) 2 =.m q u u 2 rXrXrXrXrXrXrXrXrXrXrXrXrXrXrXrXrXrX",
"rXrXrXrXrXrXrXrXrXrX. M L <   q %.z   X M X       ; J.>X,     . C.:.q <.-.< m k `./.`.e.d X rXrXrXrXrXrXrXrXrXrXrXrXrXrXrXrX",
"rXrXrXrXrXrXrXrXrXrX            O ;     +         H.eXeX:X  X X C.r <.'.)   k `.*X*X*X].7.q o O   rXrXrXrXrXrXrXrXrXrXrXrXrX",
"rXrXrXrXrXrXrXrXrXrXrXrXrXrX    O.W.. @ *.#       H.eXeX>X@ *.* {.j c.|.J 2 e.*X*X*X*X*X[.z D /   X O rXrXrXrXrXrXrXrXrXrXrX",
"rXrXrXrXrXrXrXrXrXrXrXrXrXrX    O.eXE.: C.=.#     H.eXeXQ.< C.;.@X@X$X .  z ].*X*X*X*X*X[.z W ~ 0 Z.r.O rXrXrXrXrXrXrXrXrXrX",
"rXrXrXrXrXrXrXrXrXrXrXrXrXrX  O.0XeX>X< !.Z.< K.<XwXE.t c p.~.:.4.D 8 =   z [.*X*X*X*X*X*XF o.G.j #X~.e.; rXrXrXrXrXrXrXrXrX",
"rXrXrXrXrXrXrXrXrXrXrXrXrXrX  t E s ! v.5.OX(.` E E } v.(.#X~.:.5         z [.=X*X*X*X*X;XQ #.J.j *X#X!.# rXrXrXrXrXrXrXrXrX",
"rXrXrXrXrXrXrXrXrXrXrXrXrXrX  D x.l.v.*X_.=X;XT.l.l.).;X-X$X4.f -.<       v C.| =X-X=X=X9.$.#.O.T.=X$XA.* rXrXrXrXrXrXrXrXrX",
"rXrXrXrXrXrXrXrXrXrXrXrXrXrXrXD U.4X-X*X&X .| | | | U.;X*X_.g ^ ^ p w %   1 ^ ) |  .].#X0 R.#.F ;X*X$XA.* rXrXrXrXrXrXrXrXrX",
"rXrXrXrXrXrXrXrXrXrXrXrXrXrXrXrXj U.-X-X*X| . E $.t ( @X1.^ J -.w V U 7     < ^     5.,.O.#.+.c.-X*X|.!.# rXrXrXrXrXrXrXrXrX",
"rXrXrXrXrXrXrXrXrXrXrXrXrXrXrXrX  8 c.c.c.c.: G.Q.E D |   @ >., V I I e o           z . #.s ) &X#XoX!.<.# rXrXrXrXrXrXrXrXrX",
"rXrXrXrXrXrXrXrXrXrXrXrXrXrXrXy a y # # #   4 .       $ % % % C Y T P I e % % = %           v e.w.e.<.. rXrXrXrXrXrXrXrXrXrX",
"rXrXrXrXrXrXrXrXrXrXrXrXrXrX   .;X{.2.2.=.@ p.g rXrX7 Z V Z U U g.j.R U P A Z A V %                   rXrXrXrXrXrXrXrXrXrXrX",
"rXrXrXrXrXrXrXrXrXrXrXrXrXrX   .-X#X^.A.*.3 r.u rX  7 p % U h.h.h.j.h.h.s.P I A Z C % rXrXrXrXrXrXrXrXrXrXrXrXrXrXrXrXrXrXrX",
"rXrXrXrXrXrXrXrXrXrXrXrXrXrX   .-X$X#XC.< ).4.4     w e O U h.h.h.h.h.j.h.h.d.P P P V o rXrXrXrXrXrXrXrXrXrXrXrXrXrXrXrXrXrX",
"rXrXrXrXrXrXrXrXrXrXrXrXrXrX   .-X{.4.=.@ >.4 R.E d l     6 h.h.h.j.j.h.h.h.h.d.P I I = rXrXrXrXrXrXrXrXrXrXrXrXrXrXrXrXrXrX",
"rXrXrXrXrXrXrXrXrXrXrXrXrXrX  8.;X#Xp.*.. @   W.~ i =.h   $ Y Y Y g.j.k.j.j.k.f.C I C V = rXrXrXrXrXrXrXrXrXrXrXrXrXrXrXrXrX",
"rXrXrXrXrXrXrXrXrXrXrXrXrXrX  ) x.( C.2 . x X W.! F p.*.k   = = V Y Y T T T T Y I I C P - rXrXrXrXrXrXrXrXrXrXrXrXrXrXrXrXrX",
"rXrXrXrXrXrXrXrXrXrXrXrXrXrX  2 ^ -.h . z q G.o.] p.~.e.M X w S a.d.d.d.d.d.d.s.I I P I - rXrXrXrXrXrXrXrXrXrXrXrXrXrXrXrXrX",
"rXrXrXrXrXrXrXrXrXrXrXrXrXrXrX  4 z   . k #.G.c w./.~.Z.M % s.k.S N N N N N B B 7 w C I - rXrXrXrXrXrXrXrXrXrXrXrXrXrXrXrXrX",
"rXrXrXrXrXrXrXrXrXrXrXrXrXrXrXrX          G.; M r.A./.Z.K O S S a ! ~ ~ E j f 4 9   w e o rXrXrXrXrXrXrXrXrXrXrXrXrXrXrXrXrX",
"rXrXrXrXrXrXrXrXrXrXrXrXrXrXrXrXrXrXrXrX      h m *.4.>.h     r Y.8X9X9X,XW.Y.8.@.9 >     rXrXrXrXrXrXrXrXrXrXrXrXrXrXrXrXrX",
"rXrXrXrXrXrXrXrXrXrXrXrXrXrXrXrXrXrXrXrXrXrX          . O   3 Y.7X9X9X7X,X,X>XL.L...[ r . rXrXrXrXrXrXrXrXrXrXrXrXrXrXrXrXrX",
"rXrXrXrXrXrXrXrXrXrXrXrXrXrXrXrXrXrXrXrXrXrXrXrXrXrX  3 Q @ @.6X8X7X6XW.L.L.L.z.z.{ { { > rXrXrXrXrXrXrXrXrXrXrXrXrXrXrXrXrX",
"rXrXrXrXrXrXrXrXrXrXrXrXrXrXrXrXrXrXrXrXrXrXrXrXrX. . r Q O @.6X8XY.L.P.L.q...' ' _ ' { > rXrXrXrXrXrXrXrXrXrXrXrXrXrXrXrXrX",
"rXrXrXrXrXrXrXrXrXrXrXrXrXrXrXrXrXrXrXrXrXrXrXrX  a _ ' W @ { P.I.I.L.L.L.L.q.Q O O / { 3 rXrXrXrXrXrXrXrXrXrXrXrXrXrXrXrXrX",
"rXrXrXrXrXrXrXrXrXrXrXrXrXrXrXrXrXrXrXrXrXrXrX  a ' { ..Q O ' @.X.X.X.X.X.X...[ W . O & . rXrXrXrXrXrXrXrXrXrXrXrXrXrXrXrXrX",
"rXrXrXrXrXrXrXrXrXrXrXrXrXrXrXrXrXrXrXrXrXrXrX  c ..[ { ' c 3 _ { [ [ [ [ [ { { [ W X   rXrXrXrXrXrXrXrXrXrXrXrXrXrXrXrXrXrX",
"rXrXrXrXrXrXrXrXrXrXrXrXrXrXrXrXrXrXrXrXrXrX  a / [ [ [ { /   3 _ { { { [ [ [ [ { [ O   rXrXrXrXrXrXrXrXrXrXrXrXrXrXrXrXrXrX",
"rXrXrXrXrXrXrXrXrXrXrXrXrXrXrXrXrXrXrXrXrXrX  W ..[ [ [ [ ' c   9 / { { [ [ [ { ' r .   rXrXrXrXrXrXrXrXrXrXrXrXrXrXrXrXrXrX",
"rXrXrXrXrXrXrXrXrXrXrXrXrXrXrXrXrXrXrXrXrXrX  D { { [ [ { ' a     r / { ' ' ' _ i y .     rXrXrXrXrXrXrXrXrXrXrXrXrXrXrXrXrX",
"rXrXrXrXrXrXrXrXrXrXrXrXrXrXrXrXrXrXrXrXrXrX  W ..{ [ { _ a   3 r   c 8.0.9.8._ y c X y ; rXrXrXrXrXrXrXrXrXrXrXrXrXrXrXrXrX",
"rXrXrXrXrXrXrXrXrXrXrXrXrXrXrXrXrXrXrXrXrXrX  a _ { { { W   3 ' ..: i ' @.@.[ W c     0.i rXrXrXrXrXrXrXrXrXrXrXrXrXrXrXrXrX",
"rXrXrXrXrXrXrXrXrXrXrXrXrXrXrXrXrXrXrXrXrXrXrX  a _ { { Q 3 ' { { :                 , ..r rXrXrXrXrXrXrXrXrXrXrXrXrXrXrXrXrX",
"rXrXrXrXrXrXrXrXrXrXrXrXrXrXrXrXrXrXrXrXrXrXrXrX  i ' { [ [ [ [ ' : & t , , , ; O : @.3 rXrXrXrXrXrXrXrXrXrXrXrXrXrXrXrXrXrX",
"rXrXrXrXrXrXrXrXrXrXrXrXrXrXrXrXrXrXrXrXrXrXrXrXrX  y ' [ [ { { { & K.wXwXwX<XL.q.0.> rXrXrXrXrXrXrXrXrXrXrXrXrXrXrXrXrXrXrX",
"rXrXrXrXrXrXrXrXrXrXrXrXrXrXrXrXrXrXrXrXrXrXrXrXrXrXrXr { { { { { : } <XeXeXeX>X; ; rXrXrXrXrXrXrXrXrXrXrXrXrXrXrXrXrXrXrXrX",
"rXrXrXrXrXrXrXrXrXrXrXrXrXrXrXrXrXrXrXrXrXrXrXrXrXrXrXi q...q.{ ' / r t t i i t rXrXrXrXrXrXrXrXrXrXrXrXrXrXrXrXrXrXrXrXrXrX",
"rXrXrXrXrXrXrXrXrXrXrXrXrXrXrXrXrXrXrXrXrXrXrXrXrXrXrXi P.z.L.{ { @.> c s   rXrXrXrXrXrXrXrXrXrXrXrXrXrXrXrXrXrXrXrXrXrXrXrX",
"rXrXrXrXrXrXrXrXrXrXrXrXrXrXrXrXrXrXrXrXrXrXrXrXrXrX3 / 9.9.9.{ i 3 W q.Q   rXrXrXrXrXrXrXrXrXrXrXrXrXrXrXrXrXrXrXrXrXrXrXrX",
"rXrXrXrXrXrXrXrXrXrXrXrXrXrXrXrXrXrXrXrXrXrXrXrXrX  ; i 4 4 4 4   a q.@.y rXrXrXrXrXrXrXrXrXrXrXrXrXrXrXrXrXrXrXrXrXrXrXrXrX",
"rXrXrXrXrXrXrXrXrXrXrXrXrXrXrXrXrXrXrXrXrXrXrXrXrX    3 $.+.+.+.+.P.@.r rXrXrXrXrXrXrXrXrXrXrXrXrXrXrXrXrXrXrXrXrXrXrXrXrXrX",
"rXrXrXrXrXrXrXrXrXrXrXrXrXrXrXrXrXrXrXrXrXrXrXrXrXrX  ~ eXeXeXeXeXz.3 rXrXrXrXrXrXrXrXrXrXrXrXrXrXrXrXrXrXrXrXrXrXrXrXrXrXrX",
"rXrXrXrXrXrXrXrXrXrXrXrXrXrXrXrXrXrXrXrXrXrXrXrXrXrXrXs >XQ.Q.Q.Q.s rXrXrXrXrXrXrXrXrXrXrXrXrXrXrXrXrXrXrXrXrXrXrXrXrXrXrXrX",
"rXrXrXrXrXrXrXrXrXrXrXrXrXrXrXrXrXrXrXrXrXrXrXrXrXrXrX            rXrXrXrXrXrXrXrXrXrXrXrXrXrXrXrXrXrXrXrXrXrXrXrXrXrXrXrXrX",
"rXrXrXrXrXrXrXrXrXrXrXrXrXrXrXrXrXrXrXrXrXrXrXrXrXrXrXrXrXrXrXrXrXrXrXrXrXrXrXrXrXrXrXrXrXrXrXrXrXrXrXrXrXrXrXrXrXrXrXrXrXrX",
"rXrXrXrXrXrXrXrXrXrXrXrXrXrXrXrXrXrXrXrXrXrXrXrXrXrXrXrXrXrXrXrXrXrXrXrXrXrXrXrXrXrXrXrXrXrXrXrXrXrXrXrXrXrXrXrXrXrXrXrXrXrX",
"rXrXrXrXrXrXrXrXrXrXrXrXrXrXrXrXrXrXrXrXrXrXrXrXrXrXrXrXrXrXrXrXrXrXrXrXrXrXrXrXrXrXrXrXrXrXrXrXrXrXrXrXrXrXrXrXrXrXrXrXrXrX",
"rXrXrXrXrXrXrXrXrXrXrXrXrXrXrXrXrXrXrXrXrXrXrXrXrXrXrXrXrXrXrXrXrXrXrXrXrXrXrXrXrXrXrXrXrXrXrXrXrXrXrXrXrXrXrXrXrXrXrXrXrXrX",
"rXrXrXrXrXrXrXrXrXrXrXrXrXrXrXrXrXrXrXrXrXrXrXrXrXrXrXrXrXrXrXrXrXrXrXrXrXrXrXrXrXrXrXrXrXrXrXrXrXrXrXrXrXrXrXrXrXrXrXrXrXrX",
"rXrXrXrXrXrXrXrXrXrXrXrXrXrXrXrXrXrXrXrXrXrXrXrXrXrXrXrXrXrXrXrXrXrXrXrXrXrXrXrXrXrXrXrXrXrXrXrXrXrXrXrXrXrXrXrXrXrXrXrXrXrX",
"rXrXrXrXrXrXrXrXrXrXrXrXrXrXrXrXrXrXrXrXrXrXrXrXrXrXrXrXrXrXrXrXrXrXrXrXrXrXrXrXrXrXrXrXrXrXrXrXrXrXrXrXrXrXrXrXrXrXrXrXrXrX",
"rXrXrXrXrXrXrXrXrXrXrXrXrXrXrXrXrXrXrXrXrXrXrXrXrXrXrXrXrXrXrXrXrXrXrXrXrXrXrXrXrXrXrXrXrXrXrXrXrXrXrXrXrXrXrXrXrXrXrXrXrXrX",
"rXrXrXrXrXrXrXrXrXrXrXrXrXrXrXrXrXrXrXrXrXrXrXrXrXrXrXrXrXrXrXrXrXrXrXrXrXrXrXrXrXrXrXrXrXrXrXrXrXrXrXrXrXrXrXrXrXrXrXrXrXrX",
"rXrXrXrXrXrXrXrXrXrXrXrXrXrXrXrXrXrXrXrXrXrXrXrXrXrXrXrXrXrXrXrXrXrXrXrXrXrXrXrXrXrXrXrXrXrXrXrXrXrXrXrXrXrXrXrXrXrXrXrXrXrX",
"rXrXrXrXrXrXrXrXrXrXrXrXrXrXrXrXrXrXrXrXrXrXrXrXrXrXrXrXrXrXrXrXrXrXrXrXrXrXrXrXrXrXrXrXrXrXrXrXrXrXrXrXrXrXrXrXrXrXrXrXrXrX",
"rXrXrXrXrXrXrXrXrXrXrXrXrXrXrXrXrXrXrXrXrXrXrXrXrXrXrXrXrXrXrXrXrXrXrXrXrXrXrXrXrXrXrXrXrXrXrXrXrXrXrXrXrXrXrXrXrXrXrXrXrXrX"
};
