/* XPM */
static char *result[] = {
/* columns rows colors chars-per-pixel */
"70 72 256 2 ",
"   c #010202",
".  c #030609",
"X  c #0F1213",
"o  c #3B1B06",
"O  c #1D2A30",
"+  c #2C3237",
"@  c #3F210E",
"#  c #441D04",
"$  c #4D2206",
"%  c #4A240C",
"&  c #532405",
"*  c #5A2A0A",
"=  c #5A2808",
"-  c #492913",
";  c #542D13",
":  c #5A3319",
">  c #5E3208",
",  c #642C06",
"<  c #692E07",
"1  c #6A2F08",
"2  c #632C08",
"3  c #6D3209",
"4  c #6A3407",
"5  c #71360B",
"6  c #7B360A",
"7  c #7A3D0A",
"8  c #743508",
"9  c #783B13",
"0  c #64371C",
"q  c #5A3821",
"w  c #4F3D36",
"e  c #663D22",
"r  c #6D3436",
"t  c #7B440A",
"y  c #694A18",
"u  c #794518",
"i  c #7A5615",
"p  c #6B4428",
"a  c #75492B",
"s  c #774E33",
"d  c #7C5237",
"f  c #6E4B33",
"g  c #796833",
"h  c #635F1E",
"j  c #283B45",
"k  c #323A42",
"l  c #7B3769",
"z  c #364549",
"x  c #2E4554",
"c  c #354A55",
"v  c #344953",
"b  c #3C5661",
"n  c #4A5251",
"m  c #6F6D4D",
"M  c #455963",
"N  c #535E66",
"B  c #5B737D",
"V  c #53676F",
"C  c #6B7673",
"Z  c #863A0A",
"A  c #893C0A",
"S  c #853807",
"D  c #873F10",
"F  c #D63429",
"G  c #8C410C",
"H  c #854A0B",
"J  c #96570B",
"K  c #8C4414",
"L  c #964815",
"P  c #8E5110",
"I  c #A45B09",
"U  c #A44D14",
"Y  c #AD5116",
"T  c #B35417",
"R  c #B85617",
"E  c #B95718",
"W  c #BB5919",
"Q  c #BA5A17",
"!  c #8F6517",
"~  c #A8690C",
"^  c #B6770D",
"/  c #B17013",
"(  c #874C24",
")  c #8A532C",
"_  c #995628",
"`  c #875735",
"'  c #955A33",
"]  c #BE5F21",
"[  c #977936",
"{  c #946E2E",
"}  c #A47336",
"|  c #AB6F2B",
" . c #C46916",
".. c #CB7516",
"X. c #C17907",
"o. c #C36528",
"O. c #C76C32",
"+. c #CB743A",
"@. c #DA5625",
"#. c #8D534C",
"$. c #996949",
"%. c #90724F",
"&. c #A77554",
"*. c #AE7A50",
"=. c #996F6F",
"-. c #CF7B44",
";. c #F97776",
":. c #F44D45",
">. c #893B52",
",. c #768E10",
"<. c #7C866C",
"1. c #BB8715",
"2. c #A98B1D",
"3. c #9A873C",
"4. c #B48A29",
"5. c #B08C31",
"6. c #96AB15",
"7. c #DD8E0D",
"8. c #D8970A",
"9. c #CA8E11",
"0. c #C48912",
"q. c #D58614",
"w. c #CD9212",
"e. c #C99C1A",
"r. c #D39712",
"t. c #D49812",
"y. c #D89C11",
"u. c #D89719",
"i. c #CC8A0B",
"p. c #E49C09",
"a. c #E39A16",
"s. c #DAA515",
"d. c #D9B015",
"f. c #E8A709",
"g. c #F3AE08",
"h. c #FEBE06",
"j. c #FEBD0A",
"k. c #F8B607",
"l. c #E5A816",
"z. c #EAB718",
"x. c #F5BA11",
"c. c #D59A25",
"v. c #CC8F31",
"b. c #C8A538",
"n. c #D8A438",
"m. c #DBB837",
"M. c #D4B22A",
"N. c #F5B823",
"B. c #E7B02E",
"V. c #E48731",
"C. c #B7D011",
"Z. c #BAE809",
"A. c #B9D029",
"S. c #D2CA0E",
"D. c #FFC006",
"F. c #FDC40B",
"G. c #F4C519",
"H. c #FAC918",
"J. c #FDD41A",
"K. c #FFD91A",
"L. c #FFD315",
"P. c #ECC215",
"I. c #D6C237",
"U. c #F9C527",
"Y. c #E6C33B",
"T. c #FAC935",
"R. c #FAD123",
"E. c #B9835B",
"W. c #AD9550",
"Q. c #968D70",
"!. c #A69464",
"~. c #B28D72",
"^. c #B4A971",
"/. c #A09B59",
"(. c #D3824C",
"). c #C8895D",
"_. c #D58A57",
"`. c #D9905F",
"'. c #CEB34F",
"]. c #E7B251",
"[. c #C78B63",
"{. c #D69265",
"}. c #D09068",
"|. c #EF9174",
" X c #CFB06B",
".X c #EEBE6A",
"XX c #DBC24E",
"oX c #E5C648",
"OX c #F8CA44",
"+X c #E7CB53",
"@X c #ECD45B",
"#X c #F5D559",
"$X c #F8D24C",
"%X c #D1CB6C",
"&X c #EBD966",
"*X c #F2DA65",
"=X c #F8D868",
"-X c #EAD875",
";X c #EDCD6F",
":X c #EEE16D",
">X c #F1E172",
",X c #C6E453",
"<X c #6C7B83",
"1X c #9D5499",
"2X c #C076B1",
"3X c #748991",
"4X c #6D91A3",
"5X c #70D7EE",
"6X c #73D2D5",
"7X c #879698",
"8X c #8D948A",
"9X c #B2988D",
"0X c #97AB96",
"qX c #8C9CA5",
"wX c #8BA2AB",
"eX c #97ABB3",
"rX c #ABB7B0",
"tX c #A6AD85",
"yX c #C1AB92",
"uX c #C9B3A9",
"iX c #D99391",
"pX c #96D2B3",
"aX c #AACDAD",
"sX c #BEDA90",
"dX c #D4CF92",
"fX c #EAD698",
"gX c #E7CC89",
"hX c #D6CABB",
"jX c #D3CEB2",
"kX c #EAD9B1",
"lX c #F7EBBA",
"zX c #F7EBA9",
"xX c #F2E68C",
"cX c #A5B9C3",
"vX c #9EB6C1",
"bX c #DA98E7",
"nX c #96D9D4",
"mX c #BBCCD4",
"MX c #B1C6CD",
"NX c #96E6FA",
"BX c #AFE9F5",
"VX c #97E0E6",
"CX c #DBD5C8",
"ZX c #C6D7DB",
"AX c #DCD9D4",
"SX c #D5CECA",
"DX c #E4DDD3",
"FX c #E7E3DB",
"GX c #F9F0D3",
"HX c #C4EDF3",
"JX c #EAEAE9",
"KX c #FCFCFD",
"LX c #F5F5F5",
"PX c #F4F2EA",
"IX c #D5E0DE",
"UX c None",
/* pixels */
"UXUXUXUXUXUXUXUXUXUXUXUXUXUXUXUXUXUXUXUXUXUXUXUXUXUXUXUXUXUXUXUXUXUXUXUXUXUXUXUXUXUXUXUXUXUXUXK.K.K.K.K.J.J.K.UXUXUXUXUXUXUXUXUXUXUXUXUXUXUX",
"UXUXUXUXUXUXUXUXUXUXUXUXUXUXUXUXUXUXUXUXUXUXUXUXUXUXUXUXUXUXUXUXUXUXUXUXUXUXUXUXUXUXUXUXz.z.l.l.l.l.z.U.J.J.K.K.K.K.UXUXUXUXUXUXUXUXUXUXUXUX",
"UXUXUXUXUXUXUXUXUXUXUXUXUXUXUXUXUXUXUXUXUXUXUXUXUXUXUXUXUXUXUXUXUXUXUXUXUXUXUXUXUXUX ... .W E E E E E ] ..u.T.R.K.K.K.K.UXUXUXUXUXUXUXUXUXUX",
"UXUXUXUXUXUXUXUXUXUXUXUXUXUXUXUXUXUXUXUXUXUXUXUXUXUXUXUXUXUXUXUXUXUXUXUXUXUXUXUXUXE E E E E E E E E R R O.`.*.i 1.J.K.K.K.K.UXUXUXUXUXUXUXUX",
"UXUXUXUXUXUXUXUXUXUXUXUXUXUXUXUXUXUXUXUXUXUXUXUXUXUXUXUXUXUXUXUXUXUXUXUXUXUXUXE E E E E E E E E R E O.`.E.s o = L ..z.J.K.J.K.UXUXUXUXUXUXUX",
"UXUXUXUXUXUXUXUXUXUXUXUXUXUXUXUXUXUXUXUXUXUXUXUXUXUXUXUXUXUXUXUXUXUXUXUXUXE E E E E E E E E E Q o.(.[.` % & K E W E ] u.J.K.K.K.UXUXUXUXUXUX",
"UXUXUXUXUXUXUXUXUXUXUXUXUXUXUXUXUXUXUXUXUXUXUXUXUXUXUXUXUXUXUXUXUXUXUXUXE E E E E E E E E E ] -.}.$.@ $ D Y Q E W W E E q.R.K.K.J.UXUXUXUXUX",
"UXUXUXUXUXUXUXUXUXUXUXUXUXUXUXUXUXUXUXUXUXUXUXUXUXUXUXUXUXUXUXUXUXUXE E E E E Q E E E R Q -.}.&.; $ 7 Y E E E E E W E E E q.R.K.K.K.UXUXUXUX",
"UXUXUXUXUXUXUXUXUXUXUXUXUXUXUXUXUXUXUXUXUXUXUXUXUXUXUXUXUXUXUXUXE E E E E E E E E E E +.{.*.e # 8 Y W E E E E E E E R W -.}.} H.K.K.K.UXUXUX",
"UXUXUXUXUXUXUXUXUXUXUXUXUXUXUXUXUXUXUXUXUXUXUXUXUXUXUXUXUXUXUXE E E E E E E E E E O.`.E.p $ 3 U E W E E E E E E E W +.[.$.- o 1.J.K.K.UXUXUX",
"UXUXUXUXUXUXUXUXUXUXUXUXUXUXUXUXUXUXUXUXUXUXUXUXUXUXUXUXUXQ E E E E Q E E E E o._.[.d # , L E Q R E E E E E T E O.`.&.q o , L Q z.K.J.K.UXUX",
"UXUXUXUXUXUXUXUXUXUXUXUXUXUXUXUXUXUXUXUXUXUXUXUXUXUXUXE E Q E E E E E E E ] -.}.#.- = L E W E E E E E E R E o._.*.p o = L W R R ..H.K.K.K.UX",
"UXUXUXUXUXUXUXUXUXUXUXUXUXUXUXUXUXUXUXUXUXUXUXUXUXE E E E E E E E E E E -.}.$.: & G R E E E E E E E E R ] (.E.f o & G R R W R R R a.K.K.K.UX",
"UXUXUXUXUXUXUXUXUXUXUXUXUXUXUXUXUXUXUXUXUXUXUXUXE E E E E E E Q E E +.{.*.q # D T W E E E E E E E R W -.).#.@ $ D T W W R R R R R q.J.J.K.UX",
"UXUXUXUXUXUXUXUXUXUXUXUXUXUXUXUXUXUXUXUXUXUXE E E E E Q E E R R O.`.E.p % 6 Y W W E E E E E E E T +._.$.- # 6 Y E E W R R R R  .p.g.H.K.K.K.",
"UXUXUXUXUXUXUXUXUXUXUXUXUXUXUXUXUXUXUXUXE E E E E E E E E Q ] _.[.s - 3 Y E W E E E E E E E E O.).&.; o 3 U E E E E R R R Q q.g.D.h.F.K.K.K.",
"UXUXUXUXUXUXUXUXUXUXUXUXUXUXUXUXUXUXUXE E E E E E E E E ] (.}.#.- 2 U Q E E E E E E Q Q W O._.*.q o 1 L R W W R E E W W ..f.h.h.h.h.F.K.K.UX",
"UXUXUXUXUXUXUXUXUXUXUXUXUXUXUXUXUXE Q Q E E E E Q Q ] -.}.$.; 2 L E E E E E E E E E E ] (.*.f o * L W W W R R W E E  .p.h.h.h.h.j.D.D.UXUXUX",
"UXUXUXUXUXUXUXUXUXUXUXUXUXUXUXE E E E Q E E E E E +.{.&.q = G E W W E E E E E E T W -.E.` @ & A R W E E R W R R  .7.k.h.h.h.h.h.F.D.UXUXUXUX",
"UXUXUXUXUXUXUXUXUXUXUXUXUX . . ... . .] Q E E O.{.E.p & K T W W W R E E E E E E +.).#.- # D T W R E E E R R W q.g.h.h.h.h.h.h.h.UXUXUXUXUXUX",
"UXUXUXUXUXUXUXUXUXUXUXUXl.z.G.J.J.J.H.G.z.u.n.}.f - t T Q E E Q R E E E T W O._.$.- # 6 Y W W R E E R W W ..f.h.D.h.h.h.h.h.UXUXUXUXUXUXUXUX",
"UXUXUXUXUXUXUXUXUXUXP.z.z.z.z.z.z.G.J.K.K.K.R.z./ Q W E E E E E W E R R O._.*.q % 3 U Q R W R W E E R  .p.h.h.h.h.h.h.h.UXUXUXUXUXUXUXUXUXUX",
"UXUXUXUXUXUXUXUXs.y.t.r.t.r.r.r.r.t.s.l.P.J.K.K.K.G.u.W E E E E R R o.(.*.p o 2 U E E E W R W R E  .7.k.h.h.h.h.h.F.T.UXUXUXUXUXUXUXUXUXUXUX",
"UXUXUXUXUXUXr.r.r.r.t.r.r.t.r.t.r.r.r.t.t.s.z.J.K.J.J.z. .E E R  .-.E.s o = L E Q E E E R W R Q q.g.h.h.h.h.h.h.U.$X*X*X*XUXUXUXUXUXUXUXUXUX",
"UXUXUXUXUXr.r.r.r.r.r.r.r.r.r.t.t.r.r.r.r.r.r.s.G.K.K.K.G...Q -.).#.- $ K T W E W R W E R W ..f.h.h.h.h.h.k.H.Y.oX*X*X*X*X*X@XUXUXUXUXUXUXUX",
"UXUXUXUXr.r.r.r.r.t.y.w.0.1.^ ^ 1.9.r.t.t.t.r.r.r.z.J.K.K.J.n.$.- $ Z T R R E E R W R E  .p.h.D.h.h.h.h.F.S.oXY.m.@X*X*X*X*X*X*XUXUXUXUXUXUX",
"UXUXUXr.r.r.r.t.r.9.~ H 8 3 3 3 3 t J / w.t.t.t.r.r.d.J.K.K.G.i 8 Y Q E E E E E R R  .7.k.h.h.h.h.h.k.S.C.C.oX:X@XY.@X*X*X*X*X*X#X'.UXUXUXUX",
"UXUXr.r.r.t.r.t.^ t 4 4 1 < < 1 4 < < 4 H ^ r.t.r.r.r.l.L.K.K.G...T E E E E E E W q.g.D.h.h.h.h.k.S.S.I.M.M.@X:X>X&XoX*X*X*X*X@X/.N UXUXUXUX",
"UXr.t.r.r.r.r./ 5 1 1 1 1 1 1 1 4 1 1 1 1 5 J w.r.r.r.r.z.J.K.K.z. .W R E W W ..f.h.h.h.D.D.D.$X%X6.oX*X&XI.Y.oX@X-XoX=X*X*X X0XM v UXUXUXUX",
"UXt.t.t.r.t.^ 5 1 1 1 1 1 1 1 1 1 < < 3 < < 1 J w.t.r.r.w.z.K.K.J.q.R R E  .p.h.D.h.h.h.D.R.dXHXBX/.+X:XoX+X&X&X+XfX#X=X@XB.Q.MX3XB UXUXUXUX",
"t.8.r.t.t.9.H < 1 1 1 1 1 1 1 1 1 1 1 1 1 1 1 1 J w.r.r.r.y.G.K.J.G. . .7.k.h.h.h.h.k.x.%XnXBXBX5XaXm.&XY.&X:X:X-XlX>X#XU.D.e.Q.wXMXUXUXUXUX",
"g / 1.9.r.^ 4 4 1 1 1 4 1 1 4 1 1 1 1 1 1 1 4 1 4 ~ t.r.r.r.d.J.K.J.l.g.D.h.h.h.j.D.G.,X6X5XHXHX5XaXm.Y.m.@X>XzXGXGXlX>XOXH.D.d.5.5.UXUXUXUX",
"x n q i H i 0 4 4 4 , 4 < 3 < 4 < < < 4 < < 4 4 < 7 0.t.r.r.r.G.K.K.L.D.D.h.D.h.k.N.oX-X'.<.0XZXVXsXY.#X@XoX+XoXoXzXT.F.j.j.j.D.D.h.UXUXUXUX",
"b v 3XC y y y y y y / } P u 5 7 < < < 3 4 < , 4 4 < J t.r.r.r.s.J.K.K.D.h.h.h.z.B.l.l..XuX#.b.+X%XoX@X*X*X#XU.x.h.=XU.h.D.j.j.h.h.h.UXUXUXUX",
"3X3XvXwX[ ! y y y i I.:X+Xm.b.4.W.&.` u 3 4 4 4 1 1 t 0.r.r.r.y.G.K.K.L.H.N.l.&X+XM.V.iXbX1X1X].@X@X*X#XOXH.h.h.h.OXH.j.N.5.l.h.h.h.UXUXUXUX",
"qXqX<.3.r.8.1.! a h b.&X:X&Xm.^.LXLXhX'.'.4.{ P t 5 3 ^ t.r.t.t.z.K.K.#XGXgXB.-X*XoXu.9X2X1X=.;X*X&X$XG.w.k.h.h.h.F.N.v.a * 8.h.j.h.UXUXUXUX",
"} 2.1.t.r.r.r.r.1.i ! b.oXm.2.3.SXAXfX:X&XdXdXjXaX8XW.b.m.y.u.e.l.U.].FXFXkXGXGX&XXXtXaX9X}.&X&X#XU.e.3.n k.h.h.j.n.` ; < A p.D.h.h.UXUXUXUX",
"y.8.t.r.r.r.r.r.r.w.{ ! [ { { Q.AXFX+XI.'.nXNXBXNX5XaX:X+XoX-X+X-.|.;.-.`.DXKXKXjXZXNXBXdX*X#XT.d.3.B 4XC g.h.B.} : , S A A p.D.h.h.UXUXUXUX",
"t.r.r.t.c.t.r.r.r.r.y.0.5.9X^.CXKXKXyXW.aXBXBXBXBXBXCX:XXXfX-X&X].|.|.c.B.jXJXAXnXNXBXVX-XOXz.2.n M 4XMXQ.c.5.e = 6 A A A P f.h.h.h.UXUXUXUX",
"t.r.r.w.) 5.c.t.r.r.r.s.n.kXFXuXIXAX!.3.jXIXHXNXBXpXP.+XGXGX&Xm.A.M.M.a.m.@XdXFXZXBXVXpXR.1.m O .   N ZX<.p ; 3 A A A L ' ) 8.D.h.h.UXUXUXUX",
"t.r.r.w.t % d v.c.r.r.c.'.gXPXLXAX!.[ 3.W.XXaX5X6X'.f.oXGXzXzX@XA.Z.S.d.B.'.kXKXKXdXoXd.%.3Xx       + vXN 2 A A S A _ ` 0 < 8.D.h.h.UXUXUXUX",
"t.r.t.r.H 2 $ ; ' v.u.u.].gXPXKXPXW.3.[ 5.oX:XsX Xa.r.+XxX&X>X%XC.Z.Z.A.].l.fXLXJX;XD.l.V vXN     X B 4Xn S A A L ' e = 6 A p.D.h.h.UXUXUXUX",
"t.r.r.w.H 1 1 * $ e }  XKXKXAXDXhXn.0.4.5.n.+X;XB.a.b.'.XX+XoXS.C.Z.Z.,XkX&XfXAX;XP.D.f.8XZXMXN   z <Xc + S K ' a ; 8 A S G p.D.h.h.UXUXUXUX",
"t.r.r.r.| 9 1 4 1 2 # Q.LXLXdXjXPX.Xu.e.1.2.F :.+.q.v.W.b.s.2.,.6.A.,XdXGXlXKXKX-Xh.D.f.8XmXcX<X. + x + + _ ) ; 4 Z A S G _ f.D.D.D.UXUXUXUX",
"t.r.r.r.u d ) 5 4 < < d FXFX]..XGXJXn.t.t.@.F ;.iXV.p.u.u.M.b.h ,.,.6.M.=XgXKXKXfXx.j.v.<XwX<XM O + + w d 0 = S A A G L ' a 8.D.k.D.UXUXUXUX",
"t.r.r.9.t $ e ` ( 3 , 9XKXLX^.(.B.gXc.r.w. .F ;.).W.n.].n.b.'.'.3.6.f.h.=XgXAXkX].l.} q M V b j O w d p = 6 A A A L ' a * 8 8.D.h.t.UXUXUXUX",
"r.r.t.r.H 1 = % r ' 9 ~.PXJXFXJX].q.c.u.t.t.7...&.0XhXdX'.'.'./.8X/.h.T.GXKXkXB.v.p = 1 k k + + s a ; 3 Z A A K _ ` : , S H f.f.3.n UXUXUXUX",
"t.r.r.r.H 1 1 1 & - s }  XuXKXKX].~ a 5.c.t.t.8.W.ZXZX7X/.W.m 3XmX^.k.+XLXKXAX` ; 3 A 6 O + f s : < Z A A A _ ' 0 * 6 A Z G e.Q.4Xb UXUXUXUX",
"t.r.t.r.{ ( 1 1 1 < & : X.c.dX.Xa./ , & ` v.u.y.W.ZXeXc b c x 3XZX^.k.U.CXAX=.1 Z A Z Z e ` 0 , 6 A A A L ' p = 8 A A A G ^ W.MXB c UXUXUXUX",
"t.t.t.9.t p ` 9 1 1 1 = < ~ p.+.iX1Xe < # ; ' v.5.cX7Xj x x j B mXW.N.fXLXAX' S Z A L ' p = 3 A A A K _ a * 3 A A A A ~ p.f.rXeXz x UXUXUXUX",
"g / w.r.H & ; s ) 9 < 1 2 3 H =.bXbXl 2 3 2 # e ' tXvXV c x M wXrX} #.AXKXLX&.S L ' a ; 1 Z A A G _ ) : < S S S A I 7.k.F.s.rXMXV x UXUXUXUX",
"x V %.1.H < < & : ` ( 5 1 1 2 l 1X1X>.5 1 1 3 = > } 3X<Xc x V 7X5.t 5 9XIXhX_ _ ) : 2 Z A Z A _ ' 0 * 6 A A S J X.g.h.h.j.s.rXrXV UXUXUXUXUX",
"c V eX!.t 4 < < , % e ` ( 3 1 3 r l r ` ( 3 1 1 t 0.1.g z z g e.k.I Z _ hXDX=.e = 6 A A A L ' p * 8 A A A G ^ f.D.D.h.h.D.l.Q.UXUXUXUXUXUXUX",
"c c 4XMX[ J 3 < 1 1 = % r ` 9 1 1 2 * % e ` K 1 7 9.t.r.1.s.k.D.h.I S &.LXKXDX( S A A K _ a > 1 Z A A G ~ 8.h.h.h.h.h.h.j.UXUXUXUXUXUXUXUXUX",
"b j <XmX/.8.^ H 1 1 1 1 & ; d ) 5 < 1 1 * - p ` P 9.r.r.y.h.D.h.k.I _ %.FXLXuXD D D _ ) 0 , S A Z S J i.k.h.h.h.h.h.j.UXUXUXUXUXUXUXUXUXUXUX",
"j c 4XmXQ.w.r.9.~ 7 1 1 1 2 $ : ` ( 3 1 1 2 & ; d w.r.r.y.k.D.h.j.| : 2 &.DX9X$.} _ e = 6 A S A L X.g.D.h.h.h.h.h.h.UXUXUXUXUXUXUXUXUXUXUXUX",
"UXUX<XcX!.r.r.t.r.0.J 5 1 3 < = & p ` u 1 1 1 2 4 0.t.r.t.h.h.D.k.H 8 S }.KXLXSXd = 3 Z A Z G ~ f.h.D.h.h.h.h.D.UXUXUXUXUXUXUXUXUXUXUXUXUXUX",
"UXUXUXUX[ t.r.r.r.r.r.0.P 3 < 3 < & % a ) 9 1 1 t w.t.r.y.k.h.h.h.I A S yXLXLXuX$.G A Z A I 8.h.h.h.h.D.D.h.UXUXUXUXUXUXUXUXUXUXUXUXUXUXUXUX",
"UXUXUXUXUXUXr.r.r.r.t.t.w.^ H < < < < & : d ( 1 7 0.t.r.y.k.h.h.k.I K _ %.uXuX_ G G S J i.k.D.D.h.h.h.h.h.UXUXUXUXUXUXUXUXUXUXUXUXUXUXUXUXUX",
"UXUXUXUXUXUXUXr.r.r.r.r.r.t.9.~ 7 3 < < , $ e ` _ 9.r.r.t.h.h.h.k./ ' e =.PXJX' S G X.g.h.h.h.h.h.h.j.UXUXUXUXUXUXUXUXUXUXUXUXUXUXUXUXUXUXUX",
"UXUXUXUXUXUXUXUXUXr.r.r.r.r.r.t.0.J 5 < 1 4 = % y w.t.r.y.k.D.D.k.! = 8 rXKXLX~.~ f.h.D.h.D.h.h.D.UXUXUXUXUXUXUXUXUXUXUXUXUXUXUXUXUXUXUXUXUX",
"UXUXUXUXUXUXUXUXUXUXUXt.r.r.r.r.t.r.1.H 3 < < , 4 0.t.r.y.h.h.h.k.H S A $.hXSXkXkXT.h.h.h.h.h.UXUXUXUXUXUXUXUXUXUXUXUXUXUXUXUXUXUXUXUXUXUXUX",
"UXUXUXUXUXUXUXUXUXUXUXUXUXr.r.r.r.r.r.w./ H < , t 9.t.r.y.k.h.h.k.I S A J t.;XKXKXfXj.h.h.h.UXUXUXUXUXUXUXUXUXUXUXUXUXUXUXUXUXUXUXUXUXUXUXUX",
"UXUXUXUXUXUXUXUXUXUXUXUXUXUXr.r.r.r.r.r.r.9.~ 7 7 9.t.r.y.k.h.h.k.I G ^ g.D.].JXJX;Xh.D.UXUXUXUXUXUXUXUXUXUXUXUXUXUXUXUXUXUXUXUXUXUXUXUXUXUX",
"UXUXUXUXUXUXUXUXUXUXUXUXUXUXUXUXr.r.r.r.r.t.t.0.~ 9.r.r.t.j.h.h.k.i.p.h.D.h.j.oX+XN.UXUXUXUXUXUXUXUXUXUXUXUXUXUXUXUXUXUXUXUXUXUXUXUXUXUXUXUX",
"UXUXUXUXUXUXUXUXUXUXUXUXUXUXUXUXUXUXr.r.r.r.r.t.r.r.t.t.y.j.h.h.h.h.D.h.h.h.h.h.UXUXUXUXUXUXUXUXUXUXUXUXUXUXUXUXUXUXUXUXUXUXUXUXUXUXUXUXUXUX",
"UXUXUXUXUXUXUXUXUXUXUXUXUXUXUXUXUXUXUXUXr.r.r.r.r.r.w.0.1.e.f.k.D.h.j.j.h.D.h.UXUXUXUXUXUXUXUXUXUXUXUXUXUXUXUXUXUXUXUXUXUXUXUXUXUXUXUXUXUXUX",
"UXUXUXUXUXUXUXUXUXUXUXUXUXUXUXUXUXUXUXUXUXt.r.t.r.2.m 8X3X<.8XQ.e.h.h.D.h.UXUXUXUXUXUXUXUXUXUXUXUXUXUXUXUXUXUXUXUXUXUXUXUXUXUXUXUXUXUXUXUXUX",
"UXUXUXUXUXUXUXUXUXUXUXUXUXUXUXUXUXUXUXUXUXUXUXt.0.8XcXwX7X7XwXeX8Xs.F.UXUXUXUXUXUXUXUXUXUXUXUXUXUXUXUXUXUXUXUXUXUXUXUXUXUXUXUXUXUXUXUXUXUXUX",
"UXUXUXUXUXUXUXUXUXUXUXUXUXUXUXUXUXUXUXUXUXUXUXUXUXqXqXc N M v 7XeXUXUXUXUXUXUXUXUXUXUXUXUXUXUXUXUXUXUXUXUXUXUXUXUXUXUXUXUXUXUXUXUXUXUXUXUXUX",
"UXUXUXUXUXUXUXUXUXUXUXUXUXUXUXUXUXUXUXUXUXUXUXUXUXUXN c c c b N UXUXUXUXUXUXUXUXUXUXUXUXUXUXUXUXUXUXUXUXUXUXUXUXUXUXUXUXUXUXUXUXUXUXUXUXUXUX",
"UXUXUXUXUXUXUXUXUXUXUXUXUXUXUXUXUXUXUXUXUXUXUXUXUXUXUXUXj + UXUXUXUXUXUXUXUXUXUXUXUXUXUXUXUXUXUXUXUXUXUXUXUXUXUXUXUXUXUXUXUXUXUXUXUXUXUXUXUX"
};
