/* XPM */
static char *result[] = {
/* columns rows colors chars-per-pixel */
"59 75 140 2 ",
"   c #060A04",
".  c #080C06",
"X  c #0B0F09",
"o  c #120F0D",
"O  c #0D110B",
"+  c #13110E",
"@  c #141412",
"#  c #1A1614",
"$  c #161915",
"%  c #191A16",
"&  c #1B1D1A",
"*  c #221E1B",
"=  c #1E211D",
"-  c #22221E",
";  c #28221F",
":  c #1D1F21",
">  c #201F20",
",  c #1E2124",
"<  c #1D242B",
"1  c #1F282F",
"2  c #1F2933",
"3  c #222521",
"4  c #2B2522",
"5  c #252A24",
"6  c #2B2B26",
"7  c #212529",
"8  c #2A2D29",
"9  c #302A26",
"0  c #342E2A",
"q  c #2C3127",
"w  c #2C322A",
"e  c #2F382D",
"r  c #34322E",
"t  c #39312D",
"y  c #323A2F",
"u  c #202C34",
"i  c #212E3A",
"p  c #24323E",
"a  c #333433",
"s  c #3C3532",
"d  c #353C33",
"f  c #3C3D3B",
"g  c #403F3E",
"h  c #364134",
"j  c #394237",
"k  c #3C433B",
"l  c #3D493B",
"z  c #414E3E",
"x  c #41503F",
"c  c #243442",
"v  c #263846",
"b  c #263A4B",
"n  c #273D52",
"m  c #293F53",
"M  c #294157",
"N  c #2B445B",
"B  c #2D4760",
"V  c #2E4A64",
"C  c #2F4E69",
"Z  c #304F6A",
"A  c #2F506C",
"S  c #30516D",
"D  c #325674",
"F  c #335877",
"G  c #345B7B",
"H  c #395F7D",
"J  c #39607F",
"K  c #434543",
"L  c #484747",
"P  c #454A43",
"I  c #494847",
"U  c #4B4C4B",
"Y  c #455443",
"T  c #475845",
"R  c #485846",
"E  c #4F514E",
"W  c #50534F",
"Q  c #545453",
"!  c #555B54",
"~  c #5B5C5B",
"^  c #5E635C",
"/  c #646464",
"(  c #636E61",
")  c #6B6B6B",
"_  c #6F796E",
"`  c #70716F",
"'  c #737473",
"]  c #777876",
"[  c #7B7C7B",
"{  c #365F80",
"}  c #376285",
"|  c #3B6485",
" . c #376589",
".. c #38668B",
"X. c #3A698E",
"o. c #3A6C93",
"O. c #3B6F98",
"+. c #3E7096",
"@. c #3D729C",
"#. c #3D76A2",
"$. c #3E79A6",
"%. c #3E7AA8",
"&. c #406E92",
"*. c #427296",
"=. c #42749B",
"-. c #4377A0",
";. c #437AA3",
":. c #497EA6",
">. c #417DAA",
",. c #4481AE",
"<. c #4B83AD",
"1. c #4583B1",
"2. c #4A86B2",
"3. c #4C89B6",
"4. c #4D8CBA",
"5. c #508CB7",
"6. c #518EBA",
"7. c #4F90BE",
"8. c #5291BE",
"9. c #5394C2",
"0. c #5798C6",
"q. c #599AC6",
"w. c #579AC8",
"e. c #5B9DCB",
"r. c #5EA1CE",
"t. c #61A1CA",
"y. c #65A6D1",
"u. c #68A9D2",
"i. c #848484",
"p. c #8B8B8B",
"a. c #949394",
"s. c #9C9C9C",
"d. c #A2A2A2",
"f. c #ABABAB",
"g. c gray70",
"h. c #BBBBBB",
"j. c #C3C3C3",
"k. c #CBCBCB",
"l. c gray83",
"z. c None",
/* pixels */
"z.z.z.z.z.z.z.z.z.z.z.z.z.z.z.z.z.z.z.z.z.z.z.z.z.z.z.z.z.z.z.z.z.z.z.z.z.z.z.z.z.z.z.z.z.z.z.z.z.z.z.z.z.z.z.z.z.z.z.",
"z.z.z.z.z.z.z.z.z.z.z.z.z.z.z.z.z.z.z.z.z.z.z.z.z.z.z.V B B V V z.z.z.z.z.z.z.z.z.z.z.z.z.z.z.z.z.z.z.z.z.z.z.z.z.z.z.",
"z.z.z.z.z.z.z.z.z.z.z.z.z.z.z.z.z.z.z.z.z.z.z.B B V G O.D { O.o.D V B N z.z.z.z.z.z.z.z.z.z.z.z.z.z.z.z.z.z.z.z.z.z.z.",
"z.z.z.z.z.z.z.z.z.z.z.z.z.z.z.z.z.z.z.z.z.Z C V D O.#.$.{ X.$.>.@.o.C C C C z.z.z.z.z.z.z.z.z.z.z.z.z.z.z.z.z.z.z.z.z.",
"z.z.z.z.z.z.z.z.z.z.z.z.z.z.z.z.z.z.z.N C O.@.#.#.$.,.,.} =.4.,.,.$.#.@.@.X.V N z.z.z.z.z.z.z.z.z.z.z.z.z.z.z.z.z.z.z.",
"z.z.z.z.z.z.z.z.z.z.z.z.z.z.z.z.z.z.N A O.%.>.1.1.1.8.9.&.*.8.6.4.1.1.1.1.$. .C N z.z.z.z.z.z.z.z.z.z.z.z.z.z.z.z.z.z.",
"z.z.z.z.z.z.z.z.z.z.z.z.z.z.z.z.B C V X.1.1.5.5.4.<.o.>.&.S X.o.+.3.5.5.4.1.%.} S S N z.z.z.z.z.z.z.z.z.z.z.z.z.z.z.z.",
"z.z.z.z.z.z.z.z.z.z.z.z.z.z.N C D o.F =.4.3.O.X.O.X.} } D V G |  .X.o.o.@.3.4. .*.=.D V z.z.z.z.z.z.z.z.z.z.z.z.z.z.z.",
"z.z.z.z.z.z.z.z.z.z.z.z.z.C G X.$.1.=.*.O.X.X.X.} H D D H S S D D { } X.X.X.*.&.2.3.#.} G z.z.z.z.z.z.z.z.z.z.z.z.z.z.",
"z.z.z.z.z.z.z.z.z.z.z.N C ..$.$.>.3.2.} F { { H F D F D D Z S D F F F } { G F o.2.3.>.>.$.{ B z.z.z.z.z.z.z.z.z.z.z.z.",
"z.z.z.z.z.z.z.z.z.z.N V ..$.1.4.3.=.X.} D Z D D D D D C C V V Z D D F D D Z D  .X.-.3.4.>.#.{ V z.z.z.z.z.z.z.z.z.z.z.",
"z.z.z.z.z.z.z.z.z.N C ..$.,.3.>.=.{ H F D Z Z D C C V b 2 2 u n V C C D Z S D G {  .-.:.4.%.$.{ V z.z.z.z.z.z.z.z.z.z.",
"z.z.z.z.z.z.z.z.z.V X.$.,.3.=.X.} F F Z V C B m 2 < < , * * * , < 7 u N B V C Z F G  .X.-.4.>.#.{ B z.z.z.z.z.z.z.z.z.",
"z.z.z.z.z.z.z.z.V X.$.>.3.=. .G F F V i , , < 3 * * * * ; 9 ; * * * * 7 < , , c Z D G G X.-.4.$.#.} z.z.z.z.z.z.z.z.z.",
"z.z.z.z.z.z.z.V C @.1.3.=...} D D V i * 4 > ; * 9 9 0 9 0 0 0 0 9 9 6 * 6 * 4 & c C F D { X.-.4.>.X.V z.z.z.z.z.z.z.z.",
"z.z.z.z.z.z.N N =.1.3.+. .G F C c : > 4 0 0 g 0 4 r s s s s s s s 0 4 t s 0 0 4 > , b D G G X.-.3.<.X.N z.z.z.z.z.z.z.",
"z.z.z.z.z.z.Z Z D :.*.{ { F C c > 4 9 0 t t s 0 ; 9 % # * # # # % 0 ; t s t t 0 9 4 3 b Z F  .{ +.X.C C C z.z.z.z.z.z.",
"z.z.z.z.z.S o.#.{ Z  . .F Z c 4 t 0 9 t t 0 * * % = % + + + # + + + # - 4 t t 0 4 0 0 > b D G X.{ A  .$. .z.z.z.z.z.z.",
"z.z.z.z.z.} $.,.2.H { } D i * 4 t 9 * % % 5 r e w w - @ # + # + # # 6 d a - % % > t 0 4 : b F { G | 3.>.$.D z.z.z.z.z.",
"z.z.z.z.S X.$.4.-.{ Z Z v * 4 0 t * @ 6 P Q P w 5 @ @ $ % + + # + % h d Q P w $ + 4 t 0 4 : m C D } <.4.$.X.C z.z.z.z.",
"z.z.z.z.{ @.>.2.O.F D m & 4 0 t - % 3 U [ / j $ $ $ $ = $ @ @ @ $ $ @ , / ] I 8 * % 4 t 0 4 : V D G =.3.1.$.D z.z.z.z.",
"z.z.z.z.G O.3.-.X.F V i * 0 t ; % 8 E ' ' f $ % = = = = $ + @ @ & = % % L ' ' ~ P 5 % 4 t 9 & c C H | :.3.$.D z.z.z.z.",
"z.5.N N D } <.;.{ F M & * 0 6 % 8 d ) ] ~ = % = = = = = % + @ @ = 5 5 $ 5 / ' i.~ a 3 % 0 0 % < V G { ,.3.$.D B S z.z.",
"z.8.=.G S F <.;.G D N : * 6 ; - y P ) U 8 = = 5 5 5 = - % @ @ $ = 5 = = & 8 Q ' ^ k a % 4 4 * < V D G <.3.o.A { ;.q.z.",
"z.&.<.:.G S <.;.| F M , t 9 - w d U ~ 8 + $ = - - = = = % @ @ = = = = = O O & I ^ P w $ = r 0 < V G } <.4.G } 3.:.| z.",
"z.Z o.<.&.S <.=.H F M , s 0 & a d w 3 & 4 * = = q 5 q 5 % + @ - 5 5 = = = 8 $ & 8 a a 8 & s 0 , V F } <.;.S ;.>...V z.",
"z.D o.o.X.S =.=.F D M > 0 6 - d 8 % & Q W ; $ = 5 5 = = % + + = = 5 = = 4 ~ L O $ e d y - 0 4 < B D G :.X.D o.X.o.C z.",
"z.V C C S S D D S S M : 0 r 3 d 5 = & / [ M $ 3 5 5 = = $ + @ = = 5 8 5 z :.~ $ $ w j h - s 9 , N V C D S Z S S D B z.",
"z.z.Z  .o.O.O.O.O.o.B : 0 0 3 f e = $ ! ` 7 * @ $ 5 5 , % + @ 5 5 - $ O g ) / g % = Y l 3 s 6 < V D G } X.@.O.@.O.z.z.",
"z.z.Z { } G D D D D M : 9 6 3 Y j = $ U 8 d ' 3 X O @ = % @ + - $ O O & ; g ~ ; % - l l : 9 4 , N S S D D H  .{ C z.z.",
"z.z.V V V V V V N V M : 4 4 3 P l = @ a 3 ' a.W = @ X X O + + O X @ - ^ / ; 0 o % = d j * 4 ; , N V V C V V V V N z.z.",
"z.z.z.z.C D D F V S M & * 6 3 z h $ w = 8 ) s.d.) ! k k 5 + $ & a ^ ] p.~ ; X 9 7 & Y k 3 4 * , V Z C D F G V z.z.z.z.",
"z.z.z.z.S { G D V D M : 4 4 3 j q # / g g ` p.h.k.g.f.a.E + @ U i.f.j.a.! 8 w i.W # x z ; 4 ; , V S C F { } Z z.z.z.z.",
"z.z.z.z.D X.} { Z S M : 4 ; 3 d q # Q / * ^ *.d.h.k.k.f.L + @ ) p.j.g.a.~ w s.f.M $ x z ; ; ; < V A A | X.;.G z.z.z.z.",
"z.z.z.z.G O.X.-.F F M , 0 4 3 l d % 9 [ ` ] p.p.d.k.l.h.L o @ / a.h.a.p.p.i.g.) & & Y k * 0 9 , V D D o.O.5.} z.z.z.z.",
"z.z.z.z.{ #.O.3.H H N : s r 3 Y l - # ) s.a.p.i.p.f.h.a.L + # ) p.s.p.p.a.s.) 3 $ = j d - t 0 7 A G D X.+.8.J z.z.z.z.",
"z.z.z.z.{ %.O.3.H D M : 6 t 3 Y l % & W i.i.i.i.p.p.a.p.L @ # / p.i.i.p.p.[ K @ = 5 a e > s 4 < C A G O.@.4.J z.z.z.z.",
"z.z.z.z.{ $.$.4.H S M : 0 t 3 P ( z & ; ~ i.a.s.p.i.i.p.L + # / p.p.p.a.p./ & % = Q Y w 8 s 4 : V C { %.%.%.G z.z.z.z.",
"z.z.z.z.F #.#.>.D Z M : 0 0 - Y _ I % % ~ a.s.s.s.p.p.p.L + @ / p.p.s.d.a.Q @ @ & ~ Q w 3 s 9 < V A H %.$.$.D z.z.z.z.",
"z.z.z.z.D @.@.#.D D M : 4 4 3 x ^ ) a f ~ p.d.f.h.j.g.p.L @ @ ) d.j.j.h.i.~ y @ P ) P 8 & 4 3 , V A G @.#.%.D z.z.z.z.",
"z.z.z.z.D @.O.@.D C M : 9 4 , Y ! ! 8 K ~ / i.p.p.d.j.f.L o @ ) h.g.f.p.^ ~ v X g ~ z 6 & 0 4 < V A { O.#.$.D z.z.z.z.",
"z.z.z.z.D #.#.O.D D M : 0 s 3 Y h k 5 Q ) W a 8 6 P i.s.Q o @ ) a.M q t Q ` Q + t f y w : s 9 , V C G @.#.$.D z.z.z.z.",
"z.z.z.z.D @.>.O.S D N : 9 9 3 Y h a 3 Q p.~ 8 o o X 0 [ Q o # / w X X * / p./ r 8 8 y d = 0 4 , C S D @.$.#.F z.z.z.z.",
"z.z.z.z.F #.4.-.C { N : 6 4 3 P e = $ ! s.a.Q o . # K [ Q o @ / I +   q d.p.) a = = x k * 4 6 < C G D @.%.$.F z.z.z.z.",
"z.z.z.z.D #.9.#.Z { N , s t 3 h 5 = % Q i.s.a.Q U ~ ' p.Q o # / ] Q E [ h.i.) a = & x l - s t , C G D #.%.$.F z.z.z.z.",
"z.z.z.z.F O.9.=.Z { N : 0 t 3 l e = 7 E ' i.i.i.p.[ i.f.Q o # / ] i.p.d.a.) Q 5 5 = l l 3 s 9 < C G D O.%.$.D z.z.z.z.",
"z.z.z.z.D #.>.@.Z D N : 0 9 3 Y d = 8 E / ) ' ) / ' d.h.Q o # ` p.' / ) ) / a & q & l l = 0 6 < C D D O.$.$.D z.z.z.z.",
"z.z.z.z.D @.o.{ C D M : 0 0 3 Y h = 8 8 8 Q / / ) i.i.) v o + f i.] ) / W 6 & & 8 = h h , t 9 , V C C } @.$.D z.z.z.z.",
"z.z.z.z.G #.X.G C D N : t s 3 P h = w = $ 5 P d ) <.) t t + # & <.] / 8 = $ = 5 5 = w d 3 s 9 , V C D G o.$.D z.z.z.z.",
"z.z.z.z.F o.{ F C G N : 0 0 = d 5 = 5 q 5 O = , ) [ [ Q t o $ z i.[ ~ O O 5 q 5 5 % w d 3 s 9 < C D C G } o.A z.z.z.z.",
"z.z.z.N D { D D V V M : 9 6 = e 5 = q q q $ . w ) ' ] [ E o # Q ] ] / = = 5 5 5 5 = q a : 9 9 , B C V D D J A N z.z.z.",
"z.z.z.V C Z C Z V D C , 9 4 = a < = q w q 5 = ( ) ' ) p.Q o # Q ` ` / ( w q w q 5 = e f & 9 9 7 D D C C A A Z C V z.z.",
"z.z.z.H >.>.>.>.X.>.+.7 9 4 = a 5 = 5 q q 5 , R g i./ i.Q o # Q ) i.t ~ e 5 5 q 5 $ l l - 6 4 i $.>.;.;.%.>.%.$.S z.z.",
"z.z.z.| 5.6.9.4.5.5.:.< ; 4 = l h O = = = 5 = O 9 ` ( [ Q o # W ` / # # q , 5 , = = l l * 6 * p <.4.8.7.8.8.7.<.S z.z.",
"z.z.&.Z { X.o.} { { D & ; 4 = k h = 5 w w q q $ # ~ i.[ Q o # W p.x # # 5 w 5 5 5 = w h & 4 * < S F J G H G } D V z.z.",
"z.X.<.F G D D G G G A , 4 3 = e = = = , 5 q 5 5 g i.) i.Q o # Q _ i.; 9 w 5 5 = = % 5 d - 4 ; < F G G G G F F G | z.z.",
"z.4.0.4.4.2.1.4.3.4.;.7 r 0 3 l w = = = = , = = f ` 5 / P + @ a 0 ] 5 - 5 = = = = % w d = s 9 p 1.4.3.3.3.4.4.4.e.1.z.",
"$.#.=.,.:.2.4.4.4.4.;.7 t r 3 Y h % = $ = = = = 8 k & l y + @ = * z 5 = = % = = = % h j - s 9 p ,.1.4.4.4.4.,.3.=.$.%.",
"4.o.S X.o.#.#.#.O.O.} < t 0 3 Y h $ = e 5 5 5 5 & $ - Y d + @ w & $ - 5 5 j q $ & % x l - s 9 u | o.@.#.O.O.o.X.S #.4.",
"9.O.S X.o.O.O.o.X.{ S , 0 t 3 Y h @ e j 5 = 5 = = & - T y + @ q * = - 5 5 l l 5 @ $ z l , t 9 u G } o.O.....X. .S ;.e.",
"9.O.A X.X. . .{ G D V : 4 4 3 d e e l 5 = = = = , % = T y + $ e = = = = = 5 l l x 5 x l - 9 ; < S D G }  .....} A $.w.",
"9.@.C S A D S C C C B : ; 4 & y l l j 5 = = = 8 j = 5 T y + @ q = = l = = = w l z y j y & 4 - < C C C C D S D A A ;.e.",
"e.5.#.#.-.@.#.@.#.#...3 ; 4 & a j j e = = 5 5 5 q Y l T y + O e l T = = , = = h d f f w & 6 * u @.#.@.@.@.#.-.@.>.8.e.",
"9.9.9.9.9.9.9.9.9.8.<.7 * 3 & w e h q = = = = = 5 j h Y h O $ q l h = = = = = w y y y w % 4 ; p 5.9.9.9.9.9.9.8.8.9.8.",
"D >.>.>.>.>.>.%.$.O.{ : > > & 8 8 a l R T T T R M y q l h + $ 5 w d Y Y j T T l e e w 5 & & * u X.@.>.>.>.>.#.O.O.O.S ",
"C X.#.$.%.%.#.O.o.{ { : * # : 3 3 5 8 8 5 5 5 5 q ; - h q + + = 5 7 5 5 8 6 8 8 5 5 5 5 % & % u { X.X.O.#.#.$.#.X. .V ",
"C  .o.#.#.#.O.X.{ { F : < 2 < < < < < 1 < 1 1 < 5 < 1 1 < < < 1 1 1 1 < 1 < 1 1 < < < 1 2 < < 2 { G  .X.O.o.O.#.X. .V ",
"C X.X.{ { {  .{ { D D n B C D C V C C N V V C A A V Z V C V V C V V C C C V V N C C V C V V V n D F G }  . .{  .X.} V ",
"V F D C Z Z Z Z A A C V F { O.X.} G J A A F G  .o.{ { { J J J { { { { { { G Z Z G G } J G F S V Z Z C C Z Z Z Z D D B ",
"B C C D G F F F F F F F  .#.%.#.@.@.O.F D } O.@.#.#.O.O.@.O.@.@.@.@.@.@.O...F F  .+.@.O.o.} { D Z S F F F F F F D D B ",
"V F { o.@.O.@.#.#.@.@.O.#.%.>.$.%.%.%. .} O.%.7.4.9.9.9.1.%.1.9.9.4.4.4.>.O.} { ..#.%.%.#.@.@...{  .X.X.X.X.X.X.X. .B ",
"Z { O.4.9.9.9.9.%.%.9.9.9.9.6.9.7.1.%. .o.$.,.w.w.w.e.e.9.7.w.r.e.e.e.w.9.3.X.{ O.3.9.7.7.9.7.4.3.#.#.#.#.@.#.#.o.} V ",
"Z o.>.e.e.e.r.y.t.0.e.y.e.e.r.e.e.w.1. .@.%.7.w.w.e.w.e.r.e.e.w.e.u.u.u.y.e.,.o.2.w.e.e.r.u.r.r.y.t.t.0.9.9.9.>.-.O.V ",
"D @.1.w.w.w.w.q.e.w.q.q.w.w.w.w.w.w.1.o.@.$.,.,.,.,.3.0.0.0.w.w.q.e.e.q.q.q.2.+.>.,.>.,.8.e.t.q.e.e.q.q.0.w.0.9.9.2.Z ",
"{ o.O.=.=.O.O.=.=.O.*.*.*.O.O.=.+.+.+...o.o.o.o.o.o.O.@.@.+.@.@.+.@.@.+.=.+.O.X.o.X.o.o.+.=.=.@.O.*.*.=.O.=.*.=.=.O. ."
};
