/* XPM */
static char *result[] = {
/* columns rows colors chars-per-pixel */
"59 75 110 2 ",
"   c #0C100A",
".  c #14110F",
"X  c #151210",
"o  c #191614",
"O  c #161914",
"+  c #1A1916",
"@  c #1C1C1A",
"#  c #221E1B",
"$  c #1E221D",
"%  c #24221E",
"&  c #28231F",
"*  c #1C1F21",
"=  c #1D2125",
"-  c #1D242B",
";  c #1F2A33",
":  c #242422",
">  c #2B2522",
",  c #262A25",
"<  c #2C2A26",
"1  c #21272D",
"2  c #2B2C2B",
"3  c #312A26",
"4  c #342D29",
"5  c #293027",
"6  c #2D322B",
"7  c #34322D",
"8  c #39312E",
"9  c #31392F",
"0  c #212B34",
"q  c #232F38",
"w  c #23303B",
"e  c #333432",
"r  c #3C3531",
"t  c #343A33",
"y  c #3D3935",
"u  c #3B3D3B",
"i  c #413C37",
"p  c #423D38",
"a  c #3A4337",
"s  c #3E413D",
"d  c #3D493B",
"f  c #243543",
"g  c #253748",
"h  c #273B4D",
"j  c #283E4F",
"k  c #263C51",
"l  c #283D50",
"z  c #2B455D",
"x  c #2D4760",
"c  c #2E4B64",
"v  c #2F4E69",
"b  c #304F6A",
"n  c #2F506C",
"m  c #30516D",
"M  c #2F5370",
"N  c #325573",
"B  c #335877",
"V  c #345B7B",
"C  c #385F7F",
"Z  c #39607F",
"A  c #444544",
"S  c #4A4A4A",
"D  c #535353",
"F  c #585757",
"G  c #585857",
"H  c #595959",
"J  c #365F80",
"K  c #376285",
"L  c #396485",
"P  c #376489",
"I  c #38668B",
"U  c #3A698E",
"Y  c #3A6C94",
"T  c #3B6F98",
"R  c #3D7097",
"E  c #3D729C",
"W  c #3D76A1",
"Q  c #3E79A6",
"!  c #3E7AA8",
"~  c #406C8D",
"^  c #416F91",
"/  c #437295",
"(  c #42759C",
")  c #45799F",
"_  c #4277A1",
"`  c #447AA3",
"'  c #497EA5",
"]  c #427DAB",
"[  c #487FA9",
"{  c #4B80A6",
"}  c #4381AE",
"|  c #4982AC",
" . c #4684B2",
".. c #4A86B2",
"X. c #4C89B5",
"o. c #4D8CBA",
"O. c #508BB5",
"+. c #518EBA",
"@. c #4F90BE",
"#. c #5291BE",
"$. c #5394C2",
"%. c #5798C6",
"&. c #599AC6",
"*. c #579AC8",
"=. c #5B9DCB",
"-. c #5DA0CD",
";. c #62A1CB",
":. c #64A6D1",
">. c #68A9D2",
",. c None",
/* pixels */
",.,.,.,.,.,.,.,.,.,.,.,.,.,.,.,.,.,.,.,.,.,.,.,.,.,.,.,.,.,.,.,.,.,.,.,.,.,.,.,.,.,.,.,.,.,.,.,.,.,.,.,.,.,.,.,.,.,.,.",
",.,.,.,.,.,.,.,.,.,.,.,.,.,.,.,.,.,.,.,.,.,.,.,.,.,.,.c c x c x ,.,.,.,.,.,.,.,.,.,.,.,.,.,.,.,.,.,.,.,.,.,.,.,.,.,.,.",
",.,.,.,.,.,.,.,.,.,.,.,.,.,.,.,.,.,.,.,.,.,.,.z z c B Y J B R Y B c x x ,.,.,.,.,.,.,.,.,.,.,.,.,.,.,.,.,.,.,.,.,.,.,.",
",.,.,.,.,.,.,.,.,.,.,.,.,.,.,.,.,.,.,.,.,.v v c M Y W ! I K ! Q W T M c v v ,.,.,.,.,.,.,.,.,.,.,.,.,.,.,.,.,.,.,.,.,.",
",.,.,.,.,.,.,.,.,.,.,.,.,.,.,.,.,.,.,.x v Y W W W !  .} U Y o.}  .! W E E Y v z ,.,.,.,.,.,.,.,.,.,.,.,.,.,.,.,.,.,.,.",
",.,.,.,.,.,.,.,.,.,.,.,.,.,.,.,.,.,.c v I ] ] ]  . .+.$.) ~ #.+.o. . .}  .Q Y v z ,.,.,.,.,.,.,.,.,.,.,.,.,.,.,.,.,.,.",
",.,.,.,.,.,.,.,.,.,.,.,.,.,.,.,.x v v J ] ] [ $.o...Y _ / m U Y Y | +.+.o. .} P m m z ,.,.,.,.,.,.,.,.,.,.,.,.,.,.,.,.",
",.,.,.,.,.,.,.,.,.,.,.,.,.,.,.c N I J U o.$.( Y Y U L K V v N L L Y Y Y R X.X.Y U ` B v x ,.,.,.,.,.,.,.,.,.,.,.,.,.,.",
",.,.,.,.,.,.,.,.,.,.,.,.,.v B P ] ] _ / / U Y I J J B B V N b B N J L U U U T / [ O.Q I J n ,.,.,.,.,.,.,.,.,.,.,.,.,.",
",.,.,.,.,.,.,.,.,.,.,.,.c K Q ! ] X.[ ^ N J J J V N N N B b b B N B B J J J B I ..X.] Q ! J c ,.,.,.,.,.,.,.,.,.,.,.,.",
",.,.,.,.,.,.,.,.,.,.,.x K ! ] o.o._ I J N v B N B B N v v c x b N N B B N b N J U ( X.$.] ! J v ,.,.,.,.,.,.,.,.,.,.,.",
",.,.,.,.,.,.,.,.,.,.x K Q ] X.[ _ J J V N m v m v v c h 0 0 0 h c c b m b m N V J J ( ] o.] ! J c z ,.,.,.,.,.,.,.,.,.",
",.,.,.,.,.,.,.,.,.c K Q ! X._ Y J J B v c x x z 0 1 1 = # # # % 1 ; ; z z c c b N V J U _ X.] ! P c ,.,.,.,.,.,.,.,.,.",
",.,.,.,.,.,.,.,.,.K Q ] o._ I B V B v f - - - = # # # # # 3 # # + # # : - - - q v N V V J _ o.] _ U x ,.,.,.,.,.,.,.,.",
",.,.,.,.,.,.,.,.c Y ] o._ U K B N c f # & & & & > 3 3 3 3 4 3 3 4 3 > # > # > # q v M B I U ( o.] R b z ,.,.,.,.,.,.,.",
",.,.,.,.,.,.,.z ~  .X.( I V B m g = # > 4 3 i 4 > 8 8 i 8 i i i r 8 > 8 r 4 4 > : * f v V V J ( o.] / z ,.,.,.,.,.,.,.",
",.,.,.,.,.,.v v b _ ) J P B b g = > 3 4 8 8 i 4 & 4 + + o + # X # 4 > 8 i 8 8 4 3 > : f b V J J T U N v v ,.,.,.,.,.,.",
",.,.,.,.,.v P W P m J I V b f : 4 4 > 4 8 8 # X o o X X X X X X . X X X # 8 8 4 3 4 4 % f b V U L b J W I v ,.,.,.,.,.",
",.,.,.,.,.V ! } X.J J J N g # > 8 4 # # X X X X X X X X X X X X X X X X . X o o # 4 8 > # f N J V K .. .! J ,.,.,.,.,.",
",.,.,.,.n K Q o.[ J m b l % > 4 8 & X X X X X X X X X X X X X X X X X X X . X X X # 8 4 > * l b m K ` o.! I N ,.,.,.,.",
",.,.,.,.B E Q X.( V N z * > 4 8 # X X X X X X X X X X X X X X X X X X X X X X X X X % 8 4 > * l N V R X.} ! V ,.,.,.,.",
",.,.,.,.B Y | | I J b f @ 4 8 : X X X X X X X X X X X X X X X X X X X X X X X X X X X % 8 4 @ f v V I ) o.! V ,.,.,.,.",
",.+.b z m P ' | J V c * @ 4 4 X # . X X X X X X X . X X X X . X X X X X X X X X X X X X 4 4 @ @ z N V ) o.! V z c O.,.",
",.%.) J v B ) | V N c * # > > o + . X X X X X X X X X X X X X X X X X X X X X X X X X X > > # * z N V [ o.R N V ) $.,.",
",.I [ ..V m ) | L V z : 4 4 > e + o X X X X X X X X X . X X X X X X X X X X . X X X X e 2 4 4 : z B K ' o.J V ..| I ,.",
",.c U [ ) v ) | K N x - 4 r @ : # + X X X X X X X X X X X X X X X X X X X X X X X O + , 2 r 8 = z B J [ | N / ] U v ,.",
",.v Y U U N Y ' B N z = < 4 o @ $ $ o X X X X . X X X X X X X X X X X X X X X X O $ t e 6 r < * z N B _ / N U U Y m ,.",
",.x b b m m N B n v z - 4 4 O O $ = + X X X X X X X X X X X X X X X X X X X X X + : A t 6 y 4 * z x c N B v M M N x ,.",
",.,.v K U T Y R T Y v = 2 8 o . . $ + X X X X X X X X X X X . X X X X X X X X X @ + t t 6 i 4 : z N B J U R E E Y ,.,.",
",.,.v K K V N N B B x = > 3 o @ $ $ O X X X X X X X X X X X X X X X X X X X X X X O A e 9 4 > * z v m N N V K K m ,.,.",
",.,.x x x c c c z x z = % > + e s .   X X X X X X X X X X X X X X X X X X X . X X t H e 6 4 # * z c x c c c c x x ,.,.",
",.,.,.,.b B N B v n x = # > o 4 A : O X X X X X X X X . X X X X X X X X X X X X : A H 2 5 7 # @ z m b N N V m ,.,.,.,.",
",.,.,.,.n J V B c n c * > > * S S 4 > o X X X X X X X X X X X X X X X X X X X X > A H e 2 7 > * z v v B V P N ,.,.,.,.",
",.,.,.,.M U J J n n c = & & % F S 2 1 # X X X X X . X X X X X X X X X X X X X # : u D 2 2 < > * z v v P Y ( C ,.,.,.,.",
",.,.,.,.N T U _ J N c = 4 > > F S 2 : o X X X X X X X X . X X X X X X X X X X o , 2 S 6 5 e 4 * x B N P Y X.~ ,.,.,.,.",
",.,.,.,.B Q T X.~ J c = 8 r : F S 1 > o X X X X X X X X X X X . X X X X X X X o 2 2 A e 6 p 8 : x J b U T +.~ ,.,.,.,.",
",.,.,.,.B ! E [ L m x = > 8 : F S 2 & + X X X X X X X X X X X X X X X X X X X # < 4 A e 2 y > @ z N M T E o.U ,.,.,.,.",
",.,.,.,.B ! Q o.~ v x = 3 8 > S e 2 : + X X X X X X X X X X X X X X X X X X o # 3 g F y , r 4 * z v B Q Q ] J ,.,.,.,.",
",.,.,.,.M E ] ] J n x = 3 8 > S 4 1 : # X X X X X X X X X X X X X X X X X X o : : A G D t y 4 * z m B ! ! ! V ,.,.,.,.",
",.,.,.,.m T E T V b x = > > : A 2 2 : + X X X X X X X X X X . X X X X X X X o % 2 6 A G u 7 > * z m B E E ! J ,.,.,.,.",
",.,.,.,.N T T T J v x - < < > S 2 2 > + X X X X . X X X X X X X X X X X X X X o > 4 e S s 7 3 * z M B E E ! J ,.,.,.,.",
",.,.,.,.N T W W B v x * 4 8 > S 4 1 1 + X X X X X X X X X X X X X X X X X X X X @ = 1 S a y 4 @ z M M E E ! V ,.,.,.,.",
",.,.,.,.m T ] W m N c - > 4 > S % o * . X X X X X X X X X . X X X X X X X X X X .   # A s 8 < = z N n T ! ! V ,.,.,.,.",
",.,.,.,.N T X.[ m J v * > > : S :   . . X X X X X X X X X X X X X X X X X X X X @ @ * 2 t 4 > @ x V M T ! ! V ,.,.,.,.",
",.,.,.,.m T o.[ m V v * 8 8 # e > X . X X X X X X X X X X X X . X X X X X X X o 4 f 2 2 t y 8 = x J M T ! ! V ,.,.,.,.",
",.,.,.,.m T o.[ N V v * 4 r @ 4 2 : X X X X X X X X X . X X X X X X X X X X X @ 3 S D e t p 4 = x J M Y ! ! V ,.,.,.,.",
",.,.,.,.N T  ._ N N c - 4 4 > D g 3 * X X X X X X X . X X X X X X X X X X X X @ 3 A H u t 8 4 @ z B M T ! ! V ,.,.,.,.",
",.,.,.,.m T T J b v x * 3 4 > F S > X X X X X X X X X X X X X X X X X X X X X X : A u < 9 y 4 = z m v J T ! V ,.,.,.,.",
",.,.,.,.N Q U J v N x - 4 r @ A S : . X X . X X X X X X X X X X X X X X X X X . @ , $ , t i 4 * z m b V P ! V ,.,.,.,.",
",.,.,.,.N T J B v B c * 4 4 o e S : X X X X X X X X X X X X X X X X X X X X X X % $ $ , 9 i 4 * z V b V K Y B ,.,.,.,.",
",.,.,.x b J B M c c z - 3 3 + t A < @ X X X X X X X X X X X X X . X X X X X . X @ : % 5 9 7 3 * z c x N B V N z ,.,.,.",
",.,.,.c v M v v c N N - 3 3 + 6 6 , @ . X X X X X X X X X X . X X X X X X X X X @ s s < 9 7 3 = m B b b n n v c x ,.,.",
",.,.,.N ` ] ] ` Y ( _ q > 3 + < $ @ @ X . X X X X X X X X X X X X X X X X X X X @ u u : 9 7 > : E ] ` ] ` ] ` ] B ,.,.",
",.,.,.V +.#.$.#.+.#...q # > O , % O @ X X X X X X X X X X X X X X X X X X X X X : @ O : 9 7 & 1 [ +.+.#.#.o.@.X.V ,.,.",
",.,.,.b V I Y P V K V - # > + < $ $ $ X X X X X X X X X X X X X X X X X X X X X $ $ = 5 t < # $ v B V K Z K V B x ,.,.",
",.K O.V V B N B B V N - & > O % $ @ * X X X X X X X X X X X X X X X X X X X X . @ , 5 % 6 4 & = m B V B B V B V L ,.,.",
",.X.%.o.o... .X.X.o.} w 4 8 + % $ $ O X X X X X X X X X X X X X . X X X X X X .   $ = $ 6 u 4 1 ! $.o. .o.o.o.o.%.X.,.",
"! _ ( } } ..o.@.o.o.| w 4 8 O $ $ $ O X X X X X X X . X X X X X X X X X X X X X . O $ $ 9 u 4 1 ( ] o.$.o.o. ...) Q ! ",
"o.E n I Y E ! E R R Y ; 4 8 + + : $ O X X X X X X X X X X X . X X X X X X X X X O $ 9 5 6 i 4 = J U T W Y T U Y N R o.",
"*.W n I Y R R U I K M ; 4 8 @ , : % O X . X X X X X X X X X X X X X X X X X X X . O a 5 6 i 4 : M J U Y U U U U m R %.",
"%.W m I I I I K V B m - & 3 % 6 $ $ O X X X X X X X X X X X X X X X X X X X X X X @ 5 a a e > * v B V J I I I I M E %.",
"*.W n m n B n n v n c = % > @ 6 $ $ @ X X X X X X X X X X X X X X X X X X X X X X @ = a t 4 # @ c v v v v N M M v E %.",
"=.$._ E E W E E E E R - % < # 6 $ @ + X X X X X X X X X X X X X X X X X X X X . O O O 2 7 < % 1 Y W W W W ( W E W #.=.",
"#.%.$.$.$.$.%.$.%.#.O.q # & + + o X X X X X X X X X X X X X X X X . X X X X X X X X X $ 5 4 # 1 | $.$.$.$.$.#.$.+.%.#.",
"m E ! ] ] ] ! ] Q T U 1 # # @ : X X X X X X X X X X . X X X X X . X X X X X X X X X X o * : # * P E Q ] ] ! W T T T B ",
"c U Q ! ! ! Q T U I J ; # + X X X X X X . . . . . . . . . . X . . . . X X X X X X X X X X o # * J U U T Q W Q ! T U c ",
"c P Y E W E R Y P V J ; * - - - - - - - - - - - - - - - - - 1 * - - - - * * - * - ; - - - ; - - B V L U T T T W Y J c ",
"c I U K K K K K V B M k c v M m v v c c c c c c b v c c c c c v c c c c v v v x c c c v c v x k N B V J J K L J U I c ",
"x B B b v v v b v v v c B J T Y J J J v n B J K T J J J J J J J J J J J C C m v V J J J J V M c v v v v b b b b N B c ",
"x c v n B B B B B M B B J E Q Q W T E J N J Y W Q T T T T E E E T W T W T I V N J Y T T Y J J B b m B B V N N V B N c ",
"x B K U E W E W W W W T W ! Q ! ! ! ! I V T ! X.$.$.$.$. .Q ..$.$.o.$.o.] R I V Y E ! ! Q T T Y P K U I U U U Y U I b ",
"c J Y o.$.o.$.$. .! X.$.$.$.$.#.$. .! I Y Q ] %.*.*.=.=.*.$.%.=.=.=.=.=.$.X.Y V Y  .$.$.$.$.$.o...Q W W W W W E Y P v ",
"c I ] =.=.=.=.;.;.%.=.;.-.=.=.=.=.*. .I Y ] o.=.*.*.=.=.=.=.=.=.=.:.>.>.>.=...Y } %.=.=.=.:.-.=.:.;.;.&.$.$.$. .Q E b ",
"b E ] %.%.%.%.=.=.=.%.=.%.%.=.%.%.%.X.Y E Q ] ] ] ]  .%.%.%.*.*.%.%.=.=.=.%.X.T ] ] ] [ #.=.;.=.=.=.&.=.%.=.%.$.$.X.N ",
"P Y Y R R ( R ( R R ( / ( R R ( E E Y U Y Y Y Y Y Y T E T ( E E ( / T T / / Y Y Y Y Y Y T ( ( ( / ( ^ / / T ( T T / I "
};
