/* XPM */
static char *result[] = {
/* columns rows colors chars-per-pixel */
"59 75 144 2 ",
"   c #080C06",
".  c #0B0F09",
"X  c #0D110B",
"o  c #11140F",
"O  c #131512",
"+  c #1B1715",
"@  c #161A16",
"#  c #191B17",
"$  c #1B1D1A",
"%  c #221E1B",
"&  c #1E221D",
"*  c #22221E",
"=  c #28231F",
"-  c #1C1F21",
";  c #1D2125",
":  c #1E252C",
">  c #1F282F",
",  c #1F2A33",
"<  c #222521",
"1  c #2B2522",
"2  c #252A24",
"3  c #2B2B26",
"4  c #21272E",
"5  c #2A2E2A",
"6  c #312A27",
"7  c #342D2A",
"8  c #2C322B",
"9  c #34322E",
"0  c #38312E",
"q  c #31392F",
"w  c #222C34",
"e  c #23303B",
"r  c #343533",
"t  c #3B3431",
"y  c #343C33",
"u  c #383A37",
"i  c #3B3C3A",
"p  c #374235",
"a  c #394236",
"s  c #3D443B",
"d  c #3E4A3C",
"f  c #40453F",
"g  c #414D3E",
"h  c #42503F",
"j  c #243543",
"k  c #253748",
"l  c #273B4D",
"z  c #283E4F",
"x  c #263C51",
"c  c #283D50",
"v  c #2C455D",
"b  c #2D4760",
"n  c #2E4A64",
"m  c #2F4E69",
"M  c #304F6A",
"N  c #2F506C",
"B  c #30516D",
"V  c #325573",
"C  c #335877",
"Z  c #345B7B",
"A  c #385F7F",
"S  c #39607F",
"D  c #434443",
"F  c #454C43",
"G  c #484E47",
"H  c #4B4C4B",
"J  c #445242",
"K  c #485846",
"L  c #4E514E",
"P  c #50554E",
"I  c #545554",
"U  c #565955",
"Y  c #585957",
"T  c #5B5B5B",
"R  c #605F5F",
"E  c #5E625D",
"W  c #616E5F",
"Q  c #636463",
"!  c #666966",
"~  c #6B6B6B",
"^  c #6C786A",
"/  c #70706F",
"(  c #727372",
")  c #777877",
"_  c #7C7C7C",
"`  c #365F80",
"'  c #376285",
"]  c #3B6485",
"[  c #376489",
"{  c #38668B",
"}  c #37688E",
"|  c #39698E",
" . c #3A6C94",
".. c #3B6F98",
"X. c #3E7097",
"o. c #3D729C",
"O. c #3D76A1",
"+. c #3E79A6",
"@. c #3E7AA8",
"#. c #406D8E",
"$. c #416F91",
"%. c #437296",
"&. c #42759C",
"*. c #45799F",
"=. c #4377A0",
"-. c #457BA4",
";. c #487EA5",
":. c #427DAA",
">. c #487FA9",
",. c #4380AE",
"<. c #4A82AC",
"1. c #4684B2",
"2. c #4A86B2",
"3. c #4C89B5",
"4. c #4D8CBA",
"5. c #508BB5",
"6. c #518EBA",
"7. c #4F90BE",
"8. c #5291BE",
"9. c #5394C2",
"0. c #5798C6",
"q. c #599AC7",
"w. c #5799C8",
"e. c #5B9DCB",
"r. c #5DA1CE",
"t. c #62A1CA",
"y. c #64A6D1",
"u. c #68A9D2",
"i. c #848484",
"p. c #878888",
"a. c #8A8B8B",
"s. c #949494",
"d. c #9C9C9C",
"f. c #A3A3A3",
"g. c #ADADAD",
"h. c #B2B2B2",
"j. c #BCBCBC",
"k. c gray77",
"l. c #CBCBCB",
"z. c #D2D2D2",
"x. c #DBDBDB",
"c. c #E2E2E2",
"v. c gray92",
"b. c None",
/* pixels */
"b.b.b.b.b.b.b.b.b.b.b.b.b.b.b.b.b.b.b.b.b.b.b.b.b.b.b.b.b.b.b.b.b.b.b.b.b.b.b.b.b.b.b.b.b.b.b.b.b.b.b.b.b.b.b.b.b.b.b.",
"b.b.b.b.b.b.b.b.b.b.b.b.b.b.b.b.b.b.b.b.b.b.b.b.b.b.b.n b b n n b.b.b.b.b.b.b.b.b.b.b.b.b.b.b.b.b.b.b.b.b.b.b.b.b.b.b.",
"b.b.b.b.b.b.b.b.b.b.b.b.b.b.b.b.b.b.b.b.b.b.b.v b n Z ..Z Z .. .C n v v b.b.b.b.b.b.b.b.b.b.b.b.b.b.b.b.b.b.b.b.b.b.b.",
"b.b.b.b.b.b.b.b.b.b.b.b.b.b.b.b.b.b.b.b.b.M m n B  .O.@.' [ :.:.O. .N m m m b.b.b.b.b.b.b.b.b.b.b.b.b.b.b.b.b.b.b.b.b.",
"b.b.b.b.b.b.b.b.b.b.b.b.b.b.b.b.b.b.b.v m  .O.O.O.@.:.1.[ %.4.:.1.@.O.o.o.} m v b.b.b.b.b.b.b.b.b.b.b.b.b.b.b.b.b.b.b.",
"b.b.b.b.b.b.b.b.b.b.b.b.b.b.b.b.b.b.v m  .:.:.:.1.1.6.9.&.$.8.6.4.1.:.1.1.+.{ m v b.b.b.b.b.b.b.b.b.b.b.b.b.b.b.b.b.b.",
"b.b.b.b.b.b.b.b.b.b.b.b.b.b.b.b.v m M { :.1.4.6.4.2. .;.#.V |  ...2.5.6.4.1.1.' B B v b.b.b.b.b.b.b.b.b.b.b.b.b.b.b.b.",
"b.b.b.b.b.b.b.b.b.b.b.b.b.b.v m C } Z  .4.4...|  .| ' [ Z n C ' ' |  . .X.3.4.} $.&.V m b.b.b.b.b.b.b.b.b.b.b.b.b.b.b.",
"b.b.b.b.b.b.b.b.b.b.b.b.b.m Z { @.:.=.%.$.| | | ' Z C C C V B V C ` ' | | | ..%.<.4.+.` Z m b.b.b.b.b.b.b.b.b.b.b.b.b.",
"b.b.b.b.b.b.b.b.b.b.b.b.n ' +.@.:.3.3.{ C ` ` ` C V C V C m B V C C C ` ` ` C | <.5.:.@.@.` b b.b.b.b.b.b.b.b.b.b.b.b.",
"b.b.b.b.b.b.b.b.b.b.b.n [ @.:.4.3.&.| ` V M V V C C V M M n n m V C C C V M V [ { =.4.4.:.@.` n b.b.b.b.b.b.b.b.b.b.b.",
"b.b.b.b.b.b.b.b.b.v n [ @.:.3.<.=.` ` C V B M V M n n l , , w z n m n V M M C C ` [ =.>.4.:.@.` n b.b.b.b.b.b.b.b.b.b.",
"b.b.b.b.b.b.b.b.b.n [ @.@.4.o.| ` ` V M n n b v w : : ; % % + < 4 4 w v v n n M C C [ | =.4.:.+.' n b.b.b.b.b.b.b.b.b.",
"b.b.b.b.b.b.b.b.n [ +.:.4.=.[ Z C V M j ; ; 4 ; % % % % = 6 = % % % % 4 : ; ; j M C C Z [ =.4.:.O.' b.b.b.b.b.b.b.b.b.",
"b.b.b.b.b.b.b.v M ..:.4.&.| ' C V n j % 1 % 1 % 3 6 7 6 0 0 6 6 6 6 6 % 1 % 1 % j m V C ` | =.4.,. .m b.b.b.b.b.b.b.b.",
"b.b.b.b.b.b.b.v %.,.3.&.[ Z C M j ; % 1 7 7 t 7 1 0 t t t t t 0 0 7 1 7 t 7 7 1 * - k M Z Z { &.3.:.#.v b.b.b.b.b.b.b.",
"b.b.b.b.b.b.M m B ;.&.` ` C M k % 1 6 7 0 7 t 0 = 6 & & * % & * * 6 = 0 t 0 0 7 6 1 % k M C ` `  .| M M m b.b.b.b.b.b.",
"b.b.b.b.b.B { O.' M ' { Z M k % 0 7 6 7 0 0 % % & * q 8 h q 2 q q = % $ = 0 0 0 1 7 0 % k B ` | ' B ] O.{ m b.b.b.b.b.",
"b.b.b.b.b.` @.,.3.` Z [ V j % 3 0 7 % + + % u y q 8 8 p h 8 * q 8 a p y y * # + % 7 0 1 - k V ` C ' 3.:.+.Z b.b.b.b.b.",
"b.b.b.b.N { +.4.-.` V M l % 1 7 0 % + $ 8 f I F 8 * X X & @ o O @ y r F U F 8 @ + 1 0 7 1 - c V V ' :.4.@.{ N b.b.b.b.",
"b.b.b.b.Z o.=.3.&.Z V x $ 1 7 0 < # < 8 L _ E a @ @ @ & @ @ O @ @ O @ s Q ) H 5 % # = 0 7 1 - c C C &.3.,.@.Z b.b.b.b.",
"b.b.b.b.Z ..2.:.| Z m e $ 7 0 = # 2 H R ( ( s # & & & & & & & & & # O @ D ( ( E G 2 # = 0 7 $ j M A ' -.4.+.Z b.b.b.b.",
"b.5.n v V [ >.;.` C v - % 7 6 + 3 y ! i.( T $ # & & & & 2 & & & 2 2 $ o - R ( i.W y 4 + 6 7 - - b C ` ;.4.+.V v M 6.b.",
"b.9.=.Z M C ;.;.Z V v - % 3 = * y D ! ( D 8 & & 2 2 2 & ; & & * ; 2 & # $ 7 H ( R s 9 $ 1 3 % - b C Z <.4...N ` *.9.b.",
"b.#.;.2.Z M ;.:.] C v ; 7 7 * 5 y F T D # O O $ < 2 * & 2 & # ; & & & & X X # v E g 9 $ $ 0 7 < n C [ >.4.` ` 3.<.] b.",
"b.M  .>.&.m ;.;.` V v ; 0 0 $ r y 8 < @ + 5 $ - ; 2 2 2 2 & & 2 2 & & & & 5 + + 2 q q 8 $ 0 7 4 b V ` <.;.B &.:.{ m b.",
"b.B  .| | V %.*.V V v $ 7 3 < y 8 $ # @ I L - @ & 2 2 < 2 & $ < 2 & & @ % I G o @ 8 q p * 6 6 ; b V Z -.$.V  .|  .M b.",
"b.b m M B m V V B M v - 7 t < y 5 $ $ $ ! _ i @ 2 2 2 & 2 & $ < 2 2 * & D _ W + # 3 p p * 0 6 ; v n n V V m B B V n b.",
"b.b.m '  ......... .b - 7 7 < y 8 ; @ i ~ ~ 2 * X # 2 2 8 & & 2 < @ O * 3 / ~ u @ * h d & 0 6 ; v V C ' | X.o.o...b.b.",
"b.b.m ` ' Z V V V V v - 6 3 < J d & @ u Q 5 r ) & X X @ 2 # & @ . . 2 ) 0 8 R r # * d d & 6 1 ; v V B V C Z [ ` M b.b.",
"b.b.b n n n n n b n v $ % 1 < F d & O @ r $ ) s.I & X X . X X X @ $ I s./ < 9 O o * q f * 1 = ; v n n n n n n n b b.b.",
"b.b.b.b.m V C C m B v $ = 1 * s p # 5 2 O 2 ! d.d.( U 8 y r # r Y / d.s.R < . ; 6 + h v % 3 % ; v B m V V C m b.b.b.b.",
"b.b.b.b.M ` Z V n V v - = 3 < y 8 @ Q ( < r ~ s.j.k.h.d.h.) D d.h.k.f.i.Y 5 4 _ T @ J g $ 3 1 - b B m Z Z [ V b.b.b.b.",
"b.b.b.b.V | [ ` M M v - 1 = < y 8 + P s.! % I _ d.j.z.x.v.) / l.l.j.s./ R 5 s.g.H @ J d $ 1 1 ; b B m [  .&.Z b.b.b.b.",
"b.b.b.b.C ..| =.Z C b - 7 3 < d y $ 4 / d.~ ) p.s.f.l.z.c.) ( l.l.d.p._ a._ h.) < @ h g % 7 6 ; b C V | ..3.] b.b.b.b.",
"b.b.b.b.Z O. .3.#.Z b - 0 0 < g d & @ 9 _ d.s.p.i.a.g.z.x.) Q g.f.a.p.a.s.d.( 3 @ $ p a < t 7 ; m Z V } ..6.#.b.b.b.b.",
"b.b.b.b.Z @...3.` B v - 1 0 < J d & & O L i.p.a.p.p.a.d.j./ T a.p.p.p.p.p.i.D @ $ 2 y 8 - t 3 - b V C ....9.' b.b.b.b.",
"b.b.b.b.Z @.@.4.] M v - 6 0 < g ! F & O $ Y i.s.s.p.p.i.g.~ I a.p.a.s.s.a.! $ + & H L 8 3 t 6 ; b m C +.@.@.` b.b.b.b.",
"b.b.b.b.V O.+.:.Z B v - 7 0 * g ^ I & o + T s.f.d.d.a.a.g.~ Y a.a.d.f.d.s.T O @ < Y Y 5 - t 6 - b m Z @.@.@.C b.b.b.b.",
"b.b.b.b.V ....O.C M v % = 3 * h E ! p X i R a.d.f.j.k.h.g.~ Y d.j.l.j.f.a.T r o D ! G 8 $ 3 = - b B Z O.o.@.C b.b.b.b.",
"b.b.b.b.V ....O.Z N v - 6 3 ; h P U r . D T ! i.p.a.f.k.l.~ Q j.j.g.s.i.Q R i   t Y D 8 $ 7 3 4 n B Z o.o.@.C b.b.b.b.",
"b.b.b.b.V o.o...V B v - 7 0 * F d y 9 @ T ! L u 6 6 H i.g.Q R d.H 3 5 r L ~ I + r s r 8 $ t 6 - b m C o.O.@.Z b.b.b.b.",
"b.b.b.b.B o.:.O.N V v - 6 7 % J p 8 5 i ~ a.Y 5 X . X 6 _ I D 0 . . O 5 W p.~ y 5 8 8 a < 7 3 ; b V B ..@.@.C b.b.b.b.",
"b.b.b.b.V o.4.-.N ` b - 3 1 < s q & $ s ~ s.s.I +   + D _ I i D +   O R f.s.~ t & & d d $ 1 6 ; m Z V ..@.@.C b.b.b.b.",
"b.b.b.b.V ..9.-.B ` b ; 0 t < y 2 & $ D / p.d.s.I f R ( s.R I _ I H / h.j.i.~ f $ & d d ; t 0 ; n Z B o.+.@.C b.b.b.b.",
"b.b.b.b.B o.4.-.B ` b - 7 0 < d q & < 5 Y / i.i.a.a._ i.k./ R %.%.a.d.f.s./ U = 2 & d d * t 9 ; m Z B o.@.@.C b.b.b.b.",
"b.b.b.b.V ..1.o.B V b $ 7 6 * h p & 5 # D Q ~ / / Q ) f.h.H Q s._ ! / / / R t + 8 & d d & 6 6 ; n C V ..@.@.C b.b.b.b.",
"b.b.b.b.V o...` M B v ; 6 0 ; J p $ 5 $ - 5 I Q R ~ i._ Y t 5 i.i.~ R R I 6 = % 5 & q p & 0 6 ; b B m ` ..:.C b.b.b.b.",
"b.b.b.b.C +.{ Z m V v - 7 t ; g p & 2 2 & o 2 J p ~ <.W t t O / _ ! y F 2 o & 8 5 & 2 y - t 7 ; b B B ` | +.Z b.b.b.b.",
"b.b.b.b.V  .` Z m C b - 7 t * y 8 & 2 < 2 2 o @ & ~ i._ I t u i._ ! $ & o & 8 & & $ 8 y < 0 7 ; n C m C '  .V b.b.b.b.",
"b.b.b.v V ` V V n n v - 6 3 $ 9 2 & 8 & 2 2 o . 6 ~ / ( _ L H ) ) ! 2 . @ 8 2 2 5 & 5 y $ 7 7 - b n n V V ` N v b.b.b.",
"b.b.b.n m B m m m V N ; 6 1 & 8 < & 8 8 p 2 2 < ~ ~ ( / i.I H / ( ~ W & 2 8 8 8 5 & 8 u % 3 6 4 V C m m N N N m n b.b.",
"b.b.b.C :.:.:.:. .*.O.; 6 1 * q 2 & & 8 8 2 2 & P f i.R i.I H ! i.u I * 8 2 2 8 & @ d d $ 3 6 w +.@.:.:.-.@.:.=.V b.b.",
"b.b.b.S 6.8.9.6.5.8.<.: = 1 $ s p @ & < & 2 2 @ + 6 / W _ I f / / < X @ 2 & ; 2 2 & p d % 3 % w <.4.8.4.6.8.8.3.V b.b.",
"b.b.#.M A [  .' ` ` C ; % 1 $ a p @ 2 2 8 8 8 2 + + W i._ I f a.U O @ 3 8 5 2 2 2 & 5 p $ 1 * ; N V ` ` Z ' Z V v b.b.",
"b.] 2.Z Z V V Z Z Z B - 1 1 & q < & & & < 2 8 8 % t i.~ a.I H / p.8 2 2 5 2 2 & & # 5 q * 1 = 4 V Z Z C Z Z Z Z ] b.b.",
"b.4.9.4.4.2.1.4.4.4.;.4 7 0 < s q @ & & & & 2 & = v ~ 2 W d q 2 ( r & & 2 & & & & # 2 y ; 0 6 e ,.4.3.4.1.4.4.4.w.3.b.",
"@.+.&.<.<.2.4.4.4.4.:., 7 0 < J p @ & & @ & & & + 8 s # a p & & v 3 & & & o & & & @ p a & t 6 w -.1.4.4.4.4.2.3.&.+.@.",
"4...B {  .O.@.o.....{ ; 9 0 & J p @ & q p 2 * 2 = * O & K p 2 & + = 2 2 2 d 8 @ & @ d g * t 6 w '  .O.O..... .} V o.4.",
"w.X.N | } ....} { ` V ; 6 0 & F p o 8 h p * 2 & * & & & J q 2 & + = * 2 2 p d 8 @ # d d & t 6 4 V ` }  .{  .} { B O.w.",
"9.X.B { { { { ' Z C m ; 1 3 $ y 8 8 h p 2 & & & * 2 # & h p 2 2 @ 2 & & & 2 p d J 5 d d % 6 2 ; B Z C ' | { { { N O.0.",
"w.O.m B V N N N m M v ; = 1 & 9 d h p 8 & & 2 & 2 p & 2 h p 2 2 # d 2 & & & 8 p d y p q $ 3 % ; n m m m N V B B N =.0.",
"e.9.+.o.O.*.O.o.o.=. .; % 1 & 8 p p p & o 2 2 2 2 8 h d h p 2 d K 2 o 2 2 & & p y y y 9 $ 3 = 4  .O.o.O.O.o.O.o.-.9.e.",
"6.0.9.9.9.9.9.9.9.9.<.4 % 1 $ 8 8 p 2 @ & & & & & 2 p p K p 2 p p 2 & & & & & 2 r y y 5 $ 1 % e 5.9.9.9.9.9.8.8.9.9.8.",
"V O.:.:.:.:.:.@.+...[ ; % % $ 5 8 8 g s d K K K K d 8 5 d p & 8 y J K J y K K d y 8 8 8 $ % % w | ..=.:.:.:.O.....O.B ",
"n  .O.@.@.@.+...| { ` ; % $ $ < 2 2 2 2 2 5 5 2 5 2 2 2 p 8 $ 2 2 2 2 8 2 2 5 2 2 2 2 2 # # $ : ' [  . .+.O.+.+. .} n ",
"n [ ..O.O.O. .| [ Z C : ; : : : : : : : : : : : > : > > > > : > : : : w w : : ; : > : : : : : , C Z [  .......O. .` n ",
"m [ [ ' ` ' [ ` Z C V x b M V M n m n n n n m n N m n n n n n n n m m n m m n n m n n n n m b x V C Z ' [ ` [ ` | [ n ",
"b V V M M M M M m m m b V [ ..| ` ` ` m B Z A '  .` ` ` ' A ` ` ` ' ` ` ' Z B m Z ' ' Z ' C V b m M M m M M M M V C b ",
"b m m V C C C C C V C C ` o.@.+.o.o.o.Z V ` ..O.+.o.o.o.o.o.o.o.o.o.o.o...| C V [  .o.o.| ' S C M B C C C C C C C C b ",
"n C ` | O.o.O.O.O.O.o.O.+.@.@.@.@.@.@.[ A ..@.4.4.9.4.7.1.@.1.9.7.4.4.4.+.X.' ` } o.@.@.O.o.o.| ' [ | | | | | | | [ m ",
"n [ ..3.9.9.9.6.1.@.4.4.9.9.9.6.9.1.@.[ } @.,.w.r.w.r.r.w.9.w.w.r.e.e.e.9.4. .Z ..1.7.8.8.9.7.4.3.O.O.O.O.o.O.O. .[ b ",
"m  .:.e.e.e.e.y.t.0.e.y.e.e.e.e.r.0.1.[ o.@.7.q.w.w.r.w.r.r.w.r.e.y.u.u.y.e.<. .,.0.e.q.r.y.r.r.y.t.t.q.9.9.9.2.+...M ",
"m ..1.w.0.0.w.q.e.q.0.q.0.0.e.0.0.0.2. .o.+.,.,.,.,.1.0.0.0.0.0.q.e.e.q.q.q.3.X.:.,.,.,.8.q.t.q.e.e.q.q.0.w.w.9.6.3.V ",
"[  . .....&.%.&.$.&.&. .X.&.&.o.X.X...}  . . .}  . . .o.o.X.o.o.X.X.%.X.&.&. .|  . . . .X.&.&.&.%...%.%.&.....&.%.%.' "
};
