/* XPM */
static char *result[] = {
/* columns rows colors chars-per-pixel */
"59 75 134 2 ",
"   c #090D07",
".  c #0B0F09",
"X  c #0E110B",
"o  c #14120F",
"O  c #151210",
"+  c #191614",
"@  c #161915",
"#  c #1A1A16",
"$  c #1C1D1A",
"%  c #211D1A",
"&  c #1E221D",
"*  c #22221E",
"=  c #28231F",
"-  c #1E1F20",
";  c #1E2123",
":  c #1D242B",
">  c #1F282F",
",  c #1F2932",
"<  c #222522",
"1  c #2B2522",
"2  c #252A24",
"3  c #2C2A26",
"4  c #2B2D2A",
"5  c #312A27",
"6  c #342D2A",
"7  c #2A3027",
"8  c #2C322B",
"9  c #2F392E",
"0  c #33332E",
"q  c #39312D",
"w  c #30392F",
"e  c #202C35",
"r  c #212F3B",
"t  c #22303D",
"y  c #333432",
"u  c #3D3532",
"i  c #333B32",
"p  c #393937",
"a  c #3C3B3A",
"s  c #364134",
"d  c #394337",
"f  c #3B4439",
"g  c #3D493B",
"h  c #40453E",
"j  c #414F3F",
"k  c #42503F",
"l  c #263643",
"z  c #273846",
"x  c #253748",
"c  c #263A4C",
"v  c #283C4E",
"b  c #273E52",
"n  c #283F54",
"m  c #294155",
"M  c #2C465E",
"N  c #2D4760",
"B  c #2E4B64",
"V  c #2F4E69",
"C  c #304F6A",
"Z  c #2F506C",
"A  c #31516E",
"S  c #325573",
"D  c #335877",
"F  c #345B7B",
"G  c #385D7A",
"H  c #444543",
"J  c #454C44",
"K  c #4B4C4B",
"L  c #445341",
"P  c #485946",
"I  c #4E524E",
"U  c #4A5A48",
"Y  c #545454",
"T  c #555B55",
"R  c #5B5B5B",
"E  c #4F614C",
"W  c #5E605D",
"Q  c #5D685B",
"!  c #646464",
"~  c #666A65",
"^  c #686A67",
"/  c #6C6C6C",
"(  c #6F706F",
")  c #6F7A6E",
"_  c #737373",
"`  c #777977",
"'  c #7A7A7A",
"]  c #365F80",
"[  c #366185",
"{  c #3A6484",
"}  c #376489",
"|  c #38668B",
" . c #39698E",
".. c #3A6C93",
"X. c #3B6F98",
"o. c #3E7097",
"O. c #3D729C",
"+. c #3D76A2",
"@. c #3E79A6",
"#. c #3E7AA9",
"$. c #427195",
"%. c #42759C",
"&. c #46799E",
"*. c #437AA4",
"=. c #487DA4",
"-. c #427DAA",
";. c #4380AE",
":. c #4A83AC",
">. c #4583B1",
",. c #4A86B2",
"<. c #4C89B5",
"1. c #4D8CBA",
"2. c #508CB7",
"3. c #508EBA",
"4. c #4F90BE",
"5. c #5191BE",
"6. c #5394C2",
"7. c #5798C6",
"8. c #599AC6",
"9. c #5799C8",
"0. c #5A9DCB",
"q. c #5FA2CE",
"w. c #61A1CB",
"e. c #64A6D1",
"r. c #68A9D2",
"t. c #848484",
"y. c #8A8A8A",
"u. c #939393",
"i. c #9B9B9B",
"p. c #A4A4A4",
"a. c #AFAFAF",
"s. c #B1B1B1",
"d. c #C0C0C0",
"f. c None",
/* pixels */
"f.f.f.f.f.f.f.f.f.f.f.f.f.f.f.f.f.f.f.f.f.f.f.f.f.f.f.f.f.f.f.f.f.f.f.f.f.f.f.f.f.f.f.f.f.f.f.f.f.f.f.f.f.f.f.f.f.f.f.",
"f.f.f.f.f.f.f.f.f.f.f.f.f.f.f.f.f.f.f.f.f.f.f.f.f.f.f.B N N B B f.f.f.f.f.f.f.f.f.f.f.f.f.f.f.f.f.f.f.f.f.f.f.f.f.f.f.",
"f.f.f.f.f.f.f.f.f.f.f.f.f.f.f.f.f.f.f.f.f.f.f.M M B F X.D [ X...A B N N f.f.f.f.f.f.f.f.f.f.f.f.f.f.f.f.f.f.f.f.f.f.f.",
"f.f.f.f.f.f.f.f.f.f.f.f.f.f.f.f.f.f.f.f.f.V V B S O.+.#.F ..#.*.O. .Z B V V f.f.f.f.f.f.f.f.f.f.f.f.f.f.f.f.f.f.f.f.f.",
"f.f.f.f.f.f.f.f.f.f.f.f.f.f.f.f.f.f.f.N A X.+.%.+.#.;.;.G =.<.;.;.@.+.O.O. .N M f.f.f.f.f.f.f.f.f.f.f.f.f.f.f.f.f.f.f.",
"f.f.f.f.f.f.f.f.f.f.f.f.f.f.f.f.f.f.N S X.-.-.-.>.<.3.6.$.&.5.5.1.>.>.>.;.@.[ B M f.f.f.f.f.f.f.f.f.f.f.f.f.f.f.f.f.f.",
"f.f.f.f.f.f.f.f.f.f.f.f.f.f.f.f.M V B X.-.1.1.1.1.;. .:.[ D  . .O.<.1.2.1.>.#.] S C f.f.f.f.f.f.f.f.f.f.f.f.f.f.f.f.f.",
"f.f.f.f.f.f.f.f.f.f.f.f.f.f.M V D ..D %.6.-.$..... .[ } D B F } }  .....%.<.<.| &...S B f.f.f.f.f.f.f.f.f.f.f.f.f.f.f.",
"f.f.f.f.f.f.f.f.f.f.f.f.f.A F  .-.-.*.*.$. . .| ] ] S D ] C A S D [ [  . ...$.$.<.,.+.[ D f.f.f.f.f.f.f.f.f.f.f.f.f.f.",
"f.f.f.f.f.f.f.f.f.f.f.M B  .#.#.-.<.=.] D ] ] ] D S D S S V A D S D D [ [ F S $.,.<.-.#.+.] N f.f.f.f.f.f.f.f.f.f.f.f.",
"f.f.f.f.f.f.f.f.f.f.M V  .@.>.1.-.%. .] A C S S D D S C C N B C S D S D A C D | | *.1.1.#.+.] N f.f.f.f.f.f.f.f.f.f.f.",
"f.f.f.f.f.f.f.f.f.M B  .@.>.<.-.%.] ] D S C A S V V N x e e e n B B A A C A D D G } *.-.1.#.+.F M f.f.f.f.f.f.f.f.f.f.",
"f.f.f.f.f.f.f.f.f.V  .@.>.,.%.| ] F D V N B N n e : : - % % % = e < r M M B B A D F | ..*.<.-.+.F N f.f.f.f.f.f.f.f.f.",
"f.f.f.f.f.f.f.f.B  .@.>.<.O.[ F D S B e : ; e = % % % % = 5 % % % % % : : : : x A D F F  .*.1.-.+.[ f.f.f.f.f.f.f.f.f.",
"f.f.f.f.f.f.f.N V +.>.<.O. .[ S A N e % 1 = 1 % 1 5 6 6 6 q 6 5 5 5 1 = 1 = = % x V S D [ ..*.<.-.| B f.f.f.f.f.f.f.f.",
"f.f.f.f.f.f.M N &.>.<.$.[ F D B l ; * 1 6 6 u 6 1 q u u u u u u u 6 1 q u 5 5 1 < ; b A D F  .*.<.;.{ M f.f.f.f.f.f.f.",
"f.f.f.f.f.f.V V S =.$.] ] D B r * 1 5 q q u u 5 = 5 % + + % % O % 5 = q q q q q 1 1 = v A D | ] O.[ A C f.f.f.f.f.f.f.",
"f.f.f.f.f.A ..+.] C | } D C r 1 q 6 1 q q 5 $ + + + o o o o o O O + + + = q q 6 1 q 5 ; b A ] ..F A  .+.[ f.f.f.f.f.f.",
"f.f.f.f.M } #.>.,.D ] ] C r % 1 q 5 % + O O O O O O O o o o o o O O o O o o $ % 1 6 6 1 - b F ] D  .,.-.+.D f.f.f.f.f.",
"f.f.f.f.A  .#.5.%.] C C l % 3 q q 1 % 6 4 + O O o O O O o o O O O o o o $ 3 a y # 1 q 6 = ; n V S | :.1.+.} f.f.f.f.f.",
"f.f.f.f.[ X.-.,...F S b $ 1 6 q 1 8 I ` J # # + O O O O O O O O o O + O & L _ T < < 3 q 6 = - B S G *.,.-.*.S f.f.f.f.",
"f.f.f.f.] X.<.*.| D B e % q q < 2 I _ ( < + ; $ + O O O O o O o O + & * @ ; Y ^ R f $ 1 q 5 - c A ] | :.1.+.A f.f.f.f.",
"f.:.M M D } :.*.] D n $ % q 1 * i ~ _ R < & & & % % O O O O O O O + 2 2 & O y ( t.I < $ 6 5 $ : B D ] :.>.@.A N S f.f.",
"f.5.%.D A F :.%.F S n % % 3 = 2 J ! J 8 ; 2 2 & % % O O O O O o O @ * < ; + * Y _ R y + 1 1 % : C S [ ,.<. .V [ =.8.f.",
"f.$.:.=.S A :.*.[ D b < q 5 < 9 J m + O & ; * & & $ o o O O O O o O & & & @ X ; K R i $ - q 5 > C G | :.,.D | <.*.{ f.",
"f.A ..:.$.A :.&.F D n - u 6 < p 4 # + 6 < & 2 7 2 $ o o O O O O O @ 2 2 & & < 2 $ 4 w 2 $ p 5 : N D } ,.%.A -.*.| N f.",
"f.S ....| A *.$.D S n - 6 3 < 7 & + Y I & & 2 & * $ o o O O O o O @ ; & & O 8 4 o $ 9 i - q 1 : B S F :.{ D .. . .B f.",
"f.B C C A A S S C C b - 0 6 < 7 & * ^ ` 2 & 2 & & $ o O o O o O O O ; 7 & $ R K O $ i i - u 1 < M B C S A A A Z S N f.",
"f.f.S } ..X.X.X.X...n ; q 6 2 9 & h / ( y o @ & & & O O O O O O o @ * * @ & m ! 4 @ L d * u 1 : B S F [ ..O.O.O...f.f.",
"f.f.A [ [ D S S S S n - 5 1 9 g & p W y ( 2 X o # @ O o O O O O o @ X   a / = q 4 & L d $ 5 1 : B A A S S ] [ ] C f.f.",
"f.f.N N B V B B N B b $ 1 = y g $ + y < ' W 2 $ . X o o O O O O o X o @ h i.I X O @ s p * 1 % > N N B B B B N N M f.f.",
"f.f.f.f.C S D S B A n $ = = 8 p @ @ o 2 y.p._ K 2 * o o O O O O O @ 4 K ` y.K # 8 < k f * 1 % < B C C D D D V f.f.f.f.",
"f.f.f.f.S G D S B S n - 3 1 2 8 % u 5 q t.s.u.! R K = O O O O O o & Y / u.' K Y y.h k d * 5 = : B C C D F | C f.f.f.f.",
"f.f.f.f.D ..[ F B S n - 1 % 2 7 + / / = ! i.u._ R R u O O O O O O < R t.y.( H ' i.0 k d % = = : B A A |  .*.S f.f.f.f.",
"f.f.f.f.] ....*.D D m - 6 1 7 i % ! i._ t.u.u.y.R K 1 O O O O O + 4 ! i.t.t.t.t.Q # m f * 5 1 : Z S D  .X.1.G f.f.f.f.",
"f.f.f.f.} +...2.D ] n < u 5 9 g % q $.i.y.t./ / R H % o O O O O O 4 R ' y.y.i.^ * + j p * u 6 : A D D  .+.5.G f.f.f.f.",
"f.f.f.f.} #.X.<.G S n $ 5 6 i g < + K t.y.t.R R R H % O O O O O @ 4 Y ! t.t.y.K O & 9 8 - u = , V A F O.O.1.G f.f.f.f.",
"f.f.f.f.] #.#.1.D A n - 6 6 w ~ H o $ R u.u.! R R K % O O O O O + 6 Y / y.y.y.H $ & 9 8 4 u 1 - B A [ @.@.;.S f.f.f.f.",
"f.f.f.f.F +.#.*.S A n - 6 6 9 ) I X @ R u.i.t.! R R q O O o O o # K ! u.u.i.y.a @ $ 9 4 ; u 3 < B C [ @.@.@.A f.f.f.f.",
"f.f.f.f.D O.O.O.A S n - 1 2 9 Q ^ y a R u.p.i.t.! R u O O o O o $ Y _ i.p.i.' 0 @ Y J 4 $ 5 % : B A [ O.+.@.A f.f.f.f.",
"f.f.f.f.D O.X.O.S S b - 5 1 i T Y 8 J R t.y.y.y.t.R u O O O O o # R u.u.p.` W 6 X H h 7 $ 6 1 : V V [ X.O.+.S f.f.f.f.",
"f.f.f.f.D +.O.X.V S n - u 5 i s a a Y ^ a 4 6 H / R a O O O O o # R / 6 q z R H O H h 8 % u 5 : B V ] O.+.+.S f.f.f.f.",
"f.f.f.f.D +.-.X.V S n - 5 1 i s y Y / t.a X O < a R u O O O O O - H + . + p _ ' 7 p J i - q 1 : V A D O.#.@.S f.f.f.f.",
"f.f.f.f.D +.1.*.V ] m - 5 * 8 y ; K / u.R o X - l R a O O O O O $ K <   ; ' p.' 2 * U f $ 1 1 : A D D O.#.@.S f.f.f.f.",
"f.f.f.f.D +.1.%.C ] m < u 0 * = = K / t.u.R k q K R a O O o O o $ Y R K ( d.a./ 7 ; U d * u 6 : A F D +.#.+.S f.f.f.f.",
"f.f.f.f.D +.6.%.A F m ; q 8 9 9 * q R / :.y.! K R K 1 O O O O o + u R t.y.p.y.Y 2 2 U f < u 5 : S D D X.#.@.S f.f.f.f.",
"f.f.f.f.D O.>.X.C D m $ 6 5 w s * + H ! / ^ K R R u o o O o O O o % Y R / / / y & 8 U s & 6 3 : V S D +.#.+.S f.f.f.f.",
"f.f.f.f.D +...F C A m * 6 5 w s * # = 5 Y ! ^ I H u o O O O O O o - Y ! R ! H # & 8 g s < q 3 - B V Z ] O.+.S f.f.f.f.",
"f.f.f.f.] @.[ F V S m - q 6 i s & 2 & @ m u ! K 6 Y 6 o O o O O + H R / ! h @ @ 2 7 i w < u 1 : B V S F X.+.A f.f.f.f.",
"f.f.f.N F X.] D V D m ; q 6 7 2 & 2 7 2 * * ! T I R a o O O o o $ Y ! ( Y @ & ; 2 < w i % u 3 > Z D A D [ ..A f.f.f.f.",
"f.f.f.N S F S A B V m $ 6 1 < 2 & 2 2 7 X = ~ ^ R R a o O o O o $ Y / _ I X & 7 2 7 i i - 6 3 < N B V S S [ A M f.f.f.",
"f.f.f.B Z A Z V B S V ; 6 2 < 2 ; 7 7 7 & ~ ~ R R R p o O O O o % Y _ ( H @ 7 7 7 7 s p % 5 1 e D S V V Z A V B N f.f.",
"f.f.f.[ =.-.-.-. .-...< 5 1 < 2 $ 2 7 2 & Y 8 Y R R p O O O O o + Y ' ` @ @ 7 7 7 2 L d % 5 1 t #.-.-.*.-.-.-.O.A f.f.",
"f.f.f.| 1.5.6.4.2.3.*.; = 1 i s @ & < & @ X * ! R R a O O O O O + H ! R X & 2 2 < < L d * 1 % l <.1.5.1.3.3.5.:.A f.f.",
"f.f.G S [  ...[ ] ] S $ 1 % 8 i @ 2 7 7 2 @ 4 t.W Y 5 O O O o O O < Y 0 @ 7 7 4 2 2 i i % 1 % e A D ] [ F [ F S M f.f.",
"f.$.:.D D S S D D F C $ 1 < < 2 $ ; 2 2 2 2 < ~ / a + O O o O O O # Y / @ 7 2 < & & 9 i % 1 % e D F D F F D F F { f.f.",
"f.1.6.1.1.>.>.1.1.1.O.< u q 4 8 @ & & & & 2 X & K f O O o O O O O o u _ & * * & & & w i * u 5 l >.1.1.>.<.1.1.1.8.>.f.",
"#.@.%.:.:.<.1.1.1.1.*.< 6 5 i s @ $ @ & & & & @ 2 3 O O O O O O o o = m & & & & & & f p < u 1 t :.<.1.1.1.1.>.,.%.@.#.",
"1...A  .X.+.@.O.X.X.] : y 6 9 s @ 9 s 2 2 2 & @ & # O O o O O O o O @ @ 7 & 7 2 @ & P d * u 3 e | ..O.+.X.X... .S *.1.",
"6...A  ...X.X. . .] V ; q 6 9 s @ s s 2 & ; & @ ; # O O o o O O O O @ - ; & 7 g 2 # L d & u 3 e F ] .... . . .} A -.0.",
"6. .A  .|  .| ] D S B - 3 1 4 4 9 d 2 & & & & @ & $ o o O O O O o @ o & & & & s k k E d % 5 % e S D D [ | |  .} A -.9.",
"6...V A Z S Z V V V M $ = 1 < g k 8 & & & * g & & $ o o O O O O o X @ & & & & 7 g j g 9 % 1 % e V V V C S A Z V S -.0.",
"0.1.+.O.+.%.+.O.+.+.[ ; = 1 < d s & @ & 2 2 7 g * $ o + O o O O O @ & @ & 2 2 7 i i p 7 % 1 % r O.O.+.+.O.+.*.O.*.6.0.",
"6.6.6.6.6.6.6.6.6.6.=.; = < $ w s & & & & & * 8 & $ o o O O o O O O & & o & & & 8 w i 8 $ 1 % z 3.6.6.6.6.6.5.5.6.6.5.",
"F @.-.-.-.-.#.-.+.X.] - % $ ; 8 9 i J P m = s % & # o o o O O O O O $ $ $ & d U f i 8 2 $ - % r ..%.-.-.-.#.+.X.X.X.C ",
"C X.+.#.#.#.+... .| D - % $ $ < < 2 2 2 2 O # o o o o o o O O O o X O O O O & 2 2 2 2 2 @ $ + r } }  .X.+.+.@.+...[ N ",
"A | X.O.+.+.X. .} F S : : : : : : > > > : , : : 2 : : : : : < : : : : : : : : > > : > > : : : , F F }  .X.X.O.+...] N ",
"A  .| [ ] [ } ] F D Z b N C S C B B B N B B V V C B B B B B B B B B B V B B N N V B B B V V N b D D G } [ [ [ [  .} N ",
"B S S V C C C C V V V N D } X...] ] ] V A D ] [  .] ] ] G [ [ F ] ] ] [ F F V Z F ] [ ] ] S A B C V C C C C C C S S N ",
"N V V S D D D D D D D D } +.#.+.O.O.X.D S [ X.+.@.O.O.O.O.O.O.O.O.O.O.X.O.| D S | X.X.X. .[ ] A C S S S D D D D S S N ",
"V D ]  .+.O.+.+.+.O.O.O.+.#.#.#.@.@.@.[ [ O.#.6.1.4.1.4.>.#.1.4.6.1.4.<.@.o.] [  .+.@.@.+.X.O. .[ | .. . ..... . .[ N ",
"V } *.1.6.6.6.1.>.-.1.6.6.5.3.6.6.>.@.[ X.@.>.0.0.0.q.0.7.4.9.0.0.0.0.9.6.<. .] O.<.6.6.6.4.6.1.:.+.+.O.+.O.+.O...[ N ",
"C ..>.0.0.0.0.e.w.7.0.w.9.0.0.0.q.6.>.[ O.;.6.8.0.0.0.0.0.0.0.0.0.r.r.r.r.8.*.X.<.9.0.9.q.e.0.q.e.w.w.7.6.6.6.-.@...N ",
"D +.<.9.7.7.8.8.0.8.8.0.7.7.9.8.7.7.;. .O.@.;.;.-.;.<.7.7.7.7.9.8.8.0.8.8.8.:.O.-.;.;.;.6.0.w.8.0.0.8.8.8.8.7.5.6.:.V ",
"} ....O.%.X.X.%.X.%.%.$.X.%.$.%.O.O... ...X. ...X. .X.O.O.o.O.O.$.O.X.O.%.$.X. .........o.%.%.o.O.$.$.%.O.$.o.%.%.X.[ "
};
