/* XPM */
static char *result[] = {
/* columns rows colors chars-per-pixel */
"59 75 115 2 ",
"   c #0E120C",
".  c #15110F",
"X  c #151210",
"o  c #191513",
"O  c #161915",
"+  c #1A1A16",
"@  c #1C1C1A",
"#  c #221E1C",
"$  c #1E211D",
"%  c #24211E",
"&  c #28221F",
"*  c #1D1F22",
"=  c #1D2024",
"-  c #1D242B",
";  c #1D2730",
":  c #1F2A35",
">  c #232422",
",  c #2A2522",
"<  c #252A23",
"1  c #2D2925",
"2  c #212429",
"3  c #2B2C2B",
"4  c #312A26",
"5  c #342D29",
"6  c #2D322C",
"7  c #33332D",
"8  c #39322E",
"9  c #212B35",
"0  c #222E39",
"q  c #22313E",
"w  c #343433",
"e  c #3D3531",
"r  c #343A31",
"t  c #393C34",
"y  c #3B3B3B",
"u  c #403734",
"i  c #413935",
"p  c #3D433C",
"a  c #3D493A",
"s  c #404E3E",
"d  c #233442",
"f  c #263A4B",
"g  c #283D4F",
"h  c #273E51",
"j  c #283E51",
"k  c #2A4255",
"l  c #2C465E",
"z  c #304A5E",
"x  c #2D4760",
"c  c #2E4B64",
"v  c #2F4E6A",
"b  c #304D67",
"n  c #304F6A",
"m  c #2F506C",
"M  c #31516E",
"N  c #325573",
"B  c #335877",
"V  c #345B7C",
"C  c #385D7B",
"Z  c #434443",
"A  c #464845",
"S  c #4B4C4B",
"D  c #4F504E",
"F  c #50514F",
"G  c #535353",
"H  c #575857",
"J  c #5A5B5A",
"K  c #5E605E",
"L  c #656765",
"P  c #6D6D6D",
"I  c gray44",
"U  c #365F80",
"Y  c #366184",
"T  c #396384",
"R  c #37658A",
"E  c #38668B",
"W  c #39698E",
"Q  c #3B6C93",
"!  c #3B6F98",
"~  c #3E7097",
"^  c #3D729C",
"/  c #3D75A1",
"(  c #3E79A6",
")  c #3E7BA9",
"_  c #416D8E",
"`  c #426F92",
"'  c #417194",
"]  c #42759B",
"[  c #47789D",
"{  c #4277A0",
"}  c #447BA4",
"|  c #497EA4",
" . c #427DAA",
".. c #4A80A7",
"X. c #4480AE",
"o. c #4A82AC",
"O. c #4684B2",
"+. c #4A86B3",
"@. c #4D8AB5",
"#. c #4D8CBA",
"$. c #518CB7",
"%. c #508EBA",
"&. c #4F90BE",
"*. c #5191BE",
"=. c #5394C1",
"-. c #5798C6",
";. c #599AC6",
":. c #5B9DCB",
">. c #609FC9",
",. c #5EA1CD",
"<. c #62A3CD",
"1. c #64A5D0",
"2. c #67A8D2",
"3. c #68A9D2",
"4. c None",
/* pixels */
"4.4.4.4.4.4.4.4.4.4.4.4.4.4.4.4.4.4.4.4.4.4.4.4.4.4.4.4.4.4.4.4.4.4.4.4.4.4.4.4.4.4.4.4.4.4.4.4.4.4.4.4.4.4.4.4.4.4.4.",
"4.4.4.4.4.4.4.4.4.4.4.4.4.4.4.4.4.4.4.4.4.4.4.4.4.4.4.c x c c c 4.4.4.4.4.4.4.4.4.4.4.4.4.4.4.4.4.4.4.4.4.4.4.4.4.4.4.",
"4.4.4.4.4.4.4.4.4.4.4.4.4.4.4.4.4.4.4.4.4.4.4.l x c Y Q M R Q Q v c x x 4.4.4.4.4.4.4.4.4.4.4.4.4.4.4.4.4.4.4.4.4.4.4.",
"4.4.4.4.4.4.4.4.4.4.4.4.4.4.4.4.4.4.4.4.4.v v c V ^ / ) B ^ ) ) ^ R v c v 4.4.4.4.4.4.4.4.4.4.4.4.4.4.4.4.4.4.4.4.4.4.",
"4.4.4.4.4.4.4.4.4.4.4.4.4.4.4.4.4.4.4.l B ! / / / ) O. .B o.+. .) ) ^ ^ ^ Y x 4.4.4.4.4.4.4.4.4.4.4.4.4.4.4.4.4.4.4.4.",
"4.4.4.4.4.4.4.4.4.4.4.4.4.4.4.4.4.4.x B /  . . .O.#.%.=.C o.*.%.#.O.O.X. .) U c 4.4.4.4.4.4.4.4.4.4.4.4.4.4.4.4.4.4.4.",
"4.4.4.4.4.4.4.4.4.4.4.4.4.4.4.4.x v v ^  .@.%.%.#.} Q o.C V Q ! ^ %.#.%.@.O.) B N b 4.4.4.4.4.4.4.4.4.4.4.4.4.4.4.4.4.",
"4.4.4.4.4.4.4.4.4.4.4.4.4.4.l M B Q N  .#.O.Q Q Q R Y R B c V T T Q Q Q { #.@.B | T B x 4.4.4.4.4.4.4.4.4.4.4.4.4.4.4.",
"4.4.4.4.4.4.4.4.4.4.4.4.4.N V Q  . .` ] Q E W E T V N B V b N N B Y Y W Q W ] ` %.O./ V N 4.4.4.4.4.4.4.4.4.4.4.4.4.4.",
"4.4.4.4.4.4.4.4.4.4.4.l v Q ) ) O.+.o.U B U U V B N B N B b M N B B B Y U B B ] +.+. .( / B x 4.4.4.4.4.4.4.4.4.4.4.4.",
"4.4.4.4.4.4.4.4.4.4.l v Q ) O.#.+.` E V n n B B B N M v M z b M N B B B N v B T W | #.@.) / B x 4.4.4.4.4.4.4.4.4.4.4.",
"4.4.4.4.4.4.4.4.4.l v Q ) O.+. .! U V N B n n N v b c q : : 9 k c v n M v N B V U W }  .@.) / B l 4.4.4.4.4.4.4.4.4.4.",
"4.4.4.4.4.4.4.4.4.v Q ) O.+.` E U B B b c c x j - - - # # # + = - - q c l b c N B U E Q | @.) / B 4.4.4.4.4.4.4.4.4.4.",
"4.4.4.4.4.4.4.4.v Q ) O.+.! Y V B N l 9 - - 2 # # # # # 4 4 & # # # @ - - - - f M B V U W  .#.) / B 4.4.4.4.4.4.4.4.4.",
"4.4.4.4.4.4.4.z N ) +.+.! E V B N l 2 # , # , # 1 5 5 5 5 5 5 4 5 4 , , & & & > j n N B E W | @. .Y c 4.4.4.4.4.4.4.4.",
"4.4.4.4.4.4.l b } O.+.Q T B B c 9 * > 4 4 8 e 1 1 8 e e 8 u u u e 4 , 8 8 4 4 & * - j B B U Q | +. .C l 4.4.4.4.4.4.4.",
"4.4.4.4.4.4.v v C | Q U U B x 9 & 1 4 8 8 8 e 5 4 & + # o o + o # 5 , e e 8 8 5 , , 2 k N B R T ^ U v v 4.4.4.4.4.4.4.",
"4.4.4.4.4.N ! ^ C N E U B c 9 , 8 4 4 8 8 4 o o o X . . X . X X X o X X , 8 8 5 , 8 5 2 j N U E B M Q / V 4.4.4.4.4.4.",
"4.4.4.4.x Q ) O.| B U U b 9 # 4 8 , # o o o . . X X X . X X X X X X X X . X o + , 8 5 # - j V T B ] +.) / v 4.4.4.4.4.",
"4.4.4.4.N Q  .*.! U n b 0 # , 8 5 + . . . X . X X X X X X . X X X X X X X X X X X 4 8 5 > 2 l n B T #.+./ U 4.4.4.4.4.",
"4.4.4.l Q !  .O.E B N d + 4 8 5 @ X . X . X X X . X X X X X X X X X X X X X X X X X 4 8 5 # - v B U } @. ./ v 4.4.4.4.",
"4.4.4.l Y ! #.~ R N x ; # 8 5 # . X X X . X X X X X X X . X X X X X X X X X X X . X o 4 8 , * j M U T $.O./ v 4.4.4.4.",
"4.[ l l C R $.~ U N f o & 8 > . X X X X X X X X X X . X X X X X X X X X X X X X X X X o 8 1 o : v V Y @.O.^ v l C 4.4.",
"4.$.! M N C $.~ B N f # # 4 # X X X X X X X . X X X X X X X X X X X X X X X X X X + y # 1 , # : v B R @.O.R v R o.:.4.",
"4.Q +.} N N +.~ Y N f % e 1 5 > O + o X . . . X X X X X X X X X X X X X X X . X O O w t < e 1 9 n U T %. .B Q #.] T 4.",
"4.N ' +.Y N $.' V N f % e 1 @ * @ * o X . . . X X X X X X X X . X X . X X X X + $ O X 3 3 e , : n B E %.Q N o.{ T x 4.",
"4.B Q Q T N ..Q B N f # w & O F w $ @ o O . . O X X . X X X X X X X X X X X X + = + O $ r e > : v B U o.C B Q W R x 4.",
"4.c v M m v B N v n f @ e , O K w O $ X . . . . X X X X X X X X . X X X X X X @ < 6 $ > t e , 9 c c n N M M M N N l 4.",
"4.l N R Q ! Q Q ! R f # e , + G t O % . . . . . X X X X X X X X X X X X X X X @ % + s 1 t u , : v N V U Q ! ^ ! Q 4.4.",
"4.4.N Y Y B N B N N f @ 5 & + G J = O . . . . . X X X X . X X X X X X X X X X + # & y 1 r 5 # : c N N N B U Y V v 4.4.",
"4.4.c x c c c c x c f @ , & o w G 4   . . . . O X X X X X X X X X . X . X X X . + s > $ r 4 # 9 c x c c c c x c l 4.4.",
"4.4.4.l M B B N c M f + , # X   Z k % . . . . . X X X X X X X X X X X X X X X @ k G @ + 7 4 + : n v n B B B c 4.4.4.4.",
"4.4.4.x N U B N c N f @ 1 % X   y y , # . . X X X X X . X X . X X X X X X X X y J J w $ 7 4 # 9 b v b C U Y v 4.4.4.4.",
"4.4.4.x U W U C c N f @ , % X y J y 3 2 @ . X X X X X X X X X X X X X X X . + A J J F = 6 1 % : M v N R Q [ v 4.4.4.4.",
"4.4.4.x U Q Q { N B f # 7 & O P I w 3 2 2 . . o X . X X X X X X X X . X X X > y G J F > 7 7 & 9 N m V W ^ $.N 4.4.4.4.",
"4.4.4.x W / ! @.B V f & u , + L P S w , & . . . X X X X X . X X X X X X X X # 3 S H w % p i 1 9 B B B Q { *.M 4.4.4.4.",
"4.4.4.x W ) ! @.N N f # 5 4 o S K H w , & . . . X X . X X X X . X X . X X o > 3 D G * = 7 e # : m m Y Q ) #.N 4.4.4.4.",
"4.4.4.x W ) ) @.M M f # 8 1 o = S H w , 2 . . . X X X X X . X X X X X X X # 3 3 D G # $ 6 e & : M v R ) ) } M 4.4.4.4.",
"4.4.4.x U / ) } M M f # e 1 + + A J w 2 % . X X X X X X X X X X X X X X . # 3 3 S G $ $ 6 e & : v v R ) ) ^ v 4.4.4.4.",
"4.4.4.x U / ! ! n M f + 4 # A K G f 3 3 2 . . X X . X X X X X . X X . . . * 3 3 r S < J 7 7 % 9 n v R ^ / / m 4.4.4.4.",
"4.4.4.l V / ! ~ v N f * 5 # y J i 5 3 3 > . . . X X X X X . X X . X X X . # 3 3 3 Z 2 S 7 7 & 9 v v R ! / / v 4.4.4.4.",
"4.4.4.l V / ^ ! v n f # e 4 y J y , 2 < # o X . . X X X X X X X X X X X . @ , 3 3 3 3 S r e & 9 v v R ^ / / v 4.4.4.4.",
"4.4.4.c U / X.W v B f * 5 , 7 G y X . @ o X X X X X X X X X X X X X X X . . # + X 3 F S t 8 % 9 m m V / ) / m 4.4.4.4.",
"4.4.4.l V / *.Q n U f # 4 # # S y @ O X . X X X X X X X X X . X X X . X . . + * @ 3 S w r 4 & 9 B B V / ) ^ v 4.4.4.4.",
"4.4.4.l U / =.Q n U f > i 1 = S A w 3 o . X X X X X X . X . X X X X X X . X & 3 3 Z F r r i 4 9 B N V / ) / v 4.4.4.4.",
"4.4.4.x V } *.Q n U f # 8 1 $ A H y 3 o X X . X X X X X X X X X X X X X X o 2 3 f G p 6 p i & 9 B B V / ) ^ m 4.4.4.4.",
"4.4.4.l U / +.W n B f # 8 & # S J w 3 = X X X X X X X X X X X X X X X X X * & 3 F G # 1 r 8 & 9 N v V / ) / v 4.4.4.4.",
"4.4.4.x U ^ Q B c N f # 8 , # 3 S y 3 3 o X X X X . X X X X X X . X X X X o # 3 F G # 1 r 8 & 0 v v B U / / v 4.4.4.4.",
"4.4.4.c R / U U v M f > e 1 # < A S w , o X X . X X X X X X X . X X X X X X > 3 S 6 < 6 p i & 9 v v B V ^ / v 4.4.4.4.",
"4.4.4.l U Q V B v B f # e , $ < & 8 3 3 o X X X X X X X X X X X X X X . X X > A G $ $ < r i & 9 N n N B R W v 4.4.4.4.",
"4.4.4.l V V N M c v f @ 5 & > > X s w 3 O X X X X X X X X X X X . X X X X . > S K $ & 6 r 8 & 9 c c n N B U c l 4.4.4.",
"4.4.l c M v v v c B l * 5 % $ > + g w , o X X X X X X . X . X X X X X X X X > S F 6 < 6 r 5 & q B M v v v n v v c 4.4.",
"4.4.l T  . . .} W } Y > 5 % + $ O = 6 3 X X X X X X X . X X X X X X X X X X > A % < < < r 5 & k  . . . . . . .~ c 4.4.",
"4.4.l ' *.*.=.#.*.*.W + , & + $ $ O < < X X X X X X X X X X X X X X X . . X > 6 $ $ < < r 5 + z %.#.%.#.%.%.%.} v 4.4.",
"4.4.B N U E Q U C Y c + & # O $ @ X < o X X X X X X X X X X X X X X X X X X $ 6 O < < 6 r & % q N B U U U U V M l 4.4.",
"4.[ } B B B B V B C l @ 1 % @ $ $ X < + X X X X . X X X X X X . X X X X X X $ < O < $ < r & % q B V V B B V V V E 4.4.",
"4.=.=.@.@.O.+.@.#.#.W % 8 1 + $ = O $ o X X X X X X X X X . X X X . X X X X X @ $ $ $ $ a t & z #.#.@.#.@.#.#.#.;.4.4.",
") ^ } X.X.@.#.#.#.#.W > 8 4 $ % @ $ O X X X X X X . X X X X X X X X X X X X X o $ $ $ $ t e & k X.+.#.#.#.@.O.+.] ) ) ",
"+.Y N Q Q ) ) ^ ! ! N @ e 1 < < $ $ @ X X X X X X X X X X X . X X X X . X X X @ $ $ $ $ t i & f W Q / ^ ! Q Q R N  .%.",
"#.Y N Q Q ! Q Q R U x = 8 1 + % $ $ $ O X X X X . X . X X X X X X X X X X X X @ $ $ a $ r i & d U Y Q Q R W E Y M O.:.",
"=.Y B R W T W V B N l $ 4 & % > $ $ $ o X X . X X X X X . X X X X X X X X X X @ $ % a a t 5 # q N B V Y E R W Y N O.:.",
"=.Y v M M M m m v v g + 1 # 3 < $ $ $ X X X X X X X . X X X X X X X X X X X X @ $ $ a a 7 4 + 0 v v v M M N m m N +.:.",
":.+./ / / / ^ / ^ } C + & % & < * O @ X X . X X . X X X X X X X X X X X X X X + $ $ 7 7 6 1 # f / ^ / / / ^ ^ ^  .-.:.",
"=.=.=.=.=.=.=.=.=.=._ $ < % $ % O O @ X X X X X X X X X X X X X X X X X X X X @ $ $ = 6 6 , + z =.=.=.=.=.=.=.*.=.=.*.",
"U ) )  . .)  .) / ! N @ & o < < @ X X X . . . X X X X X X X X X X X X X X X . X X 3 a w 3 & + f Q ^ ) )  .) ~ ~ ! Q v ",
"N ! / ) ) ) / Q W R v o # o > @ X o X X .   . . . . . . . . . . . X . . . . . . . X X + > @ + f T W W ^ ) / ) / W U l ",
"N W ! / / / Q W U U v * ; - - - - - - - - - - - - - * * - * - * * - - * * * ; ; - = - - ; - = g Y V W Q ^ Q ^ ^ Q V x ",
"N W R Y Y U R U B B v h v n N v c v v x c c c v v v v v v v v v v c v c v v x c v v c v c v k k B B V T Y Y Y R R U l ",
"v B M v n n n n v v v v V R ! R U Y V c N B U R R U U U U U U U U U U U U V b M V V V Y V B m c v v v v m v v m B M x ",
"c v v N B B B B B B B B R / ) / ^ ^ ! N B R ! / / ! / ! ! ! ! / ! / ! / Q R N V R ^ ^ ^ R Y V N b N B B B B B B B m x ",
"v V U ! / ! / ! / / / ^ / ) ( ) ) ) ) V R ^ ) =.=.=.=.=.) ) #.=.=.#.=.@./ ! U U Q / ) ) ^ ^ ! R Y W Q W W W W W Q V z ",
"N R } #.=.=.=.=.)  .#.=.=.=.=.=.&.X./ U ^ ) @.:.:.-.:.:.=.=.:.:.:.:.:.-.=. .R U ^ #.=.&.=.=.#.#.o.^ / ^ / / / ^ Q V x ",
"N ! #.:.:.:.,.2.>.-.:.1.:.:.:.,.:.=. .U /  .=.-.-.-.-.:.:.:.:.:.:.3.3.3.1.-.{ ! #.:.:.:.,.1.:.1.<.<.<.*.=.=.*.X.( W l ",
"B / #.-.-.-.-.-.:.;.:.-.-.-.-.-.-.=. .Q /  .O. .O.) =.-.-.-.-.-.;.:.:.:.:.-.} /  . . .O.-.>.<.-.,.;.:.;.-.;.-.*.*.} c ",
"R Q ! ` ] ~ ^ ~ ~ ] ] ~ ] ~ ~ ~ ^ ] Q W Q Q Q Q ! Q ! ! ^ ] ^ ! ] ! ! ! ] ` Q W Q Q W Q ] ] ] ! ~ ~ ' ] ] ~ ~ ] ' Q Y "
};
