/* XPM */
static char *result[] = {
/* columns rows colors chars-per-pixel */
"75 75 58 1 ",
"  c #010403",
". c #000B05",
"X c #00060B",
"o c #030C0C",
"O c #090D0E",
"+ c #06100E",
"@ c #0B110F",
"# c #040D12",
"$ c #0C0E11",
"% c #050F18",
"& c #071113",
"* c #0B1415",
"= c #0E1816",
"- c #0C151A",
"; c #0F191B",
": c #111516",
"> c #111A17",
", c #11171A",
"< c #121B1D",
"1 c #191C1D",
"2 c #16201E",
"3 c #19241E",
"4 c #0E1720",
"5 c #0F1921",
"6 c #101721",
"7 c #141D23",
"8 c #191F23",
"9 c #161F29",
"0 c #181F29",
"q c #172023",
"w c #1A2325",
"e c #1F2926",
"r c #172029",
"t c #1C252B",
"y c #1F282C",
"u c #1E2631",
"i c #1F2831",
"p c #212224",
"a c #212B26",
"s c #20262B",
"d c #212A2D",
"f c #25312F",
"g c #202632",
"h c #232B33",
"j c #292F33",
"k c #252E38",
"l c #263034",
"z c #293335",
"x c #2D3937",
"c c #273039",
"v c #2B343A",
"b c #2E393C",
"n c #313B3E",
"m c #36403F",
"M c #2E3740",
"N c #323B42",
"B c #3E474C",
"V c #41494B",
/* pixels */
"vy9tiitt-<wyyytttrtiihr#riticurtryt;6ycdssst8887t0thitrructr54hiticiuiir==*",
"Mkyhchyietyfdytrtqthicu-titryirhtliqqhdttshhgt8<vhu0qtiv9iyir4tttyutyiiteye",
"w99tyytt;;<yyrrttrtithy-qhy9tiiteyr;;wyt80tys8,%tygtwrttqchcy6iyitttytrt>==",
"ytthhyyyq;<dciikyrtyryt;;hhtlzyrrq;&*7dhjjgst8977dlkihhtqyqt;%qylyyhiwwt=**",
"ddyee7;&<*=qq4-9rweywedq<ytqteww97;--qtdss08,--%77q**7reeltyt=tetqwttqqq1<,",
";;*;;7;oo&&&*--4**wwqwdq;7*o==*2-<6796;-%,88-#XX*&&*=**=wdwlh<qq&*=*=;=-==*",
"qq<7dxlw*qy3qicvoo2q2qyq;=&-5&o;<;97q76<7svcs68tw<qxve=-;2&ew&&o*<;oo;2=w32",
"daq2dxy;=dcq4tki&=wywelyeqevmw*qytqetyhc,0js6,8hz2,df;&;zf2flqtelxl==ylqw3e",
"t9-9titrtt979000=qtflihhtcuru-&l9999rrrr7yht78gd-9qtr;4qttihihlcuu949tur779",
"t94;9ttqt97,6797&=qtyyiiihtti5-yytttwtrt&<w78qw7;;q2;-=<ittyiyytqer;9rtw9tw",
"qq<qqeqq7<<<<<,,*5ydyiicyt;2yr=qqq7<qqqq<<w8qe<,;;22;;;3vhiyhhitqyywqtey97q",
"*;qqe<>*;=:=-=:-=qeytqwt3=&*==*<*=***&=*aw1>>>,==*===*=3itwrttr4+&+&*=;=***",
"*=<2<==*oO*=:==:+*;;;%-42===&&;q=******=a2:***O@=**=*+*=9-%-;4-%*+o&;2;*==*",
"eqq;,7qy*=,8q8ww*=2qqrrtwqtw&=ydwweqqwww2,<we1**ewq32;=;tq99rtrqdq;efldyqqw",
"litrthhk-9tgggshqwtyhclitrhi-5iyyiiuyuiiw8tjds7<fhalyw<7hhhhhhhii9-9tyttttt",
"ttthkhhu67tggttuwqqeyitrrril;9iryttttttudsshhw8tyttyyt99yyytrrqthr5rtttittt",
"ruihhihvttetyyeywqqweylewweeeqqwuryitthtiuuhhitrhtteyyrqtdyyfq2ywq7qeetyety",
"rrrrrrrrwwqqwyttwwwweettqqq<;;2wrqtt99r7947ttrrqetwtetw2wytyyw2eeqq7qqtq;--",
"****;;;;2;;=2272q2<5qqq2;<<qq22qq;;<*-=*=&*;q<;<22<<2<<=2w22w<*27<------q7-",
"2qq====;===;2<;=;;;2qwww*<yllyq7wq*&;2222;*=;===<22<<<<=<wqqt5-2khhyuytr-;4",
"fxzw;==;7qwydew;tttyyhli-qhvvhywfe*&dxfze3;;,;<<wdytweetthhiftqdvkkkhhutX6k",
"dxzw2qwwrttildr7hiyillhl9tihhihhlf&+zblzyq2qwqetthittyithlhhcirhhuuuut07#dB",
"yir;rivyrrruutrryyyiiiiittyiyyihti;-vvrhrr7tyytyrihr9uiuthihltqikkkkkkhu#yn",
"ch9-9li9uuruuuuttuuilccv9uhkhhuutvt9Mcri;4rikut9rhkr9uiuilihcirhhuuhkkhu-hb",
"vw;;qyyyhyr<eea3wettlt;;e3aflyttizw=tzfq-wtthdthteteewwwihiq2qaakddddtdh=qh",
"qqqeteq<<<-;;<=+=;*=22*=32;27;;7;q=#5tq<7tq7w9;9**;;;<;;;qq;*=23w96<-<<9o;q",
"-7tyw74;-;772<;&<q**qq;qq<;;-&%--q;-5eq;yy7-<;-;<<<<<<;<&57<=<><-7-o#-67-;w",
"rttt9799-wddddytetq;edtdqweat;&&rchtiitthyq<t7;tdfdhyeww-qtyteeqty7#%whdyhh",
"liutttuy;tihyhkitywqllilyhcchr-;hMvkvchcyhtyhtqyfhhhiytwqtlvllhhhht-;hvhvcv",
"chihkkut6wyttyuurtrrlcihcliuq57etkhuchihylyhlw5yrttytttt;tlchlkisy7-<skykkk",
"iuuukku9<wtttuu0tirwhcihciirq;qyturuhurityyiy5;hrttyitutqtikiiiiyw6<9tytuuu",
"iu99ruuu;qetihuutirriiihuuiMt9qykkurku9uwttyy;;ciiiiiuttweciuiikhe9wdtyyhuh",
"ttyhy7-#,-sgugugweqqeflddwqyt22dkuhithh9iht9<::sgguhhitrh;hywcetteqqqwehttu",
"w7<qw769w-hs0guhttwetheqwqqwq;;q5-7t99tr-64-7$$8tttyyhyty7cd7d9qqeeqwwqwrrr",
"&oX#-<6<:.<,$6,,===-;<-oo+=-;;<<6&<e*.&;%-678,$:-*--;<<<-&t7o%o*&&*-=&oow8;",
"9-,thkato :*o-%:;qewdlq*=wftezxdy2ww&o&=9hhdd,O$*&oo&=;=9qch%&7tzvbbbzdep,O",
"cayhccht,@aa8hw8tylcvby-ybnlivcrwwe=+qd3ickdj1:,awq2qwyehjnl6<hntyyyyttr:@ ",
"vhw9qtww<>hzdcdgrtrthi7#rihtrte4etw%*lberytts8,1zlyteddywhst*%hhiiyyyiyi::O",
"Nlytyydh,%as0h00ittthkt%riiythchhyt74ic9rt8ws8,wdttrtttrthtd7-ldittttytuaq2",
"httdswts8-hg0h0tutrthkt4tiiytuiihrrttththkgpj8:,iytuyttrehwhw-kwtuiiutttqqe",
"9ykqvihi7-;tyt9tqrr9rku4tr9tittMde;*=;eyhhuyw81<<hd9wt9wtuhi6-rctrtyiitt::*",
"yhh7h96%w99ydtttehiruiq-4ihikhqtq<;;<wyfuutt8,=*dht9yddv9tyt7-9uciiiit97:::",
"wwt;lwq;XX#*%#&-;qertdy<;et&;<<2<;;;;<7<6808-%o$--##--*9yahdeqqt;=;<<<;=::,",
"*o* w2<&#%--,<qy.+*;qdaw+;&.+**<q<<q;;;;-8st,$%*6-*th-X-<<2ww=*&o+oo&;;=1,,",
"lfdqmxze7tydahcb+=<9eeq2&=<af<o<q79qqtyi-szjw80tdetcNw&<222ee2;*ey3=;<w<qw7",
"qq<#fww=9tw79wtt=7yiiyeddtezx<*ttrqrrrtt*thd8ttuw6;th4%7ldhvxleyzcy;;eeqw8w",
"q97%hytqte9<-9q7*<uhhiclvk9tt<-kytrrq949*1a86700q9;7e--tyttyiyytqt9-;tt9q99",
"ttu-hrt4q9,*-79<%;ukuttythuty96trrtttttt*wd8,tu0-6-<7%&7hiuiiiik9ur79uy9qq7",
"<<22<<<;w;,<,<8==qydyyhcy977-6t9qqq72525w72q8<::<12<=*=ehdyiddtq,97<78t6767",
";;7eeq;=*o*>*=<$&*qq5545;---o%<<--*%%*%*fw2;-,,8++&=**=277<66<;-*%%*-;--***",
"&=;;;;**&o,q,,7,&-;2q;447;q7*-wt955<<555;=*;,*OX2==2;**=77<;<66;t-*7t97w767",
"yytwetyd;-wdesdw=2wttyyitthy77hhyyyyydyy25wdde,:fyeyeq=-dyytyyyil7-wkyakyyy",
"lytttyhc<<pjwshdqqqehhhiqqyt-<wtytttryyyfyetatpsyeeyhyw7hsddyyyhd<-9yttdttt",
"qrtuyyytw7afadjawwwtyhittqyt-<twtyetyyytdteyaw<<httdhyw7tyyttwqtd7-9ttqttwt",
"tuikhhhis1wdeddweqqwhhitywyy9wytyyttrrttq3yxzdq<hyyyyq77qtdhtw97ttwttytwqwq",
"4---4495w<18<ww,22<qyhyt9;79<7t975;--===5===<<<w<<79q77w9tddt777<79<779----",
";&*;q<;;=-,<<<22;;=;;=;2*=2wqqrr=w<&q2+=q&;w;*====wq;;2*2>+<e;+<tqq2<<<<11>",
"lftq;*=;<<qeweq72qqeewyl2wfbxctuwf-#wltfw&&2;=<<qqwt;7e5teqtde;evvchhdyt *e",
"fxzw;2eqwtukhyq7iiuhlihc=2yhhyr0hh-%hNzbl2=qqqwwlyhtqtlthhhkct9ykhhuyu99odV",
"qdeqqydwttuhkir9hiilciiityhhiiiiui--vMiid7qywwwwchhtrrhtthhkcr9huuhuiiuu 1z",
"yhe-7dhqtrrruutrtrtilchctthhhhccthqrvvrr;-thtwrrttiuqrtrtchhirrhhhhkhkhh1jn",
"cy6%5ictiyrrtiithtrhhhyt<eyhiiuutvr5ccth%-ivytittthhttirtchyyttchkhuuuuu,wd",
"yr74riiiyw3qwwerywqetq;=wedfyyttwy;*tftyrriirtut22tt<qt2qyq<qqqyhhhyyysh$6d",
"rrthht5-2=&+=*&o=&+=<;++2<=*+&&*=q++we;<itt9--5-++**+&=&=<*+*==w-*&##-,7$6p",
"qqq22===.;twyhu7te;&2qqa2wqqe=.+qqeeq7--f2<*;=oweyyyeqqq*23ww377qyq..2ywwqq",
"ewetwyey2yzlcbvhet2<yldlyhiyy2*;kccllchhdqeqyy<zyyhhtttt2qfflyiiyhe&*whyhhh",
"vchiiihh;wwwqyhyturtcvlchckihq<ekuhkkkhhhtiyhi;hyiiiuuyiqtlvzccMhkr-;hvikck",
"khiuuuut2yewtyhitittccihiciut57dukhhhhhkiuhtiu%rtuuuuutuwtivhiiiiuq-7ikuuhh",
"u09uiiuuqeddhhhiuiqrhhuiukitt97hhukuuuuuuthriu5kuuutuutrrwiiiuuuiuq<qhktyuu",
"guuuhu96;<wttttttt97ihyluhutyqqdyuuuut00tti79r-yhiuyutur2qdliiiliytqthhihhg",
"kut9995%;<eddiuhteq2yfey9rqqy3;wydhhhhhy7qt==;o2ttttyytr23etttwyttq2<ettttt",
"5-%%4799*-;7w9ryqw<<tw;2-;=;3>+=*=<<7<<,o*2=;2*wqq7qeytq<23qq;;2-;<=*=;;<<<",
"%o*7qay-$ 1O$#=-+=;=7w2.o*=f&tm-75t1XX%%7t0ss*.+*oXO*:,14*qw, 2.qqtdy<<7e,O",
"yqeyyzle@ w:<-6<wdfhlxf>2aexqlbt9tt1$,07uhshj<*<w<:1118wcyxxp+zfdydlheey1=O",
"bitytdht,Ojpdyhd3wttylq+andfrfiyuyp*Opvsuussd,*qzhssswssytjs:Xbvyyydyttd,OO"
};
